<?xml version="1.0" encoding="UTF-8" standalone="no"?>
<svg
   xmlns:dc="http://purl.org/dc/elements/1.1/"
   xmlns:cc="http://creativecommons.org/ns#"
   xmlns:rdf="http://www.w3.org/1999/02/22-rdf-syntax-ns#"
   xmlns:svg="http://www.w3.org/2000/svg"
   xmlns="http://www.w3.org/2000/svg"
   xmlns:sodipodi="http://sodipodi.sourceforge.net/DTD/sodipodi-0.dtd"
   xmlns:inkscape="http://www.inkscape.org/namespaces/inkscape"
   viewBox="0 0 512 256"
   version="1.1"
   id="svg8"
   sodipodi:docname="AccomodationDetailsBlue.svg"
   inkscape:version="0.92.3 (2405546, 2018-03-11)"
   width="512"
   height="256">
  <sodipodi:namedview
     pagecolor="#ffffff"
     bordercolor="#666666"
     borderopacity="1"
     objecttolerance="10"
     gridtolerance="10"
     guidetolerance="10"
     inkscape:pageopacity="0"
     inkscape:pageshadow="2"
     inkscape:window-width="1842"
     inkscape:window-height="1051"
     id="namedview995"
     showgrid="false"
     inkscape:zoom="1.84375"
     inkscape:cx="113.75331"
     inkscape:cy="149.96643"
     inkscape:window-x="-9"
     inkscape:window-y="-9"
     inkscape:window-maximized="1"
     inkscape:current-layer="svg8" />
  <defs
     id="defs2" />
  <metadata
     id="metadata5">
    <rdf:RDF>
      <cc:Work
         rdf:about="">
        <dc:format>image/svg+xml</dc:format>
        <dc:type
           rdf:resource="http://purl.org/dc/dcmitype/StillImage" />
        <dc:title></dc:title>
      </cc:Work>
    </rdf:RDF>
  </metadata>
  <g
     aria-label="free camping available on-site saturday night alternatively, hotels nearby in (sunny?) cromer "
     transform="translate(117.81641,137.28477)"
     style="font-style:normal;font-variant:normal;font-weight:normal;font-stretch:normal;font-size:42.66666794px;line-height:1.25;font-family:'Moon Flower Bold';-inkscape-font-specification:'Moon Flower Bold, ';letter-spacing:0px;word-spacing:0px;fill:#18394c;fill-opacity:1;stroke:none"
     id="flowRoot3104">
    <path
       d="m -75.480469,-118.84963 q 4.457032,0.21875 6.945313,0.21875 l 0.492187,0.73828 q 0,1.44922 -1.367187,1.44922 -2.816406,-0.10938 -5.496094,-0.10938 l 0.519531,13.125 v 0.082 l 0.05469,0.71093 q 1.011719,-0.13672 2.652344,-0.13672 h 2.84375 q 0.820312,0 1.039062,1.39454 l -0.984375,0.79296 h -3.335937 q -2.050782,0 -2.050782,-0.10937 v 1.203124 q 0,1.585938 0.21875,13.125 v 1.175782 l 0.109375,0.65625 q 0,0.683593 -0.05469,0.683593 l 0.05469,0.519532 v 1.230468 q 0,0.4375 -0.820312,0.875 h -0.519531 q -0.601563,0 -1.121094,-0.847656 -0.410156,-22.558593 -0.410156,-22.558593 l -0.464844,-1.09375 0.21875,0.4375 q -0.4375,-8.66797 -0.4375,-12.93359 0.875,-0.62891 1.914062,-0.62891 z"
       style="font-size:56px;line-height:1;text-align:center;text-anchor:middle;fill:#18394c;fill-opacity:1"
       id="path3120" />
    <path
       d="m -61.589844,-122.10354 h 0.875 q 0.328125,0.4375 1.804688,0.6836 2.378906,0.95703 3.800781,3.39062 1.914063,4.6211 1.914063,6.86328 v 1.09375 q 0,7.38282 -3.527344,10.144534 4.15625,0.984375 4.949219,11.59375 v 4.183594 q 0,0.929688 0.136718,2.980469 l -0.792968,0.519531 h -0.847657 l -0.820312,-0.628906 q -0.136719,-2.433594 -0.136719,-3.527344 v -3.9375 q 0,-3.992187 -2.40625,-8.121094 -1.476562,-1.394531 -2.488281,-1.394531 h 0.601562 q 0.08203,1.804688 0.08203,2.953125 v 4.15625 q 0.21875,5.414063 0.21875,6.125 v 0.328125 q -0.4375,0.875 -1.339844,0.875 -0.519531,0 -1.257813,-0.847656 l 0.136719,-0.929688 q -0.21875,-4.59375 -0.21875,-6.097656 v -6.015625 q -0.273437,0 -0.65625,-0.902344 v -0.519531 q 0.4375,-0.875003 0.519531,-0.875003 -0.519531,-14.4375 -1.421875,-21.4375 z m 1.886719,2.625 q 0.601563,7.41016 1.09375,18.10157 2.953125,-1.9961 2.953125,-8.14844 v -1.53125 q 0,-2.76172 -2.296875,-7.02735 -1.53125,-1.39453 -2.160156,-1.39453 z"
       style="font-size:56px;line-height:1;text-align:center;text-anchor:middle;fill:#18394c;fill-opacity:1"
       id="path3122" />
    <path
       d="m -40.808594,-119.47854 0.246094,0.13672 q -0.765625,0 -0.765625,-0.16406 4.867188,0.4375 4.867188,1.36719 v 0.1914 q -0.355469,1.01172 -1.285157,1.01172 l -3.171875,-0.32812 q -0.21875,0 -1.394531,0.082 l 0.05469,0.76562 q 0,1.80469 0.519531,13.91797 h 0.109375 q 0.792969,0 1.367187,-0.10937 2.570313,0.21875 4.046875,0.21875 l 0.628907,0.84765 v 0.46485 q 0,0.875 -1.121094,0.875 -0.984375,0 -3.171875,-0.21875 -1.449219,0.10937 -1.832031,0.10937 v -0.10937 q 0,7.710934 0.738281,17.281247 0.136719,0 0.136719,0.08203 3.417968,-0.191406 4.375,-0.191406 0.847656,0.273437 1.203125,0.984375 v 0.21875 q 0,0.4375 -0.875,0.984375 -4.347657,0.109375 -5.222657,0.21875 -2.050781,0 -2.050781,-1.941406 -0.765625,-10.445313 -0.765625,-17.417966 v -3.5 q -0.546875,-9.625 -0.546875,-12.96094 -0.328125,-1.64063 -0.328125,-2.05078 l 0.847656,-0.62891 h 1.476563 q 0.601562,0 1.914062,-0.13672 z"
       style="font-size:56px;line-height:1;text-align:center;text-anchor:middle;fill:#18394c;fill-opacity:1"
       id="path3124" />
    <path
       d="m -25.058594,-119.47854 0.246094,0.13672 q -0.765625,0 -0.765625,-0.16406 4.867188,0.4375 4.867188,1.36719 v 0.1914 q -0.355469,1.01172 -1.285157,1.01172 l -3.171875,-0.32812 q -0.21875,0 -1.394531,0.082 l 0.05469,0.76562 q 0,1.80469 0.519531,13.91797 h 0.109375 q 0.792969,0 1.367187,-0.10937 2.570313,0.21875 4.046875,0.21875 l 0.628907,0.84765 v 0.46485 q 0,0.875 -1.121094,0.875 -0.984375,0 -3.171875,-0.21875 -1.449219,0.10937 -1.832031,0.10937 v -0.10937 q 0,7.710934 0.738281,17.281247 0.136719,0 0.136719,0.08203 3.417968,-0.191406 4.375,-0.191406 0.847656,0.273437 1.203125,0.984375 v 0.21875 q 0,0.4375 -0.875,0.984375 -4.347657,0.109375 -5.222657,0.21875 -2.050781,0 -2.050781,-1.941406 -0.765625,-10.445313 -0.765625,-17.417966 v -3.5 q -0.546875,-9.625 -0.546875,-12.96094 -0.328125,-1.64063 -0.328125,-2.05078 l 0.847656,-0.62891 h 1.476563 q 0.601562,0 1.914062,-0.13672 z"
       style="font-size:56px;line-height:1;text-align:center;text-anchor:middle;fill:#18394c;fill-opacity:1"
       id="path3126" />
    <path
       d="m 5.7851562,-118.82229 h 0.8476563 q 2.5703125,0.46485 2.5703125,1.96875 0,0.4375 -0.9023437,0.98438 H 7.2890625 q -0.7109375,-0.875 -1.0390625,-0.875 -2.1875,0.76562 -2.1875,1.3125 -2.1875,4.15625 -2.1875,11.26562 v 1.85938 q 0,4.839842 1.3125,11.621092 0.765625,4.894531 2.0507812,6.535156 1.4492188,1.257813 2.4335938,1.3125 1.203125,0 3.089844,-2.40625 h 0.710937 q 0.628907,0 1.011719,0.765625 v 0.328125 q 0,1.257813 -2.7070312,2.980469 -1.2304688,0.519531 -2.2421876,0.519531 H 7.3710937 Q 5.484375,-80.869162 3.5429688,-82.564474 1.4375,-84.232443 -0.0390625,-95.334006 q -0.546875,-2.378906 -0.546875,-7.847654 v -0.65625 q 0.19140625,-11.32031 3.8828125,-14.10938 1.8320312,-0.875 2.4882812,-0.875 z"
       style="font-size:56px;line-height:1;text-align:center;text-anchor:middle;fill:#18394c;fill-opacity:1"
       id="path3128" />
    <path
       d="m 21.125,-119.06838 h 0.273437 q 1.96875,0.90234 3.144532,4.26562 3.0625,9.46094 4.511718,24.117192 0.957032,4.757812 0.957032,8.476562 -0.328125,0.820313 -1.886719,0.820313 -0.65625,-1.257813 -1.53125,-9.160156 -0.246094,-0.847657 -1.039063,-6.863282 l -0.246093,-0.02734 q -5.195313,0.492187 -5.195313,0.65625 v 4.265625 L 19.375,-82.509787 q 0.246094,0.355469 0.246094,0.820313 0,0.464843 -0.957032,1.039062 -1.859375,0 -1.859375,-1.777344 0.847657,-11.539062 0.847657,-13.835937 -0.109375,-1.503906 -0.109375,-3.0625 0.05469,-7.902347 1.3125,-16.734377 0.628906,-3.00781 2.269531,-3.00781 z m 0.492187,2.81641 q -1.394531,5.35937 -1.394531,15.55859 -0.109375,0 -0.109375,2.105468 v -0.410156 q 2.652344,-0.738281 5.277344,-0.738281 v 0.410156 q 0,-3.281247 -3.609375,-15.667967 -0.683594,-1.47656 -0.164063,-1.25781 z"
       style="font-size:56px;line-height:1;text-align:center;text-anchor:middle;fill:#18394c;fill-opacity:1"
       id="path3130" />
    <path
       d="m 37.558594,-119.69729 q 1.285156,0.41016 7.601562,17.58203 h -0.902344 q 0,-0.71093 5.578125,-16.89843 h 1.3125 l 0.492188,0.95703 0.02734,1.20312 q -0.300782,9.78907 -0.300782,16.54297 0,2.597658 0.984375,19.085939 l -1.175781,0.574219 q -1.476562,0 -2.132812,-18.375 v -12.824218 h 0.902343 q -3.882812,12.058593 -4.730468,12.742187 -1.75,-0.109375 -6.808594,-14.355467 h 0.847656 v -0.21875 l 1.613281,31.800779 -1.121093,0.601563 q -1.53125,0 -1.53125,-1.203125 -0.957032,-28.574217 -1.941407,-36.558597 z"
       style="font-size:56px;line-height:1;text-align:center;text-anchor:middle;fill:#18394c;fill-opacity:1"
       id="path3132" />
    <path
       d="m 58.859375,-120.13479 q 5.824219,0 7.875,5.11328 0.355469,1.1211 0.464844,2.625 0,6.91797 -2.433594,15.175786 -1.257813,2.160156 -3.609375,3.335937 -0.847656,0.02734 -0.847656,-0.21875 v 0.109375 q 0,1.421875 0.109375,2.40625 -0.109375,0.984375 -0.109375,1.09375 0.328125,6.179688 0.328125,6.671875 0.328125,0.05469 0.328125,1.3125 v 0.410156 q -0.4375,1.148438 -1.175782,1.449219 H 59.40625 q -0.574219,0 -1.121094,-0.847656 v -0.902344 q 0,-0.65625 0,-0.65625 -0.08203,-0.464844 -0.21875,-2.269531 0,-0.683594 0.08203,-0.683594 l -0.300781,-4.046875 q 0.109375,-1.121094 0.109375,-1.640625 -0.109375,-1.996094 -0.109375,-2.214844 -0.4375,-0.21875 -0.4375,-0.902343 0.246094,-0.929688 0.382813,-0.929688 -0.164063,-2.324219 -0.164063,-2.953125 l 0.519531,-19.359373 q -0.191406,0 -0.191406,-0.76563 v -0.32812 q 0,-0.4375 0.902344,-0.98438 z m 1.75,2.32422 -0.519531,19.113283 q 0.109375,2.296875 0.109375,2.871094 l -0.273438,-0.136719 q 0.738281,0 1.832031,-1.148437 1.722657,-1.09375 2.871094,-13.097661 0.109375,-1.96875 0.109375,-2.59765 0,-2.59766 -2.953125,-4.67578 -0.792969,-0.27344 -1.175781,-0.32813 z"
       style="font-size:56px;line-height:1;text-align:center;text-anchor:middle;fill:#18394c;fill-opacity:1"
       id="path3134" />
    <path
       d="m 74.773437,-118.93166 h 0.4375 q 1.449219,0 1.449219,6.34375 v 1.42187 q 0,2.16016 -0.65625,11.07422 0,0.355471 0.109375,0.792971 -0.109375,5.769531 -0.109375,9.132812 v 7.109375 q 0,0.164063 0.21875,1.066406 -0.21875,1.339844 -1.121094,1.339844 h -0.4375 q -1.121093,0 -1.121093,-3.5 0,-19.003908 0.65625,-26.167968 v -3.03516 q 0,-2.51562 -0.328125,-4.5664 0,-0.46485 0.902343,-1.01172 z"
       style="font-size:56px;line-height:1;text-align:center;text-anchor:middle;fill:#18394c;fill-opacity:1"
       id="path3136" />
    <path
       d="m 84.78125,-119.50588 q 1.148437,0 5.632812,15.36719 0.628907,3.5 5.140625,17.253903 h -0.902343 v -0.382812 q -0.628907,-13.289061 -0.628907,-14.929691 0,-0.49218 0.136719,-3.33593 -0.02734,-0.30079 -0.02734,-1.3125 0.21875,-2.16016 0.21875,-3.41797 v -7.79297 q 0.136719,-1.14844 1.476563,-1.14844 l 1.148437,0.60156 q -0.328125,6.48047 -0.328125,9.59766 v 3.08984 q 0,9.515628 0.601563,24.855472 l -1.09375,0.546875 q -1.367188,0 -8.613281,-24.664067 l -2.871094,-9.78906 1.011719,1.64063 0.08203,-1.58594 q 0.191406,2.26953 0.191406,3.60937 l 0.02734,0.92969 q -0.21875,6.07031 -0.21875,8.50391 0,12.222654 0.984375,20.726561 h -1.367188 q -1.285156,0 -1.285156,-1.148438 -0.628906,-9.542969 -0.628906,-17.089844 v -18.976559 q 0.191406,-1.14844 1.3125,-1.14844 z"
       style="font-size:56px;line-height:1;text-align:center;text-anchor:middle;fill:#18394c;fill-opacity:1"
       id="path3138" />
    <path
       d="m 108.625,-117.61916 h 0.24609 q 2.46094,0 3.96485,1.91406 v 0.38281 q 0,0.4375 -0.90235,0.98438 -0.68359,0 -2.02343,-0.84766 -0.49219,-0.24609 -1.14844,-0.24609 h -0.32813 q -2.70703,0.65625 -2.70703,18.156248 0,8.367188 1.94141,12.714844 0.51953,1.121094 2.02344,1.722656 h 0.1914 q 1.36719,-0.273437 1.36719,-1.640625 0.4375,0 1.09375,-6.042969 v -5.304687 -0.02734 q 1.14844,0 1.14844,0.164063 -5.74219,-0.4375 -5.74219,-1.230469 l -0.10937,-0.546875 v -0.136719 q 0,-0.464844 0.82031,-0.875 h 0.79297 q 0.38281,0.300781 4.78515,0.683594 0.76563,0.765625 0.76563,2.597656 v 2.734375 q 0,0.65625 -0.10938,1.667969 0.10938,0.191406 0.10938,0.4375 -0.79297,9.160156 -2.51563,9.160156 0,0.109375 -2.24218,0.546875 h -0.60157 q -2.13281,-0.492187 -3.6914,-2.378906 -2.48828,-4.703125 -2.48828,-14.355469 0,-18.347653 4.07421,-20.097653 z"
       style="font-size:56px;line-height:1;text-align:center;text-anchor:middle;fill:#18394c;fill-opacity:1"
       id="path3140" />
    <path
       d="m 140.5625,-119.06838 h 0.27344 q 1.96875,0.90234 3.14453,4.26562 3.0625,9.46094 4.51172,24.117192 0.95703,4.757812 0.95703,8.476562 -0.32813,0.820313 -1.88672,0.820313 -0.65625,-1.257813 -1.53125,-9.160156 -0.24609,-0.847657 -1.03906,-6.863282 l -0.2461,-0.02734 q -5.19531,0.492187 -5.19531,0.65625 v 4.265625 l -0.73828,10.007812 q 0.24609,0.355469 0.24609,0.820313 0,0.464843 -0.95703,1.039062 -1.85937,0 -1.85937,-1.777344 0.84765,-11.539062 0.84765,-13.835937 -0.10937,-1.503906 -0.10937,-3.0625 0.0547,-7.902347 1.3125,-16.734377 0.6289,-3.00781 2.26953,-3.00781 z m 0.49219,2.81641 q -1.39453,5.35937 -1.39453,15.55859 -0.10938,0 -0.10938,2.105468 v -0.410156 q 2.65234,-0.738281 5.27734,-0.738281 v 0.410156 q 0,-3.281247 -3.60937,-15.667967 -0.68359,-1.47656 -0.16406,-1.25781 z"
       style="font-size:56px;line-height:1;text-align:center;text-anchor:middle;fill:#18394c;fill-opacity:1"
       id="path3142" />
    <path
       d="m 165.99219,-119.36916 h 0.4375 q 0.68359,0 1.01172,0.92969 l -3.28125,29.394527 q -0.4375,8.285156 -1.14844,8.285156 l -0.21875,0.109375 h -0.51953 q -1.14844,0 -1.88672,-6.726562 -2.84375,-18.074216 -2.84375,-28.874996 l -0.32813,-1.42188 q 0,-0.49219 0.90235,-1.03906 h 0.4375 q 1.66797,0 1.66797,9.05078 1.39453,15.613281 2.54296,22.339843 h -1.17578 q 0,-1.722656 3.0625,-27.808593 0.2461,-4.23828 1.33985,-4.23828 z"
       style="font-size:56px;line-height:1;text-align:center;text-anchor:middle;fill:#18394c;fill-opacity:1"
       id="path3144" />
    <path
       d="m 178.07812,-119.06838 h 0.27344 q 1.96875,0.90234 3.14453,4.26562 3.0625,9.46094 4.51172,24.117192 0.95703,4.757812 0.95703,8.476562 -0.32812,0.820313 -1.88672,0.820313 -0.65625,-1.257813 -1.53125,-9.160156 -0.24609,-0.847657 -1.03906,-6.863282 l -0.24609,-0.02734 q -5.19531,0.492187 -5.19531,0.65625 v 4.265625 l -0.73829,10.007812 q 0.2461,0.355469 0.2461,0.820313 0,0.464843 -0.95703,1.039062 -1.85938,0 -1.85938,-1.777344 0.84766,-11.539062 0.84766,-13.835937 -0.10938,-1.503906 -0.10938,-3.0625 0.0547,-7.902347 1.3125,-16.734377 0.62891,-3.00781 2.26953,-3.00781 z m 0.49219,2.81641 q -1.39453,5.35937 -1.39453,15.55859 -0.10937,0 -0.10937,2.105468 v -0.410156 q 2.65234,-0.738281 5.27734,-0.738281 v 0.410156 q 0,-3.281247 -3.60938,-15.667967 -0.68359,-1.47656 -0.16406,-1.25781 z"
       style="font-size:56px;line-height:1;text-align:center;text-anchor:middle;fill:#18394c;fill-opacity:1"
       id="path3146" />
    <path
       d="m 196.72656,-118.93166 h 0.4375 q 1.44922,0 1.44922,6.34375 v 1.42187 q 0,2.16016 -0.65625,11.07422 0,0.355471 0.10938,0.792971 -0.10938,5.769531 -0.10938,9.132812 v 7.109375 q 0,0.164063 0.21875,1.066406 -0.21875,1.339844 -1.12109,1.339844 h -0.4375 q -1.1211,0 -1.1211,-3.5 0,-19.003908 0.65625,-26.167968 v -3.03516 q 0,-2.51562 -0.32812,-4.5664 0,-0.46485 0.90234,-1.01172 z"
       style="font-size:56px;line-height:1;text-align:center;text-anchor:middle;fill:#18394c;fill-opacity:1"
       id="path3148" />
    <path
       d="m 207.22656,-121.00979 h 0.10938 q 0.60156,0 1.12109,0.84766 0,1.23047 0.10938,1.23047 l -0.21875,-0.4375 q 0.76562,12.03125 0.76562,20.207029 0.32813,2.652344 0.32813,7.355469 v 8.96875 h 5.22265 q 0.62891,0 1.01172,0.765625 v 0.4375 q 0,0.984375 -2.54297,0.984375 h -5.03125 q -0.57422,0 -1.12109,-0.847656 v -0.792969 q 0,-1.3125 0.0547,-1.3125 l -0.0547,-0.738281 v -8.011719 q -0.4375,-14.382813 -0.875,-23.925783 l -0.32813,-3.6914 q 0.32813,-1.03907 1.44922,-1.03907 z"
       style="font-size:56px;line-height:1;text-align:center;text-anchor:middle;fill:#18394c;fill-opacity:1"
       id="path3150" />
    <path
       d="m 225.65625,-119.06838 h 0.27344 q 1.96875,0.90234 3.14453,4.26562 3.0625,9.46094 4.51172,24.117192 0.95703,4.757812 0.95703,8.476562 -0.32813,0.820313 -1.88672,0.820313 -0.65625,-1.257813 -1.53125,-9.160156 -0.24609,-0.847657 -1.03906,-6.863282 l -0.2461,-0.02734 q -5.19531,0.492187 -5.19531,0.65625 v 4.265625 l -0.73828,10.007812 q 0.24609,0.355469 0.24609,0.820313 0,0.464843 -0.95703,1.039062 -1.85937,0 -1.85937,-1.777344 0.84765,-11.539062 0.84765,-13.835937 -0.10937,-1.503906 -0.10937,-3.0625 0.0547,-7.902347 1.3125,-16.734377 0.6289,-3.00781 2.26953,-3.00781 z m 0.49219,2.81641 q -1.39453,5.35937 -1.39453,15.55859 -0.10938,0 -0.10938,2.105468 v -0.410156 q 2.65234,-0.738281 5.27734,-0.738281 v 0.410156 q 0,-3.281247 -3.60937,-15.667967 -0.68359,-1.47656 -0.16406,-1.25781 z"
       style="font-size:56px;line-height:1;text-align:center;text-anchor:middle;fill:#18394c;fill-opacity:1"
       id="path3152" />
    <path
       d="m 245.50781,-121.55666 q 4.01953,0 4.83985,7.6289 v 2.13282 q -0.54688,3.96484 -3.69141,8.61328 -0.10938,0.0273 -0.46484,0.49219 v -0.41016 q 2.05078,0.76562 3.55468,3.281249 1.50391,2.242188 2.02344,6.890625 0,5.824219 -2.48828,9.925782 -1.75,1.914062 -3.55469,2.351562 h -0.32812 q -2.21485,0 -2.21485,-4.238281 -1.3125,-18.839847 -1.3125,-28.984377 -0.21875,-2.92578 -0.68359,-5.79687 2.26953,-1.88672 4.32031,-1.88672 z m -1.69531,2.78906 q 0.84766,6.61719 0.84766,19.277344 0.4375,5.140625 1.09375,16.570313 l -0.0547,-0.05469 q 1.53125,-0.628906 2.32422,-2.734375 1.28515,-3.609375 1.28515,-7.164062 -0.79297,-4.730469 -1.25781,-4.730469 -0.79297,-2.351562 -2.98047,-3.609373 -1.12109,0 -1.77734,-1.09375 v -0.60156 q 3.58203,-4.01954 4.59375,-8.75 v -1.66797 q -0.49219,-6.04297 -2.37891,-6.04297 -1.03906,0 -1.69531,0.60156 z"
       style="font-size:56px;line-height:1;text-align:center;text-anchor:middle;fill:#18394c;fill-opacity:1"
       id="path3154" />
    <path
       d="m 259.61719,-121.00979 h 0.10937 q 0.60156,0 1.1211,0.84766 0,1.23047 0.10937,1.23047 l -0.21875,-0.4375 q 0.76563,12.03125 0.76563,20.207029 0.32812,2.652344 0.32812,7.355469 v 8.96875 h 5.22266 q 0.6289,0 1.01172,0.765625 v 0.4375 q 0,0.984375 -2.54297,0.984375 h -5.03125 q -0.57422,0 -1.1211,-0.847656 v -0.792969 q 0,-1.3125 0.0547,-1.3125 l -0.0547,-0.738281 v -8.011719 q -0.4375,-14.382813 -0.875,-23.925783 l -0.32812,-3.6914 q 0.32812,-1.03907 1.44922,-1.03907 z"
       style="font-size:56px;line-height:1;text-align:center;text-anchor:middle;fill:#18394c;fill-opacity:1"
       id="path3156" />
    <path
       d="m 278.89453,-119.47854 0.24609,0.13672 q -0.76562,0 -0.76562,-0.16406 4.86719,0.4375 4.86719,1.36719 v 0.1914 q -0.35547,1.01172 -1.28516,1.01172 l -3.17187,-0.32812 q -0.21875,0 -1.39454,0.082 l 0.0547,0.76562 q 0,1.80469 0.51953,13.91797 h 0.10938 q 0.79297,0 1.36719,-0.10937 2.57031,0.21875 4.04687,0.21875 l 0.62891,0.84765 v 0.46485 q 0,0.875 -1.1211,0.875 -0.98437,0 -3.17187,-0.21875 -1.44922,0.10937 -1.83203,0.10937 v -0.10937 q 0,7.710934 0.73828,17.281247 0.13672,0 0.13672,0.08203 3.41797,-0.191406 4.375,-0.191406 0.84765,0.273437 1.20312,0.984375 v 0.21875 q 0,0.4375 -0.875,0.984375 -4.34765,0.109375 -5.22265,0.21875 -2.05079,0 -2.05079,-1.941406 -0.76562,-10.445313 -0.76562,-17.417966 v -3.5 q -0.54688,-9.625 -0.54688,-12.96094 -0.32812,-1.64063 -0.32812,-2.05078 l 0.84766,-0.62891 h 1.47656 q 0.60156,0 1.91406,-0.13672 z"
       style="font-size:56px;line-height:1;text-align:center;text-anchor:middle;fill:#18394c;fill-opacity:1"
       id="path3158" />
    <path
       d="m 308.80859,-119.25979 q 3.71875,0 5.60547,15.25782 0.10938,1.44921 0.10938,3.66406 v 0.437498 q 0,0.4375 -0.082,0.875 0.082,0.109375 0.082,0.875 v 0.109375 q 0,0.765625 -0.082,0.875 0.082,0.4375 0.082,0.546875 0,11.757813 -3.44532,14.65625 -1.39453,0.546875 -1.9414,0.546875 h -0.875 q -4.45703,-1.066406 -5.4961,-10.691406 l -0.32812,-4.484375 q 0,-15.531252 3.96484,-21.683592 1.3125,-0.98438 2.40625,-0.98438 z m -3.91015,22.312503 q 0,6.097656 1.61328,10.664063 1.33984,2.679687 2.07812,2.679687 h 0.10938 q 1.64062,0 2.1875,-2.652344 1.17578,-2.789062 1.17578,-12.003906 v -2.187503 q 0,-6.37109 -2.26953,-14.6289 -0.73828,-1.64063 -1.09375,-1.88672 -0.60156,0.21875 -0.76563,0.71094 -3.03515,6.42578 -3.03515,19.304683 z"
       style="font-size:56px;line-height:1;text-align:center;text-anchor:middle;fill:#18394c;fill-opacity:1"
       id="path3160" />
    <path
       d="m 321.57812,-119.50588 q 1.14844,0 5.63282,15.36719 0.6289,3.5 5.14062,17.253903 h -0.90234 v -0.382812 q -0.62891,-13.289061 -0.62891,-14.929691 0,-0.49218 0.13672,-3.33593 -0.0273,-0.30079 -0.0273,-1.3125 0.21875,-2.16016 0.21875,-3.41797 v -7.79297 q 0.13672,-1.14844 1.47656,-1.14844 l 1.14844,0.60156 q -0.32813,6.48047 -0.32813,9.59766 v 3.08984 q 0,9.515628 0.60156,24.855472 l -1.09375,0.546875 q -1.36718,0 -8.61328,-24.664067 l -2.87109,-9.78906 1.01172,1.64063 0.082,-1.58594 q 0.19141,2.26953 0.19141,3.60937 l 0.0273,0.92969 q -0.21875,6.07031 -0.21875,8.50391 0,12.222654 0.98437,20.726561 h -1.36718 q -1.28516,0 -1.28516,-1.148438 -0.62891,-9.542969 -0.62891,-17.089844 v -18.976559 q 0.19141,-1.14844 1.3125,-1.14844 z"
       style="font-size:56px;line-height:1;text-align:center;text-anchor:middle;fill:#18394c;fill-opacity:1"
       id="path3162" />
    <path
       d="m 346.43359,-101.7051 q 3.71875,0.35547 3.71875,1.3125 v 0.32813 q 0,0.437496 -0.98437,1.039058 -2.13281,-0.492187 -3.08985,-0.492187 -0.875,0 -5.27734,0.601562 l -0.54687,-0.792969 v -0.574214 q 0,-1.06641 4.04687,-1.28516 0,-0.13672 2.13281,-0.13672 z"
       style="font-size:56px;line-height:1;text-align:center;text-anchor:middle;fill:#18394c;fill-opacity:1"
       id="path3164" />
    <path
       d="m -10.238281,-60.316809 0.628906,0.792969 v 0.355469 q 0,0.382812 -0.984375,1.066406 h -1.339844 q -2.433594,0 -3.28125,1.777344 -0.847656,2.296875 -0.847656,5.140625 0,1.722656 1.503906,5.6875 0.492188,0.984375 5.7968752,5.796875 2.8710938,4.101562 2.8710938,8.066406 0,3.117187 -1.3398437,6.097656 -0.7109375,1.613281 -3.6093753,2.679688 -1.09375,0.574218 -1.859375,0.574218 -1.039062,0 -1.449219,-0.875 v -0.382812 q 0,-0.792969 1.695313,-0.957031 3.1171875,-1.175782 3.1171875,-2.433594 0.984375,-1.96875 0.984375,-5.003906 0,-3.964844 -3.5546875,-7.738282 -2.953125,-2.242187 -4.429687,-4.347656 -1.066407,-1.148437 -2.078125,-5.878906 0,-0.574219 -0.109375,-1.449219 0,-3.636719 1.367187,-6.480469 1.722656,-2.488281 6.917969,-2.488281 z"
       style="font-size:56px;line-height:1;text-align:center;text-anchor:middle;fill:#18394c;fill-opacity:1"
       id="path3166" />
    <path
       d="m 1.2734375,-60.562903 h 0.4375 q 1.4492188,0 1.4492188,6.34375 v 1.421875 q 0,2.160157 -0.65625,11.074219 0,0.355469 0.109375,0.792969 -0.109375,5.769531 -0.109375,9.132812 v 7.109375 q 0,0.164063 0.21875,1.066407 -0.21875,1.339843 -1.1210938,1.339843 h -0.4375 q -1.12109375,0 -1.12109375,-3.5 0,-19.003906 0.65625,-26.167968 v -3.035157 q 0,-2.515625 -0.328125,-4.566406 0,-0.464844 0.90234375,-1.011719 z"
       style="font-size:56px;line-height:1;text-align:center;text-anchor:middle;fill:#18394c;fill-opacity:1"
       id="path3168" />
    <path
       d="m 21.398437,-59.031653 0.710938,0.820313 v 0.4375 q 0,1.011719 -3.746094,1.011719 h -3.0625 q 0.328125,0 0.355469,-0.08203 l 0.21875,4.949219 q -0.109375,0.683594 -0.109375,0.738281 0.984375,16.542969 0.984375,23.597657 0.109375,0.191406 0.109375,0.546875 Q 16.75,-26.848059 16.75,-26.902746 l 0.136719,0.738281 q -0.382813,0.875 -1.039063,0.875 h -0.4375 q -0.464843,0 -1.121093,-0.765625 0,-0.382813 0.109375,-1.230469 0,-2.324219 -0.984375,-23.597656 0,-3.445313 -0.191407,-6.015625 l 0.246094,0.136719 h -0.109375 l -3.828125,0.328125 q -0.7109375,-0.765625 -0.7109375,-1.421875 0,-0.464844 1.0390625,-0.984375 0.957031,0.246093 0.929688,0.246093 2.105468,-0.191406 2.980468,-0.191406 h 4.484375 q 1.339844,0 3.144531,-0.246094 z"
       style="font-size:56px;line-height:1;text-align:center;text-anchor:middle;fill:#18394c;fill-opacity:1"
       id="path3170" />
    <path
       d="m 32.144531,-61.109778 0.246094,0.136719 q -0.765625,0 -0.765625,-0.164062 4.867187,0.4375 4.867187,1.367187 v 0.191406 q -0.355468,1.011719 -1.285156,1.011719 l -3.171875,-0.328125 q -0.21875,0 -1.394531,0.08203 l 0.05469,0.765625 q 0,1.804688 0.519532,13.917969 h 0.109375 q 0.792968,0 1.367187,-0.109375 2.570313,0.21875 4.046875,0.21875 l 0.628906,0.847656 v 0.464844 q 0,0.875 -1.121093,0.875 -0.984375,0 -3.171875,-0.21875 -1.449219,0.109375 -1.832032,0.109375 v -0.109375 q 0,7.710938 0.738282,17.28125 0.136718,0 0.136718,0.08203 3.417969,-0.191406 4.375,-0.191406 0.847657,0.273438 1.203125,0.984375 v 0.21875 q 0,0.4375 -0.875,0.984375 -4.347656,0.109375 -5.222656,0.21875 -2.050781,0 -2.050781,-1.941406 -0.765625,-10.445313 -0.765625,-17.417969 v -3.5 q -0.546875,-9.625 -0.546875,-12.960937 -0.328125,-1.640625 -0.328125,-2.050782 l 0.847656,-0.628906 h 1.476563 q 0.601562,0 1.914062,-0.136719 z"
       style="font-size:56px;line-height:1;text-align:center;text-anchor:middle;fill:#18394c;fill-opacity:1"
       id="path3172" />
    <path
       d="m 63.589844,-60.316809 0.628906,0.792969 v 0.355469 q 0,0.382812 -0.984375,1.066406 h -1.339844 q -2.433594,0 -3.28125,1.777344 -0.847656,2.296875 -0.847656,5.140625 0,1.722656 1.503906,5.6875 0.492188,0.984375 5.796875,5.796875 2.871094,4.101562 2.871094,8.066406 0,3.117187 -1.339844,6.097656 -0.710937,1.613281 -3.609375,2.679688 -1.09375,0.574218 -1.859375,0.574218 -1.039062,0 -1.449219,-0.875 v -0.382812 q 0,-0.792969 1.695313,-0.957031 3.117187,-1.175782 3.117187,-2.433594 0.984375,-1.96875 0.984375,-5.003906 0,-3.964844 -3.554687,-7.738282 -2.953125,-2.242187 -4.429688,-4.347656 -1.066406,-1.148437 -2.078125,-5.878906 0,-0.574219 -0.109375,-1.449219 0,-3.636719 1.367188,-6.480469 1.722656,-2.488281 6.917969,-2.488281 z"
       style="font-size:56px;line-height:1;text-align:center;text-anchor:middle;fill:#18394c;fill-opacity:1"
       id="path3174" />
    <path
       d="m 76.6875,-60.699621 h 0.273437 q 1.96875,0.902343 3.144532,4.265625 3.0625,9.460937 4.511718,24.117187 0.957032,4.757813 0.957032,8.476563 -0.328125,0.820312 -1.886719,0.820312 -0.65625,-1.257812 -1.53125,-9.160156 -0.246094,-0.847656 -1.039063,-6.863281 l -0.246093,-0.02734 q -5.195313,0.492187 -5.195313,0.65625 v 4.265625 L 74.9375,-24.141028 q 0.246094,0.355469 0.246094,0.820313 0,0.464844 -0.957032,1.039062 -1.859375,0 -1.859375,-1.777343 0.847657,-11.539063 0.847657,-13.835938 -0.109375,-1.503906 -0.109375,-3.0625 0.05469,-7.902344 1.3125,-16.734375 0.628906,-3.007812 2.269531,-3.007812 z m 0.492187,2.816406 q -1.394531,5.359375 -1.394531,15.558594 -0.109375,0 -0.109375,2.105468 v -0.410156 q 2.652344,-0.738281 5.277344,-0.738281 v 0.410156 q 0,-3.28125 -3.609375,-15.667969 -0.683594,-1.476562 -0.164063,-1.257812 z"
       style="font-size:56px;line-height:1;text-align:center;text-anchor:middle;fill:#18394c;fill-opacity:1"
       id="path3176" />
    <path
       d="m 103.86719,-59.031653 0.71094,0.820313 v 0.4375 q 0,1.011719 -3.7461,1.011719 h -3.062499 q 0.328125,0 0.355469,-0.08203 l 0.21875,4.949219 q -0.109375,0.683594 -0.109375,0.738281 0.984375,16.542969 0.984375,23.597657 0.109375,0.191406 0.109375,0.546875 -0.109375,0.164062 -0.109375,0.109375 l 0.136719,0.738281 q -0.382813,0.875 -1.039063,0.875 h -0.4375 q -0.464844,0 -1.121094,-0.765625 0,-0.382813 0.109375,-1.230469 0,-2.324219 -0.984375,-23.597656 0,-3.445313 -0.191406,-6.015625 l 0.246094,0.136719 H 95.828125 L 92,-56.433996 q -0.710938,-0.765625 -0.710938,-1.421875 0,-0.464844 1.039063,-0.984375 0.957031,0.246093 0.929687,0.246093 2.105469,-0.191406 2.980469,-0.191406 h 4.484379 q 1.33984,0 3.14453,-0.246094 z"
       style="font-size:56px;line-height:1;text-align:center;text-anchor:middle;fill:#18394c;fill-opacity:1"
       id="path3178" />
    <path
       d="m 111.82422,-61.875403 h 0.65625 q 1.06641,0.519532 1.06641,1.421875 v 0.546875 q 0.95703,17.773438 2.3789,28.601563 0.90235,6.835937 2.13281,6.835937 0.90235,-0.382812 0.90235,-1.53125 0,-4.292968 -0.90235,-21.65625 0.13672,-3.171875 0.13672,-6.125 v -2.597656 l -0.13672,-0.738281 0.10938,-0.246094 q -0.082,-1.339844 -0.35547,-3.199219 l 0.90234,-0.65625 h 0.60157 q 1.09375,0 1.33984,3.609375 0,0.765625 -0.082,0.765625 0.082,1.09375 0.082,1.859375 v 3.527344 l -0.10937,0.65625 q 0,-0.464844 0.13671,-0.464844 -0.13671,1.859375 -0.13671,2.40625 v 0.4375 q 0.875,19.03125 0.875,22.449219 -0.35547,3.691406 -3.52735,3.691406 -3.60937,0 -4.62109,-10.992187 -1.20313,-9.378906 -2.32422,-27.945313 z"
       style="font-size:56px;line-height:1;text-align:center;text-anchor:middle;fill:#18394c;fill-opacity:1"
       id="path3180" />
    <path
       d="m 129.26953,-63.734778 h 0.875 q 0.32813,0.4375 1.80469,0.683594 2.3789,0.957031 3.80078,3.390625 1.91406,4.621094 1.91406,6.863281 v 1.09375 q 0,7.382813 -3.52734,10.144532 4.15625,0.984375 4.94922,11.59375 v 4.183593 q 0,0.929688 0.13672,2.980469 l -0.79297,0.519531 h -0.84766 l -0.82031,-0.628906 q -0.13672,-2.433594 -0.13672,-3.527344 v -3.9375 q 0,-3.992187 -2.40625,-8.121093 -1.47656,-1.394532 -2.48828,-1.394532 h 0.60156 q 0.082,1.804688 0.082,2.953125 v 4.15625 q 0.21875,5.414063 0.21875,6.125 v 0.328125 q -0.4375,0.875 -1.33984,0.875 -0.51953,0 -1.25781,-0.847656 l 0.13671,-0.929687 q -0.21875,-4.59375 -0.21875,-6.097657 v -6.015625 q -0.27343,0 -0.65625,-0.902343 v -0.519532 q 0.4375,-0.875 0.51954,-0.875 -0.51954,-14.4375 -1.42188,-21.4375 z m 1.88672,2.625 q 0.60156,7.410157 1.09375,18.101563 2.95312,-1.996094 2.95312,-8.148438 v -1.53125 q 0,-2.761718 -2.29687,-7.027343 -1.53125,-1.394532 -2.16016,-1.394532 z"
       style="font-size:56px;line-height:1;text-align:center;text-anchor:middle;fill:#18394c;fill-opacity:1"
       id="path3182" />
    <path
       d="m 144.69141,-62.531653 h 0.92968 q 4.73047,1.558594 7.19141,5.933594 3.55469,7.21875 3.55469,14.847656 v 0.546875 q 0,10.9375 -8.06641,17.964844 -1.25781,0.410156 -1.69531,0.410156 -0.92969,0 -1.14844,-2.378906 l 0.10938,-0.21875 q -0.30079,-2.40625 -0.4375,-7.574219 h -0.19141 l 0.21875,0.4375 v -0.21875 q 0,-4.320312 0.10937,-7.875 z m 2.59765,3.007813 v -0.710938 q 0.10938,12.332032 0.4375,19.46875 -0.10937,2.925782 -0.10937,6.015625 v 1.3125 q 0,4.128907 0.30078,7.464844 1.39453,-1.203125 3.5,-4.621094 2.48828,-5.46875 2.48828,-10.28125 v -1.09375 q 0,-6.753906 -3.33594,-13.78125 -2.29687,-3.445312 -3.28125,-3.773437 z"
       style="font-size:56px;line-height:1;text-align:center;text-anchor:middle;fill:#18394c;fill-opacity:1"
       id="path3184" />
    <path
       d="m 165.9375,-60.699621 h 0.27344 q 1.96875,0.902343 3.14453,4.265625 3.0625,9.460937 4.51172,24.117187 0.95703,4.757813 0.95703,8.476563 -0.32813,0.820312 -1.88672,0.820312 -0.65625,-1.257812 -1.53125,-9.160156 -0.24609,-0.847656 -1.03906,-6.863281 l -0.2461,-0.02734 q -5.19531,0.492187 -5.19531,0.65625 v 4.265625 l -0.73828,10.007812 q 0.24609,0.355469 0.24609,0.820313 0,0.464844 -0.95703,1.039062 -1.85937,0 -1.85937,-1.777343 0.84765,-11.539063 0.84765,-13.835938 -0.10937,-1.503906 -0.10937,-3.0625 0.0547,-7.902344 1.3125,-16.734375 0.6289,-3.007812 2.26953,-3.007812 z m 0.49219,2.816406 q -1.39453,5.359375 -1.39453,15.558594 -0.10938,0 -0.10938,2.105468 v -0.410156 q 2.65234,-0.738281 5.27734,-0.738281 v 0.410156 q 0,-3.28125 -3.60937,-15.667969 -0.68359,-1.476562 -0.16406,-1.257812 z"
       style="font-size:56px;line-height:1;text-align:center;text-anchor:middle;fill:#18394c;fill-opacity:1"
       id="path3186" />
    <path
       d="m 192.65234,-59.250403 h 0.46485 q 0.57422,0 1.12109,0.847657 v 0.273437 q -0.875,7.847656 -1.85937,15.285156 l 0.10937,0.628907 v 0.902343 q -0.41016,0 -1.20312,10.308594 -0.32813,5.441406 -0.82032,8.394531 l -0.65625,0.328125 h -0.6289 q -0.62891,-0.164062 -1.01172,-1.011718 1.20312,-14.546875 1.75,-18.839844 -2.89844,-6.261719 -7.60156,-12.605469 -1.03907,-0.738281 -1.03907,-1.558594 v -0.21875 q 0,-0.4375 0.90235,-0.984375 H 183 q 0.76562,0.300782 1.12109,1.421875 4.34766,5.386719 7.05469,11.15625 h -0.98437 q 1.14843,-9.925781 1.72265,-13.835937 z"
       style="font-size:56px;line-height:1;text-align:center;text-anchor:middle;fill:#18394c;fill-opacity:1"
       id="path3188" />
    <path
       d="m 214.71875,-61.137121 q 1.14844,0 5.63281,15.367187 0.62891,3.5 5.14063,17.253906 h -0.90235 v -0.382812 q -0.6289,-13.289063 -0.6289,-14.929688 0,-0.492187 0.13672,-3.335937 -0.0273,-0.300781 -0.0273,-1.3125 0.21875,-2.160156 0.21875,-3.417969 v -7.792969 q 0.13672,-1.148437 1.47656,-1.148437 l 1.14844,0.601562 q -0.32812,6.480469 -0.32812,9.597657 v 3.089843 q 0,9.515625 0.60156,24.855469 l -1.09375,0.546875 q -1.36719,0 -8.61328,-24.664062 l -2.8711,-9.789063 1.01172,1.640625 0.082,-1.585937 q 0.19141,2.269531 0.19141,3.609375 l 0.0273,0.929687 q -0.21875,6.070313 -0.21875,8.503906 0,12.222657 0.98438,20.726563 h -1.36719 q -1.28515,0 -1.28515,-1.148438 -0.62891,-9.542968 -0.62891,-17.089843 v -18.976563 q 0.19141,-1.148437 1.3125,-1.148437 z"
       style="font-size:56px;line-height:1;text-align:center;text-anchor:middle;fill:#18394c;fill-opacity:1"
       id="path3190" />
    <path
       d="m 235.00781,-60.562903 h 0.4375 q 1.44922,0 1.44922,6.34375 v 1.421875 q 0,2.160157 -0.65625,11.074219 0,0.355469 0.10938,0.792969 -0.10938,5.769531 -0.10938,9.132812 v 7.109375 q 0,0.164063 0.21875,1.066407 -0.21875,1.339843 -1.12109,1.339843 h -0.4375 q -1.1211,0 -1.1211,-3.5 0,-19.003906 0.65625,-26.167968 v -3.035157 q 0,-2.515625 -0.32812,-4.566406 0,-0.464844 0.90234,-1.011719 z"
       style="font-size:56px;line-height:1;text-align:center;text-anchor:middle;fill:#18394c;fill-opacity:1"
       id="path3192" />
    <path
       d="m 250.15625,-59.250403 h 0.24609 q 2.46094,0 3.96485,1.914063 v 0.382812 q 0,0.4375 -0.90235,0.984375 -0.68359,0 -2.02343,-0.847656 -0.49219,-0.246094 -1.14844,-0.246094 h -0.32813 q -2.70703,0.65625 -2.70703,18.15625 0,8.367188 1.94141,12.714844 0.51953,1.121094 2.02344,1.722656 h 0.1914 q 1.36719,-0.273437 1.36719,-1.640625 0.4375,0 1.09375,-6.042968 v -5.304688 -0.02734 q 1.14844,0 1.14844,0.164063 -5.74219,-0.4375 -5.74219,-1.230469 l -0.10938,-0.546875 v -0.136719 q 0,-0.464843 0.82032,-0.875 h 0.79297 q 0.38281,0.300782 4.78515,0.683594 0.76563,0.765625 0.76563,2.597656 v 2.734375 q 0,0.65625 -0.10938,1.667969 0.10938,0.191406 0.10938,0.4375 -0.79297,9.160156 -2.51563,9.160156 0,0.109375 -2.24219,0.546875 h -0.60156 q -2.13281,-0.492187 -3.6914,-2.378906 -2.48829,-4.703125 -2.48829,-14.355469 0,-18.347656 4.07422,-20.097656 z"
       style="font-size:56px;line-height:1;text-align:center;text-anchor:middle;fill:#18394c;fill-opacity:1"
       id="path3194" />
    <path
       d="m 272.11328,-63.816809 h 0.68359 q 0.92969,0.464844 0.92969,1.09375 0,5.167969 -0.21875,7.984375 l 0.21875,11.238281 q 0.21875,0.382813 0.21875,0.738282 -0.27344,0.820312 -0.1914,0.820312 0.1914,4.539063 0.30078,17.308594 -0.10938,0.601562 -0.10938,2.40625 l -0.76562,0.519531 h -0.84766 l -0.84766,-0.65625 q 0,-1.421875 0.10938,-2.105469 -0.10938,-14.929687 -0.30078,-17.335937 -4.34766,0.08203 -4.42969,0.109375 0.19141,1.667969 0.19141,3.691406 0,4.375 -0.10938,7.65625 0.10938,1.859375 0.10938,7.492188 -0.82032,0.492187 -1.33985,0.492187 -0.60156,0 -1.12109,-0.875 v -1.09375 q 0,-4.457031 -0.10938,-6.015625 0.10938,-2.679687 0.10938,-6.5625 v -1.640625 q -0.32813,-5.332031 -0.32813,-7.4375 0.32813,-12.195312 0.32813,-15.476562 -0.10938,-0.4375 -0.10938,-1.066407 l 0.84766,-0.628906 h 0.71094 q 1.01172,0.601563 1.01172,1.421875 0,2.050781 -0.32813,16.40625 v 1.859375 l -0.1914,-0.382812 q 0.1914,-0.05469 4.70312,-0.136719 -0.082,-3.445313 -0.082,-5.167969 v -5.03125 q 0,-0.136719 -0.16406,-0.410156 l 0.16406,-0.355469 q 0.10937,-5.140625 0.10937,-8.230469 z"
       style="font-size:56px;line-height:1;text-align:center;text-anchor:middle;fill:#18394c;fill-opacity:1"
       id="path3196" />
    <path
       d="m 291.55469,-59.031653 0.71093,0.820313 v 0.4375 q 0,1.011719 -3.74609,1.011719 h -3.0625 q 0.32813,0 0.35547,-0.08203 l 0.21875,4.949219 q -0.10938,0.683594 -0.10938,0.738281 0.98438,16.542969 0.98438,23.597657 0.10937,0.191406 0.10937,0.546875 -0.10937,0.164062 -0.10937,0.109375 l 0.13672,0.738281 q -0.38281,0.875 -1.03906,0.875 h -0.4375 q -0.46485,0 -1.1211,-0.765625 0,-0.382813 0.10938,-1.230469 0,-2.324219 -0.98438,-23.597656 0,-3.445313 -0.1914,-6.015625 l 0.24609,0.136719 h -0.10938 l -3.82812,0.328125 q -0.71094,-0.765625 -0.71094,-1.421875 0,-0.464844 1.03906,-0.984375 0.95704,0.246093 0.92969,0.246093 2.10547,-0.191406 2.98047,-0.191406 h 4.48438 q 1.33984,0 3.14453,-0.246094 z"
       style="font-size:56px;line-height:1;text-align:center;text-anchor:middle;fill:#18394c;fill-opacity:1"
       id="path3198" />
    <path
       d="m -87.15625,-2.3308584 h 0.273438 q 1.96875,0.9023437 3.144531,4.265625 3.0625,9.4609374 4.511719,24.1171874 0.957031,4.757813 0.957031,8.476563 -0.328125,0.820312 -1.886719,0.820312 -0.65625,-1.257812 -1.53125,-9.160156 -0.246094,-0.847656 -1.039062,-6.863281 l -0.246094,-0.02734 q -5.195313,0.492187 -5.195313,0.65625 v 4.265625 l -0.738281,10.007812 q 0.246094,0.355469 0.246094,0.820313 0,0.464844 -0.957031,1.039062 -1.859375,0 -1.859375,-1.777343 0.847656,-11.539063 0.847656,-13.835938 -0.109375,-1.503906 -0.109375,-3.0625 0.05469,-7.9023437 1.3125,-16.73437493 0.628906,-3.00781247 2.269531,-3.00781247 z m 0.492188,2.81640622 q -1.394532,5.35937498 -1.394532,15.55859418 -0.109375,0 -0.109375,2.105468 v -0.410156 q 2.652344,-0.738281 5.277344,-0.738281 v 0.410156 q 0,-3.28125 -3.609375,-15.6679687 -0.683594,-1.47656248 -0.164062,-1.25781248 z"
       style="font-size:56px;line-height:1;text-align:center;text-anchor:middle;fill:#18394c;fill-opacity:1"
       id="path3200" />
    <path
       d="m -69.601562,-4.2722647 h 0.109375 q 0.601562,0 1.121093,0.8476563 0,1.2304687 0.109375,1.2304687 l -0.21875,-0.4375 q 0.765625,12.03125 0.765625,20.2070317 0.328125,2.652343 0.328125,7.355468 v 8.96875 h 5.222657 q 0.628906,0 1.011718,0.765625 v 0.4375 q 0,0.984375 -2.542968,0.984375 h -5.03125 q -0.574219,0 -1.121094,-0.847656 v -0.792969 q 0,-1.3125 0.05469,-1.3125 l -0.05469,-0.738281 v -8.011719 q -0.4375,-14.382812 -0.875,-23.92578093 l -0.328125,-3.69140627 q 0.328125,-1.0390625 1.449219,-1.0390625 z"
       style="font-size:56px;line-height:1;text-align:center;text-anchor:middle;fill:#18394c;fill-opacity:1"
       id="path3202" />
    <path
       d="m -44.226562,-0.66288968 0.710937,0.8203125 v 0.4375 q 0,1.01171878 -3.746094,1.01171878 h -3.0625 q 0.328125,0 0.355469,-0.082031 L -49.75,6.4738291 q -0.109375,0.6835937 -0.109375,0.7382812 0.984375,16.5429687 0.984375,23.5976567 0.109375,0.191406 0.109375,0.546875 -0.109375,0.164062 -0.109375,0.109375 l 0.136719,0.738281 q -0.382813,0.875 -1.039063,0.875 h -0.4375 q -0.464843,0 -1.121093,-0.765625 0,-0.382813 0.109375,-1.230469 0,-2.324219 -0.984375,-23.5976562 0,-3.4453125 -0.191407,-6.015625 l 0.246094,0.1367188 h -0.109375 l -3.828125,0.328125 q -0.710937,-0.765625 -0.710937,-1.42187503 0,-0.46484375 1.039062,-0.984375 0.957031,0.24609375 0.929688,0.24609375 2.105468,-0.19140625 2.980468,-0.19140625 h 4.484375 q 1.339844,0 3.144532,-0.24609375 z"
       style="font-size:56px;line-height:1;text-align:center;text-anchor:middle;fill:#18394c;fill-opacity:1"
       id="path3204" />
    <path
       d="m -33.480469,-2.7410147 0.246094,0.1367188 Q -34,-2.6042959 -34,-2.7683584 q 4.867188,0.4375 4.867188,1.3671875 v 0.1914062 q -0.355469,1.01171877 -1.285157,1.01171877 l -3.171875,-0.328125 q -0.21875,0 -1.394531,0.0820313 l 0.05469,0.765625 q 0,1.80468748 0.519531,13.91796868 h 0.109375 q 0.792969,0 1.367187,-0.109375 2.570313,0.21875 4.046875,0.21875 l 0.628907,0.847656 v 0.464844 q 0,0.875 -1.121094,0.875 -0.984375,0 -3.171875,-0.21875 Q -34,16.426954 -34.382812,16.426954 v -0.109375 q 0,7.710938 0.738281,17.28125 0.136719,0 0.136719,0.08203 3.417968,-0.191406 4.375,-0.191406 0.847656,0.273438 1.203125,0.984375 v 0.21875 q 0,0.4375 -0.875,0.984375 -4.347657,0.109375 -5.222657,0.21875 -2.050781,0 -2.050781,-1.941406 -0.765625,-10.445313 -0.765625,-17.417969 v -3.5 Q -37.390625,3.4113291 -37.390625,0.07539157 -37.71875,-1.5652334 -37.71875,-1.9753897 l 0.847656,-0.6289062 h 1.476563 q 0.601562,0 1.914062,-0.1367188 z"
       style="font-size:56px;line-height:1;text-align:center;text-anchor:middle;fill:#18394c;fill-opacity:1"
       id="path3206" />
    <path
       d="m -22.214844,-5.3660147 h 0.875 q 0.328125,0.4375 1.804688,0.6835938 2.378906,0.9570312 3.800781,3.390625 1.914062,4.6210937 1.914062,6.8632812 v 1.09375 q 0,7.3828127 -3.527343,10.1445317 4.15625,0.984375 4.949218,11.59375 v 4.183593 q 0,0.929688 0.136719,2.980469 l -0.792969,0.519531 h -0.847656 l -0.820312,-0.628906 q -0.136719,-2.433594 -0.136719,-3.527344 v -3.9375 q 0,-3.992187 -2.40625,-8.121093 -1.476562,-1.394532 -2.488281,-1.394532 h 0.601562 q 0.08203,1.804688 0.08203,2.953125 v 4.15625 q 0.21875,5.414063 0.21875,6.125 v 0.328125 q -0.4375,0.875 -1.339844,0.875 -0.519531,0 -1.257813,-0.847656 l 0.136719,-0.929687 q -0.21875,-4.59375 -0.21875,-6.097657 V 19.02461 q -0.273437,0 -0.65625,-0.902343 v -0.519532 q 0.4375,-0.875 0.519531,-0.875 Q -22.1875,2.2902353 -23.089844,-4.7097647 Z m 1.886719,2.625 q 0.601563,7.4101563 1.09375,18.1015627 2.953125,-1.996094 2.953125,-8.1484377 v -1.53125 q 0,-2.7617187 -2.296875,-7.0273437 -1.53125,-1.3945313 -2.160156,-1.3945313 z"
       style="font-size:56px;line-height:1;text-align:center;text-anchor:middle;fill:#18394c;fill-opacity:1"
       id="path3208" />
    <path
       d="m -5.453125,-2.7683584 q 1.1484375,0 5.6328125,15.3671874 0.62890625,3.5 5.140625,17.253906 H 4.4179687 V 29.469923 Q 3.7890625,16.18086 3.7890625,14.540235 q 0,-0.492187 0.1367188,-3.335937 -0.027344,-0.300781 -0.027344,-1.3125002 0.21875,-2.1601562 0.21875,-3.4179687 V -1.3191397 Q 4.2539062,-2.4675772 5.59375,-2.4675772 l 1.1484375,0.6015625 q -0.328125,6.4804688 -0.328125,9.5976563 v 3.0898434 q 0,9.515625 0.6015625,24.855469 l -1.09375,0.546875 q -1.3671875,0 -8.6132813,-24.664062 L -5.5625,1.7707041 -4.5507812,3.4113291 -4.46875,1.8253916 q 0.1914063,2.2695312 0.1914063,3.609375 L -4.25,6.3644541 q -0.21875,6.0703129 -0.21875,8.5039059 0,12.222657 0.984375,20.726563 h -1.3671875 q -1.2851562,0 -1.2851562,-1.148438 Q -6.765625,24.903517 -6.765625,17.356642 V -1.6199209 q 0.1914063,-1.1484375 1.3125,-1.1484375 z"
       style="font-size:56px;line-height:1;text-align:center;text-anchor:middle;fill:#18394c;fill-opacity:1"
       id="path3210" />
    <path
       d="m 16.421875,-2.3308584 h 0.273437 q 1.96875,0.9023437 3.144532,4.265625 3.0625,9.4609374 4.511718,24.1171874 0.957032,4.757813 0.957032,8.476563 -0.328125,0.820312 -1.886719,0.820312 -0.65625,-1.257812 -1.53125,-9.160156 -0.246094,-0.847656 -1.039063,-6.863281 l -0.246093,-0.02734 q -5.195313,0.492187 -5.195313,0.65625 v 4.265625 l -0.738281,10.007812 q 0.246094,0.355469 0.246094,0.820313 0,0.464844 -0.957031,1.039062 -1.859375,0 -1.859375,-1.777343 0.847656,-11.539063 0.847656,-13.835938 -0.109375,-1.503906 -0.109375,-3.0625 0.05469,-7.9023437 1.3125,-16.73437493 0.628906,-3.00781247 2.269531,-3.00781247 z m 0.492187,2.81640622 Q 15.519531,5.8449228 15.519531,16.044142 q -0.109375,0 -0.109375,2.105468 V 17.739454 Q 18.0625,17.001173 20.6875,17.001173 v 0.410156 q 0,-3.28125 -3.609375,-15.6679687 -0.683594,-1.47656248 -0.164063,-1.25781248 z"
       style="font-size:56px;line-height:1;text-align:center;text-anchor:middle;fill:#18394c;fill-opacity:1"
       id="path3212" />
    <path
       d="m 43.601562,-0.66288968 0.710938,0.8203125 v 0.4375 q 0,1.01171878 -3.746094,1.01171878 h -3.0625 q 0.328125,0 0.355469,-0.082031 l 0.21875,4.9492188 q -0.109375,0.6835937 -0.109375,0.7382812 0.984375,16.5429687 0.984375,23.5976567 0.109375,0.191406 0.109375,0.546875 -0.109375,0.164062 -0.109375,0.109375 l 0.136719,0.738281 q -0.382813,0.875 -1.039063,0.875 h -0.4375 q -0.464844,0 -1.121094,-0.765625 0,-0.382813 0.109375,-1.230469 0,-2.324219 -0.984375,-23.5976562 0,-3.4453125 -0.191406,-6.015625 l 0.246094,0.1367188 H 35.5625 l -3.828125,0.328125 q -0.710938,-0.765625 -0.710938,-1.42187503 0,-0.46484375 1.039063,-0.984375 0.957031,0.24609375 0.929687,0.24609375 2.105469,-0.19140625 2.980469,-0.19140625 h 4.484375 q 1.339844,0 3.144531,-0.24609375 z"
       style="font-size:56px;line-height:1;text-align:center;text-anchor:middle;fill:#18394c;fill-opacity:1"
       id="path3214" />
    <path
       d="m 51.914062,-2.1941397 h 0.4375 q 1.449219,0 1.449219,6.34375 v 1.421875 q 0,2.1601563 -0.65625,11.0742187 0,0.355469 0.109375,0.792969 -0.109375,5.769531 -0.109375,9.132812 v 7.109375 q 0,0.164063 0.21875,1.066407 -0.21875,1.339843 -1.121094,1.339843 h -0.4375 q -1.121093,0 -1.121093,-3.5 0,-19.003906 0.65625,-26.1679684 V 3.3839853 q 0,-2.51562498 -0.328125,-4.5664062 0,-0.4648438 0.902343,-1.0117188 z"
       style="font-size:56px;line-height:1;text-align:center;text-anchor:middle;fill:#18394c;fill-opacity:1"
       id="path3216" />
    <path
       d="m 70.289062,-2.6316397 h 0.4375 q 0.683594,0 1.011719,0.9296875 l -3.28125,29.3945312 q -0.4375,8.285156 -1.148437,8.285156 l -0.21875,0.109375 h -0.519532 q -1.148437,0 -1.886718,-6.726562 -2.84375,-18.074219 -2.84375,-28.87500018 l -0.328125,-1.421875 q 0,-0.49218752 0.902343,-1.03906252 h 0.4375 q 1.667969,0 1.667969,9.0507813 1.394531,15.6132814 2.542969,22.3398434 h -1.175781 q 0,-1.722656 3.0625,-27.8085934 0.246093,-4.2382813 1.339843,-4.2382813 z"
       style="font-size:56px;line-height:1;text-align:center;text-anchor:middle;fill:#18394c;fill-opacity:1"
       id="path3218" />
    <path
       d="m 83.222656,-2.7410147 0.246094,0.1367188 q -0.765625,0 -0.765625,-0.1640625 4.867187,0.4375 4.867187,1.3671875 v 0.1914062 q -0.355468,1.01171877 -1.285156,1.01171877 l -3.171875,-0.328125 q -0.21875,0 -1.394531,0.0820313 l 0.05469,0.765625 q 0,1.80468748 0.519532,13.91796868 h 0.109375 q 0.792968,0 1.367187,-0.109375 2.570313,0.21875 4.046875,0.21875 l 0.628906,0.847656 v 0.464844 q 0,0.875 -1.121093,0.875 -0.984375,0 -3.171875,-0.21875 -1.449219,0.109375 -1.832032,0.109375 v -0.109375 q 0,7.710938 0.738282,17.28125 0.136718,0 0.136718,0.08203 3.417969,-0.191406 4.375,-0.191406 0.847657,0.273438 1.203125,0.984375 v 0.21875 q 0,0.4375 -0.875,0.984375 -4.347656,0.109375 -5.222656,0.21875 -2.050781,0 -2.050781,-1.941406 -0.765625,-10.445313 -0.765625,-17.417969 v -3.5 Q 79.3125,3.4113291 79.3125,0.07539157 78.984375,-1.5652334 78.984375,-1.9753897 l 0.847656,-0.6289062 h 1.476563 q 0.601562,0 1.914062,-0.1367188 z"
       style="font-size:56px;line-height:1;text-align:center;text-anchor:middle;fill:#18394c;fill-opacity:1"
       id="path3220" />
    <path
       d="m 95.445312,-4.2722647 h 0.109375 q 0.601563,0 1.121094,0.8476563 0,1.2304687 0.109375,1.2304687 l -0.21875,-0.4375 q 0.765625,12.03125 0.765625,20.2070317 0.328125,2.652343 0.328125,7.355468 v 8.96875 h 5.222654 q 0.62891,0 1.01172,0.765625 v 0.4375 q 0,0.984375 -2.54297,0.984375 h -5.031248 q -0.574218,0 -1.121093,-0.847656 v -0.792969 q 0,-1.3125 0.05469,-1.3125 l -0.05469,-0.738281 v -8.011719 q -0.4375,-14.382812 -0.875,-23.92578093 L 93.996094,-3.2332022 q 0.328125,-1.0390625 1.449218,-1.0390625 z"
       style="font-size:56px;line-height:1;text-align:center;text-anchor:middle;fill:#18394c;fill-opacity:1"
       id="path3222" />
    <path
       d="m 120.35547,-0.88163968 h 0.46484 q 0.57422,0 1.1211,0.84765625 v 0.2734375 q -0.875,7.84765623 -1.85938,15.28515593 l 0.10938,0.628907 v 0.902343 q -0.41016,0 -1.20313,10.308594 -0.32812,5.441406 -0.82031,8.394531 l -0.65625,0.328125 h -0.62891 q -0.6289,-0.164062 -1.01172,-1.011718 1.20313,-14.546875 1.75,-18.839844 -2.89843,-6.2617189 -7.60156,-12.6054689 -1.03906,-0.7382813 -1.03906,-1.5585938 v -0.21875 q 0,-0.4375 0.90234,-0.98437498 h 0.82032 q 0.76562,0.30078128 1.12109,1.42187498 4.34766,5.3867188 7.05469,11.1562497 h -0.98438 q 1.14844,-9.9257809 1.72266,-13.83593718 z"
       style="font-size:56px;line-height:1;text-align:center;text-anchor:middle;fill:#18394c;fill-opacity:1"
       id="path3224" />
    <path
       d="m 131.53906,33.89961 q 0.92969,0.410157 1.09375,0.984375 -0.82031,2.707032 -1.75,5.085938 -0.73828,0.601562 -1.39453,0.601562 -0.98437,-0.355468 -0.98437,-0.875 V 39.14961 q 0.79296,-1.394531 1.58593,-4.648437 0.79297,-0.601563 1.44922,-0.601563 z"
       style="font-size:56px;line-height:1;text-align:center;text-anchor:middle;fill:#18394c;fill-opacity:1"
       id="path3226" />
    <path
       d="m 162.95703,-5.4480459 h 0.68359 q 0.92969,0.4648437 0.92969,1.09375 0,5.16796872 -0.21875,7.984375 l 0.21875,11.2382809 q 0.21875,0.382813 0.21875,0.738282 -0.27344,0.820312 -0.1914,0.820312 0.1914,4.539063 0.30078,17.308594 -0.10938,0.601562 -0.10938,2.40625 l -0.76562,0.519531 h -0.84766 l -0.84766,-0.65625 q 0,-1.421875 0.10938,-2.105469 -0.10938,-14.929687 -0.30078,-17.335937 -4.34766,0.08203 -4.42969,0.109375 0.19141,1.667969 0.19141,3.691406 0,4.375 -0.10938,7.65625 0.10938,1.859375 0.10938,7.492188 -0.82032,0.492187 -1.33985,0.492187 -0.60156,0 -1.12109,-0.875 v -1.09375 q 0,-4.457031 -0.10938,-6.015625 0.10938,-2.679687 0.10938,-6.5625 v -1.640625 q -0.32813,-5.332031 -0.32813,-7.4375 0.32813,-12.19531243 0.32813,-15.4765624 -0.10938,-0.4375 -0.10938,-1.0664063 l 0.84766,-0.6289062 h 0.71094 q 1.01172,0.6015625 1.01172,1.421875 0,2.0507812 -0.32813,16.4062499 v 1.859375 l -0.1914,-0.382812 q 0.1914,-0.05469 4.70312,-0.136719 Q 162,10.93086 162,9.2082041 v -5.03125 q 0,-0.1367188 -0.16406,-0.4101563 L 162,3.4113291 q 0.10937,-5.140625 0.10937,-8.2304688 z"
       style="font-size:56px;line-height:1;text-align:center;text-anchor:middle;fill:#18394c;fill-opacity:1"
       id="path3228" />
    <path
       d="m 176.57422,-2.5222647 q 3.71875,0 5.60547,15.2578127 0.10937,1.449219 0.10937,3.664062 v 0.4375 q 0,0.4375 -0.082,0.875 0.082,0.109375 0.082,0.875 v 0.109375 q 0,0.765625 -0.082,0.875 0.082,0.4375 0.082,0.546875 0,11.757813 -3.44531,14.65625 -1.39453,0.546875 -1.94141,0.546875 h -0.875 q -4.45703,-1.066406 -5.49609,-10.691406 l -0.32813,-4.484375 q 0,-15.5312499 3.96485,-21.6835937 1.3125,-0.984375 2.40625,-0.984375 z m -3.91016,22.3124997 q 0,6.097657 1.61328,10.664063 1.33985,2.679687 2.07813,2.679687 h 0.10937 q 1.64063,0 2.1875,-2.652343 1.17578,-2.789063 1.17578,-12.003907 v -2.1875 q 0,-6.3710934 -2.26953,-14.6289059 -0.73828,-1.64062503 -1.09375,-1.88671878 -0.60156,0.21875 -0.76562,0.7109375 -3.03516,6.42578128 -3.03516,19.30468718 z"
       style="font-size:56px;line-height:1;text-align:center;text-anchor:middle;fill:#18394c;fill-opacity:1"
       id="path3230" />
    <path
       d="m 199.46094,-0.66288968 0.71093,0.8203125 v 0.4375 q 0,1.01171878 -3.74609,1.01171878 h -3.0625 q 0.32813,0 0.35547,-0.082031 l 0.21875,4.9492188 q -0.10938,0.6835937 -0.10938,0.7382812 0.98438,16.5429687 0.98438,23.5976567 0.10937,0.191406 0.10937,0.546875 -0.10937,0.164062 -0.10937,0.109375 l 0.13672,0.738281 q -0.38281,0.875 -1.03906,0.875 h -0.4375 q -0.46485,0 -1.1211,-0.765625 0,-0.382813 0.10938,-1.230469 0,-2.324219 -0.98438,-23.5976562 0,-3.4453125 -0.1914,-6.015625 l 0.24609,0.1367188 h -0.10938 l -3.82812,0.328125 q -0.71094,-0.765625 -0.71094,-1.42187503 0,-0.46484375 1.03906,-0.984375 0.95704,0.24609375 0.92969,0.24609375 2.10547,-0.19140625 2.98047,-0.19140625 h 4.48438 q 1.33984,0 3.14453,-0.24609375 z"
       style="font-size:56px;line-height:1;text-align:center;text-anchor:middle;fill:#18394c;fill-opacity:1"
       id="path3232" />
    <path
       d="m 210.20703,-2.7410147 0.24609,0.1367188 q -0.76562,0 -0.76562,-0.1640625 4.86719,0.4375 4.86719,1.3671875 v 0.1914062 q -0.35547,1.01171877 -1.28516,1.01171877 l -3.17187,-0.328125 q -0.21875,0 -1.39454,0.0820313 l 0.0547,0.765625 q 0,1.80468748 0.51953,13.91796868 h 0.10938 q 0.79297,0 1.36719,-0.109375 2.57031,0.21875 4.04687,0.21875 l 0.62891,0.847656 v 0.464844 q 0,0.875 -1.1211,0.875 -0.98437,0 -3.17187,-0.21875 -1.44922,0.109375 -1.83203,0.109375 v -0.109375 q 0,7.710938 0.73828,17.28125 0.13672,0 0.13672,0.08203 3.41797,-0.191406 4.375,-0.191406 0.84765,0.273438 1.20312,0.984375 v 0.21875 q 0,0.4375 -0.875,0.984375 -4.34765,0.109375 -5.22265,0.21875 -2.05079,0 -2.05079,-1.941406 -0.76562,-10.445313 -0.76562,-17.417969 v -3.5 Q 206.29687,3.4113291 206.29687,0.07539157 205.96875,-1.5652334 205.96875,-1.9753897 l 0.84766,-0.6289062 h 1.47656 q 0.60156,0 1.91406,-0.1367188 z"
       style="font-size:56px;line-height:1;text-align:center;text-anchor:middle;fill:#18394c;fill-opacity:1"
       id="path3234" />
    <path
       d="m 222.42969,-4.2722647 h 0.10937 q 0.60156,0 1.1211,0.8476563 0,1.2304687 0.10937,1.2304687 l -0.21875,-0.4375 q 0.76563,12.03125 0.76563,20.2070317 0.32812,2.652343 0.32812,7.355468 v 8.96875 h 5.22266 q 0.6289,0 1.01172,0.765625 v 0.4375 q 0,0.984375 -2.54297,0.984375 h -5.03125 q -0.57422,0 -1.1211,-0.847656 v -0.792969 q 0,-1.3125 0.0547,-1.3125 l -0.0547,-0.738281 v -8.011719 q -0.4375,-14.382812 -0.875,-23.92578093 l -0.32812,-3.69140627 q 0.32812,-1.0390625 1.44922,-1.0390625 z"
       style="font-size:56px;line-height:1;text-align:center;text-anchor:middle;fill:#18394c;fill-opacity:1"
       id="path3236" />
    <path
       d="m 243.51172,-1.9480459 0.6289,0.7929687 v 0.35546877 q 0,0.3828125 -0.98437,1.06640625 h -1.33984 q -2.4336,0 -3.28125,1.77734378 -0.84766,2.296875 -0.84766,5.140625 0,1.7226562 1.50391,5.6875004 0.49218,0.984375 5.79687,5.796875 2.87109,4.101562 2.87109,8.066406 0,3.117187 -1.33984,6.097656 -0.71094,1.613281 -3.60937,2.679688 -1.09375,0.574218 -1.85938,0.574218 -1.03906,0 -1.44922,-0.875 v -0.382812 q 0,-0.792969 1.69531,-0.957031 3.11719,-1.175782 3.11719,-2.433594 0.98438,-1.96875 0.98438,-5.003906 0,-3.964844 -3.55469,-7.738282 -2.95313,-2.242187 -4.42969,-4.347656 -1.0664,-1.148437 -2.07812,-5.8789062 0,-0.5742187 -0.10938,-1.4492187 0,-3.6367188 1.36719,-6.48046878 1.72266,-2.48828122 6.91797,-2.48828122 z"
       style="font-size:56px;line-height:1;text-align:center;text-anchor:middle;fill:#18394c;fill-opacity:1"
       id="path3238" />
    <path
       d="m 267.32812,-2.7683584 q 1.14844,0 5.63282,15.3671874 0.6289,3.5 5.14062,17.253906 h -0.90234 v -0.382812 q -0.62891,-13.289063 -0.62891,-14.929688 0,-0.492187 0.13672,-3.335937 -0.0273,-0.300781 -0.0273,-1.3125002 0.21875,-2.1601562 0.21875,-3.4179687 v -7.7929688 q 0.13672,-1.1484375 1.47656,-1.1484375 l 1.14844,0.6015625 q -0.32813,6.4804688 -0.32813,9.5976563 v 3.0898434 q 0,9.515625 0.60156,24.855469 l -1.09375,0.546875 q -1.36718,0 -8.61328,-24.664062 l -2.87109,-9.7890629 1.01172,1.640625 0.082,-1.5859375 q 0.19141,2.2695312 0.19141,3.609375 l 0.0273,0.9296875 q -0.21875,6.0703129 -0.21875,8.5039059 0,12.222657 0.98437,20.726563 h -1.36718 q -1.28516,0 -1.28516,-1.148438 -0.62891,-9.542968 -0.62891,-17.089843 V -1.6199209 q 0.19141,-1.1484375 1.3125,-1.1484375 z"
       style="font-size:56px;line-height:1;text-align:center;text-anchor:middle;fill:#18394c;fill-opacity:1"
       id="path3240" />
    <path
       d="m 290.05078,-2.7410147 0.24609,0.1367188 q -0.76562,0 -0.76562,-0.1640625 4.86719,0.4375 4.86719,1.3671875 v 0.1914062 q -0.35547,1.01171877 -1.28516,1.01171877 l -3.17187,-0.328125 q -0.21875,0 -1.39454,0.0820313 l 0.0547,0.765625 q 0,1.80468748 0.51953,13.91796868 h 0.10938 q 0.79297,0 1.36719,-0.109375 2.57031,0.21875 4.04687,0.21875 l 0.62891,0.847656 v 0.464844 q 0,0.875 -1.1211,0.875 -0.98437,0 -3.17187,-0.21875 -1.44922,0.109375 -1.83203,0.109375 v -0.109375 q 0,7.710938 0.73828,17.28125 0.13672,0 0.13672,0.08203 3.41797,-0.191406 4.375,-0.191406 0.84765,0.273438 1.20312,0.984375 v 0.21875 q 0,0.4375 -0.875,0.984375 -4.34765,0.109375 -5.22265,0.21875 -2.05079,0 -2.05079,-1.941406 -0.76562,-10.445313 -0.76562,-17.417969 v -3.5 Q 286.14062,3.4113291 286.14062,0.07539157 285.8125,-1.5652334 285.8125,-1.9753897 l 0.84766,-0.6289062 h 1.47656 q 0.60156,0 1.91406,-0.1367188 z"
       style="font-size:56px;line-height:1;text-align:center;text-anchor:middle;fill:#18394c;fill-opacity:1"
       id="path3242" />
    <path
       d="m 304.95312,-2.3308584 h 0.27344 q 1.96875,0.9023437 3.14453,4.265625 3.0625,9.4609374 4.51172,24.1171874 0.95703,4.757813 0.95703,8.476563 -0.32812,0.820312 -1.88672,0.820312 -0.65625,-1.257812 -1.53125,-9.160156 -0.24609,-0.847656 -1.03906,-6.863281 l -0.24609,-0.02734 q -5.19531,0.492187 -5.19531,0.65625 v 4.265625 l -0.73829,10.007812 q 0.2461,0.355469 0.2461,0.820313 0,0.464844 -0.95703,1.039062 -1.85938,0 -1.85938,-1.777343 0.84766,-11.539063 0.84766,-13.835938 -0.10938,-1.503906 -0.10938,-3.0625 0.0547,-7.9023437 1.3125,-16.73437493 0.62891,-3.00781247 2.26953,-3.00781247 z m 0.49219,2.81640622 q -1.39453,5.35937498 -1.39453,15.55859418 -0.10937,0 -0.10937,2.105468 v -0.410156 q 2.65234,-0.738281 5.27734,-0.738281 v 0.410156 q 0,-3.28125 -3.60938,-15.6679687 -0.68359,-1.47656248 -0.16406,-1.25781248 z"
       style="font-size:56px;line-height:1;text-align:center;text-anchor:middle;fill:#18394c;fill-opacity:1"
       id="path3244" />
    <path
       d="m 321.55078,-5.3660147 h 0.875 q 0.32813,0.4375 1.80469,0.6835938 2.3789,0.9570312 3.80078,3.390625 1.91406,4.6210937 1.91406,6.8632812 v 1.09375 q 0,7.3828127 -3.52734,10.1445317 4.15625,0.984375 4.94922,11.59375 v 4.183593 q 0,0.929688 0.13672,2.980469 l -0.79297,0.519531 h -0.84766 l -0.82031,-0.628906 q -0.13672,-2.433594 -0.13672,-3.527344 v -3.9375 q 0,-3.992187 -2.40625,-8.121093 -1.47656,-1.394532 -2.48828,-1.394532 h 0.60156 q 0.082,1.804688 0.082,2.953125 v 4.15625 q 0.21875,5.414063 0.21875,6.125 v 0.328125 q -0.4375,0.875 -1.33984,0.875 -0.51953,0 -1.25781,-0.847656 l 0.13671,-0.929687 q -0.21875,-4.59375 -0.21875,-6.097657 V 19.02461 q -0.27343,0 -0.65625,-0.902343 v -0.519532 q 0.4375,-0.875 0.51954,-0.875 -0.51954,-14.4374997 -1.42188,-21.4374997 z m 1.88672,2.625 q 0.60156,7.4101563 1.09375,18.1015627 2.95312,-1.996094 2.95312,-8.1484377 v -1.53125 q 0,-2.7617187 -2.29687,-7.0273437 -1.53125,-1.3945313 -2.16016,-1.3945313 z"
       style="font-size:56px;line-height:1;text-align:center;text-anchor:middle;fill:#18394c;fill-opacity:1"
       id="path3246" />
    <path
       d="m 341.10156,-4.8191397 q 4.01953,0 4.83985,7.6289063 v 2.1328125 q -0.54688,3.9648437 -3.69141,8.6132809 -0.10938,0.02734 -0.46484,0.492188 v -0.410156 q 2.05078,0.765625 3.55468,3.28125 1.50391,2.242187 2.02344,6.890625 0,5.824218 -2.48828,9.925781 -1.75,1.914062 -3.55469,2.351562 h -0.32812 q -2.21485,0 -2.21485,-4.238281 -1.3125,-18.839844 -1.3125,-28.9843749 -0.21875,-2.92578128 -0.68359,-5.796875 2.26953,-1.8867188 4.32031,-1.8867188 z m -1.69531,2.7890625 q 0.84766,6.6171875 0.84766,19.2773442 0.4375,5.140625 1.09375,16.570312 l -0.0547,-0.05469 q 1.53125,-0.628907 2.32422,-2.734375 1.28515,-3.609375 1.28515,-7.164063 -0.79297,-4.730469 -1.25781,-4.730469 -0.79297,-2.351562 -2.98047,-3.609375 -1.12109,0 -1.77734,-1.09375 v -0.601562 q 3.58203,-4.0195314 4.59375,-8.7500002 V 3.4113291 q -0.49219,-6.0429688 -2.37891,-6.0429688 -1.03906,0 -1.69531,0.6015625 z"
       style="font-size:56px;line-height:1;text-align:center;text-anchor:middle;fill:#18394c;fill-opacity:1"
       id="path3248" />
    <path
       d="m 364.37109,-0.88163968 h 0.46485 q 0.57422,0 1.12109,0.84765625 v 0.2734375 q -0.875,7.84765623 -1.85937,15.28515593 l 0.10937,0.628907 v 0.902343 q -0.41016,0 -1.20312,10.308594 -0.32813,5.441406 -0.82032,8.394531 l -0.65625,0.328125 h -0.6289 q -0.62891,-0.164062 -1.01172,-1.011718 1.20312,-14.546875 1.75,-18.839844 -2.89844,-6.2617189 -7.60156,-12.6054689 -1.03907,-0.7382813 -1.03907,-1.5585938 v -0.21875 q 0,-0.4375 0.90235,-0.98437498 h 0.82031 q 0.76562,0.30078128 1.12109,1.42187498 4.34766,5.3867188 7.05469,11.1562497 h -0.98437 q 1.14843,-9.9257809 1.72265,-13.83593718 z"
       style="font-size:56px;line-height:1;text-align:center;text-anchor:middle;fill:#18394c;fill-opacity:1"
       id="path3250" />
    <path
       d="m -3.8671875,56.174623 h 0.4375 q 1.4492188,0 1.4492188,6.34375 v 1.421875 q 0,2.160157 -0.6562501,11.074219 0,0.355469 0.109375,0.792969 -0.109375,5.769531 -0.109375,9.132812 v 7.109375 q 0,0.164063 0.21875,1.066407 -0.21875,1.339843 -1.1210937,1.339843 h -0.4375 q -1.1210937,0 -1.1210937,-3.5 0,-19.003906 0.65625,-26.167968 v -3.035157 q 0,-2.515625 -0.328125,-4.566406 0,-0.464844 0.9023437,-1.011719 z"
       style="font-size:56px;line-height:1;text-align:center;text-anchor:middle;fill:#18394c;fill-opacity:1"
       id="path3252" />
    <path
       d="m 6.140625,55.600405 q 1.1484375,0 5.632813,15.367187 0.628906,3.5 5.140624,17.253906 h -0.902343 v -0.382812 q -0.628906,-13.289063 -0.628906,-14.929688 0,-0.492187 0.136718,-3.335937 -0.02734,-0.300781 -0.02734,-1.3125 0.21875,-2.160156 0.21875,-3.417969 v -7.792969 q 0.136718,-1.148437 1.476562,-1.148437 l 1.148437,0.601562 q -0.328125,6.480469 -0.328125,9.597657 v 3.089843 q 0,9.515625 0.601563,24.855469 l -1.09375,0.546875 q -1.367188,0 -8.6132812,-24.664062 L 6.03125,60.139467 7.0429687,61.780092 7.125,60.194155 q 0.1914062,2.269531 0.1914062,3.609375 L 7.34375,64.733217 Q 7.125,70.80353 7.125,73.237123 q 0,12.222657 0.984375,20.726563 H 6.7421875 q -1.2851563,0 -1.2851563,-1.148438 Q 4.828125,83.27228 4.828125,75.725405 V 56.748842 q 0.1914062,-1.148437 1.3125,-1.148437 z"
       style="font-size:56px;line-height:1;text-align:center;text-anchor:middle;fill:#18394c;fill-opacity:1"
       id="path3254" />
    <path
       d="m 40.59375,54.725405 h 0.574219 q 0.65625,0 1.121093,1.148437 v 0.246094 q 0,0.464844 -0.902343,2.652344 -1.722657,6.5625 -1.722657,13.808593 0,7.601563 3.363282,22.066407 0.765625,2.351562 3.527343,7.21875 v 0.32812 q -0.300781,1.09375 -0.984375,1.33985 -1.421875,0 -4.074218,-5.933595 -2.050782,-5.332032 -3.964844,-18.921875 -0.328125,-5.386719 -0.328125,-6.261719 0,-9.597656 2.679687,-16.898438 z"
       style="font-size:56px;line-height:1;text-align:center;text-anchor:middle;fill:#18394c;fill-opacity:1"
       id="path3256" />
    <path
       d="M 56.371094,56.420717 57,57.213686 v 0.355469 q 0,0.382812 -0.984375,1.066406 h -1.339844 q -2.433594,0 -3.28125,1.777344 -0.847656,2.296875 -0.847656,5.140625 0,1.722656 1.503906,5.6875 0.492188,0.984375 5.796875,5.796875 2.871094,4.101562 2.871094,8.066406 0,3.117187 -1.339844,6.097656 -0.710937,1.613281 -3.609375,2.679688 -1.09375,0.574218 -1.859375,0.574218 -1.039062,0 -1.449219,-0.875 v -0.382812 q 0,-0.792969 1.695313,-0.957031 3.117187,-1.175782 3.117187,-2.433594 0.984375,-1.96875 0.984375,-5.003906 0,-3.964844 -3.554687,-7.738282 -2.953125,-2.242187 -4.429688,-4.347656 -1.066406,-1.148437 -2.078125,-5.878906 0,-0.574219 -0.109375,-1.449219 0,-3.636719 1.367188,-6.480469 1.722656,-2.488281 6.917969,-2.488281 z"
       style="font-size:56px;line-height:1;text-align:center;text-anchor:middle;fill:#18394c;fill-opacity:1"
       id="path3258" />
    <path
       d="m 67.527344,54.862123 h 0.65625 Q 69.25,55.381655 69.25,56.283998 v 0.546875 q 0.957031,17.773438 2.378906,28.601563 0.902344,6.835937 2.132813,6.835937 0.902343,-0.382812 0.902343,-1.53125 0,-4.292968 -0.902343,-21.65625 0.136718,-3.171875 0.136718,-6.125 v -2.597656 l -0.136718,-0.738281 0.109375,-0.246094 q -0.08203,-1.339844 -0.355469,-3.199219 l 0.902344,-0.65625 h 0.601562 q 1.09375,0 1.339844,3.609375 0,0.765625 -0.08203,0.765625 0.08203,1.09375 0.08203,1.859375 v 3.527344 L 76.25,65.936342 q 0,-0.464844 0.136719,-0.464844 Q 76.25,67.330873 76.25,67.877748 v 0.4375 q 0.875,19.03125 0.875,22.449219 -0.355469,3.691406 -3.527344,3.691406 -3.609375,0 -4.621094,-10.992187 -1.203125,-9.378906 -2.324218,-27.945313 z"
       style="font-size:56px;line-height:1;text-align:center;text-anchor:middle;fill:#18394c;fill-opacity:1"
       id="path3260" />
    <path
       d="m 85.4375,55.600405 q 1.148437,0 5.632812,15.367187 0.628907,3.5 5.140625,17.253906 h -0.902343 v -0.382812 q -0.628907,-13.289063 -0.628907,-14.929688 0,-0.492187 0.136719,-3.335937 -0.02734,-0.300781 -0.02734,-1.3125 0.21875,-2.160156 0.21875,-3.417969 v -7.792969 q 0.136719,-1.148437 1.476563,-1.148437 l 1.148437,0.601562 q -0.328125,6.480469 -0.328125,9.597657 v 3.089843 q 0,9.515625 0.601563,24.855469 l -1.09375,0.546875 q -1.367188,0 -8.613281,-24.664062 l -2.871094,-9.789063 1.011719,1.640625 0.08203,-1.585937 q 0.191406,2.269531 0.191406,3.609375 l 0.02734,0.929687 q -0.21875,6.070313 -0.21875,8.503906 0,12.222657 0.984375,20.726563 h -1.367188 q -1.285156,0 -1.285156,-1.148438 Q 84.125,83.27228 84.125,75.725405 V 56.748842 q 0.191406,-1.148437 1.3125,-1.148437 z"
       style="font-size:56px;line-height:1;text-align:center;text-anchor:middle;fill:#18394c;fill-opacity:1"
       id="path3262" />
    <path
       d="m 104.14063,55.600405 q 1.14843,0 5.63281,15.367187 0.6289,3.5 5.14062,17.253906 h -0.90234 v -0.382812 q -0.62891,-13.289063 -0.62891,-14.929688 0,-0.492187 0.13672,-3.335937 -0.0273,-0.300781 -0.0273,-1.3125 0.21875,-2.160156 0.21875,-3.417969 v -7.792969 q 0.13672,-1.148437 1.47656,-1.148437 l 1.14844,0.601562 q -0.32813,6.480469 -0.32813,9.597657 v 3.089843 q 0,9.515625 0.60157,24.855469 l -1.09375,0.546875 q -1.36719,0 -8.61329,-24.664062 l -2.87109,-9.789063 1.01172,1.640625 0.082,-1.585937 q 0.19141,2.269531 0.19141,3.609375 l 0.0273,0.929687 q -0.21875,6.070313 -0.21875,8.503906 0,12.222657 0.98438,20.726563 h -1.36719 q -1.28516,0 -1.28516,-1.148438 -0.6289,-9.542968 -0.6289,-17.089843 V 56.748842 q 0.1914,-1.148437 1.3125,-1.148437 z"
       style="font-size:56px;line-height:1;text-align:center;text-anchor:middle;fill:#18394c;fill-opacity:1"
       id="path3264" />
    <path
       d="m 132.49609,57.487123 h 0.46485 q 0.57422,0 1.12109,0.847657 v 0.273437 q -0.875,7.847656 -1.85937,15.285156 l 0.10937,0.628907 v 0.902343 q -0.41016,0 -1.20312,10.308594 -0.32813,5.441406 -0.82032,8.394531 l -0.65625,0.328125 h -0.6289 q -0.62891,-0.164062 -1.01172,-1.011718 1.20312,-14.546875 1.75,-18.839844 -2.89844,-6.261719 -7.60156,-12.605469 -1.03907,-0.738281 -1.03907,-1.558594 v -0.21875 q 0,-0.4375 0.90235,-0.984375 h 0.82031 q 0.76563,0.300782 1.12109,1.421875 4.34766,5.386719 7.05469,11.15625 h -0.98437 q 1.14843,-9.925781 1.72265,-13.835937 z"
       style="font-size:56px;line-height:1;text-align:center;text-anchor:middle;fill:#18394c;fill-opacity:1"
       id="path3266" />
    <path
       d="m 145.01953,56.393373 q 2.46094,0 4.59375,2.078125 1.66797,2.105469 1.66797,3.9375 v 0.765625 q 0,5.605469 -3.11719,10.71875 -0.82031,1.695313 -0.82031,5.441407 0.21875,1.804687 0.21875,2.871093 v 1.203125 q 0,0.902344 -0.95703,1.3125 h -0.49219 q -0.90234,0 -1.01172,-0.957031 0,-0.65625 0.10938,-0.820312 0,0.02734 -0.32813,-3.554688 0,-5.660156 2.24219,-8.667969 1.80469,-3.828125 1.80469,-7.765625 0,-2.105468 -1.91407,-3.71875 -1.44921,-0.65625 -2.10546,-0.65625 -2.92579,0.792969 -2.92579,2.515625 v 0.847657 l 0.32813,0.4375 v 0.246093 q 0,0.902344 -0.95703,1.3125 h -0.79297 q -1.03906,-0.519531 -1.03906,-1.421875 v -1.53125 q 0,-3.171875 4.94922,-4.59375 z m 0.875,34.453125 h 0.54688 q 0.51953,0 1.23046,0.957032 v 0.683593 q 0,1.421875 -1.55859,1.421875 -1.50391,0 -1.66797,-1.640625 0.10938,-0.65625 1.44922,-1.421875 z"
       style="font-size:56px;line-height:1;text-align:center;text-anchor:middle;fill:#18394c;fill-opacity:1"
       id="path3268" />
    <path
       d="m 155.90234,55.299623 h 0.49219 q 0.71094,0 1.72266,2.433594 1.99609,3.035156 3.33593,8.914063 1.3125,6.234375 1.3125,11.128906 v 1.96875 q 0,13.207031 -3.41796,21.355464 l -1.06641,0.32813 q -1.03906,-0.51953 -1.03906,-1.01172 V 100.034 q 3.0625,-8.531252 3.0625,-19.332033 v -2.925781 q 0,-6.863281 -2.48828,-15.066406 l -2.76172,-5.769532 v -0.546875 q 0,-0.464843 0.84765,-1.09375 z"
       style="font-size:56px;line-height:1;text-align:center;text-anchor:middle;fill:#18394c;fill-opacity:1"
       id="path3270" />
    <path
       d="m 190.30078,56.283998 h 0.84766 q 2.57031,0.464844 2.57031,1.96875 0,0.4375 -0.90234,0.984375 h -1.01172 q -0.71094,-0.875 -1.03907,-0.875 -2.1875,0.765625 -2.1875,1.3125 -2.1875,4.15625 -2.1875,11.265625 v 1.859375 q 0,4.839844 1.3125,11.621094 0.76563,4.894531 2.05079,6.535156 1.44921,1.257813 2.43359,1.3125 1.20312,0 3.08984,-2.40625 h 0.71094 q 0.62891,0 1.01172,0.765625 v 0.328125 q 0,1.257813 -2.70703,2.980469 -1.23047,0.519531 -2.24219,0.519531 h -0.16406 Q 190,94.237123 188.05859,92.541811 q -2.10547,-1.667969 -3.58203,-12.769531 -0.54687,-2.378907 -0.54687,-7.847657 v -0.65625 q 0.1914,-11.320312 3.88281,-14.109375 1.83203,-0.875 2.48828,-0.875 z"
       style="font-size:56px;line-height:1;text-align:center;text-anchor:middle;fill:#18394c;fill-opacity:1"
       id="path3272" />
    <path
       d="m 202.00391,53.002748 h 0.875 q 0.32812,0.4375 1.80468,0.683594 2.37891,0.957031 3.80078,3.390625 1.91407,4.621094 1.91407,6.863281 v 1.09375 q 0,7.382813 -3.52735,10.144532 4.15625,0.984375 4.94922,11.59375 v 4.183593 q 0,0.929688 0.13672,2.980469 l -0.79297,0.519531 h -0.84765 l -0.82032,-0.628906 q -0.13672,-2.433594 -0.13672,-3.527344 v -3.9375 q 0,-3.992187 -2.40625,-8.121093 -1.47656,-1.394532 -2.48828,-1.394532 h 0.60157 q 0.082,1.804688 0.082,2.953125 v 4.15625 q 0.21875,5.414063 0.21875,6.125 v 0.328125 q -0.4375,0.875 -1.33985,0.875 -0.51953,0 -1.25781,-0.847656 l 0.13672,-0.929687 q -0.21875,-4.59375 -0.21875,-6.097657 v -6.015625 q -0.27344,0 -0.65625,-0.902343 v -0.519532 q 0.4375,-0.875 0.51953,-0.875 -0.51953,-14.4375 -1.42187,-21.4375 z m 1.88671,2.625 q 0.60157,7.410157 1.09375,18.101563 2.95313,-1.996094 2.95313,-8.148438 v -1.53125 q 0,-2.761718 -2.29688,-7.027343 -1.53125,-1.394532 -2.16015,-1.394532 z"
       style="font-size:56px;line-height:1;text-align:center;text-anchor:middle;fill:#18394c;fill-opacity:1"
       id="path3274" />
    <path
       d="m 223.05859,55.846498 q 3.71875,0 5.60547,15.257813 0.10938,1.449219 0.10938,3.664062 v 0.4375 q 0,0.4375 -0.082,0.875 0.082,0.109375 0.082,0.875 v 0.109375 q 0,0.765625 -0.082,0.875 0.082,0.4375 0.082,0.546875 0,11.757813 -3.44532,14.65625 -1.39453,0.546875 -1.9414,0.546875 h -0.875 q -4.45703,-1.066406 -5.4961,-10.691406 l -0.32812,-4.484375 q 0,-15.53125 3.96484,-21.683594 1.3125,-0.984375 2.40625,-0.984375 z m -3.91015,22.3125 q 0,6.097657 1.61328,10.664063 1.33984,2.679687 2.07812,2.679687 h 0.10938 q 1.64062,0 2.1875,-2.652343 1.17578,-2.789063 1.17578,-12.003907 v -2.1875 q 0,-6.371093 -2.26953,-14.628906 -0.73828,-1.640625 -1.09375,-1.886719 -0.60156,0.21875 -0.76563,0.710938 -3.03515,6.425781 -3.03515,19.304687 z"
       style="font-size:56px;line-height:1;text-align:center;text-anchor:middle;fill:#18394c;fill-opacity:1"
       id="path3276" />
    <path
       d="m 235.19922,55.408998 q 1.28515,0.410157 7.60156,17.582032 h -0.90234 q 0,-0.710938 5.57812,-16.898438 h 1.3125 l 0.49219,0.957031 0.0273,1.203125 q -0.30078,9.789063 -0.30078,16.542969 0,2.597656 0.98438,19.085938 l -1.17578,0.574218 q -1.47657,0 -2.13282,-18.375 V 63.256655 h 0.90235 q -3.88282,12.058593 -4.73047,12.742187 -1.75,-0.109375 -6.8086,-14.355469 h 0.84766 v -0.21875 l 1.61328,31.800782 -1.12109,0.601562 q -1.53125,0 -1.53125,-1.203125 -0.95703,-28.574219 -1.94141,-36.558594 z"
       style="font-size:56px;line-height:1;text-align:center;text-anchor:middle;fill:#18394c;fill-opacity:1"
       id="path3278" />
    <path
       d="m 259.64453,55.627748 0.24609,0.136719 q -0.76562,0 -0.76562,-0.164062 4.86719,0.4375 4.86719,1.367187 v 0.191406 q -0.35547,1.011719 -1.28516,1.011719 l -3.17187,-0.328125 q -0.21875,0 -1.39454,0.08203 l 0.0547,0.765625 q 0,1.804688 0.51953,13.917969 h 0.10938 q 0.79297,0 1.36719,-0.109375 2.57031,0.21875 4.04687,0.21875 l 0.62891,0.847656 v 0.464844 q 0,0.875 -1.1211,0.875 -0.98437,0 -3.17187,-0.21875 -1.44922,0.109375 -1.83203,0.109375 v -0.109375 q 0,7.710938 0.73828,17.28125 0.13672,0 0.13672,0.08203 3.41797,-0.191406 4.375,-0.191406 0.84765,0.273438 1.20312,0.984375 v 0.21875 q 0,0.4375 -0.875,0.984375 -4.34765,0.109375 -5.22265,0.21875 -2.05079,0 -2.05079,-1.941406 -0.76562,-10.445313 -0.76562,-17.417969 v -3.5 q -0.54688,-9.625 -0.54688,-12.960937 -0.32812,-1.640625 -0.32812,-2.050782 l 0.84766,-0.628906 h 1.47656 q 0.60156,0 1.91406,-0.136719 z"
       style="font-size:56px;line-height:1;text-align:center;text-anchor:middle;fill:#18394c;fill-opacity:1"
       id="path3280" />
    <path
       d="m 270.91016,53.002748 h 0.875 q 0.32812,0.4375 1.80468,0.683594 2.37891,0.957031 3.80078,3.390625 1.91407,4.621094 1.91407,6.863281 v 1.09375 q 0,7.382813 -3.52735,10.144532 4.15625,0.984375 4.94922,11.59375 v 4.183593 q 0,0.929688 0.13672,2.980469 l -0.79297,0.519531 h -0.84765 l -0.82032,-0.628906 q -0.13672,-2.433594 -0.13672,-3.527344 v -3.9375 q 0,-3.992187 -2.40625,-8.121093 -1.47656,-1.394532 -2.48828,-1.394532 h 0.60157 q 0.082,1.804688 0.082,2.953125 v 4.15625 q 0.21875,5.414063 0.21875,6.125 v 0.328125 q -0.4375,0.875 -1.33985,0.875 -0.51953,0 -1.25781,-0.847656 l 0.13672,-0.929687 q -0.21875,-4.59375 -0.21875,-6.097657 v -6.015625 q -0.27344,0 -0.65625,-0.902343 v -0.519532 q 0.4375,-0.875 0.51953,-0.875 -0.51953,-14.4375 -1.42187,-21.4375 z m 1.88671,2.625 q 0.60157,7.410157 1.09375,18.101563 2.95313,-1.996094 2.95313,-8.148438 v -1.53125 q 0,-2.761718 -2.29688,-7.027343 -1.53125,-1.394532 -2.16015,-1.394532 z"
       style="font-size:56px;line-height:1;text-align:center;text-anchor:middle;fill:#18394c;fill-opacity:1"
       id="path3282" />
  </g>
</svg>
