<?xml version="1.0" encoding="UTF-8" standalone="no"?>
<svg
   xmlns:dc="http://purl.org/dc/elements/1.1/"
   xmlns:cc="http://creativecommons.org/ns#"
   xmlns:rdf="http://www.w3.org/1999/02/22-rdf-syntax-ns#"
   xmlns:svg="http://www.w3.org/2000/svg"
   xmlns="http://www.w3.org/2000/svg"
   xmlns:sodipodi="http://sodipodi.sourceforge.net/DTD/sodipodi-0.dtd"
   xmlns:inkscape="http://www.inkscape.org/namespaces/inkscape"
   id="svg8"
   version="1.1"
   viewBox="0 0 256 256"
   sodipodi:docname="SaveTheDate.svg"
   inkscape:version="0.92.3 (2405546, 2018-03-11)">
  <sodipodi:namedview
     pagecolor="#ffffff"
     bordercolor="#666666"
     borderopacity="1"
     objecttolerance="10"
     gridtolerance="10"
     guidetolerance="10"
     inkscape:pageopacity="0"
     inkscape:pageshadow="2"
     inkscape:window-width="1812"
     inkscape:window-height="1051"
     id="namedview5292"
     showgrid="false"
     inkscape:zoom="0.921875"
     inkscape:cx="118.23729"
     inkscape:cy="128"
     inkscape:window-x="-9"
     inkscape:window-y="-9"
     inkscape:window-maximized="1"
     inkscape:current-layer="svg8" />
  <defs
     id="defs2" />
  <metadata
     id="metadata5">
    <rdf:RDF>
      <cc:Work
         rdf:about="">
        <dc:format>image/svg+xml</dc:format>
        <dc:type
           rdf:resource="http://purl.org/dc/dcmitype/StillImage" />
        <dc:title />
      </cc:Work>
    </rdf:RDF>
  </metadata>
  <g
     aria-label="Save 
the date"
     transform="matrix(1.5,0,0,1.5,-59.996908,423.28477)"
     style="font-style:normal;font-weight:normal;font-size:40px;line-height:1.25;font-family:sans-serif;letter-spacing:0px;word-spacing:0px;fill:#000000;fill-opacity:1;stroke:#000000;stroke-width:0.50393701;stroke-miterlimit:4;stroke-dasharray:none;stroke-opacity:1"
     id="flowRoot5837">
    <path
       d="m 94.490156,-227.86312 q 0,-1.68 0.8,-3.52 0.8,-1.88 2.28,-3.48 1.48,-1.6 3.600004,-2.64 2.12,-1.04 4.72,-1.04 2.32,0 3.24,1.16 0.96,1.12 0.96,2.84 0,1.08 -0.32,2.32 -0.28,1.24 -0.76,2.44 -0.44,1.16 -1,2.24 -0.52,1.04 -1,1.8 -0.72,-0.16 -1.04,-0.6 -0.28,-0.44 -0.28,-1.12 0,-0.84 0.36,-1.92 0.36,-1.12 0.8,-2.24 0.48,-1.16 0.84,-2.24 0.36,-1.12 0.36,-2 0,-0.8 -0.48,-1.24 -0.48,-0.48 -1.76,-0.48 -1.88,0 -3.52,0.92 -1.6,0.88 -2.800004,2.24 -1.16,1.32 -1.84,2.88 -0.64,1.52 -0.64,2.76 0,1.48 0.88,2.56 0.88,1.04 2.200004,1.92 1.36,0.88 2.88,1.72 1.56,0.8 2.88,1.88 1.36,1.04 2.24,2.48 0.88,1.4 0.88,3.44 0,2.08 -0.96,3.68 -0.92,1.56 -2.44,2.64 -1.48,1.08 -3.36,1.64 -1.84,0.56 -3.680004,0.56 -1.64,0 -3.16,-0.44 -1.48,-0.44 -2.64,-1.32 -1.16,-0.88 -1.88,-2.24 -0.68,-1.36 -0.68,-3.16 0,-1.56 0.48,-2.6 0.52,-1.04 1.24,-1.64 0.76,-0.6 1.64,-0.84 0.92,-0.28 1.76,-0.28 -1.08,1.16 -1.64,2.56 -0.56,1.4 -0.56,2.8 0,1.12 0.36,2.12 0.4,1 1.12,1.76 0.76,0.8 1.92,1.24 1.16,0.48 2.72,0.48 1.360004,0 2.680004,-0.4 1.32,-0.36 2.36,-1.08 1.08,-0.72 1.72,-1.8 0.68,-1.12 0.68,-2.56 0,-1.72 -0.92,-2.92 -0.88,-1.24 -2.24,-2.2 -1.36,-1 -2.92,-1.88 -1.560004,-0.88 -2.920004,-1.88 -1.36,-1 -2.28,-2.24 -0.88,-1.28 -0.88,-3.08 z"
       style="font-style:normal;font-variant:normal;font-weight:normal;font-stretch:normal;font-family:'Dancing Script';-inkscape-font-specification:'Dancing Script';text-align:center;text-anchor:middle;stroke:#000000;stroke-width:0.50393701;stroke-miterlimit:4;stroke-dasharray:none;stroke-opacity:1"
       id="path5847"
       inkscape:connector-curvature="0" />
    <path
       d="m 123.09453,-218.22312 q 0.16,0.04 0.44,0.12 0.28,0.08 0.52,0.2 0.28,0.12 0.44,0.28 0.2,0.16 0.2,0.4 0,0.36 -0.36,1 -0.36,0.64 -0.8,1.44 -0.44,0.76 -0.8,1.6 -0.36,0.8 -0.36,1.52 0,0.6 0.32,1.2 0.32,0.56 1.04,0.56 1.08,0 2.84,-1.56 1.76,-1.56 3.56,-4.76 l 0.4,0.4 q -0.64,1.64 -1.56,3 -0.92,1.32 -2,2.28 -1.04,0.96 -2.16,1.48 -1.12,0.52 -2.2,0.52 -1.48,0 -2.2,-0.88 -0.68,-0.88 -0.68,-1.92 0,-0.48 0.12,-1.16 -1.76,2.32 -3.16,3.48 -1.4,1.16 -2.88,1.16 -1.28,0 -2.12,-0.84 -0.84,-0.8 -0.84,-2.48 0,-1.2 0.48,-2.56 0.44,-1.36 1.24,-2.72 0.8,-1.4 1.88,-2.64 1.08,-1.28 2.28,-2.24 1.24,-0.96 2.56,-1.52 1.32,-0.6 2.64,-0.6 1.56,0 2.6,0.84 1.04,0.8 1.04,2.16 0,1 -0.56,1.36 -0.52,0.36 -1.4,0.36 0.2,-0.72 0.2,-1.4 0,-0.92 -0.44,-1.56 -0.44,-0.68 -1.52,-0.68 -0.96,0 -1.92,0.56 -0.96,0.56 -1.88,1.52 -0.92,0.92 -1.72,2.12 -0.8,1.2 -1.44,2.48 -0.6,1.24 -0.96,2.48 -0.32,1.2 -0.32,2.16 0,1.56 1.08,1.56 0.92,0 2.08,-0.96 1.16,-0.96 2.32,-2.32 1.16,-1.36 2.2,-2.84 1.08,-1.52 1.8,-2.6 z"
       style="font-style:normal;font-variant:normal;font-weight:normal;font-stretch:normal;font-family:'Dancing Script';-inkscape-font-specification:'Dancing Script';text-align:center;text-anchor:middle;stroke:#000000;stroke-width:0.50393701;stroke-miterlimit:4;stroke-dasharray:none;stroke-opacity:1"
       id="path5849"
       inkscape:connector-curvature="0" />
    <path
       d="m 146.95453,-215.66312 q -0.88,2 -1.96,2.68 -1.04,0.68 -2,0.68 -1.32,0 -2.2,-0.96 -0.88,-0.96 -1.16,-2.92 -0.72,1.44 -1.68,2.88 -0.92,1.44 -1.92,2.6 -1,1.12 -2.04,1.8 -1.04,0.72 -2,0.72 -1.28,0 -1.76,-1.24 -0.44,-1.2 -0.44,-3.16 0,-0.08 0.04,-1.24 0.04,-1.2 0.2,-4 0.08,-1.08 0.24,-1.48 0.16,-0.4 1.04,-0.4 0.68,0 0.84,0.28 0.2,0.24 0.2,1 0,1.32 -0.2,3.12 -0.16,1.76 -0.16,3.32 0,1.16 0.16,1.72 0.2,0.52 0.76,0.52 0.72,0 1.6,-0.84 0.92,-0.84 1.8,-2.12 0.92,-1.32 1.72,-2.84 0.84,-1.56 1.48,-2.96 0.04,-1.36 0.2,-2.2 0.16,-0.88 0.4,-1.4 0.24,-0.52 0.56,-0.72 0.32,-0.2 0.68,-0.2 0.76,0 1.08,0.56 0.36,0.52 0.36,0.96 0,0.4 -0.24,0.8 -0.2,0.36 -0.48,0.96 -0.24,0.56 -0.48,1.44 -0.2,0.84 -0.2,2.16 0,0.48 0.04,1.04 0.08,0.52 0.28,1 0.2,0.44 0.56,0.72 0.36,0.28 1,0.28 0.84,0 1.6,-0.64 0.76,-0.64 1.56,-2.32 z"
       style="font-style:normal;font-variant:normal;font-weight:normal;font-stretch:normal;font-family:'Dancing Script';-inkscape-font-specification:'Dancing Script';text-align:center;text-anchor:middle;stroke:#000000;stroke-width:0.50393701;stroke-miterlimit:4;stroke-dasharray:none;stroke-opacity:1"
       id="path5851"
       inkscape:connector-curvature="0" />
    <path
       d="m 157.80266,-221.70312 q 0,1.52 -0.92,2.88 -0.88,1.32 -2.32,2.36 -1.44,1.04 -3.2,1.72 -1.76,0.64 -3.48,0.8 -0.08,0.4 -0.12,0.76 -0.04,0.36 -0.04,0.68 0,0.6 0.12,1.2 0.16,0.6 0.52,1.08 0.36,0.48 0.96,0.76 0.64,0.32 1.56,0.32 1.28,0 2.56,-0.56 1.28,-0.56 2.44,-1.52 1.16,-1 2.16,-2.28 1.04,-1.28 1.8,-2.72 l 0.48,0.36 q -0.8,1.8 -1.96,3.28 -1.16,1.44 -2.52,2.48 -1.32,1 -2.84,1.56 -1.48,0.56 -2.96,0.56 -2.44,0 -3.68,-1.36 -1.2,-1.32 -1.2,-3.28 0,-1.2 0.44,-2.52 0.4,-1.32 1.12,-2.6 0.76,-1.28 1.72,-2.44 1,-1.16 2.12,-2.04 1.16,-0.88 2.36,-1.4 1.2,-0.52 2.4,-0.52 0.92,0 1.68,0.48 0.8,0.48 0.8,1.96 z m -2.6,-1.2 q -0.96,0 -2.04,0.76 -1.08,0.72 -2.08,1.92 -1,1.16 -1.8,2.64 -0.8,1.44 -1.2,2.88 1.08,-0.36 2.44,-1.04 1.36,-0.72 2.6,-1.68 1.24,-0.96 2.08,-2.12 0.84,-1.16 0.84,-2.44 0,-0.44 -0.16,-0.68 -0.16,-0.24 -0.68,-0.24 z"
       style="font-style:normal;font-variant:normal;font-weight:normal;font-stretch:normal;font-family:'Dancing Script';-inkscape-font-specification:'Dancing Script';text-align:center;text-anchor:middle;stroke:#000000;stroke-width:0.50393701;stroke-miterlimit:4;stroke-dasharray:none;stroke-opacity:1"
       id="path5853"
       inkscape:connector-curvature="0" />
    <path
       d="m 71.932656,-169.56991 q 1,0.2 1.92,0.32 0.92,0.08 1.96,0.08 2.08,0 5.16,-0.64 1.04,-2.84 2.32,-5.64 1.32,-2.84 2.64,-5.08 1.36,-2.28 2.56,-3.68 1.24,-1.4 2.12,-1.4 0.36,0 0.6,0.24 0.28,0.24 0.4,0.64 0.16,0.36 0.24,0.8 0.08,0.44 0.08,0.84 0,1.4 -0.72,3.32 -0.68,1.92 -1.88,3.92 -1.2,1.96 -2.8,3.72 -1.56,1.76 -3.32,2.84 -0.36,0.88 -0.72,2.16 -0.36,1.24 -0.64,2.56 -0.28,1.32 -0.44,2.56 -0.16,1.24 -0.16,2.04 0,0.44 0,0.76 0.04,0.32 0.08,0.6 0.72,-2.04 1.56,-3.92 0.84,-1.88 1.84,-3.32 1.04,-1.44 2.2,-2.28 1.2,-0.84 2.52,-0.84 0.84,0 1.4,0.32 0.6,0.32 0.96,0.84 0.36,0.48 0.52,1.16 0.16,0.64 0.16,1.28 0,0.92 -0.28,1.84 -0.24,0.88 -0.6,1.72 -0.32,0.84 -0.6,1.64 -0.24,0.8 -0.24,1.52 0,0.8 0.32,1.16 0.36,0.36 0.88,0.36 0.68,0 1.52,-0.52 0.84,-0.52 1.68,-1.36 0.84,-0.88 1.64,-2.04 0.8,-1.16 1.4,-2.48 l 0.52,0.48 q -0.64,1.48 -1.48,2.76 -0.84,1.24 -1.84,2.2 -1,0.92 -2.12,1.44 -1.08,0.56 -2.24,0.56 -1.4,0 -2.08,-0.72 -0.68,-0.72 -0.68,-1.8 0,-0.64 0.2,-1.36 0.2,-0.76 0.4,-1.56 0.24,-0.8 0.44,-1.6 0.2,-0.8 0.2,-1.52 0,-1.04 -0.44,-1.48 -0.44,-0.44 -1.08,-0.44 -1,0 -1.8,0.84 -0.8,0.8 -1.48,2.04 -0.64,1.2 -1.2,2.64 -0.56,1.44 -1.12,2.68 -0.52,1.2 -1.04,2 -0.52,0.84 -1.08,0.84 -0.36,0 -0.68,-0.36 -0.32,-0.36 -0.52,-0.96 -0.2,-0.56 -0.32,-1.28 -0.12,-0.76 -0.12,-1.56 0,-0.72 0.12,-1.64 -1.52,2.72 -3.76,4.4 -2.2,1.72 -4.64,1.72 -3.56,0 -3.56,-3.96 0,-0.88 0.2,-2.04 0.2,-1.2 0.52,-2.56 0.36,-1.36 0.8,-2.76 0.48,-1.44 1,-2.8 -0.4,-0.08 -0.76,-0.24 -0.36,-0.2 -0.68,-0.32 v -0.72 q 0.32,0.04 0.76,0.2 0.44,0.16 1,0.2 0.84,-2.16 1.76,-4.08 0.96,-1.96 1.84,-3.44 0.92,-1.48 1.72,-2.32 0.84,-0.88 1.44,-0.88 0.32,0 0.56,0.24 0.28,0.2 0.28,0.64 0,0.52 -0.52,1.56 -0.48,1 -1.28,2.36 -0.76,1.36 -1.72,3.04 -0.92,1.68 -1.8,3.52 z m 7.2,6.04 q 0.28,-1.32 0.56,-2.48 0.32,-1.2 0.84,-2.72 -1.4,0.32 -2.6,0.44 -1.2,0.12 -2.32,0.12 -1.12,0 -2.12,-0.12 -1,-0.12 -2,-0.32 -0.92,2.16 -1.56,4.36 -0.64,2.2 -0.64,4.36 0,1.76 0.52,2.48 0.52,0.72 1.72,0.72 2.08,0 4.08,-1.84 2,-1.84 3.52,-5 z m 11.28,-18.84 q -0.32,0 -1.12,0.88 -0.8,0.88 -1.8,2.44 -0.96,1.56 -2,3.68 -1,2.08 -1.76,4.52 1.36,-1.12 2.6,-2.72 1.28,-1.6 2.2,-3.2 0.92,-1.64 1.48,-3.08 0.56,-1.44 0.56,-2.2 0,-0.32 -0.16,-0.32 z"
       style="font-style:normal;font-variant:normal;font-weight:normal;font-stretch:normal;font-family:'Dancing Script';-inkscape-font-specification:'Dancing Script';text-align:center;text-anchor:middle;stroke:#000000;stroke-width:0.50393701;stroke-miterlimit:4;stroke-dasharray:none;stroke-opacity:1"
       id="path5855"
       inkscape:connector-curvature="0" />
    <path
       d="m 109.59953,-169.00991 q 0,1.52 -0.92,2.88 -0.88,1.32 -2.32,2.36 -1.44,1.04 -3.2,1.72 -1.76,0.64 -3.479999,0.8 -0.08,0.4 -0.12,0.76 -0.04,0.36 -0.04,0.68 0,0.6 0.12,1.2 0.16,0.6 0.519999,1.08 0.36,0.48 0.96,0.76 0.64,0.32 1.56,0.32 1.28,0 2.56,-0.56 1.28,-0.56 2.44,-1.52 1.16,-1 2.16,-2.28 1.04,-1.28 1.8,-2.72 l 0.48,0.36 q -0.8,1.8 -1.96,3.28 -1.16,1.44 -2.52,2.48 -1.32,1 -2.84,1.56 -1.48,0.56 -2.96,0.56 -2.439999,0 -3.679999,-1.36 -1.2,-1.32 -1.2,-3.28 0,-1.2 0.44,-2.52 0.4,-1.32 1.12,-2.6 0.76,-1.28 1.719999,-2.44 1,-1.16 2.12,-2.04 1.16,-0.88 2.36,-1.4 1.2,-0.52 2.4,-0.52 0.92,0 1.68,0.48 0.8,0.48 0.8,1.96 z m -2.6,-1.2 q -0.96,0 -2.04,0.76 -1.08,0.72 -2.08,1.92 -1,1.16 -1.8,2.64 -0.8,1.44 -1.199999,2.88 1.079999,-0.36 2.439999,-1.04 1.36,-0.72 2.6,-1.68 1.24,-0.96 2.08,-2.12 0.84,-1.16 0.84,-2.44 0,-0.44 -0.16,-0.68 -0.16,-0.24 -0.68,-0.24 z"
       style="font-style:normal;font-variant:normal;font-weight:normal;font-stretch:normal;font-family:'Dancing Script';-inkscape-font-specification:'Dancing Script';text-align:center;text-anchor:middle;stroke:#000000;stroke-width:0.50393701;stroke-miterlimit:4;stroke-dasharray:none;stroke-opacity:1"
       id="path5857"
       inkscape:connector-curvature="0" />
    <path
       d="m 133.06953,-169.64991 q -0.44,-0.6 -1.52,-0.6 -1.08,0 -2.12,0.56 -1,0.56 -1.92,1.48 -0.88,0.92 -1.64,2.08 -0.76,1.16 -1.32,2.36 -0.52,1.16 -0.84,2.24 -0.28,1.08 -0.28,1.84 0,0.92 0.36,1.44 0.4,0.48 1.08,0.48 0.8,0 1.88,-0.76 1.12,-0.8 2.28,-2.24 1.2,-1.44 2.36,-3.44 1.16,-2.04 2.12,-4.56 1.12,-2.88 2.32,-5.92 1.2,-3.04 2.36,-5.52 1.16,-2.48 2.2,-4.04 1.04,-1.6 1.88,-1.6 0.32,0 0.56,0.28 0.24,0.24 0.24,0.64 0,0.64 -0.68,2.2 -0.68,1.52 -1.72,3.68 -1,2.12 -2.2,4.64 -1.2,2.52 -2.24,5.12 -1,2.56 -1.68,5.04 -0.68,2.44 -0.68,4.4 0,1.16 0.12,1.72 0.12,0.52 0.8,0.52 0.6,0 1.4,-0.4 0.84,-0.44 1.68,-1.2 0.84,-0.76 1.64,-1.84 0.8,-1.12 1.44,-2.48 l 0.48,0.36 q -0.6,1.56 -1.52,2.88 -0.88,1.28 -1.92,2.24 -1.04,0.96 -2.2,1.48 -1.12,0.56 -2.12,0.56 -0.76,0 -1.28,-0.28 -0.48,-0.28 -0.8,-0.72 -0.28,-0.4 -0.44,-0.92 -0.12,-0.56 -0.12,-1.08 0,-0.68 0.2,-1.76 0.2,-1.12 0.56,-2.52 -0.96,1.6 -2.04,2.96 -1.04,1.36 -2.12,2.36 -1.04,1 -2.08,1.56 -1,0.56 -1.92,0.56 -0.52,0 -1.04,-0.2 -0.52,-0.2 -0.96,-0.6 -0.44,-0.4 -0.72,-1.04 -0.28,-0.64 -0.28,-1.52 0,-1.12 0.48,-2.44 0.44,-1.36 1.2,-2.72 0.8,-1.36 1.84,-2.64 1.04,-1.28 2.24,-2.24 1.2,-1 2.48,-1.6 1.28,-0.6 2.52,-0.6 1.76,0 1.76,1.24 0,0.16 -0.04,0.28 0,0.12 -0.04,0.28 z"
       style="font-style:normal;font-variant:normal;font-weight:normal;font-stretch:normal;font-family:'Dancing Script';-inkscape-font-specification:'Dancing Script';text-align:center;text-anchor:middle;stroke:#000000;stroke-width:0.50393701;stroke-miterlimit:4;stroke-dasharray:none;stroke-opacity:1"
       id="path5859"
       inkscape:connector-curvature="0" />
    <path
       d="m 151.45391,-165.52991 q 0.16,0.04 0.44,0.12 0.28,0.08 0.52,0.2 0.28,0.12 0.44,0.28 0.2,0.16 0.2,0.4 0,0.36 -0.36,1 -0.36,0.64 -0.8,1.44 -0.44,0.76 -0.8,1.6 -0.36,0.8 -0.36,1.52 0,0.6 0.32,1.2 0.32,0.56 1.04,0.56 1.08,0 2.84,-1.56 1.76,-1.56 3.56,-4.76 l 0.4,0.4 q -0.64,1.64 -1.56,3 -0.92,1.32 -2,2.28 -1.04,0.96 -2.16,1.48 -1.12,0.52 -2.2,0.52 -1.48,0 -2.2,-0.88 -0.68,-0.88 -0.68,-1.92 0,-0.48 0.12,-1.16 -1.76,2.32 -3.16,3.48 -1.4,1.16 -2.88,1.16 -1.28,0 -2.12,-0.84 -0.84,-0.8 -0.84,-2.48 0,-1.2 0.48,-2.56 0.44,-1.36 1.24,-2.72 0.8,-1.4 1.88,-2.64 1.08,-1.28 2.28,-2.24 1.24,-0.96 2.56,-1.52 1.32,-0.6 2.64,-0.6 1.56,0 2.6,0.84 1.04,0.8 1.04,2.16 0,1 -0.56,1.36 -0.52,0.36 -1.4,0.36 0.2,-0.72 0.2,-1.4 0,-0.92 -0.44,-1.56 -0.44,-0.68 -1.52,-0.68 -0.96,0 -1.92,0.56 -0.96,0.56 -1.88,1.52 -0.92,0.92 -1.72,2.12 -0.8,1.2 -1.44,2.48 -0.6,1.24 -0.96,2.48 -0.32,1.2 -0.32,2.16 0,1.56 1.08,1.56 0.92,0 2.08,-0.96 1.16,-0.96 2.32,-2.32 1.16,-1.36 2.2,-2.84 1.08,-1.52 1.8,-2.6 z"
       style="font-style:normal;font-variant:normal;font-weight:normal;font-stretch:normal;font-family:'Dancing Script';-inkscape-font-specification:'Dancing Script';text-align:center;text-anchor:middle;stroke:#000000;stroke-width:0.50393701;stroke-miterlimit:4;stroke-dasharray:none;stroke-opacity:1"
       id="path5861"
       inkscape:connector-curvature="0" />
    <path
       d="m 169.91391,-169.08991 q -4.4,0.48 -7.04,0.48 h -0.6 q -0.92,2.16 -1.56,4.36 -0.64,2.2 -0.64,4.36 0,1.76 0.52,2.48 0.52,0.72 1.72,0.72 2.08,0 4.08,-1.84 2,-1.84 3.52,-5 l 0.52,0.4 q -0.72,1.68 -1.76,3.16 -1,1.44 -2.2,2.52 -1.2,1.04 -2.56,1.64 -1.36,0.6 -2.76,0.6 -3.56,0 -3.56,-3.96 0,-1.8 0.64,-4.32 0.64,-2.56 1.68,-5.32 -0.4,-0.08 -0.76,-0.12 -0.36,-0.08 -0.68,-0.2 v -0.72 q 0.32,0.04 0.76,0.08 0.44,0.04 1,0.08 0.84,-2.16 1.8,-4.16 0.96,-2.04 1.88,-3.6 0.96,-1.6 1.8,-2.52 0.88,-0.96 1.48,-0.96 0.32,0 0.56,0.24 0.28,0.2 0.28,0.64 0,0.52 -0.52,1.56 -0.48,1 -1.28,2.36 -0.76,1.36 -1.72,3.04 -0.92,1.68 -1.8,3.52 h 1.48 q 1.32,0 2.76,-0.04 1.44,-0.04 2.96,-0.2 z"
       style="font-style:normal;font-variant:normal;font-weight:normal;font-stretch:normal;font-family:'Dancing Script';-inkscape-font-specification:'Dancing Script';text-align:center;text-anchor:middle;stroke:#000000;stroke-width:0.50393701;stroke-miterlimit:4;stroke-dasharray:none;stroke-opacity:1"
       id="path5863"
       inkscape:connector-curvature="0" />
    <path
       d="m 181.24016,-169.00991 q 0,1.52 -0.92,2.88 -0.88,1.32 -2.32,2.36 -1.44,1.04 -3.2,1.72 -1.76,0.64 -3.48,0.8 -0.08,0.4 -0.12,0.76 -0.04,0.36 -0.04,0.68 0,0.6 0.12,1.2 0.16,0.6 0.52,1.08 0.36,0.48 0.96,0.76 0.64,0.32 1.56,0.32 1.28,0 2.56,-0.56 1.28,-0.56 2.44,-1.52 1.16,-1 2.16,-2.28 1.04,-1.28 1.8,-2.72 l 0.48,0.36 q -0.8,1.8 -1.96,3.28 -1.16,1.44 -2.52,2.48 -1.32,1 -2.84,1.56 -1.48,0.56 -2.96,0.56 -2.44,0 -3.68,-1.36 -1.2,-1.32 -1.2,-3.28 0,-1.2 0.44,-2.52 0.4,-1.32 1.12,-2.6 0.76,-1.28 1.72,-2.44 1,-1.16 2.12,-2.04 1.16,-0.88 2.36,-1.4 1.2,-0.52 2.4,-0.52 0.92,0 1.68,0.48 0.8,0.48 0.8,1.96 z m -2.6,-1.2 q -0.96,0 -2.04,0.76 -1.08,0.72 -2.08,1.92 -1,1.16 -1.8,2.64 -0.8,1.44 -1.2,2.88 1.08,-0.36 2.44,-1.04 1.36,-0.72 2.6,-1.68 1.24,-0.96 2.08,-2.12 0.84,-1.16 0.84,-2.44 0,-0.44 -0.16,-0.68 -0.16,-0.24 -0.68,-0.24 z"
       style="font-style:normal;font-variant:normal;font-weight:normal;font-stretch:normal;font-family:'Dancing Script';-inkscape-font-specification:'Dancing Script';text-align:center;text-anchor:middle;stroke:#000000;stroke-width:0.50393701;stroke-miterlimit:4;stroke-dasharray:none;stroke-opacity:1"
       id="path5865"
       inkscape:connector-curvature="0" />
  </g>
</svg>
