<?xml version="1.0" encoding="UTF-8" standalone="no"?>
<!-- Created with Inkscape (http://www.inkscape.org/) -->

<svg
   xmlns:dc="http://purl.org/dc/elements/1.1/"
   xmlns:cc="http://creativecommons.org/ns#"
   xmlns:rdf="http://www.w3.org/1999/02/22-rdf-syntax-ns#"
   xmlns:svg="http://www.w3.org/2000/svg"
   xmlns="http://www.w3.org/2000/svg"
   xmlns:sodipodi="http://sodipodi.sourceforge.net/DTD/sodipodi-0.dtd"
   xmlns:inkscape="http://www.inkscape.org/namespaces/inkscape"
   width="256"
   height="40"
   viewBox="0 0 256 40"
   version="1.1"
   id="svg6533"
   sodipodi:docname="Text_SendResponse_Blue.svg"
   inkscape:version="0.92.3 (2405546, 2018-03-11)">
  <defs
     id="defs6527" />
  <sodipodi:namedview
     id="base"
     pagecolor="#ffffff"
     bordercolor="#666666"
     borderopacity="1.0"
     inkscape:pageopacity="0.0"
     inkscape:pageshadow="2"
     inkscape:zoom="2.8"
     inkscape:cx="104.71164"
     inkscape:cy="4.1786991"
     inkscape:document-units="px"
     inkscape:current-layer="layer1"
     showgrid="false"
     units="px"
     inkscape:window-width="1842"
     inkscape:window-height="1051"
     inkscape:window-x="-9"
     inkscape:window-y="-9"
     inkscape:window-maximized="1"
     inkscape:snap-page="true" />
  <metadata
     id="metadata6530">
    <rdf:RDF>
      <cc:Work
         rdf:about="">
        <dc:format>image/svg+xml</dc:format>
        <dc:type
           rdf:resource="http://purl.org/dc/dcmitype/StillImage" />
        <dc:title />
      </cc:Work>
    </rdf:RDF>
  </metadata>
  <g
     inkscape:label="Layer 1"
     inkscape:groupmode="layer"
     id="layer1"
     transform="translate(0,-1082.5197)">
    <rect
       style="opacity:1;fill:#ffffff;fill-opacity:1;stroke:none;stroke-width:0.18751344;stroke-linecap:round;stroke-linejoin:round;stroke-miterlimit:4;stroke-dasharray:none;stroke-opacity:1"
       id="rect7086"
       width="146.65475"
       height="20.599701"
       x="6.8035712"
       y="61.70982" />
    <g
       aria-label="SEND RESPONSE"
       transform="matrix(0.26458333,0,0,0.26458333,49.827642,1025.2048)"
       style="font-style:normal;font-weight:normal;font-size:125.98425293px;line-height:1.25;font-family:sans-serif;letter-spacing:0px;word-spacing:0px;fill:#18394c;fill-opacity:1;stroke:none"
       id="flowRoot7078">
      <path
         d="m 80.826141,253.12069 1.414863,1.78396 v 0.7997 q 0,0.86123 -2.214567,2.39912 h -3.014272 q -5.474902,0 -7.38189,3.99852 -1.906988,5.16733 -1.906988,11.56496 0,3.8755 3.383366,12.79528 1.107284,2.21457 13.041339,13.04134 6.459153,9.22736 6.459153,18.14714 0,7.0128 -3.014271,13.71802 -1.59941,3.62942 -8.120079,6.02854 -2.46063,1.29183 -4.183071,1.29183 -2.337599,0 -3.260335,-1.9685 v -0.86122 q 0,-1.78396 3.813977,-2.15306 7.012795,-2.64517 7.012795,-5.4749 2.214567,-4.42913 2.214567,-11.25738 0,-8.91978 -7.997047,-17.40896 -6.643701,-5.04429 -9.965552,-9.781 -2.399114,-2.58366 -4.675197,-13.22589 0,-1.29183 -0.246062,-3.26033 0,-8.1816 3.075787,-14.57923 3.875492,-5.59794 15.563484,-5.59794 z"
         style="font-style:normal;font-variant:normal;font-weight:normal;font-stretch:normal;font-size:125.98425293px;font-family:'Moon Flower Bold';-inkscape-font-specification:'Moon Flower Bold, ';fill:#18394c;fill-opacity:1"
         id="path7295"
         inkscape:connector-curvature="0" />
      <path
         d="m 112.19917,251.33674 0.55364,0.30758 q -1.72244,0 -1.72244,-0.3691 10.94981,0.98425 10.94981,3.07579 v 0.43061 q -0.79971,2.27608 -2.89124,2.27608 l -7.13583,-0.73819 q -0.49213,0 -3.1373,0.18455 l 0.12303,1.72244 q 0,4.06004 1.1688,31.31152 h 0.24606 q 1.78396,0 3.07579,-0.24607 5.78248,0.49213 9.10433,0.49213 l 1.41486,1.90699 v 1.04577 q 0,1.9685 -2.52214,1.9685 -2.21457,0 -7.13583,-0.49213 -3.26034,0.24607 -4.12156,0.24607 v -0.24607 q 0,17.34744 1.66093,38.87796 0.30758,0 0.30758,0.18454 7.68947,-0.43061 9.84252,-0.43061 1.90699,0.61516 2.70669,2.21457 v 0.49213 q 0,0.98425 -1.9685,2.21456 -9.78101,0.24607 -11.74951,0.49213 -4.61368,0 -4.61368,-4.36762 -1.72244,-23.49901 -1.72244,-39.18553 v -7.87402 q -1.23032,-21.65354 -1.23032,-29.15846 -0.73819,-3.69095 -0.73819,-4.61368 l 1.90699,-1.41486 h 3.32185 q 1.35335,0 4.3061,-0.30758 z"
         style="font-style:normal;font-variant:normal;font-weight:normal;font-stretch:normal;font-size:125.98425293px;font-family:'Moon Flower Bold';-inkscape-font-specification:'Moon Flower Bold, ';fill:#18394c;fill-opacity:1"
         id="path7297"
         inkscape:connector-curvature="0" />
      <path
         d="m 138.58943,251.27522 q 2.58366,0 12.67224,34.57185 1.41487,7.87402 11.56496,38.81644 h -2.03002 v -0.86122 q -1.41486,-29.89666 -1.41486,-33.5876 0,-1.10728 0.30758,-7.50492 -0.0615,-0.67667 -0.0615,-2.95276 0.49212,-4.85974 0.49212,-7.68947 v -17.53198 q 0.30758,-2.58367 3.32185,-2.58367 l 2.58366,1.35335 q -0.73819,14.57923 -0.73819,21.59203 v 6.95128 q 0,21.40748 1.35335,55.91781 l -2.46063,1.23032 q -3.07579,0 -19.37746,-55.48721 l -6.45915,-22.02263 2.27608,3.69094 0.18455,-3.56791 q 0.43061,5.1058 0.43061,8.12008 l 0.0615,2.09153 q -0.49212,13.6565 -0.49212,19.1314 0,27.49754 2.21456,46.62894 h -3.07578 q -2.89124,0 -2.89124,-2.58367 -1.41487,-21.46899 -1.41487,-38.44734 v -42.69193 q 0.43061,-2.58366 2.95276,-2.58366 z"
         style="font-style:normal;font-variant:normal;font-weight:normal;font-stretch:normal;font-size:125.98425293px;font-family:'Moon Flower Bold';-inkscape-font-specification:'Moon Flower Bold, ';fill:#18394c;fill-opacity:1"
         id="path7299"
         inkscape:connector-curvature="0" />
      <path
         d="m 177.65193,248.13792 h 2.09154 q 10.64222,3.5064 16.17864,13.34892 7.99705,16.24015 7.99705,33.40305 v 1.23031 q 0,24.6063 -18.14715,40.41585 -2.82972,0.92273 -3.81398,0.92273 -2.09153,0 -2.58366,-5.35187 l 0.24607,-0.49212 q -0.67668,-5.41339 -0.98426,-17.03986 h -0.43061 l 0.49213,0.98425 v -0.49213 q 0,-9.71949 0.24606,-17.71653 z m 5.844,6.76673 v -1.59941 q 0.24606,27.7436 0.98425,43.79921 -0.24606,6.58219 -0.24606,13.53347 v 2.95275 q 0,9.28888 0.67667,16.7938 3.1373,-2.70669 7.87402,-10.39616 5.59793,-12.30315 5.59793,-23.12992 v -2.46063 q 0,-15.19439 -7.50492,-31.00394 -5.16732,-7.75098 -7.38189,-8.48917 z"
         style="font-style:normal;font-variant:normal;font-weight:normal;font-stretch:normal;font-size:125.98425293px;font-family:'Moon Flower Bold';-inkscape-font-specification:'Moon Flower Bold, ';fill:#18394c;fill-opacity:1"
         id="path7301"
         inkscape:connector-curvature="0" />
      <path
         d="m 248.51806,245.43122 h 1.96851 q 0.73819,0.98426 4.06004,1.5379 5.35187,2.15305 8.55069,7.62795 4.3061,10.39616 4.3061,15.44045 v 2.46063 q 0,16.60926 -7.93553,22.82235 9.35039,2.21456 11.13435,26.08267 v 9.41191 q 0,2.09154 0.30758,6.70522 l -1.78396,1.1688 h -1.90699 l -1.84547,-1.41486 q -0.30758,-5.4749 -0.30758,-7.93553 v -8.85827 q 0,-8.9813 -5.41338,-18.27018 -3.32186,-3.1373 -5.59794,-3.1373 h 1.35335 q 0.18455,4.06004 0.18455,6.6437 v 9.35039 q 0.49212,12.18012 0.49212,13.77953 v 0.73819 q -0.98425,1.9685 -3.01427,1.9685 -1.1688,0 -2.82972,-1.90699 l 0.30757,-2.09153 q -0.49212,-10.33465 -0.49212,-13.71801 v -13.53347 q -0.61516,0 -1.47638,-2.03002 v -1.1688 q 0.98425,-1.9685 1.1688,-1.9685 -1.1688,-32.48032 -3.19882,-48.22835 z m 4.24459,5.90552 q 1.35335,16.67076 2.46063,40.72342 6.6437,-4.49065 6.6437,-18.33169 v -3.44488 q 0,-6.21309 -5.16732,-15.80955 -3.44488,-3.1373 -4.85974,-3.1373 z"
         style="font-style:normal;font-variant:normal;font-weight:normal;font-stretch:normal;font-size:125.98425293px;font-family:'Moon Flower Bold';-inkscape-font-specification:'Moon Flower Bold, ';fill:#18394c;fill-opacity:1"
         id="path7303"
         inkscape:connector-curvature="0" />
      <path
         d="m 295.27004,251.33674 0.55364,0.30758 q -1.72244,0 -1.72244,-0.3691 10.9498,0.98425 10.9498,3.07579 v 0.43061 q -0.7997,2.27608 -2.89124,2.27608 l -7.13582,-0.73819 q -0.49213,0 -3.13731,0.18455 l 0.12303,1.72244 q 0,4.06004 1.1688,31.31152 h 0.24607 q 1.78395,0 3.07578,-0.24607 5.78248,0.49213 9.10433,0.49213 l 1.41487,1.90699 v 1.04577 q 0,1.9685 -2.52215,1.9685 -2.21457,0 -7.13583,-0.49213 -3.26033,0.24607 -4.12155,0.24607 v -0.24607 q 0,17.34744 1.66092,38.87796 0.30758,0 0.30758,0.18454 7.68947,-0.43061 9.84252,-0.43061 1.90699,0.61516 2.7067,2.21457 v 0.49213 q 0,0.98425 -1.96851,2.21456 -9.781,0.24607 -11.74951,0.49213 -4.61368,0 -4.61368,-4.36762 -1.72244,-23.49901 -1.72244,-39.18553 v -7.87402 q -1.23031,-21.65354 -1.23031,-29.15846 -0.73819,-3.69095 -0.73819,-4.61368 l 1.90699,-1.41486 h 3.32185 q 1.35334,0 4.3061,-0.30758 z"
         style="font-style:normal;font-variant:normal;font-weight:normal;font-stretch:normal;font-size:125.98425293px;font-family:'Moon Flower Bold';-inkscape-font-specification:'Moon Flower Bold, ';fill:#18394c;fill-opacity:1"
         id="path7305"
         inkscape:connector-curvature="0" />
      <path
         d="m 334.76315,253.12069 1.41487,1.78396 v 0.7997 q 0,0.86123 -2.21457,2.39912 h -3.01427 q -5.47491,0 -7.38189,3.99852 -1.90699,5.16733 -1.90699,11.56496 0,3.8755 3.38336,12.79528 1.10729,2.21457 13.04134,13.04134 6.45916,9.22736 6.45916,18.14714 0,7.0128 -3.01427,13.71802 -1.59941,3.62942 -8.12008,6.02854 -2.46063,1.29183 -4.18307,1.29183 -2.3376,0 -3.26034,-1.9685 v -0.86122 q 0,-1.78396 3.81398,-2.15306 7.01279,-2.64517 7.01279,-5.4749 2.21457,-4.42913 2.21457,-11.25738 0,-8.91978 -7.99705,-17.40896 -6.6437,-5.04429 -9.96555,-9.781 -2.39911,-2.58366 -4.6752,-13.22589 0,-1.29183 -0.24606,-3.26033 0,-8.1816 3.07579,-14.57923 3.87549,-5.59794 15.56348,-5.59794 z"
         style="font-style:normal;font-variant:normal;font-weight:normal;font-stretch:normal;font-size:125.98425293px;font-family:'Moon Flower Bold';-inkscape-font-specification:'Moon Flower Bold, ';fill:#18394c;fill-opacity:1"
         id="path7307"
         inkscape:connector-curvature="0" />
      <path
         d="m 359.06188,249.86036 q 13.10285,0 17.71653,11.50344 0.79971,2.52215 1.04577,5.90552 0,15.56348 -5.4749,34.14124 -2.82973,4.85974 -8.12008,7.50492 -1.90699,0.0615 -1.90699,-0.49213 v 0.24606 q 0,3.19882 0.24607,5.41339 -0.24607,2.21457 -0.24607,2.46063 0.73819,13.90256 0.73819,15.00984 0.73819,0.12303 0.73819,2.95276 v 0.92273 q -0.98425,2.58367 -2.64518,3.26034 h -0.86122 q -1.29183,0 -2.52214,-1.90699 v -2.03002 q 0,-1.47638 0,-1.47638 -0.18455,-1.04576 -0.49213,-5.1058 0,-1.5379 0.18455,-1.5379 l -0.67668,-9.10433 q 0.24607,-2.52214 0.24607,-3.69094 -0.24607,-4.49065 -0.24607,-4.98278 -0.98425,-0.49212 -0.98425,-2.03002 0.55364,-2.09153 0.86122,-2.09153 -0.36909,-5.22884 -0.36909,-6.6437 l 1.1688,-43.55315 q -0.43061,0 -0.43061,-1.72245 v -0.73818 q 0,-0.98426 2.03002,-2.21457 z m 3.93701,5.22884 -1.1688,42.99951 q 0.24606,5.16732 0.24606,6.45915 l -0.61516,-0.30758 q 1.66093,0 4.12156,-2.58366 3.87549,-2.46063 6.45915,-29.46604 0.24606,-4.42914 0.24606,-5.844 0,-5.844 -6.6437,-10.51919 -1.78395,-0.61516 -2.64517,-0.73819 z"
         style="font-style:normal;font-variant:normal;font-weight:normal;font-stretch:normal;font-size:125.98425293px;font-family:'Moon Flower Bold';-inkscape-font-specification:'Moon Flower Bold, ';fill:#18394c;fill-opacity:1"
         id="path7309"
         inkscape:connector-curvature="0" />
      <path
         d="m 400.9541,251.82886 q 8.36615,0 12.61073,34.32579 0.24607,3.26034 0.24607,8.24311 v 0.98425 q 0,0.98425 -0.18455,1.96851 0.18455,0.24606 0.18455,1.9685 v 0.24606 q 0,1.72244 -0.18455,1.96851 0.18455,0.98425 0.18455,1.23031 0,26.45177 -7.75099,32.97244 -3.1373,1.23032 -4.36762,1.23032 h -1.9685 Q 389.69672,334.56754 387.35912,312.914 l -0.73818,-10.08858 q 0,-34.94095 8.91978,-48.78199 2.95275,-2.21457 5.41338,-2.21457 z m -8.79675,50.19685 q 0,13.71802 3.62943,23.99115 3.01427,6.02854 4.6752,6.02854 h 0.24606 q 3.69095,0 4.92126,-5.96703 2.64518,-6.27461 2.64518,-27.00541 v -4.92126 q 0,-14.33317 -5.10581,-32.91093 -1.66092,-3.69094 -2.46063,-4.24458 -1.35334,0.49212 -1.72244,1.59941 -6.82825,14.4562 -6.82825,43.43011 z"
         style="font-style:normal;font-variant:normal;font-weight:normal;font-stretch:normal;font-size:125.98425293px;font-family:'Moon Flower Bold';-inkscape-font-specification:'Moon Flower Bold, ';fill:#18394c;fill-opacity:1"
         id="path7311"
         inkscape:connector-curvature="0" />
      <path
         d="m 429.68194,251.27522 q 2.58366,0 12.67224,34.57185 1.41486,7.87402 11.56496,38.81644 h -2.03002 v -0.86122 q -1.41486,-29.89666 -1.41486,-33.5876 0,-1.10728 0.30758,-7.50492 -0.0615,-0.67667 -0.0615,-2.95276 0.49213,-4.85974 0.49213,-7.68947 v -17.53198 q 0.30758,-2.58367 3.32185,-2.58367 l 2.58366,1.35335 q -0.73819,14.57923 -0.73819,21.59203 v 6.95128 q 0,21.40748 1.35335,55.91781 l -2.46063,1.23032 q -3.07579,0 -19.37746,-55.48721 l -6.45916,-22.02263 2.27609,3.69094 0.18454,-3.56791 q 0.43061,5.1058 0.43061,8.12008 l 0.0615,2.09153 q -0.49213,13.6565 -0.49213,19.1314 0,27.49754 2.21457,46.62894 h -3.07579 q -2.89124,0 -2.89124,-2.58367 -1.41486,-21.46899 -1.41486,-38.44734 v -42.69193 q 0.43061,-2.58366 2.95276,-2.58366 z"
         style="font-style:normal;font-variant:normal;font-weight:normal;font-stretch:normal;font-size:125.98425293px;font-family:'Moon Flower Bold';-inkscape-font-specification:'Moon Flower Bold, ';fill:#18394c;fill-opacity:1"
         id="path7313"
         inkscape:connector-curvature="0" />
      <path
         d="m 484.86157,253.12069 1.41486,1.78396 v 0.7997 q 0,0.86123 -2.21456,2.39912 h -3.01427 q -5.47491,0 -7.38189,3.99852 -1.90699,5.16733 -1.90699,11.56496 0,3.8755 3.38336,12.79528 1.10729,2.21457 13.04134,13.04134 6.45916,9.22736 6.45916,18.14714 0,7.0128 -3.01428,13.71802 -1.5994,3.62942 -8.12007,6.02854 -2.46063,1.29183 -4.18308,1.29183 -2.33759,0 -3.26033,-1.9685 v -0.86122 q 0,-1.78396 3.81398,-2.15306 7.01279,-2.64517 7.01279,-5.4749 2.21457,-4.42913 2.21457,-11.25738 0,-8.91978 -7.99705,-17.40896 -6.6437,-5.04429 -9.96555,-9.781 -2.39911,-2.58366 -4.6752,-13.22589 0,-1.29183 -0.24606,-3.26033 0,-8.1816 3.07579,-14.57923 3.87549,-5.59794 15.56348,-5.59794 z"
         style="font-style:normal;font-variant:normal;font-weight:normal;font-stretch:normal;font-size:125.98425293px;font-family:'Moon Flower Bold';-inkscape-font-specification:'Moon Flower Bold, ';fill:#18394c;fill-opacity:1"
         id="path7315"
         inkscape:connector-curvature="0" />
      <path
         d="m 516.23461,251.33674 0.55364,0.30758 q -1.72244,0 -1.72244,-0.3691 10.9498,0.98425 10.9498,3.07579 v 0.43061 q -0.7997,2.27608 -2.89124,2.27608 l -7.13583,-0.73819 q -0.49212,0 -3.1373,0.18455 l 0.12303,1.72244 q 0,4.06004 1.1688,31.31152 h 0.24607 q 1.78395,0 3.07578,-0.24607 5.78248,0.49213 9.10433,0.49213 l 1.41487,1.90699 v 1.04577 q 0,1.9685 -2.52215,1.9685 -2.21457,0 -7.13583,-0.49213 -3.26033,0.24607 -4.12155,0.24607 v -0.24607 q 0,17.34744 1.66092,38.87796 0.30758,0 0.30758,0.18454 7.68947,-0.43061 9.84252,-0.43061 1.90699,0.61516 2.70669,2.21457 v 0.49213 q 0,0.98425 -1.9685,2.21456 -9.781,0.24607 -11.74951,0.49213 -4.61368,0 -4.61368,-4.36762 -1.72244,-23.49901 -1.72244,-39.18553 v -7.87402 q -1.23031,-21.65354 -1.23031,-29.15846 -0.73819,-3.69095 -0.73819,-4.61368 l 1.90698,-1.41486 h 3.32186 q 1.35334,0 4.3061,-0.30758 z"
         style="font-style:normal;font-variant:normal;font-weight:normal;font-stretch:normal;font-size:125.98425293px;font-family:'Moon Flower Bold';-inkscape-font-specification:'Moon Flower Bold, ';fill:#18394c;fill-opacity:1"
         id="path7317"
         inkscape:connector-curvature="0" />
    </g>
  </g>
</svg>
