<?xml version="1.0" encoding="UTF-8" standalone="no"?>
<!-- Created with Inkscape (http://www.inkscape.org/) -->

<svg
   xmlns:dc="http://purl.org/dc/elements/1.1/"
   xmlns:cc="http://creativecommons.org/ns#"
   xmlns:rdf="http://www.w3.org/1999/02/22-rdf-syntax-ns#"
   xmlns:svg="http://www.w3.org/2000/svg"
   xmlns="http://www.w3.org/2000/svg"
   xmlns:sodipodi="http://sodipodi.sourceforge.net/DTD/sodipodi-0.dtd"
   xmlns:inkscape="http://www.inkscape.org/namespaces/inkscape"
   width="320"
   height="200"
   viewBox="0 0 320 200"
   version="1.1"
   id="svg6533"
   sodipodi:docname="Text_AttendingNo.svg"
   inkscape:version="0.92.3 (2405546, 2018-03-11)">
  <defs
     id="defs6527" />
  <sodipodi:namedview
     id="base"
     pagecolor="#ffffff"
     bordercolor="#666666"
     borderopacity="1.0"
     inkscape:pageopacity="0.0"
     inkscape:pageshadow="2"
     inkscape:zoom="1.4"
     inkscape:cx="77.732388"
     inkscape:cy="89.801169"
     inkscape:document-units="px"
     inkscape:current-layer="layer1"
     showgrid="false"
     units="px"
     inkscape:window-width="1812"
     inkscape:window-height="1051"
     inkscape:window-x="-9"
     inkscape:window-y="-9"
     inkscape:window-maximized="1"
     inkscape:snap-page="true" />
  <metadata
     id="metadata6530">
    <rdf:RDF>
      <cc:Work
         rdf:about="">
        <dc:format>image/svg+xml</dc:format>
        <dc:type
           rdf:resource="http://purl.org/dc/dcmitype/StillImage" />
        <dc:title></dc:title>
      </cc:Work>
    </rdf:RDF>
  </metadata>
  <g
     inkscape:label="Layer 1"
     inkscape:groupmode="layer"
     id="layer1"
     transform="translate(0,-922.5197)">
    <g
       aria-label="we've received your r.s.v.p.
sorry you can't make it :(
you'll be redirected in 5 seconds
(or click here to go now)"
       transform="translate(-3.4830735,1081.0512)"
       style="font-style:normal;font-weight:normal;font-size:40px;line-height:1.25;font-family:sans-serif;letter-spacing:0px;word-spacing:0px;fill:#18394c;fill-opacity:1;stroke:none"
       id="flowRoot2763">
      <path
         d="m 46.889653,-145.96642 h 0.341797 q 0.374349,0 0.602213,0.472 -0.716146,14.22526 -0.911458,19.61263 -0.260417,1.46485 -0.86263,1.46485 h -0.130209 q -0.667317,0 -1.627604,-3.51563 -1.708984,-5.51758 -1.708984,-5.79427 H 43.3252 q -0.504557,7.24284 -0.504557,9.52148 l -0.45573,0.30925 h -0.341796 q -0.634766,0 -0.927735,-2.50651 -1.432291,-6.72201 -2.815755,-17.15495 -0.03255,0 -0.309245,-1.20442 0,-0.29297 0.53711,-0.61849 h 0.390625 q 0.667317,0 1.123047,4.0039 1.171874,7.69857 1.562499,9.81445 l 0.602214,3.23894 h -0.683594 q 0.520834,-8.31706 0.78125,-9.00065 l 0.602214,-0.11394 q 0.748698,0 1.041666,2.83203 0.309245,1.54623 1.676433,6.02214 l 0.472005,1.6276 -0.553386,0.2767 q 0.390625,-11.50716 0.927735,-18.99414 z"
         style="font-style:normal;font-variant:normal;font-weight:normal;font-stretch:normal;font-size:33.33333206px;font-family:'Moon Flower Bold';-inkscape-font-specification:'Moon Flower Bold, ';text-align:center;text-anchor:middle;fill:#18394c;fill-opacity:1"
         id="path2796" />
      <path
         d="m 54.50684,-147.00809 0.146485,0.0814 q -0.45573,0 -0.45573,-0.0976 2.897136,0.26041 2.897136,0.8138 v 0.11393 q -0.211589,0.60221 -0.764974,0.60221 l -1.888021,-0.19531 q -0.130208,0 -0.830078,0.0488 l 0.03255,0.45573 q 0,1.07422 0.309245,8.2845 h 0.0651 q 0.472005,0 0.813802,-0.0651 1.529948,0.13021 2.408854,0.13021 l 0.374349,0.50455 v 0.2767 q 0,0.52083 -0.667318,0.52083 -0.585937,0 -1.88802,-0.13021 -0.862631,0.0651 -1.090495,0.0651 v -0.0651 q 0,4.58985 0.439453,10.28646 0.08138,0 0.08138,0.0488 2.034505,-0.11393 2.604167,-0.11393 0.504557,0.16276 0.716146,0.58593 v 0.13021 q 0,0.26042 -0.520834,0.58594 -2.58789,0.0651 -3.108724,0.13021 -1.220703,0 -1.220703,-1.1556 -0.455729,-6.21745 -0.455729,-10.36784 v -2.08333 q -0.325521,-5.72917 -0.325521,-7.71485 -0.195312,-0.97656 -0.195312,-1.2207 l 0.504557,-0.37435 h 0.878906 q 0.358073,0 1.139323,-0.0814 z"
         style="font-style:normal;font-variant:normal;font-weight:normal;font-stretch:normal;font-size:33.33333206px;font-family:'Moon Flower Bold';-inkscape-font-specification:'Moon Flower Bold, ';text-align:center;text-anchor:middle;fill:#18394c;fill-opacity:1"
         id="path2798" />
      <path
         d="m 62.058923,-146.7965 h 0.325521 q 0.358072,0 0.683593,0.53711 -0.732422,3.30404 -1.318359,4.49219 l -0.358073,0.17903 h -0.244141 q -0.341796,0 -0.683593,-0.55338 0.618489,-2.05078 1.155599,-4.37826 z"
         style="font-style:normal;font-variant:normal;font-weight:normal;font-stretch:normal;font-size:33.33333206px;font-family:'Moon Flower Bold';-inkscape-font-specification:'Moon Flower Bold, ';text-align:center;text-anchor:middle;fill:#18394c;fill-opacity:1"
         id="path2800" />
      <path
         d="m 72.133792,-146.94298 h 0.260417 q 0.406901,0 0.602214,0.55338 l -1.953125,17.49675 q -0.260417,4.93164 -0.683594,4.93164 l -0.130208,0.0651 h -0.309245 q -0.683594,0 -1.123047,-4.00391 -1.692708,-10.75846 -1.692708,-17.1875 l -0.195313,-0.84635 q 0,-0.29297 0.53711,-0.61849 h 0.260416 q 0.992839,0 0.992839,5.38737 0.830078,9.29362 1.513672,13.29753 h -0.69987 q 0,-1.02539 1.822916,-16.55274 0.146485,-2.52278 0.797526,-2.52278 z"
         style="font-style:normal;font-variant:normal;font-weight:normal;font-stretch:normal;font-size:33.33333206px;font-family:'Moon Flower Bold';-inkscape-font-specification:'Moon Flower Bold, ';text-align:center;text-anchor:middle;fill:#18394c;fill-opacity:1"
         id="path2802" />
      <path
         d="m 79.832359,-147.00809 0.146484,0.0814 q -0.455729,0 -0.455729,-0.0976 2.897135,0.26041 2.897135,0.8138 v 0.11393 q -0.211588,0.60221 -0.764974,0.60221 l -1.88802,-0.19531 q -0.130209,0 -0.830078,0.0488 l 0.03255,0.45573 q 0,1.07422 0.309244,8.2845 h 0.06511 q 0.472005,0 0.813802,-0.0651 1.529948,0.13021 2.408854,0.13021 l 0.374349,0.50455 v 0.2767 q 0,0.52083 -0.667318,0.52083 -0.585937,0 -1.888021,-0.13021 -0.86263,0.0651 -1.090494,0.0651 v -0.0651 q 0,4.58985 0.439453,10.28646 0.08138,0 0.08138,0.0488 2.034505,-0.11393 2.604166,-0.11393 0.504558,0.16276 0.716146,0.58593 v 0.13021 q 0,0.26042 -0.520833,0.58594 -2.587891,0.0651 -3.108724,0.13021 -1.220703,0 -1.220703,-1.1556 -0.455729,-6.21745 -0.455729,-10.36784 v -2.08333 q -0.325521,-5.72917 -0.325521,-7.71485 -0.195312,-0.97656 -0.195312,-1.2207 l 0.504557,-0.37435 h 0.878906 q 0.358073,0 1.139323,-0.0814 z"
         style="font-style:normal;font-variant:normal;font-weight:normal;font-stretch:normal;font-size:33.33333206px;font-family:'Moon Flower Bold';-inkscape-font-specification:'Moon Flower Bold, ';text-align:center;text-anchor:middle;fill:#18394c;fill-opacity:1"
         id="path2804" />
      <path
         d="m 94.806319,-148.57059 h 0.520833 q 0.195312,0.26042 1.074219,0.4069 1.416015,0.56966 2.262369,2.01823 1.139323,2.75065 1.139323,4.08529 v 0.65104 q 0,4.39453 -2.099609,6.03841 2.473956,0.58594 2.945966,6.90104 v 2.49024 q 0,0.55338 0.0814,1.77408 l -0.47201,0.30925 h -0.504555 l -0.488281,-0.37435 q -0.08138,-1.44857 -0.08138,-2.09961 v -2.34375 q 0,-2.3763 -1.432292,-4.83398 -0.878906,-0.83008 -1.48112,-0.83008 h 0.358073 q 0.04883,1.07422 0.04883,1.75781 v 2.47396 q 0.130209,3.22266 0.130209,3.64583 v 0.19532 q -0.260417,0.52083 -0.797526,0.52083 -0.309245,0 -0.748698,-0.50456 l 0.08138,-0.55338 q -0.130208,-2.73438 -0.130208,-3.62956 v -3.58073 q -0.162761,0 -0.390625,-0.53711 v -0.30924 q 0.260416,-0.52084 0.309244,-0.52084 -0.309244,-8.59375 -0.846354,-12.76041 z m 1.123046,1.5625 q 0.358073,4.41081 0.651042,10.77474 1.757813,-1.18815 1.757813,-4.85026 v -0.91146 q 0,-1.64388 -1.367188,-4.18294 -0.911458,-0.83008 -1.285807,-0.83008 z"
         style="font-style:normal;font-variant:normal;font-weight:normal;font-stretch:normal;font-size:33.33333206px;font-family:'Moon Flower Bold';-inkscape-font-specification:'Moon Flower Bold, ';text-align:center;text-anchor:middle;fill:#18394c;fill-opacity:1"
         id="path2806" />
      <path
         d="m 107.17611,-147.00809 0.14648,0.0814 q -0.45573,0 -0.45573,-0.0976 2.89714,0.26041 2.89714,0.8138 v 0.11393 q -0.21159,0.60221 -0.76497,0.60221 l -1.88803,-0.19531 q -0.1302,0 -0.83007,0.0488 l 0.0326,0.45573 q 0,1.07422 0.30924,8.2845 h 0.0651 q 0.472,0 0.8138,-0.0651 1.52995,0.13021 2.40885,0.13021 l 0.37435,0.50455 v 0.2767 q 0,0.52083 -0.66731,0.52083 -0.58594,0 -1.88803,-0.13021 -0.86263,0.0651 -1.09049,0.0651 v -0.0651 q 0,4.58985 0.43945,10.28646 0.0814,0 0.0814,0.0488 2.03451,-0.11393 2.60417,-0.11393 0.50456,0.16276 0.71615,0.58593 v 0.13021 q 0,0.26042 -0.52084,0.58594 -2.58789,0.0651 -3.10872,0.13021 -1.22071,0 -1.22071,-1.1556 -0.45572,-6.21745 -0.45572,-10.36784 v -2.08333 q -0.32552,-5.72917 -0.32552,-7.71485 -0.19532,-0.97656 -0.19532,-1.2207 l 0.50456,-0.37435 h 0.87891 q 0.35807,0 1.13932,-0.0814 z"
         style="font-style:normal;font-variant:normal;font-weight:normal;font-stretch:normal;font-size:33.33333206px;font-family:'Moon Flower Bold';-inkscape-font-specification:'Moon Flower Bold, ';text-align:center;text-anchor:middle;fill:#18394c;fill-opacity:1"
         id="path2808" />
      <path
         d="m 117.26725,-146.61746 h 0.50456 q 1.52995,0.27669 1.52995,1.17187 0,0.26042 -0.53711,0.58594 h -0.60221 q -0.42318,-0.52083 -0.61849,-0.52083 -1.30209,0.45572 -1.30209,0.78125 -1.30208,2.47395 -1.30208,6.70572 v 1.10678 q 0,2.88085 0.78125,6.91731 0.45573,2.91341 1.2207,3.88998 0.86263,0.74869 1.44857,0.78125 0.71615,0 1.83919,-1.4323 h 0.42318 q 0.37435,0 0.60221,0.45573 v 0.19532 q 0,0.74869 -1.61132,1.77408 -0.73243,0.30925 -1.33464,0.30925 h -0.0977 q -1.12305,-0.13021 -2.27865,-1.13932 -1.25326,-0.99284 -2.13216,-7.60091 -0.32552,-1.41602 -0.32552,-4.67123 v -0.39062 q 0.11393,-6.73828 2.31119,-8.39844 1.0905,-0.52083 1.48112,-0.52083 z"
         style="font-style:normal;font-variant:normal;font-weight:normal;font-stretch:normal;font-size:33.33333206px;font-family:'Moon Flower Bold';-inkscape-font-specification:'Moon Flower Bold, ';text-align:center;text-anchor:middle;fill:#18394c;fill-opacity:1"
         id="path2810" />
      <path
         d="m 126.90267,-147.00809 0.14649,0.0814 q -0.45573,0 -0.45573,-0.0976 2.89713,0.26041 2.89713,0.8138 v 0.11393 q -0.21159,0.60221 -0.76497,0.60221 l -1.88802,-0.19531 q -0.13021,0 -0.83008,0.0488 l 0.0326,0.45573 q 0,1.07422 0.30925,8.2845 h 0.0651 q 0.47201,0 0.8138,-0.0651 1.52995,0.13021 2.40886,0.13021 l 0.37435,0.50455 v 0.2767 q 0,0.52083 -0.66732,0.52083 -0.58594,0 -1.88802,-0.13021 -0.86263,0.0651 -1.0905,0.0651 v -0.0651 q 0,4.58985 0.43946,10.28646 0.0814,0 0.0814,0.0488 2.0345,-0.11393 2.60416,-0.11393 0.50456,0.16276 0.71615,0.58593 v 0.13021 q 0,0.26042 -0.52084,0.58594 -2.58789,0.0651 -3.10872,0.13021 -1.2207,0 -1.2207,-1.1556 -0.45573,-6.21745 -0.45573,-10.36784 v -2.08333 q -0.32552,-5.72917 -0.32552,-7.71485 -0.19531,-0.97656 -0.19531,-1.2207 l 0.50455,-0.37435 h 0.87891 q 0.35807,0 1.13932,-0.0814 z"
         style="font-style:normal;font-variant:normal;font-weight:normal;font-stretch:normal;font-size:33.33333206px;font-family:'Moon Flower Bold';-inkscape-font-specification:'Moon Flower Bold, ';text-align:center;text-anchor:middle;fill:#18394c;fill-opacity:1"
         id="path2812" />
      <path
         d="m 134.8291,-146.68257 h 0.26042 q 0.86263,0 0.86263,3.77604 v 0.84636 q 0,1.28581 -0.39062,6.59179 0,0.21159 0.0651,0.47201 -0.0651,3.43424 -0.0651,5.4362 v 4.23177 q 0,0.0977 0.1302,0.63476 -0.1302,0.79753 -0.66731,0.79753 H 134.764 q -0.66732,0 -0.66732,-2.08333 0,-11.31185 0.39063,-15.57617 v -1.80665 q 0,-1.49739 -0.19532,-2.71809 0,-0.2767 0.53711,-0.60222 z"
         style="font-style:normal;font-variant:normal;font-weight:normal;font-stretch:normal;font-size:33.33333206px;font-family:'Moon Flower Bold';-inkscape-font-specification:'Moon Flower Bold, ';text-align:center;text-anchor:middle;fill:#18394c;fill-opacity:1"
         id="path2814" />
      <path
         d="m 145.7666,-146.94298 h 0.26042 q 0.4069,0 0.60221,0.55338 l -1.95312,17.49675 q -0.26042,4.93164 -0.6836,4.93164 l -0.13021,0.0651 h -0.30924 q -0.68359,0 -1.12305,-4.00391 -1.69271,-10.75846 -1.69271,-17.1875 l -0.19531,-0.84635 q 0,-0.29297 0.53711,-0.61849 h 0.26042 q 0.99284,0 0.99284,5.38737 0.83007,9.29362 1.51367,13.29753 h -0.69987 q 0,-1.02539 1.82292,-16.55274 0.14648,-2.52278 0.79752,-2.52278 z"
         style="font-style:normal;font-variant:normal;font-weight:normal;font-stretch:normal;font-size:33.33333206px;font-family:'Moon Flower Bold';-inkscape-font-specification:'Moon Flower Bold, ';text-align:center;text-anchor:middle;fill:#18394c;fill-opacity:1"
         id="path2816" />
      <path
         d="m 153.46517,-147.00809 0.14649,0.0814 q -0.45573,0 -0.45573,-0.0976 2.89713,0.26041 2.89713,0.8138 v 0.11393 q -0.21159,0.60221 -0.76497,0.60221 l -1.88802,-0.19531 q -0.13021,0 -0.83008,0.0488 l 0.0326,0.45573 q 0,1.07422 0.30925,8.2845 h 0.0651 q 0.47201,0 0.8138,-0.0651 1.52995,0.13021 2.40886,0.13021 l 0.37435,0.50455 v 0.2767 q 0,0.52083 -0.66732,0.52083 -0.58594,0 -1.88802,-0.13021 -0.86263,0.0651 -1.0905,0.0651 v -0.0651 q 0,4.58985 0.43946,10.28646 0.0814,0 0.0814,0.0488 2.0345,-0.11393 2.60416,-0.11393 0.50456,0.16276 0.71615,0.58593 v 0.13021 q 0,0.26042 -0.52084,0.58594 -2.58789,0.0651 -3.10872,0.13021 -1.2207,0 -1.2207,-1.1556 -0.45573,-6.21745 -0.45573,-10.36784 v -2.08333 q -0.32552,-5.72917 -0.32552,-7.71485 -0.19531,-0.97656 -0.19531,-1.2207 l 0.50455,-0.37435 h 0.87891 q 0.35807,0 1.13932,-0.0814 z"
         style="font-style:normal;font-variant:normal;font-weight:normal;font-stretch:normal;font-size:33.33333206px;font-family:'Moon Flower Bold';-inkscape-font-specification:'Moon Flower Bold, ';text-align:center;text-anchor:middle;fill:#18394c;fill-opacity:1"
         id="path2818" />
      <path
         d="m 159.65007,-147.85444 h 0.55338 q 2.81576,0.92773 4.2806,3.5319 2.11589,4.29687 2.11589,8.83789 v 0.32552 q 0,6.51042 -4.80144,10.69336 -0.74869,0.24414 -1.00911,0.24414 -0.55339,0 -0.68359,-1.41602 l 0.0651,-0.1302 q -0.17904,-1.4323 -0.26042,-4.50847 h -0.11393 l 0.13021,0.26042 v -0.13021 q 0,-2.57161 0.0651,-4.6875 z m 1.54622,1.79036 v -0.42318 q 0.0651,7.3405 0.26042,11.58855 -0.0651,1.74153 -0.0651,3.58073 v 0.78124 q 0,2.45769 0.17904,4.44336 0.83008,-0.71614 2.08333,-2.75065 1.48112,-3.2552 1.48112,-6.11979 v -0.65104 q 0,-4.02018 -1.98567,-8.20312 -1.36719,-2.05079 -1.95313,-2.2461 z"
         style="font-style:normal;font-variant:normal;font-weight:normal;font-stretch:normal;font-size:33.33333206px;font-family:'Moon Flower Bold';-inkscape-font-specification:'Moon Flower Bold, ';text-align:center;text-anchor:middle;fill:#18394c;fill-opacity:1"
         id="path2820" />
      <path
         d="m 184.4222,-145.90132 h 0.27669 q 0.3418,0 0.66732,0.50456 v 0.16276 q -0.52083,4.67122 -1.10677,9.09831 l 0.0651,0.37435 v 0.53711 q -0.24414,0 -0.71614,6.13606 -0.19531,3.23893 -0.48828,4.99675 l -0.39063,0.19531 h -0.37435 q -0.37435,-0.0977 -0.60221,-0.60221 0.71615,-8.65886 1.04167,-11.2142 -1.72526,-3.72721 -4.52474,-7.50325 -0.61849,-0.43945 -0.61849,-0.92774 v -0.1302 q 0,-0.26042 0.53711,-0.58594 h 0.48828 q 0.45573,0.17904 0.66732,0.84635 2.58789,3.20638 4.19921,6.64063 h -0.58593 q 0.68359,-5.90821 1.02539,-8.23568 z"
         style="font-style:normal;font-variant:normal;font-weight:normal;font-stretch:normal;font-size:33.33333206px;font-family:'Moon Flower Bold';-inkscape-font-specification:'Moon Flower Bold, ';text-align:center;text-anchor:middle;fill:#18394c;fill-opacity:1"
         id="path2822" />
      <path
         d="m 191.84408,-146.87788 q 2.21354,0 3.33659,9.08203 0.0651,0.86263 0.0651,2.18099 v 0.26042 q 0,0.26041 -0.0488,0.52083 0.0488,0.0651 0.0488,0.52083 v 0.0651 q 0,0.45573 -0.0488,0.52083 0.0488,0.26042 0.0488,0.32552 0,6.9987 -2.05078,8.72396 -0.83008,0.32552 -1.1556,0.32552 h -0.52083 q -2.653,-0.63477 -3.27148,-6.36393 l -0.19532,-2.66927 q 0,-9.24479 2.36003,-12.9069 0.78125,-0.58594 1.43229,-0.58594 z m -2.32747,13.28125 q 0,3.62956 0.96028,6.34766 0.79753,1.59505 1.23698,1.59505 h 0.0651 q 0.97656,0 1.30208,-1.57878 0.69987,-1.66015 0.69987,-7.14518 v -1.30208 q 0,-3.79232 -1.35091,-8.70769 -0.43946,-0.97656 -0.65104,-1.12304 -0.35808,0.13021 -0.45573,0.42317 -1.80664,3.82487 -1.80664,11.49089 z"
         style="font-style:normal;font-variant:normal;font-weight:normal;font-stretch:normal;font-size:33.33333206px;font-family:'Moon Flower Bold';-inkscape-font-specification:'Moon Flower Bold, ';text-align:center;text-anchor:middle;fill:#18394c;fill-opacity:1"
         id="path2824" />
      <path
         d="m 200.17741,-147.46382 h 0.39063 q 0.63476,0.30925 0.63476,0.84636 v 0.32552 q 0.56967,10.57942 1.41602,17.02474 0.53711,4.06901 1.26953,4.06901 0.53711,-0.22787 0.53711,-0.91146 0,-2.55534 -0.53711,-12.89063 0.0814,-1.88802 0.0814,-3.64583 v -1.54622 l -0.0814,-0.43946 0.0651,-0.14648 q -0.0488,-0.79753 -0.21159,-1.9043 l 0.53711,-0.39062 h 0.35807 q 0.65104,0 0.79752,2.14843 0,0.45573 -0.0488,0.45573 0.0488,0.65105 0.0488,1.10677 v 2.09961 l -0.0651,0.39063 q 0,-0.27669 0.0814,-0.27669 -0.0814,1.10677 -0.0814,1.43229 v 0.26041 q 0.52083,11.32813 0.52083,13.36263 -0.21158,2.19727 -2.09961,2.19727 -2.14843,0 -2.75065,-6.54297 -0.71614,-5.58268 -1.38346,-16.63411 z"
         style="font-style:normal;font-variant:normal;font-weight:normal;font-stretch:normal;font-size:33.33333206px;font-family:'Moon Flower Bold';-inkscape-font-specification:'Moon Flower Bold, ';text-align:center;text-anchor:middle;fill:#18394c;fill-opacity:1"
         id="path2826" />
      <path
         d="m 210.56152,-148.57059 h 0.52083 q 0.19531,0.26042 1.07422,0.4069 1.41602,0.56966 2.26237,2.01823 1.13932,2.75065 1.13932,4.08529 v 0.65104 q 0,4.39453 -2.09961,6.03841 2.47396,0.58594 2.94597,6.90104 v 2.49024 q 0,0.55338 0.0814,1.77408 l -0.47201,0.30925 h -0.50456 l -0.48828,-0.37435 q -0.0814,-1.44857 -0.0814,-2.09961 v -2.34375 q 0,-2.3763 -1.43229,-4.83398 -0.8789,-0.83008 -1.48112,-0.83008 h 0.35807 q 0.0488,1.07422 0.0488,1.75781 v 2.47396 q 0.13021,3.22266 0.13021,3.64583 v 0.19532 q -0.26042,0.52083 -0.79752,0.52083 -0.30925,0 -0.7487,-0.50456 l 0.0814,-0.55338 q -0.13021,-2.73438 -0.13021,-3.62956 v -3.58073 q -0.16276,0 -0.39063,-0.53711 v -0.30924 q 0.26042,-0.52084 0.30925,-0.52084 -0.30925,-8.59375 -0.84636,-12.76041 z m 1.12304,1.5625 q 0.35808,4.41081 0.65105,10.77474 1.75781,-1.18815 1.75781,-4.85026 v -0.91146 q 0,-1.64388 -1.36719,-4.18294 -0.91146,-0.83008 -1.28581,-0.83008 z"
         style="font-style:normal;font-variant:normal;font-weight:normal;font-stretch:normal;font-size:33.33333206px;font-family:'Moon Flower Bold';-inkscape-font-specification:'Moon Flower Bold, ';text-align:center;text-anchor:middle;fill:#18394c;fill-opacity:1"
         id="path2828" />
      <path
         d="m 228.53027,-148.57059 h 0.52083 q 0.19531,0.26042 1.07422,0.4069 1.41602,0.56966 2.26237,2.01823 1.13932,2.75065 1.13932,4.08529 v 0.65104 q 0,4.39453 -2.09961,6.03841 2.47396,0.58594 2.94597,6.90104 v 2.49024 q 0,0.55338 0.0814,1.77408 l -0.47201,0.30925 h -0.50456 l -0.48828,-0.37435 q -0.0814,-1.44857 -0.0814,-2.09961 v -2.34375 q 0,-2.3763 -1.43229,-4.83398 -0.8789,-0.83008 -1.48112,-0.83008 h 0.35807 q 0.0488,1.07422 0.0488,1.75781 v 2.47396 q 0.13021,3.22266 0.13021,3.64583 v 0.19532 q -0.26042,0.52083 -0.79752,0.52083 -0.30925,0 -0.7487,-0.50456 l 0.0814,-0.55338 q -0.13021,-2.73438 -0.13021,-3.62956 v -3.58073 q -0.16276,0 -0.39063,-0.53711 v -0.30924 q 0.26042,-0.52084 0.30925,-0.52084 -0.30925,-8.59375 -0.84636,-12.76041 z m 1.12304,1.5625 q 0.35808,4.41081 0.65105,10.77474 1.75781,-1.18815 1.75781,-4.85026 v -0.91146 q 0,-1.64388 -1.36719,-4.18294 -0.91146,-0.83008 -1.28581,-0.83008 z"
         style="font-style:normal;font-variant:normal;font-weight:normal;font-stretch:normal;font-size:33.33333206px;font-family:'Moon Flower Bold';-inkscape-font-specification:'Moon Flower Bold, ';text-align:center;text-anchor:middle;fill:#18394c;fill-opacity:1"
         id="path2830" />
      <path
         d="m 239.0446,-126.1422 h 0.35807 q 0.3418,0 0.66732,0.50455 v 0.43946 q -0.58594,0.74869 -1.1556,0.74869 -0.55338,-0.24414 -0.63476,-0.55338 v -0.29297 q 0.37435,-0.66732 0.76497,-0.84635 z"
         style="font-style:normal;font-variant:normal;font-weight:normal;font-stretch:normal;font-size:33.33333206px;font-family:'Moon Flower Bold';-inkscape-font-specification:'Moon Flower Bold, ';text-align:center;text-anchor:middle;fill:#18394c;fill-opacity:1"
         id="path2832" />
      <path
         d="m 248.4196,-146.53608 0.37435,0.472 v 0.21159 q 0,0.22786 -0.58594,0.63477 h -0.79752 q -1.44857,0 -1.95313,1.05794 -0.50456,1.36719 -0.50456,3.05989 0,1.02539 0.89519,3.38542 0.29297,0.58594 3.45052,3.45052 1.70898,2.44141 1.70898,4.80143 0,1.85547 -0.79752,3.62956 -0.42318,0.96029 -2.14844,1.59505 -0.65104,0.3418 -1.10677,0.3418 -0.61849,0 -0.86263,-0.52083 v -0.22787 q 0,-0.472 1.00911,-0.56966 1.85547,-0.69987 1.85547,-1.44857 0.58594,-1.17187 0.58594,-2.97851 0,-2.36003 -2.11589,-4.60612 -1.75781,-1.33464 -2.63672,-2.58789 -0.63476,-0.6836 -1.23698,-3.49935 0,-0.3418 -0.0651,-0.86263 0,-2.16472 0.8138,-3.85742 1.02539,-1.48112 4.11784,-1.48112 z"
         style="font-style:normal;font-variant:normal;font-weight:normal;font-stretch:normal;font-size:33.33333206px;font-family:'Moon Flower Bold';-inkscape-font-specification:'Moon Flower Bold, ';text-align:center;text-anchor:middle;fill:#18394c;fill-opacity:1"
         id="path2834" />
      <path
         d="m 254.86491,-126.1422 h 0.35808 q 0.34179,0 0.66731,0.50455 v 0.43946 q -0.58593,0.74869 -1.15559,0.74869 -0.55339,-0.24414 -0.63477,-0.55338 v -0.29297 q 0.37435,-0.66732 0.76497,-0.84635 z"
         style="font-style:normal;font-variant:normal;font-weight:normal;font-stretch:normal;font-size:33.33333206px;font-family:'Moon Flower Bold';-inkscape-font-specification:'Moon Flower Bold, ';text-align:center;text-anchor:middle;fill:#18394c;fill-opacity:1"
         id="path2836" />
      <path
         d="m 265.75359,-146.94298 h 0.26041 q 0.4069,0 0.60222,0.55338 l -1.95313,17.49675 q -0.26042,4.93164 -0.68359,4.93164 l -0.13021,0.0651 h -0.30925 q -0.68359,0 -1.12304,-4.00391 -1.69271,-10.75846 -1.69271,-17.1875 l -0.19531,-0.84635 q 0,-0.29297 0.53711,-0.61849 h 0.26041 q 0.99284,0 0.99284,5.38737 0.83008,9.29362 1.51367,13.29753 h -0.69987 q 0,-1.02539 1.82292,-16.55274 0.14648,-2.52278 0.79753,-2.52278 z"
         style="font-style:normal;font-variant:normal;font-weight:normal;font-stretch:normal;font-size:33.33333206px;font-family:'Moon Flower Bold';-inkscape-font-specification:'Moon Flower Bold, ';text-align:center;text-anchor:middle;fill:#18394c;fill-opacity:1"
         id="path2838" />
      <path
         d="m 271.59668,-126.1422 h 0.35807 q 0.3418,0 0.66732,0.50455 v 0.43946 q -0.58594,0.74869 -1.1556,0.74869 -0.55338,-0.24414 -0.63476,-0.55338 v -0.29297 q 0.37434,-0.66732 0.76497,-0.84635 z"
         style="font-style:normal;font-variant:normal;font-weight:normal;font-stretch:normal;font-size:33.33333206px;font-family:'Moon Flower Bold';-inkscape-font-specification:'Moon Flower Bold, ';text-align:center;text-anchor:middle;fill:#18394c;fill-opacity:1"
         id="path2840" />
      <path
         d="m 278.02572,-147.39871 q 3.46679,0 4.6875,3.04362 0.21158,0.66731 0.27669,1.5625 0,4.11783 -1.44857,9.0332 -0.7487,1.28581 -2.14844,1.98568 -0.50455,0.0163 -0.50455,-0.13021 v 0.0651 q 0,0.84636 0.0651,1.43229 -0.0651,0.58594 -0.0651,0.65104 0.19531,3.67839 0.19531,3.97136 0.19531,0.0326 0.19531,0.78125 v 0.24414 q -0.26042,0.68359 -0.69987,0.86263 h -0.22786 q -0.3418,0 -0.66732,-0.50456 v -0.53711 q 0,-0.39062 0,-0.39062 -0.0488,-0.27669 -0.13021,-1.35091 0,-0.4069 0.0488,-0.4069 l -0.17904,-2.40886 q 0.0651,-0.66732 0.0651,-0.97656 -0.0651,-1.18815 -0.0651,-1.31836 -0.26041,-0.13021 -0.26041,-0.53711 0.14648,-0.55338 0.22786,-0.55338 -0.0977,-1.38347 -0.0977,-1.75782 l 0.30925,-11.52343 q -0.11393,0 -0.11393,-0.45573 v -0.19532 q 0,-0.26041 0.53711,-0.58593 z m 1.04166,1.38346 -0.30924,11.37695 q 0.0651,1.36719 0.0651,1.70899 l -0.16276,-0.0814 q 0.43945,0 1.0905,-0.6836 1.02539,-0.65104 1.70898,-7.79622 0.0651,-1.17188 0.0651,-1.54622 0,-1.54623 -1.75781,-2.78321 -0.472,-0.16276 -0.69987,-0.19531 z"
         style="font-style:normal;font-variant:normal;font-weight:normal;font-stretch:normal;font-size:33.33333206px;font-family:'Moon Flower Bold';-inkscape-font-specification:'Moon Flower Bold, ';text-align:center;text-anchor:middle;fill:#18394c;fill-opacity:1"
         id="path2842" />
      <path
         d="m 287.09148,-126.1422 h 0.35807 q 0.3418,0 0.66732,0.50455 v 0.43946 q -0.58594,0.74869 -1.1556,0.74869 -0.55339,-0.24414 -0.63477,-0.55338 v -0.29297 q 0.37435,-0.66732 0.76498,-0.84635 z"
         style="font-style:normal;font-variant:normal;font-weight:normal;font-stretch:normal;font-size:33.33333206px;font-family:'Moon Flower Bold';-inkscape-font-specification:'Moon Flower Bold, ';text-align:center;text-anchor:middle;fill:#18394c;fill-opacity:1"
         id="path2844" />
      <path
         d="m 44.773768,-96.536083 0.374348,0.472005 v 0.211588 q 0,0.227865 -0.585937,0.634766 h -0.797526 q -1.448568,0 -1.953125,1.057943 -0.504557,1.367187 -0.504557,3.059895 0,1.025391 0.895182,3.385417 0.292969,0.585937 3.450521,3.450521 1.708984,2.441406 1.708984,4.801432 0,1.855468 -0.797526,3.629557 -0.423177,0.960286 -2.148437,1.595052 -0.651042,0.341797 -1.106771,0.341797 -0.61849,0 -0.86263,-0.520834 v -0.227864 q 0,-0.472005 1.009114,-0.569662 1.855469,-0.699869 1.855469,-1.448567 0.585937,-1.171875 0.585937,-2.978516 0,-2.360026 -2.115885,-4.606119 -1.757812,-1.334636 -2.636719,-2.587891 -0.634765,-0.683594 -1.236979,-3.499349 0,-0.341797 -0.0651,-0.86263 0,-2.164713 0.813802,-3.857422 1.025391,-1.481119 4.117839,-1.481119 z"
         style="font-style:normal;font-variant:normal;font-weight:normal;font-stretch:normal;font-size:33.33333206px;font-family:'Moon Flower Bold';-inkscape-font-specification:'Moon Flower Bold, ';text-align:center;text-anchor:middle;fill:#18394c;fill-opacity:1"
         id="path2846" />
      <path
         d="m 53.237309,-96.87788 q 2.213542,0 3.336589,9.082031 0.0651,0.86263 0.0651,2.180989 v 0.260417 q 0,0.260417 -0.04883,0.520833 0.04883,0.0651 0.04883,0.520833 v 0.06511 q 0,0.455729 -0.04883,0.520833 0.04883,0.260417 0.04883,0.325521 0,6.998697 -2.050781,8.723958 -0.830078,0.325521 -1.155599,0.325521 h -0.520834 q -2.652994,-0.634766 -3.271484,-6.363932 l -0.195312,-2.669271 q 0,-9.244792 2.360026,-12.906901 0.78125,-0.585937 1.432291,-0.585937 z m -2.327474,13.281249 q 0,3.629557 0.960287,6.347656 0.797526,1.595052 1.236979,1.595052 h 0.0651 q 0.976563,0 1.302083,-1.578776 0.69987,-1.660156 0.69987,-7.145182 v -1.302083 q 0,-3.792318 -1.350911,-8.707682 -0.439453,-0.976562 -0.651042,-1.123047 -0.358073,0.130209 -0.455729,0.423177 -1.806641,3.82487 -1.806641,11.490885 z"
         style="font-style:normal;font-variant:normal;font-weight:normal;font-stretch:normal;font-size:33.33333206px;font-family:'Moon Flower Bold';-inkscape-font-specification:'Moon Flower Bold, ';text-align:center;text-anchor:middle;fill:#18394c;fill-opacity:1"
         id="path2848" />
      <path
         d="m 60.561528,-98.570588 h 0.520833 q 0.195313,0.260416 1.074219,0.406901 1.416016,0.569661 2.26237,2.018229 1.139323,2.750651 1.139323,4.085286 v 0.651042 q 0,4.394531 -2.09961,6.038411 2.473959,0.585937 2.945964,6.901041 v 2.490234 q 0,0.553386 0.08138,1.774089 l -0.472005,0.309245 h -0.504557 l -0.488282,-0.374349 q -0.08138,-1.448568 -0.08138,-2.099609 v -2.34375 q 0,-2.376302 -1.432291,-4.833985 -0.878907,-0.830078 -1.48112,-0.830078 h 0.358073 q 0.04883,1.074219 0.04883,1.757813 v 2.473958 q 0.130208,3.222656 0.130208,3.645833 v 0.195313 q -0.260417,0.520833 -0.797526,0.520833 -0.309245,0 -0.748698,-0.504557 l 0.08138,-0.553386 q -0.130208,-2.734375 -0.130208,-3.629557 v -3.580729 q -0.16276,0 -0.390625,-0.537109 v -0.309245 q 0.260417,-0.520833 0.309245,-0.520833 -0.309245,-8.59375 -0.846354,-12.760416 z m 1.123047,1.562499 q 0.358073,4.410808 0.651042,10.77474 1.757812,-1.188151 1.757812,-4.850261 v -0.911458 q 0,-1.64388 -1.367187,-4.182942 -0.911459,-0.830079 -1.285808,-0.830079 z"
         style="font-style:normal;font-variant:normal;font-weight:normal;font-stretch:normal;font-size:33.33333206px;font-family:'Moon Flower Bold';-inkscape-font-specification:'Moon Flower Bold, ';text-align:center;text-anchor:middle;fill:#18394c;fill-opacity:1"
         id="path2850" />
      <path
         d="m 70.262048,-98.570588 h 0.520833 q 0.195312,0.260416 1.074219,0.406901 1.416015,0.569661 2.262369,2.018229 1.139323,2.750651 1.139323,4.085286 v 0.651042 q 0,4.394531 -2.099609,6.038411 2.473958,0.585937 2.945963,6.901041 v 2.490234 q 0,0.553386 0.08138,1.774089 l -0.472006,0.309245 h -0.504557 l -0.488281,-0.374349 q -0.08138,-1.448568 -0.08138,-2.099609 v -2.34375 q 0,-2.376302 -1.432292,-4.833985 -0.878906,-0.830078 -1.48112,-0.830078 h 0.358073 q 0.04883,1.074219 0.04883,1.757813 v 2.473958 q 0.130209,3.222656 0.130209,3.645833 v 0.195313 q -0.260417,0.520833 -0.797526,0.520833 -0.309245,0 -0.748698,-0.504557 l 0.08138,-0.553386 q -0.130208,-2.734375 -0.130208,-3.629557 v -3.580729 q -0.162761,0 -0.390625,-0.537109 v -0.309245 q 0.260416,-0.520833 0.309244,-0.520833 -0.309244,-8.59375 -0.846354,-12.760416 z m 1.123046,1.562499 q 0.358073,4.410808 0.651042,10.77474 1.757813,-1.188151 1.757813,-4.850261 v -0.911458 q 0,-1.64388 -1.367188,-4.182942 -0.911458,-0.830079 -1.285807,-0.830079 z"
         style="font-style:normal;font-variant:normal;font-weight:normal;font-stretch:normal;font-size:33.33333206px;font-family:'Moon Flower Bold';-inkscape-font-specification:'Moon Flower Bold, ';text-align:center;text-anchor:middle;fill:#18394c;fill-opacity:1"
         id="path2852" />
      <path
         d="m 85.984702,-95.901318 h 0.276693 q 0.341797,0 0.667318,0.504558 v 0.16276 q -0.520834,4.671224 -1.106771,9.098307 l 0.0651,0.374349 v 0.537109 q -0.24414,0 -0.716146,6.136068 -0.195312,3.238932 -0.488281,4.996744 l -0.390625,0.195313 h -0.374349 q -0.374349,-0.09766 -0.602213,-0.602214 0.716145,-8.658854 1.041666,-11.214192 -1.72526,-3.727213 -4.524739,-7.503255 -0.61849,-0.439453 -0.61849,-0.927734 v -0.130209 q 0,-0.260416 0.53711,-0.585937 h 0.488281 q 0.455729,0.179036 0.667318,0.846354 2.58789,3.20638 4.199218,6.640625 h -0.585937 q 0.683593,-5.908203 1.02539,-8.235677 z"
         style="font-style:normal;font-variant:normal;font-weight:normal;font-stretch:normal;font-size:33.33333206px;font-family:'Moon Flower Bold';-inkscape-font-specification:'Moon Flower Bold, ';text-align:center;text-anchor:middle;fill:#18394c;fill-opacity:1"
         id="path2854" />
      <path
         d="m 104.86491,-95.901318 h 0.2767 q 0.34179,0 0.66731,0.504558 v 0.16276 q -0.52083,4.671224 -1.10677,9.098307 l 0.0651,0.374349 v 0.537109 q -0.24414,0 -0.71615,6.136068 -0.19531,3.238932 -0.48828,4.996744 l -0.39062,0.195313 h -0.37435 q -0.37435,-0.09766 -0.60222,-0.602214 0.71615,-8.658854 1.04167,-11.214192 -1.72526,-3.727213 -4.52474,-7.503255 -0.61849,-0.439453 -0.61849,-0.927734 v -0.130209 q 0,-0.260416 0.53711,-0.585937 h 0.488281 q 0.455729,0.179036 0.667317,0.846354 2.587892,3.20638 4.199222,6.640625 h -0.58594 q 0.68359,-5.908203 1.02539,-8.235677 z"
         style="font-style:normal;font-variant:normal;font-weight:normal;font-stretch:normal;font-size:33.33333206px;font-family:'Moon Flower Bold';-inkscape-font-specification:'Moon Flower Bold, ';text-align:center;text-anchor:middle;fill:#18394c;fill-opacity:1"
         id="path2856" />
      <path
         d="m 112.28679,-96.87788 q 2.21354,0 3.33658,9.082031 0.0651,0.86263 0.0651,2.180989 v 0.260417 q 0,0.260417 -0.0488,0.520833 0.0488,0.0651 0.0488,0.520833 v 0.06511 q 0,0.455729 -0.0488,0.520833 0.0488,0.260417 0.0488,0.325521 0,6.998697 -2.05078,8.723958 -0.83008,0.325521 -1.1556,0.325521 h -0.52083 q -2.653,-0.634766 -3.27149,-6.363932 l -0.19531,-2.669271 q 0,-9.244792 2.36002,-12.906901 0.78125,-0.585937 1.4323,-0.585937 z m -2.32748,13.281249 q 0,3.629557 0.96029,6.347656 0.79752,1.595052 1.23698,1.595052 h 0.0651 q 0.97656,0 1.30208,-1.578776 0.69987,-1.660156 0.69987,-7.145182 v -1.302083 q 0,-3.792318 -1.35091,-8.707682 -0.43945,-0.976562 -0.65104,-1.123047 -0.35807,0.130209 -0.45573,0.423177 -1.80664,3.82487 -1.80664,11.490885 z"
         style="font-style:normal;font-variant:normal;font-weight:normal;font-stretch:normal;font-size:33.33333206px;font-family:'Moon Flower Bold';-inkscape-font-specification:'Moon Flower Bold, ';text-align:center;text-anchor:middle;fill:#18394c;fill-opacity:1"
         id="path2858" />
      <path
         d="m 120.62012,-97.463818 h 0.39062 q 0.63477,0.309245 0.63477,0.846354 v 0.325521 q 0.56966,10.579427 1.41602,17.024739 0.5371,4.06901 1.26953,4.06901 0.53711,-0.227864 0.53711,-0.911458 0,-2.555338 -0.53711,-12.890624 0.0814,-1.888021 0.0814,-3.645834 v -1.546223 l -0.0814,-0.439454 0.0651,-0.146484 q -0.0488,-0.797526 -0.21159,-1.904297 l 0.53711,-0.390625 h 0.35807 q 0.65105,0 0.79753,2.148438 0,0.455729 -0.0488,0.455729 0.0488,0.651042 0.0488,1.106771 v 2.099609 l -0.0651,0.390625 q 0,-0.276693 0.0814,-0.276693 -0.0814,1.106771 -0.0814,1.432292 v 0.260417 q 0.52083,11.328124 0.52083,13.362629 -0.21159,2.197266 -2.09961,2.197266 -2.14844,0 -2.75065,-6.542969 -0.71615,-5.582682 -1.38346,-16.634114 z"
         style="font-style:normal;font-variant:normal;font-weight:normal;font-stretch:normal;font-size:33.33333206px;font-family:'Moon Flower Bold';-inkscape-font-specification:'Moon Flower Bold, ';text-align:center;text-anchor:middle;fill:#18394c;fill-opacity:1"
         id="path2860" />
      <path
         d="m 142.65788,-96.617464 h 0.50456 q 1.52995,0.276693 1.52995,1.171875 0,0.260417 -0.53711,0.585938 h -0.60222 q -0.42317,-0.520833 -0.61849,-0.520833 -1.30208,0.455729 -1.30208,0.78125 -1.30208,2.473958 -1.30208,6.705728 v 1.106771 q 0,2.880859 0.78125,6.917318 0.45573,2.913411 1.2207,3.889973 0.86263,0.748698 1.44857,0.78125 0.71614,0 1.83919,-1.432291 h 0.42318 q 0.37435,0 0.60221,0.455729 v 0.195312 q 0,0.748698 -1.61133,1.774089 -0.73242,0.309245 -1.33463,0.309245 h -0.0977 q -1.12304,-0.130209 -2.27864,-1.139323 -1.25326,-0.992839 -2.13216,-7.600911 -0.32553,-1.416016 -0.32553,-4.671224 v -0.390625 q 0.11394,-6.738281 2.3112,-8.398437 1.0905,-0.520834 1.48112,-0.520834 z"
         style="font-style:normal;font-variant:normal;font-weight:normal;font-stretch:normal;font-size:33.33333206px;font-family:'Moon Flower Bold';-inkscape-font-specification:'Moon Flower Bold, ';text-align:center;text-anchor:middle;fill:#18394c;fill-opacity:1"
         id="path2862" />
      <path
         d="m 151.78874,-96.763948 h 0.16276 q 1.17188,0.537109 1.87175,2.539062 1.82291,5.631511 2.68554,14.355469 0.56966,2.832031 0.56966,5.045572 -0.19531,0.488282 -1.12304,0.488282 -0.39063,-0.748698 -0.91146,-5.452474 -0.14648,-0.504557 -0.61849,-4.085286 l -0.14648,-0.01628 q -3.09245,0.292968 -3.09245,0.390625 v 2.539062 l -0.43946,5.957031 q 0.14649,0.211588 0.14649,0.488281 0,0.276693 -0.56966,0.61849 -1.10677,0 -1.10677,-1.057943 0.50455,-6.868489 0.50455,-8.235677 -0.0651,-0.895182 -0.0651,-1.822916 0.0326,-4.703776 0.78125,-9.960937 0.37435,-1.790365 1.35091,-1.790365 z m 0.29297,1.676432 q -0.83008,3.190104 -0.83008,9.261068 -0.0651,0 -0.0651,1.253255 v -0.244141 q 1.57877,-0.439453 3.14127,-0.439453 v 0.244141 q 0,-1.953125 -2.14843,-9.326172 -0.4069,-0.878906 -0.0977,-0.748698 z"
         style="font-style:normal;font-variant:normal;font-weight:normal;font-stretch:normal;font-size:33.33333206px;font-family:'Moon Flower Bold';-inkscape-font-specification:'Moon Flower Bold, ';text-align:center;text-anchor:middle;fill:#18394c;fill-opacity:1"
         id="path2864" />
      <path
         d="m 161.94499,-97.024365 q 0.68359,0 3.35286,9.147135 0.37435,2.083334 3.0599,10.270182 h -0.53711 v -0.227864 q -0.37435,-7.910156 -0.37435,-8.886719 0,-0.292968 0.0814,-1.985677 -0.0163,-0.179036 -0.0163,-0.78125 0.13021,-1.285807 0.13021,-2.034505 v -4.638671 q 0.0814,-0.683594 0.87891,-0.683594 l 0.68359,0.358073 q -0.19531,3.857421 -0.19531,5.71289 v 1.839193 q 0,5.664062 0.35807,14.794921 l -0.65104,0.325521 q -0.8138,0 -5.12695,-14.680989 l -1.70899,-5.826823 0.60222,0.976563 0.0488,-0.944011 q 0.11394,1.350912 0.11394,2.148438 l 0.0163,0.553385 q -0.13021,3.613281 -0.13021,5.061849 0,7.27539 0.58594,12.337239 h -0.8138 q -0.76497,0 -0.76497,-0.683594 -0.37435,-5.680338 -0.37435,-10.172525 v -11.295573 q 0.11393,-0.683594 0.78125,-0.683594 z"
         style="font-style:normal;font-variant:normal;font-weight:normal;font-stretch:normal;font-size:33.33333206px;font-family:'Moon Flower Bold';-inkscape-font-specification:'Moon Flower Bold, ';text-align:center;text-anchor:middle;fill:#18394c;fill-opacity:1"
         id="path2866" />
      <path
         d="m 173.64746,-96.7965 h 0.32552 q 0.35807,0 0.6836,0.537109 -0.73243,3.304037 -1.31836,4.492188 l -0.35808,0.179036 H 172.736 q -0.34179,0 -0.68359,-0.553385 0.61849,-2.050781 1.1556,-4.378255 z"
         style="font-style:normal;font-variant:normal;font-weight:normal;font-stretch:normal;font-size:33.33333206px;font-family:'Moon Flower Bold';-inkscape-font-specification:'Moon Flower Bold, ';text-align:center;text-anchor:middle;fill:#18394c;fill-opacity:1"
         id="path2868" />
      <path
         d="m 184.764,-95.771109 0.42317,0.488281 v 0.260416 q 0,0.602214 -2.22981,0.602214 h -1.82292 q 0.19531,0 0.21159,-0.04883 l 0.13021,2.945963 q -0.0651,0.406901 -0.0651,0.439453 0.58594,9.847005 0.58594,14.046224 0.0651,0.113932 0.0651,0.325521 -0.0651,0.09766 -0.0651,0.0651 l 0.0814,0.439453 q -0.22786,0.520833 -0.61849,0.520833 h -0.26042 q -0.27669,0 -0.66731,-0.455729 0,-0.227864 0.0651,-0.732422 0,-1.383463 -0.58594,-14.046223 0,-2.050781 -0.11393,-3.580729 l 0.14648,0.08138 h -0.0651 l -2.27865,0.195312 q -0.42317,-0.455729 -0.42317,-0.846354 0,-0.276692 0.61849,-0.585937 0.56966,0.146484 0.55338,0.146484 1.25326,-0.113932 1.77409,-0.113932 h 2.66927 q 0.79753,0 1.87175,-0.146484 z"
         style="font-style:normal;font-variant:normal;font-weight:normal;font-stretch:normal;font-size:33.33333206px;font-family:'Moon Flower Bold';-inkscape-font-specification:'Moon Flower Bold, ';text-align:center;text-anchor:middle;fill:#18394c;fill-opacity:1"
         id="path2870" />
      <path
         d="m 196.66178,-97.138297 q 0.76497,0.244141 4.52474,10.465495 h -0.53711 q 0,-0.423178 3.32031,-10.058594 h 0.78125 l 0.29297,0.569662 0.0163,0.716145 q -0.17904,5.826823 -0.17904,9.847005 0,1.546224 0.58594,11.360677 l -0.69987,0.341797 q -0.87891,0 -1.26953,-10.9375 v -7.633463 h 0.5371 q -2.31119,7.177734 -2.81575,7.584635 -1.04167,-0.0651 -4.05273,-8.544922 h 0.50455 v -0.130208 l 0.96029,18.929036 -0.66732,0.358073 q -0.91146,0 -0.91146,-0.716146 -0.56966,-17.008463 -1.1556,-21.761067 z"
         style="font-style:normal;font-variant:normal;font-weight:normal;font-stretch:normal;font-size:33.33333206px;font-family:'Moon Flower Bold';-inkscape-font-specification:'Moon Flower Bold, ';text-align:center;text-anchor:middle;fill:#18394c;fill-opacity:1"
         id="path2872" />
      <path
         d="m 210.70801,-96.763948 h 0.16276 q 1.17187,0.537109 1.87174,2.539062 1.82292,5.631511 2.68555,14.355469 0.56966,2.832031 0.56966,5.045572 -0.19531,0.488282 -1.12305,0.488282 -0.39062,-0.748698 -0.91145,-5.452474 -0.14649,-0.504557 -0.61849,-4.085286 l -0.14649,-0.01628 q -3.09245,0.292968 -3.09245,0.390625 v 2.539062 l -0.43945,5.957031 q 0.14649,0.211588 0.14649,0.488281 0,0.276693 -0.56967,0.61849 -1.10677,0 -1.10677,-1.057943 0.50456,-6.868489 0.50456,-8.235677 -0.0651,-0.895182 -0.0651,-1.822916 0.0325,-4.703776 0.78125,-9.960937 0.37434,-1.790365 1.35091,-1.790365 z m 0.29297,1.676432 q -0.83008,3.190104 -0.83008,9.261068 -0.0651,0 -0.0651,1.253255 v -0.244141 q 1.57878,-0.439453 3.14128,-0.439453 v 0.244141 q 0,-1.953125 -2.14844,-9.326172 -0.4069,-0.878906 -0.0977,-0.748698 z"
         style="font-style:normal;font-variant:normal;font-weight:normal;font-stretch:normal;font-size:33.33333206px;font-family:'Moon Flower Bold';-inkscape-font-specification:'Moon Flower Bold, ';text-align:center;text-anchor:middle;fill:#18394c;fill-opacity:1"
         id="path2874" />
      <path
         d="m 224.75423,-97.724234 q 0.83007,0 1.02539,0.537109 v 0.374349 q 0,2.897135 -1.30209,7.682291 -0.26041,1.253255 -1.00911,4.036459 0.76497,0 3.14127,6.429036 0.55339,1.64388 0.92774,4.036458 v 0.211588 q 0,0.276693 -0.48828,0.520834 h -0.42318 q -0.61849,-0.309245 -0.61849,-0.846354 v -0.06511 q 0,-0.390625 -0.0163,-0.390625 -0.7487,-3.515624 -1.72527,-5.566406 -1.33463,-3.157552 -1.39973,-3.157552 l 0.58593,9.716797 -0.472,0.309245 h -0.4069 q -0.30925,0 -0.73243,-0.569662 v -0.146484 q 0,-0.244141 0.13021,-0.455729 -0.60221,-10.514323 -1.10677,-15.136718 -0.91146,-5.192057 -0.91146,-6.608073 v -0.195313 q 0,-0.260416 0.53711,-0.585937 h 0.26042 q 0.3418,0 0.66732,0.504557 v 0.390625 q 0.19531,1.855469 1.17187,8.772786 0.19532,2.26237 0.19532,2.311198 h -0.66732 q 2.19726,-8.512369 2.19726,-10.416666 v -0.651042 q 0,-0.04883 -0.0814,-0.651041 z"
         style="font-style:normal;font-variant:normal;font-weight:normal;font-stretch:normal;font-size:33.33333206px;font-family:'Moon Flower Bold';-inkscape-font-specification:'Moon Flower Bold, ';text-align:center;text-anchor:middle;fill:#18394c;fill-opacity:1"
         id="path2876" />
      <path
         d="m 233.47819,-97.008089 0.14648,0.08138 q -0.45573,0 -0.45573,-0.09766 2.89714,0.260417 2.89714,0.813802 v 0.113933 q -0.21159,0.602213 -0.76497,0.602213 l -1.88802,-0.195312 q -0.13021,0 -0.83008,0.04883 l 0.0325,0.455729 q 0,1.074219 0.30924,8.284505 h 0.0651 q 0.472,0 0.8138,-0.0651 1.52995,0.130208 2.40885,0.130208 l 0.37435,0.504557 v 0.276693 q 0,0.520833 -0.66731,0.520833 -0.58594,0 -1.88803,-0.130208 -0.86263,0.0651 -1.09049,0.0651 v -0.0651 q 0,4.589844 0.43945,10.286458 0.0814,0 0.0814,0.04883 2.03451,-0.113932 2.60417,-0.113932 0.50456,0.16276 0.71615,0.585937 v 0.130209 q 0,0.260416 -0.52084,0.585937 -2.58789,0.0651 -3.10872,0.130208 -1.2207,0 -1.2207,-1.155598 -0.45573,-6.217448 -0.45573,-10.367839 v -2.083333 q -0.32552,-5.729166 -0.32552,-7.714843 -0.19532,-0.976563 -0.19532,-1.220703 l 0.50456,-0.374349 h 0.87891 q 0.35807,0 1.13932,-0.08138 z"
         style="font-style:normal;font-variant:normal;font-weight:normal;font-stretch:normal;font-size:33.33333206px;font-family:'Moon Flower Bold';-inkscape-font-specification:'Moon Flower Bold, ';text-align:center;text-anchor:middle;fill:#18394c;fill-opacity:1"
         id="path2878" />
      <path
         d="m 249.67286,-96.682568 h 0.26041 q 0.86263,0 0.86263,3.776042 v 0.846354 q 0,1.285807 -0.39062,6.591797 0,0.211588 0.0651,0.472005 -0.0651,3.434244 -0.0651,5.436197 v 4.231771 q 0,0.09766 0.13021,0.634766 -0.13021,0.797526 -0.66732,0.797526 h -0.26042 q -0.66732,0 -0.66732,-2.083334 0,-11.311848 0.39063,-15.576171 v -1.80664 q 0,-1.497396 -0.19531,-2.718099 0,-0.276693 0.53711,-0.602214 z"
         style="font-style:normal;font-variant:normal;font-weight:normal;font-stretch:normal;font-size:33.33333206px;font-family:'Moon Flower Bold';-inkscape-font-specification:'Moon Flower Bold, ';text-align:center;text-anchor:middle;fill:#18394c;fill-opacity:1"
         id="path2880" />
      <path
         d="m 261.65201,-95.771109 0.42318,0.488281 v 0.260416 q 0,0.602214 -2.22982,0.602214 h -1.82291 q 0.19531,0 0.21158,-0.04883 l 0.13021,2.945963 q -0.0651,0.406901 -0.0651,0.439453 0.58594,9.847005 0.58594,14.046224 0.0651,0.113932 0.0651,0.325521 -0.0651,0.09766 -0.0651,0.0651 l 0.0814,0.439453 q -0.22787,0.520833 -0.61849,0.520833 h -0.26042 q -0.27669,0 -0.66732,-0.455729 0,-0.227864 0.0651,-0.732422 0,-1.383463 -0.58594,-14.046223 0,-2.050781 -0.11393,-3.580729 l 0.14648,0.08138 h -0.0651 l -2.27865,0.195312 q -0.42318,-0.455729 -0.42318,-0.846354 0,-0.276692 0.61849,-0.585937 0.56966,0.146484 0.55339,0.146484 1.25325,-0.113932 1.77409,-0.113932 h 2.66927 q 0.79752,0 1.87174,-0.146484 z"
         style="font-style:normal;font-variant:normal;font-weight:normal;font-stretch:normal;font-size:33.33333206px;font-family:'Moon Flower Bold';-inkscape-font-specification:'Moon Flower Bold, ';text-align:center;text-anchor:middle;fill:#18394c;fill-opacity:1"
         id="path2882" />
      <path
         d="m 276.21906,-90.318636 h 0.30925 q 0.91146,0.08138 0.91146,0.846354 l -0.0326,0.06511 0.0651,0.113932 q -0.3418,0.797526 -1.02539,0.797526 h -0.24414 q -0.61849,-0.309245 -0.61849,-0.846354 v -0.260417 q 0,-0.24414 0.63476,-0.716146 z m 0.29297,8.007813 q 0.79753,0 0.79753,0.781249 v 0.260417 q 0,0.260417 -0.53711,0.585938 h -0.19531 q -0.65104,0 -0.92774,-0.667318 v -0.179037 q 0,-0.781249 0.86263,-0.781249 z"
         style="font-style:normal;font-variant:normal;font-weight:normal;font-stretch:normal;font-size:33.33333206px;font-family:'Moon Flower Bold';-inkscape-font-specification:'Moon Flower Bold, ';text-align:center;text-anchor:middle;fill:#18394c;fill-opacity:1"
         id="path2884" />
      <path
         d="m 284.0804,-97.545198 h 0.34179 q 0.39063,0 0.66732,0.683594 v 0.146484 q 0,0.276693 -0.53711,1.578776 -1.02539,3.90625 -1.02539,8.219401 0,4.524739 2.00196,13.134765 0.45572,1.39974 2.09961,4.296875 v 0.195312 q -0.17904,0.651042 -0.58594,0.797526 -0.84636,0 -2.42513,-3.531901 -1.22071,-3.173828 -2.36003,-11.26302 -0.19531,-3.20638 -0.19531,-3.727213 0,-5.712891 1.59505,-10.058594 z"
         style="font-style:normal;font-variant:normal;font-weight:normal;font-stretch:normal;font-size:33.33333206px;font-family:'Moon Flower Bold';-inkscape-font-specification:'Moon Flower Bold, ';text-align:center;text-anchor:middle;fill:#18394c;fill-opacity:1"
         id="path2886" />
      <path
         d="m 16.388352,-45.901318 h 0.276693 q 0.341797,0 0.667317,0.504558 v 0.16276 q -0.520833,4.671224 -1.10677,9.098307 l 0.0651,0.374349 v 0.537109 q -0.244141,0 -0.716146,6.136068 -0.195313,3.238932 -0.488281,4.996744 l -0.390625,0.195313 h -0.374349 q -0.374349,-0.09766 -0.602214,-0.602214 0.716146,-8.658854 1.041667,-11.214192 -1.725261,-3.727213 -4.52474,-7.503255 -0.6184891,-0.439453 -0.6184891,-0.927734 v -0.130209 q 0,-0.260416 0.5371091,-0.585937 h 0.488281 q 0.45573,0.179036 0.667318,0.846354 2.587891,3.20638 4.199219,6.640625 h -0.585938 q 0.683594,-5.908203 1.025391,-8.235677 z"
         style="font-style:normal;font-variant:normal;font-weight:normal;font-stretch:normal;font-size:33.33333206px;font-family:'Moon Flower Bold';-inkscape-font-specification:'Moon Flower Bold, ';text-align:center;text-anchor:middle;fill:#18394c;fill-opacity:1"
         id="path2888" />
      <path
         d="m 23.810226,-46.87788 q 2.213542,0 3.336589,9.082031 0.0651,0.86263 0.0651,2.180989 v 0.260417 q 0,0.260417 -0.04883,0.520833 0.04883,0.0651 0.04883,0.520833 v 0.0651 q 0,0.455729 -0.04883,0.520833 0.04883,0.260417 0.04883,0.325521 0,6.998697 -2.050781,8.723958 -0.830078,0.325521 -1.155599,0.325521 h -0.520833 q -2.652995,-0.634766 -3.271485,-6.363932 l -0.195312,-2.669271 q 0,-9.244792 2.360026,-12.906901 0.78125,-0.585937 1.432291,-0.585937 z m -2.327473,13.281249 q 0,3.629557 0.960286,6.347656 0.797526,1.595052 1.236979,1.595052 h 0.0651 q 0.976563,0 1.302084,-1.578776 0.699869,-1.660156 0.699869,-7.145182 v -1.302083 q 0,-3.792318 -1.350911,-8.707682 -0.439453,-0.976562 -0.651042,-1.123047 -0.358073,0.130209 -0.455729,0.423177 -1.80664,3.82487 -1.80664,11.490885 z"
         style="font-style:normal;font-variant:normal;font-weight:normal;font-stretch:normal;font-size:33.33333206px;font-family:'Moon Flower Bold';-inkscape-font-specification:'Moon Flower Bold, ';text-align:center;text-anchor:middle;fill:#18394c;fill-opacity:1"
         id="path2890" />
      <path
         d="m 32.14356,-47.463818 h 0.390625 q 0.634765,0.309245 0.634765,0.846354 v 0.325521 q 0.569662,10.579427 1.416016,17.024739 0.537109,4.06901 1.269531,4.06901 0.53711,-0.227864 0.53711,-0.911458 0,-2.555338 -0.53711,-12.890624 0.08138,-1.888021 0.08138,-3.645834 v -1.546223 l -0.08138,-0.439454 0.0651,-0.146484 q -0.04883,-0.797526 -0.211588,-1.904297 l 0.537109,-0.390625 h 0.358073 q 0.651042,0 0.797526,2.148438 0,0.455729 -0.04883,0.455729 0.04883,0.651042 0.04883,1.106771 v 2.099609 l -0.0651,0.390625 q 0,-0.276693 0.08138,-0.276693 -0.08138,1.106771 -0.08138,1.432292 v 0.260417 q 0.520833,11.328124 0.520833,13.362629 -0.211588,2.197266 -2.099609,2.197266 -2.148437,0 -2.750651,-6.542969 -0.716146,-5.582682 -1.383463,-16.634114 z"
         style="font-style:normal;font-variant:normal;font-weight:normal;font-stretch:normal;font-size:33.33333206px;font-family:'Moon Flower Bold';-inkscape-font-specification:'Moon Flower Bold, ';text-align:center;text-anchor:middle;fill:#18394c;fill-opacity:1"
         id="path2892" />
      <path
         d="m 43.374028,-46.7965 h 0.325521 q 0.358073,0 0.683593,0.537109 -0.732421,3.304037 -1.318359,4.492188 l -0.358073,0.179036 h -0.24414 q -0.341797,0 -0.683594,-0.553385 0.618489,-2.050781 1.155599,-4.378255 z"
         style="font-style:normal;font-variant:normal;font-weight:normal;font-stretch:normal;font-size:33.33333206px;font-family:'Moon Flower Bold';-inkscape-font-specification:'Moon Flower Bold, ';text-align:center;text-anchor:middle;fill:#18394c;fill-opacity:1"
         id="path2894" />
      <path
         d="m 48.761398,-47.919547 h 0.0651 q 0.358073,0 0.667318,0.504557 0,0.732422 0.0651,0.732422 l -0.130209,-0.260416 q 0.45573,7.161458 0.45573,12.027994 0.195312,1.578776 0.195312,4.378255 v 5.338541 h 3.108724 q 0.374349,0 0.602213,0.45573 v 0.260416 q 0,0.585938 -1.513671,0.585938 h -2.994792 q -0.341797,0 -0.667318,-0.504558 v -0.472005 q 0,-0.78125 0.03255,-0.78125 l -0.03255,-0.439453 v -4.76888 q -0.260416,-8.561197 -0.520833,-14.241536 l -0.195312,-2.197265 q 0.195312,-0.61849 0.86263,-0.61849 z"
         style="font-style:normal;font-variant:normal;font-weight:normal;font-stretch:normal;font-size:33.33333206px;font-family:'Moon Flower Bold';-inkscape-font-specification:'Moon Flower Bold, ';text-align:center;text-anchor:middle;fill:#18394c;fill-opacity:1"
         id="path2896" />
      <path
         d="m 58.136398,-47.919547 h 0.0651 q 0.358073,0 0.667318,0.504557 0,0.732422 0.0651,0.732422 l -0.130209,-0.260416 q 0.45573,7.161458 0.45573,12.027994 0.195312,1.578776 0.195312,4.378255 v 5.338541 h 3.108724 q 0.374349,0 0.602213,0.45573 v 0.260416 q 0,0.585938 -1.513671,0.585938 h -2.994792 q -0.341797,0 -0.667318,-0.504558 v -0.472005 q 0,-0.78125 0.03255,-0.78125 l -0.03255,-0.439453 v -4.76888 q -0.260416,-8.561197 -0.520833,-14.241536 l -0.195312,-2.197265 q 0.195312,-0.61849 0.86263,-0.61849 z"
         style="font-style:normal;font-variant:normal;font-weight:normal;font-stretch:normal;font-size:33.33333206px;font-family:'Moon Flower Bold';-inkscape-font-specification:'Moon Flower Bold, ';text-align:center;text-anchor:middle;fill:#18394c;fill-opacity:1"
         id="path2898" />
      <path
         d="m 77.146816,-48.245068 q 2.392578,0 2.880859,4.541016 v 1.269531 q -0.325521,2.360026 -2.197266,5.126953 -0.0651,0.01628 -0.276692,0.292969 v -0.244141 q 1.220703,0.455729 2.115885,1.953125 0.895182,1.334635 1.204427,4.101562 0,3.466797 -1.48112,5.908203 -1.041666,1.139323 -2.115885,1.39974 h -0.195313 q -1.318359,0 -1.318359,-2.522787 -0.78125,-11.214192 -0.78125,-17.252603 -0.130208,-1.741537 -0.406901,-3.450521 1.350912,-1.123047 2.571615,-1.123047 z m -1.009115,1.660157 q 0.504557,3.938801 0.504557,11.474608 0.260417,3.059896 0.651042,9.863281 l -0.03255,-0.03255 q 0.911458,-0.374349 1.383463,-1.627604 0.764974,-2.148437 0.764974,-4.264323 -0.472005,-2.815755 -0.748698,-2.815755 -0.472005,-1.399739 -1.774088,-2.148437 -0.667318,0 -1.057943,-0.651042 v -0.358073 q 2.132162,-2.392578 2.734375,-5.208333 v -0.992838 q -0.292969,-3.597005 -1.416015,-3.597005 -0.61849,0 -1.009115,0.358073 z"
         style="font-style:normal;font-variant:normal;font-weight:normal;font-stretch:normal;font-size:33.33333206px;font-family:'Moon Flower Bold';-inkscape-font-specification:'Moon Flower Bold, ';text-align:center;text-anchor:middle;fill:#18394c;fill-opacity:1"
         id="path2900" />
      <path
         d="m 87.644862,-47.008089 0.146485,0.08138 q -0.455729,0 -0.455729,-0.09766 2.897135,0.260417 2.897135,0.813802 v 0.113933 q -0.211589,0.602213 -0.764974,0.602213 l -1.888021,-0.195312 q -0.130208,0 -0.830078,0.04883 l 0.03255,0.455729 q 0,1.074219 0.309245,8.284505 h 0.0651 q 0.472005,0 0.813802,-0.0651 1.529948,0.130208 2.408854,0.130208 l 0.374349,0.504557 v 0.276693 q 0,0.520833 -0.667317,0.520833 -0.585938,0 -1.888021,-0.130208 -0.86263,0.0651 -1.090495,0.0651 v -0.0651 q 0,4.589844 0.439453,10.286458 0.08138,0 0.08138,0.04883 2.034506,-0.113932 2.604167,-0.113932 0.504557,0.16276 0.716146,0.585937 v 0.130209 q 0,0.260416 -0.520833,0.585937 -2.587891,0.0651 -3.108724,0.130208 -1.220703,0 -1.220703,-1.155598 -0.45573,-6.217448 -0.45573,-10.367839 v -2.083333 q -0.32552,-5.729166 -0.32552,-7.714843 -0.195313,-0.976563 -0.195313,-1.220703 l 0.504557,-0.374349 h 0.878907 q 0.358073,0 1.139322,-0.08138 z"
         style="font-style:normal;font-variant:normal;font-weight:normal;font-stretch:normal;font-size:33.33333206px;font-family:'Moon Flower Bold';-inkscape-font-specification:'Moon Flower Bold, ';text-align:center;text-anchor:middle;fill:#18394c;fill-opacity:1"
         id="path2902" />
      <path
         d="m 102.61882,-48.570588 h 0.52083 q 0.19531,0.260416 1.07422,0.406901 1.41602,0.569661 2.26237,2.018229 1.13932,2.750651 1.13932,4.085286 v 0.651042 q 0,4.394531 -2.09961,6.038411 2.47396,0.585937 2.94597,6.901041 v 2.490234 q 0,0.553386 0.0814,1.774089 l -0.47201,0.309245 h -0.50456 l -0.48828,-0.374349 q -0.0814,-1.448568 -0.0814,-2.099609 v -2.34375 q 0,-2.376302 -1.43229,-4.833985 -0.8789,-0.830078 -1.48112,-0.830078 h 0.35807 q 0.0488,1.074219 0.0488,1.757813 v 2.473958 q 0.13021,3.222656 0.13021,3.645833 v 0.195313 q -0.26042,0.520833 -0.79752,0.520833 -0.30925,0 -0.7487,-0.504557 l 0.0814,-0.553386 q -0.13021,-2.734375 -0.13021,-3.629557 v -3.580729 q -0.16276,0 -0.39063,-0.537109 v -0.309245 q 0.26042,-0.520833 0.30925,-0.520833 -0.30925,-8.59375 -0.84635,-12.760416 z m 1.12305,1.562499 q 0.35807,4.410808 0.65104,10.77474 1.75781,-1.188151 1.75781,-4.850261 v -0.911458 q 0,-1.64388 -1.36719,-4.182942 -0.91146,-0.830079 -1.28581,-0.830079 z"
         style="font-style:normal;font-variant:normal;font-weight:normal;font-stretch:normal;font-size:33.33333206px;font-family:'Moon Flower Bold';-inkscape-font-specification:'Moon Flower Bold, ';text-align:center;text-anchor:middle;fill:#18394c;fill-opacity:1"
         id="path2904" />
      <path
         d="m 114.98861,-47.008089 0.14649,0.08138 q -0.45573,0 -0.45573,-0.09766 2.89713,0.260417 2.89713,0.813802 v 0.113933 q -0.21159,0.602213 -0.76497,0.602213 l -1.88802,-0.195312 q -0.13021,0 -0.83008,0.04883 l 0.0326,0.455729 q 0,1.074219 0.30925,8.284505 h 0.0651 q 0.47201,0 0.8138,-0.0651 1.52995,0.130208 2.40886,0.130208 l 0.37435,0.504557 v 0.276693 q 0,0.520833 -0.66732,0.520833 -0.58594,0 -1.88802,-0.130208 -0.86263,0.0651 -1.0905,0.0651 v -0.0651 q 0,4.589844 0.43946,10.286458 0.0814,0 0.0814,0.04883 2.0345,-0.113932 2.60416,-0.113932 0.50456,0.16276 0.71615,0.585937 v 0.130209 q 0,0.260416 -0.52083,0.585937 -2.5879,0.0651 -3.10873,0.130208 -1.2207,0 -1.2207,-1.155598 -0.45573,-6.217448 -0.45573,-10.367839 v -2.083333 q -0.32552,-5.729166 -0.32552,-7.714843 -0.19531,-0.976563 -0.19531,-1.220703 l 0.50455,-0.374349 h 0.87891 q 0.35807,0 1.13932,-0.08138 z"
         style="font-style:normal;font-variant:normal;font-weight:normal;font-stretch:normal;font-size:33.33333206px;font-family:'Moon Flower Bold';-inkscape-font-specification:'Moon Flower Bold, ';text-align:center;text-anchor:middle;fill:#18394c;fill-opacity:1"
         id="path2906" />
      <path
         d="m 121.17351,-47.854443 h 0.55338 q 2.81576,0.927735 4.2806,3.531901 2.11589,4.296875 2.11589,8.837891 v 0.32552 q 0,6.510417 -4.80143,10.693359 -0.7487,0.244141 -1.00912,0.244141 -0.55338,0 -0.68359,-1.416016 l 0.0651,-0.130208 q -0.17903,-1.432292 -0.26041,-4.508463 h -0.11394 l 0.13021,0.260416 v -0.130208 q 0,-2.571615 0.0651,-4.6875 z m 1.54622,1.790365 v -0.423177 q 0.0651,7.340494 0.26042,11.588541 -0.0651,1.741536 -0.0651,3.580729 v 0.78125 q 0,2.457682 0.17904,4.443359 0.83008,-0.716146 2.08333,-2.750651 1.48112,-3.255208 1.48112,-6.119791 v -0.651042 q 0,-4.020182 -1.98567,-8.203124 -1.36719,-2.050782 -1.95313,-2.246094 z"
         style="font-style:normal;font-variant:normal;font-weight:normal;font-stretch:normal;font-size:33.33333206px;font-family:'Moon Flower Bold';-inkscape-font-specification:'Moon Flower Bold, ';text-align:center;text-anchor:middle;fill:#18394c;fill-opacity:1"
         id="path2908" />
      <path
         d="m 132.87598,-46.682568 h 0.26042 q 0.86263,0 0.86263,3.776042 v 0.846354 q 0,1.285807 -0.39063,6.591797 0,0.211588 0.0651,0.472005 -0.0651,3.434244 -0.0651,5.436197 v 4.231771 q 0,0.09766 0.13021,0.634766 -0.13021,0.797526 -0.66732,0.797526 h -0.26041 q -0.66732,0 -0.66732,-2.083334 0,-11.311848 0.39063,-15.576171 v -1.80664 q 0,-1.497396 -0.19532,-2.718099 0,-0.276693 0.53711,-0.602214 z"
         style="font-style:normal;font-variant:normal;font-weight:normal;font-stretch:normal;font-size:33.33333206px;font-family:'Moon Flower Bold';-inkscape-font-specification:'Moon Flower Bold, ';text-align:center;text-anchor:middle;fill:#18394c;fill-opacity:1"
         id="path2910" />
      <path
         d="m 138.55631,-48.570588 h 0.52083 q 0.19532,0.260416 1.07422,0.406901 1.41602,0.569661 2.26237,2.018229 1.13933,2.750651 1.13933,4.085286 v 0.651042 q 0,4.394531 -2.09961,6.038411 2.47395,0.585937 2.94596,6.901041 v 2.490234 q 0,0.553386 0.0814,1.774089 l -0.47201,0.309245 h -0.50455 l -0.48828,-0.374349 q -0.0814,-1.448568 -0.0814,-2.099609 v -2.34375 q 0,-2.376302 -1.4323,-4.833985 -0.8789,-0.830078 -1.48112,-0.830078 h 0.35808 q 0.0488,1.074219 0.0488,1.757813 v 2.473958 q 0.1302,3.222656 0.1302,3.645833 v 0.195313 q -0.26041,0.520833 -0.79752,0.520833 -0.30925,0 -0.7487,-0.504557 l 0.0814,-0.553386 q -0.13021,-2.734375 -0.13021,-3.629557 v -3.580729 q -0.16276,0 -0.39062,-0.537109 v -0.309245 q 0.26041,-0.520833 0.30924,-0.520833 -0.30924,-8.59375 -0.84635,-12.760416 z m 1.12305,1.562499 q 0.35807,4.410808 0.65104,10.77474 1.75781,-1.188151 1.75781,-4.850261 v -0.911458 q 0,-1.64388 -1.36719,-4.182942 -0.91145,-0.830079 -1.2858,-0.830079 z"
         style="font-style:normal;font-variant:normal;font-weight:normal;font-stretch:normal;font-size:33.33333206px;font-family:'Moon Flower Bold';-inkscape-font-specification:'Moon Flower Bold, ';text-align:center;text-anchor:middle;fill:#18394c;fill-opacity:1"
         id="path2912" />
      <path
         d="m 150.92611,-47.008089 0.14649,0.08138 q -0.45573,0 -0.45573,-0.09766 2.89713,0.260417 2.89713,0.813802 v 0.113933 q -0.21159,0.602213 -0.76497,0.602213 l -1.88802,-0.195312 q -0.13021,0 -0.83008,0.04883 l 0.0325,0.455729 q 0,1.074219 0.30925,8.284505 h 0.0651 q 0.47201,0 0.8138,-0.0651 1.52995,0.130208 2.40886,0.130208 l 0.37435,0.504557 v 0.276693 q 0,0.520833 -0.66732,0.520833 -0.58594,0 -1.88802,-0.130208 -0.86263,0.0651 -1.0905,0.0651 v -0.0651 q 0,4.589844 0.43946,10.286458 0.0814,0 0.0814,0.04883 2.0345,-0.113932 2.60416,-0.113932 0.50456,0.16276 0.71615,0.585937 v 0.130209 q 0,0.260416 -0.52083,0.585937 -2.5879,0.0651 -3.10873,0.130208 -1.2207,0 -1.2207,-1.155598 -0.45573,-6.217448 -0.45573,-10.367839 v -2.083333 q -0.32552,-5.729166 -0.32552,-7.714843 -0.19531,-0.976563 -0.19531,-1.220703 l 0.50455,-0.374349 h 0.87891 q 0.35807,0 1.13932,-0.08138 z"
         style="font-style:normal;font-variant:normal;font-weight:normal;font-stretch:normal;font-size:33.33333206px;font-family:'Moon Flower Bold';-inkscape-font-specification:'Moon Flower Bold, ';text-align:center;text-anchor:middle;fill:#18394c;fill-opacity:1"
         id="path2914" />
      <path
         d="m 161.01726,-46.617464 h 0.50456 q 1.52994,0.276693 1.52994,1.171875 0,0.260417 -0.53711,0.585938 h -0.60221 q -0.42318,-0.520833 -0.61849,-0.520833 -1.30208,0.455729 -1.30208,0.78125 -1.30209,2.473958 -1.30209,6.705728 v 1.106771 q 0,2.880859 0.78125,6.917318 0.45573,2.913411 1.22071,3.889973 0.86263,0.748698 1.44857,0.78125 0.71614,0 1.83919,-1.432291 h 0.42317 q 0.37435,0 0.60222,0.455729 v 0.195312 q 0,0.748698 -1.61133,1.774089 -0.73242,0.309245 -1.33464,0.309245 h -0.0976 q -1.12305,-0.130209 -2.27865,-1.139323 -1.25325,-0.992839 -2.13216,-7.600911 -0.32552,-1.416016 -0.32552,-4.671224 v -0.390625 q 0.11393,-6.738281 2.3112,-8.398437 1.09049,-0.520834 1.48112,-0.520834 z"
         style="font-style:normal;font-variant:normal;font-weight:normal;font-stretch:normal;font-size:33.33333206px;font-family:'Moon Flower Bold';-inkscape-font-specification:'Moon Flower Bold, ';text-align:center;text-anchor:middle;fill:#18394c;fill-opacity:1"
         id="path2916" />
      <path
         d="m 174.28223,-45.771109 0.42318,0.488281 v 0.260416 q 0,0.602214 -2.22982,0.602214 h -1.82292 q 0.19532,0 0.21159,-0.04883 l 0.13021,2.945963 q -0.0651,0.406901 -0.0651,0.439453 0.58594,9.847005 0.58594,14.046224 0.0651,0.113932 0.0651,0.325521 -0.0651,0.09766 -0.0651,0.0651 l 0.0814,0.439453 q -0.22787,0.520833 -0.61849,0.520833 h -0.26042 q -0.27669,0 -0.66732,-0.455729 0,-0.227864 0.0651,-0.732422 0,-1.383463 -0.58594,-14.046223 0,-2.050781 -0.11393,-3.580729 l 0.14648,0.08138 h -0.0651 l -2.27865,0.195312 q -0.42318,-0.455729 -0.42318,-0.846354 0,-0.276692 0.61849,-0.585937 0.56966,0.146484 0.55339,0.146484 1.25325,-0.113932 1.77409,-0.113932 h 2.66927 q 0.79752,0 1.87174,-0.146484 z"
         style="font-style:normal;font-variant:normal;font-weight:normal;font-stretch:normal;font-size:33.33333206px;font-family:'Moon Flower Bold';-inkscape-font-specification:'Moon Flower Bold, ';text-align:center;text-anchor:middle;fill:#18394c;fill-opacity:1"
         id="path2918" />
      <path
         d="m 180.67871,-47.008089 0.14648,0.08138 q -0.45573,0 -0.45573,-0.09766 2.89714,0.260417 2.89714,0.813802 v 0.113933 q -0.21159,0.602213 -0.76498,0.602213 l -1.88802,-0.195312 q -0.13021,0 -0.83008,0.04883 l 0.0326,0.455729 q 0,1.074219 0.30924,8.284505 h 0.0651 q 0.472,0 0.8138,-0.0651 1.52995,0.130208 2.40885,0.130208 l 0.37435,0.504557 v 0.276693 q 0,0.520833 -0.66732,0.520833 -0.58593,0 -1.88802,-0.130208 -0.86263,0.0651 -1.09049,0.0651 v -0.0651 q 0,4.589844 0.43945,10.286458 0.0814,0 0.0814,0.04883 2.03451,-0.113932 2.60417,-0.113932 0.50455,0.16276 0.71614,0.585937 v 0.130209 q 0,0.260416 -0.52083,0.585937 -2.58789,0.0651 -3.10872,0.130208 -1.22071,0 -1.22071,-1.155598 -0.45573,-6.217448 -0.45573,-10.367839 v -2.083333 q -0.32552,-5.729166 -0.32552,-7.714843 -0.19531,-0.976563 -0.19531,-1.220703 l 0.50456,-0.374349 h 0.8789 q 0.35808,0 1.13933,-0.08138 z"
         style="font-style:normal;font-variant:normal;font-weight:normal;font-stretch:normal;font-size:33.33333206px;font-family:'Moon Flower Bold';-inkscape-font-specification:'Moon Flower Bold, ';text-align:center;text-anchor:middle;fill:#18394c;fill-opacity:1"
         id="path2920" />
      <path
         d="m 186.8636,-47.854443 h 0.55339 q 2.81575,0.927735 4.2806,3.531901 2.11588,4.296875 2.11588,8.837891 v 0.32552 q 0,6.510417 -4.80143,10.693359 -0.7487,0.244141 -1.00911,0.244141 -0.55339,0 -0.6836,-1.416016 l 0.0651,-0.130208 q -0.17904,-1.432292 -0.26042,-4.508463 h -0.11393 l 0.13021,0.260416 v -0.130208 q 0,-2.571615 0.0651,-4.6875 z m 1.54623,1.790365 v -0.423177 q 0.0651,7.340494 0.26041,11.588541 -0.0651,1.741536 -0.0651,3.580729 v 0.78125 q 0,2.457682 0.17904,4.443359 0.83007,-0.716146 2.08333,-2.750651 1.48112,-3.255208 1.48112,-6.119791 v -0.651042 q 0,-4.020182 -1.98568,-8.203124 -1.36719,-2.050782 -1.95312,-2.246094 z"
         style="font-style:normal;font-variant:normal;font-weight:normal;font-stretch:normal;font-size:33.33333206px;font-family:'Moon Flower Bold';-inkscape-font-specification:'Moon Flower Bold, ';text-align:center;text-anchor:middle;fill:#18394c;fill-opacity:1"
         id="path2922" />
      <path
         d="m 206.83431,-46.682568 h 0.26042 q 0.86263,0 0.86263,3.776042 v 0.846354 q 0,1.285807 -0.39063,6.591797 0,0.211588 0.0651,0.472005 -0.0651,3.434244 -0.0651,5.436197 v 4.231771 q 0,0.09766 0.13021,0.634766 -0.13021,0.797526 -0.66732,0.797526 h -0.26041 q -0.66732,0 -0.66732,-2.083334 0,-11.311848 0.39062,-15.576171 v -1.80664 q 0,-1.497396 -0.19531,-2.718099 0,-0.276693 0.53711,-0.602214 z"
         style="font-style:normal;font-variant:normal;font-weight:normal;font-stretch:normal;font-size:33.33333206px;font-family:'Moon Flower Bold';-inkscape-font-specification:'Moon Flower Bold, ';text-align:center;text-anchor:middle;fill:#18394c;fill-opacity:1"
         id="path2924" />
      <path
         d="m 212.79135,-47.024365 q 0.68359,0 3.35286,9.147135 0.37435,2.083334 3.0599,10.270182 H 218.667 v -0.227864 q -0.37435,-7.910156 -0.37435,-8.886719 0,-0.292968 0.0814,-1.985677 -0.0163,-0.179036 -0.0163,-0.78125 0.13021,-1.285807 0.13021,-2.034505 v -4.638671 q 0.0814,-0.683594 0.87891,-0.683594 l 0.68359,0.358073 q -0.19531,3.857421 -0.19531,5.71289 v 1.839193 q 0,5.664062 0.35807,14.794921 l -0.65104,0.325521 q -0.8138,0 -5.12695,-14.680989 l -1.70899,-5.826823 0.60222,0.976563 0.0488,-0.944011 q 0.11394,1.350912 0.11394,2.148438 l 0.0163,0.553385 q -0.13021,3.613281 -0.13021,5.061849 0,7.27539 0.58594,12.337239 h -0.8138 q -0.76497,0 -0.76497,-0.683594 -0.37435,-5.680338 -0.37435,-10.172525 v -11.295573 q 0.11393,-0.683594 0.78125,-0.683594 z"
         style="font-style:normal;font-variant:normal;font-weight:normal;font-stretch:normal;font-size:33.33333206px;font-family:'Moon Flower Bold';-inkscape-font-specification:'Moon Flower Bold, ';text-align:center;text-anchor:middle;fill:#18394c;fill-opacity:1"
         id="path2926" />
      <path
         d="m 234.32454,-46.71512 h 0.0651 q 0.78125,0 1.05795,0.602214 v 0.325521 l -0.29297,0.439453 q -0.35807,0 -1.02539,-0.06511 -1.82292,0.195313 -2.09961,0.244141 l 0.65104,5.615234 h -0.24414 q 3.54818,0 5.33854,3.74349 0.79753,2.180989 0.79753,3.613281 0,5.354817 -3.84115,7.666015 -0.43945,0.406901 -1.02539,0.406901 -0.50456,-0.195312 -0.76497,-0.651041 v -0.195313 q 0,-0.260417 0.53711,-0.585937 0.4069,0 0.39062,-0.01628 2.19727,-1.31836 2.86458,-3.710938 0.37435,-1.106771 0.37435,-3.108724 0,-1.546224 -1.18815,-3.955078 -1.51367,-1.969401 -4.0039,-1.969401 -0.71615,0 -1.31836,-6.689452 -0.0326,-0.292969 -0.19532,-0.520834 v -0.472005 q 0,-0.260417 0.53711,-0.585937 h 0.42318 l 0.22786,0.179036 q 2.08334,-0.309245 2.73438,-0.309245 z"
         style="font-style:normal;font-variant:normal;font-weight:normal;font-stretch:normal;font-size:33.33333206px;font-family:'Moon Flower Bold';-inkscape-font-specification:'Moon Flower Bold, ';text-align:center;text-anchor:middle;fill:#18394c;fill-opacity:1"
         id="path2928" />
      <path
         d="m 254.40918,-46.536083 0.37434,0.472005 v 0.211588 q 0,0.227865 -0.58593,0.634766 h -0.79753 q -1.44857,0 -1.95312,1.057943 -0.50456,1.367187 -0.50456,3.059895 0,1.025391 0.89518,3.385417 0.29297,0.585937 3.45052,3.450521 1.70899,2.441406 1.70899,4.801432 0,1.855468 -0.79753,3.629557 -0.42318,0.960286 -2.14844,1.595052 -0.65104,0.341797 -1.10677,0.341797 -0.61849,0 -0.86263,-0.520834 v -0.227864 q 0,-0.472005 1.00912,-0.569662 1.85546,-0.699869 1.85546,-1.448567 0.58594,-1.171875 0.58594,-2.978516 0,-2.360026 -2.11588,-4.606119 -1.75782,-1.334636 -2.63672,-2.587891 -0.63477,-0.683594 -1.23698,-3.499349 0,-0.341797 -0.0651,-0.86263 0,-2.164713 0.81381,-3.857422 1.02539,-1.481119 4.11784,-1.481119 z"
         style="font-style:normal;font-variant:normal;font-weight:normal;font-stretch:normal;font-size:33.33333206px;font-family:'Moon Flower Bold';-inkscape-font-specification:'Moon Flower Bold, ';text-align:center;text-anchor:middle;fill:#18394c;fill-opacity:1"
         id="path2930" />
      <path
         d="m 262.70996,-47.008089 0.14648,0.08138 q -0.45573,0 -0.45573,-0.09766 2.89714,0.260417 2.89714,0.813802 v 0.113933 q -0.21159,0.602213 -0.76498,0.602213 l -1.88802,-0.195312 q -0.13021,0 -0.83008,0.04883 l 0.0326,0.455729 q 0,1.074219 0.30924,8.284505 h 0.0651 q 0.472,0 0.8138,-0.0651 1.52995,0.130208 2.40885,0.130208 l 0.37435,0.504557 v 0.276693 q 0,0.520833 -0.66732,0.520833 -0.58593,0 -1.88802,-0.130208 -0.86263,0.0651 -1.09049,0.0651 v -0.0651 q 0,4.589844 0.43945,10.286458 0.0814,0 0.0814,0.04883 2.03451,-0.113932 2.60417,-0.113932 0.50455,0.16276 0.71614,0.585937 v 0.130209 q 0,0.260416 -0.52083,0.585937 -2.58789,0.0651 -3.10872,0.130208 -1.22071,0 -1.22071,-1.155598 -0.45573,-6.217448 -0.45573,-10.367839 v -2.083333 q -0.32552,-5.729166 -0.32552,-7.714843 -0.19531,-0.976563 -0.19531,-1.220703 l 0.50456,-0.374349 h 0.8789 q 0.35808,0 1.13933,-0.08138 z"
         style="font-style:normal;font-variant:normal;font-weight:normal;font-stretch:normal;font-size:33.33333206px;font-family:'Moon Flower Bold';-inkscape-font-specification:'Moon Flower Bold, ';text-align:center;text-anchor:middle;fill:#18394c;fill-opacity:1"
         id="path2932" />
      <path
         d="m 272.8011,-46.617464 h 0.50456 q 1.52995,0.276693 1.52995,1.171875 0,0.260417 -0.53711,0.585938 h -0.60222 q -0.42317,-0.520833 -0.61849,-0.520833 -1.30208,0.455729 -1.30208,0.78125 -1.30208,2.473958 -1.30208,6.705728 v 1.106771 q 0,2.880859 0.78125,6.917318 0.45573,2.913411 1.2207,3.889973 0.86263,0.748698 1.44857,0.78125 0.71614,0 1.83919,-1.432291 h 0.42318 q 0.37435,0 0.60221,0.455729 v 0.195312 q 0,0.748698 -1.61133,1.774089 -0.73242,0.309245 -1.33463,0.309245 h -0.0977 q -1.12304,-0.130209 -2.27864,-1.139323 -1.25326,-0.992839 -2.13216,-7.600911 -0.32553,-1.416016 -0.32553,-4.671224 v -0.390625 q 0.11394,-6.738281 2.3112,-8.398437 1.0905,-0.520834 1.48112,-0.520834 z"
         style="font-style:normal;font-variant:normal;font-weight:normal;font-stretch:normal;font-size:33.33333206px;font-family:'Moon Flower Bold';-inkscape-font-specification:'Moon Flower Bold, ';text-align:center;text-anchor:middle;fill:#18394c;fill-opacity:1"
         id="path2934" />
      <path
         d="m 282.59928,-46.87788 q 2.21354,0 3.33659,9.082031 0.0651,0.86263 0.0651,2.180989 v 0.260417 q 0,0.260417 -0.0488,0.520833 0.0488,0.0651 0.0488,0.520833 v 0.0651 q 0,0.455729 -0.0488,0.520833 0.0488,0.260417 0.0488,0.325521 0,6.998697 -2.05078,8.723958 -0.83008,0.325521 -1.1556,0.325521 h -0.52083 q -2.653,-0.634766 -3.27149,-6.363932 l -0.19531,-2.669271 q 0,-9.244792 2.36003,-12.906901 0.78125,-0.585937 1.43229,-0.585937 z m -2.32747,13.281249 q 0,3.629557 0.96028,6.347656 0.79753,1.595052 1.23698,1.595052 h 0.0651 q 0.97656,0 1.30208,-1.578776 0.69987,-1.660156 0.69987,-7.145182 v -1.302083 q 0,-3.792318 -1.35091,-8.707682 -0.43946,-0.976562 -0.65104,-1.123047 -0.35808,0.130209 -0.45573,0.423177 -1.80664,3.82487 -1.80664,11.490885 z"
         style="font-style:normal;font-variant:normal;font-weight:normal;font-stretch:normal;font-size:33.33333206px;font-family:'Moon Flower Bold';-inkscape-font-specification:'Moon Flower Bold, ';text-align:center;text-anchor:middle;fill:#18394c;fill-opacity:1"
         id="path2936" />
      <path
         d="m 290.20019,-47.024365 q 0.68359,0 3.35287,9.147135 0.37434,2.083334 3.05989,10.270182 h -0.53711 v -0.227864 q -0.37435,-7.910156 -0.37435,-8.886719 0,-0.292968 0.0814,-1.985677 -0.0163,-0.179036 -0.0163,-0.78125 0.13021,-1.285807 0.13021,-2.034505 v -4.638671 q 0.0814,-0.683594 0.8789,-0.683594 l 0.6836,0.358073 q -0.19532,3.857421 -0.19532,5.71289 v 1.839193 q 0,5.664062 0.35808,14.794921 l -0.65105,0.325521 q -0.8138,0 -5.12695,-14.680989 l -1.70898,-5.826823 0.60221,0.976563 0.0488,-0.944011 q 0.11393,1.350912 0.11393,2.148438 l 0.0163,0.553385 q -0.13021,3.613281 -0.13021,5.061849 0,7.27539 0.58594,12.337239 h -0.81381 q -0.76497,0 -0.76497,-0.683594 -0.37435,-5.680338 -0.37435,-10.172525 v -11.295573 q 0.11393,-0.683594 0.78125,-0.683594 z"
         style="font-style:normal;font-variant:normal;font-weight:normal;font-stretch:normal;font-size:33.33333206px;font-family:'Moon Flower Bold';-inkscape-font-specification:'Moon Flower Bold, ';text-align:center;text-anchor:middle;fill:#18394c;fill-opacity:1"
         id="path2938" />
      <path
         d="m 300.53548,-47.854443 h 0.55338 q 2.81576,0.927735 4.2806,3.531901 2.11589,4.296875 2.11589,8.837891 v 0.32552 q 0,6.510417 -4.80144,10.693359 -0.74869,0.244141 -1.00911,0.244141 -0.55339,0 -0.68359,-1.416016 l 0.0651,-0.130208 q -0.17904,-1.432292 -0.26042,-4.508463 h -0.11393 l 0.13021,0.260416 v -0.130208 q 0,-2.571615 0.0651,-4.6875 z m 1.54622,1.790365 v -0.423177 q 0.0651,7.340494 0.26042,11.588541 -0.0651,1.741536 -0.0651,3.580729 v 0.78125 q 0,2.457682 0.17904,4.443359 0.83008,-0.716146 2.08333,-2.750651 1.48112,-3.255208 1.48112,-6.119791 v -0.651042 q 0,-4.020182 -1.98567,-8.203124 -1.36719,-2.050782 -1.95313,-2.246094 z"
         style="font-style:normal;font-variant:normal;font-weight:normal;font-stretch:normal;font-size:33.33333206px;font-family:'Moon Flower Bold';-inkscape-font-specification:'Moon Flower Bold, ';text-align:center;text-anchor:middle;fill:#18394c;fill-opacity:1"
         id="path2940" />
      <path
         d="m 314.76074,-46.536083 0.37435,0.472005 v 0.211588 q 0,0.227865 -0.58594,0.634766 h -0.79753 q -1.44856,0 -1.95312,1.057943 -0.50456,1.367187 -0.50456,3.059895 0,1.025391 0.89518,3.385417 0.29297,0.585937 3.45052,3.450521 1.70899,2.441406 1.70899,4.801432 0,1.855468 -0.79753,3.629557 -0.42317,0.960286 -2.14844,1.595052 -0.65104,0.341797 -1.10677,0.341797 -0.61849,0 -0.86263,-0.520834 v -0.227864 q 0,-0.472005 1.00912,-0.569662 1.85547,-0.699869 1.85547,-1.448567 0.58593,-1.171875 0.58593,-2.978516 0,-2.360026 -2.11588,-4.606119 -1.75781,-1.334636 -2.63672,-2.587891 -0.63477,-0.683594 -1.23698,-3.499349 0,-0.341797 -0.0651,-0.86263 0,-2.164713 0.8138,-3.857422 1.02539,-1.481119 4.11784,-1.481119 z"
         style="font-style:normal;font-variant:normal;font-weight:normal;font-stretch:normal;font-size:33.33333206px;font-family:'Moon Flower Bold';-inkscape-font-specification:'Moon Flower Bold, ';text-align:center;text-anchor:middle;fill:#18394c;fill-opacity:1"
         id="path2942" />
      <path
         d="m 47.589523,2.4548021 h 0.341796 q 0.390625,0 0.667318,0.6835937 v 0.1464844 q 0,0.2766927 -0.537109,1.578776 -1.025391,3.9062498 -1.025391,8.2194008 0,4.524739 2.001953,13.134765 0.455729,1.39974 2.09961,4.296875 v 0.195312 q -0.179037,0.651042 -0.585938,0.797526 -0.846354,0 -2.42513,-3.531901 -1.220703,-3.173828 -2.360026,-11.26302 -0.195312,-3.20638 -0.195312,-3.727213 0,-5.7128907 1.595052,-10.0585937 z"
         style="font-style:normal;font-variant:normal;font-weight:normal;font-stretch:normal;font-size:33.33333206px;font-family:'Moon Flower Bold';-inkscape-font-specification:'Moon Flower Bold, ';text-align:center;text-anchor:middle;fill:#18394c;fill-opacity:1"
         id="path2944" />
      <path
         d="m 56.06934,3.1221198 q 2.213541,0 3.336588,9.0820312 0.0651,0.86263 0.0651,2.180989 v 0.260417 q 0,0.260417 -0.04883,0.520833 0.04883,0.0651 0.04883,0.520833 v 0.06511 q 0,0.455729 -0.04883,0.520833 0.04883,0.260417 0.04883,0.325521 0,6.998697 -2.050781,8.723958 -0.830078,0.325521 -1.155599,0.325521 h -0.520833 q -2.652995,-0.634766 -3.271484,-6.363932 l -0.195313,-2.669271 q 0,-9.2447915 2.360026,-12.9069007 0.78125,-0.5859375 1.432292,-0.5859375 z M 53.741866,16.403369 q 0,3.629557 0.960286,6.347656 0.797526,1.595052 1.236979,1.595052 h 0.0651 q 0.976562,0 1.302083,-1.578776 0.69987,-1.660156 0.69987,-7.145182 v -1.302083 q 0,-3.792318 -1.350912,-8.7076819 -0.439453,-0.9765625 -0.651041,-1.1230469 -0.358073,0.1302084 -0.45573,0.4231771 -1.80664,3.8248696 -1.80664,11.4908847 z"
         style="font-style:normal;font-variant:normal;font-weight:normal;font-stretch:normal;font-size:33.33333206px;font-family:'Moon Flower Bold';-inkscape-font-specification:'Moon Flower Bold, ';text-align:center;text-anchor:middle;fill:#18394c;fill-opacity:1"
         id="path2946" />
      <path
         d="m 63.393559,1.4294115 h 0.520833 q 0.195313,0.2604167 1.074219,0.406901 1.416016,0.5696615 2.26237,2.0182291 1.139323,2.750651 1.139323,4.0852863 v 0.6510417 q 0,4.3945314 -2.09961,6.0384114 2.473959,0.585937 2.945964,6.901041 v 2.490234 q 0,0.553386 0.08138,1.774089 l -0.472005,0.309245 h -0.504557 l -0.488282,-0.374349 q -0.08138,-1.448568 -0.08138,-2.099609 v -2.34375 q 0,-2.376302 -1.432291,-4.833985 -0.878907,-0.830078 -1.48112,-0.830078 h 0.358073 q 0.04883,1.074219 0.04883,1.757813 v 2.473958 q 0.130208,3.222656 0.130208,3.645833 v 0.195313 q -0.260416,0.520833 -0.797526,0.520833 -0.309245,0 -0.748698,-0.504557 l 0.08138,-0.553386 Q 63.80046,20.423551 63.80046,19.528369 V 15.94764 q -0.16276,0 -0.390625,-0.537109 V 15.101286 Q 63.670252,14.580453 63.71908,14.580453 63.409835,5.986703 62.872726,1.8200365 Z m 1.123047,1.5625 Q 64.874679,7.4027186 65.167648,13.766651 66.92546,12.5785 66.92546,8.9163904 V 8.0049321 q 0,-1.6438801 -1.367187,-4.1829426 -0.911459,-0.830078 -1.285808,-0.830078 z"
         style="font-style:normal;font-variant:normal;font-weight:normal;font-stretch:normal;font-size:33.33333206px;font-family:'Moon Flower Bold';-inkscape-font-specification:'Moon Flower Bold, ';text-align:center;text-anchor:middle;fill:#18394c;fill-opacity:1"
         id="path2948" />
      <path
         d="m 84.747726,3.3825364 h 0.504557 q 1.529948,0.2766927 1.529948,1.171875 0,0.2604167 -0.53711,0.5859375 H 85.642908 Q 85.219731,4.6195156 85.024418,4.6195156 83.722335,5.0752447 83.722335,5.4007655 82.420252,7.8747238 82.420252,12.106494 v 1.106771 q 0,2.880859 0.78125,6.917318 0.455729,2.913411 1.220703,3.889973 0.86263,0.748698 1.448568,0.78125 0.716145,0 1.839192,-1.432291 h 0.423177 q 0.374349,0 0.602214,0.455729 v 0.195312 q 0,0.748698 -1.611328,1.774089 -0.732422,0.309245 -1.334636,0.309245 h -0.09766 Q 84.568689,25.973681 83.41309,24.964567 82.159835,23.971728 81.280929,17.363656 80.955408,15.94764 80.955408,12.692432 v -0.390625 q 0.113932,-6.7382811 2.311198,-8.3984372 1.090495,-0.5208334 1.48112,-0.5208334 z"
         style="font-style:normal;font-variant:normal;font-weight:normal;font-stretch:normal;font-size:33.33333206px;font-family:'Moon Flower Bold';-inkscape-font-specification:'Moon Flower Bold, ';text-align:center;text-anchor:middle;fill:#18394c;fill-opacity:1"
         id="path2950" />
      <path
         d="m 92.283533,2.0804532 h 0.0651 q 0.358073,0 0.667318,0.5045572 0,0.7324219 0.0651,0.7324219 L 92.950851,3.0570156 q 0.455729,7.1614584 0.455729,12.0279944 0.195312,1.578776 0.195312,4.378255 v 5.338541 h 3.108724 q 0.374349,0 0.602214,0.45573 v 0.260416 q 0,0.585938 -1.513672,0.585938 h -2.994792 q -0.341796,0 -0.667317,-0.504558 v -0.472005 q 0,-0.78125 0.03255,-0.78125 l -0.03255,-0.439453 v -4.76888 Q 91.876632,10.576547 91.616215,4.8962083 L 91.420903,2.6989427 q 0.195312,-0.6184895 0.86263,-0.6184895 z"
         style="font-style:normal;font-variant:normal;font-weight:normal;font-stretch:normal;font-size:33.33333206px;font-family:'Moon Flower Bold';-inkscape-font-specification:'Moon Flower Bold, ';text-align:center;text-anchor:middle;fill:#18394c;fill-opacity:1"
         id="path2952" />
      <path
         d="m 102.30957,3.3174323 h 0.26042 q 0.86263,0 0.86263,3.7760415 v 0.8463541 q 0,1.2858073 -0.39062,6.5917971 0,0.211588 0.0651,0.472005 -0.0651,3.434244 -0.0651,5.436197 v 4.231771 q 0,0.09766 0.1302,0.634766 -0.1302,0.797526 -0.66731,0.797526 h -0.26042 q -0.66732,0 -0.66732,-2.083334 0,-11.311848 0.39063,-15.5761708 V 6.6377446 q 0,-1.4973957 -0.19531,-2.7180988 0,-0.2766927 0.5371,-0.6022135 z"
         style="font-style:normal;font-variant:normal;font-weight:normal;font-stretch:normal;font-size:33.33333206px;font-family:'Moon Flower Bold';-inkscape-font-specification:'Moon Flower Bold, ';text-align:center;text-anchor:middle;fill:#18394c;fill-opacity:1"
         id="path2954" />
      <path
         d="m 111.37533,3.3825364 h 0.50455 q 1.52995,0.2766927 1.52995,1.171875 0,0.2604167 -0.53711,0.5859375 h -0.60221 q -0.42318,-0.5208333 -0.61849,-0.5208333 -1.30208,0.4557291 -1.30208,0.7812499 -1.30209,2.4739583 -1.30209,6.7057285 v 1.106771 q 0,2.880859 0.78125,6.917318 0.45573,2.913411 1.22071,3.889973 0.86263,0.748698 1.44856,0.78125 0.71615,0 1.8392,-1.432291 h 0.42317 q 0.37435,0 0.60222,0.455729 v 0.195312 q 0,0.748698 -1.61133,1.774089 -0.73242,0.309245 -1.33464,0.309245 h -0.0977 q -1.12305,-0.130209 -2.27865,-1.139323 -1.25325,-0.992839 -2.13216,-7.600911 -0.32552,-1.416016 -0.32552,-4.671224 v -0.390625 q 0.11393,-6.7382811 2.3112,-8.3984372 1.09049,-0.5208334 1.48112,-0.5208334 z"
         style="font-style:normal;font-variant:normal;font-weight:normal;font-stretch:normal;font-size:33.33333206px;font-family:'Moon Flower Bold';-inkscape-font-specification:'Moon Flower Bold, ';text-align:center;text-anchor:middle;fill:#18394c;fill-opacity:1"
         id="path2956" />
      <path
         d="m 122.50814,2.2757656 q 0.83008,0 1.02539,0.5371094 v 0.3743489 q 0,2.8971354 -1.30208,7.6822911 -0.26042,1.253255 -1.00912,4.036459 0.76498,0 3.14128,6.429036 0.55338,1.64388 0.92773,4.036458 v 0.211588 q 0,0.276693 -0.48828,0.520834 h -0.42318 q -0.61849,-0.309245 -0.61849,-0.846354 v -0.06511 q 0,-0.390625 -0.0163,-0.390625 -0.7487,-3.515624 -1.72526,-5.566406 -1.33464,-3.157552 -1.39974,-3.157552 l 0.58594,9.716797 -0.47201,0.309245 h -0.4069 q -0.30924,0 -0.73242,-0.569662 v -0.146484 q 0,-0.244141 0.13021,-0.455729 -0.60222,-10.514323 -1.10677,-15.1367184 -0.91146,-5.1920571 -0.91146,-6.6080727 V 2.9919115 q 0,-0.2604167 0.53711,-0.5859375 h 0.26041 q 0.3418,0 0.66732,0.5045573 v 0.3906249 q 0.19531,1.8554687 1.17188,8.7727858 0.19531,2.26237 0.19531,2.311198 h -0.66732 q 2.19727,-8.5123693 2.19727,-10.4166661 V 3.3174323 q 0,-0.048828 -0.0814,-0.6510417 z"
         style="font-style:normal;font-variant:normal;font-weight:normal;font-stretch:normal;font-size:33.33333206px;font-family:'Moon Flower Bold';-inkscape-font-specification:'Moon Flower Bold, ';text-align:center;text-anchor:middle;fill:#18394c;fill-opacity:1"
         id="path2958" />
      <path
         d="m 141.32325,1.3805834 h 0.4069 q 0.55338,0.2766927 0.55338,0.6510416 0,3.0761718 -0.13021,4.752604 l 0.13021,6.689453 q 0.13021,0.227864 0.13021,0.439453 -0.16276,0.488281 -0.11393,0.488281 0.11393,2.701823 0.17904,10.302734 -0.0651,0.358073 -0.0651,1.432292 l -0.45573,0.309245 h -0.50456 l -0.50455,-0.390625 q 0,-0.846355 0.0651,-1.253256 -0.0651,-8.886718 -0.17903,-10.31901 -2.5879,0.04883 -2.63672,0.0651 0.11393,0.992838 0.11393,2.197265 0,2.604167 -0.0651,4.557292 0.0651,1.10677 0.0651,4.459635 -0.48828,0.292969 -0.79753,0.292969 -0.35807,0 -0.66731,-0.520834 v -0.651041 q 0,-2.652995 -0.0651,-3.580729 0.0651,-1.595052 0.0651,-3.90625 v -0.976563 q -0.19532,-3.173828 -0.19532,-4.427083 0.19532,-7.2591142 0.19532,-9.2122391 -0.0651,-0.2604166 -0.0651,-0.6347656 l 0.50456,-0.3743489 h 0.42318 q 0.60221,0.3580729 0.60221,0.8463541 0,1.2207031 -0.19531,9.7656245 v 1.106771 l -0.11394,-0.227865 q 0.11394,-0.03255 2.79948,-0.08138 -0.0488,-2.050781 -0.0488,-3.076172 V 7.1097498 q 0,-0.08138 -0.0977,-0.2441406 l 0.0977,-0.2115885 q 0.0651,-3.0598957 0.0651,-4.8990884 z"
         style="font-style:normal;font-variant:normal;font-weight:normal;font-stretch:normal;font-size:33.33333206px;font-family:'Moon Flower Bold';-inkscape-font-specification:'Moon Flower Bold, ';text-align:center;text-anchor:middle;fill:#18394c;fill-opacity:1"
         id="path2960" />
      <path
         d="m 149.26595,2.9919115 0.14649,0.08138 q -0.45573,0 -0.45573,-0.097656 2.89714,0.2604167 2.89714,0.8138021 v 0.1139323 q -0.21159,0.6022135 -0.76498,0.6022135 l -1.88802,-0.1953125 q -0.13021,0 -0.83008,0.048828 l 0.0326,0.4557292 q 0,1.0742187 0.30925,8.2845049 h 0.0651 q 0.47201,0 0.81381,-0.0651 1.52994,0.130208 2.40885,0.130208 l 0.37435,0.504557 v 0.276693 q 0,0.520833 -0.66732,0.520833 -0.58594,0 -1.88802,-0.130208 -0.86263,0.0651 -1.09049,0.0651 v -0.0651 q 0,4.589844 0.43945,10.286458 0.0814,0 0.0814,0.04883 2.0345,-0.113932 2.60417,-0.113932 0.50455,0.16276 0.71614,0.585937 v 0.130209 q 0,0.260416 -0.52083,0.585937 -2.58789,0.0651 -3.10873,0.130208 -1.2207,0 -1.2207,-1.155598 Q 147.264,18.616911 147.264,14.46652 v -2.083333 q -0.32552,-5.7291663 -0.32552,-7.7148433 -0.19531,-0.9765625 -0.19531,-1.2207031 l 0.50456,-0.3743489 h 0.8789 q 0.35807,0 1.13932,-0.08138 z"
         style="font-style:normal;font-variant:normal;font-weight:normal;font-stretch:normal;font-size:33.33333206px;font-family:'Moon Flower Bold';-inkscape-font-specification:'Moon Flower Bold, ';text-align:center;text-anchor:middle;fill:#18394c;fill-opacity:1"
         id="path2962" />
      <path
         d="m 155.97168,1.4294115 h 0.52084 q 0.19531,0.2604167 1.07422,0.406901 1.41601,0.5696615 2.26237,2.0182291 1.13932,2.750651 1.13932,4.0852863 v 0.6510417 q 0,4.3945314 -2.09961,6.0384114 2.47396,0.585937 2.94596,6.901041 v 2.490234 q 0,0.553386 0.0814,1.774089 l -0.472,0.309245 h -0.50456 l -0.48828,-0.374349 q -0.0814,-1.448568 -0.0814,-2.099609 v -2.34375 q 0,-2.376302 -1.43229,-4.833985 -0.87891,-0.830078 -1.48112,-0.830078 h 0.35807 q 0.0488,1.074219 0.0488,1.757813 v 2.473958 q 0.13021,3.222656 0.13021,3.645833 v 0.195313 q -0.26042,0.520833 -0.79753,0.520833 -0.30924,0 -0.7487,-0.504557 l 0.0814,-0.553386 q -0.1302,-2.734375 -0.1302,-3.629557 V 15.94764 q -0.16277,0 -0.39063,-0.537109 v -0.309245 q 0.26042,-0.520833 0.30924,-0.520833 -0.30924,-8.59375 -0.84635,-12.7604165 z m 1.12305,1.5625 q 0.35807,4.4108071 0.65104,10.7747395 1.75782,-1.188151 1.75782,-4.8502606 V 8.0049321 q 0,-1.6438801 -1.36719,-4.1829426 -0.91146,-0.830078 -1.28581,-0.830078 z"
         style="font-style:normal;font-variant:normal;font-weight:normal;font-stretch:normal;font-size:33.33333206px;font-family:'Moon Flower Bold';-inkscape-font-specification:'Moon Flower Bold, ';text-align:center;text-anchor:middle;fill:#18394c;fill-opacity:1"
         id="path2964" />
      <path
         d="m 168.34147,2.9919115 0.14648,0.08138 q -0.45572,0 -0.45572,-0.097656 2.89713,0.2604167 2.89713,0.8138021 v 0.1139323 q -0.21159,0.6022135 -0.76497,0.6022135 l -1.88802,-0.1953125 q -0.13021,0 -0.83008,0.048828 l 0.0325,0.4557292 q 0,1.0742187 0.30925,8.2845049 h 0.0651 q 0.472,0 0.8138,-0.0651 1.52995,0.130208 2.40886,0.130208 l 0.37434,0.504557 v 0.276693 q 0,0.520833 -0.66731,0.520833 -0.58594,0 -1.88802,-0.130208 -0.86263,0.0651 -1.0905,0.0651 v -0.0651 q 0,4.589844 0.43945,10.286458 0.0814,0 0.0814,0.04883 2.03451,-0.113932 2.60417,-0.113932 0.50456,0.16276 0.71615,0.585937 v 0.130209 q 0,0.260416 -0.52084,0.585937 -2.58789,0.0651 -3.10872,0.130208 -1.2207,0 -1.2207,-1.155598 -0.45573,-6.217448 -0.45573,-10.367839 V 12.383187 Q 166.014,6.6540207 166.014,4.6683437 165.81868,3.6917812 165.81868,3.4476406 l 0.50456,-0.3743489 h 0.87891 q 0.35807,0 1.13932,-0.08138 z"
         style="font-style:normal;font-variant:normal;font-weight:normal;font-stretch:normal;font-size:33.33333206px;font-family:'Moon Flower Bold';-inkscape-font-specification:'Moon Flower Bold, ';text-align:center;text-anchor:middle;fill:#18394c;fill-opacity:1"
         id="path2966" />
      <path
         d="m 189.61426,4.2288906 0.42318,0.4882812 v 0.2604167 q 0,0.6022135 -2.22982,0.6022135 h -1.82292 q 0.19532,0 0.21159,-0.048828 l 0.13021,2.9459634 q -0.0651,0.406901 -0.0651,0.4394531 0.58594,9.8470046 0.58594,14.0462236 0.0651,0.113932 0.0651,0.325521 -0.0651,0.09766 -0.0651,0.0651 l 0.0814,0.439453 q -0.22787,0.520833 -0.61849,0.520833 h -0.26042 q -0.27669,0 -0.66732,-0.455729 0,-0.227864 0.0651,-0.732422 0,-1.383463 -0.58594,-14.0462232 0,-2.0507812 -0.11393,-3.580729 l 0.14648,0.08138 h -0.0651 l -2.27865,0.1953125 q -0.42318,-0.4557292 -0.42318,-0.8463542 0,-0.2766927 0.61849,-0.5859374 0.56966,0.1464843 0.55339,0.1464843 1.25325,-0.1139323 1.77409,-0.1139323 h 2.66927 q 0.79752,0 1.87174,-0.1464843 z"
         style="font-style:normal;font-variant:normal;font-weight:normal;font-stretch:normal;font-size:33.33333206px;font-family:'Moon Flower Bold';-inkscape-font-specification:'Moon Flower Bold, ';text-align:center;text-anchor:middle;fill:#18394c;fill-opacity:1"
         id="path2968" />
      <path
         d="m 196.1735,3.1221198 q 2.21354,0 3.33659,9.0820312 0.0651,0.86263 0.0651,2.180989 v 0.260417 q 0,0.260417 -0.0488,0.520833 0.0488,0.0651 0.0488,0.520833 v 0.06511 q 0,0.455729 -0.0488,0.520833 0.0488,0.260417 0.0488,0.325521 0,6.998697 -2.05078,8.723958 -0.83008,0.325521 -1.1556,0.325521 h -0.52083 q -2.653,-0.634766 -3.27149,-6.363932 l -0.19531,-2.669271 q 0,-9.2447915 2.36003,-12.9069007 0.78125,-0.5859375 1.43229,-0.5859375 z m -2.32748,13.2812492 q 0,3.629557 0.96029,6.347656 0.79753,1.595052 1.23698,1.595052 h 0.0651 q 0.97657,0 1.30209,-1.578776 0.69987,-1.660156 0.69987,-7.145182 v -1.302083 q 0,-3.792318 -1.35092,-8.7076819 -0.43945,-0.9765625 -0.65104,-1.1230469 -0.35807,0.1302084 -0.45573,0.4231771 -1.80664,3.8248696 -1.80664,11.4908847 z"
         style="font-style:normal;font-variant:normal;font-weight:normal;font-stretch:normal;font-size:33.33333206px;font-family:'Moon Flower Bold';-inkscape-font-specification:'Moon Flower Bold, ';text-align:center;text-anchor:middle;fill:#18394c;fill-opacity:1"
         id="path2970" />
      <path
         d="m 215.10254,4.0986822 h 0.14648 q 1.46485,0 2.36003,1.1393229 v 0.2278646 q 0,0.2604167 -0.53711,0.5859375 -0.4069,0 -1.20443,-0.5045573 -0.29297,-0.1464844 -0.68359,-0.1464844 h -0.19531 q -1.61133,0.390625 -1.61133,10.8072915 0,4.980468 1.1556,7.568359 0.30924,0.667318 1.20442,1.02539 h 0.11394 q 0.8138,-0.16276 0.8138,-0.976562 0.26041,0 0.65104,-3.597005 v -3.157552 -0.01628 q 0.68359,0 0.68359,0.09766 -3.41797,-0.260416 -3.41797,-0.732422 l -0.0651,-0.325521 v -0.08138 q 0,-0.276692 0.48828,-0.520833 h 0.47201 q 0.22786,0.179036 2.8483,0.406901 0.45573,0.455729 0.45573,1.546224 v 1.627604 q 0,0.390625 -0.0651,0.992839 0.0651,0.113932 0.0651,0.260416 -0.472,5.452474 -1.49739,5.452474 0,0.0651 -1.33464,0.325521 h -0.35807 q -1.26953,-0.292969 -2.19727,-1.416016 -1.48112,-2.799479 -1.48112,-8.544921 0,-10.9212239 2.42513,-11.9628905 z"
         style="font-style:normal;font-variant:normal;font-weight:normal;font-stretch:normal;font-size:33.33333206px;font-family:'Moon Flower Bold';-inkscape-font-specification:'Moon Flower Bold, ';text-align:center;text-anchor:middle;fill:#18394c;fill-opacity:1"
         id="path2972" />
      <path
         d="m 226.51204,3.1221198 q 2.21355,0 3.33659,9.0820312 0.0651,0.86263 0.0651,2.180989 v 0.260417 q 0,0.260417 -0.0488,0.520833 0.0488,0.0651 0.0488,0.520833 v 0.06511 q 0,0.455729 -0.0488,0.520833 0.0488,0.260417 0.0488,0.325521 0,6.998697 -2.05079,8.723958 -0.83007,0.325521 -1.15559,0.325521 h -0.52084 q -2.65299,-0.634766 -3.27148,-6.363932 l -0.19531,-2.669271 q 0,-9.2447915 2.36002,-12.9069007 0.78125,-0.5859375 1.43229,-0.5859375 z m -2.32747,13.2812492 q 0,3.629557 0.96029,6.347656 0.79752,1.595052 1.23698,1.595052 h 0.0651 q 0.97656,0 1.30208,-1.578776 0.69987,-1.660156 0.69987,-7.145182 v -1.302083 q 0,-3.792318 -1.35091,-8.7076819 -0.43945,-0.9765625 -0.65104,-1.1230469 -0.35807,0.1302084 -0.45573,0.4231771 -1.80664,3.8248696 -1.80664,11.4908847 z"
         style="font-style:normal;font-variant:normal;font-weight:normal;font-stretch:normal;font-size:33.33333206px;font-family:'Moon Flower Bold';-inkscape-font-specification:'Moon Flower Bold, ';text-align:center;text-anchor:middle;fill:#18394c;fill-opacity:1"
         id="path2974" />
      <path
         d="m 242.38119,2.9756354 q 0.68359,0 3.35286,9.1471346 0.37435,2.083334 3.0599,10.270182 h -0.53711 v -0.227864 q -0.37435,-7.910156 -0.37435,-8.886719 0,-0.292968 0.0814,-1.985677 -0.0163,-0.179036 -0.0163,-0.78125 0.1302,-1.2858068 0.1302,-2.0345047 V 3.8382656 q 0.0814,-0.6835937 0.87891,-0.6835937 l 0.68359,0.3580729 q -0.19531,3.8574217 -0.19531,5.7128904 v 1.8391928 q 0,5.664062 0.35807,14.794921 l -0.65104,0.325521 q -0.8138,0 -5.12695,-14.680989 l -1.70898,-5.8268228 0.60221,0.9765625 0.0488,-0.9440104 q 0.11393,1.3509114 0.11393,2.1484374 l 0.0163,0.5533854 q -0.13021,3.6132809 -0.13021,5.0618489 0,7.27539 0.58593,12.337239 h -0.8138 q -0.76497,0 -0.76497,-0.683594 -0.37435,-5.680338 -0.37435,-10.172525 V 3.6592291 q 0.11393,-0.6835937 0.78125,-0.6835937 z"
         style="font-style:normal;font-variant:normal;font-weight:normal;font-stretch:normal;font-size:33.33333206px;font-family:'Moon Flower Bold';-inkscape-font-specification:'Moon Flower Bold, ';text-align:center;text-anchor:middle;fill:#18394c;fill-opacity:1"
         id="path2976" />
      <path
         d="m 256.06934,3.1221198 q 2.21354,0 3.33659,9.0820312 0.0651,0.86263 0.0651,2.180989 v 0.260417 q 0,0.260417 -0.0488,0.520833 0.0488,0.0651 0.0488,0.520833 v 0.06511 q 0,0.455729 -0.0488,0.520833 0.0488,0.260417 0.0488,0.325521 0,6.998697 -2.05078,8.723958 -0.83008,0.325521 -1.1556,0.325521 h -0.52083 q -2.653,-0.634766 -3.27148,-6.363932 l -0.19532,-2.669271 q 0,-9.2447915 2.36003,-12.9069007 0.78125,-0.5859375 1.43229,-0.5859375 z m -2.32747,13.2812492 q 0,3.629557 0.96028,6.347656 0.79753,1.595052 1.23698,1.595052 h 0.0651 q 0.97656,0 1.30208,-1.578776 0.69987,-1.660156 0.69987,-7.145182 v -1.302083 q 0,-3.792318 -1.35091,-8.7076819 -0.43946,-0.9765625 -0.65104,-1.1230469 -0.35808,0.1302084 -0.45573,0.4231771 -1.80664,3.8248696 -1.80664,11.4908847 z"
         style="font-style:normal;font-variant:normal;font-weight:normal;font-stretch:normal;font-size:33.33333206px;font-family:'Moon Flower Bold';-inkscape-font-specification:'Moon Flower Bold, ';text-align:center;text-anchor:middle;fill:#18394c;fill-opacity:1"
         id="path2978" />
      <path
         d="m 272.24773,4.0335781 h 0.34179 q 0.37435,0 0.60222,0.4720052 -0.71615,14.2252597 -0.91146,19.6126297 -0.26042,1.464843 -0.86263,1.464843 h -0.13021 q -0.66732,0 -1.62761,-3.515624 -1.70898,-5.517578 -1.70898,-5.794271 h 0.73242 q -0.50455,7.242838 -0.50455,9.521484 l -0.45573,0.309245 h -0.3418 q -0.63477,0 -0.92774,-2.506511 -1.43229,-6.722005 -2.81575,-17.1549468 -0.0326,0 -0.30925,-1.2044271 0,-0.2929687 0.53711,-0.6184895 h 0.39063 q 0.66732,0 1.12305,4.0039061 1.17187,7.6985673 1.5625,9.8144523 l 0.60221,3.238933 h -0.68359 q 0.52083,-8.317057 0.78125,-9.000651 l 0.60221,-0.113932 q 0.7487,0 1.04167,2.832031 0.30924,1.546224 1.67643,6.022135 l 0.472,1.627604 -0.55338,0.276693 q 0.39062,-11.507161 0.92773,-18.9941402 z"
         style="font-style:normal;font-variant:normal;font-weight:normal;font-stretch:normal;font-size:33.33333206px;font-family:'Moon Flower Bold';-inkscape-font-specification:'Moon Flower Bold, ';text-align:center;text-anchor:middle;fill:#18394c;fill-opacity:1"
         id="path2980" />
      <path
         d="m 275.73079,2.796599 h 0.29297 q 0.42318,0 1.02539,1.4485676 1.18815,1.8066406 1.98568,5.3059894 0.78125,3.710937 0.78125,6.624349 v 1.171875 q 0,7.861327 -2.03451,12.711588 l -0.63476,0.195312 q -0.61849,-0.309245 -0.61849,-0.602213 v -0.227865 q 1.82292,-5.078125 1.82292,-11.507161 v -1.741536 q 0,-4.085287 -1.48112,-8.9680989 L 275.22624,3.7731614 V 3.4476406 q 0,-0.2766927 0.50455,-0.6510416 z"
         style="font-style:normal;font-variant:normal;font-weight:normal;font-stretch:normal;font-size:33.33333206px;font-family:'Moon Flower Bold';-inkscape-font-specification:'Moon Flower Bold, ';text-align:center;text-anchor:middle;fill:#18394c;fill-opacity:1"
         id="path2982" />
    </g>
    <rect
       style="opacity:1;fill:#ffffff;fill-opacity:1;stroke:none;stroke-width:0.18751344;stroke-linecap:round;stroke-linejoin:round;stroke-miterlimit:4;stroke-dasharray:none;stroke-opacity:1"
       id="rect7086"
       width="146.65475"
       height="20.599701"
       x="86.672623"
       y="1012.2198" />
    <flowRoot
       xml:space="preserve"
       id="flowRoot844"
       style="font-style:normal;font-weight:normal;font-size:16px;line-height:1.25;font-family:sans-serif;letter-spacing:0px;word-spacing:0px;fill:#000000;fill-opacity:1;stroke:none"
       transform="translate(0,972.5197)"><flowRegion
         id="flowRegion846"
         style="font-size:16px"><rect
           id="rect848"
           width="220.71428"
           height="139.64285"
           x="26.428572"
           y="10.357142"
           style="font-size:16px" /></flowRegion><flowPara
         id="flowPara850"></flowPara></flowRoot>    <path
       style="fill:none;stroke:#18394c;stroke-width:1.51181102;stroke-linecap:round;stroke-linejoin:miter;stroke-miterlimit:4;stroke-dasharray:none;stroke-opacity:1"
       d="m 130.2109,1112.2437 h 40.82477"
       id="path2761"
       inkscape:connector-curvature="0" />
  </g>
</svg>
