<?xml version="1.0" encoding="UTF-8" standalone="no"?>
<!-- Created with Inkscape (http://www.inkscape.org/) -->

<svg
   xmlns:dc="http://purl.org/dc/elements/1.1/"
   xmlns:cc="http://creativecommons.org/ns#"
   xmlns:rdf="http://www.w3.org/1999/02/22-rdf-syntax-ns#"
   xmlns:svg="http://www.w3.org/2000/svg"
   xmlns="http://www.w3.org/2000/svg"
   xmlns:sodipodi="http://sodipodi.sourceforge.net/DTD/sodipodi-0.dtd"
   xmlns:inkscape="http://www.inkscape.org/namespaces/inkscape"
   width="300"
   height="30"
   viewBox="0 0 300.00001 30"
   version="1.1"
   id="svg6533"
   sodipodi:docname="Text_WillYouBeJoiningUs_Blue.svg"
   inkscape:version="0.92.3 (2405546, 2018-03-11)">
  <defs
     id="defs6527" />
  <sodipodi:namedview
     id="base"
     pagecolor="#ffffff"
     bordercolor="#666666"
     borderopacity="1.0"
     inkscape:pageopacity="0.0"
     inkscape:pageshadow="2"
     inkscape:zoom="2.8"
     inkscape:cx="-19.261146"
     inkscape:cy="-110.76578"
     inkscape:document-units="px"
     inkscape:current-layer="layer1"
     showgrid="false"
     units="px"
     inkscape:window-width="1842"
     inkscape:window-height="1051"
     inkscape:window-x="-9"
     inkscape:window-y="-9"
     inkscape:window-maximized="1" />
  <metadata
     id="metadata6530">
    <rdf:RDF>
      <cc:Work
         rdf:about="">
        <dc:format>image/svg+xml</dc:format>
        <dc:type
           rdf:resource="http://purl.org/dc/dcmitype/StillImage" />
        <dc:title />
      </cc:Work>
    </rdf:RDF>
  </metadata>
  <g
     inkscape:label="Layer 1"
     inkscape:groupmode="layer"
     id="layer1"
     transform="translate(0,-1092.5197)">
    <rect
       style="opacity:1;fill:#ffffff;fill-opacity:1;stroke:none;stroke-width:0.18751344;stroke-linecap:round;stroke-linejoin:round;stroke-miterlimit:4;stroke-dasharray:none;stroke-opacity:1"
       id="rect7086"
       width="146.65475"
       height="20.599701"
       x="6.8035712"
       y="61.70982" />
    <g
       aria-label="will you be joining us?"
       transform="matrix(0.26458333,0,0,0.26458333,-15.137203,1029.4886)"
       style="font-style:normal;font-weight:normal;font-size:125.98425293px;line-height:1.25;font-family:sans-serif;letter-spacing:0px;word-spacing:0px;fill:#18394c;fill-opacity:1;stroke:none"
       id="flowRoot7078">
      <path
         d="m 100.14209,255.27374 h 1.29183 q 1.41486,0 2.27608,1.78396 -2.70669,53.76477 -3.44488,74.12648 -0.984254,5.53642 -3.260337,5.53642 h -0.492126 q -2.522146,0 -6.151575,-13.28741 -6.459153,-20.85383 -6.459153,-21.8996 h 2.768208 q -1.906988,27.37451 -1.906988,35.98671 l -1.722441,1.1688 h -1.29183 q -2.399115,0 -3.506398,-9.47343 -5.413386,-25.406 -10.642225,-64.83759 -0.123031,0 -1.168799,-4.55217 0,-1.10728 2.03002,-2.3376 h 1.476378 q 2.522146,0 4.244586,15.13288 4.429134,29.09694 5.905512,37.09399 l 2.276083,12.24164 h -2.583661 q 1.968504,-31.43455 2.952756,-34.01821 l 2.276082,-0.43061 q 2.829725,0 3.937008,10.70374 1.168799,5.84399 6.336122,22.76082 l 1.783957,6.15158 -2.091536,1.04577 q 1.476378,-43.49164 3.506398,-71.78888 z"
         style="font-style:normal;font-variant:normal;font-weight:normal;font-stretch:normal;font-size:125.98425293px;font-family:'Moon Flower Bold';-inkscape-font-specification:'Moon Flower Bold, ';fill:#18394c;fill-opacity:1"
         id="path7142"
         inkscape:connector-curvature="0" />
      <path
         d="m 123.45656,252.56705 h 0.98425 q 3.26033,0 3.26033,14.27166 v 3.19881 q 0,4.85975 -1.47638,24.91388 0,0.79971 0.24607,1.78396 -0.24607,12.97982 -0.24607,20.54626 v 15.99409 q 0,0.3691 0.49213,2.39912 -0.49213,3.01427 -2.52215,3.01427 h -0.98425 q -2.52214,0 -2.52214,-7.87402 0,-42.75344 1.47638,-58.87057 v -6.82825 q 0,-5.65944 -0.73819,-10.27313 0,-1.04576 2.03002,-2.27608 z"
         style="font-style:normal;font-variant:normal;font-weight:normal;font-stretch:normal;font-size:125.98425293px;font-family:'Moon Flower Bold';-inkscape-font-specification:'Moon Flower Bold, ';fill:#18394c;fill-opacity:1"
         id="path7144"
         inkscape:connector-curvature="0" />
      <path
         d="m 147.0786,247.89185 h 0.24606 q 1.35335,0 2.52215,1.90699 0,2.76821 0.24606,2.76821 l -0.49212,-0.98425 q 1.72244,27.06693 1.72244,45.46014 0.73819,5.96703 0.73819,16.54773 v 20.17717 h 11.74951 q 1.41486,0 2.27608,1.72244 v 0.98425 q 0,2.21457 -5.72097,2.21457 h -11.31889 q -1.29183,0 -2.52215,-1.90699 v -1.78396 q 0,-2.95275 0.12303,-2.95275 l -0.12303,-1.66093 v -18.02411 q -0.98425,-32.35728 -1.9685,-53.82628 l -0.73819,-8.30463 q 0.73819,-2.3376 3.26033,-2.3376 z"
         style="font-style:normal;font-variant:normal;font-weight:normal;font-stretch:normal;font-size:125.98425293px;font-family:'Moon Flower Bold';-inkscape-font-specification:'Moon Flower Bold, ';fill:#18394c;fill-opacity:1"
         id="path7146"
         inkscape:connector-curvature="0" />
      <path
         d="m 182.51168,247.89185 h 0.24606 q 1.35335,0 2.52215,1.90699 0,2.76821 0.24606,2.76821 l -0.49213,-0.98425 q 1.72244,27.06693 1.72244,45.46014 0.73819,5.96703 0.73819,16.54773 v 20.17717 h 11.74951 q 1.41486,0 2.27608,1.72244 v 0.98425 q 0,2.21457 -5.72096,2.21457 h -11.3189 q -1.29183,0 -2.52214,-1.90699 v -1.78396 q 0,-2.95275 0.12303,-2.95275 l -0.12303,-1.66093 v -18.02411 q -0.98426,-32.35728 -1.96851,-53.82628 l -0.73819,-8.30463 q 0.73819,-2.3376 3.26034,-2.3376 z"
         style="font-style:normal;font-variant:normal;font-weight:normal;font-stretch:normal;font-size:125.98425293px;font-family:'Moon Flower Bold';-inkscape-font-specification:'Moon Flower Bold, ';fill:#18394c;fill-opacity:1"
         id="path7148"
         inkscape:connector-curvature="0" />
      <path
         d="m 269.80253,255.51981 h 1.04577 q 1.29183,0 2.52214,1.90699 v 0.61515 q -1.9685,17.65502 -4.18307,34.38731 l 0.24606,1.41486 v 2.03002 q -0.92273,0 -2.70669,23.19144 -0.73819,12.24163 -1.84547,18.88533 l -1.47638,0.73819 h -1.41486 q -1.41486,-0.36909 -2.27609,-2.27608 2.7067,-32.72638 3.93701,-42.38435 -6.52067,-14.08711 -17.10138,-28.35876 -2.33759,-1.66093 -2.33759,-3.5064 v -0.49213 q 0,-0.98425 2.03002,-2.21456 h 1.84547 q 1.72244,0.67667 2.52214,3.19881 9.78101,12.11861 15.87107,25.09843 h -2.21457 q 2.58366,-22.33022 3.87549,-31.12697 z"
         style="font-style:normal;font-variant:normal;font-weight:normal;font-stretch:normal;font-size:125.98425293px;font-family:'Moon Flower Bold';-inkscape-font-specification:'Moon Flower Bold, ';fill:#18394c;fill-opacity:1"
         id="path7150"
         inkscape:connector-curvature="0" />
      <path
         d="m 297.8537,251.82886 q 8.36614,0 12.61073,34.32579 0.24606,3.26034 0.24606,8.24311 v 0.98425 q 0,0.98425 -0.18454,1.96851 0.18454,0.24606 0.18454,1.9685 v 0.24606 q 0,1.72244 -0.18454,1.96851 0.18454,0.98425 0.18454,1.23031 0,26.45177 -7.75098,32.97244 -3.1373,1.23032 -4.36762,1.23032 h -1.9685 Q 286.59632,334.56754 284.25872,312.914 l -0.73819,-10.08858 q 0,-34.94095 8.91979,-48.78199 2.95275,-2.21457 5.41338,-2.21457 z m -8.79675,50.19685 q 0,13.71802 3.62943,23.99115 3.01427,6.02854 4.6752,6.02854 h 0.24606 q 3.69094,0 4.92126,-5.96703 2.64518,-6.27461 2.64518,-27.00541 v -4.92126 q 0,-14.33317 -5.10581,-32.91093 -1.66093,-3.69094 -2.46063,-4.24458 -1.35335,0.49212 -1.72244,1.59941 -6.82825,14.4562 -6.82825,43.43011 z"
         style="font-style:normal;font-variant:normal;font-weight:normal;font-stretch:normal;font-size:125.98425293px;font-family:'Moon Flower Bold';-inkscape-font-specification:'Moon Flower Bold, ';fill:#18394c;fill-opacity:1"
         id="path7152"
         inkscape:connector-curvature="0" />
      <path
         d="m 329.34977,249.6143 h 1.47638 q 2.39911,1.16879 2.39911,3.19881 v 1.23032 q 2.15306,39.98524 5.35187,64.34547 2.03002,15.37894 4.79823,15.37894 2.03002,-0.86122 2.03002,-3.44488 0,-9.65797 -2.03002,-48.72048 0.30758,-7.13582 0.30758,-13.77952 v -5.844 l -0.30758,-1.66092 0.24607,-0.55365 q -0.18455,-3.01427 -0.79971,-7.19734 l 2.03002,-1.47638 h 1.35335 q 2.46063,0 3.01427,8.12008 0,1.72244 -0.18455,1.72244 0.18455,2.46063 0.18455,4.18307 v 7.93554 l -0.24606,1.47637 q 0,-1.04576 0.30757,-1.04576 -0.30757,4.18307 -0.30757,5.41338 v 0.98425 q 1.9685,42.81496 1.9685,50.50443 -0.79971,8.30463 -7.93553,8.30463 -8.12008,0 -10.39616,-24.72933 -2.7067,-21.0999 -5.22884,-62.8691 z"
         style="font-style:normal;font-variant:normal;font-weight:normal;font-stretch:normal;font-size:125.98425293px;font-family:'Moon Flower Bold';-inkscape-font-specification:'Moon Flower Bold, ';fill:#18394c;fill-opacity:1"
         id="path7154"
         inkscape:connector-curvature="0" />
      <path
         d="m 407.16717,246.66154 q 9.04282,0 10.88829,17.16289 v 4.79823 q -1.23031,8.91979 -8.30462,19.37746 -0.24607,0.0615 -1.04577,1.10729 v -0.92274 q 4.61368,1.72244 7.99705,7.38189 3.38336,5.04429 4.55216,15.50197 0,13.10285 -5.59793,22.33022 -3.93701,4.3061 -7.99705,5.29035 h -0.73819 q -4.98277,0 -4.98277,-9.53494 -2.95276,-42.38435 -2.95276,-65.20669 -0.49213,-6.58219 -1.53789,-13.04134 5.1058,-4.24459 9.71948,-4.24459 z m -3.81397,6.27461 q 1.90699,14.88681 1.90699,43.3686 0.98425,11.56496 2.46063,37.27854 l -0.12304,-0.12303 q 3.44489,-1.41486 5.22884,-6.15157 2.89124,-8.12008 2.89124,-16.11713 -1.78395,-10.64222 -2.82972,-10.64222 -1.78396,-5.29036 -6.70522,-8.12008 -2.52214,0 -3.99852,-2.46063 v -1.35335 q 8.05856,-9.04281 10.33464,-19.68504 v -3.75246 q -1.10728,-13.59498 -5.35187,-13.59498 -2.33759,0 -3.81397,1.35335 z"
         style="font-style:normal;font-variant:normal;font-weight:normal;font-stretch:normal;font-size:125.98425293px;font-family:'Moon Flower Bold';-inkscape-font-specification:'Moon Flower Bold, ';fill:#18394c;fill-opacity:1"
         id="path7156"
         inkscape:connector-curvature="0" />
      <path
         d="m 446.84484,251.33674 0.55364,0.30758 q -1.72244,0 -1.72244,-0.3691 10.9498,0.98425 10.9498,3.07579 v 0.43061 q -0.7997,2.27608 -2.89124,2.27608 l -7.13583,-0.73819 q -0.49212,0 -3.1373,0.18455 l 0.12303,1.72244 q 0,4.06004 1.1688,31.31152 h 0.24606 q 1.78396,0 3.07579,-0.24607 5.78248,0.49213 9.10433,0.49213 l 1.41487,1.90699 v 1.04577 q 0,1.9685 -2.52215,1.9685 -2.21457,0 -7.13583,-0.49213 -3.26033,0.24607 -4.12155,0.24607 v -0.24607 q 0,17.34744 1.66092,38.87796 0.30758,0 0.30758,0.18454 7.68947,-0.43061 9.84252,-0.43061 1.90699,0.61516 2.70669,2.21457 v 0.49213 q 0,0.98425 -1.9685,2.21456 -9.781,0.24607 -11.74951,0.49213 -4.61368,0 -4.61368,-4.36762 -1.72244,-23.49901 -1.72244,-39.18553 v -7.87402 q -1.23031,-21.65354 -1.23031,-29.15846 -0.73819,-3.69095 -0.73819,-4.61368 l 1.90698,-1.41486 h 3.32185 q 1.35335,0 4.30611,-0.30758 z"
         style="font-style:normal;font-variant:normal;font-weight:normal;font-stretch:normal;font-size:125.98425293px;font-family:'Moon Flower Bold';-inkscape-font-specification:'Moon Flower Bold, ';fill:#18394c;fill-opacity:1"
         id="path7158"
         inkscape:connector-curvature="0" />
      <path
         d="m 512.23608,254.78162 q 1.78396,0 3.62943,1.10728 0,0.79971 -0.24606,3.81398 0.73819,9.10433 0.73819,43.30709 v 1.72244 q 0,2.39911 0.49212,15.74803 -0.98425,18.20866 -8.91978,18.20866 h -1.23032 q -7.93553,-1.9685 -7.93553,-4.79823 -1.23031,-0.61516 -1.47638,-12.61073 1.66093,-1.53789 3.07579,-1.53789 2.46063,0.73819 2.46063,2.95275 0,10.33465 2.64518,10.33465 1.29183,0.73819 1.9685,0.73819 h 0.24607 q 2.7682,0 3.62943,-12.85679 v -1.1688 q -0.49213,-12.91831 -0.49213,-15.50197 v -2.95276 q 0,-13.59498 -0.24606,-35.12549 -0.49213,-3.32185 -0.49213,-7.19734 v -1.72244 q 0,-0.86122 2.15305,-2.46063 z"
         style="font-style:normal;font-variant:normal;font-weight:normal;font-stretch:normal;font-size:125.98425293px;font-family:'Moon Flower Bold';-inkscape-font-specification:'Moon Flower Bold, ';fill:#18394c;fill-opacity:1"
         id="path7160"
         inkscape:connector-curvature="0" />
      <path
         d="m 544.16275,251.82886 q 8.36615,0 12.61073,34.32579 0.24606,3.26034 0.24606,8.24311 v 0.98425 q 0,0.98425 -0.18454,1.96851 0.18454,0.24606 0.18454,1.9685 v 0.24606 q 0,1.72244 -0.18454,1.96851 0.18454,0.98425 0.18454,1.23031 0,26.45177 -7.75098,32.97244 -3.1373,1.23032 -4.36762,1.23032 h -1.9685 Q 532.90537,334.56754 530.56777,312.914 l -0.73819,-10.08858 q 0,-34.94095 8.91979,-48.78199 2.95275,-2.21457 5.41338,-2.21457 z m -8.79675,50.19685 q 0,13.71802 3.62943,23.99115 3.01427,6.02854 4.6752,6.02854 h 0.24606 q 3.69095,0 4.92126,-5.96703 2.64518,-6.27461 2.64518,-27.00541 v -4.92126 q 0,-14.33317 -5.10581,-32.91093 -1.66092,-3.69094 -2.46063,-4.24458 -1.35335,0.49212 -1.72244,1.59941 -6.82825,14.4562 -6.82825,43.43011 z"
         style="font-style:normal;font-variant:normal;font-weight:normal;font-stretch:normal;font-size:125.98425293px;font-family:'Moon Flower Bold';-inkscape-font-specification:'Moon Flower Bold, ';fill:#18394c;fill-opacity:1"
         id="path7162"
         inkscape:connector-curvature="0" />
      <path
         d="m 576.45853,252.56705 h 0.98425 q 3.26033,0 3.26033,14.27166 v 3.19881 q 0,4.85975 -1.47637,24.91388 0,0.79971 0.24606,1.78396 -0.24606,12.97982 -0.24606,20.54626 v 15.99409 q 0,0.3691 0.49212,2.39912 -0.49212,3.01427 -2.52214,3.01427 h -0.98425 q -2.52215,0 -2.52215,-7.87402 0,-42.75344 1.47638,-58.87057 v -6.82825 q 0,-5.65944 -0.73819,-10.27313 0,-1.04576 2.03002,-2.27608 z"
         style="font-style:normal;font-variant:normal;font-weight:normal;font-stretch:normal;font-size:125.98425293px;font-family:'Moon Flower Bold';-inkscape-font-specification:'Moon Flower Bold, ';fill:#18394c;fill-opacity:1"
         id="path7164"
         inkscape:connector-curvature="0" />
      <path
         d="m 598.97329,251.27522 q 2.58366,0 12.67224,34.57185 1.41486,7.87402 11.56496,38.81644 h -2.03002 v -0.86122 q -1.41486,-29.89666 -1.41486,-33.5876 0,-1.10728 0.30758,-7.50492 -0.0615,-0.67667 -0.0615,-2.95276 0.49213,-4.85974 0.49213,-7.68947 v -17.53198 q 0.30758,-2.58367 3.32185,-2.58367 l 2.58366,1.35335 q -0.73819,14.57923 -0.73819,21.59203 v 6.95128 q 0,21.40748 1.35335,55.91781 l -2.46063,1.23032 q -3.07579,0 -19.37746,-55.48721 l -6.45916,-22.02263 2.27609,3.69094 0.18454,-3.56791 q 0.43061,5.1058 0.43061,8.12008 l 0.0615,2.09153 q -0.49213,13.6565 -0.49213,19.1314 0,27.49754 2.21457,46.62894 h -3.07579 q -2.89124,0 -2.89124,-2.58367 -1.41486,-21.46899 -1.41486,-38.44734 v -42.69193 q 0.43061,-2.58366 2.95276,-2.58366 z"
         style="font-style:normal;font-variant:normal;font-weight:normal;font-stretch:normal;font-size:125.98425293px;font-family:'Moon Flower Bold';-inkscape-font-specification:'Moon Flower Bold, ';fill:#18394c;fill-opacity:1"
         id="path7166"
         inkscape:connector-curvature="0" />
      <path
         d="m 644.61798,252.56705 h 0.98425 q 3.26034,0 3.26034,14.27166 v 3.19881 q 0,4.85975 -1.47638,24.91388 0,0.79971 0.24606,1.78396 -0.24606,12.97982 -0.24606,20.54626 v 15.99409 q 0,0.3691 0.49213,2.39912 -0.49213,3.01427 -2.52215,3.01427 h -0.98425 q -2.52215,0 -2.52215,-7.87402 0,-42.75344 1.47638,-58.87057 v -6.82825 q 0,-5.65944 -0.73819,-10.27313 0,-1.04576 2.03002,-2.27608 z"
         style="font-style:normal;font-variant:normal;font-weight:normal;font-stretch:normal;font-size:125.98425293px;font-family:'Moon Flower Bold';-inkscape-font-specification:'Moon Flower Bold, ';fill:#18394c;fill-opacity:1"
         id="path7168"
         inkscape:connector-curvature="0" />
      <path
         d="m 667.13271,251.27522 q 2.58366,0 12.67224,34.57185 1.41487,7.87402 11.56497,38.81644 h -2.03002 v -0.86122 q -1.41487,-29.89666 -1.41487,-33.5876 0,-1.10728 0.30758,-7.50492 -0.0615,-0.67667 -0.0615,-2.95276 0.49212,-4.85974 0.49212,-7.68947 v -17.53198 q 0.30758,-2.58367 3.32185,-2.58367 l 2.58366,1.35335 q -0.73818,14.57923 -0.73818,21.59203 v 6.95128 q 0,21.40748 1.35334,55.91781 l -2.46063,1.23032 q -3.07579,0 -19.37746,-55.48721 l -6.45915,-22.02263 2.27608,3.69094 0.18455,-3.56791 q 0.43061,5.1058 0.43061,8.12008 l 0.0615,2.09153 q -0.49212,13.6565 -0.49212,19.1314 0,27.49754 2.21456,46.62894 h -3.07578 q -2.89124,0 -2.89124,-2.58367 -1.41487,-21.46899 -1.41487,-38.44734 v -42.69193 q 0.43062,-2.58366 2.95276,-2.58366 z"
         style="font-style:normal;font-variant:normal;font-weight:normal;font-stretch:normal;font-size:125.98425293px;font-family:'Moon Flower Bold';-inkscape-font-specification:'Moon Flower Bold, ';fill:#18394c;fill-opacity:1"
         id="path7170"
         inkscape:connector-curvature="0" />
      <path
         d="m 720.77445,255.51981 h 0.55365 q 5.53641,0 8.91978,4.3061 v 0.86122 q 0,0.98425 -2.03002,2.21457 -1.53789,0 -4.55217,-1.90699 -1.10728,-0.55364 -2.58366,-0.55364 h -0.73819 q -6.09006,1.47638 -6.09006,40.84645 0,18.82382 4.36762,28.60483 1.1688,2.52214 4.55217,3.87549 h 0.43061 q 3.07579,-0.61516 3.07579,-3.69095 0.98425,0 2.46063,-13.59498 v -11.93405 -0.0615 q 2.58366,0 2.58366,0.3691 -12.91831,-0.98425 -12.91831,-2.76821 l -0.24606,-1.23032 v -0.30757 q 0,-1.04577 1.84547,-1.96851 h 1.78396 q 0.86122,0.67667 10.76525,1.5379 1.72244,1.72244 1.72244,5.84399 v 6.15158 q 0,1.47637 -0.24606,3.75246 0.24606,0.43061 0.24606,0.98425 -1.78395,20.60777 -5.65945,20.60777 0,0.24607 -5.04429,1.23032 h -1.35334 q -4.79823,-1.10728 -8.30463,-5.35187 -5.59793,-10.58071 -5.59793,-32.29577 0,-41.27707 9.16584,-45.21407 z"
         style="font-style:normal;font-variant:normal;font-weight:normal;font-stretch:normal;font-size:125.98425293px;font-family:'Moon Flower Bold';-inkscape-font-specification:'Moon Flower Bold, ';fill:#18394c;fill-opacity:1"
         id="path7172"
         inkscape:connector-curvature="0" />
      <path
         d="m 788.25724,249.6143 h 1.47638 q 2.39911,1.16879 2.39911,3.19881 v 1.23032 q 2.15306,39.98524 5.35187,64.34547 2.03002,15.37894 4.79823,15.37894 2.03002,-0.86122 2.03002,-3.44488 0,-9.65797 -2.03002,-48.72048 0.30758,-7.13582 0.30758,-13.77952 v -5.844 l -0.30758,-1.66092 0.24607,-0.55365 q -0.18455,-3.01427 -0.79971,-7.19734 l 2.03002,-1.47638 h 1.35335 q 2.46063,0 3.01427,8.12008 0,1.72244 -0.18455,1.72244 0.18455,2.46063 0.18455,4.18307 v 7.93554 l -0.24606,1.47637 q 0,-1.04576 0.30758,-1.04576 -0.30758,4.18307 -0.30758,5.41338 v 0.98425 q 1.9685,42.81496 1.9685,50.50443 -0.7997,8.30463 -7.93553,8.30463 -8.12008,0 -10.39616,-24.72933 -2.7067,-21.0999 -5.22884,-62.8691 z"
         style="font-style:normal;font-variant:normal;font-weight:normal;font-stretch:normal;font-size:125.98425293px;font-family:'Moon Flower Bold';-inkscape-font-specification:'Moon Flower Bold, ';fill:#18394c;fill-opacity:1"
         id="path7174"
         inkscape:connector-curvature="0" />
      <path
         d="m 841.65292,253.12069 1.41487,1.78396 v 0.7997 q 0,0.86123 -2.21457,2.39912 h -3.01427 q -5.4749,0 -7.38189,3.99852 -1.90699,5.16733 -1.90699,11.56496 0,3.8755 3.38337,12.79528 1.10728,2.21457 13.04133,13.04134 6.45916,9.22736 6.45916,18.14714 0,7.0128 -3.01427,13.71802 -1.59941,3.62942 -8.12008,6.02854 -2.46063,1.29183 -4.18307,1.29183 -2.3376,0 -3.26034,-1.9685 v -0.86122 q 0,-1.78396 3.81398,-2.15306 7.01279,-2.64517 7.01279,-5.4749 2.21457,-4.42913 2.21457,-11.25738 0,-8.91978 -7.99705,-17.40896 -6.6437,-5.04429 -9.96555,-9.781 -2.39911,-2.58366 -4.6752,-13.22589 0,-1.29183 -0.24606,-3.26033 0,-8.1816 3.07579,-14.57923 3.87549,-5.59794 15.56348,-5.59794 z"
         style="font-style:normal;font-variant:normal;font-weight:normal;font-stretch:normal;font-size:125.98425293px;font-family:'Moon Flower Bold';-inkscape-font-specification:'Moon Flower Bold, ';fill:#18394c;fill-opacity:1"
         id="path7176"
         inkscape:connector-curvature="0" />
      <path
         d="m 873.76412,253.05918 q 5.53641,0 10.33464,4.67519 3.75246,4.73672 3.75246,8.85827 v 1.72244 q 0,12.61073 -7.01279,24.11418 -1.84547,3.81397 -1.84547,12.24163 0.49212,4.06004 0.49212,6.45915 v 2.7067 q 0,2.03002 -2.15305,2.95275 h -1.10728 q -2.03002,0 -2.27609,-2.15305 0,-1.47638 0.24607,-1.84547 0,0.0615 -0.73819,-7.99705 0,-12.73376 5.04429,-19.50049 4.06004,-8.6122 4.06004,-17.47047 0,-4.73672 -4.3061,-8.36614 -3.26034,-1.47638 -4.73672,-1.47638 -6.58218,1.78395 -6.58218,5.65945 v 1.90698 l 0.73819,0.98426 v 0.55364 q 0,2.03002 -2.15305,2.95275 h -1.78396 q -2.3376,-1.16879 -2.3376,-3.19881 v -3.44489 q 0,-7.13582 11.13435,-10.33464 z m 1.9685,77.50984 h 1.23032 q 1.1688,0 2.76821,2.15305 v 1.5379 q 0,3.19881 -3.5064,3.19881 -3.38337,0 -3.75246,-3.69094 0.24606,-1.47638 3.26033,-3.19882 z"
         style="font-style:normal;font-variant:normal;font-weight:normal;font-stretch:normal;font-size:125.98425293px;font-family:'Moon Flower Bold';-inkscape-font-specification:'Moon Flower Bold, ';fill:#18394c;fill-opacity:1"
         id="path7178"
         inkscape:connector-curvature="0" />
    </g>
  </g>
</svg>
