<?xml version="1.0" encoding="UTF-8" standalone="no"?>
<svg
   xmlns:dc="http://purl.org/dc/elements/1.1/"
   xmlns:cc="http://creativecommons.org/ns#"
   xmlns:rdf="http://www.w3.org/1999/02/22-rdf-syntax-ns#"
   xmlns:svg="http://www.w3.org/2000/svg"
   xmlns="http://www.w3.org/2000/svg"
   xmlns:sodipodi="http://sodipodi.sourceforge.net/DTD/sodipodi-0.dtd"
   xmlns:inkscape="http://www.inkscape.org/namespaces/inkscape"
   viewBox="0 0 512 256"
   version="1.1"
   id="svg8"
   sodipodi:docname="Times_Blue.svg"
   inkscape:version="0.92.3 (2405546, 2018-03-11)"
   width="512"
   height="256">
  <sodipodi:namedview
     pagecolor="#ffffff"
     bordercolor="#666666"
     borderopacity="1"
     objecttolerance="10"
     gridtolerance="10"
     guidetolerance="10"
     inkscape:pageopacity="0"
     inkscape:pageshadow="2"
     inkscape:window-width="1842"
     inkscape:window-height="1051"
     id="namedview995"
     showgrid="false"
     inkscape:zoom="1.3037281"
     inkscape:cx="230.29086"
     inkscape:cy="66.281385"
     inkscape:window-x="-9"
     inkscape:window-y="-9"
     inkscape:window-maximized="1"
     inkscape:current-layer="svg8" />
  <defs
     id="defs2" />
  <metadata
     id="metadata5">
    <rdf:RDF>
      <cc:Work
         rdf:about="">
        <dc:format>image/svg+xml</dc:format>
        <dc:type
           rdf:resource="http://purl.org/dc/dcmitype/StillImage" />
        <dc:title></dc:title>
      </cc:Work>
    </rdf:RDF>
  </metadata>
  <g
     aria-label="2 pm = ceremony
5 pm = food
7 pm to late = party"
     transform="translate(198.72852,142.87607)"
     style="font-style:normal;font-weight:normal;font-size:40px;line-height:1.25;font-family:sans-serif;letter-spacing:0px;word-spacing:0px;fill:#18394c;fill-opacity:1;stroke:none"
     id="flowRoot9738">
    <path
       d="m -62.480469,-90.470724 q 3.964844,0 5.632813,4.265625 l 0.109375,0.847656 q 0,3.882812 -3.089844,10.691406 -2.378906,7.710938 -3.910156,15.449219 -0.328125,1.914062 -1.257813,5.605469 h -0.792968 q 5.359375,-0.765625 6.507812,-0.765625 h 0.4375 q 0.574219,0 1.121094,0.847656 v 0.464844 q 0,0.464843 -0.820313,0.875 h -0.738281 q -1.585937,0 -7.65625,1.066406 l -0.683594,-0.929688 v -0.464843 q 0,-0.574219 2.078125,-10.035157 2.734375,-12.359375 5.277344,-17.472656 1.066406,-3.308594 1.066406,-5.195312 0,-1.96875 -2.515625,-2.953125 -0.21875,0 -0.710937,-0.08203 -4.484375,0.984375 -4.484375,1.914063 -0.628906,0.65625 -1.09375,1.914062 l -0.601563,0.300782 q -1.257812,0 -1.640625,-0.902344 v -0.628906 q 1.558594,-3.0625 3.9375,-3.910157 2.597657,-0.792968 3.828125,-0.902343 z"
       style="font-style:normal;font-variant:normal;font-weight:normal;font-stretch:normal;font-size:56px;line-height:1;font-family:'Moon Flower Bold';-inkscape-font-specification:'Moon Flower Bold, ';text-align:center;text-anchor:middle;fill:#18394c;fill-opacity:1"
       id="path9750" />
    <path
       d="m -35.765625,-90.689474 q 5.824219,0 7.875,5.113281 0.355469,1.121094 0.464844,2.625 0,6.917969 -2.433594,15.175781 -1.257812,2.160156 -3.609375,3.335938 -0.847656,0.02734 -0.847656,-0.21875 v 0.109375 q 0,1.421875 0.109375,2.40625 -0.109375,0.984375 -0.109375,1.09375 0.328125,6.179687 0.328125,6.671875 0.328125,0.05469 0.328125,1.3125 v 0.410156 q -0.4375,1.148437 -1.175781,1.449219 h -0.382813 q -0.574219,0 -1.121094,-0.847657 v -0.902343 q 0,-0.65625 0,-0.65625 -0.08203,-0.464844 -0.21875,-2.269532 0,-0.683593 0.08203,-0.683593 l -0.300782,-4.046875 q 0.109375,-1.121094 0.109375,-1.640625 -0.109375,-1.996094 -0.109375,-2.214844 -0.4375,-0.21875 -0.4375,-0.902344 0.246094,-0.929687 0.382813,-0.929687 -0.164063,-2.324219 -0.164063,-2.953125 l 0.519532,-19.359375 q -0.191407,0 -0.191407,-0.765625 v -0.328125 q 0,-0.4375 0.902344,-0.984375 z m 1.75,2.324218 -0.519531,19.113282 q 0.109375,2.296875 0.109375,2.871093 l -0.273438,-0.136718 q 0.738282,0 1.832032,-1.148438 1.722656,-1.09375 2.871093,-13.097656 0.109375,-1.96875 0.109375,-2.597656 0,-2.597657 -2.953125,-4.675782 -0.792968,-0.273437 -1.175781,-0.328125 z"
       style="font-style:normal;font-variant:normal;font-weight:normal;font-stretch:normal;font-size:56px;line-height:1;font-family:'Moon Flower Bold';-inkscape-font-specification:'Moon Flower Bold, ';text-align:center;text-anchor:middle;fill:#18394c;fill-opacity:1"
       id="path9752" />
    <path
       d="m -22.066406,-90.251974 q 1.285156,0.410156 7.601562,17.582031 h -0.902344 q 0,-0.710938 5.5781255,-16.898438 h 1.3125 l 0.4921875,0.957032 0.027344,1.203125 q -0.3007813,9.789062 -0.3007813,16.542968 0,2.597657 0.984375,19.085938 l -1.1757813,0.574219 q -1.4765625,0 -2.1328122,-18.375 v -12.824219 h 0.9023435 q -3.8828125,12.058594 -4.7304685,12.742187 -1.75,-0.109375 -6.808594,-14.355468 h 0.847656 v -0.21875 l 1.613282,31.800781 -1.121094,0.601562 q -1.53125,0 -1.53125,-1.203125 -0.957031,-28.574218 -1.941406,-36.558593 z"
       style="font-style:normal;font-variant:normal;font-weight:normal;font-stretch:normal;font-size:56px;line-height:1;font-family:'Moon Flower Bold';-inkscape-font-specification:'Moon Flower Bold, ';text-align:center;text-anchor:middle;fill:#18394c;fill-opacity:1"
       id="path9754" />
    <path
       d="m 12.6875,-74.584006 q 0.847656,0 2.542969,0.21875 2.871093,-0.109375 8.285156,-0.21875 3.089844,0.109375 6.863281,0.109375 l 0.492188,0.738282 v 0.710937 l -0.65625,0.875 q -4.292969,-0.246094 -5.386719,-0.246094 -7.191406,0.109375 -10.390625,0.109375 -2.652344,0 -2.652344,-1.09375 v -0.21875 q 0,-0.4375 0.902344,-0.984375 z m 17.472656,7.21875 q 2.132813,0 2.132813,0.875 v 0.765625 l -0.355469,0.683594 -1.777344,-0.136719 q -1.394531,0 -16.789062,0.65625 -0.738281,0.21875 -1.121094,0.21875 h -0.21875 q -0.574219,0 -1.121094,-0.847656 v -0.355469 q 0,-1.203125 7,-1.421875 z"
       style="font-style:normal;font-variant:normal;font-weight:normal;font-stretch:normal;font-size:56px;line-height:1;font-family:'Moon Flower Bold';-inkscape-font-specification:'Moon Flower Bold, ';text-align:center;text-anchor:middle;fill:#18394c;fill-opacity:1"
       id="path9756" />
    <path
       d="m 59.144531,-89.376974 h 0.847656 q 2.570313,0.464843 2.570313,1.96875 0,0.4375 -0.902344,0.984375 h -1.011719 q -0.710937,-0.875 -1.039062,-0.875 -2.1875,0.765625 -2.1875,1.3125 -2.1875,4.15625 -2.1875,11.265625 v 1.859375 q 0,4.839843 1.3125,11.621093 0.765625,4.894532 2.050781,6.535157 1.449219,1.257812 2.433594,1.3125 1.203125,0 3.089844,-2.40625 h 0.710937 q 0.628906,0 1.011719,0.765625 v 0.328125 q 0,1.257812 -2.707031,2.980468 -1.230469,0.519532 -2.242188,0.519532 h -0.164062 q -1.886719,-0.21875 -3.828125,-1.914063 -2.105469,-1.667969 -3.582032,-12.769531 -0.546875,-2.378906 -0.546875,-7.847656 v -0.65625 q 0.191407,-11.320313 3.882813,-14.109375 1.832031,-0.875 2.488281,-0.875 z"
       style="font-style:normal;font-variant:normal;font-weight:normal;font-stretch:normal;font-size:56px;line-height:1;font-family:'Moon Flower Bold';-inkscape-font-specification:'Moon Flower Bold, ';text-align:center;text-anchor:middle;fill:#18394c;fill-opacity:1"
       id="path9758" />
    <path
       d="m 75.332031,-90.033224 0.246094,0.136718 q -0.765625,0 -0.765625,-0.164062 4.867187,0.4375 4.867187,1.367187 v 0.191407 q -0.355468,1.011718 -1.285156,1.011718 l -3.171875,-0.328125 q -0.21875,0 -1.394531,0.08203 l 0.05469,0.765625 q 0,1.804687 0.519532,13.917968 h 0.109375 q 0.792968,0 1.367187,-0.109375 2.570313,0.21875 4.046875,0.21875 l 0.628906,0.847657 v 0.464843 q 0,0.875 -1.121093,0.875 -0.984375,0 -3.171875,-0.21875 -1.449219,0.109375 -1.832032,0.109375 v -0.109375 q 0,7.710938 0.738282,17.28125 0.136718,0 0.136718,0.08203 3.417969,-0.191407 4.375,-0.191407 0.847657,0.273438 1.203125,0.984375 v 0.21875 q 0,0.4375 -0.875,0.984375 -4.347656,0.109375 -5.222656,0.21875 -2.050781,0 -2.050781,-1.941406 -0.765625,-10.445312 -0.765625,-17.417969 v -3.5 q -0.546875,-9.625 -0.546875,-12.960937 -0.328125,-1.640625 -0.328125,-2.050781 l 0.847656,-0.628907 h 1.476563 q 0.601562,0 1.914062,-0.136718 z"
       style="font-style:normal;font-variant:normal;font-weight:normal;font-stretch:normal;font-size:56px;line-height:1;font-family:'Moon Flower Bold';-inkscape-font-specification:'Moon Flower Bold, ';text-align:center;text-anchor:middle;fill:#18394c;fill-opacity:1"
       id="path9760" />
    <path
       d="m 86.597656,-92.658224 h 0.875 q 0.328125,0.4375 1.804688,0.683593 2.378906,0.957032 3.800781,3.390625 1.914062,4.621094 1.914062,6.863282 v 1.09375 q 0,7.382812 -3.527343,10.144531 4.15625,0.984375 4.949218,11.59375 v 4.183594 q 0,0.929687 0.136719,2.980468 l -0.792969,0.519532 h -0.847656 l -0.820312,-0.628907 q -0.136719,-2.433593 -0.136719,-3.527343 v -3.9375 q 0,-3.992188 -2.40625,-8.121094 -1.476563,-1.394531 -2.488281,-1.394531 h 0.601562 q 0.08203,1.804687 0.08203,2.953125 v 4.15625 q 0.21875,5.414062 0.21875,6.125 v 0.328125 q -0.4375,0.875 -1.339843,0.875 -0.519532,0 -1.257813,-0.847657 L 87.5,-56.154318 q -0.21875,-4.59375 -0.21875,-6.097656 v -6.015625 q -0.273438,0 -0.65625,-0.902344 v -0.519531 q 0.4375,-0.875 0.519531,-0.875 -0.519531,-14.4375 -1.421875,-21.4375 z m 1.886719,2.625 q 0.601562,7.410156 1.09375,18.101562 2.953125,-1.996094 2.953125,-8.148437 v -1.53125 q 0,-2.761719 -2.296875,-7.027344 -1.53125,-1.394531 -2.160156,-1.394531 z"
       style="font-style:normal;font-variant:normal;font-weight:normal;font-stretch:normal;font-size:56px;line-height:1;font-family:'Moon Flower Bold';-inkscape-font-specification:'Moon Flower Bold, ';text-align:center;text-anchor:middle;fill:#18394c;fill-opacity:1"
       id="path9762" />
    <path
       d="m 107.37891,-90.033224 0.24609,0.136718 q -0.76562,0 -0.76562,-0.164062 4.86718,0.4375 4.86718,1.367187 v 0.191407 q -0.35547,1.011718 -1.28515,1.011718 l -3.17188,-0.328125 q -0.21875,0 -1.39453,0.08203 l 0.0547,0.765625 q 0,1.804687 0.51953,13.917968 h 0.10937 q 0.79297,0 1.36719,-0.109375 2.57031,0.21875 4.04688,0.21875 l 0.6289,0.847657 v 0.464843 q 0,0.875 -1.12109,0.875 -0.98438,0 -3.17188,-0.21875 -1.44921,0.109375 -1.83203,0.109375 v -0.109375 q 0,7.710938 0.73828,17.28125 0.13672,0 0.13672,0.08203 3.41797,-0.191407 4.375,-0.191407 0.84766,0.273438 1.20313,0.984375 v 0.21875 q 0,0.4375 -0.875,0.984375 -4.34766,0.109375 -5.22266,0.21875 -2.05078,0 -2.05078,-1.941406 -0.76562,-10.445312 -0.76562,-17.417969 v -3.5 q -0.54688,-9.625 -0.54688,-12.960937 -0.32812,-1.640625 -0.32812,-2.050781 l 0.84765,-0.628907 h 1.47656 q 0.60157,0 1.91407,-0.136718 z"
       style="font-style:normal;font-variant:normal;font-weight:normal;font-stretch:normal;font-size:56px;line-height:1;font-family:'Moon Flower Bold';-inkscape-font-specification:'Moon Flower Bold, ';text-align:center;text-anchor:middle;fill:#18394c;fill-opacity:1"
       id="path9764" />
    <path
       d="m 118.48047,-90.251974 q 1.28516,0.410156 7.60156,17.582031 h -0.90234 q 0,-0.710938 5.57812,-16.898438 h 1.3125 l 0.49219,0.957032 0.0273,1.203125 q -0.30078,9.789062 -0.30078,16.542968 0,2.597657 0.98438,19.085938 l -1.17578,0.574219 q -1.47657,0 -2.13282,-18.375 v -12.824219 h 0.90235 q -3.88281,12.058594 -4.73047,12.742187 -1.75,-0.109375 -6.80859,-14.355468 h 0.84765 v -0.21875 l 1.61328,31.800781 -1.12109,0.601562 q -1.53125,0 -1.53125,-1.203125 -0.95703,-28.574218 -1.94141,-36.558593 z"
       style="font-style:normal;font-variant:normal;font-weight:normal;font-stretch:normal;font-size:56px;line-height:1;font-family:'Moon Flower Bold';-inkscape-font-specification:'Moon Flower Bold, ';text-align:center;text-anchor:middle;fill:#18394c;fill-opacity:1"
       id="path9766" />
    <path
       d="m 143.19922,-89.814474 q 3.71875,0 5.60547,15.257812 0.10937,1.449219 0.10937,3.664063 v 0.4375 q 0,0.4375 -0.082,0.875 0.082,0.109375 0.082,0.875 v 0.109375 q 0,0.765625 -0.082,0.875 0.082,0.4375 0.082,0.546875 0,11.757812 -3.44531,14.65625 -1.39453,0.546875 -1.94141,0.546875 h -0.875 q -4.45703,-1.066407 -5.49609,-10.691407 l -0.32813,-4.484375 q 0,-15.53125 3.96485,-21.683593 1.3125,-0.984375 2.40625,-0.984375 z m -3.91016,22.3125 q 0,6.097656 1.61328,10.664062 1.33985,2.679688 2.07813,2.679688 h 0.10937 q 1.64063,0 2.1875,-2.652344 1.17578,-2.789063 1.17578,-12.003906 v -2.1875 q 0,-6.371094 -2.26953,-14.628907 -0.73828,-1.640625 -1.09375,-1.886718 -0.60156,0.21875 -0.76562,0.710937 -3.03516,6.425781 -3.03516,19.304688 z"
       style="font-style:normal;font-variant:normal;font-weight:normal;font-stretch:normal;font-size:56px;line-height:1;font-family:'Moon Flower Bold';-inkscape-font-specification:'Moon Flower Bold, ';text-align:center;text-anchor:middle;fill:#18394c;fill-opacity:1"
       id="path9768" />
    <path
       d="m 155.96875,-90.060568 q 1.14844,0 5.63281,15.367187 0.62891,3.5 5.14063,17.253907 h -0.90235 v -0.382813 q -0.6289,-13.289062 -0.6289,-14.929687 0,-0.492188 0.13672,-3.335938 -0.0273,-0.300781 -0.0273,-1.3125 0.21875,-2.160156 0.21875,-3.417969 v -7.792968 q 0.13672,-1.148438 1.47656,-1.148438 l 1.14844,0.601563 q -0.32812,6.480468 -0.32812,9.597656 v 3.089844 q 0,9.515625 0.60156,24.855468 l -1.09375,0.546875 q -1.36719,0 -8.61328,-24.664062 l -2.8711,-9.789063 1.01172,1.640625 0.082,-1.585937 q 0.19141,2.269531 0.19141,3.609375 l 0.0273,0.929687 q -0.21875,6.070313 -0.21875,8.503907 0,12.222656 0.98438,20.726562 h -1.36719 q -1.28515,0 -1.28515,-1.148437 -0.62891,-9.542969 -0.62891,-17.089844 v -18.976563 q 0.19141,-1.148437 1.3125,-1.148437 z"
       style="font-style:normal;font-variant:normal;font-weight:normal;font-stretch:normal;font-size:56px;line-height:1;font-family:'Moon Flower Bold';-inkscape-font-specification:'Moon Flower Bold, ';text-align:center;text-anchor:middle;fill:#18394c;fill-opacity:1"
       id="path9770" />
    <path
       d="m 184.32422,-88.173849 h 0.46484 q 0.57422,0 1.1211,0.847656 v 0.273437 q -0.875,7.847657 -1.85938,15.285157 l 0.10938,0.628906 v 0.902344 q -0.41016,0 -1.20313,10.308593 -0.32812,5.441407 -0.82031,8.394532 l -0.65625,0.328125 h -0.62891 q -0.6289,-0.164063 -1.01172,-1.011719 1.20313,-14.546875 1.75,-18.839844 -2.89843,-6.261719 -7.60156,-12.605469 -1.03906,-0.738281 -1.03906,-1.558593 v -0.21875 q 0,-0.4375 0.90234,-0.984375 h 0.82031 q 0.76563,0.300781 1.1211,1.421875 4.34765,5.386718 7.05469,11.15625 h -0.98438 q 1.14844,-9.925782 1.72266,-13.835938 z"
       style="font-style:normal;font-variant:normal;font-weight:normal;font-stretch:normal;font-size:56px;line-height:1;font-family:'Moon Flower Bold';-inkscape-font-specification:'Moon Flower Bold, ';text-align:center;text-anchor:middle;fill:#18394c;fill-opacity:1"
       id="path9772" />
    <path
       d="m -28.738281,-32.485441 h 0.109375 q 1.3125,0 1.777344,1.011718 v 0.546875 l -0.492188,0.738282 q -0.601562,0 -1.722656,-0.109375 -3.0625,0.328125 -3.527344,0.410156 l 1.09375,9.433594 h -0.410156 q 5.960937,0 8.96875,6.289062 1.339844,3.664063 1.339844,6.0703126 0,8.99609374 -6.453125,12.8789062 -0.738282,0.6835938 -1.722657,0.6835938 -0.847656,-0.328125 -1.285156,-1.09375 v -0.328125 q 0,-0.4375 0.902344,-0.984375 0.683594,0 0.65625,-0.027344 3.691406,-2.21484371 4.8125,-6.234375 0.628906,-1.859375 0.628906,-5.2226562 0,-2.5976566 -1.996094,-6.6445316 -2.542968,-3.308593 -6.726562,-3.308593 -1.203125,0 -2.214844,-11.238282 -0.05469,-0.492187 -0.328125,-0.875 v -0.792968 q 0,-0.4375 0.902344,-0.984375 h 0.710937 l 0.382813,0.300781 q 3.5,-0.519531 4.59375,-0.519531 z"
       style="font-style:normal;font-variant:normal;font-weight:normal;font-stretch:normal;font-size:56px;line-height:1;font-family:'Moon Flower Bold';-inkscape-font-specification:'Moon Flower Bold, ';text-align:center;text-anchor:middle;fill:#18394c;fill-opacity:1"
       id="path9774" />
    <path
       d="m 0.0546875,-33.633879 q 5.8242187,0 7.875,5.113281 0.3554688,1.121094 0.4648438,2.625 0,6.917969 -2.4335938,15.175782 -1.2578125,2.1601558 -3.609375,3.3359371 -0.8476563,0.027344 -0.8476563,-0.21875 v 0.109375 q 0,1.421875 0.109375,2.40625 -0.109375,0.984375 -0.109375,1.09375 0.328125,6.1796875 0.328125,6.671875 0.3281251,0.054687 0.3281251,1.3125 V 4.4012773 Q 1.7226562,5.5497148 0.984375,5.8504961 H 0.6015625 q -0.57421875,0 -1.12109375,-0.8476563 V 4.1004961 q 0,-0.65625 0,-0.65625 -0.0820313,-0.4648438 -0.21875,-2.2695313 0,-0.68359371 0.0820313,-0.68359371 L -0.95703125,-3.5557539 q 0.109375,-1.1210938 0.109375,-1.640625 -0.109375,-1.9960938 -0.109375,-2.2148438 -0.43749995,-0.21875 -0.43749995,-0.9023437 0.2460937,-0.9296875 0.3828125,-0.9296875 -0.1640625,-2.3242191 -0.1640625,-2.9531251 L -0.65625,-31.555754 q -0.19140625,0 -0.19140625,-0.765625 v -0.328125 q 0,-0.4375 0.90234375,-0.984375 z m 1.75,2.324219 -0.5195313,19.113281 q 0.109375,2.2968751 0.109375,2.8710938 L 1.1210937,-9.4620039 q 0.7382813,0 1.8320313,-1.1484371 1.7226562,-1.09375 2.8710937,-13.097657 0.109375,-1.96875 0.109375,-2.597656 0,-2.597656 -2.9531249,-4.675781 Q 2.1875,-31.254973 1.8046875,-31.30966 Z"
       style="font-style:normal;font-variant:normal;font-weight:normal;font-stretch:normal;font-size:56px;line-height:1;font-family:'Moon Flower Bold';-inkscape-font-specification:'Moon Flower Bold, ';text-align:center;text-anchor:middle;fill:#18394c;fill-opacity:1"
       id="path9776" />
    <path
       d="m 13.753906,-33.196379 q 1.285157,0.410156 7.601563,17.582031 h -0.902344 q 0,-0.710937 5.578125,-16.898437 h 1.3125 l 0.492187,0.957031 0.02734,1.203125 q -0.300781,9.789063 -0.300781,16.542969 0,2.597656 0.984375,19.0859373 l -1.175781,0.5742188 q -1.476563,0 -2.132813,-18.3750001 v -12.824219 h 0.902344 q -3.882813,12.058594 -4.730469,12.742188 -1.75,-0.109375 -6.808593,-14.355469 h 0.847656 v -0.21875 L 17.0625,4.6200273 15.941406,5.2215898 q -1.53125,0 -1.53125,-1.203125 Q 13.453125,-24.555754 12.46875,-32.540129 Z"
       style="font-style:normal;font-variant:normal;font-weight:normal;font-stretch:normal;font-size:56px;line-height:1;font-family:'Moon Flower Bold';-inkscape-font-specification:'Moon Flower Bold, ';text-align:center;text-anchor:middle;fill:#18394c;fill-opacity:1"
       id="path9778" />
    <path
       d="m 48.507812,-17.52841 q 0.847657,0 2.542969,0.21875 2.871094,-0.109375 8.285156,-0.21875 3.089844,0.109375 6.863282,0.109375 l 0.492187,0.738281 v 0.710938 l -0.65625,0.875 q -4.292969,-0.246094 -5.386719,-0.246094 -7.191406,0.109375 -10.390625,0.109375 -2.652343,0 -2.652343,-1.09375 v -0.21875 q 0,-0.4375 0.902343,-0.984375 z m 17.472657,7.21875 q 2.132812,0 2.132812,0.8749998 v 0.765625 l -0.355469,0.6835938 -1.777343,-0.1367188 q -1.394532,0 -16.789063,0.65625 -0.738281,0.21875 -1.121094,0.21875 h -0.21875 q -0.574218,0 -1.121093,-0.8476562 v -0.3554688 q 0,-1.203125 7,-1.421875 z"
       style="font-style:normal;font-variant:normal;font-weight:normal;font-stretch:normal;font-size:56px;line-height:1;font-family:'Moon Flower Bold';-inkscape-font-specification:'Moon Flower Bold, ';text-align:center;text-anchor:middle;fill:#18394c;fill-opacity:1"
       id="path9780" />
    <path
       d="m 90.699219,-32.348723 q 4.457031,0.21875 6.945312,0.21875 l 0.492188,0.738282 q 0,1.449218 -1.367188,1.449218 -2.816406,-0.109375 -5.496094,-0.109375 l 0.519532,13.125 v 0.08203 l 0.05469,0.710937 Q 92.859375,-16.270598 94.5,-16.270598 h 2.84375 q 0.820312,0 1.039062,1.394532 l -0.984375,0.792968 H 94.0625 q -2.050781,0 -2.050781,-0.109375 v 1.203125 q 0,1.585938 0.21875,13.12500034 V 1.3114336 l 0.109375,0.65625 q 0,0.6835937 -0.05469,0.6835937 l 0.05469,0.5195313 v 1.2304687 q 0,0.4375 -0.820313,0.875 H 91 q -0.601563,0 -1.121094,-0.8476562 Q 89.46875,-18.129973 89.46875,-18.129973 l -0.464844,-1.09375 0.21875,0.4375 q -0.4375,-8.667968 -0.4375,-12.933593 0.875,-0.628907 1.914063,-0.628907 z"
       style="font-style:normal;font-variant:normal;font-weight:normal;font-stretch:normal;font-size:56px;line-height:1;font-family:'Moon Flower Bold';-inkscape-font-specification:'Moon Flower Bold, ';text-align:center;text-anchor:middle;fill:#18394c;fill-opacity:1"
       id="path9782" />
    <path
       d="m 109.34766,-32.758879 q 3.71875,0 5.60547,15.257813 0.10937,1.449218 0.10937,3.664062 v 0.4375 q 0,0.4375 -0.082,0.875 0.082,0.109375 0.082,0.875 v 0.109375 q 0,0.765625 -0.082,0.875 0.082,0.4375 0.082,0.546875 0,11.7578126 -3.44531,14.6562501 -1.39453,0.546875 -1.94141,0.546875 h -0.875 q -4.45703,-1.0664063 -5.49609,-10.6914063 l -0.32813,-4.4843748 q 0,-15.53125 3.96485,-21.683594 1.3125,-0.984375 2.40625,-0.984375 z m -3.91016,22.3125 q 0,6.0976563 1.61328,10.66406259 1.33985,2.67968751 2.07813,2.67968751 h 0.10937 q 1.64063,0 2.1875,-2.65234376 1.17578,-2.78906254 1.17578,-12.00390634 v -2.1875 q 0,-6.371094 -2.26953,-14.628906 -0.73828,-1.640625 -1.09375,-1.886719 -0.60156,0.21875 -0.76562,0.710938 -3.03516,6.425781 -3.03516,19.304687 z"
       style="font-style:normal;font-variant:normal;font-weight:normal;font-stretch:normal;font-size:56px;line-height:1;font-family:'Moon Flower Bold';-inkscape-font-specification:'Moon Flower Bold, ';text-align:center;text-anchor:middle;fill:#18394c;fill-opacity:1"
       id="path9784" />
    <path
       d="m 126.41016,-32.758879 q 3.71875,0 5.60546,15.257813 0.10938,1.449218 0.10938,3.664062 v 0.4375 q 0,0.4375 -0.082,0.875 0.082,0.109375 0.082,0.875 v 0.109375 q 0,0.765625 -0.082,0.875 0.082,0.4375 0.082,0.546875 0,11.7578126 -3.44531,14.6562501 -1.39453,0.546875 -1.94141,0.546875 h -0.875 q -4.45703,-1.0664063 -5.49609,-10.6914063 l -0.32813,-4.4843748 q 0,-15.53125 3.96485,-21.683594 1.3125,-0.984375 2.40625,-0.984375 z m -3.91016,22.3125 q 0,6.0976563 1.61328,10.66406259 1.33985,2.67968751 2.07813,2.67968751 h 0.10937 q 1.64063,0 2.1875,-2.65234376 1.17578,-2.78906254 1.17578,-12.00390634 v -2.1875 q 0,-6.371094 -2.26953,-14.628906 -0.73828,-1.640625 -1.09375,-1.886719 -0.60156,0.21875 -0.76562,0.710938 Q 122.5,-23.325285 122.5,-10.446379 Z"
       style="font-style:normal;font-variant:normal;font-weight:normal;font-stretch:normal;font-size:56px;line-height:1;font-family:'Moon Flower Bold';-inkscape-font-specification:'Moon Flower Bold, ';text-align:center;text-anchor:middle;fill:#18394c;fill-opacity:1"
       id="path9786" />
    <path
       d="m 137.83984,-34.399504 h 0.92969 q 4.73047,1.558594 7.19141,5.933594 3.55468,7.21875 3.55468,14.847656 v 0.546875 q 0,10.9375001 -8.0664,17.9648438 -1.25781,0.4101563 -1.69531,0.4101563 -0.92969,0 -1.14844,-2.3789063 l 0.10937,-0.21875 q -0.30078,-2.40624996 -0.4375,-7.5742187 h -0.1914 l 0.21875,0.4375 v -0.21875 q 0,-4.3203125 0.10937,-7.8750001 z m 2.59766,3.007813 v -0.710938 q 0.10937,12.332031 0.4375,19.46875 -0.10938,2.9257813 -0.10938,6.0156251 v 1.3125 q 0,4.1289062 0.30079,7.4648437 1.39453,-1.20312496 3.5,-4.6210937 2.48828,-5.46875 2.48828,-10.2812501 v -1.09375 q 0,-6.753906 -3.33594,-13.78125 -2.29688,-3.445312 -3.28125,-3.773437 z"
       style="font-style:normal;font-variant:normal;font-weight:normal;font-stretch:normal;font-size:56px;line-height:1;font-family:'Moon Flower Bold';-inkscape-font-specification:'Moon Flower Bold, ';text-align:center;text-anchor:middle;fill:#18394c;fill-opacity:1"
       id="path9788" />
    <path
       d="m -109.51172,26.320154 q 1.44922,0.05469 1.44922,-0.109375 -0.24609,0.109375 1.61328,0.109375 h 8.777345 q 1.75,0.136719 1.75,1.257812 -3.636719,11.976563 -6.562505,24.445313 l -2.40625,9.242187 q 0,1.09375 -0.95703,1.257813 h -0.49218 q -0.62891,0 -1.01172,-0.765625 v -0.546875 q 0,-0.4375 1.75,-7 3.74609,-15.503906 6.589841,-24.664063 0.109375,-0.191406 0.273438,-1.039062 h -8.421879 q -1.85937,0.21875 -2.29687,0.21875 -0.95703,-0.410156 -0.95703,-1.3125 v -0.109375 q 0,-0.4375 0.90234,-0.984375 z"
       style="font-style:normal;font-variant:normal;font-weight:normal;font-stretch:normal;font-size:56px;line-height:1;font-family:'Moon Flower Bold';-inkscape-font-specification:'Moon Flower Bold, ';text-align:center;text-anchor:middle;fill:#18394c;fill-opacity:1"
       id="path9790" />
    <path
       d="m -74.8125,23.421716 q 5.824219,0 7.875,5.113282 0.355469,1.121093 0.464844,2.625 0,6.917968 -2.433594,15.175781 -1.257812,2.160156 -3.609375,3.335937 -0.847656,0.02734 -0.847656,-0.21875 v 0.109375 q 0,1.421875 0.109375,2.40625 -0.109375,0.984375 -0.109375,1.09375 0.328125,6.179688 0.328125,6.671875 0.328125,0.05469 0.328125,1.3125 v 0.410157 q -0.4375,1.148437 -1.175781,1.449218 h -0.382813 q -0.574219,0 -1.121094,-0.847656 v -0.902344 q 0,-0.65625 0,-0.65625 -0.08203,-0.464843 -0.21875,-2.269531 0,-0.683594 0.08203,-0.683594 l -0.300782,-4.046875 q 0.109375,-1.121093 0.109375,-1.640625 -0.109375,-1.996093 -0.109375,-2.214843 -0.4375,-0.21875 -0.4375,-0.902344 0.246094,-0.929688 0.382813,-0.929688 -0.164063,-2.324218 -0.164063,-2.953125 l 0.519532,-19.359375 q -0.191407,0 -0.191407,-0.765625 v -0.328125 q 0,-0.4375 0.902344,-0.984375 z m 1.75,2.324219 -0.519531,19.113281 q 0.109375,2.296875 0.109375,2.871094 l -0.273438,-0.136719 q 0.738282,0 1.832032,-1.148437 1.722656,-1.09375 2.871093,-13.097656 0.109375,-1.96875 0.109375,-2.597657 0,-2.597656 -2.953125,-4.675781 -0.792968,-0.273437 -1.175781,-0.328125 z"
       style="font-style:normal;font-variant:normal;font-weight:normal;font-stretch:normal;font-size:56px;line-height:1;font-family:'Moon Flower Bold';-inkscape-font-specification:'Moon Flower Bold, ';text-align:center;text-anchor:middle;fill:#18394c;fill-opacity:1"
       id="path9792" />
    <path
       d="m -61.113281,23.859216 q 1.285156,0.410157 7.601562,17.582032 h -0.902343 q 0,-0.710938 5.578125,-16.898438 h 1.3125 l 0.492187,0.957031 0.02734,1.203125 q -0.300781,9.789063 -0.300781,16.542969 0,2.597656 0.984375,19.085938 l -1.175782,0.574218 q -1.476562,0 -2.132812,-18.375 V 31.706873 h 0.902344 q -3.882813,12.058593 -4.730469,12.742187 -1.75,-0.109375 -6.808594,-14.355469 h 0.847656 v -0.21875 l 1.613282,31.800782 -1.121094,0.601562 q -1.53125,0 -1.53125,-1.203125 -0.957031,-28.574219 -1.941406,-36.558594 z"
       style="font-style:normal;font-variant:normal;font-weight:normal;font-stretch:normal;font-size:56px;line-height:1;font-family:'Moon Flower Bold';-inkscape-font-specification:'Moon Flower Bold, ';text-align:center;text-anchor:middle;fill:#18394c;fill-opacity:1"
       id="path9794" />
    <path
       d="m -16.679687,26.156091 0.710937,0.820313 v 0.4375 q 0,1.011719 -3.746094,1.011719 h -3.0625 q 0.328125,0 0.355469,-0.08203 l 0.21875,4.949219 q -0.109375,0.683594 -0.109375,0.738281 0.984375,16.542969 0.984375,23.597657 0.109375,0.191406 0.109375,0.546875 -0.109375,0.164062 -0.109375,0.109375 l 0.136719,0.738281 q -0.382813,0.875 -1.039063,0.875 h -0.4375 q -0.464843,0 -1.121093,-0.765625 0,-0.382813 0.109375,-1.230469 0,-2.324219 -0.984375,-23.597656 0,-3.445313 -0.191407,-6.015625 l 0.246094,0.136719 h -0.109375 l -3.828125,0.328125 q -0.710937,-0.765625 -0.710937,-1.421875 0,-0.464844 1.039062,-0.984375 0.957031,0.246093 0.929688,0.246093 2.105468,-0.191406 2.980468,-0.191406 h 4.484375 q 1.339844,0 3.144532,-0.246094 z"
       style="font-style:normal;font-variant:normal;font-weight:normal;font-stretch:normal;font-size:56px;line-height:1;font-family:'Moon Flower Bold';-inkscape-font-specification:'Moon Flower Bold, ';text-align:center;text-anchor:middle;fill:#18394c;fill-opacity:1"
       id="path9796" />
    <path
       d="m -5.6601562,24.296716 q 3.71875,0 5.6054687,15.257813 0.109375,1.449219 0.109375,3.664062 v 0.4375 q 0,0.4375 -0.08203125,0.875 0.08203125,0.109375 0.08203125,0.875 v 0.109375 q 0,0.765625 -0.08203125,0.875 0.08203125,0.4375 0.08203125,0.546875 0,11.757813 -3.4453125,14.65625 -1.3945312,0.546875 -1.9414062,0.546875 h -0.875 Q -10.664063,61.07406 -11.703125,51.44906 l -0.328125,-4.484375 q 0,-15.53125 3.9648437,-21.683594 1.3125001,-0.984375 2.4062501,-0.984375 z m -3.9101563,22.3125 q 0,6.097657 1.6132813,10.664063 1.3398437,2.679687 2.078125,2.679687 h 0.109375 q 1.640625,0 2.1874999,-2.652343 Q -2.40625,54.51156 -2.40625,45.296716 v -2.1875 q 0,-6.371093 -2.2695312,-14.628906 -0.7382813,-1.640625 -1.09375,-1.886719 -0.6015625,0.21875 -0.765625,0.710938 -3.0351563,6.425781 -3.0351563,19.304687 z"
       style="font-style:normal;font-variant:normal;font-weight:normal;font-stretch:normal;font-size:56px;line-height:1;font-family:'Moon Flower Bold';-inkscape-font-specification:'Moon Flower Bold, ';text-align:center;text-anchor:middle;fill:#18394c;fill-opacity:1"
       id="path9798" />
    <path
       d="m 21.492187,22.546716 h 0.109375 q 0.601563,0 1.121094,0.847657 0,1.230468 0.109375,1.230468 l -0.21875,-0.4375 q 0.765625,12.03125 0.765625,20.207032 0.328125,2.652343 0.328125,7.355468 v 8.96875 h 5.222656 q 0.628907,0 1.011719,0.765625 v 0.4375 q 0,0.984375 -2.542969,0.984375 h -5.03125 q -0.574218,0 -1.121093,-0.847656 v -0.792969 q 0,-1.3125 0.05469,-1.3125 l -0.05469,-0.738281 v -8.011719 q -0.4375,-14.382812 -0.875,-23.925781 l -0.328125,-3.691406 q 0.328125,-1.039063 1.449218,-1.039063 z"
       style="font-style:normal;font-variant:normal;font-weight:normal;font-stretch:normal;font-size:56px;line-height:1;font-family:'Moon Flower Bold';-inkscape-font-specification:'Moon Flower Bold, ';text-align:center;text-anchor:middle;fill:#18394c;fill-opacity:1"
       id="path9800" />
    <path
       d="m 39.921875,24.488123 h 0.273437 q 1.96875,0.902343 3.144532,4.265625 3.0625,9.460937 4.511718,24.117187 0.957032,4.757813 0.957032,8.476563 -0.328125,0.820312 -1.886719,0.820312 -0.65625,-1.257812 -1.53125,-9.160156 -0.246094,-0.847656 -1.039063,-6.863281 l -0.246093,-0.02734 q -5.195313,0.492187 -5.195313,0.65625 v 4.265625 l -0.738281,10.007812 q 0.246094,0.355469 0.246094,0.820313 0,0.464844 -0.957032,1.039062 -1.859375,0 -1.859375,-1.777343 0.847657,-11.539063 0.847657,-13.835938 -0.109375,-1.503906 -0.109375,-3.0625 0.05469,-7.902344 1.3125,-16.734375 0.628906,-3.007812 2.269531,-3.007812 z m 0.492187,2.816406 q -1.394531,5.359375 -1.394531,15.558594 -0.109375,0 -0.109375,2.105468 V 44.558435 Q 41.5625,43.820154 44.1875,43.820154 v 0.410156 q 0,-3.28125 -3.609375,-15.667969 -0.683594,-1.476562 -0.164063,-1.257812 z"
       style="font-style:normal;font-variant:normal;font-weight:normal;font-stretch:normal;font-size:56px;line-height:1;font-family:'Moon Flower Bold';-inkscape-font-specification:'Moon Flower Bold, ';text-align:center;text-anchor:middle;fill:#18394c;fill-opacity:1"
       id="path9802" />
    <path
       d="m 67.101562,26.156091 0.710938,0.820313 v 0.4375 q 0,1.011719 -3.746094,1.011719 h -3.0625 q 0.328125,0 0.355469,-0.08203 l 0.21875,4.949219 q -0.109375,0.683594 -0.109375,0.738281 0.984375,16.542969 0.984375,23.597657 0.109375,0.191406 0.109375,0.546875 -0.109375,0.164062 -0.109375,0.109375 l 0.136719,0.738281 q -0.382813,0.875 -1.039063,0.875 h -0.4375 q -0.464844,0 -1.121094,-0.765625 0,-0.382813 0.109375,-1.230469 0,-2.324219 -0.984375,-23.597656 0,-3.445313 -0.191406,-6.015625 l 0.246094,0.136719 H 59.0625 l -3.828125,0.328125 q -0.710938,-0.765625 -0.710938,-1.421875 0,-0.464844 1.039063,-0.984375 0.957031,0.246093 0.929687,0.246093 2.105469,-0.191406 2.980469,-0.191406 h 4.484375 q 1.339844,0 3.144531,-0.246094 z"
       style="font-style:normal;font-variant:normal;font-weight:normal;font-stretch:normal;font-size:56px;line-height:1;font-family:'Moon Flower Bold';-inkscape-font-specification:'Moon Flower Bold, ';text-align:center;text-anchor:middle;fill:#18394c;fill-opacity:1"
       id="path9804" />
    <path
       d="m 77.847656,24.077966 0.246094,0.136719 q -0.765625,0 -0.765625,-0.164062 4.867187,0.4375 4.867187,1.367187 v 0.191406 q -0.355468,1.011719 -1.285156,1.011719 L 77.738281,26.29281 q -0.21875,0 -1.394531,0.08203 l 0.05469,0.765625 q 0,1.804688 0.519532,13.917969 h 0.109375 q 0.792968,0 1.367187,-0.109375 2.570313,0.21875 4.046875,0.21875 l 0.628906,0.847656 v 0.464844 q 0,0.875 -1.121093,0.875 -0.984375,0 -3.171875,-0.21875 -1.449219,0.109375 -1.832032,0.109375 V 43.13656 q 0,7.710938 0.738282,17.28125 0.136718,0 0.136718,0.08203 3.417969,-0.191406 4.375,-0.191406 0.847657,0.273438 1.203125,0.984375 v 0.21875 q 0,0.4375 -0.875,0.984375 -4.347656,0.109375 -5.222656,0.21875 Q 75.25,62.714685 75.25,60.773279 74.484375,50.327966 74.484375,43.35531 v -3.5 Q 73.9375,30.23031 73.9375,26.894373 73.609375,25.253748 73.609375,24.843591 l 0.847656,-0.628906 h 1.476563 q 0.601562,0 1.914062,-0.136719 z"
       style="font-style:normal;font-variant:normal;font-weight:normal;font-stretch:normal;font-size:56px;line-height:1;font-family:'Moon Flower Bold';-inkscape-font-specification:'Moon Flower Bold, ';text-align:center;text-anchor:middle;fill:#18394c;fill-opacity:1"
       id="path9806" />
    <path
       d="m 103.90625,39.527185 q 0.84766,0 2.54297,0.21875 2.87109,-0.109375 8.28516,-0.21875 3.08984,0.109375 6.86328,0.109375 l 0.49218,0.738281 v 0.710938 l -0.65625,0.875 q -4.29296,-0.246094 -5.38671,-0.246094 -7.19141,0.109375 -10.39063,0.109375 -2.65234,0 -2.65234,-1.09375 v -0.21875 q 0,-0.4375 0.90234,-0.984375 z m 17.47266,7.21875 q 2.13281,0 2.13281,0.875 v 0.765625 l -0.35547,0.683594 -1.77734,-0.136719 q -1.39453,0 -16.78907,0.65625 -0.73828,0.21875 -1.12109,0.21875 H 103.25 q -0.57422,0 -1.12109,-0.847656 V 48.60531 q 0,-1.203125 7,-1.421875 z"
       style="font-style:normal;font-variant:normal;font-weight:normal;font-stretch:normal;font-size:56px;line-height:1;font-family:'Moon Flower Bold';-inkscape-font-specification:'Moon Flower Bold, ';text-align:center;text-anchor:middle;fill:#18394c;fill-opacity:1"
       id="path9808" />
    <path
       d="m 146.01562,23.421716 q 5.82422,0 7.875,5.113282 0.35547,1.121093 0.46485,2.625 0,6.917968 -2.4336,15.175781 -1.25781,2.160156 -3.60937,3.335937 -0.84766,0.02734 -0.84766,-0.21875 v 0.109375 q 0,1.421875 0.10938,2.40625 -0.10938,0.984375 -0.10938,1.09375 0.32813,6.179688 0.32813,6.671875 0.32812,0.05469 0.32812,1.3125 v 0.410157 q -0.4375,1.148437 -1.17578,1.449218 h -0.38281 q -0.57422,0 -1.12109,-0.847656 v -0.902344 q 0,-0.65625 0,-0.65625 -0.082,-0.464843 -0.21875,-2.269531 0,-0.683594 0.082,-0.683594 l -0.30078,-4.046875 q 0.10937,-1.121093 0.10937,-1.640625 -0.10937,-1.996093 -0.10937,-2.214843 -0.4375,-0.21875 -0.4375,-0.902344 0.24609,-0.929688 0.38281,-0.929688 -0.16406,-2.324218 -0.16406,-2.953125 l 0.51953,-19.359375 q -0.19141,0 -0.19141,-0.765625 v -0.328125 q 0,-0.4375 0.90234,-0.984375 z m 1.75,2.324219 -0.51953,19.113281 q 0.10938,2.296875 0.10938,2.871094 l -0.27344,-0.136719 q 0.73828,0 1.83203,-1.148437 1.72266,-1.09375 2.8711,-13.097656 0.10937,-1.96875 0.10937,-2.597657 0,-2.597656 -2.95312,-4.675781 -0.79297,-0.273437 -1.17579,-0.328125 z"
       style="font-style:normal;font-variant:normal;font-weight:normal;font-stretch:normal;font-size:56px;line-height:1;font-family:'Moon Flower Bold';-inkscape-font-specification:'Moon Flower Bold, ';text-align:center;text-anchor:middle;fill:#18394c;fill-opacity:1"
       id="path9810" />
    <path
       d="m 163.51562,24.488123 h 0.27344 q 1.96875,0.902343 3.14453,4.265625 3.0625,9.460937 4.51172,24.117187 0.95703,4.757813 0.95703,8.476563 -0.32812,0.820312 -1.88672,0.820312 -0.65625,-1.257812 -1.53125,-9.160156 -0.24609,-0.847656 -1.03906,-6.863281 l -0.24609,-0.02734 q -5.19531,0.492187 -5.19531,0.65625 v 4.265625 l -0.73829,10.007812 q 0.2461,0.355469 0.2461,0.820313 0,0.464844 -0.95703,1.039062 -1.85938,0 -1.85938,-1.777343 0.84766,-11.539063 0.84766,-13.835938 -0.10938,-1.503906 -0.10938,-3.0625 0.0547,-7.902344 1.3125,-16.734375 0.62891,-3.007812 2.26953,-3.007812 z m 0.49219,2.816406 q -1.39453,5.359375 -1.39453,15.558594 -0.10937,0 -0.10937,2.105468 v -0.410156 q 2.65234,-0.738281 5.27734,-0.738281 v 0.410156 q 0,-3.28125 -3.60938,-15.667969 -0.68359,-1.476562 -0.16406,-1.257812 z"
       style="font-style:normal;font-variant:normal;font-weight:normal;font-stretch:normal;font-size:56px;line-height:1;font-family:'Moon Flower Bold';-inkscape-font-specification:'Moon Flower Bold, ';text-align:center;text-anchor:middle;fill:#18394c;fill-opacity:1"
       id="path9812" />
    <path
       d="m 180.11328,21.452966 h 0.875 q 0.32813,0.4375 1.80469,0.683594 2.3789,0.957031 3.80078,3.390625 1.91406,4.621094 1.91406,6.863281 v 1.09375 q 0,7.382813 -3.52734,10.144532 4.15625,0.984375 4.94922,11.59375 v 4.183593 q 0,0.929688 0.13672,2.980469 l -0.79297,0.519531 h -0.84766 l -0.82031,-0.628906 q -0.13672,-2.433594 -0.13672,-3.527344 v -3.9375 q 0,-3.992187 -2.40625,-8.121093 -1.47656,-1.394532 -2.48828,-1.394532 h 0.60156 q 0.082,1.804688 0.082,2.953125 v 4.15625 q 0.21875,5.414063 0.21875,6.125 v 0.328125 q -0.4375,0.875 -1.33984,0.875 -0.51953,0 -1.25781,-0.847656 l 0.13671,-0.929687 q -0.21875,-4.59375 -0.21875,-6.097657 v -6.015625 q -0.27343,0 -0.65625,-0.902343 v -0.519532 q 0.4375,-0.875 0.51954,-0.875 -0.51954,-14.4375 -1.42188,-21.4375 z m 1.88672,2.625 q 0.60156,7.410157 1.09375,18.101563 2.95312,-1.996094 2.95312,-8.148438 v -1.53125 q 0,-2.761718 -2.29687,-7.027343 -1.53125,-1.394532 -2.16016,-1.394532 z"
       style="font-style:normal;font-variant:normal;font-weight:normal;font-stretch:normal;font-size:56px;line-height:1;font-family:'Moon Flower Bold';-inkscape-font-specification:'Moon Flower Bold, ';text-align:center;text-anchor:middle;fill:#18394c;fill-opacity:1"
       id="path9814" />
    <path
       d="m 206.99219,26.156091 0.71093,0.820313 v 0.4375 q 0,1.011719 -3.74609,1.011719 h -3.0625 q 0.32813,0 0.35547,-0.08203 l 0.21875,4.949219 q -0.10938,0.683594 -0.10938,0.738281 0.98438,16.542969 0.98438,23.597657 0.10937,0.191406 0.10937,0.546875 -0.10937,0.164062 -0.10937,0.109375 l 0.13672,0.738281 q -0.38281,0.875 -1.03906,0.875 h -0.4375 q -0.46485,0 -1.1211,-0.765625 0,-0.382813 0.10938,-1.230469 0,-2.324219 -0.98438,-23.597656 0,-3.445313 -0.1914,-6.015625 l 0.24609,0.136719 h -0.10938 l -3.82812,0.328125 q -0.71094,-0.765625 -0.71094,-1.421875 0,-0.464844 1.03906,-0.984375 0.95704,0.246093 0.92969,0.246093 2.10547,-0.191406 2.98047,-0.191406 h 4.48438 q 1.33984,0 3.14453,-0.246094 z"
       style="font-style:normal;font-variant:normal;font-weight:normal;font-stretch:normal;font-size:56px;line-height:1;font-family:'Moon Flower Bold';-inkscape-font-specification:'Moon Flower Bold, ';text-align:center;text-anchor:middle;fill:#18394c;fill-opacity:1"
       id="path9816" />
    <path
       d="m 223.37109,25.937341 h 0.46485 q 0.57422,0 1.12109,0.847657 v 0.273437 q -0.875,7.847656 -1.85937,15.285156 l 0.10937,0.628907 v 0.902343 q -0.41016,0 -1.20312,10.308594 -0.32813,5.441406 -0.82032,8.394531 l -0.65625,0.328125 h -0.6289 q -0.62891,-0.164062 -1.01172,-1.011718 1.20312,-14.546875 1.75,-18.839844 -2.89844,-6.261719 -7.60156,-12.605469 -1.03907,-0.738281 -1.03907,-1.558594 v -0.21875 q 0,-0.4375 0.90235,-0.984375 h 0.82031 q 0.76562,0.300782 1.12109,1.421875 4.34766,5.386719 7.05469,11.15625 h -0.98437 q 1.14843,-9.925781 1.72265,-13.835937 z"
       style="font-style:normal;font-variant:normal;font-weight:normal;font-stretch:normal;font-size:56px;line-height:1;font-family:'Moon Flower Bold';-inkscape-font-specification:'Moon Flower Bold, ';text-align:center;text-anchor:middle;fill:#18394c;fill-opacity:1"
       id="path9818" />
  </g>
</svg>
