<?xml version="1.0" encoding="UTF-8" standalone="no"?>
<svg
   xmlns:dc="http://purl.org/dc/elements/1.1/"
   xmlns:cc="http://creativecommons.org/ns#"
   xmlns:rdf="http://www.w3.org/1999/02/22-rdf-syntax-ns#"
   xmlns:svg="http://www.w3.org/2000/svg"
   xmlns="http://www.w3.org/2000/svg"
   xmlns:sodipodi="http://sodipodi.sourceforge.net/DTD/sodipodi-0.dtd"
   xmlns:inkscape="http://www.inkscape.org/namespaces/inkscape"
   id="svg8"
   version="1.1"
   viewBox="0 0 256 256"
   sodipodi:docname="Date.svg"
   inkscape:version="0.92.3 (2405546, 2018-03-11)">
  <sodipodi:namedview
     pagecolor="#ffffff"
     bordercolor="#666666"
     borderopacity="1"
     objecttolerance="10"
     gridtolerance="10"
     guidetolerance="10"
     inkscape:pageopacity="0"
     inkscape:pageshadow="2"
     inkscape:window-width="1812"
     inkscape:window-height="1051"
     id="namedview2792"
     showgrid="false"
     inkscape:zoom="1.3037281"
     inkscape:cx="124.01198"
     inkscape:cy="132.74012"
     inkscape:window-x="-9"
     inkscape:window-y="-9"
     inkscape:window-maximized="1"
     inkscape:current-layer="svg8" />
  <defs
     id="defs2" />
  <metadata
     id="metadata5">
    <rdf:RDF>
      <cc:Work
         rdf:about="">
        <dc:format>image/svg+xml</dc:format>
        <dc:type
           rdf:resource="http://purl.org/dc/dcmitype/StillImage" />
        <dc:title></dc:title>
      </cc:Work>
    </rdf:RDF>
  </metadata>
  <g
     aria-label="Saturday 
20th June 
2020"
     transform="translate(105.72238,268.60834)"
     style="font-style:normal;font-weight:normal;font-size:40px;line-height:1.5;font-family:sans-serif;letter-spacing:0px;word-spacing:0px;fill:#000000;fill-opacity:1;stroke:#000000;stroke-opacity:1;stroke-width:0.75590551;stroke-miterlimit:4;stroke-dasharray:none"
     id="flowRoot3337">
    <path
       d="m -40.713945,-208.76155 q 0,-1.68 0.8,-3.52 0.8,-1.88 2.28,-3.48 1.48,-1.6 3.6,-2.64 2.12,-1.04 4.72,-1.04 2.32,0 3.24,1.16 0.96,1.12 0.96,2.84 0,1.08 -0.32,2.32 -0.28,1.24 -0.76,2.44 -0.44,1.16 -1,2.24 -0.52,1.04 -1,1.8 -0.72,-0.16 -1.04,-0.6 -0.28,-0.44 -0.28,-1.12 0,-0.84 0.36,-1.92 0.36,-1.12 0.8,-2.24 0.48,-1.16 0.84,-2.24 0.36,-1.12 0.36,-2 0,-0.8 -0.48,-1.24 -0.48,-0.48 -1.76,-0.48 -1.88,0 -3.52,0.92 -1.6,0.88 -2.8,2.24 -1.16,1.32 -1.84,2.88 -0.64,1.52 -0.64,2.76 0,1.48 0.88,2.56 0.88,1.04 2.2,1.92 1.36,0.88 2.88,1.72 1.56,0.8 2.88,1.88 1.36,1.04 2.24,2.48 0.88,1.4 0.88,3.44 0,2.08 -0.96,3.68 -0.92,1.56 -2.44,2.64 -1.48,1.08 -3.36,1.64 -1.84,0.56 -3.68,0.56 -1.64,0 -3.16,-0.44 -1.48,-0.44 -2.64,-1.32 -1.16,-0.88 -1.88,-2.24 -0.68,-1.36 -0.68,-3.16 0,-1.56 0.48,-2.6 0.52,-1.04 1.24,-1.64 0.76,-0.6 1.64,-0.84 0.92,-0.28 1.76,-0.28 -1.08,1.16 -1.64,2.56 -0.56,1.4 -0.56,2.8 0,1.12 0.36,2.12 0.4,1 1.12,1.76 0.76,0.8 1.92,1.24 1.16,0.48 2.72,0.48 1.36,0 2.68,-0.4 1.32,-0.36 2.36,-1.08 1.08,-0.72 1.72,-1.8 0.68,-1.12 0.68,-2.56 0,-1.72 -0.92,-2.92 -0.88,-1.24 -2.24,-2.2 -1.36,-1 -2.92,-1.88 -1.56,-0.88 -2.92,-1.88 -1.36,-1 -2.28,-2.24 -0.88,-1.28 -0.88,-3.08 z"
       style="font-style:normal;font-variant:normal;font-weight:normal;font-stretch:normal;line-height:1.5;font-family:'Dancing Script';-inkscape-font-specification:'Dancing Script';text-align:center;text-anchor:middle;stroke:#000000;stroke-opacity:1;stroke-width:0.75590551;stroke-miterlimit:4;stroke-dasharray:none"
       id="path938" />
    <path
       d="m -12.10957,-199.12155 q 0.16,0.04 0.44,0.12 0.28,0.08 0.52,0.2 0.28,0.12 0.44,0.28 0.2,0.16 0.2,0.4 0,0.36 -0.36,1 -0.36,0.64 -0.8,1.44 -0.44,0.76 -0.8,1.6 -0.36,0.8 -0.36,1.52 0,0.6 0.32,1.2 0.32,0.56 1.04,0.56 1.08,0 2.8399997,-1.56 1.76,-1.56 3.56,-4.76 l 0.4,0.4 q -0.64,1.64 -1.56,3 -0.92,1.32 -2,2.28 -1.04,0.96 -2.1599997,1.48 -1.12,0.52 -2.2,0.52 -1.48,0 -2.2,-0.88 -0.68,-0.88 -0.68,-1.92 0,-0.48 0.12,-1.16 -1.76,2.32 -3.16,3.48 -1.4,1.16 -2.88,1.16 -1.28,0 -2.12,-0.84 -0.84,-0.8 -0.84,-2.48 0,-1.2 0.48,-2.56 0.44,-1.36 1.24,-2.72 0.8,-1.4 1.88,-2.64 1.08,-1.28 2.28,-2.24 1.24,-0.96 2.56,-1.52 1.32,-0.6 2.64,-0.6 1.56,0 2.6,0.84 1.0399997,0.8 1.0399997,2.16 0,1 -0.5599997,1.36 -0.52,0.36 -1.4,0.36 0.2,-0.72 0.2,-1.4 0,-0.92 -0.44,-1.56 -0.44,-0.68 -1.52,-0.68 -0.96,0 -1.92,0.56 -0.96,0.56 -1.88,1.52 -0.92,0.92 -1.72,2.12 -0.8,1.2 -1.44,2.48 -0.6,1.24 -0.96,2.48 -0.32,1.2 -0.32,2.16 0,1.56 1.08,1.56 0.92,0 2.08,-0.96 1.16,-0.96 2.32,-2.32 1.16,-1.36 2.2,-2.84 1.08,-1.52 1.8,-2.6 z"
       style="font-style:normal;font-variant:normal;font-weight:normal;font-stretch:normal;line-height:1.5;font-family:'Dancing Script';-inkscape-font-specification:'Dancing Script';text-align:center;text-anchor:middle;stroke:#000000;stroke-opacity:1;stroke-width:0.75590551;stroke-miterlimit:4;stroke-dasharray:none"
       id="path940" />
    <path
       d="m 6.3504297,-202.68155 q -4.4,0.48 -7.04000001,0.48 H -1.2895703 q -0.92,2.16 -1.56,4.36 -0.64,2.2 -0.64,4.36 0,1.76 0.52,2.48 0.52,0.72 1.72,0.72 2.07999999,0 4.08,-1.84 2,-1.84 3.52,-5 l 0.52,0.4 q -0.72,1.68 -1.76,3.16 -1,1.44 -2.2,2.52 -1.2,1.04 -2.56000001,1.64 -1.35999999,0.6 -2.75999999,0.6 -3.56,0 -3.56,-3.96 0,-1.8 0.64,-4.32 0.64,-2.56 1.68,-5.32 -0.4,-0.08 -0.76,-0.12 -0.36,-0.08 -0.68,-0.2 v -0.72 q 0.32,0.04 0.76,0.08 0.44,0.04 1,0.08 0.84,-2.16 1.8,-4.16 0.95999999,-2.04 1.87999999,-3.6 0.96000001,-1.6 1.80000001,-2.52 0.88,-0.96 1.48,-0.96 0.32,0 0.56,0.24 0.28,0.2 0.28,0.64 0,0.52 -0.52,1.56 -0.48,1 -1.28,2.36 -0.76,1.36 -1.72000001,3.04 -0.92,1.68 -1.8,3.52 h 1.48 q 1.32000001,0 2.76000001,-0.04 1.44,-0.04 2.96,-0.2 z"
       style="font-style:normal;font-variant:normal;font-weight:normal;font-stretch:normal;line-height:1.5;font-family:'Dancing Script';-inkscape-font-specification:'Dancing Script';text-align:center;text-anchor:middle;stroke:#000000;stroke-opacity:1;stroke-width:0.75590551;stroke-miterlimit:4;stroke-dasharray:none"
       id="path942" />
    <path
       d="m 16.63668,-201.48155 q 0.16,0.04 0.48,0.12 0.32,0.04 0.64,0.16 0.32,0.12 0.56,0.32 0.24,0.2 0.24,0.44 0,0.16 -0.44,1.08 -0.4,0.92 -0.92,2.2 -0.48,1.24 -0.92,2.6 -0.4,1.32 -0.4,2.32 0,0.72 0.28,1.16 0.32,0.44 1.04,0.44 0.64,0 1.48,-0.44 0.84,-0.44 1.76,-1.24 0.92,-0.84 1.8,-2.04 0.92,-1.2 1.64,-2.76 l 0.52,0.36 q -0.64,1.64 -1.6,3 -0.92,1.32 -2,2.28 -1.08,0.96 -2.24,1.48 -1.12,0.56 -2.2,0.56 -1.6,0 -2.2,-0.88 -0.6,-0.84 -0.6,-2.08 0,-0.48 0.08,-0.96 0.08,-0.52 0.2,-1.04 -0.56,1 -1.16,1.92 -0.6,0.88 -1.28,1.56 -0.64,0.68 -1.36,1.08 -0.6800003,0.4 -1.4400003,0.4 -1.36,0 -2.2,-1.2 -0.8,-1.2 -0.8,-2.84 0,-1.12 0.36,-2.68 0.4,-1.6 0.92,-3 0.56,-1.4 1.16,-2.4 0.64,-1 1.08,-1 0.2,0 0.68,0.24 0.4800003,0.2 0.8000003,0.56 -0.32,0.52 -0.8000003,1.48 -0.44,0.92 -0.88,2.04 -0.4,1.12 -0.72,2.32 -0.28,1.2 -0.28,2.2 0,0.24 0.04,0.72 0.04,0.44 0.16,0.88 0.16,0.44 0.44,0.76 0.32,0.32 0.8,0.32 0.9200003,0 1.9600003,-1.2 1.04,-1.2 2.04,-2.88 1,-1.68 1.84,-3.44 0.88,-1.8 1.44,-2.92 z"
       style="font-style:normal;font-variant:normal;font-weight:normal;font-stretch:normal;line-height:1.5;font-family:'Dancing Script';-inkscape-font-specification:'Dancing Script';text-align:center;text-anchor:middle;stroke:#000000;stroke-opacity:1;stroke-width:0.75590551;stroke-miterlimit:4;stroke-dasharray:none"
       id="path944" />
    <path
       d="m 23.214805,-195.72155 q 0.56,-1.04 1.44,-3.04 0.92,-2 1.8,-4.56 -0.4,-0.4 -0.4,-0.96 0,-0.6 0.2,-1.08 0.2,-0.52 0.48,-0.88 0.28,-0.36 0.56,-0.56 0.28,-0.2 0.44,-0.2 0.44,0 0.48,0.4 0.08,0.36 0.08,0.56 0,0.12 -0.08,0.36 -0.04,0.2 -0.16,0.44 -0.08,0.24 -0.16,0.44 -0.04,0.2 -0.04,0.24 0,0.56 0.64,1.04 0.64,0.44 1.4,1.04 0.76,0.56 1.4,1.4 0.64,0.8 0.64,2.08 0,0.92 -0.32,1.88 -0.32,0.92 -0.68,1.8 -0.36,0.88 -0.68,1.68 -0.32,0.76 -0.32,1.4 0,0.72 0.36,0.96 0.36,0.24 0.84,0.24 0.96,0 2,-0.6 1.04,-0.6 1.96,-1.48 0.96,-0.92 1.72,-1.96 0.76,-1.04 1.12,-1.92 l 0.52,0.4 q -0.56,1.28 -1.48,2.56 -0.88,1.24 -2,2.24 -1.12,0.96 -2.36,1.56 -1.24,0.64 -2.52,0.64 -1.36,0 -2.16,-0.72 -0.76,-0.72 -0.76,-1.88 0,-0.88 0.32,-1.84 0.36,-1 0.76,-1.96 0.44,-1 0.76,-1.92 0.36,-0.96 0.36,-1.76 0,-0.64 -0.2,-1.08 -0.2,-0.48 -0.56,-0.8 -0.32,-0.36 -0.72,-0.6 -0.4,-0.28 -0.76,-0.56 -0.48,1.2 -0.96,2.36 -0.48,1.12 -0.96,2.12 -0.48,1 -0.92,1.84 -0.4,0.84 -0.72,1.36 z"
       style="font-style:normal;font-variant:normal;font-weight:normal;font-stretch:normal;line-height:1.5;font-family:'Dancing Script';-inkscape-font-specification:'Dancing Script';text-align:center;text-anchor:middle;stroke:#000000;stroke-opacity:1;stroke-width:0.75590551;stroke-miterlimit:4;stroke-dasharray:none"
       id="path946" />
    <path
       d="m 48.95918,-203.24155 q -0.44,-0.6 -1.52,-0.6 -1.08,0 -2.12,0.56 -1,0.56 -1.92,1.48 -0.88,0.92 -1.64,2.08 -0.76,1.16 -1.32,2.36 -0.52,1.16 -0.84,2.24 -0.28,1.08 -0.28,1.84 0,0.92 0.36,1.44 0.4,0.48 1.08,0.48 0.8,0 1.88,-0.76 1.12,-0.8 2.28,-2.24 1.2,-1.44 2.36,-3.44 1.16,-2.04 2.12,-4.56 1.12,-2.88 2.32,-5.92 1.2,-3.04 2.36,-5.52 1.16,-2.48 2.2,-4.04 1.04,-1.6 1.88,-1.6 0.32,0 0.56,0.28 0.24,0.24 0.24,0.64 0,0.64 -0.68,2.2 -0.68,1.52 -1.72,3.68 -1,2.12 -2.2,4.64 -1.2,2.52 -2.24,5.12 -1,2.56 -1.68,5.04 -0.68,2.44 -0.68,4.4 0,1.16 0.12,1.72 0.12,0.52 0.8,0.52 0.6,0 1.4,-0.4 0.84,-0.44 1.68,-1.2 0.84,-0.76 1.64,-1.84 0.8,-1.12 1.44,-2.48 l 0.48,0.36 q -0.6,1.56 -1.52,2.88 -0.88,1.28 -1.92,2.24 -1.04,0.96 -2.2,1.48 -1.12,0.56 -2.12,0.56 -0.76,0 -1.28,-0.28 -0.48,-0.28 -0.8,-0.72 -0.28,-0.4 -0.44,-0.92 -0.12,-0.56 -0.12,-1.08 0,-0.68 0.2,-1.76 0.2,-1.12 0.56,-2.52 -0.96,1.6 -2.04,2.96 -1.04,1.36 -2.12,2.36 -1.04,1 -2.08,1.56 -1,0.56 -1.92,0.56 -0.52,0 -1.04,-0.2 -0.52,-0.2 -0.96,-0.6 -0.44,-0.4 -0.72,-1.04 -0.28,-0.64 -0.28,-1.52 0,-1.12 0.48,-2.44 0.44,-1.36 1.2,-2.72 0.8,-1.36 1.84,-2.64 1.04,-1.28 2.24,-2.24 1.2,-1 2.48,-1.6 1.28,-0.6 2.52,-0.6 1.76,0 1.76,1.24 0,0.16 -0.04,0.28 0,0.12 -0.04,0.28 z"
       style="font-style:normal;font-variant:normal;font-weight:normal;font-stretch:normal;line-height:1.5;font-family:'Dancing Script';-inkscape-font-specification:'Dancing Script';text-align:center;text-anchor:middle;stroke:#000000;stroke-opacity:1;stroke-width:0.75590551;stroke-miterlimit:4;stroke-dasharray:none"
       id="path948" />
    <path
       d="m 67.343555,-199.12155 q 0.16,0.04 0.44,0.12 0.28,0.08 0.52,0.2 0.28,0.12 0.44,0.28 0.2,0.16 0.2,0.4 0,0.36 -0.36,1 -0.36,0.64 -0.8,1.44 -0.44,0.76 -0.8,1.6 -0.36,0.8 -0.36,1.52 0,0.6 0.32,1.2 0.32,0.56 1.04,0.56 1.08,0 2.84,-1.56 1.76,-1.56 3.56,-4.76 l 0.4,0.4 q -0.64,1.64 -1.56,3 -0.92,1.32 -2,2.28 -1.04,0.96 -2.16,1.48 -1.12,0.52 -2.2,0.52 -1.48,0 -2.2,-0.88 -0.68,-0.88 -0.68,-1.92 0,-0.48 0.12,-1.16 -1.76,2.32 -3.16,3.48 -1.4,1.16 -2.88,1.16 -1.28,0 -2.12,-0.84 -0.84,-0.8 -0.84,-2.48 0,-1.2 0.48,-2.56 0.44,-1.36 1.24,-2.72 0.8,-1.4 1.88,-2.64 1.08,-1.28 2.28,-2.24 1.24,-0.96 2.56,-1.52 1.32,-0.6 2.64,-0.6 1.56,0 2.6,0.84 1.04,0.8 1.04,2.16 0,1 -0.56,1.36 -0.52,0.36 -1.4,0.36 0.2,-0.72 0.2,-1.4 0,-0.92 -0.44,-1.56 -0.44,-0.68 -1.52,-0.68 -0.96,0 -1.92,0.56 -0.96,0.56 -1.88,1.52 -0.92,0.92 -1.72,2.12 -0.8,1.2 -1.44,2.48 -0.6,1.24 -0.96,2.48 -0.32,1.2 -0.32,2.16 0,1.56 1.08,1.56 0.92,0 2.08,-0.96 1.16,-0.96 2.32,-2.32 1.16,-1.36 2.2,-2.84 1.08,-1.52 1.8,-2.6 z"
       style="font-style:normal;font-variant:normal;font-weight:normal;font-stretch:normal;line-height:1.5;font-family:'Dancing Script';-inkscape-font-specification:'Dancing Script';text-align:center;text-anchor:middle;stroke:#000000;stroke-opacity:1;stroke-width:0.75590551;stroke-miterlimit:4;stroke-dasharray:none"
       id="path950" />
    <path
       d="m 86.483555,-201.52155 q 0,0.48 -0.24,1.64 -0.2,1.12 -0.64,2.64 -0.4,1.52 -0.96,3.32 -0.56,1.8 -1.28,3.6 1.88,-0.72 3.64,-2.36 1.8,-1.68 2.96,-4.44 l 0.52,0.4 q -0.44,1.44 -1.28,2.6 -0.8,1.16 -1.84,2.08 -1.04,0.92 -2.2,1.6 -1.12,0.68 -2.24,1.2 -0.8,1.92 -1.68,3.68 -0.88,1.8 -1.84,3.12 -0.96,1.36 -2,2.16 -1,0.84 -2.04,0.84 -1.04,0 -1.76,-0.56 -0.76,-0.52 -0.76,-1.56 0,-1.28 0.64,-2.28 0.64,-1 1.72,-1.84 1.08,-0.84 2.48,-1.6 1.4,-0.76 2.92,-1.52 0.56,-1.48 1.12,-3.28 0.56,-1.84 1.12,-4.04 -0.64,1.04 -1.36,2 -0.68,0.92 -1.4,1.6 -0.72,0.68 -1.52,1.08 -0.76,0.4 -1.56,0.4 -0.6,0 -1.16,-0.2 -0.56,-0.2 -1.04,-0.56 -0.44,-0.4 -0.72,-1 -0.28,-0.64 -0.28,-1.48 0,-1.12 0.36,-2.6 0.4,-1.52 0.96,-2.88 0.56,-1.36 1.16,-2.28 0.6,-0.96 1.04,-0.96 0.12,0 0.4,0.08 0.28,0.08 0.56,0.2 0.32,0.12 0.56,0.32 0.24,0.16 0.24,0.32 -0.36,0.52 -0.8,1.52 -0.44,0.96 -0.88,2.12 -0.4,1.12 -0.68,2.28 -0.28,1.12 -0.28,1.92 0,0.72 0.32,1.16 0.32,0.44 1.12,0.44 0.56,0 1.24,-0.4 0.68,-0.44 1.36,-1.16 0.72,-0.72 1.4,-1.64 0.72,-0.92 1.32,-1.92 0.12,-0.44 0.2,-0.88 0.12,-0.48 0.2,-0.96 0.04,-0.28 0.2,-0.64 0.16,-0.36 0.4,-0.64 0.24,-0.32 0.6,-0.52 0.36,-0.24 0.84,-0.24 0.36,0 0.84,0.12 z m -11.32,20.8 q 0.28,0 0.8,-0.36 0.56,-0.36 1.2,-1.2 0.68,-0.84 1.44,-2.2 0.8,-1.36 1.6,-3.36 -1.24,0.68 -2.36,1.28 -1.12,0.64 -1.96,1.32 -0.84,0.72 -1.32,1.52 -0.48,0.8 -0.48,1.8 0,0.32 0.24,0.76 0.24,0.44 0.84,0.44 z"
       style="font-style:normal;font-variant:normal;font-weight:normal;font-stretch:normal;line-height:1.5;font-family:'Dancing Script';-inkscape-font-specification:'Dancing Script';text-align:center;text-anchor:middle;stroke:#000000;stroke-opacity:1;stroke-width:0.75590551;stroke-miterlimit:4;stroke-dasharray:none"
       id="path952" />
    <path
       d="m -41.893867,-144.86835 q -1.4,-0.36 -2.12,-1.12 -0.68,-0.76 -0.68,-2.44 0,-1.6 0.6,-3.08 0.64,-1.52 1.76,-2.68 1.16,-1.16 2.76,-1.84 1.6,-0.72 3.52,-0.72 1.48,0 2.64,0.56 1.2,0.56 2.04,1.56 0.84,1 1.28,2.32 0.44,1.32 0.44,2.84 0,2.04 -0.52,4.04 -0.52,1.96 -1.36,3.84 -0.8,1.76 -1.88,3.52 -1.08,1.76 -2.36,3.44 -1.24,1.64 -2.64,3.12 -1.4,1.48 -2.84,2.64 l 1.12,0.24 q 2.08,0.48 4.04,0.84 2,0.4 3.44,0.4 0.76,0 1.4,-0.24 0.68,-0.2 1.64,-0.76 -0.52,2.04 -1.52,2.96 -0.96,0.96 -2.56,0.96 -1.52,0 -3.6,-0.76 -2.08,-0.72 -4.08,-1.56 -0.44,-0.2 -0.88,-0.4 -0.4,-0.16 -0.84,-0.32 -1.28,0.8 -2.4,1.24 -1.12,0.48 -2.16,0.48 -1.2,0 -1.96,-0.6 -0.76,-0.6 -0.76,-1.56 0,-0.92 0.72,-1.4 0.72,-0.52 2.28,-0.52 0.88,0 1.92,0.16 1.08,0.16 2.28,0.4 1.84,-1.6 3.72,-4.04 1.92,-2.44 3.48,-5.24 1.56,-2.84 2.52,-5.8 1,-2.96 1,-5.6 0,-3 -1.2,-4.32 -1.2,-1.36 -3.04,-1.36 -1.32,0 -2.36,0.64 -1,0.6 -1.72,1.68 -0.68,1.08 -1.04,2.56 -0.36,1.48 -0.36,3.2 0,0.8 0.08,1.4 0.12,0.56 0.4,1.32 z m -5.8,18 q 0.64,0 1.4,-0.36 0.76,-0.32 1.6,-0.88 -0.92,-0.32 -1.72,-0.52 -0.76,-0.2 -1.32,-0.2 -0.8,0 -1.12,0.36 -0.28,0.32 -0.28,0.6 0,0.44 0.44,0.72 0.44,0.28 1,0.28 z"
       style="font-style:normal;font-variant:normal;font-weight:normal;font-stretch:normal;line-height:1.5;font-family:'Dancing Script';-inkscape-font-specification:'Dancing Script';text-align:center;text-anchor:middle;stroke:#000000;stroke-opacity:1;stroke-width:0.75590551;stroke-miterlimit:4;stroke-dasharray:none"
       id="path954" />
    <path
       d="m -2.6719922,-146.90835 q 0,4.08 -1.12,8.08 -1.12,4 -3.12,7.2 -1.96,3.2 -4.6799998,5.16 -2.68,2 -5.84,2 -2,0 -3.44,-0.88 -1.44,-0.84 -2.36,-2.28 -0.92,-1.44 -1.4,-3.32 -0.44,-1.88 -0.44,-3.96 0,-2.28 0.48,-4.76 0.48,-2.52 1.36,-4.96 0.92,-2.44 2.2,-4.6 1.28,-2.2 2.88,-3.88 1.6,-1.68 3.48,-2.64 1.92,-1 4.08,-1 1.7999998,0 3.2799998,0.72 1.48,0.68 2.48,1.96 1.04,1.28 1.6,3.12 0.56,1.8 0.56,4.04 z m -7.8799998,-8.76 q -1.8,0 -3.36,1.12 -1.52,1.08 -2.76,2.88 -1.24,1.76 -2.2,4.08 -0.92,2.28 -1.56,4.68 -0.64,2.4 -0.96,4.72 -0.32,2.28 -0.32,4.12 0,1.88 0.32,3.4 0.36,1.52 0.96,2.6 0.64,1.08 1.52,1.64 0.92,0.6 2.04,0.6 1.52,0 2.92,-1.04 1.4,-1 2.64,-2.68 1.24,-1.72 2.2799998,-3.92 1.04,-2.24 1.76,-4.68 0.76,-2.44 1.16,-4.92 0.4,-2.48 0.4,-4.68 0,-1.68 -0.28,-3.12 -0.24,-1.48 -0.84,-2.52 -0.56,-1.08 -1.48,-1.68 -0.92,-0.6 -2.2399998,-0.6 z"
       style="font-style:normal;font-variant:normal;font-weight:normal;font-stretch:normal;line-height:1.5;font-family:'Dancing Script';-inkscape-font-specification:'Dancing Script';text-align:center;text-anchor:middle;stroke:#000000;stroke-opacity:1;stroke-width:0.75590551;stroke-miterlimit:4;stroke-dasharray:none"
       id="path956" />
    <path
       d="m 1.6663828,-152.08635 q 0.65,0.13 1.248,0.208 0.598,0.052 1.274,0.052 1.352,0 3.354,-0.416 0.676,-1.846 1.508,-3.666 0.858,-1.846 1.7160002,-3.302 0.884,-1.482 1.664,-2.392 0.806,-0.91 1.378,-0.91 0.234,0 0.39,0.156 0.182,0.156 0.26,0.416 0.104,0.234 0.156,0.52 0.052,0.286 0.052,0.546 0,0.91 -0.468,2.158 -0.442,1.248 -1.222,2.548 -0.78,1.274 -1.82,2.418 -1.014,1.144 -2.1580002,1.846 -0.234,0.572 -0.468,1.404 -0.234,0.806 -0.416,1.664 -0.182,0.858 -0.286,1.664 -0.104,0.806 -0.104,1.326 0,0.286 0,0.494 0.026,0.208 0.052,0.39 0.468,-1.326 1.014,-2.548 0.546,-1.222 1.196,-2.158 0.6760002,-0.936 1.4300002,-1.482 0.78,-0.546 1.638,-0.546 0.546,0 0.91,0.208 0.39,0.208 0.624,0.546 0.234,0.312 0.338,0.754 0.104,0.416 0.104,0.832 0,0.598 -0.182,1.196 -0.156,0.572 -0.39,1.118 -0.208,0.546 -0.39,1.066 -0.156,0.52 -0.156,0.988 0,0.52 0.208,0.754 0.234,0.234 0.572,0.234 0.442,0 0.988,-0.338 0.546,-0.338 1.092,-0.884 0.546,-0.572 1.066,-1.326 0.52,-0.754 0.91,-1.612 l 0.338,0.312 q -0.416,0.962 -0.962,1.794 -0.546,0.806 -1.196,1.43 -0.65,0.598 -1.378,0.936 -0.702,0.364 -1.456,0.364 -0.91,0 -1.352,-0.468 -0.442,-0.468 -0.442,-1.17 0,-0.416 0.13,-0.884 0.13,-0.494 0.26,-1.014 0.156,-0.52 0.286,-1.04 0.13,-0.52 0.13,-0.988 0,-0.676 -0.286,-0.962 -0.286,-0.286 -0.702,-0.286 -0.65,0 -1.17,0.546 -0.52,0.52 -0.9620002,1.326 -0.416,0.78 -0.78,1.716 -0.364,0.936 -0.728,1.742 -0.338,0.78 -0.676,1.3 -0.338,0.546 -0.702,0.546 -0.234,0 -0.442,-0.234 -0.208,-0.234 -0.338,-0.624 -0.13,-0.364 -0.208,-0.832 -0.078,-0.494 -0.078,-1.014 0,-0.468 0.078,-1.066 -0.988,1.768 -2.444,2.86 -1.43,1.118 -3.01599999,1.118 -2.31400001,0 -2.31400001,-2.574 0,-0.572 0.13,-1.326 0.13,-0.78 0.338,-1.664 0.23400001,-0.884 0.52000001,-1.794 0.312,-0.936 0.65,-1.82 -0.26,-0.052 -0.494,-0.156 -0.234,-0.13 -0.442,-0.208 v -0.468 q 0.208,0.026 0.494,0.13 0.286,0.104 0.65,0.13 0.546,-1.404 1.14399999,-2.652 0.624,-1.274 1.196,-2.236 0.598,-0.962 1.118,-1.508 0.546,-0.572 0.936,-0.572 0.208,0 0.364,0.156 0.182,0.13 0.182,0.416 0,0.338 -0.338,1.014 -0.312,0.65 -0.832,1.534 -0.494,0.884 -1.118,1.976 -0.598,1.092 -1.17,2.288 z m 4.68,3.926 q 0.182,-0.858 0.364,-1.612 0.208,-0.78 0.546,-1.768 -0.91,0.208 -1.69,0.286 -0.78,0.078 -1.508,0.078 -0.728,0 -1.378,-0.078 -0.65,-0.078 -1.3,-0.208 -0.59799999,1.404 -1.01399999,2.834 -0.416,1.43 -0.416,2.834 0,1.144 0.338,1.612 0.338,0.468 1.11799999,0.468 1.352,0 2.652,-1.196 1.3,-1.196 2.288,-3.25 z m 7.3320002,-12.246 q -0.208,0 -0.728,0.572 -0.52,0.572 -1.17,1.586 -0.624,1.014 -1.3,2.392 -0.6500002,1.352 -1.1440002,2.938 0.8840002,-0.728 1.6900002,-1.768 0.832,-1.04 1.43,-2.08 0.598,-1.066 0.962,-2.002 0.364,-0.936 0.364,-1.43 0,-0.208 -0.104,-0.208 z"
       style="font-size:64.99999762%;baseline-shift:super;stroke:#000000;stroke-opacity:1;stroke-width:0.75590551;stroke-miterlimit:4;stroke-dasharray:none"
       id="path958" />
    <path
       d="m 34.208477,-153.82835 q 0.2,-1.36 1.72,-2.08 1.56,-0.76 4.8,-0.76 1.2,0 2.44,0.12 1.24,0.08 2.36,0.2 1.16,0.12 2.08,0.28 0.92,0.12 1.48,0.24 -0.24,0.36 -0.64,0.6 -0.36,0.24 -0.8,0.36 -0.44,0.12 -0.88,0.16 -0.44,0.04 -0.76,0.04 -0.8,0 -1.52,0.04 -0.68,0 -1.32,0 0.44,0.32 0.64,0.88 0.2,0.56 0.2,1 0,0.44 -0.2,1.8 -0.2,1.32 -0.56,3.24 -0.36,1.88 -0.88,4.16 -0.52,2.28 -1.16,4.64 -0.64,2.32 -1.36,4.56 -0.72,2.2 -1.52,3.96 -0.8,1.8 -1.6,2.92 -0.8,1.16 -1.6,1.8 -0.8,0.68 -1.64,0.92 -0.84,0.24 -1.72,0.24 -0.72,0 -1.48,-0.2 -0.76,-0.16 -1.4,-0.72 -0.6,-0.56 -1,-1.6 -0.44,-1 -0.44,-2.68 0,-1.16 0.24,-2.36 0.2,-1.2 0.6,-2.16 0.36,-0.96 0.92,-1.56 0.56,-0.64 1.28,-0.64 0.48,0 1.12,0.32 -1.44,3.68 -1.44,6.4 0,1.8 0.64,2.8 0.64,1 1.88,1 0.52,0 0.96,-0.2 0.44,-0.2 0.88,-0.68 0.44,-0.48 0.84,-1.28 0.44,-0.8 0.88,-2.04 0.52,-1.44 1.08,-3.44 0.6,-2.04 1.2,-4.32 0.6,-2.32 1.16,-4.72 0.56,-2.4 1.04,-4.64 0.52,-2.24 0.92,-4.16 0.4,-1.92 0.64,-3.24 -1.48,0 -2.6,0.08 -1.08,0.04 -2,0.12 -0.88,0.08 -1.72,0.24 -0.8,0.12 -1.76,0.36 z"
       style="font-style:normal;font-variant:normal;font-weight:normal;font-stretch:normal;line-height:1.5;font-family:'Dancing Script';-inkscape-font-specification:'Dancing Script';text-align:center;text-anchor:middle;stroke:#000000;stroke-opacity:1;stroke-width:0.75590551;stroke-miterlimit:4;stroke-dasharray:none"
       id="path960" />
    <path
       d="m 55.119102,-138.78835 q 0.16,0.04 0.48,0.12 0.32,0.04 0.64,0.16 0.32,0.12 0.56,0.32 0.24,0.2 0.24,0.44 0,0.16 -0.44,1.08 -0.4,0.92 -0.92,2.2 -0.48,1.24 -0.92,2.6 -0.4,1.32 -0.4,2.32 0,0.72 0.28,1.16 0.32,0.44 1.04,0.44 0.64,0 1.48,-0.44 0.84,-0.44 1.76,-1.24 0.92,-0.84 1.8,-2.04 0.92,-1.2 1.64,-2.76 l 0.52,0.36 q -0.64,1.64 -1.6,3 -0.92,1.32 -2,2.28 -1.08,0.96 -2.24,1.48 -1.12,0.56 -2.2,0.56 -1.6,0 -2.2,-0.88 -0.6,-0.84 -0.6,-2.08 0,-0.48 0.08,-0.96 0.08,-0.52 0.2,-1.04 -0.56,1 -1.16,1.92 -0.6,0.88 -1.28,1.56 -0.64,0.68 -1.36,1.08 -0.68,0.4 -1.44,0.4 -1.36,0 -2.2,-1.2 -0.8,-1.2 -0.8,-2.84 0,-1.12 0.36,-2.68 0.4,-1.6 0.92,-3 0.56,-1.4 1.16,-2.4 0.64,-1 1.08,-1 0.2,0 0.68,0.24 0.48,0.2 0.8,0.56 -0.32,0.52 -0.8,1.48 -0.44,0.92 -0.88,2.04 -0.4,1.12 -0.72,2.32 -0.28,1.2 -0.28,2.2 0,0.24 0.04,0.72 0.04,0.44 0.16,0.88 0.16,0.44 0.44,0.76 0.32,0.32 0.8,0.32 0.92,0 1.96,-1.2 1.04,-1.2 2.04,-2.88 1,-1.68 1.84,-3.44 0.88,-1.8 1.44,-2.92 z"
       style="font-style:normal;font-variant:normal;font-weight:normal;font-stretch:normal;line-height:1.5;font-family:'Dancing Script';-inkscape-font-specification:'Dancing Script';text-align:center;text-anchor:middle;stroke:#000000;stroke-opacity:1;stroke-width:0.75590551;stroke-miterlimit:4;stroke-dasharray:none"
       id="path962" />
    <path
       d="m 60.137227,-128.22835 q 0,-0.16 0.44,-1.24 0.44,-1.08 0.96,-2.56 0.52,-1.48 0.96,-3.08 0.48,-1.64 0.48,-2.96 0.24,-0.28 0.76,-0.56 0.52,-0.28 1.08,-0.28 1.08,0 1.08,1.04 0,0.64 -0.36,2.12 -0.36,1.48 -0.92,3.16 0.8,-1.2 1.76,-2.44 0.96,-1.28 2.04,-2.28 1.08,-1.04 2.2,-1.68 1.16,-0.64 2.32,-0.64 0.76,0 1.32,0.32 0.56,0.28 0.92,0.8 0.36,0.52 0.52,1.16 0.2,0.64 0.2,1.32 0,0.92 -0.28,1.76 -0.24,0.84 -0.56,1.6 -0.28,0.76 -0.56,1.52 -0.24,0.72 -0.24,1.44 0,0.84 0.32,1.2 0.36,0.32 0.88,0.32 0.76,0 1.52,-0.56 0.76,-0.56 1.48,-1.44 0.72,-0.92 1.36,-2 0.68,-1.12 1.24,-2.24 l 0.44,0.52 q -0.64,1.48 -1.4,2.72 -0.72,1.24 -1.6,2.16 -0.84,0.88 -1.84,1.36 -0.96,0.52 -2.08,0.52 -1.4,0 -2.12,-0.72 -0.68,-0.72 -0.68,-1.84 0,-0.6 0.16,-1.28 0.2,-0.68 0.4,-1.4 0.24,-0.72 0.4,-1.44 0.2,-0.72 0.2,-1.44 0,-1.12 -0.48,-1.52 -0.44,-0.44 -1.12,-0.44 -1.24,0 -2.52,1.04 -1.28,1.04 -2.48,2.6 -1.2,1.52 -2.28,3.24 -1.04,1.68 -1.8,3 -0.64,0 -1.2,-0.24 -0.6,-0.2 -0.92,-0.64 z"
       style="font-style:normal;font-variant:normal;font-weight:normal;font-stretch:normal;line-height:1.5;font-family:'Dancing Script';-inkscape-font-specification:'Dancing Script';text-align:center;text-anchor:middle;stroke:#000000;stroke-opacity:1;stroke-width:0.75590551;stroke-miterlimit:4;stroke-dasharray:none"
       id="path964" />
    <path
       d="m 92.409102,-139.90835 q 0,1.52 -0.92,2.88 -0.88,1.32 -2.32,2.36 -1.44,1.04 -3.2,1.72 -1.76,0.64 -3.48,0.8 -0.08,0.4 -0.12,0.76 -0.04,0.36 -0.04,0.68 0,0.6 0.12,1.2 0.16,0.6 0.52,1.08 0.36,0.48 0.96,0.76 0.64,0.32 1.56,0.32 1.28,0 2.56,-0.56 1.28,-0.56 2.44,-1.52 1.16,-1 2.16,-2.28 1.04,-1.28 1.8,-2.72 l 0.48,0.36 q -0.8,1.8 -1.96,3.28 -1.16,1.44 -2.52,2.48 -1.32,1 -2.84,1.56 -1.48,0.56 -2.96,0.56 -2.44,0 -3.68,-1.36 -1.2,-1.32 -1.2,-3.28 0,-1.2 0.44,-2.52 0.4,-1.32 1.12,-2.6 0.76,-1.28 1.72,-2.44 1,-1.16 2.12,-2.04 1.16,-0.88 2.36,-1.4 1.2,-0.52 2.4,-0.52 0.92,0 1.68,0.48 0.8,0.48 0.8,1.96 z m -2.6,-1.2 q -0.96,0 -2.04,0.76 -1.08,0.72 -2.08,1.92 -1,1.16 -1.8,2.64 -0.8,1.44 -1.2,2.88 1.08,-0.36 2.44,-1.04 1.36,-0.72 2.6,-1.68 1.24,-0.96 2.08,-2.12 0.84,-1.16 0.84,-2.44 0,-0.44 -0.16,-0.68 -0.16,-0.24 -0.68,-0.24 z"
       style="font-style:normal;font-variant:normal;font-weight:normal;font-stretch:normal;line-height:1.5;font-family:'Dancing Script';-inkscape-font-specification:'Dancing Script';text-align:center;text-anchor:middle;stroke:#000000;stroke-opacity:1;stroke-width:0.75590551;stroke-miterlimit:4;stroke-dasharray:none"
       id="path966" />
    <path
       d="m -18.098945,-82.175132 q -1.4,-0.36 -2.12,-1.12 -0.68,-0.76 -0.68,-2.44 0,-1.6 0.6,-3.08 0.64,-1.52 1.76,-2.68 1.16,-1.16 2.76,-1.84 1.6,-0.72 3.52,-0.72 1.48,0 2.6399997,0.56 1.2,0.56 2.04,1.56 0.84,1 1.28,2.32 0.44,1.32 0.44,2.84 0,2.04 -0.52,4.04 -0.52,1.96 -1.36,3.84 -0.8,1.76 -1.88,3.52 -1.0799997,1.76 -2.3599997,3.44 -1.24,1.64 -2.64,3.12 -1.4,1.48 -2.84,2.64 l 1.12,0.24 q 2.08,0.48 4.04,0.84 2,0.4 3.4399997,0.4 0.76,0 1.4,-0.24 0.68,-0.2 1.64,-0.76 -0.52,2.04 -1.52,2.96 -0.96,0.96 -2.56,0.96 -1.5199997,0 -3.5999997,-0.76 -2.08,-0.72 -4.08,-1.56 -0.44,-0.2 -0.88,-0.4 -0.4,-0.16 -0.84,-0.32 -1.28,0.8 -2.4,1.24 -1.12,0.48 -2.16,0.48 -1.2,0 -1.96,-0.6 -0.76,-0.6 -0.76,-1.56 0,-0.92 0.72,-1.4 0.72,-0.52 2.28,-0.52 0.88,0 1.92,0.16 1.08,0.16 2.28,0.4 1.84,-1.6 3.72,-4.04 1.92,-2.44 3.48,-5.24 1.56,-2.84 2.5199997,-5.8 1,-2.96 1,-5.6 0,-3 -1.2,-4.32 -1.1999997,-1.36 -3.0399997,-1.36 -1.32,0 -2.36,0.64 -1,0.6 -1.72,1.68 -0.68,1.08 -1.04,2.56 -0.36,1.48 -0.36,3.2 0,0.8 0.08,1.4 0.12,0.56 0.4,1.32 z m -5.8,18 q 0.64,0 1.4,-0.36 0.76,-0.32 1.6,-0.88 -0.92,-0.32 -1.72,-0.52 -0.76,-0.2 -1.32,-0.2 -0.8,0 -1.12,0.36 -0.28,0.32 -0.28,0.6 0,0.44 0.44,0.72 0.44,0.28 1,0.28 z"
       style="font-style:normal;font-variant:normal;font-weight:normal;font-stretch:normal;line-height:1.5;font-family:'Dancing Script';-inkscape-font-specification:'Dancing Script';text-align:center;text-anchor:middle;stroke:#000000;stroke-opacity:1;stroke-width:0.75590551;stroke-miterlimit:4;stroke-dasharray:none"
       id="path968" />
    <path
       d="m 21.12293,-84.215132 q 0,4.08 -1.12,8.08 -1.12,4 -3.12,7.2 -1.96,3.2 -4.68,5.16 -2.6800003,2 -5.8400003,2 -2,0 -3.44,-0.88 -1.44,-0.84 -2.36000001,-2.28 -0.92,-1.44 -1.4,-3.32 -0.43999999,-1.88 -0.43999999,-3.96 0,-2.28 0.47999999,-4.76 0.48,-2.52 1.36,-4.96 0.92000001,-2.44 2.20000001,-4.6 1.28,-2.2 2.88,-3.88 1.6,-1.68 3.48,-2.64 1.9200003,-1 4.0800003,-1 1.8,0 3.28,0.72 1.48,0.68 2.48,1.96 1.04,1.28 1.6,3.12 0.56,1.8 0.56,4.04 z m -7.88,-8.76 q -1.8,0 -3.3600003,1.12 -1.52,1.08 -2.76,2.88 -1.24,1.76 -2.2,4.08 -0.92,2.28 -1.56,4.68 -0.64,2.4 -0.96,4.72 -0.32,2.28 -0.32,4.12 0,1.88 0.32,3.4 0.36,1.52 0.96,2.6 0.64,1.08 1.52,1.64 0.92,0.6 2.04,0.6 1.52,0 2.92,-1.04 1.4000003,-1 2.6400003,-2.68 1.24,-1.72 2.28,-3.92 1.04,-2.24 1.76,-4.68 0.76,-2.44 1.16,-4.92 0.4,-2.48 0.4,-4.68 0,-1.68 -0.28,-3.12 -0.24,-1.48 -0.84,-2.52 -0.56,-1.08 -1.48,-1.68 -0.92,-0.6 -2.24,-0.6 z"
       style="font-style:normal;font-variant:normal;font-weight:normal;font-stretch:normal;line-height:1.5;font-family:'Dancing Script';-inkscape-font-specification:'Dancing Script';text-align:center;text-anchor:middle;stroke:#000000;stroke-opacity:1;stroke-width:0.75590551;stroke-miterlimit:4;stroke-dasharray:none"
       id="path970" />
    <path
       d="m 29.557305,-82.175132 q -1.4,-0.36 -2.12,-1.12 -0.68,-0.76 -0.68,-2.44 0,-1.6 0.6,-3.08 0.64,-1.52 1.76,-2.68 1.16,-1.16 2.76,-1.84 1.6,-0.72 3.52,-0.72 1.48,0 2.64,0.56 1.2,0.56 2.04,1.56 0.84,1 1.28,2.32 0.44,1.32 0.44,2.84 0,2.04 -0.52,4.04 -0.52,1.96 -1.36,3.84 -0.8,1.76 -1.88,3.52 -1.08,1.76 -2.36,3.44 -1.24,1.64 -2.64,3.12 -1.4,1.48 -2.84,2.64 l 1.12,0.24 q 2.08,0.48 4.04,0.84 2,0.4 3.44,0.4 0.76,0 1.4,-0.24 0.68,-0.2 1.64,-0.76 -0.52,2.04 -1.52,2.96 -0.96,0.96 -2.56,0.96 -1.52,0 -3.6,-0.76 -2.08,-0.72 -4.08,-1.56 -0.44,-0.2 -0.88,-0.4 -0.4,-0.16 -0.84,-0.32 -1.28,0.8 -2.4,1.24 -1.12,0.48 -2.16,0.48 -1.2,0 -1.96,-0.6 -0.76,-0.6 -0.76,-1.56 0,-0.92 0.72,-1.4 0.72,-0.52 2.28,-0.52 0.88,0 1.92,0.16 1.08,0.16 2.28,0.4 1.84,-1.6 3.72,-4.04 1.92,-2.44 3.48,-5.24 1.56,-2.84 2.52,-5.8 1,-2.96 1,-5.6 0,-3 -1.2,-4.32 -1.2,-1.36 -3.04,-1.36 -1.32,0 -2.36,0.64 -1,0.6 -1.72,1.68 -0.68,1.08 -1.04,2.56 -0.36,1.48 -0.36,3.2 0,0.8 0.08,1.4 0.12,0.56 0.4,1.32 z m -5.8,18 q 0.64,0 1.4,-0.36 0.76,-0.32 1.6,-0.88 -0.92,-0.32 -1.72,-0.52 -0.76,-0.2 -1.32,-0.2 -0.8,0 -1.12,0.36 -0.28,0.32 -0.28,0.6 0,0.44 0.44,0.72 0.44,0.28 1,0.28 z"
       style="font-style:normal;font-variant:normal;font-weight:normal;font-stretch:normal;line-height:1.5;font-family:'Dancing Script';-inkscape-font-specification:'Dancing Script';text-align:center;text-anchor:middle;stroke:#000000;stroke-opacity:1;stroke-width:0.75590551;stroke-miterlimit:4;stroke-dasharray:none"
       id="path972" />
    <path
       d="m 68.77918,-84.215132 q 0,4.08 -1.12,8.08 -1.12,4 -3.12,7.2 -1.96,3.2 -4.68,5.16 -2.68,2 -5.84,2 -2,0 -3.44,-0.88 -1.44,-0.84 -2.36,-2.28 -0.92,-1.44 -1.4,-3.32 -0.44,-1.88 -0.44,-3.96 0,-2.28 0.48,-4.76 0.48,-2.52 1.36,-4.96 0.92,-2.44 2.2,-4.6 1.28,-2.2 2.88,-3.88 1.6,-1.68 3.48,-2.64 1.92,-1 4.08,-1 1.8,0 3.28,0.72 1.48,0.68 2.48,1.96 1.04,1.28 1.6,3.12 0.56,1.8 0.56,4.04 z m -7.88,-8.76 q -1.8,0 -3.36,1.12 -1.52,1.08 -2.76,2.88 -1.24,1.76 -2.2,4.08 -0.92,2.28 -1.56,4.68 -0.64,2.4 -0.96,4.72 -0.32,2.28 -0.32,4.12 0,1.88 0.32,3.4 0.36,1.52 0.96,2.6 0.64,1.08 1.52,1.64 0.92,0.6 2.04,0.6 1.52,0 2.92,-1.04 1.4,-1 2.64,-2.68 1.24,-1.72 2.28,-3.92 1.04,-2.24 1.76,-4.68 0.76,-2.44 1.16,-4.92 0.4,-2.48 0.4,-4.68 0,-1.68 -0.28,-3.12 -0.24,-1.48 -0.84,-2.52 -0.56,-1.08 -1.48,-1.68 -0.92,-0.6 -2.24,-0.6 z"
       style="font-style:normal;font-variant:normal;font-weight:normal;font-stretch:normal;line-height:1.5;font-family:'Dancing Script';-inkscape-font-specification:'Dancing Script';text-align:center;text-anchor:middle;stroke:#000000;stroke-opacity:1;stroke-width:0.75590551;stroke-miterlimit:4;stroke-dasharray:none"
       id="path974" />
  </g>
</svg>
