<?xml version="1.0" encoding="UTF-8" standalone="no"?>
<svg
   xmlns:dc="http://purl.org/dc/elements/1.1/"
   xmlns:cc="http://creativecommons.org/ns#"
   xmlns:rdf="http://www.w3.org/1999/02/22-rdf-syntax-ns#"
   xmlns:svg="http://www.w3.org/2000/svg"
   xmlns="http://www.w3.org/2000/svg"
   id="svg8"
   version="1.1"
   viewBox="0 0 256 256">
  <defs
     id="defs2" />
  <metadata
     id="metadata5">
    <rdf:RDF>
      <cc:Work
         rdf:about="">
        <dc:format>image/svg+xml</dc:format>
        <dc:type
           rdf:resource="http://purl.org/dc/dcmitype/StillImage" />
        <dc:title></dc:title>
      </cc:Work>
    </rdf:RDF>
  </metadata>
  <g
     id="flowRoot2687"
     style="font-style:normal;font-weight:normal;font-size:40px;line-height:1.25;font-family:sans-serif;letter-spacing:0px;word-spacing:0px;fill:#000000;fill-opacity:1;stroke:none"
     transform="translate(-3.1212893,330.78022)"
     aria-label="Saturday
20th June
2020">
    <path
       id="path2702"
       style="font-style:normal;font-variant:normal;font-weight:normal;font-stretch:normal;font-size:32px;font-family:Century;-inkscape-font-specification:Century;text-align:center;text-anchor:middle"
       d="m 76.727539,-262.56147 1.40625,-2.01563 h 1.140625 l 0.09375,8.42188 h -1.03125 q -0.96875,-3.875 -2.875,-5.65625 -1.890625,-1.78125 -4.359375,-1.78125 -2.0625,0 -3.375,1.23437 -1.3125,1.23438 -1.3125,3.01563 0,1.10937 0.5,1.95312 0.5,0.82813 1.484375,1.35938 1,0.51562 3.75,1.10937 3.859375,0.84375 5.40625,1.70313 1.5625,0.85937 2.328125,2.17187 0.765625,1.29688 0.765625,3.04688 0,3.125 -2.109375,5.1875 -2.09375,2.04687 -5.421875,2.04687 -3.578125,0 -6.21875,-2.3125 l -1.765625,2.15625 h -1.125 v -8.95312 h 1.125 q 0.65625,3.70312 2.9375,5.84375 2.28125,2.14062 5.140625,2.14062 2.3125,0 3.765625,-1.35937 1.46875,-1.375 1.46875,-3.32813 0,-1.10937 -0.546875,-1.9375 -0.546875,-0.84375 -1.734375,-1.40625 -1.1875,-0.57812 -4.671875,-1.39062 -3.828125,-0.90625 -5.21875,-2.03125 -1.953125,-1.59375 -1.953125,-4.51563 0,-3.04687 1.9375,-4.98437 1.953125,-1.95313 4.984375,-1.95313 1.453125,0 2.765625,0.51563 1.3125,0.51562 2.71875,1.71875 z" />
    <path
       id="path2704"
       style="font-style:normal;font-variant:normal;font-weight:normal;font-stretch:normal;font-size:32px;font-family:Century;-inkscape-font-specification:Century;text-align:center;text-anchor:middle"
       d="m 98.633789,-242.81147 0.5625,0.875 q -1.140625,1.17187 -2.53125,1.17187 -1.0625,0 -1.796875,-0.57812 -0.71875,-0.57813 -1.265625,-2.03125 -1.484375,1.5625 -2.609375,2.09375 -1.125,0.51562 -2.703125,0.51562 -2.25,0 -3.421875,-0.96875 -1.171875,-0.96875 -1.171875,-2.48437 0,-2.28125 2.671875,-3.78125 2.6875,-1.51563 7.140625,-2.01563 v -2.21875 q 0,-1.1875 -0.953125,-2.03125 -0.953125,-0.84375 -2.421875,-0.84375 -1.359375,0 -2.34375,0.5625 -0.703125,0.42188 -0.703125,0.82813 0,0.23437 0.375,0.73437 0.453125,0.625 0.453125,1.10938 0,0.70312 -0.453125,1.15625 -0.453125,0.4375 -1.1875,0.4375 -0.78125,0 -1.3125,-0.53125 -0.515625,-0.53125 -0.515625,-1.35938 0,-1.54687 1.734375,-2.82812 1.75,-1.28125 4.578125,-1.28125 2.609375,0 3.984375,1.125 1.375,1.14062 1.375,2.76562 v 8 q 0,1.0625 0.34375,1.5625 0.34375,0.51563 0.890625,0.51563 0.609375,0 1.28125,-0.5 z m -5.125,-6.17188 q -3.96875,0.54688 -5.625,1.78125 -1.234375,0.9375 -1.234375,2.65625 0,1.20313 0.640625,1.89063 0.640625,0.67187 1.671875,0.67187 1.84375,0 3.1875,-1.39062 1.359375,-1.40625 1.359375,-3.51563 z" />
    <path
       id="path2706"
       style="font-style:normal;font-variant:normal;font-weight:normal;font-stretch:normal;font-size:32px;font-family:Century;-inkscape-font-specification:Century;text-align:center;text-anchor:middle"
       d="m 104.82129,-261.81147 h 1.0625 v 5.96875 h 4.73437 v 1.4375 h -4.73437 v 9.39062 q 0,1.21875 0.57812,1.875 0.57813,0.64063 1.46875,0.64063 1.0625,0 1.8125,-0.98438 0.75,-0.98437 0.875,-3.25 h 1.04688 q -0.0937,2.92188 -1.32813,4.34375 -1.23437,1.40625 -3.20312,1.40625 -1.8125,0 -2.84375,-0.98437 -1.01563,-1 -1.01563,-2.60938 v -9.82812 h -2.54687 v -1.09375 q 1.73437,-0.29688 2.64062,-1.45313 1.34375,-1.73437 1.45313,-4.85937 z" />
    <path
       id="path2708"
       style="font-style:normal;font-variant:normal;font-weight:normal;font-stretch:normal;font-size:32px;font-family:Century;-inkscape-font-specification:Century;text-align:center;text-anchor:middle"
       d="m 118.43066,-256.10835 v 9.70313 q 0,1.78125 0.89063,2.75 0.90625,0.96875 2.32812,0.96875 1.75,0 2.96875,-1.40625 1.23438,-1.42188 1.23438,-3.54688 v -5.48437 q 0,-0.75 -0.54688,-1.15625 -0.53125,-0.42188 -2.0625,-0.46875 v -1.09375 l 5.14063,-0.26563 v 12.01563 q 0,0.82812 0.46875,1.28125 0.46875,0.4375 1.3125,0.4375 h 0.92187 v 1.04687 l -4.92187,0.125 -0.3125,-2.89062 q -1.3125,1.54687 -2.64063,2.32812 -1.32812,0.78125 -2.6875,0.78125 -1.98437,0 -3.32812,-1.32812 -1.35938,-1.3125 -1.35938,-4.45313 v -6.35937 q 0,-0.84375 -0.67187,-1.28125 -0.46875,-0.3125 -1.92188,-0.34375 v -1.09375 z" />
    <path
       id="path2710"
       style="font-style:normal;font-variant:normal;font-weight:normal;font-stretch:normal;font-size:32px;font-family:Century;-inkscape-font-specification:Century;text-align:center;text-anchor:middle"
       d="m 132.74316,-255.84272 5.26563,-0.26563 v 5.92188 q 0.84375,-2.92188 2.03125,-4.42188 1.1875,-1.5 2.9375,-1.5 1.1875,0 1.89062,0.73438 0.71875,0.71875 0.71875,1.9375 0,0.98437 -0.48437,1.53125 -0.46875,0.54687 -1.1875,0.54687 -0.70313,0 -1.14063,-0.46875 -0.42187,-0.46875 -0.42187,-1.26562 0,-0.51563 0.25,-0.96875 0.23437,-0.40625 0.23437,-0.48438 0,-0.23437 -0.29687,-0.23437 -0.64063,0 -1.45313,0.75 -1.125,1.04687 -1.73437,2.875 -0.9375,2.84375 -0.9375,4.54687 v 3.14063 q 0,0.53125 0.375,0.8125 0.375,0.28125 1.28125,0.28125 h 1.85937 v 1.17187 h -9.09375 v -1.17187 h 1.45313 q 0.73437,0 1.10937,-0.28125 0.375,-0.29688 0.375,-0.70313 v -9.32812 q 0,-1.0625 -0.45312,-1.54688 -0.45313,-0.5 -1.29688,-0.5 h -1.28125 z" />
    <path
       id="path2712"
       style="font-style:normal;font-variant:normal;font-weight:normal;font-stretch:normal;font-size:32px;font-family:Century;-inkscape-font-specification:Century;text-align:center;text-anchor:middle"
       d="m 155.46191,-264.31147 5.71875,-0.26563 v 20.03125 q 0,1.17188 0.4375,1.67188 0.45313,0.5 1.34375,0.5 h 1.01563 v 1.17187 h -5 l -0.375,-2.98437 q -0.89063,1.59375 -2.09375,2.40625 -1.1875,0.79687 -2.67188,0.79687 -2.5,0 -4.26562,-2.09375 -1.75,-2.09375 -1.75,-5.53125 0,-3.71875 2.25,-5.9375 1.76562,-1.73437 4.0625,-1.73437 1.40625,0 2.51562,0.70312 1.125,0.70313 1.95313,2.125 v -8.26562 q 0,-0.65625 -0.51563,-1.03125 -0.5,-0.39063 -1.57812,-0.39063 h -1.04688 z m -0.90625,9.32812 q -1.6875,0 -2.6875,1.39063 -0.98437,1.39062 -0.98437,4.6875 0,3.57812 1.01562,5.04687 1.01563,1.45313 2.60938,1.45313 1.70312,0 2.90625,-1.625 1.21875,-1.64063 1.21875,-4.78125 0,-2.96875 -1.29688,-4.67188 -1.125,-1.5 -2.78125,-1.5 z" />
    <path
       id="path2714"
       style="font-style:normal;font-variant:normal;font-weight:normal;font-stretch:normal;font-size:32px;font-family:Century;-inkscape-font-specification:Century;text-align:center;text-anchor:middle"
       d="m 181.00879,-242.81147 0.5625,0.875 q -1.14063,1.17187 -2.53125,1.17187 -1.0625,0 -1.79688,-0.57812 -0.71875,-0.57813 -1.26562,-2.03125 -1.48438,1.5625 -2.60938,2.09375 -1.125,0.51562 -2.70312,0.51562 -2.25,0 -3.42188,-0.96875 -1.17187,-0.96875 -1.17187,-2.48437 0,-2.28125 2.67187,-3.78125 2.6875,-1.51563 7.14063,-2.01563 v -2.21875 q 0,-1.1875 -0.95313,-2.03125 -0.95312,-0.84375 -2.42187,-0.84375 -1.35938,0 -2.34375,0.5625 -0.70313,0.42188 -0.70313,0.82813 0,0.23437 0.375,0.73437 0.45313,0.625 0.45313,1.10938 0,0.70312 -0.45313,1.15625 -0.45312,0.4375 -1.1875,0.4375 -0.78125,0 -1.3125,-0.53125 -0.51562,-0.53125 -0.51562,-1.35938 0,-1.54687 1.73437,-2.82812 1.75,-1.28125 4.57813,-1.28125 2.60937,0 3.98437,1.125 1.375,1.14062 1.375,2.76562 v 8 q 0,1.0625 0.34375,1.5625 0.34375,0.51563 0.89063,0.51563 0.60937,0 1.28125,-0.5 z m -5.125,-6.17188 q -3.96875,0.54688 -5.625,1.78125 -1.23438,0.9375 -1.23438,2.65625 0,1.20313 0.64063,1.89063 0.64062,0.67187 1.67187,0.67187 1.84375,0 3.1875,-1.39062 1.35938,-1.40625 1.35938,-3.51563 z" />
    <path
       id="path2716"
       style="font-style:normal;font-variant:normal;font-weight:normal;font-stretch:normal;font-size:32px;font-family:Century;-inkscape-font-specification:Century;text-align:center;text-anchor:middle"
       d="m 183.02441,-255.84272 h 7.01563 v 1.0625 h -0.65625 q -0.92188,0 -1.26563,0.25 -0.32812,0.23437 -0.32812,0.6875 0,0.20312 0.0937,0.40625 l 4.07812,8.8125 3.03125,-7.3125 q 0.32813,-0.78125 0.32813,-1.53125 0,-0.57813 -0.45313,-0.89063 -0.45312,-0.32812 -1.8125,-0.42187 v -1.0625 h 6.09375 v 1.0625 q -1.76562,0.17187 -2.375,1.57812 l -5.40625,12.60938 q -1.39062,3.20312 -2.78125,4.40625 -1.40625,1.21875 -3.01562,1.21875 -1.17188,0 -1.89063,-0.64063 -0.70312,-0.64062 -0.70312,-1.57812 0,-0.70313 0.4375,-1.15625 0.4375,-0.45313 1.09375,-0.45313 0.59375,0 1,0.39063 0.40625,0.39062 0.40625,0.9375 0,0.17187 -0.0625,0.46875 -0.0625,0.23437 -0.0625,0.34375 0,0.375 0.48437,0.375 0.51563,0 1.15625,-0.375 0.65625,-0.375 1.21875,-1.20313 0.5625,-0.82812 1.96875,-3.65625 l -5.54687,-11.92187 q -0.29688,-0.625 -0.75,-0.92188 -0.4375,-0.3125 -1.29688,-0.42187 z" />
    <path
       id="path2718"
       style="font-style:normal;font-variant:normal;font-weight:normal;font-stretch:normal;font-size:32px;font-family:Century;-inkscape-font-specification:Century;text-align:center;text-anchor:middle"
       d="m 66.624414,-194.62397 q -0.71875,0.92187 7.09375,0.92187 1.171875,0 1.671875,-0.60937 0.5,-0.60938 1.140625,-3.375 h 1.0625 l -0.5,6.48437 h -14 v -0.84375 l 4.546875,-5.17187 q 3.796875,-4.125 4.5625,-5.1875 1.09375,-1.51563 1.59375,-2.92188 0.5,-1.42187 0.5,-2.57812 0,-1.92188 -1.0625,-3.01563 -1.0625,-1.10937 -2.953125,-1.10937 -2.125,0 -3.46875,1.01562 -1.34375,1.01563 -1.34375,2.15625 0,0.39063 0.203125,0.59375 0.1875,0.20313 0.8125,0.35938 1.578125,0.375 1.578125,1.84375 0,0.79687 -0.53125,1.32812 -0.53125,0.51563 -1.359375,0.51563 -0.953125,0 -1.671875,-0.875 -0.71875,-0.89063 -0.71875,-2.3125 0,-1.59375 0.8125,-2.89063 0.828125,-1.3125 2.484375,-2.14062 1.65625,-0.84375 3.5625,-0.84375 1.890625,0 3.5,0.8125 1.625,0.8125 2.4375,2.14062 0.8125,1.3125 0.8125,2.875 0,1.07813 -0.40625,2.1875 -0.40625,1.10938 -1.1875,2.07813 -1.34375,1.67187 -2.765625,2.85937 l -4.125,3.46875 q -1.5625,1.3125 -2.28125,2.23438 z" />
    <path
       id="path2720"
       style="font-style:normal;font-variant:normal;font-weight:normal;font-stretch:normal;font-size:32px;font-family:Century;-inkscape-font-specification:Century;text-align:center;text-anchor:middle"
       d="m 88.343164,-213.28022 q 3.046875,0 5.078125,2.375 2.515625,2.92187 2.515625,8.85937 0,5.51563 -2.1875,8.40625 -2.1875,2.875 -5.28125,2.875 -2.984375,0 -4.984375,-2.42187 -2.5,-3.04688 -2.5,-8.79688 0,-5.46875 2.359375,-8.70312 1.890625,-2.59375 5,-2.59375 z m 0.09375,1.125 q -2.0625,0 -3.21875,1.98437 -1.15625,1.96875 -1.15625,8.1875 0,6.07813 1.1875,8.10938 1.203125,2.03125 3.21875,2.03125 2.03125,0 3.125,-1.875 1.296875,-2.23438 1.296875,-8.15625 0,-6.125 -1.21875,-8.20313 -1.21875,-2.07812 -3.234375,-2.07812 z" />
    <path
       id="path2722"
       style="font-size:64.99999762%;baseline-shift:super"
       d="m 100.39707,-217.39819 h 0.69063 v 3.87968 h 3.07734 v 0.93438 h -3.07734 v 6.10391 q 0,0.79218 0.37578,1.21875 0.37578,0.4164 0.95468,0.4164 0.69063,0 1.17813,-0.63984 0.4875,-0.63985 0.56875,-2.1125 h 0.68047 q -0.0609,1.89922 -0.86328,2.82344 -0.80235,0.91406 -2.08203,0.91406 -1.17813,0 -1.84844,-0.63985 -0.660158,-0.65 -0.660158,-1.69609 v -6.38828 h -1.655469 v -0.71094 q 1.127344,-0.19297 1.716406,-0.94453 0.873441,-1.12734 0.944531,-3.15859 z" />
    <path
       id="path2724"
       style="font-size:64.99999762%;baseline-shift:super"
       d="m 105.73926,-219.02319 3.60547,-0.17266 v 7.33281 q 0.75156,-0.975 1.61484,-1.45234 0.86328,-0.4875 1.82812,-0.4875 0.91407,0 1.64532,0.43672 0.56875,0.34531 0.96484,1.20859 0.40625,0.86328 0.40625,2.04141 v 4.51953 q 0,0.43672 0.22344,0.63984 0.22344,0.19297 0.70078,0.19297 h 0.8125 v 0.76172 h -5.13906 v -0.76172 h 0.56875 q 0.65,0 0.89375,-0.20312 0.2539,-0.21328 0.2539,-0.62969 v -4.51953 q 0,-1.18828 -0.5789,-1.84844 -0.56875,-0.67031 -1.4625,-0.67031 -0.70078,0 -1.3,0.37578 -0.59922,0.37578 -1.01563,1.14766 -0.4164,0.76171 -0.4164,1.61484 v 3.79844 q 0,0.50781 0.21328,0.72109 0.21328,0.21328 0.70078,0.21328 h 0.8125 v 0.76172 h -5.02735 v -0.76172 h 0.56875 q 0.57891,0 0.82266,-0.22344 0.24375,-0.23359 0.24375,-0.71093 v -11.35469 q 0,-0.60938 -0.325,-0.90391 -0.31484,-0.30468 -0.92422,-0.30468 h -0.69062 z" />
    <path
       id="path2726"
       style="font-style:normal;font-variant:normal;font-weight:normal;font-stretch:normal;font-size:32px;font-family:Century;-inkscape-font-specification:Century;text-align:center;text-anchor:middle"
       d="m 133.50254,-214.31147 h 10.21875 v 1.17187 h -1.45312 q -0.85938,0 -1.23438,0.3125 -0.35937,0.3125 -0.35937,0.90625 v 14.98438 q 0,1.73437 -0.84375,3.14062 -0.84375,1.39063 -2.46875,2.21875 -1.625,0.8125 -3.67188,0.8125 -2.78125,0 -4.54687,-1.625 -1.76563,-1.64062 -1.76563,-4 0,-1.75 0.89063,-2.79687 0.89062,-1.04688 2.1875,-1.04688 1.0625,0 1.75,0.6875 0.6875,0.67188 0.6875,1.71875 0,0.90625 -0.5625,1.53125 -0.5625,0.60938 -1.29688,0.60938 -0.28125,0 -0.78125,-0.15625 -0.42187,-0.125 -0.5625,-0.125 -0.26562,0 -0.42187,0.21875 -0.17188,0.21875 -0.17188,0.65625 0,1.17187 1.17188,2.14062 1.1875,0.95313 2.90625,0.95313 1.95312,0 3.07812,-1.34375 1.125,-1.35938 1.125,-3.78125 v -14.79688 q 0,-0.60937 -0.42187,-0.90625 -0.40625,-0.3125 -1.40625,-0.3125 h -2.04688 z" />
    <path
       id="path2728"
       style="font-style:normal;font-variant:normal;font-weight:normal;font-stretch:normal;font-size:32px;font-family:Century;-inkscape-font-specification:Century;text-align:center;text-anchor:middle"
       d="m 150.76817,-206.10835 v 9.70313 q 0,1.78125 0.89062,2.75 0.90625,0.96875 2.32813,0.96875 1.75,0 2.96875,-1.40625 1.23437,-1.42188 1.23437,-3.54688 v -5.48437 q 0,-0.75 -0.54687,-1.15625 -0.53125,-0.42188 -2.0625,-0.46875 v -1.09375 l 5.14062,-0.26563 v 12.01563 q 0,0.82812 0.46875,1.28125 0.46875,0.4375 1.3125,0.4375 h 0.92188 v 1.04687 l -4.92188,0.125 -0.3125,-2.89062 q -1.3125,1.54687 -2.64062,2.32812 -1.32813,0.78125 -2.6875,0.78125 -1.98438,0 -3.32813,-1.32812 -1.35937,-1.3125 -1.35937,-4.45313 v -6.35937 q 0,-0.84375 -0.67188,-1.28125 -0.46875,-0.3125 -1.92187,-0.34375 v -1.09375 z" />
    <path
       id="path2730"
       style="font-style:normal;font-variant:normal;font-weight:normal;font-stretch:normal;font-size:32px;font-family:Century;-inkscape-font-specification:Century;text-align:center;text-anchor:middle"
       d="m 165.31504,-205.84272 4.85938,-0.29688 q 0.29687,1.375 0.4375,3.21875 0.98437,-1.59375 2.3125,-2.39062 1.34375,-0.79688 3.03125,-0.79688 1.45312,0 2.4375,0.57813 0.98437,0.5625 1.57812,1.79687 0.59375,1.23438 0.59375,2.76563 v 7.125 q 0,0.79687 0.35938,1.14062 0.35937,0.32813 1.20312,0.32813 h 1.03125 v 1.17187 h -7.71875 v -1.17187 h 0.73438 q 1.03125,0 1.4375,-0.32813 0.40625,-0.32812 0.40625,-0.98437 v -6.26563 q 0,-2.04687 -0.625,-3.03125 -0.875,-1.40625 -2.65625,-1.40625 -1.76563,0 -2.95313,1.42188 -1.17187,1.42187 -1.17187,3.70312 v 5.42188 q 0,0.79687 0.35937,1.14062 0.375,0.32813 1.21875,0.32813 h 1.01563 v 1.17187 h -7.75 v -1.17187 h 1.01562 q 0.76563,0 1.15625,-0.3125 0.40625,-0.3125 0.40625,-0.78125 v -9.45313 q 0,-0.9375 -0.51562,-1.42187 -0.5,-0.48438 -1.45313,-0.48438 h -0.75 z" />
    <path
       id="path2732"
       style="font-style:normal;font-variant:normal;font-weight:normal;font-stretch:normal;font-size:32px;font-family:Century;-inkscape-font-specification:Century;text-align:center;text-anchor:middle"
       d="m 198.61192,-198.42085 h -10.48438 q 0.0781,3.34375 1.25,4.71875 1.34375,1.54688 3.42188,1.54688 3.0625,0 4.92187,-3.48438 l 1.01563,0.4375 q -2.28125,4.4375 -6.59375,4.4375 -2.9375,0 -4.95313,-2.125 -2,-2.125 -2,-5.4375 0,-3.5625 1.96875,-5.75 1.98438,-2.20312 4.875,-2.20312 2.125,0 3.67188,1.09375 1.54687,1.09375 2.32812,3.14062 0.54688,1.4375 0.57813,3.625 z m -10.48438,-1.10937 h 6.34375 q 0.5625,0 0.875,-0.375 0.3125,-0.39063 0.3125,-1.3125 0,-1.71875 -1.07812,-2.92188 -1.0625,-1.20312 -2.51563,-1.20312 -1.625,0 -2.76562,1.45312 -1.125,1.45313 -1.17188,4.35938 z" />
    <path
       id="path2734"
       style="font-style:normal;font-variant:normal;font-weight:normal;font-stretch:normal;font-size:32px;font-family:Century;-inkscape-font-specification:Century;text-align:center;text-anchor:middle"
       d="m 100.11816,-144.62397 q -0.718746,0.92187 7.09375,0.92187 1.17188,0 1.67188,-0.60937 0.5,-0.60938 1.14062,-3.375 h 1.0625 l -0.5,6.48437 H 96.586914 v -0.84375 l 4.546876,-5.17187 q 3.79687,-4.125 4.5625,-5.1875 1.09375,-1.51563 1.59375,-2.92188 0.5,-1.42187 0.5,-2.57812 0,-1.92188 -1.0625,-3.01563 -1.0625,-1.10937 -2.95313,-1.10937 -2.125,0 -3.46875,1.01562 -1.343746,1.01563 -1.343746,2.15625 0,0.39063 0.203125,0.59375 0.1875,0.20313 0.8125,0.35938 1.578121,0.375 1.578121,1.84375 0,0.79687 -0.53125,1.32812 -0.53125,0.51563 -1.359371,0.51563 -0.953125,0 -1.671875,-0.875 -0.71875,-0.89063 -0.71875,-2.3125 0,-1.59375 0.8125,-2.89063 0.828125,-1.3125 2.484376,-2.14062 1.65625,-0.84375 3.5625,-0.84375 1.89062,0 3.5,0.8125 1.625,0.8125 2.4375,2.14062 0.8125,1.3125 0.8125,2.875 0,1.07813 -0.40625,2.1875 -0.40625,1.10938 -1.1875,2.07813 -1.34375,1.67187 -2.76563,2.85937 l -4.125,3.46875 q -1.5625,1.3125 -2.28125,2.23438 z" />
    <path
       id="path2736"
       style="font-style:normal;font-variant:normal;font-weight:normal;font-stretch:normal;font-size:32px;font-family:Century;-inkscape-font-specification:Century;text-align:center;text-anchor:middle"
       d="m 121.83691,-163.28022 q 3.04688,0 5.07813,2.375 2.51562,2.92187 2.51562,8.85937 0,5.51563 -2.1875,8.40625 -2.1875,2.875 -5.28125,2.875 -2.98437,0 -4.98437,-2.42187 -2.5,-3.04688 -2.5,-8.79688 0,-5.46875 2.35937,-8.70312 1.89063,-2.59375 5,-2.59375 z m 0.0937,1.125 q -2.0625,0 -3.21875,1.98437 -1.15625,1.96875 -1.15625,8.1875 0,6.07813 1.1875,8.10938 1.20313,2.03125 3.21875,2.03125 2.03125,0 3.125,-1.875 1.29688,-2.23438 1.29688,-8.15625 0,-6.125 -1.21875,-8.20313 -1.21875,-2.07812 -3.23438,-2.07812 z" />
    <path
       id="path2738"
       style="font-style:normal;font-variant:normal;font-weight:normal;font-stretch:normal;font-size:32px;font-family:Century;-inkscape-font-specification:Century;text-align:center;text-anchor:middle"
       d="m 135.74316,-144.62397 q -0.71875,0.92187 7.09375,0.92187 1.17188,0 1.67188,-0.60937 0.5,-0.60938 1.14062,-3.375 h 1.0625 l -0.5,6.48437 h -14 v -0.84375 l 4.54688,-5.17187 q 3.79687,-4.125 4.5625,-5.1875 1.09375,-1.51563 1.59375,-2.92188 0.5,-1.42187 0.5,-2.57812 0,-1.92188 -1.0625,-3.01563 -1.0625,-1.10937 -2.95313,-1.10937 -2.125,0 -3.46875,1.01562 -1.34375,1.01563 -1.34375,2.15625 0,0.39063 0.20313,0.59375 0.1875,0.20313 0.8125,0.35938 1.57812,0.375 1.57812,1.84375 0,0.79687 -0.53125,1.32812 -0.53125,0.51563 -1.35937,0.51563 -0.95313,0 -1.67188,-0.875 -0.71875,-0.89063 -0.71875,-2.3125 0,-1.59375 0.8125,-2.89063 0.82813,-1.3125 2.48438,-2.14062 1.65625,-0.84375 3.5625,-0.84375 1.89062,0 3.5,0.8125 1.625,0.8125 2.4375,2.14062 0.8125,1.3125 0.8125,2.875 0,1.07813 -0.40625,2.1875 -0.40625,1.10938 -1.1875,2.07813 -1.34375,1.67187 -2.76563,2.85937 l -4.125,3.46875 q -1.5625,1.3125 -2.28125,2.23438 z" />
    <path
       id="path2740"
       style="font-style:normal;font-variant:normal;font-weight:normal;font-stretch:normal;font-size:32px;font-family:Century;-inkscape-font-specification:Century;text-align:center;text-anchor:middle"
       d="m 157.46191,-163.28022 q 3.04688,0 5.07813,2.375 2.51562,2.92187 2.51562,8.85937 0,5.51563 -2.1875,8.40625 -2.1875,2.875 -5.28125,2.875 -2.98437,0 -4.98437,-2.42187 -2.5,-3.04688 -2.5,-8.79688 0,-5.46875 2.35937,-8.70312 1.89063,-2.59375 5,-2.59375 z m 0.0937,1.125 q -2.0625,0 -3.21875,1.98437 -1.15625,1.96875 -1.15625,8.1875 0,6.07813 1.1875,8.10938 1.20313,2.03125 3.21875,2.03125 2.03125,0 3.125,-1.875 1.29688,-2.23438 1.29688,-8.15625 0,-6.125 -1.21875,-8.20313 -1.21875,-2.07812 -3.23438,-2.07812 z" />
  </g>
</svg>
