<?xml version="1.0" encoding="UTF-8" standalone="no"?>
<svg
   xmlns:dc="http://purl.org/dc/elements/1.1/"
   xmlns:cc="http://creativecommons.org/ns#"
   xmlns:rdf="http://www.w3.org/1999/02/22-rdf-syntax-ns#"
   xmlns:svg="http://www.w3.org/2000/svg"
   xmlns="http://www.w3.org/2000/svg"
   viewBox="0 0 256 256"
   version="1.1"
   id="svg8">
  <defs
     id="defs2" />
  <metadata
     id="metadata5">
    <rdf:RDF>
      <cc:Work
         rdf:about="">
        <dc:format>image/svg+xml</dc:format>
        <dc:type
           rdf:resource="http://purl.org/dc/dcmitype/StillImage" />
        <dc:title></dc:title>
      </cc:Work>
    </rdf:RDF>
  </metadata>
  <g
     id="flowRoot76"
     style="font-style:normal font-weight:normal font-size:40px line-height:1.25 font-family:sans-serif letter-spacing:0px word-spacing:0px fill:#000000 fill-opacity:1 stroke:none"
     transform="translate(-426.74082,9.3349123)"
     aria-label="Saturday 
20th June 
2020">
    <path
       id="path88"
       style="font-style:normal font-variant:normal font-weight:normal font-stretch:normal font-size:32px font-family:'Goudy Old Style' -inkscape-font-specification:'Goudy Old Style' text-align:center text-anchor:middle"
       d="m 507.39746,58.305713 q 1.67188,0 2.82813,0.484375 l 1.07812,0.453125 q 0.14063,0.0625 0.28125,0.0625 0.1875,0 0.375,-0.15625 l 0.21875,-0.1875 q 0.0469,-0.0625 0.17188,-0.0625 0.39062,-0.01563 0.39062,0.765625 0,0.265625 0.20313,1.578125 l 0.25,1.609375 q 0.0781,0.515625 0.0781,0.640625 0,0.484375 -0.32812,0.484375 -0.25,0 -0.5,-0.75 -0.5625,-1.6875 -2.29688,-2.78125 -1.71875,-1.09375 -3.84375,-1.09375 -1.6875,0 -2.82812,1 -1.125,0.984375 -1.125,2.46875 0,1.3125 0.73437,2.265625 0.64063,0.8125 1.39063,1.1875 0.76562,0.375 3.73437,1.359375 5.78125,1.890625 5.78125,6.203125 0,2.921875 -2.125,4.78125 -2.125,1.859375 -5.45312,1.859375 -1.20313,0 -2.65625,-0.34375 -1.4375,-0.34375 -2.10938,-0.796875 -0.28125,-0.1875 -0.375,-0.390625 -0.0937,-0.21875 -0.28125,-1.09375 -0.0312,-0.125 -0.39062,-1.421875 -0.40625,-1.40625 -0.40625,-2 0,-0.46875 0.3125,-0.453125 0.28125,0.01563 0.5,0.765625 0.5625,1.9375 2.375,3.25 1.8125,1.3125 3.9375,1.3125 2.15625,0 3.64062,-1.265625 1.5,-1.265625 1.5,-3.078125 0,-1.734375 -1.375,-2.921875 -0.70312,-0.609375 -4.0625,-1.734375 -3.46875,-1.171875 -4.92187,-2.59375 -1.4375,-1.421875 -1.4375,-3.6875 0,-2.53125 1.875,-4.125 1.89062,-1.59375 4.85937,-1.59375 z" />
    <path
       id="path90"
       style="font-style:normal font-variant:normal font-weight:normal font-stretch:normal font-size:32px font-family:'Goudy Old Style' -inkscape-font-specification:'Goudy Old Style' text-align:center text-anchor:middle"
       d="m 523.81934,73.196338 v -1.9375 q 0,-1.796875 -0.67188,-2.484375 -0.90625,-0.9375 -2.4375,-0.9375 -2.0625,0 -2.0625,1.75 0,0.515625 0.20313,1.1875 0.0937,0.28125 0.10937,0.5 0.0156,0.28125 -0.3125,0.28125 -0.73437,0 -1.34375,-0.3125 -0.59375,-0.3125 -0.59375,-0.6875 0,-0.96875 1.04688,-2.09375 1.40625,-1.515625 3.73437,-1.515625 2.125,0 3.29688,0.953125 1.17187,0.9375 1.17187,2.65625 v 6.125 q 0,1.453125 0.34375,2.078125 0.35938,0.609375 1.1875,0.609375 0.23438,0 0.375,-0.03125 0.28125,-0.07813 0.375,-0.07813 0.26563,-0.01563 0.25,0.21875 -0.0156,0.28125 -0.73437,0.578125 -0.71875,0.28125 -1.40625,0.28125 -1.28125,0 -2.3125,-1.578125 -2.26563,1.71875 -4.20313,1.71875 -1.46875,0 -2.34375,-0.78125 -0.85937,-0.796875 -0.85937,-2.125 0,-1.796875 1.64062,-2.78125 1.64063,-1 5.54688,-1.59375 z m 0,0.609375 q -2.4375,0.21875 -3.76563,1.109375 -1.32812,0.875 -1.32812,2.25 0,1.078125 0.625,1.71875 0.64062,0.625 1.71875,0.625 1.3125,0 2.20312,-0.859375 0.54688,-0.546875 0.54688,-1.734375 z" />
    <path
       id="path92"
       style="font-style:normal font-variant:normal font-weight:normal font-stretch:normal font-size:32px font-family:'Goudy Old Style' -inkscape-font-specification:'Goudy Old Style' text-align:center text-anchor:middle"
       d="m 533.69434,68.836963 v 7.859375 q 0,1.53125 0.4375,1.984375 0.64062,0.671875 1.82812,0.671875 0.95313,0 1.60938,-0.34375 l 0.8125,-0.390625 0.0937,-0.03125 q 0.1875,0 0.1875,0.171875 0,0.515625 -1.23438,1.125 -1.23437,0.59375 -2.29687,0.59375 -3.59375,0 -3.59375,-3.75 v -7.890625 h -1.39063 q -0.40625,0 -0.40625,-0.234375 0,-0.21875 0.40625,-0.5625 1.82813,-1.546875 2.79688,-3.09375 0.42187,-0.6875 0.59375,-0.6875 0.21875,0 0.21875,0.40625 l -0.0625,2.703125 h 3.32812 q 0.6875,0 1.0625,-0.25 0.23438,-0.171875 0.34375,-0.1875 0.17188,-0.03125 0.15625,0.171875 0,0.07813 -0.14062,0.390625 l -0.35938,0.890625 q -0.17187,0.453125 -0.6875,0.453125 z" />
    <path
       id="path94"
       style="font-style:normal font-variant:normal font-weight:normal font-stretch:normal font-size:32px font-family:'Goudy Old Style' -inkscape-font-specification:'Goudy Old Style' text-align:center text-anchor:middle"
       d="m 550.27246,78.133838 q -1.8125,2.34375 -4.40625,2.34375 -2.1875,0 -3.42187,-1.34375 -1.21875,-1.359375 -1.21875,-3.78125 l 0.0156,-1.03125 v -5.171875 q 0,-0.796875 -0.32812,-1.109375 -0.32813,-0.3125 -1.21875,-0.359375 -0.39063,-0.03125 -0.375,-0.328125 0.0156,-0.28125 0.96875,-0.328125 l 1.1875,-0.04687 q 0.39062,-0.03125 1.17187,-0.21875 0.21875,-0.0625 0.34375,-0.0625 0.42188,0 0.42188,0.734375 v 0.234375 l -0.0625,6.984375 v 0.5 l 0.25,1.890625 q 0.32812,1 1.21875,1.65625 0.89062,0.65625 1.9375,0.65625 1.375,0 2.4375,-0.796875 1.07812,-0.8125 1.07812,-1.84375 v -7.46875 q 0,-0.890625 -0.3125,-1.21875 -0.29687,-0.328125 -1.125,-0.328125 -0.5,0 -0.5,-0.296875 0,-0.359375 0.5625,-0.375 l 0.51563,-0.03125 1.09375,-0.04687 q 0.53125,-0.03125 1.21875,-0.25 0.21875,-0.0625 0.375,-0.07813 0.32812,-0.01563 0.32812,0.5625 v 10.15625 q 0,1.203125 0.25,1.59375 0.26563,0.375 1.0625,0.375 h 0.25 l 0.21875,-0.01563 q 0.34375,0 0.35938,0.234375 0.0156,0.328125 -0.90625,0.375 l -0.98438,0.0625 q -1.01562,0.04687 -1.3125,0.125 -0.375,0.09375 -0.57812,0.09375 -0.5,0 -0.5,-1.453125 z" />
    <path
       id="path96"
       style="font-style:normal font-variant:normal font-weight:normal font-stretch:normal font-size:32px font-family:'Goudy Old Style' -inkscape-font-specification:'Goudy Old Style' text-align:center text-anchor:middle"
       d="m 560.86621,69.790088 q 1.8125,-2.84375 3.34375,-2.84375 0.48438,0 1.26563,0.578125 0.79687,0.578125 0.82812,0.9375 0.0156,0.234375 -0.5,0.875 -0.51562,0.625 -0.73437,0.640625 -0.10938,0 -0.6875,-0.375 -0.67188,-0.46875 -1.28125,-0.46875 -0.95313,0 -1.59375,0.6875 -0.64063,0.671875 -0.64063,1.6875 v 5.578125 q 0,1.3125 0.34375,1.875 0.35938,0.546875 1.23438,0.625 l 0.8125,0.0625 q 0.5,0.03125 0.5,0.3125 0,0.3125 -0.4375,0.3125 -0.10938,0 -0.73438,-0.07813 -0.29687,-0.03125 -0.875,-0.03125 l -1.125,-0.01563 h -0.6875 q -1.21875,0 -1.73437,0.07813 -0.40625,0.0625 -0.5625,0.07813 -0.42188,0.01563 -0.42188,-0.3125 0,-0.265625 0.48438,-0.359375 0.67187,-0.15625 0.85937,-0.578125 0.20313,-0.421875 0.20313,-1.796875 v -6.703125 q 0,-1.796875 -1.71875,-1.796875 l -0.53125,0.01563 q -0.35938,0 -0.35938,-0.3125 0,-0.1875 0.23438,-0.28125 0.14062,-0.03125 0.34375,-0.04687 1.46875,-0.140625 3.46875,-1.375 0.20312,-0.109375 0.35937,-0.125 0.35938,-0.01563 0.35938,0.53125 l -0.0156,0.296875 z" />
    <path
       id="path98"
       style="font-style:normal font-variant:normal font-weight:normal font-stretch:normal font-size:32px font-family:'Goudy Old Style' -inkscape-font-specification:'Goudy Old Style' text-align:center text-anchor:middle"
       d="m 577.61621,78.149463 q -1.59375,1.375 -2.59375,1.859375 -0.98437,0.46875 -2.23437,0.46875 -2.35938,0 -3.96875,-1.84375 -1.59375,-1.84375 -1.59375,-4.5625 0,-3 1.90625,-5.0625 1.92187,-2.0625 4.70312,-2.0625 1.89063,0 3.78125,1.109375 v -6.171875 q 0,-2.96875 -1.59375,-2.875 l -0.54687,0.03125 q -0.10938,0 -0.20313,-0.03125 -0.15625,-0.0625 -0.17187,-0.234375 -0.0312,-0.3125 0.45312,-0.375 1.60938,-0.203125 3.65625,-1.4375 0.17188,-0.109375 0.29688,-0.109375 0.23437,0 0.23437,0.34375 l 0.0156,0.28125 v 19.859375 q 0,1.765625 1.07812,1.765625 l 0.92188,-0.03125 0.14062,0.01563 q 0.17188,0.0625 0.17188,0.25 0,0.34375 -0.5625,0.40625 -0.64063,0.0625 -0.8125,0.09375 l -0.875,0.140625 q -1.03125,0.15625 -1.375,0.328125 -0.29688,0.171875 -0.46875,0.171875 -0.35938,0.01563 -0.35938,-0.78125 z m 0,-1.890625 v -5.15625 q 0,-1.40625 -0.6875,-2.0625 -1.54687,-1.484375 -3.67187,-1.484375 -1.89063,0 -3.0625,1.4375 -1.15625,1.4375 -1.15625,3.78125 0,2.5625 1.51562,4.453125 1.53125,1.875 3.60938,1.875 1.53125,0 2.48437,-0.78125 0.96875,-0.796875 0.96875,-2.0625 z" />
    <path
       id="path100"
       style="font-style:normal font-variant:normal font-weight:normal font-stretch:normal font-size:32px font-family:'Goudy Old Style' -inkscape-font-specification:'Goudy Old Style' text-align:center text-anchor:middle"
       d="m 591.25684,73.196338 v -1.9375 q 0,-1.796875 -0.67188,-2.484375 -0.90625,-0.9375 -2.4375,-0.9375 -2.0625,0 -2.0625,1.75 0,0.515625 0.20313,1.1875 0.0937,0.28125 0.10937,0.5 0.0156,0.28125 -0.3125,0.28125 -0.73437,0 -1.34375,-0.3125 -0.59375,-0.3125 -0.59375,-0.6875 0,-0.96875 1.04688,-2.09375 1.40625,-1.515625 3.73437,-1.515625 2.125,0 3.29688,0.953125 1.17187,0.9375 1.17187,2.65625 v 6.125 q 0,1.453125 0.34375,2.078125 0.35938,0.609375 1.1875,0.609375 0.23438,0 0.375,-0.03125 0.28125,-0.07813 0.375,-0.07813 0.26563,-0.01563 0.25,0.21875 -0.0156,0.28125 -0.73437,0.578125 -0.71875,0.28125 -1.40625,0.28125 -1.28125,0 -2.3125,-1.578125 -2.26563,1.71875 -4.20313,1.71875 -1.46875,0 -2.34375,-0.78125 -0.85937,-0.796875 -0.85937,-2.125 0,-1.796875 1.64062,-2.78125 1.64063,-1 5.54688,-1.59375 z m 0,0.609375 q -2.4375,0.21875 -3.76563,1.109375 -1.32812,0.875 -1.32812,2.25 0,1.078125 0.625,1.71875 0.64062,0.625 1.71875,0.625 1.3125,0 2.20312,-0.859375 0.54688,-0.546875 0.54688,-1.734375 z" />
    <path
       id="path102"
       style="font-style:normal font-variant:normal font-weight:normal font-stretch:normal font-size:32px font-family:'Goudy Old Style' -inkscape-font-specification:'Goudy Old Style' text-align:center text-anchor:middle"
       d="m 603.05371,77.836963 2.34375,-6.453125 q 0.375,-1.046875 0.375,-1.84375 0,-0.75 -0.34375,-1.078125 -0.34375,-0.34375 -1.32812,-0.578125 -0.375,-0.07813 -0.375,-0.328125 0,-0.28125 0.3125,-0.265625 0.20312,0.01563 0.625,0.04687 0.34375,0.03125 1.40625,0.03125 1.17187,0 1.64062,-0.03125 0.53125,-0.03125 0.70313,-0.03125 0.32812,0 0.32812,0.265625 0,0.203125 -0.32812,0.34375 -0.60938,0.234375 -0.875,0.53125 -0.25,0.296875 -0.53125,1.0625 l -5.53125,15.59375 -0.15625,0.5 q -0.125,0.40625 -0.29688,0.46875 -0.17187,0.0625 -1.09375,0.0625 -1.0625,0 -1.0625,-0.21875 0,-0.125 0.1875,-0.296875 1.07813,-1.078125 1.89063,-2.59375 0.82812,-1.5 0.82812,-2.40625 0,-0.46875 -0.59375,-1.859375 l -3.92187,-9.09375 q -0.39063,-0.90625 -0.70313,-1.25 -0.29687,-0.34375 -0.84375,-0.484375 -0.34375,-0.09375 -0.34375,-0.296875 0,-0.34375 0.45313,-0.34375 0.32812,0 0.82812,0.04687 0.375,0.04687 1.57813,0.04687 1.46875,0 2.0625,-0.04687 0.39062,-0.03125 0.5625,-0.03125 0.42187,-0.01563 0.42187,0.3125 0,0.28125 -0.84375,0.40625 -0.9375,0.140625 -0.9375,0.78125 0,0.5625 0.5,1.734375 z" />
    <path
       id="path104"
       style="font-style:normal font-variant:normal font-weight:normal font-stretch:normal font-size:32px font-family:'Goudy Old Style' -inkscape-font-specification:'Goudy Old Style' text-align:center text-anchor:middle"
       d="m 503.53809,130.08696 -1.125,-0.0156 -1.70313,-0.0312 -2.34375,0.0156 h -2.96875 q -1.17187,0.0781 -1.70312,0.0781 -0.39063,0 -0.39063,-0.26563 0,-0.23437 1,-1.4375 3.15625,-3.79687 5.20313,-7.96875 2.0625,-4.1875 2.0625,-6.79687 0,-1.70313 -0.92188,-2.67188 -0.90625,-0.96875 -2.48437,-0.96875 -2.14063,0 -3.85938,1.65625 l -0.35937,0.34375 q -0.17188,0.17188 -0.35938,0.1875 -0.29687,0.0156 -0.28125,-0.29687 0.0312,-0.59375 1.1875,-1.71875 1.96875,-1.89063 4.67188,-1.89063 2.10937,0 3.45312,1.25 1.34375,1.23438 1.34375,3.17188 0,1.85937 -1.35937,4.65625 -1.54688,3.1875 -3.59375,6.17187 l -1.82813,2.6875 -0.35937,0.53125 q -0.29688,0.40625 -0.29688,0.64063 0,0.59375 3.76563,0.59375 2.04687,0 3.15625,-0.39063 1.10937,-0.40625 1.71875,-1.34375 0.28125,-0.4375 0.53125,-0.45312 0.28125,-0.0156 0.26562,0.21875 0,0.14062 -0.125,0.32812 -0.1875,0.29688 -0.59375,0.98438 -0.76562,1.3125 -1.70312,2.73437 z" />
    <path
       id="path106"
       style="font-style:normal font-variant:normal font-weight:normal font-stretch:normal font-size:32px font-family:'Goudy Old Style' -inkscape-font-specification:'Goudy Old Style' text-align:center text-anchor:middle"
       d="m 515.70996,108.30571 q 2.89063,0 4.75,3.04688 1.85938,3.03125 1.85938,7.73437 0,4.92188 -1.90625,8.15625 -1.90625,3.23438 -4.8125,3.23438 -3.26563,0 -5.21875,-2.75 -1.95313,-2.75 -1.95313,-7.34375 0,-2.96875 0.90625,-5.75 0.92188,-2.78125 2.45313,-4.45313 1.71875,-1.875 3.92187,-1.875 z m -1.14062,1.73438 q -1.92188,0 -3.09375,2.17187 -1.17188,2.15625 -1.17188,5.73438 0,4.73437 1.75,8.04687 1.76563,3.29688 4.26563,3.29688 2.09375,0 3.26562,-2.28125 1.1875,-2.29688 1.1875,-6.34375 0,-4.625 -1.75,-7.625 -1.75,-3 -4.45312,-3 z" />
    <path
       id="path108"
       style="font-style:normal font-variant:normal font-weight:normal font-stretch:normal font-size:32px font-family:'Goudy Old Style' -inkscape-font-specification:'Goudy Old Style' text-align:center text-anchor:middle"
       d="m 528.19434,118.83696 v 7.85938 q 0,1.53125 0.4375,1.98437 0.64062,0.67188 1.82812,0.67188 0.95313,0 1.60938,-0.34375 l 0.8125,-0.39063 0.0937,-0.0312 q 0.1875,0 0.1875,0.17188 0,0.51562 -1.23438,1.125 -1.23437,0.59375 -2.29687,0.59375 -3.59375,0 -3.59375,-3.75 v -7.89063 h -1.39063 q -0.40625,0 -0.40625,-0.23437 0,-0.21875 0.40625,-0.5625 1.82813,-1.54688 2.79688,-3.09375 0.42187,-0.6875 0.59375,-0.6875 0.21875,0 0.21875,0.40625 l -0.0625,2.70312 h 3.32812 q 0.6875,0 1.0625,-0.25 0.23438,-0.17187 0.34375,-0.1875 0.17188,-0.0312 0.15625,0.17188 0,0.0781 -0.14062,0.39062 l -0.35938,0.89063 q -0.17187,0.45312 -0.6875,0.45312 z" />
    <path
       id="path110"
       style="font-style:normal font-variant:normal font-weight:normal font-stretch:normal font-size:32px font-family:'Goudy Old Style' -inkscape-font-specification:'Goudy Old Style' text-align:center text-anchor:middle"
       d="m 538.17871,119.43071 q 2.01563,-2.48437 4.39063,-2.48437 2.20312,0 3.5625,1.51562 1.375,1.51563 1.375,3.96875 v 4.95313 q 0,1.1875 0.39062,1.625 0.39063,0.4375 1.65625,0.64062 0.42188,0.0625 0.42188,0.34375 0,0.28125 -0.42188,0.28125 -0.1875,0 -0.76562,-0.0469 -1.15625,-0.0781 -1.98438,-0.0781 -1.375,0 -2.03125,0.0937 -0.375,0.0469 -0.48437,0.0469 -0.42188,0 -0.4375,-0.28125 -0.0156,-0.1875 0.3125,-0.3125 0.79687,-0.29688 0.98437,-0.53125 0.1875,-0.25 0.1875,-0.95313 l 0.0156,-0.48437 v -5.20313 q 0,-1.98437 -1.01563,-3.14062 -1.01562,-1.17188 -2.71875,-1.17188 -1.3125,0 -2.375,0.82813 -1.0625,0.82812 -1.0625,1.85937 v 6.04688 q 0,1.59375 0.35938,2.0625 0.35937,0.46875 1.75,0.65625 0.53125,0.0781 0.53125,0.39062 0,0.26563 -0.34375,0.26563 -0.17188,0 -0.85938,-0.0781 -0.5625,-0.0625 -2.375,-0.0625 -0.625,0 -1.79687,0.0937 -0.51563,0.0469 -0.71875,0.0469 -0.375,0 -0.39063,-0.25 -0.0156,-0.28125 0.35938,-0.39063 0.92187,-0.28125 1.125,-0.64062 0.21875,-0.35938 0.21875,-1.70313 v -16.28125 q 0,-1.92187 -1.04688,-1.85937 l -0.79687,0.0469 q -0.125,0 -0.21875,-0.0469 -0.10938,-0.0625 -0.10938,-0.20313 0,-0.21875 0.35938,-0.3125 0.98437,-0.23437 2.1875,-0.8125 l 1.21875,-0.57812 q 0.1875,-0.0937 0.32812,-0.0937 0.26563,0 0.26563,0.34375 0,0.0937 -0.0312,0.375 -0.0156,0.26562 -0.0156,0.79687 z" />
    <path
       id="path112"
       style="font-style:normal font-variant:normal font-weight:normal font-stretch:normal font-size:32px font-family:'Goudy Old Style' -inkscape-font-specification:'Goudy Old Style' text-align:center text-anchor:middle"
       d="m 562.42871,128.77446 v -15.84375 q 0,-1.84375 -0.35937,-2.5625 -0.34375,-0.71875 -1.34375,-0.9375 l -0.9375,-0.20312 q -0.46875,-0.0937 -0.46875,-0.42188 0,-0.35937 0.51562,-0.34375 0.3125,0.0156 1.125,0.10938 0.8125,0.0937 2.65625,0.0937 1.57813,0 1.96875,-0.0469 0.76563,-0.10937 0.89063,-0.10937 0.29687,0 0.29687,0.29687 0,0.29688 -0.4375,0.40625 -0.875,0.21875 -1.1875,0.70313 -0.3125,0.46875 -0.3125,1.625 v 1.29687 l -0.0156,0.65625 v 13.73438 l 0.0156,0.75 -0.21875,2.0625 q -0.54687,2.5625 -2.20312,4.29687 -1.64063,1.75 -3.51563,1.75 -0.53125,0 -0.90625,-0.25 -0.39062,-0.23437 -0.39062,-0.5625 0,-0.14062 0.0625,-0.375 0.0469,-0.125 0.14062,-0.57812 0.20313,-0.98438 0.59375,-0.98438 0.1875,0 0.54688,0.42188 0.625,0.71875 1.375,0.71875 0.92187,0 1.53125,-1.1875 0.625,-1.1875 0.625,-2.9375 z" />
    <path
       id="path114"
       style="font-style:normal font-variant:normal font-weight:normal font-stretch:normal font-size:32px font-family:'Goudy Old Style' -inkscape-font-specification:'Goudy Old Style' text-align:center text-anchor:middle"
       d="m 579.95996,128.13384 q -1.8125,2.34375 -4.40625,2.34375 -2.1875,0 -3.42187,-1.34375 -1.21875,-1.35938 -1.21875,-3.78125 l 0.0156,-1.03125 v -5.17188 q 0,-0.79687 -0.32812,-1.10937 -0.32813,-0.3125 -1.21875,-0.35938 -0.39063,-0.0312 -0.375,-0.32812 0.0156,-0.28125 0.96875,-0.32813 l 1.1875,-0.0469 q 0.39062,-0.0312 1.17187,-0.21875 0.21875,-0.0625 0.34375,-0.0625 0.42188,0 0.42188,0.73437 v 0.23438 l -0.0625,6.98437 v 0.5 l 0.25,1.89063 q 0.32812,1 1.21875,1.65625 0.89062,0.65625 1.9375,0.65625 1.375,0 2.4375,-0.79688 1.07812,-0.8125 1.07812,-1.84375 v -7.46875 q 0,-0.89062 -0.3125,-1.21875 -0.29687,-0.32812 -1.125,-0.32812 -0.5,0 -0.5,-0.29688 0,-0.35937 0.5625,-0.375 l 0.51563,-0.0312 1.09375,-0.0469 q 0.53125,-0.0312 1.21875,-0.25 0.21875,-0.0625 0.375,-0.0781 0.32812,-0.0156 0.32812,0.5625 v 10.15625 q 0,1.20313 0.25,1.59375 0.26563,0.375 1.0625,0.375 h 0.25 l 0.21875,-0.0156 q 0.34375,0 0.35938,0.23437 0.0156,0.32813 -0.90625,0.375 l -0.98438,0.0625 q -1.01562,0.0469 -1.3125,0.125 -0.375,0.0937 -0.57812,0.0937 -0.5,0 -0.5,-1.45312 z" />
    <path
       id="path116"
       style="font-style:normal font-variant:normal font-weight:normal font-stretch:normal font-size:32px font-family:'Goudy Old Style' -inkscape-font-specification:'Goudy Old Style' text-align:center text-anchor:middle"
       d="m 590.55371,119.43071 q 2.09375,-2.48437 4.34375,-2.48437 2.5,0 3.95313,2.04687 1,1.40625 1,4.28125 v 3.73438 l -0.0156,0.46875 0.0469,0.75 q 0.17187,1.03125 1.3125,1.20312 l 0.65625,0.0937 q 0.42187,0.0625 0.4375,0.3125 0.0156,0.34375 -0.51563,0.34375 -0.17187,0 -0.60937,-0.0469 -0.51563,-0.0625 -1.90625,-0.0625 l -1.54688,0.0469 h -0.59375 l -0.45312,0.0312 -0.21875,-0.0469 q -0.10938,-0.0625 -0.10938,-0.23438 0,-0.23437 0.28125,-0.29687 l 0.46875,-0.125 q 0.625,-0.15625 0.625,-1.125 v -5.39063 q 0,-2.17187 -1,-3.34375 -1,-1.1875 -2.84375,-1.1875 -1.29687,0 -2.3125,0.76563 -1,0.76562 -1,1.75 v 5.95312 l 0.0156,0.46875 0.0156,0.78125 q 0.0781,1.3125 2.17188,1.4375 0.51562,0.0469 0.51562,0.32813 0,0.28125 -0.35937,0.28125 -0.26563,0 -0.79688,-0.0781 -0.29687,-0.0312 -1.46875,-0.0312 -2.48437,0 -2.96875,0.0625 -0.48437,0.0469 -0.625,0.0469 -0.29687,0 -0.28125,-0.25 0.0156,-0.1875 0.29688,-0.29688 0.79687,-0.28125 1.0625,-0.6875 0.28125,-0.40625 0.28125,-1.3125 v -7.0625 q 0,-1.10937 -0.26563,-1.5 -0.26562,-0.40625 -1,-0.40625 l -0.67187,0.0156 q -0.14063,0 -0.25,-0.0625 -0.14063,-0.0625 -0.14063,-0.21875 0,-0.21875 0.40625,-0.29688 1.04688,-0.1875 2.01563,-0.64062 l 0.82812,-0.40625 q 0.48438,-0.23438 0.60938,-0.29688 0.21875,-0.125 0.375,-0.125 0.28125,0 0.25,0.45313 -0.0156,0.25 -0.0156,0.59375 z" />
    <path
       id="path118"
       style="font-style:normal font-variant:normal font-weight:normal font-stretch:normal font-size:32px font-family:'Goudy Old Style' -inkscape-font-specification:'Goudy Old Style' text-align:center text-anchor:middle"
       d="m 606.05371,122.29009 -0.0156,0.34375 q 0,2.67187 1.46875,4.5 1.48437,1.8125 3.64062,1.8125 1.70313,0 3.70313,-1.53125 0.125,-0.0937 0.23437,-0.10938 0.21875,-0.0156 0.21875,0.25 0,0.46875 -1.09375,1.32813 -2.03125,1.59375 -4.29687,1.59375 -2.54688,0 -4.28125,-1.9375 -1.71875,-1.9375 -1.71875,-4.79688 0,-2.71875 1.78125,-4.75 1.78125,-2.04687 4.17187,-2.04687 2.60938,0 4.17188,2.17187 0.375,0.53125 0.76562,1.4375 0.39063,0.90625 0.39063,1.26563 0,0.51562 -1.01563,0.51562 l -1.15625,-0.0156 -1.0625,-0.0312 z m 0.0625,-0.84375 h 5.29688 q 1.23437,0 1.23437,-0.5 0,-1.21875 -1.0625,-2.26563 -1.04687,-1.04687 -2.28125,-1.04687 -1.28125,0 -2.14062,1.03125 -0.84375,1.01562 -1.04688,2.78125 z" />
    <path
       id="path120"
       style="font-style:normal font-variant:normal font-weight:normal font-stretch:normal font-size:32px font-family:'Goudy Old Style' -inkscape-font-specification:'Goudy Old Style' text-align:center text-anchor:middle"
       d="m 533.94434,180.08696 -1.125,-0.0156 -1.70313,-0.0312 -2.34375,0.0156 h -2.96875 q -1.17187,0.0781 -1.70312,0.0781 -0.39063,0 -0.39063,-0.26563 0,-0.23437 1,-1.4375 3.15625,-3.79687 5.20313,-7.96875 2.0625,-4.1875 2.0625,-6.79687 0,-1.70313 -0.92188,-2.67188 -0.90625,-0.96875 -2.48437,-0.96875 -2.14063,0 -3.85938,1.65625 l -0.35937,0.34375 q -0.17188,0.17188 -0.35938,0.1875 -0.29687,0.0156 -0.28125,-0.29687 0.0312,-0.59375 1.1875,-1.71875 1.96875,-1.89063 4.67188,-1.89063 2.10937,0 3.45312,1.25 1.34375,1.23438 1.34375,3.17188 0,1.85937 -1.35937,4.65625 -1.54688,3.1875 -3.59375,6.17187 l -1.82813,2.6875 -0.35937,0.53125 q -0.29688,0.40625 -0.29688,0.64063 0,0.59375 3.76563,0.59375 2.04687,0 3.15625,-0.39063 1.10937,-0.40625 1.71875,-1.34375 0.28125,-0.4375 0.53125,-0.45312 0.28125,-0.0156 0.26562,0.21875 0,0.14062 -0.125,0.32812 -0.1875,0.29688 -0.59375,0.98438 -0.76562,1.3125 -1.70312,2.73437 z" />
    <path
       id="path122"
       style="font-style:normal font-variant:normal font-weight:normal font-stretch:normal font-size:32px font-family:'Goudy Old Style' -inkscape-font-specification:'Goudy Old Style' text-align:center text-anchor:middle"
       d="m 546.11621,158.30571 q 2.89063,0 4.75,3.04688 1.85938,3.03125 1.85938,7.73437 0,4.92188 -1.90625,8.15625 -1.90625,3.23438 -4.8125,3.23438 -3.26563,0 -5.21875,-2.75 -1.95313,-2.75 -1.95313,-7.34375 0,-2.96875 0.90625,-5.75 0.92188,-2.78125 2.45313,-4.45313 1.71875,-1.875 3.92187,-1.875 z m -1.14062,1.73438 q -1.92188,0 -3.09375,2.17187 -1.17188,2.15625 -1.17188,5.73438 0,4.73437 1.75,8.04687 1.76563,3.29688 4.26563,3.29688 2.09375,0 3.26562,-2.28125 1.1875,-2.29688 1.1875,-6.34375 0,-4.625 -1.75,-7.625 -1.75,-3 -4.45312,-3 z" />
    <path
       id="path124"
       style="font-style:normal font-variant:normal font-weight:normal font-stretch:normal font-size:32px font-family:'Goudy Old Style' -inkscape-font-specification:'Goudy Old Style' text-align:center text-anchor:middle"
       d="m 565.94434,180.08696 -1.125,-0.0156 -1.70313,-0.0312 -2.34375,0.0156 h -2.96875 q -1.17187,0.0781 -1.70312,0.0781 -0.39063,0 -0.39063,-0.26563 0,-0.23437 1,-1.4375 3.15625,-3.79687 5.20313,-7.96875 2.0625,-4.1875 2.0625,-6.79687 0,-1.70313 -0.92188,-2.67188 -0.90625,-0.96875 -2.48437,-0.96875 -2.14063,0 -3.85938,1.65625 l -0.35937,0.34375 q -0.17188,0.17188 -0.35938,0.1875 -0.29687,0.0156 -0.28125,-0.29687 0.0312,-0.59375 1.1875,-1.71875 1.96875,-1.89063 4.67188,-1.89063 2.10937,0 3.45312,1.25 1.34375,1.23438 1.34375,3.17188 0,1.85937 -1.35937,4.65625 -1.54688,3.1875 -3.59375,6.17187 l -1.82813,2.6875 -0.35937,0.53125 q -0.29688,0.40625 -0.29688,0.64063 0,0.59375 3.76563,0.59375 2.04687,0 3.15625,-0.39063 1.10937,-0.40625 1.71875,-1.34375 0.28125,-0.4375 0.53125,-0.45312 0.28125,-0.0156 0.26562,0.21875 0,0.14062 -0.125,0.32812 -0.1875,0.29688 -0.59375,0.98438 -0.76562,1.3125 -1.70312,2.73437 z" />
    <path
       id="path126"
       style="font-style:normal font-variant:normal font-weight:normal font-stretch:normal font-size:32px font-family:'Goudy Old Style' -inkscape-font-specification:'Goudy Old Style' text-align:center text-anchor:middle"
       d="m 578.11621,158.30571 q 2.89063,0 4.75,3.04688 1.85938,3.03125 1.85938,7.73437 0,4.92188 -1.90625,8.15625 -1.90625,3.23438 -4.8125,3.23438 -3.26563,0 -5.21875,-2.75 -1.95313,-2.75 -1.95313,-7.34375 0,-2.96875 0.90625,-5.75 0.92188,-2.78125 2.45313,-4.45313 1.71875,-1.875 3.92187,-1.875 z m -1.14062,1.73438 q -1.92188,0 -3.09375,2.17187 -1.17188,2.15625 -1.17188,5.73438 0,4.73437 1.75,8.04687 1.76563,3.29688 4.26563,3.29688 2.09375,0 3.26562,-2.28125 1.1875,-2.29688 1.1875,-6.34375 0,-4.625 -1.75,-7.625 -1.75,-3 -4.45312,-3 z" />
  </g>
</svg>
