<?xml version="1.0" encoding="UTF-8" standalone="no"?>
<svg
   xmlns:dc="http://purl.org/dc/elements/1.1/"
   xmlns:cc="http://creativecommons.org/ns#"
   xmlns:rdf="http://www.w3.org/1999/02/22-rdf-syntax-ns#"
   xmlns:svg="http://www.w3.org/2000/svg"
   xmlns="http://www.w3.org/2000/svg"
   xmlns:sodipodi="http://sodipodi.sourceforge.net/DTD/sodipodi-0.dtd"
   xmlns:inkscape="http://www.inkscape.org/namespaces/inkscape"
   id="svg8"
   version="1.1"
   viewBox="0 0 256 256"
   sodipodi:docname="Date.svg"
   inkscape:version="0.92.3 (2405546, 2018-03-11)">
  <sodipodi:namedview
     pagecolor="#ffffff"
     bordercolor="#666666"
     borderopacity="1"
     objecttolerance="10"
     gridtolerance="10"
     guidetolerance="10"
     inkscape:pageopacity="0"
     inkscape:pageshadow="2"
     inkscape:window-width="1812"
     inkscape:window-height="1051"
     id="namedview2792"
     showgrid="false"
     inkscape:zoom="1.3037281"
     inkscape:cx="-155.18734"
     inkscape:cy="132.74012"
     inkscape:window-x="-9"
     inkscape:window-y="-9"
     inkscape:window-maximized="1"
     inkscape:current-layer="svg8"
     inkscape:snap-page="true" />
  <defs
     id="defs2" />
  <metadata
     id="metadata5">
    <rdf:RDF>
      <cc:Work
         rdf:about="">
        <dc:format>image/svg+xml</dc:format>
        <dc:type
           rdf:resource="http://purl.org/dc/dcmitype/StillImage" />
        <dc:title />
      </cc:Work>
    </rdf:RDF>
  </metadata>
  <flowRoot
     xml:space="preserve"
     id="flowRoot1497"
     style="fill:black;fill-opacity:1;stroke:none;font-family:'Run to the Hills Personal Use';font-style:normal;font-weight:normal;font-size:40px;line-height:1.5;letter-spacing:0px;word-spacing:0px;-inkscape-font-specification:'Run to the Hills Personal Use';font-stretch:normal;font-variant:normal;"><flowRegion
       id="flowRegion1499"
       style="line-height:1.5;-inkscape-font-specification:'Run to the Hills Personal Use';font-family:'Run to the Hills Personal Use';font-weight:normal;font-style:normal;font-stretch:normal;font-variant:normal;"><rect
         id="rect1501"
         width="282.26746"
         height="210.16652"
         x="-395.78806"
         y="25.890669"
         style="line-height:1.5;-inkscape-font-specification:'Run to the Hills Personal Use';font-family:'Run to the Hills Personal Use';font-weight:normal;font-style:normal;font-stretch:normal;font-variant:normal;" /></flowRegion><flowPara
       id="flowPara1503" /></flowRoot>  <g
     aria-label="Saturday 20th June 2020"
     transform="translate(366.04952,148.77488)"
     style="font-style:normal;font-weight:normal;font-size:40px;line-height:1.25;font-family:sans-serif;letter-spacing:0px;word-spacing:0px;fill:#18394c;fill-opacity:1;stroke:none"
     id="flowRoot1505">
    <path
       d="m -294.27488,-92.891799 q -0.85333,0.725334 -2.048,0.725334 -0.98133,0 -1.87733,-0.512 -0.896,-0.554667 -1.62133,-1.237334 -0.68267,-0.725333 -1.10934,-1.408 -0.384,-0.682666 -0.34133,-0.981333 0.81067,-0.469333 1.62133,-1.066667 0.81067,-0.64 1.408,-1.365333 0.64,-0.725333 0.93867,-1.535998 0.29867,-0.85334 0.128,-1.74934 -0.128,-0.46933 -0.59733,-0.85333 -0.46934,-0.384 -1.49334,-0.512 -0.34133,-0.0853 -0.72533,-0.0853 -0.34133,0 -0.68267,0 -1.49333,0 -3.2,0.34133 -1.70666,0.29867 -3.37066,0.93867 -1.62134,0.59733 -3.072,1.49333 -1.45067,0.896001 -2.432,2.133335 -0.93867,1.194666 -1.28,2.688 -0.34134,1.450666 0.256,3.2 0.384,1.152 1.10933,2.304 0.72533,1.109333 1.664,2.218667 0.98133,1.066666 2.048,2.133333 1.10933,1.024 2.26133,2.090667 1.408,1.322666 2.77334,2.688 1.36533,1.322666 2.47466,2.816 1.152,1.450667 1.96267,3.029333 0.85333,1.578667 1.152,3.370667 0.29867,2.56 -0.68267,5.248 -0.98133,2.688 -3.02933,4.864 -2.00533,2.176 -4.94933,3.498667 -2.90134,1.322667 -6.44267,1.194667 -1.92,-0.170667 -4.30933,-0.938667 -2.38934,-0.725333 -4.608,-2.048 -2.176,-1.28 -3.92534,-3.2 -1.74933,-1.877333 -2.432,-4.394667 -0.72533,-2.773333 -0.128,-5.248 0.59734,-2.517333 3.11467,-4.949334 l -0.128,0.04267 q 0.128,-0.170667 0.68267,-0.04267 0.59733,0.128 1.36533,0.469334 0.81067,0.341333 1.664,0.810667 0.896,0.469333 1.62133,0.981333 0.72534,0.512 1.19467,0.938667 0.46933,0.426666 0.46933,0.682666 l -0.896,0.682667 q -0.768,0.512 -1.536,1.066667 -0.72533,0.554666 -1.28,1.28 -0.55466,0.682666 -0.81066,1.578666 -0.21334,0.853334 0.0427,1.962667 0.42667,1.706667 1.408,2.773334 0.98134,1.066666 2.26134,1.664 1.28,0.597333 2.73066,0.810666 1.45067,0.213334 2.85867,0.213334 2.432,0 4.30933,-0.725334 1.87734,-0.682666 3.02934,-1.962666 1.19466,-1.28 1.57866,-3.114667 0.384,-1.834667 -0.17066,-4.138667 -0.29867,-1.152 -0.98134,-2.261333 -0.68266,-1.109334 -1.62133,-2.133334 -0.93867,-1.066666 -2.048,-2.048 -1.06667,-1.024 -2.21867,-2.005333 -1.36533,-1.194667 -2.64533,-2.389334 -1.28,-1.237333 -2.34667,-2.56 -1.06666,-1.322666 -1.83466,-2.730666 -0.72534,-1.408001 -0.98134,-3.029334 -0.29866,-2.346667 0.34134,-4.522667 0.64,-2.176 2.00533,-4.053333 1.36533,-1.919998 3.28533,-3.455998 1.96267,-1.536 4.26667,-2.60267 2.304,-1.06667 4.82133,-1.57867 2.56,-0.55466 5.07734,-0.42666 1.57866,0.128 2.73066,0.68266 1.19467,0.512 2.048,1.36534 0.896,0.81066 1.45067,1.92 0.55467,1.10933 0.85333,2.34666 0.59734,2.688005 0.29867,4.736005 -0.29867,2.005333 -1.28,3.712 z"
       style="font-style:normal;font-variant:normal;font-weight:normal;font-stretch:normal;font-size:42.66666794px;line-height:1.25;font-family:'Run to the Hills Personal Use';-inkscape-font-specification:'Run to the Hills Personal Use';text-align:center;text-anchor:middle;fill:#18394c;fill-opacity:1"
       id="path2813" />
    <path
       d="m -277.59754,-80.603798 q 0.0427,0.256 -0.21334,0.426666 -0.21333,0.128 -0.55466,0.213334 -0.34134,0.04267 -0.768,0.04267 -0.42667,0 -0.768,-0.128 0.72533,0.384 1.45066,0.896 0.768,0.512 1.36534,1.152 0.59733,0.597334 0.93866,1.237334 0.384,0.64 0.384,1.237333 -0.0853,0.298667 -0.17066,0.682667 -0.0427,0.341333 -0.0853,0.725333 -0.128,0.810667 -0.256,1.749334 -0.0853,0.938666 -0.17066,1.834666 -0.0427,0.896 -0.0427,1.706667 0,0.768 0.128,1.322667 0.0427,0.08533 -0.0427,0.128 -0.0427,0.04267 -0.0427,0.08533 h 0.29866 q 1.06667,-0.426667 1.87734,-1.408 0.81066,-0.981333 1.408,-2.218667 0.64,-1.28 1.10933,-2.688 0.46933,-1.450666 0.896,-2.773333 0.17067,-0.341333 0.21333,-0.597333 0.0853,-0.256 0.17067,-0.554667 0.0853,-0.213334 0.59733,-0.08533 0.512,0.08533 1.06667,0.384001 0.55467,0.298666 0.93867,0.725333 0.42666,0.384 0.29866,0.682667 l -0.55466,1.706666 v 0.04267 q -0.81067,2.517333 -1.792,4.992 -0.98134,2.432 -2.64534,4.394667 -0.256,0.341333 -0.68266,0.768 -0.384,0.384 -0.93867,0.725333 -0.55467,0.384 -1.28,0.597334 -0.68267,0.256 -1.57867,0.213333 -2.13333,-0.170667 -3.49866,-1.450667 -1.32267,-1.28 -1.87734,-3.2 -1.10933,1.792 -2.60266,3.114667 -1.45067,1.28 -3.24267,1.322667 -1.664,-0.170667 -2.944,-0.896 -1.23733,-0.768 -2.09067,-1.792 -0.896,-1.024001 -1.45066,-2.176001 -0.55467,-1.194666 -0.81067,-2.218666 -0.21333,-1.066667 -0.21333,-1.536 -0.17067,-1.578667 0.0427,-3.456 0.17067,-1.877334 0.768,-3.754667 0.59734,-1.877334 1.536,-3.626667 0.93867,-1.749333 2.21867,-3.114667 1.28,-1.365333 2.816,-2.176 1.57867,-0.810666 3.456,-0.810666 0.55467,0 1.10933,0.08533 0.55467,0.08533 1.19467,0.256 1.152,0.341333 2.00533,1.109333 0.85334,0.725334 1.45067,1.749334 0.59733,0.981333 0.98133,2.133333 0.384,1.109333 0.59734,2.218667 z m -4.992,0 q 0.34133,-0.213334 0.98133,-0.08533 0.64,0.128 1.36533,0.469334 -0.256,-0.213334 -0.34133,-0.469334 -0.0427,-0.128 -0.128,-0.298666 -0.0427,-0.170667 -0.0853,-0.341334 -0.128,-0.426666 -0.34134,-0.896 -0.17066,-0.469333 -0.46933,-0.853333 -0.29867,-0.426667 -0.68267,-0.682667 -0.384,-0.256 -0.93866,-0.298666 -1.57867,-0.04267 -2.77334,1.152 -1.19466,1.152 -2.048,2.944 -0.81066,1.792 -1.23733,3.84 -0.42667,2.048 -0.46933,3.712 -0.0427,0.469333 0,1.194667 0.0853,0.682666 0.29866,1.365333 0.21334,0.981333 0.768,1.621333 0.55467,0.64 1.792,0.298667 0.55467,-0.170667 1.19467,-0.981333 0.68267,-0.810667 1.32267,-1.92 0.64,-1.152 1.19466,-2.346667 0.55467,-1.237333 0.896,-2.218667 0.128,-1.28 0.17067,-2.474667 0.0427,-1.194666 -0.128,-2.048 z"
       style="font-style:normal;font-variant:normal;font-weight:normal;font-stretch:normal;font-size:42.66666794px;line-height:1.25;font-family:'Run to the Hills Personal Use';-inkscape-font-specification:'Run to the Hills Personal Use';text-align:center;text-anchor:middle;fill:#18394c;fill-opacity:1"
       id="path2815" />
    <path
       d="m -270.97488,-85.937132 q -0.68266,0.256 -1.23733,0 -0.59733,-0.256 -0.896,-0.725333 -0.34133,-0.512 -0.29867,-1.109333 0,-0.597334 0.55467,-1.066667 2.47467,-2.133334 5.248,-3.626667 0.512,-2.730667 0.768,-5.12 0.29867,-2.389334 0.256,-4.394668 0.55467,-0.34133 1.57867,0.0427 1.06666,0.34133 2.13333,1.10933 1.06667,0.768 1.83467,1.792001 0.81066,0.981334 0.81066,1.92 -0.0427,0.341334 -0.128,0.938667 -0.0853,0.554667 -0.21333,1.28 1.32267,-0.256 2.64533,-0.384 1.36534,-0.170667 2.77334,-0.170667 0.42666,0 1.10933,0.04267 0.68267,0 1.152,0.04267 0.34133,0.64 0.384,1.408 0.0853,0.725333 -0.0853,1.408 -0.128,0.64 -0.512,1.109333 -0.34134,0.469333 -0.85334,0.469333 -0.42666,-0.04267 -0.896,-0.04267 -0.46933,-0.04267 -0.93866,-0.04267 -1.49334,0 -2.90134,0.170667 -1.408,0.170666 -2.816,0.512 l -0.85333,3.882667 -0.128,0.554666 q -0.21333,0.810667 -0.55467,2.218667 -0.29866,1.408 -0.64,3.157333 -0.34133,1.706667 -0.68266,3.626667 -0.34134,1.877334 -0.55467,3.669334 -0.21333,1.749333 -0.256,3.242666 -0.0427,1.493334 0.21333,2.389334 -0.0427,0.128 -0.0427,0.213333 0.0427,0.08533 0.0427,0.128 h 0.29867 q 1.06667,-0.426667 1.87733,-1.365333 0.81067,-0.981334 1.408,-2.176 0.59734,-1.237334 1.06667,-2.602667 0.46933,-1.408 0.896,-2.730667 h -0.0427 q 0.0853,-0.384 0.21334,-0.725333 0.17066,-0.384 0.29866,-0.725334 0.0427,-0.256 0.512,-0.128 0.512,0.128 1.024,0.426667 0.512,0.298667 0.896,0.725334 0.42667,0.384 0.384,0.682666 l -0.64,1.92 q -0.72533,2.432 -1.792,4.949334 -1.024,2.474666 -2.51733,4.352 -0.256,0.341333 -0.68267,0.768 -0.42666,0.384 -1.024,0.725333 -0.55466,0.341334 -1.28,0.554667 -0.68266,0.256 -1.536,0.256 -1.92,-0.08533 -3.072,-1.578667 -1.152,-1.493333 -1.70666,-3.669333 -0.17067,-0.469334 -0.21334,-0.981334 -0.0853,-0.554666 -0.0853,-0.981333 -0.384,-4.394667 0.29867,-8.661334 0.64,-4.266666 1.57866,-8.32 0.0853,-0.213333 0.0853,-0.426666 0.0427,-0.213334 0.0853,-0.426667 l -2.21867,1.450667 z"
       style="font-style:normal;font-variant:normal;font-weight:normal;font-stretch:normal;font-size:42.66666794px;line-height:1.25;font-family:'Run to the Hills Personal Use';-inkscape-font-specification:'Run to the Hills Personal Use';text-align:center;text-anchor:middle;fill:#18394c;fill-opacity:1"
       id="path2817" />
    <path
       d="m -246.71754,-87.814465 q 0.55466,-0.298667 1.57866,0.08533 1.024,0.384 2.048,1.194667 1.024,0.810667 1.74934,1.834667 0.768,1.024 0.72533,2.005333 -0.0427,0.341333 -0.17067,1.066667 -0.128,0.725333 -0.29866,1.621333 l 0.0427,-0.08533 q -0.256,1.408 -0.59733,3.2 -0.29867,1.792 -0.512,3.541333 -0.21333,1.749334 -0.29867,3.285334 -0.0427,1.493333 0.17067,2.432 -0.0853,0.341333 -0.0427,0.341333 h 0.42667 q 1.06667,-0.426667 1.87733,-1.408 0.81067,-0.981333 1.408,-2.261333 0.64,-1.28 1.10934,-2.688 0.512,-1.450667 0.896,-2.773334 l 0.384,-1.237333 q 0.17066,-0.554667 0.68266,-0.597334 0.55467,-0.04267 1.06667,0.298667 0.55467,0.298667 0.896,0.896 0.34133,0.597334 0.17067,1.365334 l -0.55467,1.621333 q -0.768,2.432 -1.792,4.949333 -0.98133,2.517334 -2.56,4.437334 -0.256,0.341333 -0.68267,0.768 -0.42666,0.384 -1.024,0.725333 -0.55466,0.341334 -1.28,0.554667 -0.68266,0.256 -1.536,0.256 -1.92,-0.08533 -3.15733,-1.578667 -1.23733,-1.493333 -1.74933,-3.669333 0,-0.04267 -0.0427,-0.04267 0,0 0,-0.04267 -0.85333,1.706667 -1.92,3.029334 -0.256,0.341333 -0.68267,0.768 -0.42666,0.384 -1.024,0.725333 -0.55466,0.341334 -1.28,0.554667 -0.68266,0.256 -1.536,0.256 -1.87733,-0.08533 -3.02933,-1.578667 -1.19467,-1.493333 -1.74933,-3.626667 -0.0853,-0.469333 -0.21334,-1.024 -0.128,-0.554666 -0.128,-1.024 -0.0853,-0.938666 -0.0427,-2.133333 0.0427,-1.237333 0.17066,-2.517333 0.0853,-1.322667 0.21334,-2.688 0.0853,-1.408001 0.21333,-2.773334 0.17067,-2.176 0.34133,-4.138667 0.128,-2.005333 0.128,-3.328 l 0.256,-0.597333 q 0.512,-0.298667 1.536,0.08533 1.024,0.384 2.048,1.194667 1.024,0.810667 1.74934,1.834667 0.768,1.024 0.72533,2.005333 -0.0427,0.384 -0.17067,1.152 -0.128,0.768 -0.34133,1.749333 l 0.0427,-0.04267 q -0.256,1.408 -0.59734,3.157333 -0.29866,1.706667 -0.512,3.413334 -0.17066,1.706666 -0.256,3.242666 -0.0427,1.493334 0.21334,2.389334 -0.0853,0.341333 -0.0427,0.341333 h 0.384 q 1.06667,-0.426667 1.87733,-1.365333 0.81067,-0.981334 1.408,-2.176 0.59734,-1.237334 1.06667,-2.602667 0.46933,-1.408 0.896,-2.730667 h -0.0427 q 0.0853,-0.213333 0.128,-0.426666 0.0853,-0.256 0.17067,-0.469334 0.0427,-0.597333 0.0853,-1.194667 0.0427,-0.64 0.128,-1.237333 0.256,-2.261333 0.42667,-4.309333 0.17067,-2.048 0.128,-3.413334 z"
       style="font-style:normal;font-variant:normal;font-weight:normal;font-stretch:normal;font-size:42.66666794px;line-height:1.25;font-family:'Run to the Hills Personal Use';-inkscape-font-specification:'Run to the Hills Personal Use';text-align:center;text-anchor:middle;fill:#18394c;fill-opacity:1"
       id="path2819" />
    <path
       d="m -218.33554,-70.875798 q -0.59734,1.450667 -1.45067,2.986667 -0.85333,1.493333 -2.00533,2.730667 -1.10934,1.237333 -2.56,2.005333 -1.408,0.768 -3.15734,0.682667 -1.024,-0.04267 -1.87733,-0.469334 -0.81067,-0.426666 -1.49333,-1.109333 -0.64,-0.725333 -1.10934,-1.621333 -0.42666,-0.896001 -0.64,-1.877334 -0.256,-1.408 -0.21333,-2.645333 0.0853,-1.237334 0.34133,-2.346667 0.29867,-1.109333 0.72534,-2.176 0.42666,-1.066667 0.93866,-2.176 l 0.55467,-1.194667 v 0.04267 l 0.64,-1.450667 q 0.21333,-0.469333 0.55467,-0.853333 0.384,-0.384 1.49333,-0.725334 -0.55467,0.128 -0.896,0.213334 -0.34133,0.04267 -0.59733,0.128 -0.46934,0.128 -0.98134,0.256 -0.512,0.128 -1.23733,0.08533 h -0.42667 q -0.59733,1.450667 -1.06666,2.858667 -0.46934,1.365333 -0.85334,2.602667 v -0.04267 q -0.0853,0.256 -0.55466,0.128 -0.46934,-0.128 -0.98134,-0.426667 -0.512,-0.341333 -0.896,-0.725333 -0.384,-0.426667 -0.256,-0.725333 l 0.0427,0.04267 q 0.59733,-1.621333 0.98133,-2.816 0.34134,-1.237333 0.64,-2.176 -0.59733,-0.725333 -0.85333,-1.706667 -0.29867,-1.322666 0,-2.346666 0.29867,-1.024 0.768,-2.389334 0.17067,-0.554666 0.29867,-1.237333 0.128,-0.682667 0.21333,-1.664 0.72533,0.341333 1.45067,0.725333 0.768,0.341333 1.408,0.853333 0.64,0.469334 1.10933,1.109334 0.512,0.64 0.68267,1.450667 0.0853,0.384 0.128,0.853333 0.0427,0.426667 -0.0427,1.024 l -1.024,1.92 q -0.128,0.256 0.21333,0.08533 0.384,-0.213333 0.98134,-0.682666 0.64,-0.469334 1.408,-1.109334 0.768,-0.64 1.45066,-1.28 0.72534,-0.64 1.28,-1.194666 0.55467,-0.554667 0.72534,-0.853334 0.256,0 0.72533,0.256 0.46933,0.256 0.98133,0.597334 0.512,0.298666 0.896,0.597333 0.384,0.256 0.46934,0.341333 0.64,0.725334 0.68266,1.749334 0.0853,0.981333 -0.256,2.176 -0.29866,1.194666 -0.896,2.56 -0.55466,1.322666 -1.23733,2.730667 -0.384,0.768 -0.81067,1.536 -0.384,0.768 -0.72533,1.578666 -0.256,0.597334 -0.59733,1.365334 -0.34134,0.768 -0.59734,1.578666 -0.256,0.768 -0.384,1.536 -0.128,0.768 0,1.28 0,0.256 0.512,0.256 0.46934,0.04267 1.06667,-0.298666 0.64,-0.384 1.28,-1.024 0.64,-0.682667 1.19467,-1.578667 0.59733,-0.896 0.98133,-1.962667 h -0.0427 q 0.55467,-1.365333 0.98134,-2.688 0.46933,-1.322666 0.68266,-2.261333 0.128,-0.213334 0.64,-0.04267 0.512,0.128 1.024,0.469334 0.512,0.341333 0.896,0.810666 0.384,0.426667 0.256,0.725334 v -0.08533 l -0.68266,2.133334 q -0.21334,0.853333 -0.42667,1.578666 -0.21333,0.725334 -0.42667,1.28 z"
       style="font-style:normal;font-variant:normal;font-weight:normal;font-stretch:normal;font-size:42.66666794px;line-height:1.25;font-family:'Run to the Hills Personal Use';-inkscape-font-specification:'Run to the Hills Personal Use';text-align:center;text-anchor:middle;fill:#18394c;fill-opacity:1"
       id="path2821" />
    <path
       d="m -201.11421,-72.369131 q -0.21333,1.237333 -0.256,2.474666 0,1.237334 0.21334,2.133334 0.128,0.341333 0,0.469333 h 0.42666 q 1.06667,-0.426667 1.87734,-1.408 0.81066,-0.981333 1.408,-2.218667 0.64,-1.28 1.10933,-2.688 0.46933,-1.450666 0.896,-2.773333 0.17067,-0.341333 0.21333,-0.597333 0.0853,-0.256 0.17067,-0.554667 0.0853,-0.213334 0.59733,-0.08533 0.512,0.08533 1.06667,0.384001 0.55467,0.298666 0.93867,0.725333 0.42666,0.384 0.29866,0.682667 l -0.55466,1.706666 v 0.04267 q -0.81067,2.517333 -1.792,4.992 -0.98134,2.432 -2.64534,4.394667 -0.256,0.341333 -0.68266,0.768 -0.384,0.384 -0.93867,0.725333 -0.55467,0.384 -1.28,0.597334 -0.68267,0.256 -1.57867,0.213333 -2.13333,-0.170667 -3.49866,-1.450667 -1.32267,-1.28 -1.87734,-3.2 -1.10933,1.792 -2.60266,3.114667 -1.45067,1.28 -3.24267,1.322667 -1.664,-0.170667 -2.944,-0.896 -1.23733,-0.768 -2.09067,-1.792 -0.896,-1.024001 -1.45066,-2.176001 -0.55467,-1.194666 -0.81067,-2.218666 -0.21333,-1.066667 -0.21333,-1.536 -0.17067,-1.578667 0.0427,-3.456 0.17067,-1.877334 0.768,-3.754667 0.59734,-1.877334 1.536,-3.626667 0.93867,-1.749333 2.21867,-3.114667 1.28,-1.365333 2.816,-2.176 1.57867,-0.810666 3.456,-0.810666 0.55467,0 1.10933,0.08533 0.55467,0.08533 1.19467,0.256 1.408,0.469333 2.34667,1.408 l 0.128,-0.554667 0.64,-2.474667 q 0.42666,-1.578666 0.72533,-3.285333 0.34133,-1.706667 0.55467,-3.328 0.21333,-1.664 0.29866,-3.157333 0.0853,-1.536005 0.0853,-2.773335 0.512,-0.34133 1.57866,0.0427 1.10934,0.34133 2.176,1.10933 1.06667,0.72533 1.83467,1.749335 0.81067,1.024 0.72533,1.962666 0,0.512 -0.21333,1.706667 -0.21333,1.194667 -0.55467,2.688 -0.29866,1.493333 -0.68266,3.157333 -0.384,1.621334 -0.72534,3.072001 l -0.55466,2.346666 0.0427,-0.04267 q -0.68266,2.688 -1.32266,5.589333 -0.59734,2.901334 -0.896,6.229334 z m -10.368,4.437333 q 0.55467,-0.170667 1.19467,-0.938667 0.64,-0.810666 1.28,-1.877333 0.64,-1.109333 1.19467,-2.304 0.55466,-1.237333 0.896,-2.218667 v -0.04267 l 0.128,-1.408 q 0.17066,-1.408001 0.42666,-2.816001 0.256,-1.450666 0.55467,-2.858666 -0.29867,-0.64 -0.768,-1.109334 -0.46933,-0.469333 -1.23733,-0.554666 -1.57867,-0.04267 -2.77334,1.152 -1.19466,1.152 -2.048,2.944 -0.81066,1.792 -1.23733,3.84 -0.42667,2.048 -0.46933,3.712 -0.0427,0.469333 0,1.194667 0.0853,0.682666 0.29866,1.365333 0.21334,0.981333 0.768,1.621333 0.55467,0.64 1.792,0.298667 z"
       style="font-style:normal;font-variant:normal;font-weight:normal;font-stretch:normal;font-size:42.66666794px;line-height:1.25;font-family:'Run to the Hills Personal Use';-inkscape-font-specification:'Run to the Hills Personal Use';text-align:center;text-anchor:middle;fill:#18394c;fill-opacity:1"
       id="path2823" />
    <path
       d="m -177.68087,-80.603798 q 0.0427,0.256 -0.21334,0.426666 -0.21333,0.128 -0.55466,0.213334 -0.34134,0.04267 -0.768,0.04267 -0.42667,0 -0.768,-0.128 0.72533,0.384 1.45066,0.896 0.768,0.512 1.36534,1.152 0.59733,0.597334 0.93866,1.237334 0.384,0.64 0.384,1.237333 -0.0853,0.298667 -0.17066,0.682667 -0.0427,0.341333 -0.0853,0.725333 -0.128,0.810667 -0.256,1.749334 -0.0853,0.938666 -0.17066,1.834666 -0.0427,0.896 -0.0427,1.706667 0,0.768 0.128,1.322667 0.0427,0.08533 -0.0427,0.128 -0.0427,0.04267 -0.0427,0.08533 h 0.29866 q 1.06667,-0.426667 1.87734,-1.408 0.81066,-0.981333 1.408,-2.218667 0.64,-1.28 1.10933,-2.688 0.46933,-1.450666 0.896,-2.773333 0.17067,-0.341333 0.21333,-0.597333 0.0853,-0.256 0.17067,-0.554667 0.0853,-0.213334 0.59733,-0.08533 0.512,0.08533 1.06667,0.384001 0.55467,0.298666 0.93867,0.725333 0.42666,0.384 0.29866,0.682667 l -0.55466,1.706666 v 0.04267 q -0.81067,2.517333 -1.792,4.992 -0.98134,2.432 -2.64534,4.394667 -0.256,0.341333 -0.68266,0.768 -0.384,0.384 -0.93867,0.725333 -0.55467,0.384 -1.28,0.597334 -0.68267,0.256 -1.57867,0.213333 -2.13333,-0.170667 -3.49866,-1.450667 -1.32267,-1.28 -1.87734,-3.2 -1.10933,1.792 -2.60266,3.114667 -1.45067,1.28 -3.24267,1.322667 -1.664,-0.170667 -2.944,-0.896 -1.23733,-0.768 -2.09067,-1.792 -0.896,-1.024001 -1.45066,-2.176001 -0.55467,-1.194666 -0.81067,-2.218666 -0.21333,-1.066667 -0.21333,-1.536 -0.17067,-1.578667 0.0427,-3.456 0.17067,-1.877334 0.768,-3.754667 0.59734,-1.877334 1.536,-3.626667 0.93867,-1.749333 2.21867,-3.114667 1.28,-1.365333 2.816,-2.176 1.57867,-0.810666 3.456,-0.810666 0.55467,0 1.10933,0.08533 0.55467,0.08533 1.19467,0.256 1.152,0.341333 2.00533,1.109333 0.85334,0.725334 1.45067,1.749334 0.59733,0.981333 0.98133,2.133333 0.384,1.109333 0.59734,2.218667 z m -4.992,0 q 0.34133,-0.213334 0.98133,-0.08533 0.64,0.128 1.36533,0.469334 -0.256,-0.213334 -0.34133,-0.469334 -0.0427,-0.128 -0.128,-0.298666 -0.0427,-0.170667 -0.0853,-0.341334 -0.128,-0.426666 -0.34134,-0.896 -0.17066,-0.469333 -0.46933,-0.853333 -0.29867,-0.426667 -0.68267,-0.682667 -0.384,-0.256 -0.93866,-0.298666 -1.57867,-0.04267 -2.77334,1.152 -1.19466,1.152 -2.048,2.944 -0.81066,1.792 -1.23733,3.84 -0.42667,2.048 -0.46933,3.712 -0.0427,0.469333 0,1.194667 0.0853,0.682666 0.29866,1.365333 0.21334,0.981333 0.768,1.621333 0.55467,0.64 1.792,0.298667 0.55467,-0.170667 1.19467,-0.981333 0.68267,-0.810667 1.32267,-1.92 0.64,-1.152 1.19466,-2.346667 0.55467,-1.237333 0.896,-2.218667 0.128,-1.28 0.17067,-2.474667 0.0427,-1.194666 -0.128,-2.048 z"
       style="font-style:normal;font-variant:normal;font-weight:normal;font-stretch:normal;font-size:42.66666794px;line-height:1.25;font-family:'Run to the Hills Personal Use';-inkscape-font-specification:'Run to the Hills Personal Use';text-align:center;text-anchor:middle;fill:#18394c;fill-opacity:1"
       id="path2825" />
    <path
       d="m -169.52221,-87.814465 q 0.512,-0.298667 1.536,0.08533 1.024,0.384 2.048,1.194667 1.024,0.810667 1.74934,1.834667 0.768,1.024 0.72533,2.005333 -0.0427,0.384 -0.17067,1.152 -0.128,0.768 -0.34133,1.749333 l 0.0427,-0.04267 q -0.256,1.408 -0.59734,3.157333 -0.29866,1.706667 -0.512,3.413334 -0.17066,1.706666 -0.256,3.242666 -0.0427,1.493334 0.21334,2.389334 -0.0853,0.341333 -0.0427,0.341333 h 0.384 q 1.06667,-0.426667 1.87733,-1.365333 0.81067,-0.981334 1.408,-2.176 0.59734,-1.237334 1.06667,-2.602667 0.46933,-1.408 0.896,-2.730667 h -0.0427 q 0.128,-0.426666 0.34134,-0.981333 0.21333,-2.346667 0.384,-4.992 0.21333,-2.688 0.29866,-5.504 0.512,-0.298667 1.57867,0.08533 1.06667,0.341333 2.13333,1.109333 1.06667,0.768 1.83467,1.792 0.81067,0.981334 0.768,1.962667 l -2.34667,16.853334 q -0.34133,2.389333 -0.68266,4.522667 -0.34134,2.133333 -0.768,4.053333 1.62133,0.896 3.2,1.877333 1.62133,1.024001 3.24266,2.090667 l -0.0427,-0.08533 q 0.21333,0.128 0.384,0.298667 0.21333,0.170666 0.42666,0.298666 0.85334,0.554667 0.55467,1.28 -0.256,0.725334 -1.024,1.322667 -0.768,0.64 -1.70667,0.938667 -0.93866,0.341333 -1.408,0.08533 l -2.13333,-1.450667 -2.944,-1.92 q -0.81067,1.962667 -1.87733,3.498667 -1.024,1.536 -2.47467,2.602667 -1.408,1.066666 -3.28533,1.621333 -1.83467,0.554667 -4.224,0.554667 -1.536,0 -3.072,-0.384 -1.57867,-0.341334 -2.944,-1.109334 -1.408,-0.768 -2.432,-2.005333 -1.024,-1.237333 -1.45067,-3.029333 -0.512,-2.261334 0,-4.224 0.512,-1.920001 1.83467,-3.370667 1.32266,-1.408 3.328,-2.218667 1.96266,-0.768 4.352,-0.768 1.32266,0 2.38933,0.08533 1.06667,0.128 2.00533,0.298667 0.93867,0.213333 1.792,0.469333 0.896,0.298667 1.87734,0.64 0.256,-1.365333 0.512,-2.730666 0.256,-1.322667 0.46933,-2.773334 l -0.512,0.682667 q -0.256,0.341333 -0.68267,0.768 -0.42666,0.384 -1.024,0.725333 -0.55466,0.341334 -1.28,0.554667 -0.68266,0.256 -1.536,0.256 -1.87733,-0.08533 -3.072,-1.578667 -1.152,-1.493333 -1.70666,-3.626667 -0.128,-0.469333 -0.21334,-1.024 -0.128,-0.554666 -0.128,-1.024 -0.0853,-0.938666 -0.0427,-2.133333 0.0427,-1.237333 0.17066,-2.517333 0.0853,-1.322667 0.21334,-2.688 0.0853,-1.408001 0.21333,-2.773334 0.17067,-2.176 0.34133,-4.138667 0.128,-2.005333 0.128,-3.328 z m -1.28,40.149334 q 1.408,0 2.56,-0.554666 1.19467,-0.554667 2.13334,-1.578667 0.98133,-1.024 1.74933,-2.432 0.768,-1.408 1.36533,-3.114667 -1.28,-0.469333 -2.64533,-0.725333 -1.32267,-0.256 -2.85867,-0.298667 -1.408,0 -2.90133,0.298667 -1.536,0.341333 -2.688,1.024 -1.152,0.682667 -1.74933,1.706667 -0.64,1.024 -0.256,2.432 0.21333,0.981333 0.81066,1.578666 0.59734,0.64 1.36534,0.981334 0.72533,0.384 1.57866,0.512 0.81067,0.170666 1.536,0.170666 z"
       style="font-style:normal;font-variant:normal;font-weight:normal;font-stretch:normal;font-size:42.66666794px;line-height:1.25;font-family:'Run to the Hills Personal Use';-inkscape-font-specification:'Run to the Hills Personal Use';text-align:center;text-anchor:middle;fill:#18394c;fill-opacity:1"
       id="path2827" />
    <path
       d="m -299.49859,-0.46862526 q 0.096,-0.096 0.432,-0.096 0.336,0 0.624,0.336 0.288,0.336 0.48,0.864 0.192,0.52799996 0.288,1.15199996 0.144,0.672 0.144,1.248 0,1.104 -0.624,1.728 -0.576,0.672 -1.392,1.008 -0.816,0.336 -1.728,0.432 -0.912,0.096 -1.536,0.096 -2.016,0 -3.888,-0.96 -1.872,-0.912 -3.648,-2.448 -1.728,-1.488 -3.36,-3.40799996 -1.632,-1.87200004 -3.168,-3.74400004 -1.104,-1.392 -2.112,-2.592 -1.008,-1.2 -2.112,-2.304 -2.736,1.872 -5.328,2.88 -2.544,1.008 -4.32,1.008 -1.344,0 -2.208,-0.336 -0.864,-0.384 -1.392,-0.912 -0.528,-0.576 -0.768,-1.248 -0.192,-0.72 -0.192,-1.44 0,-0.768 0.432,-1.8239997 0.432,-1.056 1.344,-1.968 0.96,-0.96 2.448,-1.632 1.536,-0.72 3.648,-0.816 1.776,0 3.648,0.768 1.44,-1.584 2.64,-3.456 1.2,-1.872 2.016,-3.792 0.864,-1.92 1.296,-3.84 0.48,-1.92 0.48,-3.648 0,-1.248 -0.192,-2.304 -0.144,-1.104 -0.576,-1.92 -0.384,-0.816 -1.056,-1.296 -0.624,-0.48 -1.584,-0.48 -0.912,0 -2.352,0.528 -0.384,0.144 -0.576,0.144 -0.576,0 -0.96,-0.336 -0.384,-0.384 -0.384,-1.008 0,-0.72 0.912,-1.248 0.912,-0.528 2.112,-0.816 1.2,-0.336 2.352,-0.48 1.2,-0.192 1.728,-0.192 1.968,0 3.504,0.672 1.536,0.672 2.592,1.872 1.056,1.2 1.584,2.928 0.576,1.728 0.576,3.792 0,2.256 -0.624,4.704 -0.576,2.448 -1.728,4.896 -1.152,2.448 -2.88,4.8 -1.68,2.304 -3.888,4.224 0.912,1.0079997 1.776,2.0639997 0.912,1.056 1.728,2.064 1.248,1.536 2.448,2.928 1.248,1.44 2.544,2.496 1.296,1.10400004 2.688,1.77600004 1.392,0.67199996 2.928,0.67199996 2.256,0 5.184,-1.53599996 z m -31.488,-10.99199974 q -0.576,0.384 -1.008,1.056 -0.384,0.6719997 -0.384,1.1999997 0,0.672 0.672,0.672 0.576,0 1.344,-0.336 0.816,-0.384 1.632,-0.912 0.816,-0.5759997 1.584,-1.2479997 0.768,-0.72 1.296,-1.392 -0.72,-0.24 -1.392,-0.24 -1.104,0 -2.112,0.384 -1.008,0.384 -1.632,0.816 z"
       style="font-style:normal;font-variant:normal;font-weight:normal;font-stretch:normal;font-size:48px;line-height:1.25;font-family:'Back to Black Bold Demo';-inkscape-font-specification:'Back to Black Bold Demo';fill:#18394c;fill-opacity:1"
       id="path2829" />
    <path
       d="m -296.12584,-5.4126253 q -2.448,-0.048 -4.224,-0.864 -1.776,-0.816 -2.88,-2.16 -1.104,-1.392 -1.632,-3.1679997 -0.528,-1.824 -0.528,-3.888 0,-2.688 0.816,-5.568 0.432,-1.488 1.152,-3.36 0.768,-1.92 1.872,-3.84 1.104,-1.968 2.496,-3.84 1.44,-1.92 3.216,-3.36 1.824,-1.488 3.936,-2.352 2.16,-0.912 4.656,-0.912 1.68,0 2.976,0.768 1.344,0.768 2.208,2.112 0.912,1.344 1.392,3.168 0.48,1.824 0.48,3.984 0,4.032 -1.344,8.16 -1.296,4.128 -3.504,7.488 -2.208,3.3599997 -5.088,5.5199997 -2.88,2.112 -6,2.112 z m 0.432,-2.784 q 0.48,0.096 0.624,0.096 1.392,0 2.784,-0.864 1.44,-0.912 2.784,-2.3999997 1.344,-1.536 2.496,-3.552 1.2,-2.016 2.064,-4.272 0.864,-2.256 1.344,-4.608 0.528,-2.4 0.528,-4.608 0,-1.44 -0.24,-2.736 -0.192,-1.344 -0.672,-2.4 -0.432,-1.056 -1.2,-1.68 -0.72,-0.624 -1.728,-0.624 -1.344,0 -2.736,1.104 -1.392,1.104 -2.688,2.976 -1.248,1.824 -2.352,4.176 -1.104,2.352 -1.92,4.848 -0.816,2.496 -1.296,4.944 -0.48,2.448 -0.48,4.464 0,2.112 0.624,3.5039997 0.624,1.392 2.064,1.632 z"
       style="font-style:normal;font-variant:normal;font-weight:normal;font-stretch:normal;font-size:48px;line-height:1.25;font-family:'Back to Black Bold Demo';-inkscape-font-specification:'Back to Black Bold Demo';fill:#18394c;fill-opacity:1"
       id="path2831" />
    <path
       d="m -279.8657,-37.074493 q -0.44374,0.1664 -0.80427,0 -0.38827,-0.1664 -0.5824,-0.471467 -0.22187,-0.3328 -0.19413,-0.721066 0,-0.388267 0.36053,-0.693334 1.60853,-1.386666 3.4112,-2.357333 0.3328,-1.774933 0.4992,-3.328 0.19413,-1.553067 0.1664,-2.856533 0.36053,-0.221867 1.02613,0.02773 0.69334,0.221867 1.38667,0.721067 0.69333,0.4992 1.19253,1.1648 0.52694,0.637866 0.52694,1.248 -0.0277,0.221866 -0.0832,0.610133 -0.0555,0.360533 -0.13867,0.832 0.85973,-0.1664 1.71947,-0.2496 0.88746,-0.110933 1.80266,-0.110933 0.27734,0 0.72107,0.02773 0.44373,0 0.7488,0.02773 0.22187,0.416 0.2496,0.9152 0.0555,0.471467 -0.0555,0.9152 -0.0832,0.416 -0.3328,0.721067 -0.22186,0.305067 -0.55466,0.305067 -0.27734,-0.02773 -0.5824,-0.02773 -0.30507,-0.02773 -0.61014,-0.02773 -0.97066,0 -1.88586,0.110933 -0.9152,0.110934 -1.8304,0.3328 l -0.55467,2.523734 -0.0832,0.360533 q -0.13867,0.526933 -0.36053,1.442133 -0.19414,0.9152 -0.416,2.052267 -0.22187,1.109333 -0.44374,2.357333 -0.22186,1.220267 -0.36053,2.385067 -0.13867,1.137067 -0.1664,2.107733 -0.0277,0.970667 0.13867,1.553067 -0.0277,0.0832 -0.0277,0.138667 0.0277,0.05547 0.0277,0.0832 h 0.19413 q 0.69333,-0.277334 1.22027,-0.887467 0.52693,-0.637867 0.9152,-1.4144 0.38826,-0.804267 0.69333,-1.691733 0.30507,-0.9152 0.5824,-1.774934 h -0.0277 q 0.0555,-0.2496 0.13866,-0.471466 0.11094,-0.2496 0.19414,-0.471467 0.0277,-0.1664 0.3328,-0.0832 0.3328,0.0832 0.6656,0.277333 0.3328,0.194134 0.5824,0.471467 0.27733,0.2496 0.2496,0.443733 l -0.416,1.248 q -0.47147,1.5808 -1.1648,3.217067 -0.6656,1.608533 -1.63627,2.8288 -0.1664,0.221867 -0.44373,0.4992 -0.27734,0.2496 -0.6656,0.471467 -0.36054,0.221867 -0.832,0.360533 -0.44374,0.1664 -0.9984,0.1664 -1.248,-0.05547 -1.9968,-1.026133 -0.7488,-0.970667 -1.10934,-2.385067 -0.11093,-0.305067 -0.13866,-0.637867 -0.0555,-0.360533 -0.0555,-0.637866 -0.2496,-2.856534 0.19413,-5.629867 0.416,-2.773333 1.02614,-5.408 0.0555,-0.138667 0.0555,-0.277333 0.0277,-0.138667 0.0555,-0.277334 l -1.44213,0.942934 z"
       style="font-size:64.99999762%;line-height:1.25;baseline-shift:super;fill:#18394c;fill-opacity:1"
       id="path2833" />
    <path
       d="m -256.88777,-27.867026 q -0.2496,0.721066 -0.69333,1.7472 -0.44374,1.026133 -1.0816,1.9968 -0.61014,0.970667 -1.4144,1.664 -0.77654,0.6656 -1.71947,0.6656 -0.5824,0 -1.19253,-0.221867 -0.61014,-0.194133 -1.13707,-0.637866 -0.52693,-0.443734 -0.94293,-1.137067 -0.38827,-0.721067 -0.5824,-1.691734 -0.13867,-0.832 -0.1664,-1.636266 -0.0277,-0.804267 0.0277,-1.691734 0.0555,-0.887466 0.19413,-1.9136 0.13867,-1.053866 0.3328,-2.357333 0.27734,-1.137067 0.0832,-1.8304 l -0.88746,1.137067 q -0.72107,0.887466 -1.30347,1.802666 -0.55467,0.887467 -1.0816,1.941334 -0.27733,1.8304 -0.36053,3.688533 -0.0832,1.858133 0.19413,3.771734 0.0277,0.305066 -0.47147,0.277333 -0.47146,-0.02773 -1.0816,-0.2496 -0.5824,-0.2496 -1.13706,-0.610133 -0.55467,-0.360534 -0.6656,-0.721067 -0.3328,-1.691734 -0.3328,-3.4112 0,-1.719467 0.19413,-3.438934 0.19413,-1.719466 0.52693,-3.438933 0.3328,-1.719467 0.6656,-3.4112 l 0.36054,-1.774933 q 0.19413,-1.053867 0.38826,-2.135467 0.19414,-1.109333 0.3328,-2.1632 0.13867,-1.053867 0.22187,-2.024533 0.0832,-0.9984 0.0832,-1.8304 0.36053,-0.221867 1.02613,0.02773 0.69334,0.221867 1.38667,0.721067 0.69333,0.4992 1.19253,1.1648 0.52694,0.637866 0.52694,1.248 -0.0277,0.416 -0.1664,1.192533 -0.13867,0.776533 -0.3328,1.7472 -0.19414,0.942933 -0.44374,1.9968 -0.22186,1.026133 -0.44373,1.969067 l -0.19413,0.721066 q 0.6656,-0.6656 1.44213,-1.109333 0.80427,-0.443733 1.71947,-0.526933 0.36053,0 0.88746,0.360533 0.52694,0.3328 0.9984,0.832 0.47147,0.4992 0.77654,1.0816 0.3328,0.5824 0.3328,1.026133 -0.13867,1.4144 -0.36054,2.6624 -0.19413,1.220267 -0.3328,2.107734 -0.13866,0.776533 -0.2496,1.442133 -0.0832,0.637867 -0.13866,1.275733 -0.0277,0.637867 0,1.303467 0.0277,0.6656 0.1664,1.442133 0,-0.05547 0.11093,-0.1664 h -0.0277 q 0.6656,-0.416 1.46986,-1.4144 0.832,-0.9984 1.46987,-2.717866 0.19413,-0.443734 0.3328,-0.859734 0.13867,-0.416 0.27733,-0.832 l 0.22187,-0.804266 q 0.0555,-0.138667 0.38827,-0.05547 0.3328,0.05547 0.6656,0.2496 0.36053,0.194133 0.61013,0.471467 0.2496,0.2496 0.1664,0.443733 v -0.05547 l -0.80427,2.6624 z"
       style="font-size:64.99999762%;line-height:1.25;baseline-shift:super;fill:#18394c;fill-opacity:1"
       id="path2835" />
    <path
       d="m -228.32983,-21.236626 q -0.42667,1.066667 -1.152,1.237334 -0.72534,0.170666 -1.536,-0.213334 -0.81067,-0.426666 -1.62134,-1.28 -0.768,-0.853333 -1.36533,-1.834666 -0.59733,-0.981334 -0.85333,-1.920001 -0.256,-0.981333 0,-1.664 0.42666,-3.029333 1.62133,-5.802666 1.23733,-2.816 2.944,-5.290667 1.74933,-2.474667 3.84,-4.608 2.13333,-2.133334 4.30933,-3.797334 2.176,-1.664 4.26667,-2.816 2.13333,-1.194667 3.88267,-1.792 0.768,-0.298667 1.57866,-0.298667 1.28,0 2.34667,0.597334 1.06667,0.554666 1.83467,1.493333 0.768,0.938667 1.19466,2.133333 0.46934,1.152001 0.55467,2.346667 v -0.04267 q 0.29867,3.370666 0.21333,7.466666 -0.0427,4.053334 -0.512,8.490667 -0.46933,4.437334 -1.32266,9.088001 -0.81067,4.608 -2.048,9.088 -1.19467,4.4373334 -2.816,8.5333335 -1.57867,4.0960001 -3.54134,7.5093336 -1.96266,3.4133334 -4.352,5.9306669 -2.34666,2.517333 -5.07733,3.797333 -0.81067,0.341334 -2.09067,0.554667 -1.28,0.256 -2.47466,0.341333 -3.28534,0.213334 -5.97334,-0.896 -2.64533,-1.109333 -4.65066,-3.029333 -1.96267,-1.877333 -3.28534,-4.3520002 -1.28,-2.4320001 -1.92,-4.9493335 -0.85333,-3.75466676 -0.55467,-7.4666669 0.34134,-3.7120001 1.87734,-6.6560004 1.57866,-2.986667 4.352,-4.821333 2.816,-1.834667 6.912,-1.834667 1.32267,0 2.73067,0.341333 1.408,0.341334 2.64533,1.066667 1.23733,0.725333 2.176,1.834667 0.93867,1.109333 1.36533,2.602667 0.0853,0.469333 -0.128,1.365333 -0.17066,0.8959999 -0.512,1.664 -0.34133,0.7253333 -0.81066,1.0666667 -0.42667,0.3413333 -0.85334,-0.3413334 -0.29866,-0.9813333 -0.896,-1.7066663 -0.59733,-0.768 -1.32266,-1.237334 -0.72534,-0.512 -1.57867,-0.768 -0.85333,-0.256 -1.664,-0.256 -2.944,0 -5.20533,1.322667 -2.26134,1.3226666 -3.66934,3.4986667 -1.408,2.1333334 -1.87733,4.8213335 -0.46934,2.68800003 0.128,5.3760001 0.42666,1.6640001 1.408,3.3280001 0.98133,1.6640001 2.47467,2.9866668 1.49333,1.3653338 3.456,2.1759998 2.00533,0.853334 4.39466,0.853334 2.56,-0.341334 4.736,-2.2613338 2.176,-1.9200001 3.968,-4.9920002 1.792,-3.0293334 3.24267,-7.0400002 1.45067,-3.9680001 2.56,-8.4053338 1.10933,-4.48 1.87733,-9.173333 0.81067,-4.736 1.28,-9.258667 0.512,-4.522667 0.72534,-8.618667 0.256,-4.138667 0.21333,-7.381334 v -0.597333 q -1.36533,0.768 -3.15733,2.346667 -1.74934,1.578666 -3.584,3.669333 -1.83467,2.090667 -3.584,4.565334 -1.70667,2.432 -2.98667,4.906666 -1.23733,2.474667 -1.87733,4.821334 -0.59734,2.346667 -0.21334,4.224 z"
       style="font-style:normal;font-variant:normal;font-weight:normal;font-stretch:normal;font-size:42.66666794px;line-height:1.25;font-family:'Run to the Hills Personal Use';-inkscape-font-specification:'Run to the Hills Personal Use';text-align:center;text-anchor:middle;fill:#18394c;fill-opacity:1"
       id="path2837" />
    <path
       d="m -193.64983,-29.769959 q 0.55466,-0.298667 1.57866,0.08533 1.024,0.384 2.048,1.194667 1.024,0.810666 1.74934,1.834666 0.768,1.024 0.72533,2.005334 -0.0427,0.341333 -0.17067,1.066667 -0.128,0.725333 -0.29866,1.621333 l 0.0427,-0.08533 q -0.256,1.408 -0.59733,3.2 -0.29867,1.792 -0.512,3.541333 -0.21333,1.749333 -0.29867,3.285334 -0.0427,1.493333 0.17067,2.4319996 -0.0853,0.3413334 -0.0427,0.3413334 h 0.42667 q 1.06667,-0.4266667 1.87733,-1.408 0.81067,-0.981333 1.408,-2.261333 0.64,-1.280001 1.10934,-2.688001 0.512,-1.450666 0.896,-2.773333 l 0.384,-1.237333 q 0.17066,-0.554667 0.68266,-0.597334 0.55467,-0.04267 1.06667,0.298667 0.55467,0.298667 0.896,0.896 0.34133,0.597333 0.17067,1.365333 l -0.55467,1.621334 q -0.768,2.432 -1.792,4.949333 -0.98133,2.5173336 -2.56,4.4373337 -0.256,0.3413333 -0.68267,0.768 -0.42666,0.384 -1.024,0.7253334 -0.55466,0.3413333 -1.28,0.5546667 -0.68266,0.256 -1.536,0.256 -1.92,-0.085333 -3.15733,-1.5786667 -1.23733,-1.4933334 -1.74933,-3.6693335 0,-0.042667 -0.0427,-0.042667 0,0 0,-0.042667 -0.85333,1.7066667 -1.92,3.0293334 -0.256,0.3413333 -0.68267,0.768 -0.42666,0.384 -1.024,0.7253334 -0.55466,0.3413333 -1.28,0.5546667 -0.68267,0.256 -1.536,0.256 -1.87733,-0.085333 -3.02933,-1.5786667 -1.19467,-1.4933334 -1.74934,-3.6266668 -0.0853,-0.4693333 -0.21333,-1.0240003 -0.128,-0.554666 -0.128,-1.024 -0.0853,-0.938666 -0.0427,-2.133333 0.0427,-1.237334 0.17067,-2.517334 0.0853,-1.322666 0.21333,-2.688 0.0853,-1.408 0.21334,-2.773333 0.17066,-2.176 0.34133,-4.138667 0.128,-2.005333 0.128,-3.328 l 0.256,-0.597333 q 0.512,-0.298667 1.536,0.08533 1.024,0.384 2.048,1.194667 1.024,0.810666 1.74933,1.834666 0.76801,1.024 0.72534,2.005334 -0.0427,0.384 -0.17067,1.152 -0.128,0.768 -0.34133,1.749333 l 0.0427,-0.04267 q -0.256,1.408 -0.59733,3.157333 -0.29867,1.706667 -0.512,3.413333 -0.17067,1.706667 -0.256,3.242667 -0.0427,1.493334 0.21333,2.3893336 -0.0853,0.3413334 -0.0427,0.3413334 h 0.384 q 1.06667,-0.4266667 1.87733,-1.365333 0.81067,-0.981334 1.408,-2.176 0.59734,-1.237334 1.06667,-2.602667 0.46933,-1.408 0.896,-2.730667 h -0.0427 q 0.0853,-0.213333 0.128,-0.426667 0.0853,-0.256 0.17067,-0.469333 0.0427,-0.597333 0.0853,-1.194667 0.0427,-0.64 0.128,-1.237333 0.256,-2.261333 0.42667,-4.309334 0.17067,-2.048 0.128,-3.413333 z"
       style="font-style:normal;font-variant:normal;font-weight:normal;font-stretch:normal;font-size:42.66666794px;line-height:1.25;font-family:'Run to the Hills Personal Use';-inkscape-font-specification:'Run to the Hills Personal Use';text-align:center;text-anchor:middle;fill:#18394c;fill-opacity:1"
       id="path2839" />
    <path
       d="m -159.8065,-13.727292 q -0.384,1.109333 -1.06667,2.688 -0.68266,1.5786666 -1.664,3.072 -0.93866,1.4933334 -2.176,2.5600001 -1.19466,1.024 -2.64533,1.024 -0.896,0 -1.83467,-0.3413333 -0.93866,-0.2986667 -1.74933,-0.9813334 -0.81067,-0.6826667 -1.45067,-1.7493334 -0.59733,-1.1093334 -0.896,-2.602667 -0.21333,-1.28 -0.256,-2.517333 -0.0427,-1.237334 0.0427,-2.602667 0.0853,-1.365333 0.29867,-2.944 0.21333,-1.621333 0.512,-3.626667 0.42666,-1.749333 0.128,-2.816 l -1.36534,1.749334 q -1.19466,1.450666 -2.09066,2.901333 -0.89601,1.450667 -1.74934,3.242667 -0.42667,2.688 -0.512,5.461333 -0.0427,2.7733337 0.42667,5.6320004 0.0427,0.4693333 -0.72534,0.4266667 -0.72533,-0.042667 -1.664,-0.384 -0.896,-0.384 -1.74933,-0.9386667 -0.85333,-0.5546667 -1.024,-1.1093334 -0.384,-1.92 -0.46933,-3.712 -0.128,-1.834667 -0.0427,-3.584 0.0427,-1.792 0.21333,-3.498667 0.17067,-1.749333 0.34134,-3.498667 0.21333,-2.048 0.384,-3.968 0.17066,-1.962667 0.256,-3.754667 0.384,-0.256 1.19466,0 0.81067,0.213334 1.70667,0.725334 0.896,0.512 1.70667,1.28 0.85333,0.725333 1.28,1.536 1.23733,-1.536 2.688,-2.602667 1.49333,-1.066667 3.28533,-1.194667 0.55467,0 1.36534,0.554667 0.81066,0.512 1.536,1.28 0.72533,0.768 1.19466,1.664 0.512,0.896 0.512,1.578667 -0.21333,2.176 -0.55466,4.096 -0.29867,1.877333 -0.512,3.242667 -0.21334,1.194666 -0.384,2.218666 -0.128,0.981334 -0.21334,1.962667 -0.0427,0.981334 0,2.005334 0.0427,1.024 0.256,2.2186663 0,-0.085333 0.17067,-0.256 h -0.0427 q 1.024,-0.64 2.26134,-2.1760003 1.28,-1.536 2.26133,-4.181333 0.29867,-0.682667 0.512,-1.322667 0.21333,-0.64 0.42667,-1.28 l 0.34133,-1.237333 q 0.0853,-0.213334 0.59733,-0.08533 0.512,0.08533 1.024,0.384 0.55467,0.298667 0.93867,0.725334 0.384,0.384 0.256,0.682666 v -0.08533 l -1.23733,4.096 z"
       style="font-style:normal;font-variant:normal;font-weight:normal;font-stretch:normal;font-size:42.66666794px;line-height:1.25;font-family:'Run to the Hills Personal Use';-inkscape-font-specification:'Run to the Hills Personal Use';text-align:center;text-anchor:middle;fill:#18394c;fill-opacity:1"
       id="path2841" />
    <path
       d="m -146.12251,-22.175292 q -1.024,3.84 -3.456,6.4 -2.432,2.56 -5.888,3.797333 0.34134,1.152 1.024,2.1760003 0.68267,1.024 1.74934,1.2373333 l -0.0853,-0.042667 q 0.896,0.2133333 1.92,-0.128 1.024,-0.3413334 2.048,-1.1946667 1.024,-0.8960003 2.00534,-2.3040003 0.98133,-1.408 1.74933,-3.328 0.384,-1.024 0.68267,-2.090667 0.34133,-1.109333 0.59733,-2.090666 0.256,-0.554667 0.81067,-0.597334 0.59733,-0.04267 1.10933,0.298667 0.55467,0.298667 0.85333,0.896 0.34134,0.554667 0.128,1.28 l -0.42666,1.536 q -0.59734,1.92 -1.62134,4.266667 -0.98133,2.3039999 -2.60266,4.48 -0.98134,1.1946667 -2.09067,1.8773334 -1.06667,0.64 -2.09067,0.9386667 -1.024,0.3413333 -1.92,0.384 -0.85333,0.085333 -1.36533,0.085333 -3.328,0 -5.58933,-1.92 -2.21867,-1.9200001 -3.11467,-5.2480004 -0.81067,-2.901333 -0.42667,-5.674667 0.34134,-2.773333 1.70667,-6.016 0.46933,-1.066666 1.36533,-2.261333 0.93867,-1.237334 2.176,-2.261334 1.28,-1.024 2.816,-1.664 1.536,-0.64 3.24267,-0.597333 1.74933,0.04267 3.11467,1.194667 1.36533,1.109333 1.792,3.029333 0.384,1.706667 -0.21334,3.584 z m -3.62666,-3.498667 q -1.408,0.298666 -2.47467,1.365333 -1.024,1.066667 -1.792,2.517334 -0.72533,1.450666 -1.19467,3.114666 -0.42666,1.621334 -0.55466,3.072 2.51733,-1.237333 4.26666,-3.328 1.74934,-2.133333 2.38934,-5.077333 v 0.04267 q 0.128,-0.341334 0.0853,-0.682667 0,-0.341334 -0.0427,-0.597334 -0.17066,-0.597333 -0.68266,-0.426666 z"
       style="font-style:normal;font-variant:normal;font-weight:normal;font-stretch:normal;font-size:42.66666794px;line-height:1.25;font-family:'Run to the Hills Personal Use';-inkscape-font-specification:'Run to the Hills Personal Use';text-align:center;text-anchor:middle;fill:#18394c;fill-opacity:1"
       id="path2843" />
    <path
       d="m -259.64963,59.531375 q 0.096,-0.096 0.43201,-0.096 0.336,0 0.624,0.336 0.28799,0.336 0.47999,0.864 0.19201,0.528 0.28801,1.152 0.144,0.672 0.144,1.248 0,1.104 -0.62401,1.728 -0.57599,0.672 -1.392,1.008 -0.81599,0.336 -1.728,0.432 -0.91199,0.096 -1.536,0.096 -2.01599,0 -3.88799,-0.96 -1.87201,-0.912 -3.648,-2.448 -1.728,-1.488 -3.36,-3.408 -1.632,-1.872 -3.168,-3.744 -1.104,-1.392 -2.11201,-2.592 -1.00799,-1.2 -2.11199,-2.304 -2.73601,1.872 -5.328,2.88 -2.544,1.008 -4.32,1.008 -1.344,0 -2.208,-0.336 -0.864,-0.384 -1.39201,-0.912 -0.52799,-0.576 -0.76799,-1.248 -0.192,-0.72 -0.192,-1.44 0,-0.768 0.432,-1.824 0.432,-1.056 1.344,-1.968 0.95999,-0.96 2.44799,-1.632 1.536,-0.72 3.64801,-0.816 1.776,0 3.64799,0.768 1.44001,-1.584 2.64001,-3.456 1.2,-1.872 2.01599,-3.792 0.86401,-1.92 1.296,-3.84 0.48001,-1.92 0.48001,-3.648 0,-1.248 -0.19201,-2.304 -0.144,-1.104 -0.57599,-1.92 -0.384,-0.816 -1.05601,-1.296 -0.62399,-0.48 -1.584,-0.48 -0.91199,0 -2.35199,0.528 -0.38401,0.144 -0.57601,0.144 -0.57599,0 -0.95999,-0.336 -0.38401,-0.384 -0.38401,-1.008 0,-0.72 0.91201,-1.248 0.912,-0.528 2.11199,-0.816 1.2,-0.336 2.35201,-0.48 1.2,-0.192 1.72799,-0.192 1.968,0 3.50401,0.672 1.536,0.672 2.59199,1.872 1.05601,1.2 1.584,2.928 0.57601,1.728 0.57601,3.792 0,2.256 -0.624,4.704 -0.576,2.448 -1.728,4.896 -1.15201,2.448 -2.88001,4.8 -1.67999,2.304 -3.88799,4.224 0.91199,1.008 1.776,2.064 0.91199,1.056 1.728,2.064 1.248,1.536 2.448,2.928 1.24799,1.44 2.544,2.496 1.296,1.104 2.688,1.776 1.392,0.672 2.928,0.672 2.256,0 5.18399,-1.536 z m -31.488,-10.992 q -0.57599,0.384 -1.00799,1.056 -0.384,0.672 -0.384,1.2 0,0.672 0.672,0.672 0.57599,0 1.344,-0.336 0.81599,-0.384 1.632,-0.912 0.816,-0.576 1.584,-1.248 0.768,-0.72 1.296,-1.392 -0.72001,-0.24 -1.392,-0.24 -1.104,0 -2.112,0.384 -1.008,0.384 -1.63201,0.816 z"
       style="font-style:normal;font-variant:normal;font-weight:normal;font-stretch:normal;font-size:48px;line-height:1.25;font-family:'Back to Black Bold Demo';-inkscape-font-specification:'Back to Black Bold Demo';text-align:center;text-anchor:middle;fill:#18394c;fill-opacity:1"
       id="path2845" />
    <path
       d="m -256.27688,54.587375 q -2.44799,-0.048 -4.22399,-0.864 -1.77601,-0.816 -2.88,-2.16 -1.104,-1.392 -1.632,-3.168 -0.52801,-1.824 -0.52801,-3.888 0,-2.688 0.81601,-5.568 0.432,-1.488 1.152,-3.36 0.768,-1.92 1.872,-3.84 1.104,-1.968 2.49599,-3.84 1.44,-1.92 3.21601,-3.36 1.824,-1.488 3.936,-2.352 2.16,-0.912 4.656,-0.912 1.68,0 2.976,0.768 1.344,0.768 2.208,2.112 0.912,1.344 1.392,3.168 0.48,1.824 0.48,3.984 0,4.032 -1.344,8.16 -1.296,4.128 -3.504,7.488 -2.208,3.36 -5.088,5.52 -2.88001,2.112 -6.00001,2.112 z m 0.43201,-2.784 q 0.48,0.096 0.624,0.096 1.392,0 2.784,-0.864 1.44,-0.912 2.784,-2.4 1.344,-1.536 2.49599,-3.552 1.20001,-2.016 2.06401,-4.272 0.86399,-2.256 1.344,-4.608 0.528,-2.4 0.528,-4.608 0,-1.44 -0.24,-2.736 -0.192,-1.344 -0.67201,-2.4 -0.43199,-1.056 -1.19999,-1.68 -0.72,-0.624 -1.728,-0.624 -1.344,0 -2.736,1.104 -1.392,1.104 -2.688,2.976 -1.248,1.824 -2.352,4.176 -1.104,2.352 -1.92,4.848 -0.816,2.496 -1.296,4.944 -0.48,2.448 -0.48,4.464 0,2.112 0.62399,3.504 0.62401,1.392 2.06401,1.632 z"
       style="font-style:normal;font-variant:normal;font-weight:normal;font-stretch:normal;font-size:48px;line-height:1.25;font-family:'Back to Black Bold Demo';-inkscape-font-specification:'Back to Black Bold Demo';text-align:center;text-anchor:middle;fill:#18394c;fill-opacity:1"
       id="path2847" />
    <path
       d="m -202.93088,59.531375 q 0.096,-0.096 0.43201,-0.096 0.336,0 0.624,0.336 0.288,0.336 0.47999,0.864 0.19201,0.528 0.28801,1.152 0.144,0.672 0.144,1.248 0,1.104 -0.624,1.728 -0.576,0.672 -1.39201,1.008 -0.81599,0.336 -1.72799,0.432 -0.912,0.096 -1.536,0.096 -2.016,0 -3.888,-0.96 -1.872,-0.912 -3.648,-2.448 -1.728,-1.488 -3.36,-3.408 -1.632,-1.872 -3.168,-3.744 -1.104,-1.392 -2.11201,-2.592 -1.00799,-1.2 -2.11199,-2.304 -2.736,1.872 -5.328,2.88 -2.544,1.008 -4.32,1.008 -1.344,0 -2.208,-0.336 -0.864,-0.384 -1.392,-0.912 -0.528,-0.576 -0.768,-1.248 -0.192,-0.72 -0.192,-1.44 0,-0.768 0.432,-1.824 0.432,-1.056 1.344,-1.968 0.96,-0.96 2.448,-1.632 1.536,-0.72 3.648,-0.816 1.776,0 3.648,0.768 1.44,-1.584 2.64,-3.456 1.2,-1.872 2.016,-3.792 0.864,-1.92 1.296,-3.84 0.48,-1.92 0.48,-3.648 0,-1.248 -0.19201,-2.304 -0.14399,-1.104 -0.57599,-1.92 -0.384,-0.816 -1.056,-1.296 -0.624,-0.48 -1.584,-0.48 -0.912,0 -2.352,0.528 -0.38401,0.144 -0.576,0.144 -0.576,0 -0.96,-0.336 -0.384,-0.384 -0.384,-1.008 0,-0.72 0.912,-1.248 0.912,-0.528 2.112,-0.816 1.2,-0.336 2.352,-0.48 1.2,-0.192 1.728,-0.192 1.96799,0 3.504,0.672 1.536,0.672 2.592,1.872 1.056,1.2 1.584,2.928 0.576,1.728 0.576,3.792 0,2.256 -0.624,4.704 -0.576,2.448 -1.728,4.896 -1.152,2.448 -2.88,4.8 -1.68,2.304 -3.888,4.224 0.912,1.008 1.776,2.064 0.912,1.056 1.728,2.064 1.248,1.536 2.448,2.928 1.248,1.44 2.544,2.496 1.296,1.104 2.688,1.776 1.392,0.672 2.928,0.672 2.256,0 5.18399,-1.536 z m -31.488,-10.992 q -0.57599,0.384 -1.00799,1.056 -0.384,0.672 -0.384,1.2 0,0.672 0.67199,0.672 0.57601,0 1.34401,-0.336 0.816,-0.384 1.632,-0.912 0.816,-0.576 1.584,-1.248 0.768,-0.72 1.296,-1.392 -0.72,-0.24 -1.392,-0.24 -1.104,0 -2.112,0.384 -1.008,0.384 -1.63201,0.816 z"
       style="font-style:normal;font-variant:normal;font-weight:normal;font-stretch:normal;font-size:48px;line-height:1.25;font-family:'Back to Black Bold Demo';-inkscape-font-specification:'Back to Black Bold Demo';text-align:center;text-anchor:middle;fill:#18394c;fill-opacity:1"
       id="path2849" />
    <path
       d="m -199.55812,54.587375 q -2.448,-0.048 -4.224,-0.864 -1.776,-0.816 -2.88,-2.16 -1.104,-1.392 -1.632,-3.168 -0.528,-1.824 -0.528,-3.888 0,-2.688 0.816,-5.568 0.432,-1.488 1.152,-3.36 0.768,-1.92 1.872,-3.84 1.104,-1.968 2.49599,-3.84 1.44001,-1.92 3.21601,-3.36 1.824,-1.488 3.936,-2.352 2.16,-0.912 4.656,-0.912 1.68,0 2.976,0.768 1.344,0.768 2.208,2.112 0.912,1.344 1.392,3.168 0.48,1.824 0.48,3.984 0,4.032 -1.344,8.16 -1.296,4.128 -3.504,7.488 -2.208,3.36 -5.088,5.52 -2.88001,2.112 -6,2.112 z m 0.432,-2.784 q 0.48,0.096 0.624,0.096 1.392,0 2.784,-0.864 1.44,-0.912 2.784,-2.4 1.344,-1.536 2.49599,-3.552 1.20001,-2.016 2.06401,-4.272 0.86399,-2.256 1.344,-4.608 0.528,-2.4 0.528,-4.608 0,-1.44 -0.24,-2.736 -0.192,-1.344 -0.67201,-2.4 -0.43199,-1.056 -1.19999,-1.68 -0.72,-0.624 -1.728,-0.624 -1.344,0 -2.736,1.104 -1.392,1.104 -2.688,2.976 -1.248,1.824 -2.352,4.176 -1.104,2.352 -1.92,4.848 -0.816,2.496 -1.296,4.944 -0.48,2.448 -0.48,4.464 0,2.112 0.624,3.504 0.624,1.392 2.064,1.632 z"
       style="font-style:normal;font-variant:normal;font-weight:normal;font-stretch:normal;font-size:48px;line-height:1.25;font-family:'Back to Black Bold Demo';-inkscape-font-specification:'Back to Black Bold Demo';text-align:center;text-anchor:middle;fill:#18394c;fill-opacity:1"
       id="path2851" />
  </g>
</svg>
