<?xml version="1.0" encoding="UTF-8" standalone="no"?>
<svg
   xmlns:dc="http://purl.org/dc/elements/1.1/"
   xmlns:cc="http://creativecommons.org/ns#"
   xmlns:rdf="http://www.w3.org/1999/02/22-rdf-syntax-ns#"
   xmlns:svg="http://www.w3.org/2000/svg"
   xmlns="http://www.w3.org/2000/svg"
   xmlns:sodipodi="http://sodipodi.sourceforge.net/DTD/sodipodi-0.dtd"
   xmlns:inkscape="http://www.inkscape.org/namespaces/inkscape"
   viewBox="0 0 256 256"
   version="1.1"
   id="svg8"
   sodipodi:docname="RSVP.svg"
   inkscape:version="0.92.3 (2405546, 2018-03-11)">
  <sodipodi:namedview
     pagecolor="#ffffff"
     bordercolor="#666666"
     borderopacity="1"
     objecttolerance="10"
     gridtolerance="10"
     guidetolerance="10"
     inkscape:pageopacity="0"
     inkscape:pageshadow="2"
     inkscape:window-width="1812"
     inkscape:window-height="1051"
     id="namedview995"
     showgrid="false"
     inkscape:zoom="0.921875"
     inkscape:cx="118.23729"
     inkscape:cy="128"
     inkscape:window-x="-9"
     inkscape:window-y="-9"
     inkscape:window-maximized="1"
     inkscape:current-layer="svg8" />
  <defs
     id="defs2" />
  <metadata
     id="metadata5">
    <rdf:RDF>
      <cc:Work
         rdf:about="">
        <dc:format>image/svg+xml</dc:format>
        <dc:type
           rdf:resource="http://purl.org/dc/dcmitype/StillImage" />
        <dc:title />
      </cc:Work>
    </rdf:RDF>
  </metadata>
  <g
     aria-label="R.S.V.P."
     style="font-style:normal;font-weight:normal;font-size:40px;line-height:1.25;font-family:sans-serif;letter-spacing:0px;word-spacing:0px;fill:#000000;fill-opacity:1;stroke:#000000;stroke-width:0.75590551;stroke-miterlimit:4;stroke-dasharray:none;stroke-opacity:1"
     id="flowRoot5243"
     transform="translate(67.922893,316.09616)">
    <path
       d="m 21.683984,-172.59616 q -0.24,0.52 -0.88,0.92 -0.6,0.4 -1.16,0.4 -0.76,0 -1.72,-0.8 -0.92,-0.76 -1.96,-2.08 -1.04,-1.28 -2.12,-2.96 -1.08,-1.68 -2.08,-3.44 -0.96,-1.76 -1.8399996,-3.48 -0.84,-1.76 -1.44,-3.16 -1.16,3.96 -2.2,7.72 -1,3.76 -1.92,6.84 -1.04,0 -1.84,-0.56 -0.8,-0.56 -0.8,-1.44 0,-0.44 0.16,-1.08 0.2,-0.6 0.4,-1.12 1.28,-3.92 2.44,-7.32 1.16,-3.44 2.36,-6.64 1.2,-3.2 2.48,-6.4 1.2799996,-3.2 2.8399996,-6.72 -1.28,0.2 -2.32,0.6 -0.9999996,0.36 -1.7599996,0.76 -0.72,0.36 -1.2,0.64 -0.48,0.28 -0.68,0.28 -0.12,0 -0.32,-0.12 -0.2,-0.12 -0.44,-0.28 -0.2,-0.16 -0.36,-0.32 -0.12,-0.2 -0.12,-0.36 0.76,-0.32 1.76,-0.68 1,-0.4 2.16,-0.72 1.1599996,-0.36 2.4399996,-0.56 1.28,-0.24 2.64,-0.24 1.72,0 3.52,0.44 1.8,0.4 3.24,1.32 1.48,0.88 2.4,2.32 0.96,1.4 0.96,3.4 0,1.96 -0.92,3.4 -0.92,1.4 -2.36,2.36 -1.4,0.96 -3.16,1.56 -1.72,0.56 -3.4,0.88 -1.64,0.28 -3.04,0.4 -1.36,0.08 -2.0399996,0.08 1.2399996,2.12 2.3199996,4.12 1.12,2 2.48,4 1.36,1.96 3.12,3.96 1.8,2 4.36,4.08 z m -0.04,-25.68 q 0,-1.64 -0.64,-2.72 -0.6,-1.12 -1.6,-1.8 -1,-0.68 -2.28,-0.96 -1.28,-0.32 -2.64,-0.32 -1.4,2.76 -2.76,6.64 -1.36,3.84 -2.5999996,8.04 2.1599996,-0.12 4.3999996,-0.68 2.24,-0.56 4.04,-1.64 1.8,-1.08 2.92,-2.68 1.16,-1.64 1.16,-3.88 z"
       style="font-style:normal;font-variant:normal;font-weight:normal;font-stretch:normal;font-family:'Dancing Script';-inkscape-font-specification:'Dancing Script';stroke:#000000;stroke-width:0.75590551;stroke-miterlimit:4;stroke-dasharray:none;stroke-opacity:1"
       id="path5260"
       inkscape:connector-curvature="0" />
    <path
       d="m 25.408984,-175.71616 q -0.52,0 -0.92,-0.28 -0.36,-0.24 -0.36,-0.8 0,-0.68 0.76,-1.16 0.76,-0.48 1.56,-0.48 0.48,0 0.76,0.2 0.28,0.2 0.28,0.76 0,0.6 -0.64,1.2 -0.64,0.56 -1.44,0.56 z"
       style="font-style:normal;font-variant:normal;font-weight:normal;font-stretch:normal;font-family:'Dancing Script';-inkscape-font-specification:'Dancing Script';stroke:#000000;stroke-width:0.75590551;stroke-miterlimit:4;stroke-dasharray:none;stroke-opacity:1"
       id="path5262"
       inkscape:connector-curvature="0" />
    <path
       d="m 36.882734,-194.23616 q 0,-1.68 0.8,-3.52 0.8,-1.88 2.28,-3.48 1.48,-1.6 3.6,-2.64 2.12,-1.04 4.72,-1.04 2.32,0 3.24,1.16 0.96,1.12 0.96,2.84 0,1.08 -0.32,2.32 -0.28,1.24 -0.76,2.44 -0.44,1.16 -1,2.24 -0.52,1.04 -1,1.8 -0.72,-0.16 -1.04,-0.6 -0.28,-0.44 -0.28,-1.12 0,-0.84 0.36,-1.92 0.36,-1.12 0.8,-2.24 0.48,-1.16 0.84,-2.24 0.36,-1.12 0.36,-2 0,-0.8 -0.48,-1.24 -0.48,-0.48 -1.76,-0.48 -1.88,0 -3.52,0.92 -1.6,0.88 -2.8,2.24 -1.16,1.32 -1.84,2.88 -0.64,1.52 -0.64,2.76 0,1.48 0.88,2.56 0.88,1.04 2.2,1.92 1.36,0.88 2.88,1.72 1.56,0.8 2.88,1.88 1.36,1.04 2.24,2.48 0.88,1.4 0.88,3.44 0,2.08 -0.96,3.68 -0.92,1.56 -2.44,2.64 -1.48,1.08 -3.36,1.64 -1.84,0.56 -3.68,0.56 -1.64,0 -3.16,-0.44 -1.48,-0.44 -2.64,-1.32 -1.16,-0.88 -1.88,-2.24 -0.68,-1.36 -0.68,-3.16 0,-1.56 0.48,-2.6 0.52,-1.04 1.24,-1.64 0.76,-0.6 1.64,-0.84 0.92,-0.28 1.76,-0.28 -1.08,1.16 -1.64,2.56 -0.56,1.4 -0.56,2.8 0,1.12 0.36,2.12 0.4,1 1.12,1.76 0.76,0.8 1.92,1.24 1.16,0.48 2.72,0.48 1.36,0 2.68,-0.4 1.32,-0.36 2.36,-1.08 1.08,-0.72 1.72,-1.8 0.68,-1.12 0.68,-2.56 0,-1.72 -0.92,-2.92 -0.88,-1.24 -2.24,-2.2 -1.36,-1 -2.92,-1.88 -1.56,-0.88 -2.92,-1.88 -1.36,-1 -2.28,-2.24 -0.88,-1.28 -0.88,-3.08 z"
       style="font-style:normal;font-variant:normal;font-weight:normal;font-stretch:normal;font-family:'Dancing Script';-inkscape-font-specification:'Dancing Script';stroke:#000000;stroke-width:0.75590551;stroke-miterlimit:4;stroke-dasharray:none;stroke-opacity:1"
       id="path5264"
       inkscape:connector-curvature="0" />
    <path
       d="m 55.487109,-175.71616 q -0.52,0 -0.92,-0.28 -0.36,-0.24 -0.36,-0.8 0,-0.68 0.76,-1.16 0.76,-0.48 1.56,-0.48 0.48,0 0.76,0.2 0.28,0.2 0.28,0.76 0,0.6 -0.64,1.2 -0.64,0.56 -1.44,0.56 z"
       style="font-style:normal;font-variant:normal;font-weight:normal;font-stretch:normal;font-family:'Dancing Script';-inkscape-font-specification:'Dancing Script';stroke:#000000;stroke-width:0.75590551;stroke-miterlimit:4;stroke-dasharray:none;stroke-opacity:1"
       id="path5266"
       inkscape:connector-curvature="0" />
    <path
       d="m 70.830859,-173.87616 q 1.12,0 2.6,-1.16 1.48,-1.16 3.04,-3.08 1.6,-1.96 3.08,-4.44 1.52,-2.52 2.72,-5.2 1.2,-2.68 1.92,-5.28 0.72,-2.64 0.72,-4.84 0,-2 -0.6,-2.92 -0.6,-0.92 -1.6,-1.24 0.56,-0.96 1.16,-1.4 0.64,-0.44 1.16,-0.44 0.84,0 1.64,1.08 0.8,1.08 0.8,3.36 0,2.2 -0.84,5.04 -0.84,2.84 -2.24,5.8 -1.36,2.96 -3.16,5.84 -1.8,2.88 -3.76,5.12 -1.92,2.24 -3.88,3.6 -1.92,1.4 -3.56,1.4 -0.44,0 -1.04,-0.12 -0.56,-0.12 -1.12,-0.48 -0.52,-0.36 -0.92,-1 -0.36,-0.6 -0.36,-1.6 0,-1.48 0.76,-4 0.8,-2.56 1.76,-5.64 0.96,-3.08 1.72,-6.4 0.8,-3.32 0.8,-6.32 0,-1.12 -0.04,-2.12 -0.04,-1 -0.28,-1.76 -0.24,-0.8 -0.72,-1.24 -0.48,-0.48 -1.36,-0.48 -1.12,0 -1.92,0.68 -0.76,0.68 -1.28,1.72 -0.48,1 -0.72,2.16 -0.2,1.16 -0.2,2.16 0,1.32 0.36,2.16 -1.56,0 -2.2,-0.84 -0.64,-0.88 -0.64,-2.04 0,-1.24 0.6,-2.48 0.6,-1.28 1.6,-2.28 1,-1.04 2.32,-1.68 1.32,-0.68 2.8,-0.68 2.52,0 3.72,1.96 1.2,1.92 1.2,5.16 0,2.92 -0.8,6.16 -0.8,3.2 -1.8,6.24 -0.96,3 -1.76,5.64 -0.8,2.6 -0.8,4.32 0,0.68 0.2,1.12 0.24,0.44 0.92,0.44 z"
       style="font-style:normal;font-variant:normal;font-weight:normal;font-stretch:normal;font-family:'Dancing Script';-inkscape-font-specification:'Dancing Script';stroke:#000000;stroke-width:0.75590551;stroke-miterlimit:4;stroke-dasharray:none;stroke-opacity:1"
       id="path5268"
       inkscape:connector-curvature="0" />
    <path
       d="m 87.596484,-175.71616 q -0.52,0 -0.92,-0.28 -0.36,-0.24 -0.36,-0.8 0,-0.68 0.76,-1.16 0.76,-0.48 1.56,-0.48 0.48,0 0.76,0.2 0.28,0.2 0.28,0.76 0,0.6 -0.64,1.2 -0.64,0.56 -1.44,0.56 z"
       style="font-style:normal;font-variant:normal;font-weight:normal;font-stretch:normal;font-family:'Dancing Script';-inkscape-font-specification:'Dancing Script';stroke:#000000;stroke-width:0.75590551;stroke-miterlimit:4;stroke-dasharray:none;stroke-opacity:1"
       id="path5270"
       inkscape:connector-curvature="0" />
    <path
       d="m 102.79023,-187.95616 q -1.2,4.12 -2.32,8.12 -1.079996,4 -1.999996,7.2 -1.04,0 -1.92,-0.56 -0.84,-0.56 -0.84,-1.44 0,-0.44 0.16,-1.08 0.2,-0.6 0.4,-1.12 1.24,-3.92 2.36,-7.32 1.12,-3.4 2.239996,-6.6 1.16,-3.2 2.4,-6.4 1.28,-3.2 2.84,-6.68 -1.16,0.24 -2.12,0.6 -0.92,0.36 -1.64,0.72 -0.72,0.36 -1.2,0.64 -0.44,0.24 -0.6,0.24 -0.12,0 -0.32,-0.12 -0.2,-0.12 -0.439996,-0.28 -0.2,-0.16 -0.36,-0.32 -0.12,-0.2 -0.12,-0.36 0.759996,-0.32 1.759996,-0.68 1,-0.4 2.16,-0.72 1.16,-0.36 2.4,-0.56 1.24,-0.24 2.52,-0.24 1.76,0 3.6,0.48 1.84,0.48 3.32,1.48 1.48,0.96 2.4,2.4 0.96,1.44 0.96,3.36 0,2.08 -0.96,3.6 -0.92,1.48 -2.4,2.52 -1.48,1 -3.28,1.64 -1.8,0.6 -3.52,0.96 -1.68,0.32 -3.08,0.44 -1.36,0.08 -2,0.08 z m 12.96,-9.92 q 0,-1.6 -0.6,-2.76 -0.6,-1.2 -1.6,-1.92 -1,-0.76 -2.32,-1.12 -1.32,-0.4 -2.72,-0.4 -1.48,2.92 -2.88,7 -1.4,4.04 -2.68,8.48 2.2,-0.12 4.48,-0.72 2.28,-0.6 4.12,-1.72 1.84,-1.16 3,-2.84 1.2,-1.72 1.2,-4 z"
       style="font-style:normal;font-variant:normal;font-weight:normal;font-stretch:normal;font-family:'Dancing Script';-inkscape-font-specification:'Dancing Script';stroke:#000000;stroke-width:0.75590551;stroke-miterlimit:4;stroke-dasharray:none;stroke-opacity:1"
       id="path5272"
       inkscape:connector-curvature="0" />
    <path
       d="m 114.70586,-175.71616 q -0.52,0 -0.92,-0.28 -0.36,-0.24 -0.36,-0.8 0,-0.68 0.76,-1.16 0.76,-0.48 1.56,-0.48 0.48,0 0.76,0.2 0.28,0.2 0.28,0.76 0,0.6 -0.64,1.2 -0.64,0.56 -1.44,0.56 z"
       style="font-style:normal;font-variant:normal;font-weight:normal;font-stretch:normal;font-family:'Dancing Script';-inkscape-font-specification:'Dancing Script';stroke:#000000;stroke-width:0.75590551;stroke-miterlimit:4;stroke-dasharray:none;stroke-opacity:1"
       id="path5274"
       inkscape:connector-curvature="0" />
  </g>
</svg>
