<?xml version="1.0" encoding="UTF-8" standalone="no"?>
<svg
   xmlns:dc="http://purl.org/dc/elements/1.1/"
   xmlns:cc="http://creativecommons.org/ns#"
   xmlns:rdf="http://www.w3.org/1999/02/22-rdf-syntax-ns#"
   xmlns:svg="http://www.w3.org/2000/svg"
   xmlns="http://www.w3.org/2000/svg"
   xmlns:sodipodi="http://sodipodi.sourceforge.net/DTD/sodipodi-0.dtd"
   xmlns:inkscape="http://www.inkscape.org/namespaces/inkscape"
   viewBox="0 0 256 256"
   version="1.1"
   id="svg8"
   sodipodi:docname="RSVP.svg"
   inkscape:version="0.92.3 (2405546, 2018-03-11)">
  <sodipodi:namedview
     pagecolor="#ffffff"
     bordercolor="#666666"
     borderopacity="1"
     objecttolerance="10"
     gridtolerance="10"
     guidetolerance="10"
     inkscape:pageopacity="0"
     inkscape:pageshadow="2"
     inkscape:window-width="1812"
     inkscape:window-height="1051"
     id="namedview995"
     showgrid="false"
     inkscape:zoom="0.921875"
     inkscape:cx="-79.186439"
     inkscape:cy="128"
     inkscape:window-x="-9"
     inkscape:window-y="-9"
     inkscape:window-maximized="1"
     inkscape:current-layer="svg8" />
  <defs
     id="defs2" />
  <metadata
     id="metadata5">
    <rdf:RDF>
      <cc:Work
         rdf:about="">
        <dc:format>image/svg+xml</dc:format>
        <dc:type
           rdf:resource="http://purl.org/dc/dcmitype/StillImage" />
        <dc:title />
      </cc:Work>
    </rdf:RDF>
  </metadata>
  <g
     aria-label="R.S.V.P."
     transform="translate(462.95855,85.095197)"
     style="font-style:normal;font-weight:normal;font-size:40px;line-height:1.25;font-family:sans-serif;letter-spacing:0px;word-spacing:0px;fill:#18394c;fill-opacity:1;stroke:none"
     id="flowRoot2188">
    <path
       d="m -416.31977,16.228802 q 0.85333,-0.170667 1.70667,-0.213334 0.896,-0.04267 1.74933,-0.04267 3.584,0 6.31467,1.066666 2.77333,1.024 4.77866,2.773334 2.00534,1.706667 3.24267,3.925333 1.23733,2.176 1.792,4.437334 0.768,3.242667 0.384,6.144 -0.34133,2.858667 -1.536,5.333333 -1.19467,2.474667 -3.11467,4.565334 -1.87733,2.048 -4.18133,3.626667 -2.26133,1.578666 -4.77867,2.645333 -2.47466,1.066667 -4.90666,1.578667 1.49333,1.792 3.54133,3.968 2.09067,2.133333 4.48,3.968 2.38933,1.877333 4.992,3.114667 2.60267,1.28 5.248,1.28 0.93867,0 2.176,-0.256 0.29867,0 0.46933,0.981333 0.17067,0.981334 0.0853,2.176 -0.0853,1.237334 -0.42667,2.261334 -0.29867,1.066666 -0.93867,1.152 -3.712,-0.213334 -6.95466,-2.005334 -3.24267,-1.749333 -6.05867,-4.394667 -2.816,-2.602666 -5.248,-5.717333 -2.38933,-3.114667 -4.48,-5.973334 l -0.128,-0.128 h -0.64 q -0.256,0 -0.512,0 -0.21333,-0.04267 -0.46933,-0.08533 -0.55467,4.053334 -0.72534,7.594667 -0.17066,3.541333 0.128,6.229334 -0.128,0.170666 -0.85333,-0.298667 -0.72533,-0.426667 -1.57867,-1.109334 -0.85333,-0.64 -1.62133,-1.365333 -0.72533,-0.725333 -0.85333,-1.109333 -0.42667,-2.304 -0.42667,-5.290667 0.0427,-3.029333 0.384,-6.442667 -2.048,-1.109333 -3.49867,-2.730667 -1.408,-1.621333 -2.048,-3.541333 -0.34133,-0.810667 0.128,-1.536 0.46934,-0.768 1.664,-1.408 1.024,2.176 2.048,3.584 1.06667,1.365333 2.09067,2.218667 0.512,-3.584 1.23733,-7.253334 0.72534,-3.669333 1.57867,-7.125333 0.85333,-3.456001 1.792,-6.528001 0.93867,-3.114666 1.83467,-5.504 -2.304,1.024 -4.39467,3.029334 -2.048,1.962666 -3.75467,4.522666 -1.664,2.56 -2.944,5.418667 -1.28,2.858667 -2.048,5.632 -0.72533,2.730667 -0.93866,5.162667 -0.17067,2.432 0.34133,4.053334 0.256,0.768 -0.55467,0.682666 -0.81066,-0.08533 -1.92,-0.725333 -1.152,-0.682667 -2.21866,-1.834667 -1.06667,-1.152 -1.36534,-2.474666 -0.0853,-0.384 -0.128,-0.768 -0.0853,-0.426667 -0.0427,-0.810667 v 0.04267 q 0.0427,-4.864001 1.62133,-9.514667 1.536,-4.650667 4.39467,-8.320001 2.90133,-3.712 6.95466,-6.058667 4.096,-2.346666 9.216,-2.602666 z m 1.19467,3.712 q -0.768,0.08533 -1.536,0.256 0.72533,0.298667 1.57866,0.853333 0.85334,0.554667 1.57867,1.28 0.72533,0.682667 1.152,1.493334 0.46933,0.768 0.384,1.493333 -1.19467,2.346667 -2.26133,5.162667 -1.06667,2.773333 -1.96267,5.802667 -0.896,3.029333 -1.664,6.229333 -0.72533,3.2 -1.28,6.314667 2.176,-0.128 4.352,-0.938667 2.21867,-0.810666 4.18133,-2.218666 2.00534,-1.408 3.66934,-3.285334 1.664,-1.92 2.73066,-4.181333 1.10934,-2.261334 1.49334,-4.821334 0.42666,-2.56 -0.0853,-5.290667 -0.34133,-1.194666 -1.10933,-2.602666 -0.768,-1.450667 -2.21867,-2.645334 -1.408,-1.237333 -3.62666,-2.048 -2.176,-0.853333 -5.376,-0.853333 z"
       style="font-style:normal;font-variant:normal;font-weight:normal;font-stretch:normal;font-size:42.66666794px;font-family:'Run to the Hills Personal Use';-inkscape-font-specification:'Run to the Hills Personal Use';fill:#18394c;fill-opacity:1"
       id="path2196" />
    <path
       d="m -383.5651,59.53547 h -4.97917 v -5.937501 h 4.97917 z"
       style="font-style:normal;font-variant:normal;font-weight:normal;font-stretch:normal;font-size:42.66666794px;font-family:'Run to the Hills Personal Use';-inkscape-font-specification:'Run to the Hills Personal Use';fill:#18394c;fill-opacity:1"
       id="path2198" />
    <path
       d="m -345.37643,30.052802 q -0.85334,0.725333 -2.048,0.725333 -0.98134,0 -1.87734,-0.512 -0.896,-0.554666 -1.62133,-1.237333 -0.68267,-0.725333 -1.10933,-1.408 -0.384,-0.682667 -0.34134,-0.981333 0.81067,-0.469334 1.62134,-1.066667 0.81066,-0.64 1.408,-1.365333 0.64,-0.725334 0.93866,-1.536 0.29867,-0.853334 0.128,-1.749334 -0.128,-0.469333 -0.59733,-0.853333 -0.46933,-0.384 -1.49333,-0.512 -0.34134,-0.08533 -0.72534,-0.08533 -0.34133,0 -0.68266,0 -1.49334,0 -3.2,0.341334 -1.70667,0.298666 -3.37067,0.938667 -1.62133,0.597333 -3.072,1.493333 -1.45067,0.896 -2.432,2.133333 -0.93867,1.194667 -1.28,2.688 -0.34133,1.450667 0.256,3.2 0.384,1.152001 1.10933,2.304001 0.72534,1.109333 1.664,2.218666 0.98134,1.066667 2.048,2.133334 1.10934,1.024 2.26134,2.090666 1.408,1.322667 2.77333,2.688 1.36533,1.322667 2.47467,2.816001 1.152,1.450666 1.96266,3.029333 0.85334,1.578667 1.152,3.370667 0.29867,2.56 -0.68266,5.248 -0.98134,2.688 -3.02934,4.864 -2.00533,2.176 -4.94933,3.498667 -2.90133,1.322667 -6.44267,1.194667 -1.92,-0.170667 -4.30933,-0.938667 -2.38933,-0.725334 -4.608,-2.048 -2.176,-1.28 -3.92533,-3.2 -1.74934,-1.877334 -2.43201,-4.394667 -0.72533,-2.773334 -0.128,-5.248 0.59734,-2.517334 3.11467,-4.949334 l -0.128,0.04267 q 0.128,-0.170667 0.68267,-0.04267 0.59733,0.128 1.36533,0.469334 0.81067,0.341333 1.664,0.810666 0.896,0.469334 1.62134,0.981334 0.72533,0.512 1.19466,0.938666 0.46934,0.426667 0.46934,0.682667 l -0.896,0.682667 q -0.768,0.512 -1.536,1.066666 -0.72534,0.554667 -1.28,1.28 -0.55467,0.682667 -0.81067,1.578667 -0.21333,0.853334 0.0427,1.962667 0.42666,1.706667 1.408,2.773333 0.98133,1.066667 2.26133,1.664 1.28,0.597334 2.73067,0.810667 1.45066,0.213333 2.85866,0.213333 2.432,0 4.30934,-0.725333 1.87733,-0.682667 3.02933,-1.962667 1.19467,-1.28 1.57867,-3.114666 0.384,-1.834667 -0.17067,-4.138667 -0.29867,-1.152 -0.98133,-2.261334 -0.68267,-1.109333 -1.62134,-2.133333 -0.93866,-1.066667 -2.048,-2.048 -1.06666,-1.024 -2.21866,-2.005334 -1.36534,-1.194666 -2.64534,-2.389333 -1.28,-1.237333 -2.34666,-2.56 -1.06667,-1.322667 -1.83467,-2.730667 -0.72533,-1.408 -0.98133,-3.029333 -0.29867,-2.346667 0.34133,-4.522667 0.64,-2.176 2.00533,-4.053333 1.36534,-1.92 3.28534,-3.456001 1.96266,-1.536 4.26666,-2.602666 2.304,-1.066667 4.82134,-1.578667 2.56,-0.554667 5.07733,-0.426667 1.57867,0.128 2.73067,0.682667 1.19466,0.512 2.048,1.365333 0.896,0.810667 1.45066,1.92 0.55467,1.109334 0.85334,2.346667 0.59733,2.688 0.29866,4.736 -0.29866,2.005334 -1.28,3.712 z"
       style="font-style:normal;font-variant:normal;font-weight:normal;font-stretch:normal;font-size:42.66666794px;font-family:'Run to the Hills Personal Use';-inkscape-font-specification:'Run to the Hills Personal Use';fill:#18394c;fill-opacity:1"
       id="path2200" />
    <path
       d="m -334.0651,59.53547 h -4.97917 v -5.937501 h 4.97917 z"
       style="font-style:normal;font-variant:normal;font-weight:normal;font-stretch:normal;font-size:42.66666794px;font-family:'Run to the Hills Personal Use';-inkscape-font-specification:'Run to the Hills Personal Use';fill:#18394c;fill-opacity:1"
       id="path2202" />
    <path
       d="m -327.7911,41.999469 q 0,0.298667 -0.55467,0.170667 -0.512,-0.170667 -1.28,-0.554667 -0.768,-0.426667 -1.664,-0.981333 -0.896,-0.597334 -1.664,-1.194667 -0.81067,-0.64 -1.32267,-1.152 -0.55466,-0.512 -0.55466,-0.810667 0.384,-2.048 1.36533,-4.224 0.98133,-2.176 2.432,-4.224 1.408,-2.090667 3.2,-3.925333 1.83467,-1.877334 3.84,-3.285334 2.048,-1.408 4.224,-2.218667 2.176,-0.853333 4.39467,-0.896 0.768,0 1.664,0.384 0.896,0.384 1.70667,1.024 0.85333,0.640001 1.536,1.493334 0.68266,0.810667 1.06666,1.664 0.512,1.493333 0.46934,3.712 0,2.218667 -0.384,4.864 -0.34134,2.645334 -1.024,5.589334 -0.64,2.944 -1.45067,5.888 -0.768,2.944 -1.62133,5.76 -0.85334,2.816 -1.62134,5.205334 -0.46933,1.493333 -0.896,2.816 -0.42666,1.28 -0.72533,2.304 -0.256,0.981333 -0.42667,1.578666 -0.128,0.597334 -0.0427,0.725334 l 0.0427,0.170666 h 0.0427 q 4.39467,-3.84 8.36267,-9.088 3.968,-5.290667 7.04,-11.349334 3.11466,-6.101333 5.20533,-12.629333 2.09067,-6.528 2.816,-12.842667 0.128,-0.426667 0.98133,0 0.85334,0.426666 1.792,1.237333 0.98134,0.810667 1.74934,1.706667 0.768,0.896 0.768,1.365333 -0.46934,2.858667 -1.62134,6.314667 -1.10933,3.456 -2.73066,7.168 -1.57867,3.712 -3.584,7.509334 -1.96267,3.797333 -4.18134,7.338667 -2.176,3.498666 -4.48,6.613333 -2.26133,3.114667 -4.48,5.461334 -2.21866,2.389333 -4.26666,3.797333 -2.048,1.408 -3.712,1.578667 -0.85334,-0.04267 -1.792,-0.469333 -0.93867,-0.426667 -1.74934,-1.152001 -0.81066,-0.725333 -1.45066,-1.664 -0.59734,-0.896 -0.81067,-1.877333 0.46933,-4.608 1.664,-8.874667 1.19467,-4.266667 2.60267,-8.618667 0.68266,-2.218667 1.408,-4.48 0.72533,-2.304 1.32266,-4.650667 0.64,-2.346666 1.10934,-4.778667 0.46933,-2.474666 0.68266,-5.077333 0.0427,-0.298667 0.0853,-0.64 0.0853,-0.341333 0.0427,-0.256 -0.85333,0.170667 -2.34666,1.237333 -1.45067,1.024 -3.11467,2.602667 -1.664,1.536 -3.28533,3.456 -1.62134,1.92 -2.85867,3.882667 -1.19467,1.962667 -1.792,3.797333 -0.59733,1.792 -0.128,3.114667 z"
       style="font-style:normal;font-variant:normal;font-weight:normal;font-stretch:normal;font-size:42.66666794px;font-family:'Run to the Hills Personal Use';-inkscape-font-specification:'Run to the Hills Personal Use';fill:#18394c;fill-opacity:1"
       id="path2204" />
    <path
       d="m -284.23177,59.53547 h -4.97916 v -5.937501 h 4.97916 z"
       style="font-style:normal;font-variant:normal;font-weight:normal;font-stretch:normal;font-size:42.66666794px;font-family:'Run to the Hills Personal Use';-inkscape-font-specification:'Run to the Hills Personal Use';fill:#18394c;fill-opacity:1"
       id="path2206" />
    <path
       d="m -261.4031,16.228802 q 0.85333,-0.170667 1.70667,-0.213334 0.896,-0.04267 1.74933,-0.04267 3.54133,0 6.22934,1.066666 2.73066,1.024 4.65066,2.773334 1.96267,1.706667 3.15734,3.925333 1.19466,2.176 1.74933,4.437334 0.896,3.669333 0.34133,6.912 -0.55466,3.2 -2.13333,5.888 -1.57867,2.688 -3.92533,4.821334 -2.34667,2.133333 -5.07734,3.626666 -2.688,1.450667 -5.54667,2.261334 -2.816,0.810666 -5.33333,0.810666 -1.49333,-0.04267 -2.98667,-0.469333 -0.55466,4.010667 -0.68266,7.509334 -0.0853,3.541333 0.256,6.229333 0.17066,1.109334 -0.46934,1.152 -0.64,0.08533 -1.536,-0.597333 -0.85333,-0.64 -1.74933,-1.877334 -0.85333,-1.194666 -1.152,-2.688 -0.512,-2.474666 -0.55467,-5.632 0,-3.2 0.384,-6.826667 -2.60266,-2.090666 -3.584,-4.949333 -0.34133,-0.810667 0.128,-1.536 0.46934,-0.768 1.664,-1.408 1.10934,2.304 2.304,3.882667 0.42667,-3.114667 1.06667,-6.229334 0.68267,-3.157333 1.408,-6.144 0.768,-2.986667 1.57867,-5.674667 0.85333,-2.730667 1.70666,-4.992 -1.96266,1.450667 -3.712,3.541333 -1.70666,2.090667 -3.11466,4.522667 -1.36534,2.432 -2.432,5.034667 -1.024,2.602667 -1.62134,5.077333 -0.55466,2.432001 -0.68266,4.565334 -0.128,2.133333 0.34133,3.626667 0.256,0.768 -0.55467,0.682666 -0.81066,-0.08533 -1.92,-0.725333 -1.152,-0.682667 -2.21866,-1.834667 -1.06667,-1.152 -1.36534,-2.474666 -0.0853,-0.384 -0.128,-0.768 -0.0853,-0.426667 -0.0427,-0.810667 v 0.04267 q 0.0427,-4.864001 1.62133,-9.514667 1.536,-4.650667 4.39467,-8.320001 2.90133,-3.712 6.95466,-6.058667 4.096,-2.346666 9.216,-2.602666 z m 1.19467,3.712 q -0.98134,0.08533 -1.92,0.341333 -0.93867,0.256 -1.87734,0.725334 0.72534,0.298666 1.57867,0.853333 0.85333,0.554667 1.536,1.28 0.72533,0.682667 1.152,1.450667 0.46933,0.768 0.42667,1.536 -1.19467,2.346666 -2.26134,5.077333 -1.06666,2.688 -1.96266,5.632 -0.896,2.901334 -1.62134,5.930667 -0.68266,2.986667 -1.19466,5.973334 0.384,0.08533 0.72533,0.08533 0.384,0 0.768,0 2.21867,0 4.43733,-0.768 2.26134,-0.768 4.26667,-2.133333 2.048,-1.365334 3.75467,-3.285334 1.70667,-1.92 2.816,-4.224 1.152,-2.304 1.536,-4.906667 0.42667,-2.645333 -0.0853,-5.418667 -0.34134,-1.194666 -1.06667,-2.602666 -0.72533,-1.450667 -2.13333,-2.645334 -1.36534,-1.237333 -3.54134,-2.048 -2.13333,-0.853333 -5.33333,-0.853333 z"
       style="font-style:normal;font-variant:normal;font-weight:normal;font-stretch:normal;font-size:42.66666794px;font-family:'Run to the Hills Personal Use';-inkscape-font-specification:'Run to the Hills Personal Use';fill:#18394c;fill-opacity:1"
       id="path2208" />
    <path
       d="m -231.48177,59.53547 h -4.97916 v -5.937501 h 4.97916 z"
       style="font-style:normal;font-variant:normal;font-weight:normal;font-stretch:normal;font-size:42.66666794px;font-family:'Run to the Hills Personal Use';-inkscape-font-specification:'Run to the Hills Personal Use';fill:#18394c;fill-opacity:1"
       id="path2210" />
  </g>
</svg>
