<?xml version="1.0" encoding="UTF-8" standalone="no"?>
<svg
   xmlns:dc="http://purl.org/dc/elements/1.1/"
   xmlns:cc="http://creativecommons.org/ns#"
   xmlns:rdf="http://www.w3.org/1999/02/22-rdf-syntax-ns#"
   xmlns:svg="http://www.w3.org/2000/svg"
   xmlns="http://www.w3.org/2000/svg"
   viewBox="0 0 256 256"
   version="1.1"
   id="svg8">
  <defs
     id="defs2" />
  <metadata
     id="metadata5">
    <rdf:RDF>
      <cc:Work
         rdf:about="">
        <dc:format>image/svg+xml</dc:format>
        <dc:type
           rdf:resource="http://purl.org/dc/dcmitype/StillImage" />
        <dc:title></dc:title>
      </cc:Work>
    </rdf:RDF>
  </metadata>
  <g
     transform="translate(79.753906,332.99702)"
     id="flowRoot1982"
     style="font-style:normal;font-weight:normal;font-size:40px;line-height:1.25;font-family:sans-serif;letter-spacing:0px;word-spacing:0px;fill:#000000;fill-opacity:1;stroke:none"
     aria-label="RSVP">
    <path
       id="path1990"
       style="font-style:normal;font-variant:normal;font-weight:normal;font-stretch:normal;font-size:32px;font-family:Century;-inkscape-font-specification:Century"
       d="M 5.1523437,-216.58296 H 17.089844 q 3.46875,0 5.375,1.57813 1.921875,1.57812 1.921875,4.14062 0,1.53125 -0.765625,2.73438 -0.75,1.1875 -2.1875,1.90625 -1.421875,0.70312 -4.484375,1.01562 2.234375,0.60938 3.078125,1.20313 0.84375,0.57812 1.34375,1.51562 0.515625,0.92188 1.171875,3.78125 0.46875,2.04688 1,2.79688 0.40625,0.57812 0.875,0.57812 0.484375,0 0.890625,-0.70312 0.421875,-0.71875 0.515625,-2.51563 h 1.0625 q -0.296875,5.3125 -3.921875,5.3125 -1.140625,0 -1.984375,-0.57812 -0.828125,-0.57813 -1.25,-1.70313 -0.328125,-0.84375 -0.734375,-4.42187 -0.234375,-2.07813 -0.75,-2.95313 -0.5,-0.875 -1.578125,-1.40625 -1.078125,-0.53125 -2.578125,-0.53125 h -1.890625 v 9.07813 q 0,0.57812 0.296875,0.8125 0.375,0.29687 1.171875,0.29687 h 2.21875 v 1.17188 H 5.1523437 v -1.17188 h 2.265625 q 0.7500001,0 1.0937501,-0.29687 0.359375,-0.29688 0.359375,-0.8125 v -18.46875 q 0,-0.59375 -0.359375,-0.89063 -0.359375,-0.29687 -1.0937501,-0.29687 h -2.265625 z m 7.0468753,10.625 h 2.734375 q 2.75,0 4.296875,-1.03125 1.5625,-1.04687 1.5625,-3.70312 0,-1.82813 -0.59375,-2.89063 -0.578125,-1.0625 -1.53125,-1.45312 -0.953125,-0.39063 -3.75,-0.39063 -1.84375,0 -2.28125,0.26563 -0.4375,0.25 -0.4375,0.875 z" />
    <path
       id="path1992"
       style="font-style:normal;font-variant:normal;font-weight:normal;font-stretch:normal;font-size:32px;font-family:Century;-inkscape-font-specification:Century"
       d="m 42.261719,-214.83296 1.40625,-2.01562 h 1.140625 l 0.09375,8.42187 h -1.03125 q -0.96875,-3.875 -2.875,-5.65625 -1.890625,-1.78125 -4.359375,-1.78125 -2.0625,0 -3.375,1.23438 -1.3125,1.23437 -1.3125,3.01562 0,1.10938 0.5,1.95313 0.5,0.82812 1.484375,1.35937 1,0.51563 3.75,1.10938 3.859375,0.84375 5.40625,1.70312 1.5625,0.85938 2.328125,2.17188 0.765625,1.29687 0.765625,3.04687 0,3.125 -2.109375,5.1875 -2.09375,2.04688 -5.421875,2.04688 -3.578125,0 -6.21875,-2.3125 l -1.765625,2.15625 h -1.125 v -8.95313 h 1.125 q 0.65625,3.70313 2.9375,5.84375 2.28125,2.14063 5.140625,2.14063 2.3125,0 3.765625,-1.35938 1.46875,-1.375 1.46875,-3.32812 0,-1.10938 -0.546875,-1.9375 -0.546875,-0.84375 -1.734375,-1.40625 -1.1875,-0.57813 -4.671875,-1.39063 -3.828125,-0.90625 -5.21875,-2.03125 -1.953125,-1.59375 -1.953125,-4.51562 0,-3.04688 1.9375,-4.98438 1.953125,-1.95312 4.984375,-1.95312 1.453125,0 2.765625,0.51562 1.3125,0.51563 2.71875,1.71875 z" />
    <path
       id="path1994"
       style="font-style:normal;font-variant:normal;font-weight:normal;font-stretch:normal;font-size:32px;font-family:Century;-inkscape-font-specification:Century"
       d="m 47.511719,-216.58296 h 9.734375 v 1.17188 h -1.6875 q -1.046875,0 -1.421875,0.25 -0.375,0.25 -0.375,0.67187 0,0.32813 0.28125,0.95313 l 0.125,0.32812 6.078125,15.48438 5.390625,-14.78125 q 0.15625,-0.4375 0.15625,-1.0625 0,-0.875 -0.515625,-1.35938 -0.5,-0.48437 -1.390625,-0.48437 h -1.578125 v -1.17188 h 8.53125 v 1.17188 h -0.6875 q -0.78125,0 -1.5625,0.73437 -0.765625,0.73438 -1.390625,2.42188 l -7.15625,19.32812 h -1.140625 l -8.15625,-20.65625 q -0.421875,-1.03125 -0.984375,-1.42187 -0.546875,-0.40625 -1.5,-0.40625 h -0.75 z" />
    <path
       id="path1996"
       style="font-style:normal;font-variant:normal;font-weight:normal;font-stretch:normal;font-size:32px;font-family:Century;-inkscape-font-specification:Century"
       d="m 72.027344,-216.58296 h 11.390625 q 3.859375,0 5.890625,1.75 2.03125,1.75 2.03125,4.57813 0,2.82812 -1.875,4.3125 -2.578125,2.04687 -6.359375,2.04687 h -4.125 v 7.89063 q 0,0.6875 0.328125,0.98437 0.4375,0.375 1.171875,0.375 h 2.625 v 1.17188 H 72.027344 v -1.17188 h 2.3125 q 0.6875,0 1,-0.26562 0.328125,-0.28125 0.328125,-0.75 v -18.42188 q 0,-0.70312 -0.40625,-1.01562 -0.40625,-0.3125 -1.53125,-0.3125 h -1.703125 z m 6.953125,11.54688 h 3.140625 q 2.984375,0 4.296875,-1.23438 1.328125,-1.25 1.328125,-4.10937 0,-2 -0.59375,-3.0625 -0.59375,-1.07813 -1.75,-1.59375 -1.140625,-0.51563 -3.765625,-0.51563 -1.734375,0 -2.203125,0.32813 -0.453125,0.32812 -0.453125,1.14062 z" />
  </g>
</svg>
