<?xml version="1.0" encoding="UTF-8" standalone="no"?>
<svg
   xmlns:dc="http://purl.org/dc/elements/1.1/"
   xmlns:cc="http://creativecommons.org/ns#"
   xmlns:rdf="http://www.w3.org/1999/02/22-rdf-syntax-ns#"
   xmlns:svg="http://www.w3.org/2000/svg"
   xmlns="http://www.w3.org/2000/svg"
   id="svg8"
   version="1.1"
   viewBox="0 0 256 256">
  <defs
     id="defs2" />
  <metadata
     id="metadata5">
    <rdf:RDF>
      <cc:Work
         rdf:about="">
        <dc:format>image/svg+xml</dc:format>
        <dc:type
           rdf:resource="http://purl.org/dc/dcmitype/StillImage" />
        <dc:title></dc:title>
      </cc:Work>
    </rdf:RDF>
  </metadata>
  <g
     id="text1446"
     style="font-style:normal;font-weight:normal;font-size:40px;line-height:1.25;font-family:sans-serif;letter-spacing:0px;word-spacing:0px;fill:#000000;fill-opacity:1;stroke:none"
     aria-label="Save the date">
    <path
       id="path1479"
       style="font-style:normal;font-variant:normal;font-weight:normal;font-stretch:normal;font-size:32px;font-family:Century;-inkscape-font-specification:Century"
       d="m 41.523437,118.21875 1.40625,-2.01562 h 1.140625 l 0.09375,8.42187 h -1.03125 q -0.96875,-3.875 -2.875,-5.65625 -1.890625,-1.78125 -4.359375,-1.78125 -2.0625,0 -3.375,1.23438 -1.3125,1.23437 -1.3125,3.01562 0,1.10938 0.5,1.95313 0.5,0.82812 1.484375,1.35937 1,0.51563 3.75,1.10938 3.859375,0.84375 5.40625,1.70312 1.5625,0.85937 2.328125,2.17187 0.765625,1.29688 0.765625,3.04688 0,3.125 -2.109375,5.1875 -2.09375,2.04687 -5.421875,2.04687 -3.578125,0 -6.21875,-2.3125 l -1.765625,2.15625 h -1.125 v -8.95312 h 1.125 q 0.65625,3.70312 2.9375,5.84375 2.28125,2.14062 5.140625,2.14062 2.3125,0 3.765625,-1.35937 1.46875,-1.375 1.46875,-3.32813 0,-1.10937 -0.546875,-1.9375 -0.546875,-0.84375 -1.734375,-1.40625 -1.1875,-0.57812 -4.671875,-1.39062 -3.828125,-0.90625 -5.21875,-2.03125 -1.953125,-1.59375 -1.953125,-4.51562 0,-3.04688 1.9375,-4.98438 1.953125,-1.95312 4.984375,-1.95312 1.453125,0 2.765625,0.51562 1.3125,0.51563 2.71875,1.71875 z" />
    <path
       id="path1481"
       style="font-style:normal;font-variant:normal;font-weight:normal;font-stretch:normal;font-size:32px;font-family:Century;-inkscape-font-specification:Century"
       d="m 63.429687,137.96875 0.5625,0.875 q -1.140625,1.17187 -2.53125,1.17187 -1.0625,0 -1.796875,-0.57812 -0.71875,-0.57813 -1.265625,-2.03125 -1.484375,1.5625 -2.609375,2.09375 -1.125,0.51562 -2.703125,0.51562 -2.25,0 -3.421875,-0.96875 -1.171875,-0.96875 -1.171875,-2.48437 0,-2.28125 2.671875,-3.78125 2.6875,-1.51563 7.140625,-2.01563 v -2.21875 q 0,-1.18749 -0.953125,-2.03124 -0.953125,-0.84375 -2.421875,-0.84375 -1.359375,0 -2.34375,0.5625 -0.703125,0.42187 -0.703125,0.82812 0,0.23438 0.375,0.73438 0.453125,0.62499 0.453125,1.10937 0,0.70312 -0.453125,1.15625 -0.453125,0.4375 -1.1875,0.4375 -0.78125,0 -1.3125,-0.53125 -0.515625,-0.53125 -0.515625,-1.35938 0,-1.54687 1.734375,-2.82812 1.75,-1.28125 4.578125,-1.28125 2.609375,0 3.984375,1.125 1.375,1.14063 1.375,2.76562 v 8 q 0,1.0625 0.34375,1.5625 0.34375,0.51563 0.890625,0.51563 0.609375,0 1.28125,-0.5 z m -5.125,-6.17188 q -3.96875,0.54688 -5.625,1.78125 -1.234375,0.9375 -1.234375,2.65625 0,1.20313 0.640625,1.89063 0.640625,0.67187 1.671875,0.67187 1.84375,0 3.1875,-1.39062 1.359375,-1.40625 1.359375,-3.51563 z" />
    <path
       id="path1483"
       style="font-style:normal;font-variant:normal;font-weight:normal;font-stretch:normal;font-size:32px;font-family:Century;-inkscape-font-specification:Century"
       d="m 65.132812,124.9375 h 7.203125 V 126 q -1.4375,0.0312 -1.84375,0.26563 -0.390625,0.21875 -0.390625,0.64062 0,0.34375 0.15625,0.6875 l 3.875,8.64062 3.546875,-8.37499 q 0.07813,-0.21875 0.07813,-0.4375 0,-1.14063 -2.25,-1.42188 v -1.0625 h 6.0625 V 126 q -0.921875,0.0937 -1.46875,0.5 -0.546875,0.40625 -0.84375,1.09375 l -5.375,12.42187 h -0.84375 l -5.75,-12.76562 q -0.3125,-0.6875 -0.765625,-0.95312 -0.4375,-0.28125 -1.390625,-0.29688 z" />
    <path
       id="path1485"
       style="font-style:normal;font-variant:normal;font-weight:normal;font-stretch:normal;font-size:32px;font-family:Century;-inkscape-font-specification:Century"
       d="M 96.695312,132.35937 H 86.210937 q 0.07813,3.34375 1.25,4.71875 1.34375,1.54688 3.421875,1.54688 3.0625,0 4.921875,-3.48438 l 1.015625,0.4375 q -2.28125,4.4375 -6.59375,4.4375 -2.9375,0 -4.953125,-2.125 -2,-2.125 -2,-5.4375 0,-3.5625 1.96875,-5.74999 1.984375,-2.20313 4.875,-2.20313 2.125,0 3.671875,1.09375 1.546875,1.09375 2.328125,3.14062 0.546875,1.4375 0.578125,3.625 z M 86.210937,131.25 h 6.34375 q 0.5625,0 0.875,-0.375 0.3125,-0.39063 0.3125,-1.3125 0,-1.71875 -1.078125,-2.92187 -1.0625,-1.20313 -2.515625,-1.20313 -1.625,0 -2.765625,1.45313 -1.125,1.45312 -1.171875,4.35937 z" />
    <path
       id="path1487"
       style="font-style:normal;font-variant:normal;font-weight:normal;font-stretch:normal;font-size:32px;font-family:Century;-inkscape-font-specification:Century"
       d="m 111.67969,118.96875 h 1.0625 v 5.96875 h 4.73437 v 1.4375 h -4.73437 v 9.39062 q 0,1.21875 0.57812,1.875 0.57813,0.64063 1.46875,0.64063 1.0625,0 1.8125,-0.98438 0.75,-0.98437 0.875,-3.25 h 1.04688 q -0.0937,2.92188 -1.32813,4.34375 -1.23437,1.40625 -3.20312,1.40625 -1.8125,0 -2.84375,-0.98437 -1.01563,-1 -1.01563,-2.60938 V 126.375 h -2.54687 v -1.09375 q 1.73437,-0.29687 2.64062,-1.45312 1.34375,-1.73438 1.45313,-4.85938 z" />
    <path
       id="path1489"
       style="font-style:normal;font-variant:normal;font-weight:normal;font-stretch:normal;font-size:32px;font-family:Century;-inkscape-font-specification:Century"
       d="m 119.89844,116.46875 5.54687,-0.26562 v 11.28125 q 1.15625,-1.5 2.48438,-2.23438 1.32812,-0.75 2.8125,-0.75 1.40625,0 2.53125,0.67188 0.875,0.53125 1.48437,1.85937 0.625,1.32812 0.625,3.14062 v 6.95313 q 0,0.67187 0.34375,0.98437 0.34375,0.29688 1.07813,0.29688 h 1.25 v 1.17187 h -7.90625 v -1.17187 h 0.875 q 1,0 1.375,-0.3125 0.39062,-0.32813 0.39062,-0.96875 v -6.95313 q 0,-1.82812 -0.89062,-2.84374 -0.875,-1.03125 -2.25,-1.03125 -1.07813,0 -2,0.57812 -0.92188,0.57813 -1.5625,1.76562 -0.64063,1.17188 -0.64063,2.48438 v 5.84375 q 0,0.78125 0.32813,1.10937 0.32812,0.32813 1.07812,0.32813 h 1.25 v 1.17187 h -7.73437 v -1.17187 h 0.875 q 0.89062,0 1.26562,-0.34375 0.375,-0.35938 0.375,-1.09375 V 119.5 q 0,-0.9375 -0.5,-1.39062 -0.48437,-0.46875 -1.42187,-0.46875 h -1.0625 z" />
    <path
       id="path1491"
       style="font-style:normal;font-variant:normal;font-weight:normal;font-stretch:normal;font-size:32px;font-family:Century;-inkscape-font-specification:Century"
       d="m 153.57031,132.35937 h -10.48437 q 0.0781,3.34375 1.25,4.71875 1.34375,1.54688 3.42187,1.54688 3.0625,0 4.92188,-3.48438 l 1.01562,0.4375 q -2.28125,4.4375 -6.59375,4.4375 -2.9375,0 -4.95312,-2.125 -2,-2.125 -2,-5.4375 0,-3.5625 1.96875,-5.74999 1.98437,-2.20313 4.875,-2.20313 2.125,0 3.67187,1.09375 1.54688,1.09375 2.32813,3.14062 0.54687,1.4375 0.57812,3.625 z M 143.08594,131.25 h 6.34375 q 0.5625,0 0.875,-0.375 0.3125,-0.39063 0.3125,-1.3125 0,-1.71875 -1.07813,-2.92187 -1.0625,-1.20313 -2.51562,-1.20313 -1.625,0 -2.76563,1.45313 -1.125,1.45312 -1.17187,4.35937 z" />
    <path
       id="path1493"
       style="font-style:normal;font-variant:normal;font-weight:normal;font-stretch:normal;font-size:32px;font-family:Century;-inkscape-font-specification:Century"
       d="m 173.00781,116.46875 5.71875,-0.26562 v 20.03124 q 0,1.17188 0.4375,1.67188 0.45313,0.5 1.34375,0.5 h 1.01563 v 1.17187 h -5 l -0.375,-2.98437 q -0.89063,1.59375 -2.09375,2.40625 -1.1875,0.79687 -2.67188,0.79687 -2.5,0 -4.26562,-2.09375 -1.75,-2.09375 -1.75,-5.53125 0,-3.71875 2.25,-5.93749 1.76562,-1.73438 4.0625,-1.73438 1.40625,0 2.51562,0.70313 1.125,0.70312 1.95313,2.125 v -8.26563 q 0,-0.65625 -0.51563,-1.03125 -0.5,-0.39062 -1.57812,-0.39062 h -1.04688 z m -0.90625,9.32813 q -1.6875,0 -2.6875,1.39062 -0.98437,1.39062 -0.98437,4.6875 0,3.57812 1.01562,5.04687 1.01563,1.45313 2.60938,1.45313 1.70312,0 2.90625,-1.625 1.21875,-1.64063 1.21875,-4.78125 0,-2.96875 -1.29688,-4.67187 -1.125,-1.5 -2.78125,-1.5 z" />
    <path
       id="path1495"
       style="font-style:normal;font-variant:normal;font-weight:normal;font-stretch:normal;font-size:32px;font-family:Century;-inkscape-font-specification:Century"
       d="m 198.55469,137.96875 0.5625,0.875 q -1.14063,1.17187 -2.53125,1.17187 -1.0625,0 -1.79688,-0.57812 -0.71875,-0.57813 -1.26562,-2.03125 -1.48438,1.5625 -2.60938,2.09375 -1.125,0.51562 -2.70312,0.51562 -2.25,0 -3.42188,-0.96875 -1.17187,-0.96875 -1.17187,-2.48437 0,-2.28125 2.67187,-3.78125 2.6875,-1.51563 7.14063,-2.01563 v -2.21875 q 0,-1.18749 -0.95313,-2.03124 -0.95312,-0.84375 -2.42187,-0.84375 -1.35938,0 -2.34375,0.5625 -0.70313,0.42187 -0.70313,0.82812 0,0.23438 0.375,0.73438 0.45313,0.62499 0.45313,1.10937 0,0.70312 -0.45313,1.15625 -0.45312,0.4375 -1.1875,0.4375 -0.78125,0 -1.3125,-0.53125 -0.51562,-0.53125 -0.51562,-1.35938 0,-1.54687 1.73437,-2.82812 1.75,-1.28125 4.57813,-1.28125 2.60937,0 3.98437,1.125 1.375,1.14063 1.375,2.76562 v 8 q 0,1.0625 0.34375,1.5625 0.34375,0.51563 0.89063,0.51563 0.60937,0 1.28125,-0.5 z m -5.125,-6.17188 q -3.96875,0.54688 -5.625,1.78125 -1.23438,0.9375 -1.23438,2.65625 0,1.20313 0.64063,1.89063 0.64062,0.67187 1.67187,0.67187 1.84375,0 3.1875,-1.39062 1.35938,-1.40625 1.35938,-3.51563 z" />
    <path
       id="path1497"
       style="font-style:normal;font-variant:normal;font-weight:normal;font-stretch:normal;font-size:32px;font-family:Century;-inkscape-font-specification:Century"
       d="m 204.74219,118.96875 h 1.0625 v 5.96875 h 4.73437 v 1.4375 h -4.73437 v 9.39062 q 0,1.21875 0.57812,1.875 0.57813,0.64063 1.46875,0.64063 1.0625,0 1.8125,-0.98438 0.75,-0.98437 0.875,-3.25 h 1.04688 q -0.0937,2.92188 -1.32813,4.34375 -1.23437,1.40625 -3.20312,1.40625 -1.8125,0 -2.84375,-0.98437 -1.01563,-1 -1.01563,-2.60938 V 126.375 h -2.54687 v -1.09375 q 1.73437,-0.29687 2.64062,-1.45312 1.34375,-1.73438 1.45313,-4.85938 z" />
    <path
       id="path1499"
       style="font-style:normal;font-variant:normal;font-weight:normal;font-stretch:normal;font-size:32px;font-family:Century;-inkscape-font-specification:Century"
       d="m 227.07031,132.35937 h -10.48437 q 0.0781,3.34375 1.25,4.71875 1.34375,1.54688 3.42187,1.54688 3.0625,0 4.92188,-3.48438 l 1.01562,0.4375 q -2.28125,4.4375 -6.59375,4.4375 -2.9375,0 -4.95312,-2.125 -2,-2.125 -2,-5.4375 0,-3.5625 1.96875,-5.74999 1.98437,-2.20313 4.875,-2.20313 2.125,0 3.67187,1.09375 1.54688,1.09375 2.32813,3.14062 0.54687,1.4375 0.57812,3.625 z M 216.58594,131.25 h 6.34375 q 0.5625,0 0.875,-0.375 0.3125,-0.39063 0.3125,-1.3125 0,-1.71875 -1.07813,-2.92187 -1.0625,-1.20313 -2.51562,-1.20313 -1.625,0 -2.76563,1.45313 -1.125,1.45312 -1.17187,4.35937 z" />
  </g>
</svg>
