<?xml version="1.0" encoding="UTF-8" standalone="no"?>
<svg
   xmlns:dc="http://purl.org/dc/elements/1.1/"
   xmlns:cc="http://creativecommons.org/ns#"
   xmlns:rdf="http://www.w3.org/1999/02/22-rdf-syntax-ns#"
   xmlns:svg="http://www.w3.org/2000/svg"
   xmlns="http://www.w3.org/2000/svg"
   xmlns:sodipodi="http://sodipodi.sourceforge.net/DTD/sodipodi-0.dtd"
   xmlns:inkscape="http://www.inkscape.org/namespaces/inkscape"
   viewBox="0 0 256 256"
   version="1.1"
   id="svg8"
   sodipodi:docname="Stemma2020.svg"
   inkscape:version="0.92.3 (2405546, 2018-03-11)">
  <sodipodi:namedview
     pagecolor="#ffffff"
     bordercolor="#666666"
     borderopacity="1"
     objecttolerance="10"
     gridtolerance="10"
     guidetolerance="10"
     inkscape:pageopacity="0"
     inkscape:pageshadow="2"
     inkscape:window-width="1812"
     inkscape:window-height="1051"
     id="namedview5900"
     showgrid="false"
     inkscape:zoom="0.921875"
     inkscape:cx="128"
     inkscape:cy="128"
     inkscape:window-x="-9"
     inkscape:window-y="-9"
     inkscape:window-maximized="1"
     inkscape:current-layer="svg8" />
  <defs
     id="defs2" />
  <metadata
     id="metadata5">
    <rdf:RDF>
      <cc:Work
         rdf:about="">
        <dc:format>image/svg+xml</dc:format>
        <dc:type
           rdf:resource="http://purl.org/dc/dcmitype/StillImage" />
        <dc:title></dc:title>
      </cc:Work>
    </rdf:RDF>
  </metadata>
  <g
     aria-label="#stemma2020"
     style="font-style:normal;font-weight:normal;font-size:40px;line-height:1.25;font-family:sans-serif;letter-spacing:0px;word-spacing:0px;fill:#000000;fill-opacity:1;stroke:#000000;stroke-width:0.75590551;stroke-miterlimit:4;stroke-dasharray:none;stroke-opacity:1"
     id="flowRoot6445"
     transform="translate(77.627438,283.88833)">
    <path
       d="m -62.56,-155.61913 q 0.04,-0.72 0.68,-1.24 0.68,-0.52 1.76,-0.84 1.12,-0.32 2.6,-0.48 1.48,-0.16 3.16,-0.2 0.92,-4.24 1.56,-7.64 0.64,-3.4 1.12,-5.64 0.12,-0.56 0.4,-1.04 0.28,-0.48 1.4,-0.76 -0.12,0.52 -0.4,1.96 -0.24,1.4 -0.64,3.44 -0.36,2.04 -0.84,4.52 -0.44,2.48 -0.96,5.12 h 0.16 q 1.28,0 2.52,0.04 1.24,0.04 2.44,0.12 0.92,-4.28 1.56,-7.68 0.68,-3.44 1.16,-5.72 0.12,-0.56 0.4,-1.04 0.28,-0.48 1.4,-0.76 -0.12,0.52 -0.4,1.96 -0.24,1.44 -0.64,3.52 -0.4,2.08 -0.88,4.6 -0.48,2.52 -1,5.2 2.28,0.12 4.28,0.28 2.04,0.16 3.8,0.16 -1.08,0.92 -2.12,1.12 -1,0.16 -1.92,0.16 -1.28,0 -2.36,0.04 -1.04,0 -2,0 -0.12,0.6 -0.32,1.56 -0.2,0.92 -0.28,1.48 2.12,0.12 3.96,0.28 1.88,0.12 3.52,0.12 -1.08,0.92 -2.08,1.12 -1,0.16 -1.92,0.16 -1.08,0 -2.04,0 -0.92,0 -1.8,0.04 -0.68,3.36 -1.28,5.88 -0.6,2.52 -1.32,4.2 -0.68,1.68 -1.56,2.52 -0.88,0.88 -2.08,0.88 0.52,-0.64 1.08,-1.96 0.56,-1.28 1.12,-3.08 0.56,-1.76 1.12,-3.88 0.56,-2.16 1.12,-4.44 h -5.04 q -0.68,3.32 -1.28,5.84 -0.6,2.48 -1.28,4.16 -0.68,1.68 -1.56,2.52 -0.84,0.84 -2.08,0.84 0.52,-0.64 1.04,-1.92 0.56,-1.28 1.12,-3.04 0.56,-1.76 1.12,-3.88 0.56,-2.12 1.12,-4.44 -1.36,0.08 -2.76,0.16 -1.36,0.08 -3.12,0.24 l -2.24,0.2 q 0.04,-0.76 0.72,-1.28 0.72,-0.52 1.88,-0.84 1.16,-0.32 2.68,-0.48 1.56,-0.16 3.36,-0.2 0.08,-0.44 0.24,-1.28 0.2,-0.84 0.32,-1.28 -1.28,0.08 -2.56,0.16 -1.28,0.08 -2.88,0.24 z m 8.88,1.96 q 1.28,0 2.56,0.04 1.28,0.04 2.48,0.12 l 0.64,-2.88 q -1.56,0 -2.8,0.04 -1.24,0 -2.36,0.04 z"
       style="font-style:normal;font-variant:normal;font-weight:normal;font-stretch:normal;font-family:'Dancing Script';-inkscape-font-specification:'Dancing Script';stroke:#000000;stroke-width:0.75590551;stroke-miterlimit:4;stroke-dasharray:none;stroke-opacity:1"
       id="path6453"
       inkscape:connector-curvature="0" />
    <path
       d="m -38.003125,-147.85913 q 0,-1.2 0.36,-1.84 0.32,-0.64 0.76,-0.96 0.44,-0.32 0.84,-0.44 0.44,-0.16 0.6,-0.36 1.2,-1.32 2.2,-2.76 1,-1.44 1.76,-3.04 v -0.48 q 0,-1.48 0.48,-2.08 0.52,-0.64 1.08,-0.64 0.64,0 0.64,0.52 0,0.2 -0.12,0.64 -0.12,0.44 -0.12,1.12 0,1 0.32,2.12 0.32,1.08 0.72,2.32 0.4,1.2 0.72,2.52 0.32,1.32 0.32,2.68 0,1.08 -0.24,1.96 1.4,-0.24 2.64,-1.24 1.24,-1 2.4,-3.28 l 0.36,0.4 q -0.76,2.2 -2.28,3.36 -1.52,1.12 -3.32,1.4 -0.64,1.72 -2.04,2.52 -1.36,0.8 -3.08,0.8 -1.4,0 -2.36,-0.48 -0.96,-0.48 -1.56,-1.24 -0.56,-0.76 -0.8,-1.68 -0.28,-0.92 -0.28,-1.84 z m 7.96,-0.64 q 0,-1.92 -0.48,-3.72 -0.44,-1.84 -0.76,-3.52 -0.92,1.52 -1.96,2.92 -1,1.36 -1.92,2.28 0.6,1.28 1.84,2.4 1.28,1.12 3.12,1.52 0.08,-0.4 0.12,-0.84 0.04,-0.44 0.04,-1.04 z m -2.88,4.48 q 0.24,0 0.56,-0.08 0.36,-0.04 0.72,-0.24 0.36,-0.2 0.68,-0.56 0.32,-0.4 0.56,-1.08 -1.68,-0.32 -3,-1.28 -1.28,-1 -1.92,-2.04 -0.88,0.04 -0.88,1.4 0,0.72 0.2,1.44 0.24,0.68 0.64,1.24 0.44,0.52 1.04,0.84 0.6,0.36 1.4,0.36 z"
       style="font-style:normal;font-variant:normal;font-weight:normal;font-stretch:normal;font-family:'Dancing Script';-inkscape-font-specification:'Dancing Script';stroke:#000000;stroke-width:0.75590551;stroke-miterlimit:4;stroke-dasharray:none;stroke-opacity:1"
       id="path6455"
       inkscape:connector-curvature="0" />
    <path
       d="m -11.215,-156.69913 q -4.4,0.48 -7.04,0.48 h -0.6 q -0.92,2.16 -1.56,4.36 -0.64,2.2 -0.64,4.36 0,1.76 0.52,2.48 0.52,0.72 1.72,0.72 2.08,0 4.08,-1.84 2,-1.84 3.52,-5 l 0.52,0.4 q -0.72,1.68 -1.76,3.16 -1,1.44 -2.2,2.52 -1.2,1.04 -2.56,1.64 -1.36,0.6 -2.76,0.6 -3.56,0 -3.56,-3.96 0,-1.8 0.64,-4.32 0.64,-2.56 1.68,-5.32 -0.4,-0.08 -0.76,-0.12 -0.36,-0.08 -0.68,-0.2 v -0.72 q 0.32,0.04 0.76,0.08 0.44,0.04 1,0.08 0.84,-2.16 1.8,-4.16 0.96,-2.04 1.88,-3.6 0.96,-1.6 1.8,-2.52 0.88,-0.96 1.48,-0.96 0.32,0 0.56,0.24 0.28,0.2 0.28,0.64 0,0.52 -0.52,1.56 -0.48,1 -1.28,2.36 -0.76,1.36 -1.72,3.04 -0.92,1.68 -1.8,3.52 h 1.48 q 1.32,0 2.76,-0.04 1.44,-0.04 2.96,-0.2 z"
       style="font-style:normal;font-variant:normal;font-weight:normal;font-stretch:normal;font-family:'Dancing Script';-inkscape-font-specification:'Dancing Script';stroke:#000000;stroke-width:0.75590551;stroke-miterlimit:4;stroke-dasharray:none;stroke-opacity:1"
       id="path6457"
       inkscape:connector-curvature="0" />
    <path
       d="m 0.11125,-156.61913 q 0,1.52 -0.92,2.88 -0.88,1.32 -2.32,2.36 -1.44,1.04 -3.2,1.72 -1.76,0.64 -3.48,0.8 -0.08,0.4 -0.12,0.76 -0.04,0.36 -0.04,0.68 0,0.6 0.12,1.2 0.16,0.6 0.52,1.08 0.36,0.48 0.96,0.76 0.64,0.32 1.56,0.32 1.28,0 2.56,-0.56 1.28,-0.56 2.44,-1.52 1.16,-1 2.16,-2.28 1.04,-1.28 1.8,-2.72 l 0.48,0.36 q -0.8,1.8 -1.96,3.28 -1.16,1.44 -2.52,2.48 -1.32,1 -2.84,1.56 -1.48,0.56 -2.96,0.56 -2.44,0 -3.68,-1.36 -1.2,-1.32 -1.2,-3.28 0,-1.2 0.44,-2.52 0.4,-1.32 1.12,-2.6 0.76,-1.28 1.72,-2.44 1,-1.16 2.12,-2.04 1.16,-0.88 2.36,-1.4 1.2,-0.52 2.4,-0.52 0.92,0 1.68,0.48 0.8,0.48 0.8,1.96 z m -2.6,-1.2 q -0.96,0 -2.04,0.76 -1.08,0.72 -2.08,1.92 -1,1.16 -1.8,2.64 -0.8,1.44 -1.2,2.88 1.08,-0.36 2.44,-1.04 1.36,-0.72 2.6,-1.68 1.24,-0.96 2.08,-2.12 0.84,-1.16 0.84,-2.44 0,-0.44 -0.16,-0.68 -0.16,-0.24 -0.68,-0.24 z"
       style="font-style:normal;font-variant:normal;font-weight:normal;font-stretch:normal;font-family:'Dancing Script';-inkscape-font-specification:'Dancing Script';stroke:#000000;stroke-width:0.75590551;stroke-miterlimit:4;stroke-dasharray:none;stroke-opacity:1"
       id="path6459"
       inkscape:connector-curvature="0" />
    <path
       d="m 11.750625,-143.77913 q -0.24,0 -0.6,-0.04 -0.32,-0.04 -0.68,-0.16 -0.32,-0.08 -0.56,-0.24 -0.2,-0.16 -0.2,-0.36 0,-0.28 0.4,-1.36 0.4,-1.08 0.84,-2.44 0.48,-1.4 0.88,-2.88 0.4,-1.48 0.4,-2.52 0,-0.68 -0.24,-1.08 -0.2,-0.44 -0.76,-0.44 -0.88,0 -2.12,1.08 -1.24,1.08 -2.56,2.76 -1.28,1.68 -2.48,3.76 -1.2,2.08 -1.92,4.12 -0.28,0 -0.68,-0.08 -0.36,-0.08 -0.68,-0.2 -0.32,-0.12 -0.56,-0.28 -0.24,-0.12 -0.24,-0.28 0,-0.24 0.44,-1.44 0.4,-1.2 0.92,-2.8 0.52,-1.64 0.96,-3.36 0.44,-1.76 0.44,-3.08 0.24,-0.28 0.76,-0.56 0.52,-0.28 1.08,-0.28 1.08,0 1.08,1.04 0,0.56 -0.32,1.8 -0.28,1.24 -0.72,2.76 0.8,-1.28 1.8,-2.6 1.04,-1.36 2.12,-2.48 1.12,-1.12 2.28,-1.8 1.16,-0.72 2.24,-0.72 1.24,0 1.68,0.92 0.48,0.88 0.48,2.12 0,0.76 -0.16,1.6 -0.12,0.8 -0.32,1.6 -0.16,0.76 -0.4,1.4 -0.2,0.64 -0.36,1.04 0.64,-1.12 1.36,-2.24 0.72,-1.12 1.56,-1.96 0.84,-0.88 1.76,-1.4 0.92,-0.56 1.96,-0.56 1.28,0 1.76,0.76 0.52,0.76 0.52,1.8 0,0.8 -0.24,1.72 -0.24,0.88 -0.52,1.8 -0.24,0.88 -0.48,1.72 -0.24,0.8 -0.24,1.44 0,0.56 0.24,0.96 0.28,0.4 0.96,0.4 0.84,0 1.6,-0.6 0.76,-0.6 1.44,-1.52 0.68,-0.96 1.24,-2.04 0.6,-1.12 1.08,-2.16 l 0.48,0.56 q -0.48,1.28 -1.2,2.56 -0.68,1.24 -1.56,2.28 -0.84,1.04 -1.92,1.68 -1.04,0.64 -2.24,0.64 -1.4,0 -2.04,-0.88 -0.64,-0.84 -0.64,-2.04 0,-0.72 0.16,-1.48 0.2,-0.76 0.44,-1.48 0.24,-0.76 0.4,-1.44 0.2,-0.68 0.2,-1.28 0,-0.8 -0.36,-1.12 -0.36,-0.32 -0.8,-0.32 -1,0 -2.2,1.56 -1.16,1.52 -3.04,4.4 -0.64,0.96 -1.08,1.96 -0.44,0.96 -0.84,1.76 z"
       style="font-style:normal;font-variant:normal;font-weight:normal;font-stretch:normal;font-family:'Dancing Script';-inkscape-font-specification:'Dancing Script';stroke:#000000;stroke-width:0.75590551;stroke-miterlimit:4;stroke-dasharray:none;stroke-opacity:1"
       id="path6461"
       inkscape:connector-curvature="0" />
    <path
       d="m 37.61,-143.77913 q -0.24,0 -0.6,-0.04 -0.32,-0.04 -0.68,-0.16 -0.32,-0.08 -0.56,-0.24 -0.2,-0.16 -0.2,-0.36 0,-0.28 0.4,-1.36 0.4,-1.08 0.84,-2.44 0.48,-1.4 0.88,-2.88 0.4,-1.48 0.4,-2.52 0,-0.68 -0.24,-1.08 -0.2,-0.44 -0.76,-0.44 -0.88,0 -2.12,1.08 -1.24,1.08 -2.56,2.76 -1.28,1.68 -2.48,3.76 -1.2,2.08 -1.92,4.12 -0.28,0 -0.68,-0.08 -0.36,-0.08 -0.68,-0.2 -0.32,-0.12 -0.56,-0.28 -0.24,-0.12 -0.24,-0.28 0,-0.24 0.44,-1.44 0.4,-1.2 0.92,-2.8 0.52,-1.64 0.96,-3.36 0.44,-1.76 0.44,-3.08 0.24,-0.28 0.76,-0.56 0.52,-0.28 1.08,-0.28 1.08,0 1.08,1.04 0,0.56 -0.32,1.8 -0.28,1.24 -0.72,2.76 0.8,-1.28 1.8,-2.6 1.04,-1.36 2.12,-2.48 1.12,-1.12 2.28,-1.8 1.16,-0.72 2.24,-0.72 1.24,0 1.68,0.92 0.48,0.88 0.48,2.12 0,0.76 -0.16,1.6 -0.12,0.8 -0.32,1.6 -0.16,0.76 -0.4,1.4 -0.2,0.64 -0.36,1.04 0.64,-1.12 1.36,-2.24 0.72,-1.12 1.56,-1.96 0.84,-0.88 1.76,-1.4 0.92,-0.56 1.96,-0.56 1.28,0 1.76,0.76 0.52,0.76 0.52,1.8 0,0.8 -0.24,1.72 -0.24,0.88 -0.52,1.8 -0.24,0.88 -0.48,1.72 -0.24,0.8 -0.24,1.44 0,0.56 0.24,0.96 0.28,0.4 0.96,0.4 0.84,0 1.6,-0.6 0.76,-0.6 1.44,-1.52 0.68,-0.96 1.24,-2.04 0.6,-1.12 1.08,-2.16 l 0.48,0.56 q -0.48,1.28 -1.2,2.56 -0.68,1.24 -1.56,2.28 -0.84,1.04 -1.92,1.68 -1.04,0.64 -2.24,0.64 -1.4,0 -2.04,-0.88 -0.64,-0.84 -0.64,-2.04 0,-0.72 0.16,-1.48 0.2,-0.76 0.44,-1.48 0.24,-0.76 0.4,-1.44 0.2,-0.68 0.2,-1.28 0,-0.8 -0.36,-1.12 -0.36,-0.32 -0.8,-0.32 -1,0 -2.2,1.56 -1.16,1.52 -3.04,4.4 -0.64,0.96 -1.08,1.96 -0.44,0.96 -0.84,1.76 z"
       style="font-style:normal;font-variant:normal;font-weight:normal;font-stretch:normal;font-family:'Dancing Script';-inkscape-font-specification:'Dancing Script';stroke:#000000;stroke-width:0.75590551;stroke-miterlimit:4;stroke-dasharray:none;stroke-opacity:1"
       id="path6463"
       inkscape:connector-curvature="0" />
    <path
       d="m 64.309375,-153.13913 q 0.16,0.04 0.44,0.12 0.28,0.08 0.52,0.2 0.28,0.12 0.44,0.28 0.2,0.16 0.2,0.4 0,0.36 -0.36,1 -0.36,0.64 -0.8,1.44 -0.44,0.76 -0.8,1.6 -0.36,0.8 -0.36,1.52 0,0.6 0.32,1.2 0.32,0.56 1.04,0.56 1.08,0 2.84,-1.56 1.76,-1.56 3.56,-4.76 l 0.4,0.4 q -0.64,1.64 -1.56,3 -0.92,1.32 -2,2.28 -1.04,0.96 -2.16,1.48 -1.12,0.52 -2.2,0.52 -1.48,0 -2.2,-0.88 -0.68,-0.88 -0.68,-1.92 0,-0.48 0.12,-1.16 -1.76,2.32 -3.16,3.48 -1.4,1.16 -2.88,1.16 -1.28,0 -2.12,-0.84 -0.84,-0.8 -0.84,-2.48 0,-1.2 0.48,-2.56 0.44,-1.36 1.24,-2.72 0.8,-1.4 1.88,-2.64 1.08,-1.28 2.28,-2.24 1.24,-0.96 2.56,-1.52 1.32,-0.6 2.64,-0.6 1.56,0 2.6,0.84 1.04,0.8 1.04,2.16 0,1 -0.56,1.36 -0.52,0.36 -1.4,0.36 0.2,-0.72 0.2,-1.4 0,-0.92 -0.44,-1.56 -0.44,-0.68 -1.52,-0.68 -0.96,0 -1.92,0.56 -0.96,0.56 -1.88,1.52 -0.92,0.92 -1.72,2.12 -0.8,1.2 -1.44,2.48 -0.6,1.24 -0.96,2.48 -0.32,1.2 -0.32,2.16 0,1.56 1.08,1.56 0.92,0 2.08,-0.96 1.16,-0.96 2.32,-2.32 1.16,-1.36 2.2,-2.84 1.08,-1.52 1.8,-2.6 z"
       style="font-style:normal;font-variant:normal;font-weight:normal;font-stretch:normal;font-family:'Dancing Script';-inkscape-font-specification:'Dancing Script';stroke:#000000;stroke-width:0.75590551;stroke-miterlimit:4;stroke-dasharray:none;stroke-opacity:1"
       id="path6465"
       inkscape:connector-curvature="0" />
    <path
       d="m 77.929375,-161.57913 q -1.4,-0.36 -2.12,-1.12 -0.68,-0.76 -0.68,-2.44 0,-1.6 0.6,-3.08 0.64,-1.52 1.76,-2.68 1.16,-1.16 2.76,-1.84 1.6,-0.72 3.52,-0.72 1.48,0 2.64,0.56 1.2,0.56 2.04,1.56 0.84,1 1.28,2.32 0.44,1.32 0.44,2.84 0,2.04 -0.52,4.04 -0.52,1.96 -1.36,3.84 -0.8,1.76 -1.88,3.52 -1.08,1.76 -2.36,3.44 -1.24,1.64 -2.64,3.12 -1.4,1.48 -2.84,2.64 l 1.12,0.24 q 2.08,0.48 4.04,0.84 2,0.4 3.44,0.4 0.76,0 1.4,-0.24 0.68,-0.2 1.64,-0.76 -0.52,2.04 -1.52,2.96 -0.96,0.96 -2.56,0.96 -1.52,0 -3.6,-0.76 -2.08,-0.72 -4.08,-1.56 -0.44,-0.2 -0.88,-0.4 -0.4,-0.16 -0.84,-0.32 -1.28,0.8 -2.4,1.24 -1.12,0.48 -2.16,0.48 -1.2,0 -1.96,-0.6 -0.76,-0.6 -0.76,-1.56 0,-0.92 0.72,-1.4 0.72,-0.52 2.28,-0.52 0.88,0 1.92,0.16 1.08,0.16 2.28,0.4 1.84,-1.6 3.72,-4.04 1.92,-2.44 3.48,-5.24 1.56,-2.84 2.52,-5.8 1,-2.96 1,-5.6 0,-3 -1.2,-4.32 -1.2,-1.36 -3.04,-1.36 -1.32,0 -2.36,0.64 -1,0.6 -1.72,1.68 -0.68,1.08 -1.04,2.56 -0.36,1.48 -0.36,3.2 0,0.8 0.08,1.4 0.12,0.56 0.4,1.32 z m -5.8,18 q 0.64,0 1.4,-0.36 0.76,-0.32 1.6,-0.88 -0.92,-0.32 -1.72,-0.52 -0.76,-0.2 -1.32,-0.2 -0.8,0 -1.12,0.36 -0.28,0.32 -0.28,0.6 0,0.44 0.44,0.72 0.44,0.28 1,0.28 z"
       style="font-style:normal;font-variant:normal;font-weight:normal;font-stretch:normal;font-family:'Dancing Script';-inkscape-font-specification:'Dancing Script';stroke:#000000;stroke-width:0.75590551;stroke-miterlimit:4;stroke-dasharray:none;stroke-opacity:1"
       id="path6467"
       inkscape:connector-curvature="0" />
    <path
       d="m 117.15125,-163.61913 q 0,4.08 -1.12,8.08 -1.12,4 -3.12,7.2 -1.96,3.2 -4.68,5.16 -2.68,2 -5.84,2 -2,0 -3.44,-0.88 -1.44,-0.84 -2.36,-2.28 -0.92,-1.44 -1.4,-3.32 -0.44,-1.88 -0.44,-3.96 0,-2.28 0.48,-4.76 0.48,-2.52 1.36,-4.96 0.92,-2.44 2.2,-4.6 1.28,-2.2 2.88,-3.88 1.6,-1.68 3.48,-2.64 1.92,-1 4.08,-1 1.8,0 3.28,0.72 1.48,0.68 2.48,1.96 1.04,1.28 1.6,3.12 0.56,1.8 0.56,4.04 z m -7.88,-8.76 q -1.8,0 -3.36,1.12 -1.52,1.08 -2.76,2.88 -1.24,1.76 -2.2,4.08 -0.92,2.28 -1.56,4.68 -0.64,2.4 -0.96,4.72 -0.32,2.28 -0.32,4.12 0,1.88 0.32,3.4 0.36,1.52 0.96,2.6 0.64,1.08 1.52,1.64 0.92,0.6 2.04,0.6 1.52,0 2.92,-1.04 1.4,-1 2.64,-2.68 1.24,-1.72 2.28,-3.92 1.04,-2.24 1.76,-4.68 0.76,-2.44 1.16,-4.92 0.4,-2.48 0.4,-4.68 0,-1.68 -0.28,-3.12 -0.24,-1.48 -0.84,-2.52 -0.56,-1.08 -1.48,-1.68 -0.92,-0.6 -2.24,-0.6 z"
       style="font-style:normal;font-variant:normal;font-weight:normal;font-stretch:normal;font-family:'Dancing Script';-inkscape-font-specification:'Dancing Script';stroke:#000000;stroke-width:0.75590551;stroke-miterlimit:4;stroke-dasharray:none;stroke-opacity:1"
       id="path6469"
       inkscape:connector-curvature="0" />
    <path
       d="m 125.58562,-161.57913 q -1.39999,-0.36 -2.11999,-1.12 -0.68001,-0.76 -0.68001,-2.44 0,-1.6 0.60001,-3.08 0.64,-1.52 1.75999,-2.68 1.16001,-1.16 2.76001,-1.84 1.59999,-0.72 3.51999,-0.72 1.48,0 2.64,0.56 1.2,0.56 2.04,1.56 0.84,1 1.28,2.32 0.44,1.32 0.44,2.84 0,2.04 -0.52,4.04 -0.52,1.96 -1.36,3.84 -0.8,1.76 -1.88,3.52 -1.08,1.76 -2.36,3.44 -1.24,1.64 -2.64,3.12 -1.39999,1.48 -2.83999,2.64 l 1.11999,0.24 q 2.08,0.48 4.04,0.84 2,0.4 3.44,0.4 0.76,0 1.4,-0.24 0.68,-0.2 1.64,-0.76 -0.52,2.04 -1.52,2.96 -0.96,0.96 -2.56,0.96 -1.52,0 -3.6,-0.76 -2.08,-0.72 -4.07999,-1.56 -0.44,-0.2 -0.88,-0.4 -0.4,-0.16 -0.84,-0.32 -1.28,0.8 -2.4,1.24 -1.12001,0.48 -2.16,0.48 -1.2,0 -1.96001,-0.6 -0.75999,-0.6 -0.75999,-1.56 0,-0.92 0.72,-1.4 0.72,-0.52 2.28,-0.52 0.88,0 1.92,0.16 1.08,0.16 2.28,0.4 1.83999,-1.6 3.71999,-4.04 1.92,-2.44 3.48,-5.24 1.56,-2.84 2.52,-5.8 1,-2.96 1,-5.6 0,-3 -1.2,-4.32 -1.19999,-1.36 -3.04,-1.36 -1.32,0 -2.36,0.64 -1,0.6 -1.72,1.68 -0.67999,1.08 -1.03999,2.56 -0.36001,1.48 -0.36001,3.2 0,0.8 0.08,1.4 0.11999,0.56 0.39999,1.32 z m -5.8,18 q 0.64,0 1.40001,-0.36 0.76,-0.32 1.59999,-0.88 -0.92,-0.32 -1.72,-0.52 -0.75999,-0.2 -1.31999,-0.2 -0.8,0 -1.12,0.36 -0.28001,0.32 -0.28001,0.6 0,0.44 0.44,0.72 0.44,0.28 1,0.28 z"
       style="font-style:normal;font-variant:normal;font-weight:normal;font-stretch:normal;font-family:'Dancing Script';-inkscape-font-specification:'Dancing Script';stroke:#000000;stroke-width:0.75590551;stroke-miterlimit:4;stroke-dasharray:none;stroke-opacity:1"
       id="path6471"
       inkscape:connector-curvature="0" />
    <path
       d="m 164.8075,-163.61913 q 0,4.08 -1.12,8.08 -1.12,4 -3.12,7.2 -1.96,3.2 -4.68,5.16 -2.68,2 -5.84,2 -2,0 -3.44,-0.88 -1.44,-0.84 -2.36,-2.28 -0.92,-1.44 -1.4,-3.32 -0.44,-1.88 -0.44,-3.96 0,-2.28 0.48,-4.76 0.48,-2.52 1.36,-4.96 0.92,-2.44 2.2,-4.6 1.28,-2.2 2.88,-3.88 1.6,-1.68 3.48,-2.64 1.92,-1 4.08,-1 1.8,0 3.28,0.72 1.48,0.68 2.48,1.96 1.04,1.28 1.6,3.12 0.56,1.8 0.56,4.04 z m -7.88,-8.76 q -1.8,0 -3.36,1.12 -1.52,1.08 -2.76,2.88 -1.24,1.76 -2.2,4.08 -0.92,2.28 -1.56,4.68 -0.64,2.4 -0.96,4.72 -0.32,2.28 -0.32,4.12 0,1.88 0.32,3.4 0.36,1.52 0.96,2.6 0.64,1.08 1.52,1.64 0.92,0.6 2.04,0.6 1.52,0 2.92,-1.04 1.4,-1 2.64,-2.68 1.24,-1.72 2.28,-3.92 1.04,-2.24 1.76,-4.68 0.76,-2.44 1.16,-4.92 0.4,-2.48 0.4,-4.68 0,-1.68 -0.28,-3.12 -0.24,-1.48 -0.84,-2.52 -0.56,-1.08 -1.48,-1.68 -0.92,-0.6 -2.24,-0.6 z"
       style="font-style:normal;font-variant:normal;font-weight:normal;font-stretch:normal;font-family:'Dancing Script';-inkscape-font-specification:'Dancing Script';stroke:#000000;stroke-width:0.75590551;stroke-miterlimit:4;stroke-dasharray:none;stroke-opacity:1"
       id="path6473"
       inkscape:connector-curvature="0" />
  </g>
</svg>
