<?xml version="1.0" encoding="UTF-8" standalone="no"?>
<svg
   xmlns:dc="http://purl.org/dc/elements/1.1/"
   xmlns:cc="http://creativecommons.org/ns#"
   xmlns:rdf="http://www.w3.org/1999/02/22-rdf-syntax-ns#"
   xmlns:svg="http://www.w3.org/2000/svg"
   xmlns="http://www.w3.org/2000/svg"
   viewBox="0 0 256 256"
   version="1.1"
   id="svg8">
  <defs
     id="defs2" />
  <metadata
     id="metadata5">
    <rdf:RDF>
      <cc:Work
         rdf:about="">
        <dc:format>image/svg+xml</dc:format>
        <dc:type
           rdf:resource="http://purl.org/dc/dcmitype/StillImage" />
        <dc:title></dc:title>
      </cc:Work>
    </rdf:RDF>
  </metadata>
  <g
     aria-label="#stemma2020"
     style="font-style:normal;font-weight:normal;font-size:40px;line-height:1.25;font-family:sans-serif;letter-spacing:0px;word-spacing:0px;fill:#000000;fill-opacity:1;stroke:none"
     id="text1446">
    <path
       d="m 24.875,122.78906 h 5.25 l 1.40625,-6.5625 H 33.5 l -1.40625,6.5625 h 5.640625 l 1.421875,-6.5625 h 1.984375 L 39.75,122.78906 h 3.171875 v 2 h -3.5625 l -1.25,5.98438 h 4.8125 v 2.03125 h -5.1875 l -1.390625,6.53125 h -2 l 1.390625,-6.53125 h -5.71875 l -1.328125,6.53125 h -2.015625 l 1.375,-6.53125 H 24.875 v -2.03125 h 3.59375 l 1.25,-5.98438 H 24.875 Z m 6.8125,2 -1.25,5.98438 h 5.6875 l 1.25,-5.98438 z"
       style="font-style:normal;font-variant:normal;font-weight:normal;font-stretch:normal;font-size:32px;font-family:Century;-inkscape-font-specification:Century"
       id="path1448" />
    <path
       d="m 46.015625,133.82031 q 0.96875,2.70313 2.21875,3.75 1.265625,1.03125 3.109375,1.03125 1.703125,0 2.609375,-0.73437 0.921875,-0.75 0.921875,-1.89063 0,-0.65625 -0.34375,-1.14062 -0.328125,-0.5 -0.921875,-0.73438 -0.59375,-0.25 -3.078125,-0.71875 -2.375,-0.46875 -3.3125,-0.98437 -0.9375,-0.51563 -1.46875,-1.42188 -0.515625,-0.90625 -0.515625,-1.96875 0,-1.60937 1.078125,-2.92187 1.390625,-1.67188 3.890625,-1.67188 1.90625,0 3.53125,1.20313 l 1.03125,-1.09375 h 0.640625 l 0.40625,5.21875 h -1.046875 q -0.6875,-2.21875 -1.859375,-3.1875 -1.171875,-0.98438 -2.890625,-0.98438 -1.484375,0 -2.328125,0.73438 -0.84375,0.71875 -0.84375,1.76562 0,0.92188 0.78125,1.53125 0.765625,0.625 3,0.98438 2.59375,0.4375 3.375,0.73437 1.28125,0.46875 1.984375,1.45313 0.703125,0.96875 0.703125,2.375 0,1.9375 -1.53125,3.28125 -1.515625,1.34375 -3.859375,1.34375 -2.171875,0 -4.03125,-1.4375 l -1.140625,1.3125 h -0.828125 l -0.3125,-5.82813 z"
       style="font-style:normal;font-variant:normal;font-weight:normal;font-stretch:normal;font-size:32px;font-family:Century;-inkscape-font-specification:Century"
       id="path1450" />
    <path
       d="m 62.921875,118.72656 h 1.0625 v 5.96875 h 4.734375 v 1.4375 h -4.734375 v 9.39063 q 0,1.21875 0.578125,1.875 0.578125,0.64062 1.46875,0.64062 1.0625,0 1.8125,-0.98437 0.75,-0.98438 0.875,-3.25 h 1.046875 q -0.09375,2.92187 -1.328125,4.34375 -1.234375,1.40625 -3.203125,1.40625 -1.8125,0 -2.84375,-0.98438 -1.015625,-1 -1.015625,-2.60937 v -9.82813 h -2.546875 v -1.09375 q 1.734375,-0.29687 2.640625,-1.45312 1.34375,-1.73438 1.453125,-4.85938 z"
       style="font-style:normal;font-variant:normal;font-weight:normal;font-stretch:normal;font-size:32px;font-family:Century;-inkscape-font-specification:Century"
       id="path1452" />
    <path
       d="M 85.25,132.11719 H 74.765625 q 0.07813,3.34375 1.25,4.71875 1.34375,1.54687 3.421875,1.54687 3.0625,0 4.921875,-3.48437 l 1.015625,0.4375 q -2.28125,4.4375 -6.59375,4.4375 -2.9375,0 -4.953125,-2.125 -2,-2.125 -2,-5.4375 0,-3.5625 1.96875,-5.75 1.984375,-2.20313 4.875,-2.20313 2.125,0 3.671875,1.09375 1.546875,1.09375 2.328125,3.14063 0.546875,1.4375 0.578125,3.625 z m -10.484375,-1.10938 h 6.34375 q 0.5625,0 0.875,-0.375 0.3125,-0.39062 0.3125,-1.3125 0,-1.71875 -1.078125,-2.92187 -1.0625,-1.20313 -2.515625,-1.20313 -1.625,0 -2.765625,1.45313 -1.125,1.45312 -1.171875,4.35937 z"
       style="font-style:normal;font-variant:normal;font-weight:normal;font-stretch:normal;font-size:32px;font-family:Century;-inkscape-font-specification:Century"
       id="path1454" />
    <path
       d="m 88.421875,124.69531 4.1875,-0.26562 q 0.34375,1.64062 0.453125,3.125 1.1875,-1.71875 2.375,-2.42188 1.1875,-0.70312 2.609375,-0.70312 1.515625,0 2.500005,0.79687 0.98437,0.79688 1.51562,2.59375 1.04688,-1.70312 2.32813,-2.54687 1.28125,-0.84375 2.79687,-0.84375 2,0 3,1.1875 1.28125,1.5625 1.28125,4.03125 v 7.26562 q 0,0.65625 0.32813,0.89063 0.4375,0.35937 1.29687,0.35937 h 0.73438 v 1.17188 h -7.35938 v -1.17188 h 0.73438 q 0.9375,0 1.3125,-0.3125 0.375,-0.3125 0.375,-0.9375 v -7.26562 q 0,-1.625 -0.79688,-2.51563 -0.79687,-0.89062 -2.09375,-0.89062 -0.98437,0 -1.78125,0.53125 -0.79687,0.51562 -1.25,1.48437 -0.67187,1.39063 -0.67187,2.35938 v 6.29687 q 0,0.64063 0.34375,0.95313 0.34375,0.29687 1.0625,0.29687 h 1 v 1.17188 H 97.25 v -1.17188 h 0.84375 q 0.796875,0 1.1875,-0.3125 0.390625,-0.3125 0.390625,-0.79687 v -6.75 q 0,-2.14063 -0.765625,-3.10938 -0.75,-0.96875 -2.03125,-0.96875 -1.65625,0 -2.546875,1.125 -1.265625,1.59375 -1.265625,3.71875 v 5.84375 q 0,0.67188 0.296875,0.92188 0.421875,0.32812 1.3125,0.32812 h 0.75 v 1.17188 h -7.375 v -1.17188 h 1.109375 q 0.625,0 0.953125,-0.3125 0.34375,-0.3125 0.34375,-0.79687 v -9.59375 q 0,-0.79688 -0.40625,-1.1875 -0.40625,-0.39063 -1.625,-0.5 z"
       style="font-style:normal;font-variant:normal;font-weight:normal;font-stretch:normal;font-size:32px;font-family:Century;-inkscape-font-specification:Century"
       id="path1456" />
    <path
       d="m 116.85938,124.69531 4.1875,-0.26562 q 0.34375,1.64062 0.45312,3.125 1.1875,-1.71875 2.375,-2.42188 1.1875,-0.70312 2.60938,-0.70312 1.51562,0 2.49999,0.79687 0.98438,0.79688 1.51563,2.59375 1.04687,-1.70312 2.32812,-2.54687 1.28125,-0.84375 2.79688,-0.84375 2,0 3,1.1875 1.28125,1.5625 1.28125,4.03125 v 7.26562 q 0,0.65625 0.32812,0.89063 0.4375,0.35937 1.29688,0.35937 h 0.73437 v 1.17188 h -7.35937 v -1.17188 h 0.73437 q 0.9375,0 1.3125,-0.3125 0.375,-0.3125 0.375,-0.9375 v -7.26562 q 0,-1.625 -0.79687,-2.51563 -0.79688,-0.89062 -2.09375,-0.89062 -0.98438,0 -1.78125,0.53125 -0.79688,0.51562 -1.25,1.48437 -0.67188,1.39063 -0.67188,2.35938 v 6.29687 q 0,0.64063 0.34375,0.95313 0.34375,0.29687 1.0625,0.29687 h 1 v 1.17188 h -7.45312 v -1.17188 h 0.84375 q 0.79688,0 1.1875,-0.3125 0.39062,-0.3125 0.39062,-0.79687 v -6.75 q 0,-2.14063 -0.76562,-3.10938 -0.75,-0.96875 -2.03125,-0.96875 -1.65625,0 -2.54687,1.125 -1.26563,1.59375 -1.26563,3.71875 v 5.84375 q 0,0.67188 0.29688,0.92188 0.42187,0.32812 1.3125,0.32812 h 0.75 v 1.17188 h -7.375 v -1.17188 h 1.10937 q 0.625,0 0.95313,-0.3125 0.34375,-0.3125 0.34375,-0.79687 v -9.59375 q 0,-0.79688 -0.40625,-1.1875 -0.40625,-0.39063 -1.625,-0.5 z"
       style="font-style:normal;font-variant:normal;font-weight:normal;font-stretch:normal;font-size:32px;font-family:Century;-inkscape-font-specification:Century"
       id="path1458" />
    <path
       d="m 159.85937,137.72656 0.5625,0.875 q -1.14062,1.17188 -2.53125,1.17188 -1.0625,0 -1.79687,-0.57813 -0.71875,-0.57812 -1.26563,-2.03125 -1.48437,1.5625 -2.60937,2.09375 -1.125,0.51563 -2.70313,0.51563 -2.25,0 -3.42187,-0.96875 -1.17188,-0.96875 -1.17188,-2.48438 0,-2.28125 2.67188,-3.78125 2.6875,-1.51562 7.14062,-2.01562 v -2.21875 q 0,-1.1875 -0.95312,-2.03125 -0.95313,-0.84375 -2.42188,-0.84375 -1.35937,0 -2.34375,0.5625 -0.70312,0.42187 -0.70312,0.82812 0,0.23438 0.375,0.73438 0.45312,0.625 0.45312,1.10937 0,0.70313 -0.45312,1.15625 -0.45313,0.4375 -1.1875,0.4375 -0.78125,0 -1.3125,-0.53125 -0.51563,-0.53125 -0.51563,-1.35937 0,-1.54688 1.73438,-2.82813 1.75,-1.28125 4.57812,-1.28125 2.60938,0 3.98438,1.125 1.375,1.14063 1.375,2.76563 v 8 q 0,1.0625 0.34375,1.5625 0.34375,0.51562 0.89062,0.51562 0.60938,0 1.28125,-0.5 z m -5.125,-6.17187 q -3.96875,0.54687 -5.625,1.78125 -1.23437,0.9375 -1.23437,2.65625 0,1.20312 0.64062,1.89062 0.64063,0.67188 1.67188,0.67188 1.84375,0 3.1875,-1.39063 1.35937,-1.40625 1.35937,-3.51562 z"
       style="font-style:normal;font-variant:normal;font-weight:normal;font-stretch:normal;font-size:32px;font-family:Century;-inkscape-font-specification:Century"
       id="path1460" />
    <path
       d="m 166.1875,135.91406 q -0.71875,0.92188 7.09375,0.92188 1.17187,0 1.67187,-0.60938 0.5,-0.60937 1.14063,-3.375 h 1.0625 l -0.5,6.48438 h -14 v -0.84375 l 4.54687,-5.17188 q 3.79688,-4.125 4.5625,-5.1875 1.09375,-1.51562 1.59375,-2.92187 0.5,-1.42188 0.5,-2.57813 0,-1.92187 -1.0625,-3.01562 -1.0625,-1.10938 -2.95312,-1.10938 -2.125,0 -3.46875,1.01563 -1.34375,1.01562 -1.34375,2.15625 0,0.39062 0.20312,0.59375 0.1875,0.20312 0.8125,0.35937 1.57813,0.375 1.57813,1.84375 0,0.79688 -0.53125,1.32813 -0.53125,0.51562 -1.35938,0.51562 -0.95312,0 -1.67187,-0.875 -0.71875,-0.89062 -0.71875,-2.3125 0,-1.59375 0.8125,-2.89062 0.82812,-1.3125 2.48437,-2.14063 1.65625,-0.84375 3.5625,-0.84375 1.89063,0 3.5,0.8125 1.625,0.8125 2.4375,2.14063 0.8125,1.3125 0.8125,2.875 0,1.07812 -0.40625,2.1875 -0.40625,1.10937 -1.1875,2.07812 -1.34375,1.67188 -2.76562,2.85938 l -4.125,3.46875 q -1.5625,1.3125 -2.28125,2.23437 z"
       style="font-style:normal;font-variant:normal;font-weight:normal;font-stretch:normal;font-size:32px;font-family:Century;-inkscape-font-specification:Century"
       id="path1462" />
    <path
       d="m 187.90625,117.25781 q 3.04687,0 5.07812,2.375 2.51563,2.92188 2.51563,8.85938 0,5.51562 -2.1875,8.40625 -2.1875,2.875 -5.28125,2.875 -2.98438,0 -4.98438,-2.42188 -2.5,-3.04687 -2.5,-8.79687 0,-5.46875 2.35938,-8.70313 1.89062,-2.59375 5,-2.59375 z m 0.0937,1.125 q -2.0625,0 -3.21875,1.98438 -1.15625,1.96875 -1.15625,8.1875 0,6.07812 1.1875,8.10937 1.20312,2.03125 3.21875,2.03125 2.03125,0 3.125,-1.875 1.29687,-2.23437 1.29687,-8.15625 0,-6.125 -1.21875,-8.20312 -1.21875,-2.07813 -3.23437,-2.07813 z"
       style="font-style:normal;font-variant:normal;font-weight:normal;font-stretch:normal;font-size:32px;font-family:Century;-inkscape-font-specification:Century"
       id="path1464" />
    <path
       d="m 201.8125,135.91406 q -0.71875,0.92188 7.09375,0.92188 1.17187,0 1.67187,-0.60938 0.5,-0.60937 1.14063,-3.375 h 1.0625 l -0.5,6.48438 h -14 v -0.84375 l 4.54687,-5.17188 q 3.79688,-4.125 4.5625,-5.1875 1.09375,-1.51562 1.59375,-2.92187 0.5,-1.42188 0.5,-2.57813 0,-1.92187 -1.0625,-3.01562 -1.0625,-1.10938 -2.95312,-1.10938 -2.125,0 -3.46875,1.01563 -1.34375,1.01562 -1.34375,2.15625 0,0.39062 0.20312,0.59375 0.1875,0.20312 0.8125,0.35937 1.57813,0.375 1.57813,1.84375 0,0.79688 -0.53125,1.32813 -0.53125,0.51562 -1.35938,0.51562 -0.95312,0 -1.67187,-0.875 -0.71875,-0.89062 -0.71875,-2.3125 0,-1.59375 0.8125,-2.89062 0.82812,-1.3125 2.48437,-2.14063 1.65625,-0.84375 3.5625,-0.84375 1.89063,0 3.5,0.8125 1.625,0.8125 2.4375,2.14063 0.8125,1.3125 0.8125,2.875 0,1.07812 -0.40625,2.1875 -0.40625,1.10937 -1.1875,2.07812 -1.34375,1.67188 -2.76562,2.85938 l -4.125,3.46875 q -1.5625,1.3125 -2.28125,2.23437 z"
       style="font-style:normal;font-variant:normal;font-weight:normal;font-stretch:normal;font-size:32px;font-family:Century;-inkscape-font-specification:Century"
       id="path1466" />
    <path
       d="m 223.53125,117.25781 q 3.04687,0 5.07812,2.375 2.51563,2.92188 2.51563,8.85938 0,5.51562 -2.1875,8.40625 -2.1875,2.875 -5.28125,2.875 -2.98438,0 -4.98438,-2.42188 -2.5,-3.04687 -2.5,-8.79687 0,-5.46875 2.35938,-8.70313 1.89062,-2.59375 5,-2.59375 z m 0.0937,1.125 q -2.0625,0 -3.21875,1.98438 -1.15625,1.96875 -1.15625,8.1875 0,6.07812 1.1875,8.10937 1.20312,2.03125 3.21875,2.03125 2.03125,0 3.125,-1.875 1.29687,-2.23437 1.29687,-8.15625 0,-6.125 -1.21875,-8.20312 -1.21875,-2.07813 -3.23437,-2.07813 z"
       style="font-style:normal;font-variant:normal;font-weight:normal;font-stretch:normal;font-size:32px;font-family:Century;-inkscape-font-specification:Century"
       id="path1468" />
  </g>
</svg>
