<?xml version="1.0" encoding="UTF-8" standalone="no"?>
<!-- Created with Inkscape (http://www.inkscape.org/) -->

<svg
   xmlns:dc="http://purl.org/dc/elements/1.1/"
   xmlns:cc="http://creativecommons.org/ns#"
   xmlns:rdf="http://www.w3.org/1999/02/22-rdf-syntax-ns#"
   xmlns:svg="http://www.w3.org/2000/svg"
   xmlns="http://www.w3.org/2000/svg"
   xmlns:sodipodi="http://sodipodi.sourceforge.net/DTD/sodipodi-0.dtd"
   xmlns:inkscape="http://www.inkscape.org/namespaces/inkscape"
   width="512"
   height="30"
   viewBox="0 0 512.00001 30"
   version="1.1"
   id="svg6533"
   sodipodi:docname="Text_Comments.svg"
   inkscape:version="0.92.3 (2405546, 2018-03-11)">
  <defs
     id="defs6527" />
  <sodipodi:namedview
     id="base"
     pagecolor="#ffffff"
     bordercolor="#666666"
     borderopacity="1.0"
     inkscape:pageopacity="0.0"
     inkscape:pageshadow="2"
     inkscape:zoom="2.8"
     inkscape:cx="194.11968"
     inkscape:cy="-110.76578"
     inkscape:document-units="px"
     inkscape:current-layer="layer1"
     showgrid="false"
     units="px"
     inkscape:window-width="1812"
     inkscape:window-height="1051"
     inkscape:window-x="-9"
     inkscape:window-y="-9"
     inkscape:window-maximized="1" />
  <metadata
     id="metadata6530">
    <rdf:RDF>
      <cc:Work
         rdf:about="">
        <dc:format>image/svg+xml</dc:format>
        <dc:type
           rdf:resource="http://purl.org/dc/dcmitype/StillImage" />
        <dc:title />
      </cc:Work>
    </rdf:RDF>
  </metadata>
  <g
     inkscape:label="Layer 1"
     inkscape:groupmode="layer"
     id="layer1"
     transform="translate(0,-1092.5197)">
    <rect
       style="opacity:1;fill:#ffffff;fill-opacity:1;stroke:none;stroke-width:0.18751344;stroke-linecap:round;stroke-linejoin:round;stroke-miterlimit:4;stroke-dasharray:none;stroke-opacity:1"
       id="rect7086"
       width="146.65475"
       height="20.599701"
       x="6.8035712"
       y="61.70982" />
    <g
       aria-label="comments? pop them here!"
       transform="translate(-5.3756513,1037.1756)"
       style="font-style:normal;font-weight:normal;font-size:40px;line-height:1.25;font-family:sans-serif;letter-spacing:0px;word-spacing:0px;fill:#4c4018;fill-opacity:1;stroke:none"
       id="flowRoot1964">
      <path
         d="m 11.265625,59.09738 h 0.504557 q 1.529948,0.276693 1.529948,1.171875 0,0.260417 -0.537109,0.585938 h -0.602214 q -0.423177,-0.520834 -0.61849,-0.520834 -1.302083,0.455729 -1.302083,0.78125 -1.3020831,2.473959 -1.3020831,6.705729 v 1.106771 q 0,2.880859 0.78125,6.917317 0.4557291,2.913412 1.2207031,3.889974 0.86263,0.748698 1.448568,0.78125 0.716145,0 1.839192,-1.432291 h 0.423177 q 0.374349,0 0.602214,0.455729 V 79.7354 q 0,0.748698 -1.611328,1.774089 -0.732422,0.309244 -1.334636,0.309244 h -0.09766 Q 11.086588,81.688525 9.9309894,80.679411 8.6777342,79.686572 7.798828,73.078499 7.4733072,71.662484 7.4733072,68.407276 V 68.016651 Q 7.5872395,61.27837 9.784505,59.618214 10.875,59.09738 11.265625,59.09738 Z"
         style="font-style:normal;font-variant:normal;font-weight:normal;font-stretch:normal;font-size:33.33333206px;font-family:'Moon Flower Bold';-inkscape-font-specification:'Moon Flower Bold, ';fill:#4c4018;fill-opacity:1"
         id="path2013" />
      <path
         d="m 21.063802,58.836964 q 2.213541,0 3.336588,9.08203 0.0651,0.862631 0.0651,2.18099 v 0.260417 q 0,0.260416 -0.04883,0.520833 0.04883,0.0651 0.04883,0.520833 v 0.0651 q 0,0.45573 -0.04883,0.520834 0.04883,0.260416 0.04883,0.325521 0,6.998697 -2.050781,8.723958 -0.830078,0.32552 -1.155599,0.32552 h -0.520833 q -2.652995,-0.634765 -3.271484,-6.363932 l -0.195313,-2.66927 q 0,-9.244792 2.360026,-12.906901 0.78125,-0.585937 1.432292,-0.585937 z m -2.327474,13.281249 q 0,3.629557 0.960286,6.347656 0.797526,1.595052 1.23698,1.595052 h 0.0651 q 0.976562,0 1.302083,-1.578776 0.69987,-1.660156 0.69987,-7.145182 V 70.03488 q 0,-3.792318 -1.350912,-8.707682 -0.439453,-0.976563 -0.651041,-1.123047 -0.358073,0.130208 -0.455729,0.423177 -1.806641,3.82487 -1.806641,11.490885 z"
         style="font-style:normal;font-variant:normal;font-weight:normal;font-stretch:normal;font-size:33.33333206px;font-family:'Moon Flower Bold';-inkscape-font-specification:'Moon Flower Bold, ';fill:#4c4018;fill-opacity:1"
         id="path2015" />
      <path
         d="m 28.290364,58.576547 q 0.764974,0.24414 4.52474,10.465494 h -0.537109 q 0,-0.423177 3.320312,-10.058593 h 0.78125 l 0.292969,0.569661 0.01628,0.716146 q -0.179037,5.826823 -0.179037,9.847005 0,1.546224 0.585938,11.360677 l -0.69987,0.341796 q -0.878906,0 -1.269531,-10.937499 v -7.633463 h 0.537109 q -2.311198,7.177734 -2.815755,7.584635 -1.041667,-0.0651 -4.052734,-8.544922 h 0.504557 v -0.130208 l 0.960286,18.929036 -0.667317,0.358073 q -0.911459,0 -0.911459,-0.716146 -0.569661,-17.008463 -1.155598,-21.761067 z"
         style="font-style:normal;font-variant:normal;font-weight:normal;font-stretch:normal;font-size:33.33333206px;font-family:'Moon Flower Bold';-inkscape-font-specification:'Moon Flower Bold, ';fill:#4c4018;fill-opacity:1"
         id="path2017" />
      <path
         d="m 40.074216,58.576547 q 0.764974,0.24414 4.52474,10.465494 h -0.53711 q 0,-0.423177 3.320313,-10.058593 h 0.78125 l 0.292968,0.569661 0.01628,0.716146 q -0.179036,5.826823 -0.179036,9.847005 0,1.546224 0.585937,11.360677 l -0.699869,0.341796 q -0.878907,0 -1.269532,-10.937499 v -7.633463 h 0.53711 q -2.311198,7.177734 -2.815755,7.584635 -1.041667,-0.0651 -4.052735,-8.544922 h 0.504558 v -0.130208 l 0.960286,18.929036 -0.667318,0.358073 q -0.911458,0 -0.911458,-0.716146 Q 39.89518,63.719776 39.309242,58.967172 Z"
         style="font-style:normal;font-variant:normal;font-weight:normal;font-stretch:normal;font-size:33.33333206px;font-family:'Moon Flower Bold';-inkscape-font-specification:'Moon Flower Bold, ';fill:#4c4018;fill-opacity:1"
         id="path2019" />
      <path
         d="m 54.624999,58.706755 0.146484,0.08138 q -0.455729,0 -0.455729,-0.09766 2.897135,0.260417 2.897135,0.813802 v 0.113933 q -0.211588,0.602213 -0.764974,0.602213 l -1.888021,-0.195312 q -0.130208,0 -0.830078,0.04883 l 0.03255,0.455729 q 0,1.074219 0.309245,8.284505 h 0.0651 q 0.472005,0 0.813802,-0.0651 1.529948,0.130208 2.408854,0.130208 l 0.374349,0.504557 v 0.276693 q 0,0.520833 -0.667317,0.520833 -0.585938,0 -1.888021,-0.130208 -0.86263,0.0651 -1.090495,0.0651 v -0.0651 q 0,4.589843 0.439453,10.286458 0.08138,0 0.08138,0.04883 2.034506,-0.113932 2.604167,-0.113932 0.504557,0.16276 0.716146,0.585937 v 0.130208 q 0,0.260417 -0.520833,0.585938 -2.587891,0.0651 -3.108724,0.130208 -1.220703,0 -1.220703,-1.155599 -0.45573,-6.217447 -0.45573,-10.367838 v -2.083333 q -0.32552,-5.729167 -0.32552,-7.714844 -0.195313,-0.976562 -0.195313,-1.220703 l 0.504557,-0.374349 h 0.878907 q 0.358073,0 1.139323,-0.08138 z"
         style="font-style:normal;font-variant:normal;font-weight:normal;font-stretch:normal;font-size:33.33333206px;font-family:'Moon Flower Bold';-inkscape-font-specification:'Moon Flower Bold, ';fill:#4c4018;fill-opacity:1"
         id="path2021" />
      <path
         d="m 61.60742,58.690479 q 0.683594,0 3.352865,9.147135 0.374349,2.083333 3.059896,10.270182 h -0.53711 v -0.227864 q -0.374349,-7.910156 -0.374349,-8.886719 0,-0.292969 0.08138,-1.985677 -0.01628,-0.179036 -0.01628,-0.78125 0.130208,-1.285807 0.130208,-2.034505 v -4.638672 q 0.08138,-0.683593 0.878906,-0.683593 l 0.683594,0.358073 q -0.195313,3.857421 -0.195313,5.71289 v 1.839193 q 0,5.664062 0.358073,14.794921 l -0.651041,0.325521 q -0.813802,0 -5.126953,-14.680989 l -1.708985,-5.826823 0.602214,0.976562 0.04883,-0.94401 q 0.113932,1.350911 0.113932,2.148437 l 0.01628,0.553386 q -0.130208,3.613281 -0.130208,5.061849 0,7.27539 0.585937,12.337239 h -0.813802 q -0.764974,0 -0.764974,-0.683594 -0.374348,-5.680338 -0.374348,-10.172526 V 59.374073 q 0.113932,-0.683594 0.781249,-0.683594 z"
         style="font-style:normal;font-variant:normal;font-weight:normal;font-stretch:normal;font-size:33.33333206px;font-family:'Moon Flower Bold';-inkscape-font-specification:'Moon Flower Bold, ';fill:#4c4018;fill-opacity:1"
         id="path2023" />
      <path
         d="m 78.762364,59.943734 0.423177,0.488282 v 0.260416 q 0,0.602214 -2.229817,0.602214 h -1.822917 q 0.195313,0 0.211589,-0.04883 l 0.130208,2.945963 q -0.0651,0.406901 -0.0651,0.439453 0.585937,9.847005 0.585937,14.046224 0.06511,0.113932 0.06511,0.32552 -0.06511,0.09766 -0.06511,0.06511 l 0.08138,0.439453 q -0.227865,0.520833 -0.61849,0.520833 h -0.260417 q -0.276692,0 -0.667317,-0.455729 0,-0.227865 0.0651,-0.732422 0,-1.383464 -0.585938,-14.046223 0,-2.050782 -0.113932,-3.580729 l 0.146484,0.08138 h -0.0651 l -2.278645,0.195312 q -0.423178,-0.455729 -0.423178,-0.846354 0,-0.276693 0.61849,-0.585937 0.569661,0.146484 0.553385,0.146484 1.253256,-0.113932 1.774089,-0.113932 h 2.669271 q 0.797526,0 1.871744,-0.146485 z"
         style="font-style:normal;font-variant:normal;font-weight:normal;font-stretch:normal;font-size:33.33333206px;font-family:'Moon Flower Bold';-inkscape-font-specification:'Moon Flower Bold, ';fill:#4c4018;fill-opacity:1"
         id="path2025" />
      <path
         d="m 86.233073,59.17876 0.374349,0.472006 v 0.211588 q 0,0.227865 -0.585938,0.634766 h -0.797526 q -1.448568,0 -1.953125,1.057942 -0.504557,1.367188 -0.504557,3.059896 0,1.025391 0.895182,3.385417 0.292969,0.585937 3.450521,3.45052 1.708984,2.441407 1.708984,4.801432 0,1.855469 -0.797526,3.629558 -0.423177,0.960286 -2.148437,1.595052 -0.651042,0.341796 -1.106771,0.341796 -0.61849,0 -0.86263,-0.520833 v -0.227864 q 0,-0.472006 1.009114,-0.569662 1.855469,-0.69987 1.855469,-1.448567 0.585938,-1.171875 0.585938,-2.978516 0,-2.360026 -2.115886,-4.60612 -1.757812,-1.334635 -2.636718,-2.58789 -0.634766,-0.683594 -1.23698,-3.499349 0,-0.341797 -0.0651,-0.86263 0,-2.164714 0.813802,-3.857422 1.025391,-1.48112 4.117839,-1.48112 z"
         style="font-style:normal;font-variant:normal;font-weight:normal;font-stretch:normal;font-size:33.33333206px;font-family:'Moon Flower Bold';-inkscape-font-specification:'Moon Flower Bold, ';fill:#4c4018;fill-opacity:1"
         id="path2027" />
      <path
         d="m 94.729166,59.162484 q 1.464844,0 2.734375,1.236979 0.992839,1.253256 0.992839,2.34375 v 0.45573 q 0,3.336588 -1.855469,6.380208 -0.488281,1.009114 -0.488281,3.238932 0.130208,1.074219 0.130208,1.708984 v 0.716146 q 0,0.537109 -0.569661,0.78125 h -0.292969 q -0.537109,0 -0.602213,-0.569662 0,-0.390625 0.0651,-0.488281 0,0.01628 -0.195313,-2.115885 0,-3.369141 1.334636,-5.159505 1.074218,-2.278646 1.074218,-4.622396 0,-1.253255 -1.139323,-2.213541 -0.86263,-0.390625 -1.253255,-0.390625 -1.741536,0.472005 -1.741536,1.497395 v 0.504558 l 0.195312,0.260416 v 0.146485 q 0,0.537109 -0.569661,0.78125 h -0.472005 q -0.61849,-0.309245 -0.61849,-0.846354 v -0.911459 q 0,-1.888021 2.945964,-2.734375 z M 95.25,79.670296 h 0.325521 q 0.309244,0 0.732421,0.569662 v 0.406901 q 0,0.846354 -0.927734,0.846354 -0.895182,0 -0.992838,-0.976563 0.0651,-0.390625 0.86263,-0.846354 z"
         style="font-style:normal;font-variant:normal;font-weight:normal;font-stretch:normal;font-size:33.33333206px;font-family:'Moon Flower Bold';-inkscape-font-specification:'Moon Flower Bold, ';fill:#4c4018;fill-opacity:1"
         id="path2029" />
      <path
         d="m 111.73762,58.31613 q 3.4668,0 4.6875,3.04362 0.21159,0.667318 0.2767,1.5625 0,4.117838 -1.44857,9.033203 -0.7487,1.285807 -2.14844,1.985677 -0.50455,0.01628 -0.50455,-0.130209 v 0.0651 q 0,0.846355 0.0651,1.432292 -0.0651,0.585938 -0.0651,0.651042 0.19531,3.678385 0.19531,3.971354 0.19531,0.03255 0.19531,0.78125 v 0.24414 q -0.26042,0.683594 -0.69987,0.86263 h -0.22786 q -0.3418,0 -0.66732,-0.504557 v -0.537109 q 0,-0.390625 0,-0.390625 -0.0488,-0.276693 -0.13021,-1.350912 0,-0.406901 0.0488,-0.406901 l -0.17904,-2.408854 q 0.0651,-0.667317 0.0651,-0.976562 -0.0651,-1.188151 -0.0651,-1.318359 -0.26042,-0.130209 -0.26042,-0.53711 0.14649,-0.553385 0.22787,-0.553385 -0.0977,-1.383464 -0.0977,-1.757813 l 0.30925,-11.523437 q -0.11393,0 -0.11393,-0.455729 v -0.195312 q 0,-0.260417 0.5371,-0.585938 z m 1.04167,1.383464 -0.30924,11.376952 q 0.0651,1.367188 0.0651,1.708985 l -0.16276,-0.08138 q 0.43945,0 1.0905,-0.683594 1.02539,-0.651042 1.70898,-7.796224 0.0651,-1.171875 0.0651,-1.546224 0,-1.546224 -1.75781,-2.783203 -0.472,-0.16276 -0.69987,-0.195312 z"
         style="font-style:normal;font-variant:normal;font-weight:normal;font-stretch:normal;font-size:33.33333206px;font-family:'Moon Flower Bold';-inkscape-font-specification:'Moon Flower Bold, ';fill:#4c4018;fill-opacity:1"
         id="path2031" />
      <path
         d="m 122.82161,58.836964 q 2.21355,0 3.33659,9.08203 0.0651,0.862631 0.0651,2.18099 v 0.260417 q 0,0.260416 -0.0488,0.520833 0.0488,0.0651 0.0488,0.520833 v 0.0651 q 0,0.45573 -0.0488,0.520834 0.0488,0.260416 0.0488,0.325521 0,6.998697 -2.05078,8.723958 -0.83008,0.32552 -1.1556,0.32552 h -0.52084 q -2.65299,-0.634765 -3.27148,-6.363932 l -0.19531,-2.66927 q 0,-9.244792 2.36002,-12.906901 0.78125,-0.585937 1.43229,-0.585937 z m -2.32747,13.281249 q 0,3.629557 0.96029,6.347656 0.79752,1.595052 1.23698,1.595052 h 0.0651 q 0.97656,0 1.30208,-1.578776 0.69987,-1.660156 0.69987,-7.145182 V 70.03488 q 0,-3.792318 -1.35091,-8.707682 -0.43945,-0.976563 -0.65104,-1.123047 -0.35807,0.130208 -0.45573,0.423177 -1.80664,3.82487 -1.80664,11.490885 z"
         style="font-style:normal;font-variant:normal;font-weight:normal;font-stretch:normal;font-size:33.33333206px;font-family:'Moon Flower Bold';-inkscape-font-specification:'Moon Flower Bold, ';fill:#4c4018;fill-opacity:1"
         id="path2033" />
      <path
         d="m 130.94336,58.31613 q 3.4668,0 4.6875,3.04362 0.21159,0.667318 0.27669,1.5625 0,4.117838 -1.44857,9.033203 -0.74869,1.285807 -2.14843,1.985677 -0.50456,0.01628 -0.50456,-0.130209 v 0.0651 q 0,0.846355 0.0651,1.432292 -0.0651,0.585938 -0.0651,0.651042 0.19531,3.678385 0.19531,3.971354 0.19531,0.03255 0.19531,0.78125 v 0.24414 q -0.26041,0.683594 -0.69987,0.86263 h -0.22786 q -0.3418,0 -0.66732,-0.504557 v -0.537109 q 0,-0.390625 0,-0.390625 -0.0488,-0.276693 -0.13021,-1.350912 0,-0.406901 0.0488,-0.406901 l -0.17903,-2.408854 q 0.0651,-0.667317 0.0651,-0.976562 -0.0651,-1.188151 -0.0651,-1.318359 -0.26042,-0.130209 -0.26042,-0.53711 0.14648,-0.553385 0.22786,-0.553385 -0.0977,-1.383464 -0.0977,-1.757813 l 0.30924,-11.523437 q -0.11393,0 -0.11393,-0.455729 v -0.195312 q 0,-0.260417 0.53711,-0.585938 z m 1.04167,1.383464 -0.30925,11.376952 q 0.0651,1.367188 0.0651,1.708985 l -0.16277,-0.08138 q 0.43946,0 1.0905,-0.683594 1.02539,-0.651042 1.70898,-7.796224 0.0651,-1.171875 0.0651,-1.546224 0,-1.546224 -1.75781,-2.783203 -0.47201,-0.16276 -0.69987,-0.195312 z"
         style="font-style:normal;font-variant:normal;font-weight:normal;font-stretch:normal;font-size:33.33333206px;font-family:'Moon Flower Bold';-inkscape-font-specification:'Moon Flower Bold, ';fill:#4c4018;fill-opacity:1"
         id="path2035" />
      <path
         d="m 153.76236,59.943734 0.42318,0.488282 v 0.260416 q 0,0.602214 -2.22982,0.602214 h -1.82291 q 0.19531,0 0.21159,-0.04883 l 0.1302,2.945963 q -0.0651,0.406901 -0.0651,0.439453 0.58594,9.847005 0.58594,14.046224 0.0651,0.113932 0.0651,0.32552 -0.0651,0.09766 -0.0651,0.06511 l 0.0814,0.439453 q -0.22787,0.520833 -0.61849,0.520833 h -0.26042 q -0.27669,0 -0.66732,-0.455729 0,-0.227865 0.0651,-0.732422 0,-1.383464 -0.58594,-14.046223 0,-2.050782 -0.11393,-3.580729 l 0.14648,0.08138 h -0.0651 l -2.27865,0.195312 q -0.42317,-0.455729 -0.42317,-0.846354 0,-0.276693 0.61849,-0.585937 0.56966,0.146484 0.55338,0.146484 1.25326,-0.113932 1.77409,-0.113932 h 2.66927 q 0.79753,0 1.87174,-0.146485 z"
         style="font-style:normal;font-variant:normal;font-weight:normal;font-stretch:normal;font-size:33.33333206px;font-family:'Moon Flower Bold';-inkscape-font-specification:'Moon Flower Bold, ';fill:#4c4018;fill-opacity:1"
         id="path2037" />
      <path
         d="m 161.98177,57.095427 h 0.4069 q 0.55339,0.276693 0.55339,0.651042 0,3.076172 -0.13021,4.752604 l 0.13021,6.689453 q 0.13021,0.227864 0.13021,0.439453 -0.16277,0.488281 -0.11394,0.488281 0.11394,2.701823 0.17904,10.302734 -0.0651,0.358073 -0.0651,1.432292 l -0.45573,0.309244 h -0.50456 l -0.50456,-0.390625 q 0,-0.846354 0.0651,-1.253255 -0.0651,-8.886718 -0.17904,-10.31901 -2.58789,0.04883 -2.63672,0.0651 0.11393,0.992839 0.11393,2.197266 0,2.604166 -0.0651,4.557291 0.0651,1.106771 0.0651,4.459636 -0.48828,0.292968 -0.79752,0.292968 -0.35808,0 -0.66732,-0.520833 V 80.59803 q 0,-2.652994 -0.0651,-3.580729 0.0651,-1.595052 0.0651,-3.906249 v -0.976563 q -0.19531,-3.173828 -0.19531,-4.427083 0.19531,-7.259114 0.19531,-9.212239 -0.0651,-0.260417 -0.0651,-0.634766 l 0.50455,-0.374349 h 0.42318 q 0.60221,0.358073 0.60221,0.846354 0,1.220703 -0.19531,9.765625 v 1.106771 l -0.11393,-0.227865 q 0.11393,-0.03255 2.79948,-0.08138 -0.0488,-2.050781 -0.0488,-3.076172 v -2.994791 q 0,-0.08138 -0.0977,-0.244141 l 0.0977,-0.211589 q 0.0651,-3.059895 0.0651,-4.899088 z"
         style="font-style:normal;font-variant:normal;font-weight:normal;font-stretch:normal;font-size:33.33333206px;font-family:'Moon Flower Bold';-inkscape-font-specification:'Moon Flower Bold, ';fill:#4c4018;fill-opacity:1"
         id="path2039" />
      <path
         d="m 169.92448,58.706755 0.14648,0.08138 q -0.45573,0 -0.45573,-0.09766 2.89714,0.260417 2.89714,0.813802 v 0.113933 q -0.21159,0.602213 -0.76497,0.602213 l -1.88803,-0.195312 q -0.1302,0 -0.83007,0.04883 l 0.0325,0.455729 q 0,1.074219 0.30924,8.284505 h 0.0651 q 0.472,0 0.8138,-0.0651 1.52995,0.130208 2.40885,0.130208 l 0.37435,0.504557 v 0.276693 q 0,0.520833 -0.66731,0.520833 -0.58594,0 -1.88803,-0.130208 -0.86263,0.0651 -1.09049,0.0651 v -0.0651 q 0,4.589843 0.43945,10.286458 0.0814,0 0.0814,0.04883 2.03451,-0.113932 2.60417,-0.113932 0.50456,0.16276 0.71615,0.585937 v 0.130208 q 0,0.260417 -0.52084,0.585938 -2.58789,0.0651 -3.10872,0.130208 -1.2207,0 -1.2207,-1.155599 -0.45573,-6.217447 -0.45573,-10.367838 v -2.083333 q -0.32552,-5.729167 -0.32552,-7.714844 -0.19532,-0.976562 -0.19532,-1.220703 l 0.50456,-0.374349 h 0.87891 q 0.35807,0 1.13932,-0.08138 z"
         style="font-style:normal;font-variant:normal;font-weight:normal;font-stretch:normal;font-size:33.33333206px;font-family:'Moon Flower Bold';-inkscape-font-specification:'Moon Flower Bold, ';fill:#4c4018;fill-opacity:1"
         id="path2041" />
      <path
         d="m 176.53255,58.576547 q 0.76498,0.24414 4.52474,10.465494 h -0.53711 q 0,-0.423177 3.32031,-10.058593 h 0.78125 l 0.29297,0.569661 0.0163,0.716146 q -0.17904,5.826823 -0.17904,9.847005 0,1.546224 0.58594,11.360677 l -0.69987,0.341796 q -0.87891,0 -1.26953,-10.937499 v -7.633463 h 0.53711 q -2.3112,7.177734 -2.81576,7.584635 -1.04166,-0.0651 -4.05273,-8.544922 h 0.50456 v -0.130208 l 0.96028,18.929036 -0.66731,0.358073 q -0.91146,0 -0.91146,-0.716146 -0.56966,-17.008463 -1.1556,-21.761067 z"
         style="font-style:normal;font-variant:normal;font-weight:normal;font-stretch:normal;font-size:33.33333206px;font-family:'Moon Flower Bold';-inkscape-font-specification:'Moon Flower Bold, ';fill:#4c4018;fill-opacity:1"
         id="path2043" />
      <path
         d="m 201.17447,57.095427 h 0.4069 q 0.55339,0.276693 0.55339,0.651042 0,3.076172 -0.13021,4.752604 l 0.13021,6.689453 q 0.13021,0.227864 0.13021,0.439453 -0.16276,0.488281 -0.11393,0.488281 0.11393,2.701823 0.17903,10.302734 -0.0651,0.358073 -0.0651,1.432292 l -0.45573,0.309244 h -0.50456 l -0.50456,-0.390625 q 0,-0.846354 0.0651,-1.253255 -0.0651,-8.886718 -0.17904,-10.31901 -2.58789,0.04883 -2.63672,0.0651 0.11394,0.992839 0.11394,2.197266 0,2.604166 -0.0651,4.557291 0.0651,1.106771 0.0651,4.459636 -0.48829,0.292968 -0.79753,0.292968 -0.35807,0 -0.66732,-0.520833 V 80.59803 q 0,-2.652994 -0.0651,-3.580729 0.0651,-1.595052 0.0651,-3.906249 v -0.976563 q -0.19531,-3.173828 -0.19531,-4.427083 0.19531,-7.259114 0.19531,-9.212239 -0.0651,-0.260417 -0.0651,-0.634766 l 0.50456,-0.374349 h 0.42317 q 0.60222,0.358073 0.60222,0.846354 0,1.220703 -0.19532,9.765625 v 1.106771 l -0.11393,-0.227865 q 0.11393,-0.03255 2.79948,-0.08138 -0.0488,-2.050781 -0.0488,-3.076172 v -2.994791 q 0,-0.08138 -0.0976,-0.244141 l 0.0976,-0.211589 q 0.0651,-3.059895 0.0651,-4.899088 z"
         style="font-style:normal;font-variant:normal;font-weight:normal;font-stretch:normal;font-size:33.33333206px;font-family:'Moon Flower Bold';-inkscape-font-specification:'Moon Flower Bold, ';fill:#4c4018;fill-opacity:1"
         id="path2045" />
      <path
         d="m 209.11718,58.706755 0.14649,0.08138 q -0.45573,0 -0.45573,-0.09766 2.89713,0.260417 2.89713,0.813802 v 0.113933 q -0.21159,0.602213 -0.76497,0.602213 l -1.88802,-0.195312 q -0.13021,0 -0.83008,0.04883 l 0.0325,0.455729 q 0,1.074219 0.30925,8.284505 h 0.0651 q 0.47201,0 0.8138,-0.0651 1.52995,0.130208 2.40886,0.130208 l 0.37435,0.504557 v 0.276693 q 0,0.520833 -0.66732,0.520833 -0.58594,0 -1.88802,-0.130208 -0.86263,0.0651 -1.0905,0.0651 v -0.0651 q 0,4.589843 0.43946,10.286458 0.0814,0 0.0814,0.04883 2.0345,-0.113932 2.60416,-0.113932 0.50456,0.16276 0.71615,0.585937 v 0.130208 q 0,0.260417 -0.52083,0.585938 -2.5879,0.0651 -3.10873,0.130208 -1.2207,0 -1.2207,-1.155599 -0.45573,-6.217447 -0.45573,-10.367838 v -2.083333 q -0.32552,-5.729167 -0.32552,-7.714844 -0.19531,-0.976562 -0.19531,-1.220703 l 0.50455,-0.374349 h 0.87891 q 0.35807,0 1.13932,-0.08138 z"
         style="font-style:normal;font-variant:normal;font-weight:normal;font-stretch:normal;font-size:33.33333206px;font-family:'Moon Flower Bold';-inkscape-font-specification:'Moon Flower Bold, ';fill:#4c4018;fill-opacity:1"
         id="path2047" />
      <path
         d="m 215.82291,57.144255 h 0.52083 q 0.19532,0.260417 1.07422,0.406901 1.41602,0.569662 2.26237,2.018229 1.13933,2.750651 1.13933,4.085287 v 0.651041 q 0,4.394531 -2.09961,6.038412 2.47396,0.585937 2.94596,6.901041 V 79.7354 q 0,0.553386 0.0814,1.774089 l -0.472,0.309244 h -0.50456 l -0.48828,-0.374348 q -0.0814,-1.448568 -0.0814,-2.09961 v -2.34375 q 0,-2.376302 -1.4323,-4.833984 -0.8789,-0.830078 -1.48111,-0.830078 h 0.35807 q 0.0488,1.074219 0.0488,1.757812 v 2.473959 q 0.1302,3.222656 0.1302,3.645833 v 0.195312 q -0.26041,0.520834 -0.79752,0.520834 -0.30925,0 -0.7487,-0.504558 l 0.0814,-0.553385 q -0.13021,-2.734375 -0.13021,-3.629557 v -3.580729 q -0.16276,0 -0.39062,-0.537109 V 70.81613 q 0.26041,-0.520834 0.30924,-0.520834 -0.30924,-8.593749 -0.84635,-12.760416 z m 1.12305,1.5625 q 0.35807,4.410807 0.65104,10.774739 1.75781,-1.188151 1.75781,-4.85026 v -0.911458 q 0,-1.64388 -1.36719,-4.182943 -0.91145,-0.830078 -1.2858,-0.830078 z"
         style="font-style:normal;font-variant:normal;font-weight:normal;font-stretch:normal;font-size:33.33333206px;font-family:'Moon Flower Bold';-inkscape-font-specification:'Moon Flower Bold, ';fill:#4c4018;fill-opacity:1"
         id="path2049" />
      <path
         d="m 228.1927,58.706755 0.14648,0.08138 q -0.45573,0 -0.45573,-0.09766 2.89714,0.260417 2.89714,0.813802 v 0.113933 q -0.21159,0.602213 -0.76498,0.602213 l -1.88802,-0.195312 q -0.1302,0 -0.83007,0.04883 l 0.0326,0.455729 q 0,1.074219 0.30924,8.284505 h 0.0651 q 0.472,0 0.8138,-0.0651 1.52995,0.130208 2.40885,0.130208 l 0.37435,0.504557 v 0.276693 q 0,0.520833 -0.66732,0.520833 -0.58593,0 -1.88802,-0.130208 -0.86263,0.0651 -1.09049,0.0651 v -0.0651 q 0,4.589843 0.43945,10.286458 0.0814,0 0.0814,0.04883 2.03451,-0.113932 2.60417,-0.113932 0.50456,0.16276 0.71614,0.585937 v 0.130208 q 0,0.260417 -0.52083,0.585938 -2.58789,0.0651 -3.10872,0.130208 -1.22071,0 -1.22071,-1.155599 -0.45573,-6.217447 -0.45573,-10.367838 v -2.083333 q -0.32552,-5.729167 -0.32552,-7.714844 -0.19531,-0.976562 -0.19531,-1.220703 l 0.50456,-0.374349 h 0.87891 q 0.35807,0 1.13932,-0.08138 z"
         style="font-style:normal;font-variant:normal;font-weight:normal;font-stretch:normal;font-size:33.33333206px;font-family:'Moon Flower Bold';-inkscape-font-specification:'Moon Flower Bold, ';fill:#4c4018;fill-opacity:1"
         id="path2051" />
      <path
         d="m 236.02147,57.827849 q 0.3418,0 0.6836,0.537109 l -0.0814,0.374349 q 1.23698,7.19401 1.23698,11.263021 0,1.334635 0.0651,6.917317 l -0.45573,0.309245 h -0.4069 q -0.37435,-0.09766 -0.60221,-0.602214 -0.0651,-4.752604 -0.0651,-6.998697 l -0.0651,-0.86263 q 0.0651,-0.113933 0.0651,-0.195313 0,-1.80664 -1.23698,-10.009765 0,-0.732422 0.86263,-0.732422 z m 0.86263,21.874999 q 0.97657,0 0.97657,0.797526 -0.16276,1.090495 -1.0905,1.090495 -0.76497,-0.325521 -0.76497,-0.911458 0,-0.553386 0.8789,-0.976563 z"
         style="font-style:normal;font-variant:normal;font-weight:normal;font-stretch:normal;font-size:33.33333206px;font-family:'Moon Flower Bold';-inkscape-font-specification:'Moon Flower Bold, ';fill:#4c4018;fill-opacity:1"
         id="path2053" />
    </g>
  </g>
</svg>
