<?xml version="1.0" encoding="UTF-8" standalone="no"?>
<!-- Created with Inkscape (http://www.inkscape.org/) -->

<svg
   xmlns:dc="http://purl.org/dc/elements/1.1/"
   xmlns:cc="http://creativecommons.org/ns#"
   xmlns:rdf="http://www.w3.org/1999/02/22-rdf-syntax-ns#"
   xmlns:svg="http://www.w3.org/2000/svg"
   xmlns="http://www.w3.org/2000/svg"
   xmlns:sodipodi="http://sodipodi.sourceforge.net/DTD/sodipodi-0.dtd"
   xmlns:inkscape="http://www.inkscape.org/namespaces/inkscape"
   width="320"
   height="200"
   viewBox="0 0 320 200"
   version="1.1"
   id="svg6533"
   sodipodi:docname="Text_AttendingYes.svg"
   inkscape:version="0.92.3 (2405546, 2018-03-11)">
  <defs
     id="defs6527" />
  <sodipodi:namedview
     id="base"
     pagecolor="#ffffff"
     bordercolor="#666666"
     borderopacity="1.0"
     inkscape:pageopacity="0.0"
     inkscape:pageshadow="2"
     inkscape:zoom="1.4"
     inkscape:cx="-3.016163"
     inkscape:cy="68.645856"
     inkscape:document-units="px"
     inkscape:current-layer="layer1"
     showgrid="false"
     units="px"
     inkscape:window-width="1812"
     inkscape:window-height="1051"
     inkscape:window-x="-9"
     inkscape:window-y="-9"
     inkscape:window-maximized="1"
     inkscape:snap-page="true" />
  <metadata
     id="metadata6530">
    <rdf:RDF>
      <cc:Work
         rdf:about="">
        <dc:format>image/svg+xml</dc:format>
        <dc:type
           rdf:resource="http://purl.org/dc/dcmitype/StillImage" />
        <dc:title />
      </cc:Work>
    </rdf:RDF>
  </metadata>
  <g
     inkscape:label="Layer 1"
     inkscape:groupmode="layer"
     id="layer1"
     transform="translate(0,-922.5197)">
    <rect
       style="opacity:1;fill:#ffffff;fill-opacity:1;stroke:none;stroke-width:0.18751344;stroke-linecap:round;stroke-linejoin:round;stroke-miterlimit:4;stroke-dasharray:none;stroke-opacity:1"
       id="rect7086"
       width="146.65475"
       height="20.599701"
       x="86.672623"
       y="1012.2198" />
    <flowRoot
       xml:space="preserve"
       id="flowRoot844"
       style="font-style:normal;font-weight:normal;font-size:16px;line-height:1.25;font-family:sans-serif;letter-spacing:0px;word-spacing:0px;fill:#000000;fill-opacity:1;stroke:none"
       transform="translate(0,972.5197)"><flowRegion
         id="flowRegion846"
         style="font-size:16px"><rect
           id="rect848"
           width="220.71428"
           height="139.64285"
           x="26.428572"
           y="10.357142"
           style="font-size:16px" /></flowRegion><flowPara
         id="flowPara850" /></flowRoot>    <path
       style="fill:none;stroke:#18394c;stroke-width:1.51181102;stroke-linecap:round;stroke-linejoin:miter;stroke-opacity:1;stroke-miterlimit:4;stroke-dasharray:none"
       d="m 130.2109,1110.2437 h 40.82477"
       id="path2761"
       inkscape:connector-curvature="0" />
    <g
       aria-label="awesomesauce!
we've received your r.s.v.p.
you'll be redirected in 5 seconds
(or click here to go now)"
       transform="translate(370.80208,979.27974)"
       style="font-style:normal;font-weight:normal;font-size:40px;line-height:1.25;font-family:sans-serif;letter-spacing:0px;word-spacing:0px;fill:#18394c;fill-opacity:1;stroke:none"
       id="flowRoot3623">
      <path
         d="m -274.57975,-45.33426 h 0.16276 q 1.17188,0.537109 1.87174,2.539062 1.82292,5.63151 2.68555,14.355468 0.56966,2.832031 0.56966,5.045573 -0.19531,0.488281 -1.12304,0.488281 -0.39063,-0.748698 -0.91146,-5.452474 -0.14649,-0.504557 -0.61849,-4.085286 l -0.14649,-0.01628 q -3.09244,0.292969 -3.09244,0.390625 v 2.539062 l -0.43946,5.957031 q 0.14649,0.211589 0.14649,0.488282 0,0.276692 -0.56966,0.618489 -1.10677,0 -1.10677,-1.057942 0.50455,-6.86849 0.50455,-8.235677 -0.0651,-0.895182 -0.0651,-1.822917 0.0326,-4.703776 0.78125,-9.960937 0.37435,-1.790364 1.35091,-1.790364 z m 0.29297,1.676432 q -0.83008,3.190104 -0.83008,9.261067 -0.0651,0 -0.0651,1.253255 v -0.24414 q 1.57877,-0.439453 3.14127,-0.439453 v 0.24414 q 0,-1.953125 -2.14844,-9.326171 -0.4069,-0.878907 -0.0977,-0.748698 z"
         style="font-style:normal;font-variant:normal;font-weight:normal;font-stretch:normal;font-size:33.33333206px;font-family:'Moon Flower Bold';-inkscape-font-specification:'Moon Flower Bold, ';text-align:center;text-anchor:middle;fill:#18394c;fill-opacity:1"
         id="path3637" />
      <path
         d="m -255.84603,-44.536734 h 0.3418 q 0.37435,0 0.60221,0.472005 -0.71614,14.22526 -0.91145,19.612629 -0.26042,1.464844 -0.86263,1.464844 h -0.13021 q -0.66732,0 -1.62761,-3.515625 -1.70898,-5.517578 -1.70898,-5.794271 h 0.73242 q -0.50456,7.242839 -0.50456,9.521484 l -0.45573,0.309245 h -0.34179 q -0.63477,0 -0.92774,-2.50651 -1.43229,-6.722005 -2.81575,-17.154947 -0.0326,0 -0.30925,-1.204427 0,-0.292969 0.53711,-0.61849 h 0.39063 q 0.66731,0 1.12304,4.003906 1.17188,7.698568 1.5625,9.814453 l 0.60222,3.238932 h -0.6836 q 0.52084,-8.317057 0.78125,-9.000651 l 0.60222,-0.113932 q 0.74869,0 1.04166,2.832031 0.30925,1.546224 1.67644,6.022135 l 0.472,1.627605 -0.55338,0.276692 q 0.39062,-11.507161 0.92773,-18.99414 z"
         style="font-style:normal;font-variant:normal;font-weight:normal;font-stretch:normal;font-size:33.33333206px;font-family:'Moon Flower Bold';-inkscape-font-specification:'Moon Flower Bold, ';text-align:center;text-anchor:middle;fill:#18394c;fill-opacity:1"
         id="path3639" />
      <path
         d="m -248.22884,-45.578401 0.14648,0.08138 q -0.45572,0 -0.45572,-0.09766 2.89713,0.260417 2.89713,0.813802 v 0.113932 q -0.21159,0.602214 -0.76497,0.602214 l -1.88802,-0.195313 q -0.13021,0 -0.83008,0.04883 l 0.0326,0.45573 q 0,1.074218 0.30925,8.284504 h 0.0651 q 0.472,0 0.8138,-0.0651 1.52995,0.130209 2.40886,0.130209 l 0.37434,0.504557 v 0.276693 q 0,0.520833 -0.66731,0.520833 -0.58594,0 -1.88802,-0.130208 -0.86263,0.0651 -1.0905,0.0651 v -0.0651 q 0,4.589843 0.43945,10.286458 0.0814,0 0.0814,0.04883 2.03451,-0.113933 2.60417,-0.113933 0.50456,0.162761 0.71615,0.585938 v 0.130208 q 0,0.260417 -0.52084,0.585938 -2.58789,0.0651 -3.10872,0.130208 -1.2207,0 -1.2207,-1.155599 -0.45573,-6.217448 -0.45573,-10.367838 v -2.083333 q -0.32552,-5.729167 -0.32552,-7.714844 -0.19532,-0.976562 -0.19532,-1.220703 l 0.50456,-0.374349 h 0.87891 q 0.35807,0 1.13932,-0.08138 z"
         style="font-style:normal;font-variant:normal;font-weight:normal;font-stretch:normal;font-size:33.33333206px;font-family:'Moon Flower Bold';-inkscape-font-specification:'Moon Flower Bold, ';text-align:center;text-anchor:middle;fill:#18394c;fill-opacity:1"
         id="path3641" />
      <path
         d="m -237.77962,-45.106396 0.37435,0.472005 v 0.211589 q 0,0.227864 -0.58594,0.634765 h -0.79753 q -1.44856,0 -1.95312,1.057943 -0.50456,1.367188 -0.50456,3.059896 0,1.02539 0.89518,3.385416 0.29297,0.585938 3.45052,3.450521 1.70899,2.441406 1.70899,4.801432 0,1.855469 -0.79753,3.629557 -0.42318,0.960287 -2.14844,1.595052 -0.65104,0.341797 -1.10677,0.341797 -0.61849,0 -0.86263,-0.520833 v -0.227865 q 0,-0.472005 1.00912,-0.569661 1.85547,-0.69987 1.85547,-1.448568 0.58593,-1.171875 0.58593,-2.978515 0,-2.360026 -2.11588,-4.60612 -1.75781,-1.334635 -2.63672,-2.58789 -0.63477,-0.683594 -1.23698,-3.499349 0,-0.341797 -0.0651,-0.86263 0,-2.164714 0.8138,-3.857422 1.02539,-1.48112 4.11784,-1.48112 z"
         style="font-style:normal;font-variant:normal;font-weight:normal;font-stretch:normal;font-size:33.33333206px;font-family:'Moon Flower Bold';-inkscape-font-specification:'Moon Flower Bold, ';text-align:center;text-anchor:middle;fill:#18394c;fill-opacity:1"
         id="path3643" />
      <path
         d="m -229.31608,-45.448193 q 2.21354,0 3.33659,9.082031 0.0651,0.86263 0.0651,2.18099 v 0.260416 q 0,0.260417 -0.0488,0.520834 0.0488,0.0651 0.0488,0.520833 v 0.0651 q 0,0.455729 -0.0488,0.520833 0.0488,0.260417 0.0488,0.325521 0,6.998698 -2.05078,8.723958 -0.83008,0.325521 -1.1556,0.325521 h -0.52083 q -2.653,-0.634766 -3.27149,-6.363932 l -0.19531,-2.669271 q 0,-9.244791 2.36003,-12.9069 0.78125,-0.585938 1.43229,-0.585938 z m -2.32747,13.28125 q 0,3.629557 0.96028,6.347656 0.79753,1.595052 1.23698,1.595052 h 0.0651 q 0.97657,0 1.30209,-1.578776 0.69987,-1.660156 0.69987,-7.145182 v -1.302083 q 0,-3.792318 -1.35091,-8.707682 -0.43946,-0.976563 -0.65105,-1.123047 -0.35807,0.130208 -0.45572,0.423177 -1.80664,3.824869 -1.80664,11.490885 z"
         style="font-style:normal;font-variant:normal;font-weight:normal;font-stretch:normal;font-size:33.33333206px;font-family:'Moon Flower Bold';-inkscape-font-specification:'Moon Flower Bold, ';text-align:center;text-anchor:middle;fill:#18394c;fill-opacity:1"
         id="path3645" />
      <path
         d="m -222.08952,-45.708609 q 0.76498,0.24414 4.52474,10.465494 h -0.53711 q 0,-0.423177 3.32031,-10.058593 h 0.78125 l 0.29297,0.569661 0.0163,0.716146 q -0.17904,5.826823 -0.17904,9.847005 0,1.546224 0.58594,11.360676 l -0.69987,0.341797 q -0.87891,0 -1.26953,-10.937499 v -7.633464 h 0.53711 q -2.3112,7.177735 -2.81576,7.584636 -1.04166,-0.0651 -4.05273,-8.544922 h 0.50456 v -0.130208 l 0.96028,18.929035 -0.66731,0.358073 q -0.91146,0 -0.91146,-0.716146 -0.56966,-17.008462 -1.1556,-21.761066 z"
         style="font-style:normal;font-variant:normal;font-weight:normal;font-stretch:normal;font-size:33.33333206px;font-family:'Moon Flower Bold';-inkscape-font-specification:'Moon Flower Bold, ';text-align:center;text-anchor:middle;fill:#18394c;fill-opacity:1"
         id="path3647" />
      <path
         d="m -207.53874,-45.578401 0.14648,0.08138 q -0.45572,0 -0.45572,-0.09766 2.89713,0.260417 2.89713,0.813802 v 0.113932 q -0.21159,0.602214 -0.76497,0.602214 l -1.88802,-0.195313 q -0.13021,0 -0.83008,0.04883 l 0.0326,0.45573 q 0,1.074218 0.30924,8.284504 h 0.0651 q 0.472,0 0.8138,-0.0651 1.52995,0.130209 2.40886,0.130209 l 0.37434,0.504557 v 0.276693 q 0,0.520833 -0.66731,0.520833 -0.58594,0 -1.88802,-0.130208 -0.86263,0.0651 -1.0905,0.0651 v -0.0651 q 0,4.589843 0.43945,10.286458 0.0814,0 0.0814,0.04883 2.03451,-0.113933 2.60417,-0.113933 0.50456,0.162761 0.71615,0.585938 v 0.130208 q 0,0.260417 -0.52084,0.585938 -2.58789,0.0651 -3.10872,0.130208 -1.2207,0 -1.2207,-1.155599 -0.45573,-6.217448 -0.45573,-10.367838 v -2.083333 q -0.32552,-5.729167 -0.32552,-7.714844 -0.19532,-0.976562 -0.19532,-1.220703 l 0.50456,-0.374349 h 0.87891 q 0.35807,0 1.13932,-0.08138 z"
         style="font-style:normal;font-variant:normal;font-weight:normal;font-stretch:normal;font-size:33.33333206px;font-family:'Moon Flower Bold';-inkscape-font-specification:'Moon Flower Bold, ';text-align:center;text-anchor:middle;fill:#18394c;fill-opacity:1"
         id="path3649" />
      <path
         d="m -197.08952,-45.106396 0.37435,0.472005 v 0.211589 q 0,0.227864 -0.58594,0.634765 h -0.79753 q -1.44856,0 -1.95312,1.057943 -0.50456,1.367188 -0.50456,3.059896 0,1.02539 0.89518,3.385416 0.29297,0.585938 3.45053,3.450521 1.70898,2.441406 1.70898,4.801432 0,1.855469 -0.79753,3.629557 -0.42317,0.960287 -2.14843,1.595052 -0.65105,0.341797 -1.10677,0.341797 -0.61849,0 -0.86263,-0.520833 v -0.227865 q 0,-0.472005 1.00911,-0.569661 1.85547,-0.69987 1.85547,-1.448568 0.58594,-1.171875 0.58594,-2.978515 0,-2.360026 -2.11589,-4.60612 -1.75781,-1.334635 -2.63672,-2.58789 -0.63476,-0.683594 -1.23698,-3.499349 0,-0.341797 -0.0651,-0.86263 0,-2.164714 0.8138,-3.857422 1.02539,-1.48112 4.11784,-1.48112 z"
         style="font-style:normal;font-variant:normal;font-weight:normal;font-stretch:normal;font-size:33.33333206px;font-family:'Moon Flower Bold';-inkscape-font-specification:'Moon Flower Bold, ';text-align:center;text-anchor:middle;fill:#18394c;fill-opacity:1"
         id="path3651" />
      <path
         d="m -189.2933,-45.33426 h 0.16276 q 1.17188,0.537109 1.87175,2.539062 1.82291,5.63151 2.68554,14.355468 0.56967,2.832031 0.56967,5.045573 -0.19532,0.488281 -1.12305,0.488281 -0.39063,-0.748698 -0.91146,-5.452474 -0.14648,-0.504557 -0.61849,-4.085286 l -0.14648,-0.01628 q -3.09245,0.292969 -3.09245,0.390625 v 2.539062 l -0.43945,5.957031 q 0.14648,0.211589 0.14648,0.488282 0,0.276692 -0.56966,0.618489 -1.10677,0 -1.10677,-1.057942 0.50456,-6.86849 0.50456,-8.235677 -0.0651,-0.895182 -0.0651,-1.822917 0.0325,-4.703776 0.78125,-9.960937 0.37435,-1.790364 1.35091,-1.790364 z m 0.29297,1.676432 q -0.83008,3.190104 -0.83008,9.261067 -0.0651,0 -0.0651,1.253255 v -0.24414 q 1.57878,-0.439453 3.14128,-0.439453 v 0.24414 q 0,-1.953125 -2.14844,-9.326171 -0.4069,-0.878907 -0.0977,-0.748698 z"
         style="font-style:normal;font-variant:normal;font-weight:normal;font-stretch:normal;font-size:33.33333206px;font-family:'Moon Flower Bold';-inkscape-font-specification:'Moon Flower Bold, ';text-align:center;text-anchor:middle;fill:#18394c;fill-opacity:1"
         id="path3653" />
      <path
         d="m -178.40462,-46.03413 h 0.39062 q 0.63477,0.309245 0.63477,0.846354 v 0.325521 q 0.56966,10.579426 1.41601,17.024739 0.53711,4.06901 1.26953,4.06901 0.53711,-0.227865 0.53711,-0.911458 0,-2.555339 -0.53711,-12.890625 0.0814,-1.888021 0.0814,-3.645833 v -1.546224 l -0.0814,-0.439453 0.0651,-0.146484 q -0.0488,-0.797526 -0.21159,-1.904297 l 0.53711,-0.390625 h 0.35807 q 0.65104,0 0.79753,2.148437 0,0.455729 -0.0488,0.455729 0.0488,0.651042 0.0488,1.106771 v 2.099609 l -0.0651,0.390625 q 0,-0.276692 0.0814,-0.276692 -0.0814,1.106771 -0.0814,1.432291 v 0.260417 q 0.52084,11.328125 0.52084,13.36263 -0.21159,2.197265 -2.09961,2.197265 -2.14844,0 -2.75065,-6.542968 -0.71615,-5.582682 -1.38347,-16.634114 z"
         style="font-style:normal;font-variant:normal;font-weight:normal;font-stretch:normal;font-size:33.33333206px;font-family:'Moon Flower Bold';-inkscape-font-specification:'Moon Flower Bold, ';text-align:center;text-anchor:middle;fill:#18394c;fill-opacity:1"
         id="path3655" />
      <path
         d="m -164.63509,-45.187776 h 0.50455 q 1.52995,0.276693 1.52995,1.171875 0,0.260417 -0.53711,0.585937 h -0.60221 q -0.42318,-0.520833 -0.61849,-0.520833 -1.30208,0.455729 -1.30208,0.78125 -1.30209,2.473958 -1.30209,6.705729 v 1.106771 q 0,2.880859 0.78125,6.917317 0.45573,2.913412 1.22071,3.889974 0.86263,0.748698 1.44856,0.78125 0.71615,0 1.8392,-1.432292 h 0.42317 q 0.37435,0 0.60222,0.455729 v 0.195313 q 0,0.748698 -1.61133,1.774088 -0.73242,0.309245 -1.33464,0.309245 h -0.0976 q -1.12305,-0.130208 -2.27865,-1.139323 -1.25325,-0.992838 -2.13216,-7.600911 -0.32552,-1.416015 -0.32552,-4.671224 v -0.390625 q 0.11393,-6.738281 2.3112,-8.398437 1.09049,-0.520833 1.48112,-0.520833 z"
         style="font-style:normal;font-variant:normal;font-weight:normal;font-stretch:normal;font-size:33.33333206px;font-family:'Moon Flower Bold';-inkscape-font-specification:'Moon Flower Bold, ';text-align:center;text-anchor:middle;fill:#18394c;fill-opacity:1"
         id="path3657" />
      <path
         d="m -154.99968,-45.578401 0.14649,0.08138 q -0.45573,0 -0.45573,-0.09766 2.89713,0.260417 2.89713,0.813802 v 0.113932 q -0.21159,0.602214 -0.76497,0.602214 l -1.88802,-0.195313 q -0.13021,0 -0.83008,0.04883 l 0.0325,0.45573 q 0,1.074218 0.30925,8.284504 h 0.0651 q 0.47201,0 0.8138,-0.0651 1.52995,0.130209 2.40886,0.130209 l 0.37435,0.504557 v 0.276693 q 0,0.520833 -0.66732,0.520833 -0.58594,0 -1.88802,-0.130208 -0.86263,0.0651 -1.0905,0.0651 v -0.0651 q 0,4.589843 0.43946,10.286458 0.0814,0 0.0814,0.04883 2.0345,-0.113933 2.60416,-0.113933 0.50456,0.162761 0.71615,0.585938 v 0.130208 q 0,0.260417 -0.52083,0.585938 -2.58789,0.0651 -3.10873,0.130208 -1.2207,0 -1.2207,-1.155599 -0.45573,-6.217448 -0.45573,-10.367838 v -2.083333 q -0.32552,-5.729167 -0.32552,-7.714844 -0.19531,-0.976562 -0.19531,-1.220703 l 0.50455,-0.374349 h 0.87891 q 0.35807,0 1.13932,-0.08138 z"
         style="font-style:normal;font-variant:normal;font-weight:normal;font-stretch:normal;font-size:33.33333206px;font-family:'Moon Flower Bold';-inkscape-font-specification:'Moon Flower Bold, ';text-align:center;text-anchor:middle;fill:#18394c;fill-opacity:1"
         id="path3659" />
      <path
         d="m -147.1709,-46.457307 q 0.3418,0 0.68359,0.537109 l -0.0814,0.374349 q 1.23698,7.19401 1.23698,11.26302 0,1.334636 0.0651,6.917318 l -0.45573,0.309245 h -0.4069 q -0.37435,-0.09766 -0.60222,-0.602214 -0.0651,-4.752604 -0.0651,-6.998698 l -0.0651,-0.86263 q 0.0651,-0.113932 0.0651,-0.195312 0,-1.806641 -1.23698,-10.009765 0,-0.732422 0.86263,-0.732422 z m 0.86263,21.874999 q 0.97656,0 0.97656,0.797526 -0.16276,1.090495 -1.09049,1.090495 -0.76498,-0.325521 -0.76498,-0.911459 0,-0.553385 0.87891,-0.976562 z"
         style="font-style:normal;font-variant:normal;font-weight:normal;font-stretch:normal;font-size:33.33333206px;font-family:'Moon Flower Bold';-inkscape-font-specification:'Moon Flower Bold, ';text-align:center;text-anchor:middle;fill:#18394c;fill-opacity:1"
         id="path3661" />
      <path
         d="m -327.3955,5.4632656 h 0.34179 q 0.37435,0 0.60222,0.4720052 -0.71615,14.2252602 -0.91146,19.6126292 -0.26042,1.464844 -0.86263,1.464844 h -0.13021 q -0.66732,0 -1.6276,-3.515625 -1.70899,-5.517578 -1.70899,-5.794271 h 0.73242 q -0.50455,7.242839 -0.50455,9.521484 l -0.45573,0.309245 h -0.3418 q -0.63477,0 -0.92773,-2.50651 -1.4323,-6.722005 -2.81576,-17.1549473 -0.0325,0 -0.30924,-1.2044271 0,-0.2929687 0.53711,-0.6184895 h 0.39062 q 0.66732,0 1.12305,4.0039059 1.17187,7.698568 1.5625,9.814453 l 0.60221,3.238932 h -0.68359 q 0.52083,-8.317057 0.78125,-9.000651 l 0.60221,-0.113932 q 0.7487,0 1.04167,2.832031 0.30924,1.546224 1.67643,6.022135 l 0.472,1.627605 -0.55338,0.276692 q 0.39062,-11.507161 0.92773,-18.9941397 z"
         style="font-style:normal;font-variant:normal;font-weight:normal;font-stretch:normal;font-size:33.33333206px;font-family:'Moon Flower Bold';-inkscape-font-specification:'Moon Flower Bold, ';text-align:center;text-anchor:middle;fill:#18394c;fill-opacity:1"
         id="path3663" />
      <path
         d="m -319.77832,4.421599 0.14649,0.08138 q -0.45573,0 -0.45573,-0.097656 2.89713,0.2604167 2.89713,0.8138021 v 0.1139323 q -0.21158,0.6022135 -0.76497,0.6022135 l -1.88802,-0.1953125 q -0.13021,0 -0.83008,0.048828 l 0.0326,0.4557292 q 0,1.0742187 0.30925,8.2845044 h 0.0651 q 0.47201,0 0.8138,-0.0651 1.52995,0.130209 2.40886,0.130209 l 0.37435,0.504557 v 0.276693 q 0,0.520833 -0.66732,0.520833 -0.58594,0 -1.88802,-0.130208 -0.86263,0.0651 -1.0905,0.0651 V 15.766 q 0,4.589843 0.43946,10.286458 0.0814,0 0.0814,0.04883 2.0345,-0.113933 2.60416,-0.113933 0.50456,0.162761 0.71615,0.585938 v 0.130208 q 0,0.260417 -0.52083,0.585938 -2.58789,0.0651 -3.10873,0.130208 -1.2207,0 -1.2207,-1.155599 -0.45573,-6.217448 -0.45573,-10.367838 v -2.083333 q -0.32552,-5.7291668 -0.32552,-7.7148438 -0.19531,-0.9765625 -0.19531,-1.2207031 l 0.50455,-0.3743489 h 0.87891 q 0.35807,0 1.13932,-0.08138 z"
         style="font-style:normal;font-variant:normal;font-weight:normal;font-stretch:normal;font-size:33.33333206px;font-family:'Moon Flower Bold';-inkscape-font-specification:'Moon Flower Bold, ';text-align:center;text-anchor:middle;fill:#18394c;fill-opacity:1"
         id="path3665" />
      <path
         d="m -312.22623,4.6331875 h 0.32552 q 0.35807,0 0.68359,0.5371093 -0.73242,3.3040364 -1.31836,4.4921874 l -0.35807,0.1790364 h -0.24414 q -0.3418,0 -0.6836,-0.5533854 0.61849,-2.0507811 1.1556,-4.378255 z"
         style="font-style:normal;font-variant:normal;font-weight:normal;font-stretch:normal;font-size:33.33333206px;font-family:'Moon Flower Bold';-inkscape-font-specification:'Moon Flower Bold, ';text-align:center;text-anchor:middle;fill:#18394c;fill-opacity:1"
         id="path3667" />
      <path
         d="m -302.15136,4.4867031 h 0.26041 q 0.4069,0 0.60222,0.5533854 l -1.95313,17.4967445 q -0.26042,4.93164 -0.68359,4.93164 l -0.13021,0.0651 h -0.30925 q -0.68359,0 -1.12304,-4.003906 -1.69271,-10.758463 -1.69271,-17.1874992 l -0.19531,-0.8463541 q 0,-0.2929688 0.53711,-0.6184896 h 0.26041 q 0.99284,0 0.99284,5.3873699 0.83008,9.293619 1.51367,13.297525 h -0.69987 q 0,-1.02539 1.82292,-16.5527335 0.14648,-2.5227864 0.79753,-2.5227864 z"
         style="font-style:normal;font-variant:normal;font-weight:normal;font-stretch:normal;font-size:33.33333206px;font-family:'Moon Flower Bold';-inkscape-font-specification:'Moon Flower Bold, ';text-align:center;text-anchor:middle;fill:#18394c;fill-opacity:1"
         id="path3669" />
      <path
         d="m -294.4528,4.421599 0.14649,0.08138 q -0.45573,0 -0.45573,-0.097656 2.89713,0.2604167 2.89713,0.8138021 v 0.1139323 q -0.21159,0.6022135 -0.76497,0.6022135 l -1.88802,-0.1953125 q -0.13021,0 -0.83008,0.048828 l 0.0326,0.4557292 q 0,1.0742187 0.30925,8.2845044 h 0.0651 q 0.47201,0 0.8138,-0.0651 1.52995,0.130209 2.40886,0.130209 l 0.37435,0.504557 v 0.276693 q 0,0.520833 -0.66732,0.520833 -0.58594,0 -1.88802,-0.130208 -0.86263,0.0651 -1.0905,0.0651 V 15.766 q 0,4.589843 0.43946,10.286458 0.0814,0 0.0814,0.04883 2.0345,-0.113933 2.60416,-0.113933 0.50456,0.162761 0.71615,0.585938 v 0.130208 q 0,0.260417 -0.52083,0.585938 -2.58789,0.0651 -3.10873,0.130208 -1.2207,0 -1.2207,-1.155599 -0.45573,-6.217448 -0.45573,-10.367838 v -2.083333 q -0.32552,-5.7291668 -0.32552,-7.7148438 -0.19531,-0.9765625 -0.19531,-1.2207031 l 0.50455,-0.3743489 h 0.87891 q 0.35807,0 1.13932,-0.08138 z"
         style="font-style:normal;font-variant:normal;font-weight:normal;font-stretch:normal;font-size:33.33333206px;font-family:'Moon Flower Bold';-inkscape-font-specification:'Moon Flower Bold, ';text-align:center;text-anchor:middle;fill:#18394c;fill-opacity:1"
         id="path3671" />
      <path
         d="m -279.47884,2.859099 h 0.52084 q 0.19531,0.2604167 1.07421,0.406901 1.41602,0.5696615 2.26237,2.0182291 1.13933,2.750651 1.13933,4.0852863 v 0.6510416 q 0,4.394531 -2.09961,6.038411 2.47396,0.585938 2.94596,6.901042 v 2.490234 q 0,0.553385 0.0814,1.774088 l -0.472,0.309245 h -0.50456 l -0.48828,-0.374349 q -0.0814,-1.448567 -0.0814,-2.099609 v -2.34375 q 0,-2.376302 -1.43229,-4.833984 -0.87891,-0.830078 -1.48112,-0.830078 h 0.35807 q 0.0488,1.074219 0.0488,1.757812 v 2.473958 q 0.13021,3.222657 0.13021,3.645834 v 0.195312 q -0.26042,0.520833 -0.79753,0.520833 -0.30925,0 -0.7487,-0.504557 l 0.0814,-0.553385 q -0.13021,-2.734375 -0.13021,-3.629557 v -3.580729 q -0.16276,0 -0.39062,-0.53711 v -0.309245 q 0.26042,-0.520833 0.30924,-0.520833 -0.30924,-8.5937495 -0.84635,-12.760416 z m 1.12305,1.5625 q 0.35807,4.4108071 0.65104,10.774739 1.75781,-1.188151 1.75781,-4.85026 V 9.4346196 q 0,-1.6438801 -1.36718,-4.1829426 -0.91146,-0.830078 -1.28581,-0.830078 z"
         style="font-style:normal;font-variant:normal;font-weight:normal;font-stretch:normal;font-size:33.33333206px;font-family:'Moon Flower Bold';-inkscape-font-specification:'Moon Flower Bold, ';text-align:center;text-anchor:middle;fill:#18394c;fill-opacity:1"
         id="path3673" />
      <path
         d="m -267.10905,4.421599 0.14649,0.08138 q -0.45573,0 -0.45573,-0.097656 2.89713,0.2604167 2.89713,0.8138021 v 0.1139323 q -0.21159,0.6022135 -0.76497,0.6022135 l -1.88802,-0.1953125 q -0.13021,0 -0.83008,0.048828 l 0.0326,0.4557292 q 0,1.0742187 0.30925,8.2845044 h 0.0651 q 0.47201,0 0.8138,-0.0651 1.52995,0.130209 2.40886,0.130209 l 0.37435,0.504557 v 0.276693 q 0,0.520833 -0.66732,0.520833 -0.58594,0 -1.88802,-0.130208 -0.86263,0.0651 -1.0905,0.0651 V 15.766 q 0,4.589843 0.43946,10.286458 0.0814,0 0.0814,0.04883 2.0345,-0.113933 2.60416,-0.113933 0.50456,0.162761 0.71615,0.585938 v 0.130208 q 0,0.260417 -0.52083,0.585938 -2.58789,0.0651 -3.10873,0.130208 -1.2207,0 -1.2207,-1.155599 -0.45573,-6.217448 -0.45573,-10.367838 v -2.083333 q -0.32552,-5.7291668 -0.32552,-7.7148438 -0.19531,-0.9765625 -0.19531,-1.2207031 l 0.50455,-0.3743489 h 0.87891 q 0.35807,0 1.13932,-0.08138 z"
         style="font-style:normal;font-variant:normal;font-weight:normal;font-stretch:normal;font-size:33.33333206px;font-family:'Moon Flower Bold';-inkscape-font-specification:'Moon Flower Bold, ';text-align:center;text-anchor:middle;fill:#18394c;fill-opacity:1"
         id="path3675" />
      <path
         d="m -257.0179,4.8122239 h 0.50456 q 1.52994,0.2766927 1.52994,1.171875 0,0.2604167 -0.53711,0.5859375 h -0.60221 q -0.42318,-0.5208333 -0.61849,-0.5208333 -1.30208,0.4557291 -1.30208,0.7812499 -1.30209,2.4739583 -1.30209,6.705729 v 1.106771 q 0,2.880859 0.78125,6.917317 0.45573,2.913412 1.22071,3.889974 0.86263,0.748698 1.44857,0.78125 0.71614,0 1.83919,-1.432292 h 0.42317 q 0.37435,0 0.60222,0.455729 v 0.195313 q 0,0.748698 -1.61133,1.774088 -0.73242,0.309245 -1.33463,0.309245 h -0.0977 q -1.12305,-0.130208 -2.27865,-1.139323 -1.25325,-0.992838 -2.13216,-7.600911 -0.32552,-1.416015 -0.32552,-4.671224 v -0.390625 q 0.11393,-6.7382806 2.3112,-8.3984367 1.09049,-0.5208334 1.48112,-0.5208334 z"
         style="font-style:normal;font-variant:normal;font-weight:normal;font-stretch:normal;font-size:33.33333206px;font-family:'Moon Flower Bold';-inkscape-font-specification:'Moon Flower Bold, ';text-align:center;text-anchor:middle;fill:#18394c;fill-opacity:1"
         id="path3677" />
      <path
         d="m -247.38248,4.421599 0.14648,0.08138 q -0.45573,0 -0.45573,-0.097656 2.89714,0.2604167 2.89714,0.8138021 v 0.1139323 q -0.21159,0.6022135 -0.76498,0.6022135 l -1.88802,-0.1953125 q -0.13021,0 -0.83008,0.048828 l 0.0326,0.4557292 q 0,1.0742187 0.30925,8.2845044 h 0.0651 q 0.47201,0 0.81381,-0.0651 1.52994,0.130209 2.40885,0.130209 l 0.37435,0.504557 v 0.276693 q 0,0.520833 -0.66732,0.520833 -0.58594,0 -1.88802,-0.130208 -0.86263,0.0651 -1.09049,0.0651 V 15.766 q 0,4.589843 0.43945,10.286458 0.0814,0 0.0814,0.04883 2.0345,-0.113933 2.60417,-0.113933 0.50455,0.162761 0.71614,0.585938 v 0.130208 q 0,0.260417 -0.52083,0.585938 -2.58789,0.0651 -3.10873,0.130208 -1.2207,0 -1.2207,-1.155599 -0.45573,-6.217448 -0.45573,-10.367838 v -2.083333 q -0.32552,-5.7291668 -0.32552,-7.7148438 -0.19531,-0.9765625 -0.19531,-1.2207031 l 0.50456,-0.3743489 h 0.8789 q 0.35808,0 1.13933,-0.08138 z"
         style="font-style:normal;font-variant:normal;font-weight:normal;font-stretch:normal;font-size:33.33333206px;font-family:'Moon Flower Bold';-inkscape-font-specification:'Moon Flower Bold, ';text-align:center;text-anchor:middle;fill:#18394c;fill-opacity:1"
         id="path3679" />
      <path
         d="m -239.45605,4.7471198 h 0.26041 q 0.86263,0 0.86263,3.7760415 v 0.8463541 q 0,1.2858076 -0.39062,6.5917966 0,0.211589 0.0651,0.472005 -0.0651,3.434245 -0.0651,5.436198 v 4.231771 q 0,0.09766 0.13021,0.634765 -0.13021,0.797526 -0.66732,0.797526 h -0.26042 q -0.66731,0 -0.66731,-2.083333 0,-11.311849 0.39062,-15.5761713 V 8.0674321 q 0,-1.4973957 -0.19531,-2.7180988 0,-0.2766927 0.53711,-0.6022135 z"
         style="font-style:normal;font-variant:normal;font-weight:normal;font-stretch:normal;font-size:33.33333206px;font-family:'Moon Flower Bold';-inkscape-font-specification:'Moon Flower Bold, ';text-align:center;text-anchor:middle;fill:#18394c;fill-opacity:1"
         id="path3681" />
      <path
         d="m -228.51856,4.4867031 h 0.26042 q 0.4069,0 0.60221,0.5533854 l -1.95312,17.4967445 q -0.26042,4.93164 -0.68359,4.93164 l -0.13021,0.0651 h -0.30925 q -0.68359,0 -1.12304,-4.003906 -1.69271,-10.758463 -1.69271,-17.1874992 l -0.19531,-0.8463541 q 0,-0.2929688 0.5371,-0.6184896 h 0.26042 q 0.99284,0 0.99284,5.3873699 0.83008,9.293619 1.51367,13.297525 h -0.69987 q 0,-1.02539 1.82292,-16.5527335 0.14648,-2.5227864 0.79752,-2.5227864 z"
         style="font-style:normal;font-variant:normal;font-weight:normal;font-stretch:normal;font-size:33.33333206px;font-family:'Moon Flower Bold';-inkscape-font-specification:'Moon Flower Bold, ';text-align:center;text-anchor:middle;fill:#18394c;fill-opacity:1"
         id="path3683" />
      <path
         d="m -220.81998,4.421599 0.14648,0.08138 q -0.45573,0 -0.45573,-0.097656 2.89714,0.2604167 2.89714,0.8138021 v 0.1139323 q -0.21159,0.6022135 -0.76498,0.6022135 l -1.88802,-0.1953125 q -0.13021,0 -0.83008,0.048828 l 0.0326,0.4557292 q 0,1.0742187 0.30925,8.2845044 h 0.0651 q 0.47201,0 0.81381,-0.0651 1.52994,0.130209 2.40885,0.130209 l 0.37435,0.504557 v 0.276693 q 0,0.520833 -0.66732,0.520833 -0.58594,0 -1.88802,-0.130208 -0.86263,0.0651 -1.09049,0.0651 V 15.766 q 0,4.589843 0.43945,10.286458 0.0814,0 0.0814,0.04883 2.0345,-0.113933 2.60417,-0.113933 0.50455,0.162761 0.71614,0.585938 v 0.130208 q 0,0.260417 -0.52083,0.585938 -2.58789,0.0651 -3.10873,0.130208 -1.2207,0 -1.2207,-1.155599 -0.45573,-6.217448 -0.45573,-10.367838 v -2.083333 q -0.32552,-5.7291668 -0.32552,-7.7148438 -0.19531,-0.9765625 -0.19531,-1.2207031 l 0.50456,-0.3743489 h 0.8789 q 0.35808,0 1.13933,-0.08138 z"
         style="font-style:normal;font-variant:normal;font-weight:normal;font-stretch:normal;font-size:33.33333206px;font-family:'Moon Flower Bold';-inkscape-font-specification:'Moon Flower Bold, ';text-align:center;text-anchor:middle;fill:#18394c;fill-opacity:1"
         id="path3685" />
      <path
         d="m -214.63509,3.5752448 h 0.55339 q 2.81575,0.9277344 4.2806,3.5319009 2.11588,4.2968753 2.11588,8.8378903 v 0.325521 q 0,6.510416 -4.80143,10.693359 -0.7487,0.24414 -1.00912,0.24414 -0.55338,0 -0.68359,-1.416015 l 0.0651,-0.130208 q -0.17903,-1.432292 -0.26041,-4.508464 h -0.11393 l 0.1302,0.260417 v -0.130209 q 0,-2.571614 0.0651,-4.687499 z m 1.54622,1.7903645 v -0.423177 q 0.0651,7.3404947 0.26042,11.5885407 -0.0651,1.741537 -0.0651,3.58073 v 0.781249 q 0,2.457683 0.17903,4.44336 0.83008,-0.716146 2.08334,-2.750651 1.48112,-3.255208 1.48112,-6.119792 v -0.651041 q 0,-4.020182 -1.98568,-8.203125 -1.36719,-2.0507812 -1.95313,-2.2460937 z"
         style="font-style:normal;font-variant:normal;font-weight:normal;font-stretch:normal;font-size:33.33333206px;font-family:'Moon Flower Bold';-inkscape-font-specification:'Moon Flower Bold, ';text-align:center;text-anchor:middle;fill:#18394c;fill-opacity:1"
         id="path3687" />
      <path
         d="m -189.86296,5.5283697 h 0.2767 q 0.34179,0 0.66731,0.5045573 v 0.1627604 q -0.52083,4.6712236 -1.10677,9.0983066 l 0.0651,0.374349 v 0.53711 q -0.24414,0 -0.71615,6.136067 -0.19531,3.238932 -0.48828,4.996745 l -0.39062,0.195312 h -0.37435 q -0.37435,-0.09766 -0.60222,-0.602213 0.71615,-8.658854 1.04167,-11.214193 -1.72526,-3.727213 -4.52474,-7.5032545 -0.61849,-0.4394531 -0.61849,-0.9277343 V 7.1559739 q 0,-0.2604167 0.53711,-0.5859375 h 0.48828 q 0.45573,0.1790364 0.66732,0.8463541 2.58789,3.2063805 4.19922,6.6406245 h -0.58594 q 0.68359,-5.9082026 1.02539,-8.2356765 z"
         style="font-style:normal;font-variant:normal;font-weight:normal;font-stretch:normal;font-size:33.33333206px;font-family:'Moon Flower Bold';-inkscape-font-specification:'Moon Flower Bold, ';text-align:center;text-anchor:middle;fill:#18394c;fill-opacity:1"
         id="path3689" />
      <path
         d="m -182.44108,4.5518073 q 2.21355,0 3.33659,9.0820307 0.0651,0.86263 0.0651,2.18099 v 0.260416 q 0,0.260417 -0.0488,0.520834 0.0488,0.0651 0.0488,0.520833 v 0.0651 q 0,0.455729 -0.0488,0.520833 0.0488,0.260417 0.0488,0.325521 0,6.998698 -2.05078,8.723958 -0.83008,0.325521 -1.1556,0.325521 h -0.52084 q -2.65299,-0.634766 -3.27148,-6.363932 l -0.19531,-2.669271 q 0,-9.244791 2.36002,-12.9069002 0.78125,-0.5859375 1.43229,-0.5859375 z m -2.32747,13.2812497 q 0,3.629557 0.96029,6.347656 0.79752,1.595052 1.23698,1.595052 h 0.0651 q 0.97656,0 1.30208,-1.578776 0.69987,-1.660156 0.69987,-7.145182 v -1.302083 q 0,-3.792318 -1.35091,-8.7076824 -0.43945,-0.9765625 -0.65104,-1.1230469 -0.35807,0.1302084 -0.45573,0.4231771 -1.80664,3.8248692 -1.80664,11.4908852 z"
         style="font-style:normal;font-variant:normal;font-weight:normal;font-stretch:normal;font-size:33.33333206px;font-family:'Moon Flower Bold';-inkscape-font-specification:'Moon Flower Bold, ';text-align:center;text-anchor:middle;fill:#18394c;fill-opacity:1"
         id="path3691" />
      <path
         d="m -174.10774,3.9658698 h 0.39062 q 0.63477,0.3092448 0.63477,0.8463541 v 0.3255209 q 0.56966,10.5794262 1.41601,17.0247392 0.53711,4.06901 1.26953,4.06901 0.53711,-0.227865 0.53711,-0.911458 0,-2.555339 -0.53711,-12.890625 0.0814,-1.888021 0.0814,-3.645833 V 7.2373541 l -0.0814,-0.4394532 0.0651,-0.1464843 q -0.0488,-0.797526 -0.21159,-1.9042968 l 0.53711,-0.390625 h 0.35807 q 0.65104,0 0.79753,2.1484374 0,0.4557292 -0.0488,0.4557292 0.0488,0.6510416 0.0488,1.1067707 v 2.0996089 l -0.0651,0.390625 q 0,-0.276692 0.0814,-0.276692 -0.0814,1.106771 -0.0814,1.432291 v 0.260417 q 0.52084,11.328125 0.52084,13.36263 -0.21159,2.197265 -2.09961,2.197265 -2.14844,0 -2.75065,-6.542968 -0.71615,-5.582682 -1.38347,-16.6341142 z"
         style="font-style:normal;font-variant:normal;font-weight:normal;font-stretch:normal;font-size:33.33333206px;font-family:'Moon Flower Bold';-inkscape-font-specification:'Moon Flower Bold, ';text-align:center;text-anchor:middle;fill:#18394c;fill-opacity:1"
         id="path3693" />
      <path
         d="m -163.72364,2.859099 h 0.52084 q 0.19531,0.2604167 1.07421,0.406901 1.41602,0.5696615 2.26237,2.0182291 1.13933,2.750651 1.13933,4.0852863 v 0.6510416 q 0,4.394531 -2.09961,6.038411 2.47396,0.585938 2.94596,6.901042 v 2.490234 q 0,0.553385 0.0814,1.774088 l -0.472,0.309245 h -0.50456 l -0.48828,-0.374349 q -0.0814,-1.448567 -0.0814,-2.099609 v -2.34375 q 0,-2.376302 -1.43229,-4.833984 -0.87891,-0.830078 -1.48112,-0.830078 h 0.35807 q 0.0488,1.074219 0.0488,1.757812 v 2.473958 q 0.1302,3.222657 0.1302,3.645834 v 0.195312 q -0.26041,0.520833 -0.79752,0.520833 -0.30925,0 -0.7487,-0.504557 l 0.0814,-0.553385 q -0.13021,-2.734375 -0.13021,-3.629557 v -3.580729 q -0.16276,0 -0.39062,-0.53711 v -0.309245 q 0.26041,-0.520833 0.30924,-0.520833 -0.30924,-8.5937495 -0.84635,-12.760416 z m 1.12305,1.5625 q 0.35807,4.4108071 0.65104,10.774739 1.75781,-1.188151 1.75781,-4.85026 V 9.4346196 q 0,-1.6438801 -1.36718,-4.1829426 -0.91146,-0.830078 -1.28581,-0.830078 z"
         style="font-style:normal;font-variant:normal;font-weight:normal;font-stretch:normal;font-size:33.33333206px;font-family:'Moon Flower Bold';-inkscape-font-specification:'Moon Flower Bold, ';text-align:center;text-anchor:middle;fill:#18394c;fill-opacity:1"
         id="path3695" />
      <path
         d="m -145.75489,2.859099 h 0.52084 q 0.19531,0.2604167 1.07421,0.406901 1.41602,0.5696615 2.26237,2.0182291 1.13933,2.750651 1.13933,4.0852863 v 0.6510416 q 0,4.394531 -2.09961,6.038411 2.47396,0.585938 2.94596,6.901042 v 2.490234 q 0,0.553385 0.0814,1.774088 l -0.472,0.309245 h -0.50456 l -0.48828,-0.374349 q -0.0814,-1.448567 -0.0814,-2.099609 v -2.34375 q 0,-2.376302 -1.43229,-4.833984 -0.87891,-0.830078 -1.48112,-0.830078 h 0.35807 q 0.0488,1.074219 0.0488,1.757812 v 2.473958 q 0.1302,3.222657 0.1302,3.645834 v 0.195312 q -0.26041,0.520833 -0.79752,0.520833 -0.30925,0 -0.7487,-0.504557 l 0.0814,-0.553385 q -0.13021,-2.734375 -0.13021,-3.629557 v -3.580729 q -0.16276,0 -0.39062,-0.53711 v -0.309245 q 0.26041,-0.520833 0.30924,-0.520833 -0.30924,-8.5937495 -0.84635,-12.760416 z m 1.12305,1.5625 q 0.35807,4.4108071 0.65104,10.774739 1.75781,-1.188151 1.75781,-4.85026 V 9.4346196 q 0,-1.6438801 -1.36718,-4.1829426 -0.91146,-0.830078 -1.28581,-0.830078 z"
         style="font-style:normal;font-variant:normal;font-weight:normal;font-stretch:normal;font-size:33.33333206px;font-family:'Moon Flower Bold';-inkscape-font-specification:'Moon Flower Bold, ';text-align:center;text-anchor:middle;fill:#18394c;fill-opacity:1"
         id="path3697" />
      <path
         d="m -135.24056,25.287484 h 0.35808 q 0.34179,0 0.66732,0.504557 v 0.439453 q -0.58594,0.748698 -1.1556,0.748698 -0.55339,-0.244141 -0.63477,-0.553386 v -0.292968 q 0.37435,-0.667318 0.76497,-0.846354 z"
         style="font-style:normal;font-variant:normal;font-weight:normal;font-stretch:normal;font-size:33.33333206px;font-family:'Moon Flower Bold';-inkscape-font-specification:'Moon Flower Bold, ';text-align:center;text-anchor:middle;fill:#18394c;fill-opacity:1"
         id="path3699" />
      <path
         d="m -125.86556,4.8936041 0.37435,0.4720052 v 0.2115886 q 0,0.2278645 -0.58593,0.6347656 h -0.79753 q -1.44857,0 -1.95312,1.0579426 -0.50456,1.3671875 -0.50456,3.0598959 0,1.02539 0.89518,3.385416 0.29297,0.585938 3.45052,3.450521 1.70899,2.441406 1.70899,4.801432 0,1.855469 -0.79753,3.629557 -0.42318,0.960287 -2.14844,1.595052 -0.65104,0.341797 -1.10677,0.341797 -0.61849,0 -0.86263,-0.520833 v -0.227865 q 0,-0.472005 1.00912,-0.569661 1.85546,-0.69987 1.85546,-1.448568 0.58594,-1.171875 0.58594,-2.978515 0,-2.360026 -2.11588,-4.60612 -1.75782,-1.334635 -2.63672,-2.58789 -0.63477,-0.683594 -1.23698,-3.499349 0,-0.341797 -0.0651,-0.86263 0,-2.1647139 0.81381,-3.8574221 1.02539,-1.4811198 4.11783,-1.4811198 z"
         style="font-style:normal;font-variant:normal;font-weight:normal;font-stretch:normal;font-size:33.33333206px;font-family:'Moon Flower Bold';-inkscape-font-specification:'Moon Flower Bold, ';text-align:center;text-anchor:middle;fill:#18394c;fill-opacity:1"
         id="path3701" />
      <path
         d="m -119.42024,25.287484 h 0.35807 q 0.3418,0 0.66732,0.504557 v 0.439453 q -0.58594,0.748698 -1.1556,0.748698 -0.55339,-0.244141 -0.63477,-0.553386 v -0.292968 q 0.37435,-0.667318 0.76498,-0.846354 z"
         style="font-style:normal;font-variant:normal;font-weight:normal;font-stretch:normal;font-size:33.33333206px;font-family:'Moon Flower Bold';-inkscape-font-specification:'Moon Flower Bold, ';text-align:center;text-anchor:middle;fill:#18394c;fill-opacity:1"
         id="path3703" />
      <path
         d="m -108.53157,4.4867031 h 0.26042 q 0.4069,0 0.60221,0.5533854 l -1.95313,17.4967445 q -0.26041,4.93164 -0.68359,4.93164 l -0.13021,0.0651 h -0.30924 q -0.6836,0 -1.12305,-4.003906 -1.69271,-10.758463 -1.69271,-17.1874992 l -0.19531,-0.8463541 q 0,-0.2929688 0.53711,-0.6184896 h 0.26042 q 0.99283,0 0.99283,5.3873699 0.83008,9.293619 1.51368,13.297525 h -0.69987 q 0,-1.02539 1.82291,-16.5527335 0.14649,-2.5227864 0.79753,-2.5227864 z"
         style="font-style:normal;font-variant:normal;font-weight:normal;font-stretch:normal;font-size:33.33333206px;font-family:'Moon Flower Bold';-inkscape-font-specification:'Moon Flower Bold, ';text-align:center;text-anchor:middle;fill:#18394c;fill-opacity:1"
         id="path3705" />
      <path
         d="m -102.68848,25.287484 h 0.35808 q 0.34179,0 0.66731,0.504557 v 0.439453 q -0.58593,0.748698 -1.1556,0.748698 -0.55338,-0.244141 -0.63476,-0.553386 v -0.292968 q 0.37435,-0.667318 0.76497,-0.846354 z"
         style="font-style:normal;font-variant:normal;font-weight:normal;font-stretch:normal;font-size:33.33333206px;font-family:'Moon Flower Bold';-inkscape-font-specification:'Moon Flower Bold, ';text-align:center;text-anchor:middle;fill:#18394c;fill-opacity:1"
         id="path3707" />
      <path
         d="m -96.25944,4.030974 q 3.466796,0 4.687499,3.0436196 0.211589,0.6673177 0.276693,1.5625 0,4.1178384 -1.448568,9.0332024 -0.748697,1.285808 -2.148437,1.985677 -0.504557,0.01628 -0.504557,-0.130208 v 0.0651 q 0,0.846354 0.0651,1.432292 -0.0651,0.585937 -0.0651,0.651041 0.195312,3.678386 0.195312,3.971354 0.195313,0.03255 0.195313,0.78125 v 0.244141 q -0.260417,0.683594 -0.69987,0.86263 h -0.227865 q -0.341797,0 -0.667317,-0.504557 v -0.537109 q 0,-0.390625 0,-0.390625 -0.04883,-0.276693 -0.130209,-1.350912 0,-0.406901 0.04883,-0.406901 l -0.179036,-2.408854 q 0.0651,-0.667318 0.0651,-0.976562 -0.0651,-1.188151 -0.0651,-1.31836 -0.260417,-0.130208 -0.260417,-0.537109 0.146485,-0.553385 0.227865,-0.553385 -0.09766,-1.383464 -0.09766,-1.757813 l 0.309244,-11.5234369 q -0.113932,0 -0.113932,-0.4557292 V 4.6169114 q 0,-0.2604166 0.53711,-0.5859374 z m 1.041666,1.3834635 -0.309245,11.3769525 q 0.06511,1.367188 0.06511,1.708984 l -0.162761,-0.08138 q 0.439453,0 1.090495,-0.683593 1.02539,-0.651042 1.708984,-7.7962241 0.0651,-1.171875 0.0651,-1.5462239 0,-1.5462239 -1.757812,-2.783203 -0.472005,-0.1627605 -0.69987,-0.1953125 z"
         style="font-style:normal;font-variant:normal;font-weight:normal;font-stretch:normal;font-size:33.33333206px;font-family:'Moon Flower Bold';-inkscape-font-specification:'Moon Flower Bold, ';text-align:center;text-anchor:middle;fill:#18394c;fill-opacity:1"
         id="path3709" />
      <path
         d="m -87.19368,25.287484 h 0.358073 q 0.341797,0 0.667317,0.504557 v 0.439453 q -0.585937,0.748698 -1.155598,0.748698 -0.553386,-0.244141 -0.634766,-0.553386 v -0.292968 q 0.374349,-0.667318 0.764974,-0.846354 z"
         style="font-style:normal;font-variant:normal;font-weight:normal;font-stretch:normal;font-size:33.33333206px;font-family:'Moon Flower Bold';-inkscape-font-specification:'Moon Flower Bold, ';text-align:center;text-anchor:middle;fill:#18394c;fill-opacity:1"
         id="path3711" />
      <path
         d="m -357.8968,55.52837 h 0.27669 q 0.3418,0 0.66732,0.504557 v 0.16276 q -0.52084,4.671224 -1.10677,9.098307 l 0.0651,0.374349 v 0.53711 q -0.24414,0 -0.71615,6.136067 -0.19531,3.238932 -0.48828,4.996745 l -0.39062,0.195312 h -0.37435 q -0.37435,-0.09766 -0.60222,-0.602213 0.71615,-8.658854 1.04167,-11.214193 -1.72526,-3.727213 -4.52474,-7.503254 -0.61849,-0.439454 -0.61849,-0.927735 v -0.130208 q 0,-0.260417 0.53711,-0.585938 h 0.48828 q 0.45573,0.179037 0.66732,0.846355 2.58789,3.20638 4.19922,6.640624 h -0.58594 q 0.6836,-5.908203 1.02539,-8.235677 z"
         style="font-style:normal;font-variant:normal;font-weight:normal;font-stretch:normal;font-size:33.33333206px;font-family:'Moon Flower Bold';-inkscape-font-specification:'Moon Flower Bold, ';text-align:center;text-anchor:middle;fill:#18394c;fill-opacity:1"
         id="path3713" />
      <path
         d="m -350.47493,54.551807 q 2.21354,0 3.33659,9.082031 0.0651,0.86263 0.0651,2.18099 v 0.260416 q 0,0.260417 -0.0488,0.520834 0.0488,0.0651 0.0488,0.520833 v 0.0651 q 0,0.455729 -0.0488,0.520833 0.0488,0.260417 0.0488,0.325521 0,6.998698 -2.05078,8.723958 -0.83008,0.325521 -1.1556,0.325521 h -0.52083 q -2.653,-0.634766 -3.27148,-6.363932 l -0.19532,-2.669271 q 0,-9.244791 2.36003,-12.9069 0.78125,-0.585938 1.43229,-0.585938 z m -2.32747,13.28125 q 0,3.629557 0.96028,6.347656 0.79753,1.595052 1.23698,1.595052 h 0.0651 q 0.97656,0 1.30208,-1.578776 0.69987,-1.660156 0.69987,-7.145182 v -1.302083 q 0,-3.792318 -1.35091,-8.707682 -0.43946,-0.976563 -0.65104,-1.123047 -0.35808,0.130208 -0.45573,0.423177 -1.80664,3.824869 -1.80664,11.490885 z"
         style="font-style:normal;font-variant:normal;font-weight:normal;font-stretch:normal;font-size:33.33333206px;font-family:'Moon Flower Bold';-inkscape-font-specification:'Moon Flower Bold, ';text-align:center;text-anchor:middle;fill:#18394c;fill-opacity:1"
         id="path3715" />
      <path
         d="m -342.1416,53.96587 h 0.39063 q 0.63476,0.309245 0.63476,0.846354 v 0.325521 q 0.56967,10.579426 1.41602,17.024739 0.53711,4.06901 1.26953,4.06901 0.53711,-0.227865 0.53711,-0.911458 0,-2.555339 -0.53711,-12.890625 0.0814,-1.888021 0.0814,-3.645833 v -1.546224 l -0.0814,-0.439453 0.0651,-0.146484 q -0.0488,-0.797526 -0.21159,-1.904297 l 0.53711,-0.390625 h 0.35807 q 0.65104,0 0.79752,2.148437 0,0.455729 -0.0488,0.455729 0.0488,0.651042 0.0488,1.106771 v 2.099609 l -0.0651,0.390625 q 0,-0.276692 0.0814,-0.276692 -0.0814,1.106771 -0.0814,1.432291 v 0.260417 q 0.52083,11.328125 0.52083,13.36263 -0.21158,2.197265 -2.09961,2.197265 -2.14843,0 -2.75065,-6.542968 -0.71614,-5.582682 -1.38346,-16.634114 z"
         style="font-style:normal;font-variant:normal;font-weight:normal;font-stretch:normal;font-size:33.33333206px;font-family:'Moon Flower Bold';-inkscape-font-specification:'Moon Flower Bold, ';text-align:center;text-anchor:middle;fill:#18394c;fill-opacity:1"
         id="path3717" />
      <path
         d="m -330.91113,54.633187 h 0.32552 q 0.35808,0 0.6836,0.53711 -0.73243,3.304036 -1.31836,4.492187 l -0.35808,0.179037 h -0.24414 q -0.34179,0 -0.68359,-0.553386 0.61849,-2.050781 1.1556,-4.378255 z"
         style="font-style:normal;font-variant:normal;font-weight:normal;font-stretch:normal;font-size:33.33333206px;font-family:'Moon Flower Bold';-inkscape-font-specification:'Moon Flower Bold, ';text-align:center;text-anchor:middle;fill:#18394c;fill-opacity:1"
         id="path3719" />
      <path
         d="m -325.52376,53.510141 h 0.0651 q 0.35807,0 0.66731,0.504557 0,0.732422 0.0651,0.732422 l -0.13021,-0.260417 q 0.45573,7.161458 0.45573,12.027994 0.19531,1.578776 0.19531,4.378255 v 5.338542 h 3.10872 q 0.37435,0 0.60222,0.455729 v 0.260417 q 0,0.585937 -1.51367,0.585937 h -2.9948 q -0.34179,0 -0.66731,-0.504557 v -0.472005 q 0,-0.78125 0.0325,-0.78125 l -0.0325,-0.439453 v -4.76888 q -0.26042,-8.561198 -0.52084,-14.241536 l -0.19531,-2.197266 q 0.19531,-0.618489 0.86263,-0.618489 z"
         style="font-style:normal;font-variant:normal;font-weight:normal;font-stretch:normal;font-size:33.33333206px;font-family:'Moon Flower Bold';-inkscape-font-specification:'Moon Flower Bold, ';text-align:center;text-anchor:middle;fill:#18394c;fill-opacity:1"
         id="path3721" />
      <path
         d="m -316.14876,53.510141 h 0.0651 q 0.35807,0 0.66731,0.504557 0,0.732422 0.0651,0.732422 l -0.13021,-0.260417 q 0.45573,7.161458 0.45573,12.027994 0.19531,1.578776 0.19531,4.378255 v 5.338542 h 3.10872 q 0.37435,0 0.60222,0.455729 v 0.260417 q 0,0.585937 -1.51367,0.585937 h -2.9948 q -0.34179,0 -0.66731,-0.504557 v -0.472005 q 0,-0.78125 0.0325,-0.78125 l -0.0325,-0.439453 v -4.76888 q -0.26042,-8.561198 -0.52084,-14.241536 l -0.19531,-2.197266 q 0.19531,-0.618489 0.86263,-0.618489 z"
         style="font-style:normal;font-variant:normal;font-weight:normal;font-stretch:normal;font-size:33.33333206px;font-family:'Moon Flower Bold';-inkscape-font-specification:'Moon Flower Bold, ';text-align:center;text-anchor:middle;fill:#18394c;fill-opacity:1"
         id="path3723" />
      <path
         d="m -297.13834,53.18462 q 2.39258,0 2.88086,4.541015 v 1.269531 q -0.32552,2.360026 -2.19727,5.126953 -0.0651,0.01628 -0.27669,0.292969 v -0.24414 q 1.2207,0.455729 2.11589,1.953124 0.89518,1.334636 1.20442,4.101563 0,3.466797 -1.48112,5.908203 -1.04166,1.139323 -2.11588,1.399739 h -0.19531 q -1.31836,0 -1.31836,-2.522786 -0.78125,-11.214192 -0.78125,-17.252604 -0.13021,-1.741536 -0.40691,-3.45052 1.35092,-1.123047 2.57162,-1.123047 z m -1.00912,1.660156 q 0.50456,3.938802 0.50456,11.474609 0.26042,3.059896 0.65104,9.863281 l -0.0326,-0.03255 q 0.91146,-0.374349 1.38347,-1.627604 0.76497,-2.148438 0.76497,-4.264323 -0.47201,-2.815755 -0.7487,-2.815755 -0.472,-1.39974 -1.77409,-2.148438 -0.66731,0 -1.05794,-0.651041 V 64.28488 q 2.13216,-2.392578 2.73437,-5.208333 v -0.992839 q -0.29296,-3.597005 -1.41601,-3.597005 -0.61849,0 -1.00912,0.358073 z"
         style="font-style:normal;font-variant:normal;font-weight:normal;font-stretch:normal;font-size:33.33333206px;font-family:'Moon Flower Bold';-inkscape-font-specification:'Moon Flower Bold, ';text-align:center;text-anchor:middle;fill:#18394c;fill-opacity:1"
         id="path3725" />
      <path
         d="m -286.64029,54.421599 0.14648,0.08138 q -0.45573,0 -0.45573,-0.09766 2.89714,0.260417 2.89714,0.813802 v 0.113932 q -0.21159,0.602214 -0.76498,0.602214 l -1.88802,-0.195313 q -0.13021,0 -0.83008,0.04883 l 0.0326,0.45573 q 0,1.074218 0.30924,8.284504 h 0.0651 q 0.472,0 0.8138,-0.0651 1.52994,0.130209 2.40885,0.130209 l 0.37435,0.504557 v 0.276693 q 0,0.520833 -0.66732,0.520833 -0.58594,0 -1.88802,-0.130208 -0.86263,0.0651 -1.09049,0.0651 V 65.766 q 0,4.589843 0.43945,10.286458 0.0814,0 0.0814,0.04883 2.03451,-0.113933 2.60417,-0.113933 0.50455,0.162761 0.71614,0.585938 v 0.130208 q 0,0.260417 -0.52083,0.585938 -2.58789,0.0651 -3.10872,0.130208 -1.22071,0 -1.22071,-1.155599 -0.45573,-6.217448 -0.45573,-10.367838 v -2.083333 q -0.32552,-5.729167 -0.32552,-7.714844 -0.19531,-0.976562 -0.19531,-1.220703 l 0.50456,-0.374349 h 0.8789 q 0.35808,0 1.13933,-0.08138 z"
         style="font-style:normal;font-variant:normal;font-weight:normal;font-stretch:normal;font-size:33.33333206px;font-family:'Moon Flower Bold';-inkscape-font-specification:'Moon Flower Bold, ';text-align:center;text-anchor:middle;fill:#18394c;fill-opacity:1"
         id="path3727" />
      <path
         d="m -271.66634,52.859099 h 0.52084 q 0.19531,0.260417 1.07421,0.406901 1.41602,0.569661 2.26237,2.018229 1.13933,2.750651 1.13933,4.085286 v 0.651042 q 0,4.394531 -2.09961,6.038411 2.47396,0.585938 2.94596,6.901042 v 2.490234 q 0,0.553385 0.0814,1.774088 l -0.472,0.309245 h -0.50456 l -0.48828,-0.374349 q -0.0814,-1.448567 -0.0814,-2.099609 v -2.34375 q 0,-2.376302 -1.43229,-4.833984 -0.87891,-0.830078 -1.48112,-0.830078 h 0.35807 q 0.0488,1.074219 0.0488,1.757812 v 2.473958 q 0.13021,3.222657 0.13021,3.645834 v 0.195312 q -0.26042,0.520833 -0.79753,0.520833 -0.30925,0 -0.7487,-0.504557 l 0.0814,-0.553385 q -0.13021,-2.734375 -0.13021,-3.629557 v -3.580729 q -0.16276,0 -0.39062,-0.53711 v -0.309245 q 0.26041,-0.520833 0.30924,-0.520833 -0.30924,-8.593749 -0.84635,-12.760416 z m 1.12305,1.5625 q 0.35807,4.410807 0.65104,10.774739 1.75781,-1.188151 1.75781,-4.85026 V 59.43462 q 0,-1.643881 -1.36718,-4.182943 -0.91146,-0.830078 -1.28581,-0.830078 z"
         style="font-style:normal;font-variant:normal;font-weight:normal;font-stretch:normal;font-size:33.33333206px;font-family:'Moon Flower Bold';-inkscape-font-specification:'Moon Flower Bold, ';text-align:center;text-anchor:middle;fill:#18394c;fill-opacity:1"
         id="path3729" />
      <path
         d="m -259.29654,54.421599 0.14648,0.08138 q -0.45573,0 -0.45573,-0.09766 2.89714,0.260417 2.89714,0.813802 v 0.113932 q -0.21159,0.602214 -0.76498,0.602214 l -1.88802,-0.195313 q -0.13021,0 -0.83008,0.04883 l 0.0326,0.45573 q 0,1.074218 0.30924,8.284504 h 0.0651 q 0.472,0 0.8138,-0.0651 1.52994,0.130209 2.40885,0.130209 l 0.37435,0.504557 v 0.276693 q 0,0.520833 -0.66732,0.520833 -0.58594,0 -1.88802,-0.130208 -0.86263,0.0651 -1.09049,0.0651 V 65.766 q 0,4.589843 0.43945,10.286458 0.0814,0 0.0814,0.04883 2.03451,-0.113933 2.60417,-0.113933 0.50455,0.162761 0.71614,0.585938 v 0.130208 q 0,0.260417 -0.52083,0.585938 -2.58789,0.0651 -3.10872,0.130208 -1.22071,0 -1.22071,-1.155599 -0.45573,-6.217448 -0.45573,-10.367838 v -2.083333 q -0.32552,-5.729167 -0.32552,-7.714844 -0.19531,-0.976562 -0.19531,-1.220703 l 0.50456,-0.374349 h 0.8789 q 0.35808,0 1.13933,-0.08138 z"
         style="font-style:normal;font-variant:normal;font-weight:normal;font-stretch:normal;font-size:33.33333206px;font-family:'Moon Flower Bold';-inkscape-font-specification:'Moon Flower Bold, ';text-align:center;text-anchor:middle;fill:#18394c;fill-opacity:1"
         id="path3731" />
      <path
         d="m -253.11165,53.575245 h 0.55339 q 2.81575,0.927734 4.2806,3.531901 2.11588,4.296875 2.11588,8.83789 v 0.325521 q 0,6.510416 -4.80143,10.693359 -0.7487,0.24414 -1.00911,0.24414 -0.55339,0 -0.6836,-1.416015 l 0.0651,-0.130208 q -0.17904,-1.432292 -0.26042,-4.508464 h -0.11393 l 0.1302,0.260417 v -0.130209 q 0,-2.571614 0.0651,-4.687499 z m 1.54623,1.790364 v -0.423177 q 0.0651,7.340495 0.26041,11.588541 -0.0651,1.741537 -0.0651,3.58073 v 0.781249 q 0,2.457683 0.17904,4.44336 0.83007,-0.716146 2.08333,-2.750651 1.48112,-3.255208 1.48112,-6.119792 v -0.651041 q 0,-4.020182 -1.98568,-8.203125 -1.36719,-2.050781 -1.95312,-2.246094 z"
         style="font-style:normal;font-variant:normal;font-weight:normal;font-stretch:normal;font-size:33.33333206px;font-family:'Moon Flower Bold';-inkscape-font-specification:'Moon Flower Bold, ';text-align:center;text-anchor:middle;fill:#18394c;fill-opacity:1"
         id="path3733" />
      <path
         d="m -241.40917,54.74712 h 0.26041 q 0.86263,0 0.86263,3.776041 v 0.846354 q 0,1.285808 -0.39062,6.591797 0,0.211589 0.0651,0.472005 -0.0651,3.434245 -0.0651,5.436198 v 4.231771 q 0,0.09766 0.13021,0.634765 -0.13021,0.797526 -0.66732,0.797526 h -0.26042 q -0.66732,0 -0.66732,-2.083333 0,-11.311849 0.39063,-15.576171 v -1.806641 q 0,-1.497396 -0.19531,-2.718099 0,-0.276692 0.53711,-0.602213 z"
         style="font-style:normal;font-variant:normal;font-weight:normal;font-stretch:normal;font-size:33.33333206px;font-family:'Moon Flower Bold';-inkscape-font-specification:'Moon Flower Bold, ';text-align:center;text-anchor:middle;fill:#18394c;fill-opacity:1"
         id="path3735" />
      <path
         d="m -235.72885,52.859099 h 0.52084 q 0.19531,0.260417 1.07422,0.406901 1.41601,0.569661 2.26237,2.018229 1.13932,2.750651 1.13932,4.085286 v 0.651042 q 0,4.394531 -2.09961,6.038411 2.47396,0.585938 2.94596,6.901042 v 2.490234 q 0,0.553385 0.0814,1.774088 l -0.472,0.309245 h -0.50456 l -0.48828,-0.374349 q -0.0814,-1.448567 -0.0814,-2.099609 v -2.34375 q 0,-2.376302 -1.43229,-4.833984 -0.87891,-0.830078 -1.48112,-0.830078 h 0.35807 q 0.0488,1.074219 0.0488,1.757812 v 2.473958 q 0.13021,3.222657 0.13021,3.645834 v 0.195312 q -0.26042,0.520833 -0.79753,0.520833 -0.30924,0 -0.7487,-0.504557 l 0.0814,-0.553385 q -0.1302,-2.734375 -0.1302,-3.629557 v -3.580729 q -0.16276,0 -0.39063,-0.53711 v -0.309245 q 0.26042,-0.520833 0.30925,-0.520833 -0.30925,-8.593749 -0.84636,-12.760416 z m 1.12305,1.5625 q 0.35807,4.410807 0.65104,10.774739 1.75782,-1.188151 1.75782,-4.85026 V 59.43462 q 0,-1.643881 -1.36719,-4.182943 -0.91146,-0.830078 -1.28581,-0.830078 z"
         style="font-style:normal;font-variant:normal;font-weight:normal;font-stretch:normal;font-size:33.33333206px;font-family:'Moon Flower Bold';-inkscape-font-specification:'Moon Flower Bold, ';text-align:center;text-anchor:middle;fill:#18394c;fill-opacity:1"
         id="path3737" />
      <path
         d="m -223.35904,54.421599 0.14648,0.08138 q -0.45573,0 -0.45573,-0.09766 2.89714,0.260417 2.89714,0.813802 v 0.113932 q -0.21159,0.602214 -0.76498,0.602214 l -1.88802,-0.195313 q -0.13021,0 -0.83008,0.04883 l 0.0326,0.45573 q 0,1.074218 0.30924,8.284504 h 0.0651 q 0.472,0 0.8138,-0.0651 1.52994,0.130209 2.40885,0.130209 l 0.37435,0.504557 v 0.276693 q 0,0.520833 -0.66732,0.520833 -0.58594,0 -1.88802,-0.130208 -0.86263,0.0651 -1.09049,0.0651 V 65.766 q 0,4.589843 0.43945,10.286458 0.0814,0 0.0814,0.04883 2.03451,-0.113933 2.60417,-0.113933 0.50455,0.162761 0.71614,0.585938 v 0.130208 q 0,0.260417 -0.52083,0.585938 -2.58789,0.0651 -3.10872,0.130208 -1.22071,0 -1.22071,-1.155599 -0.45573,-6.217448 -0.45573,-10.367838 v -2.083333 q -0.32552,-5.729167 -0.32552,-7.714844 -0.19531,-0.976562 -0.19531,-1.220703 l 0.50456,-0.374349 h 0.8789 q 0.35808,0 1.13933,-0.08138 z"
         style="font-style:normal;font-variant:normal;font-weight:normal;font-stretch:normal;font-size:33.33333206px;font-family:'Moon Flower Bold';-inkscape-font-specification:'Moon Flower Bold, ';text-align:center;text-anchor:middle;fill:#18394c;fill-opacity:1"
         id="path3739" />
      <path
         d="m -213.2679,54.812224 h 0.50456 q 1.52995,0.276693 1.52995,1.171875 0,0.260417 -0.53711,0.585937 h -0.60222 q -0.42317,-0.520833 -0.61849,-0.520833 -1.30208,0.455729 -1.30208,0.78125 -1.30208,2.473958 -1.30208,6.705729 v 1.106771 q 0,2.880859 0.78125,6.917317 0.45573,2.913412 1.2207,3.889974 0.86263,0.748698 1.44857,0.78125 0.71614,0 1.83919,-1.432292 h 0.42318 q 0.37435,0 0.60221,0.455729 v 0.195313 q 0,0.748698 -1.61133,1.774088 -0.73242,0.309245 -1.33463,0.309245 h -0.0977 q -1.12304,-0.130208 -2.27864,-1.139323 -1.25326,-0.992838 -2.13216,-7.600911 -0.32553,-1.416015 -0.32553,-4.671224 v -0.390625 q 0.11394,-6.738281 2.3112,-8.398437 1.0905,-0.520833 1.48112,-0.520833 z"
         style="font-style:normal;font-variant:normal;font-weight:normal;font-stretch:normal;font-size:33.33333206px;font-family:'Moon Flower Bold';-inkscape-font-specification:'Moon Flower Bold, ';text-align:center;text-anchor:middle;fill:#18394c;fill-opacity:1"
         id="path3741" />
      <path
         d="m -200.00292,55.658578 0.42317,0.488281 v 0.260417 q 0,0.602213 -2.22981,0.602213 h -1.82292 q 0.19531,0 0.21159,-0.04883 l 0.13021,2.945964 q -0.0651,0.406901 -0.0651,0.439453 0.58594,9.847005 0.58594,14.046223 0.0651,0.113933 0.0651,0.325521 -0.0651,0.09766 -0.0651,0.0651 l 0.0814,0.439453 q -0.22787,0.520834 -0.61849,0.520834 h -0.26042 q -0.27669,0 -0.66731,-0.455729 0,-0.227865 0.0651,-0.732422 0,-1.383464 -0.58594,-14.046224 0,-2.050781 -0.11393,-3.580729 l 0.14648,0.08138 h -0.0651 l -2.27865,0.195313 q -0.42317,-0.455729 -0.42317,-0.846354 0,-0.276693 0.61849,-0.585938 0.56966,0.146485 0.55338,0.146485 1.25326,-0.113933 1.77409,-0.113933 h 2.66927 q 0.79753,0 1.87175,-0.146484 z"
         style="font-style:normal;font-variant:normal;font-weight:normal;font-stretch:normal;font-size:33.33333206px;font-family:'Moon Flower Bold';-inkscape-font-specification:'Moon Flower Bold, ';text-align:center;text-anchor:middle;fill:#18394c;fill-opacity:1"
         id="path3743" />
      <path
         d="m -193.60645,54.421599 0.14648,0.08138 q -0.45572,0 -0.45572,-0.09766 2.89713,0.260417 2.89713,0.813802 v 0.113932 q -0.21159,0.602214 -0.76497,0.602214 l -1.88802,-0.195313 q -0.13021,0 -0.83008,0.04883 l 0.0326,0.45573 q 0,1.074218 0.30924,8.284504 h 0.0651 q 0.472,0 0.8138,-0.0651 1.52995,0.130209 2.40886,0.130209 l 0.37434,0.504557 v 0.276693 q 0,0.520833 -0.66731,0.520833 -0.58594,0 -1.88802,-0.130208 -0.86263,0.0651 -1.0905,0.0651 V 65.766 q 0,4.589843 0.43945,10.286458 0.0814,0 0.0814,0.04883 2.03451,-0.113933 2.60417,-0.113933 0.50456,0.162761 0.71615,0.585938 v 0.130208 q 0,0.260417 -0.52084,0.585938 -2.58789,0.0651 -3.10872,0.130208 -1.2207,0 -1.2207,-1.155599 -0.45573,-6.217448 -0.45573,-10.367838 v -2.083333 q -0.32552,-5.729167 -0.32552,-7.714844 -0.19532,-0.976562 -0.19532,-1.220703 l 0.50456,-0.374349 h 0.87891 q 0.35807,0 1.13932,-0.08138 z"
         style="font-style:normal;font-variant:normal;font-weight:normal;font-stretch:normal;font-size:33.33333206px;font-family:'Moon Flower Bold';-inkscape-font-specification:'Moon Flower Bold, ';text-align:center;text-anchor:middle;fill:#18394c;fill-opacity:1"
         id="path3745" />
      <path
         d="m -187.42155,53.575245 h 0.55338 q 2.81576,0.927734 4.2806,3.531901 2.11589,4.296875 2.11589,8.83789 v 0.325521 q 0,6.510416 -4.80144,10.693359 -0.74869,0.24414 -1.00911,0.24414 -0.55339,0 -0.68359,-1.416015 l 0.0651,-0.130208 q -0.17904,-1.432292 -0.26042,-4.508464 h -0.11393 l 0.13021,0.260417 v -0.130209 q 0,-2.571614 0.0651,-4.687499 z m 1.54622,1.790364 v -0.423177 q 0.0651,7.340495 0.26042,11.588541 -0.0651,1.741537 -0.0651,3.58073 v 0.781249 q 0,2.457683 0.17904,4.44336 0.83008,-0.716146 2.08333,-2.750651 1.48112,-3.255208 1.48112,-6.119792 v -0.651041 q 0,-4.020182 -1.98567,-8.203125 -1.36719,-2.050781 -1.95313,-2.246094 z"
         style="font-style:normal;font-variant:normal;font-weight:normal;font-stretch:normal;font-size:33.33333206px;font-family:'Moon Flower Bold';-inkscape-font-specification:'Moon Flower Bold, ';text-align:center;text-anchor:middle;fill:#18394c;fill-opacity:1"
         id="path3747" />
      <path
         d="m -167.45085,54.74712 h 0.26042 q 0.86263,0 0.86263,3.776041 v 0.846354 q 0,1.285808 -0.39062,6.591797 0,0.211589 0.0651,0.472005 -0.0651,3.434245 -0.0651,5.436198 v 4.231771 q 0,0.09766 0.1302,0.634765 -0.1302,0.797526 -0.66731,0.797526 h -0.26042 q -0.66732,0 -0.66732,-2.083333 0,-11.311849 0.39063,-15.576171 v -1.806641 q 0,-1.497396 -0.19532,-2.718099 0,-0.276692 0.53711,-0.602213 z"
         style="font-style:normal;font-variant:normal;font-weight:normal;font-stretch:normal;font-size:33.33333206px;font-family:'Moon Flower Bold';-inkscape-font-specification:'Moon Flower Bold, ';text-align:center;text-anchor:middle;fill:#18394c;fill-opacity:1"
         id="path3749" />
      <path
         d="m -161.49381,54.405323 q 0.68359,0 3.35287,9.147135 0.37434,2.083333 3.05989,10.270182 h -0.53711 v -0.227865 q -0.37435,-7.910156 -0.37435,-8.886718 0,-0.292969 0.0814,-1.985677 -0.0163,-0.179037 -0.0163,-0.78125 0.13021,-1.285807 0.13021,-2.034505 v -4.638672 q 0.0814,-0.683594 0.8789,-0.683594 l 0.6836,0.358073 q -0.19532,3.857422 -0.19532,5.712891 v 1.839192 q 0,5.664063 0.35808,14.794922 l -0.65105,0.32552 q -0.8138,0 -5.12695,-14.680989 l -1.70898,-5.826822 0.60221,0.976562 0.0488,-0.94401 q 0.11393,1.350911 0.11393,2.148437 l 0.0163,0.553386 q -0.13021,3.613281 -0.13021,5.061848 0,7.275391 0.58594,12.33724 h -0.81381 q -0.76497,0 -0.76497,-0.683594 -0.37435,-5.680339 -0.37435,-10.172526 V 55.088917 q 0.11393,-0.683594 0.78125,-0.683594 z"
         style="font-style:normal;font-variant:normal;font-weight:normal;font-stretch:normal;font-size:33.33333206px;font-family:'Moon Flower Bold';-inkscape-font-specification:'Moon Flower Bold, ';text-align:center;text-anchor:middle;fill:#18394c;fill-opacity:1"
         id="path3751" />
      <path
         d="m -139.96062,54.714568 h 0.0651 q 0.78125,0 1.05794,0.602213 v 0.325521 l -0.29297,0.439453 q -0.35807,0 -1.02539,-0.0651 -1.82292,0.195312 -2.09961,0.244141 l 0.65104,5.615234 h -0.24414 q 3.54818,0 5.33854,3.743489 0.79753,2.18099 0.79753,3.613281 0,5.354818 -3.84115,7.666016 -0.43945,0.406901 -1.02539,0.406901 -0.50455,-0.195313 -0.76497,-0.651042 v -0.195312 q 0,-0.260417 0.53711,-0.585938 0.4069,0 0.39062,-0.01628 2.19727,-1.318359 2.86459,-3.710937 0.37435,-1.106771 0.37435,-3.108724 0,-1.546224 -1.18815,-3.955078 -1.51368,-1.969401 -4.00391,-1.969401 -0.71615,0 -1.31836,-6.689453 -0.0326,-0.292969 -0.19531,-0.520833 v -0.472005 q 0,-0.260417 0.53711,-0.585938 h 0.42317 l 0.22787,0.179036 q 2.08333,-0.309244 2.73437,-0.309244 z"
         style="font-style:normal;font-variant:normal;font-weight:normal;font-stretch:normal;font-size:33.33333206px;font-family:'Moon Flower Bold';-inkscape-font-specification:'Moon Flower Bold, ';text-align:center;text-anchor:middle;fill:#18394c;fill-opacity:1"
         id="path3753" />
      <path
         d="m -119.87598,54.893604 0.37435,0.472005 v 0.211589 q 0,0.227864 -0.58594,0.634765 h -0.79753 q -1.44856,0 -1.95312,1.057943 -0.50456,1.367188 -0.50456,3.059896 0,1.02539 0.89518,3.385416 0.29297,0.585938 3.45053,3.450521 1.70898,2.441406 1.70898,4.801432 0,1.855469 -0.79753,3.629557 -0.42317,0.960287 -2.14843,1.595052 -0.65105,0.341797 -1.10677,0.341797 -0.61849,0 -0.86263,-0.520833 v -0.227865 q 0,-0.472005 1.00911,-0.569661 1.85547,-0.69987 1.85547,-1.448568 0.58594,-1.171875 0.58594,-2.978515 0,-2.360026 -2.11589,-4.60612 -1.75781,-1.334635 -2.63672,-2.58789 -0.63476,-0.683594 -1.23698,-3.499349 0,-0.341797 -0.0651,-0.86263 0,-2.164714 0.8138,-3.857422 1.02539,-1.48112 4.11784,-1.48112 z"
         style="font-style:normal;font-variant:normal;font-weight:normal;font-stretch:normal;font-size:33.33333206px;font-family:'Moon Flower Bold';-inkscape-font-specification:'Moon Flower Bold, ';text-align:center;text-anchor:middle;fill:#18394c;fill-opacity:1"
         id="path3755" />
      <path
         d="m -111.5752,54.421599 0.14648,0.08138 q -0.45572,0 -0.45572,-0.09766 2.89713,0.260417 2.89713,0.813802 v 0.113932 q -0.21159,0.602214 -0.76497,0.602214 l -1.88802,-0.195313 q -0.13021,0 -0.83008,0.04883 l 0.0326,0.45573 q 0,1.074218 0.30924,8.284504 h 0.0651 q 0.472,0 0.8138,-0.0651 1.52995,0.130209 2.40886,0.130209 l 0.37434,0.504557 v 0.276693 q 0,0.520833 -0.66731,0.520833 -0.58594,0 -1.88802,-0.130208 -0.86263,0.0651 -1.0905,0.0651 V 65.766 q 0,4.589843 0.43945,10.286458 0.0814,0 0.0814,0.04883 2.03451,-0.113933 2.60417,-0.113933 0.50456,0.162761 0.71615,0.585938 v 0.130208 q 0,0.260417 -0.52084,0.585938 -2.58789,0.0651 -3.10872,0.130208 -1.2207,0 -1.2207,-1.155599 -0.45573,-6.217448 -0.45573,-10.367838 v -2.083333 q -0.32552,-5.729167 -0.32552,-7.714844 -0.19532,-0.976562 -0.19532,-1.220703 l 0.50456,-0.374349 h 0.87891 q 0.35807,0 1.13932,-0.08138 z"
         style="font-style:normal;font-variant:normal;font-weight:normal;font-stretch:normal;font-size:33.33333206px;font-family:'Moon Flower Bold';-inkscape-font-specification:'Moon Flower Bold, ';text-align:center;text-anchor:middle;fill:#18394c;fill-opacity:1"
         id="path3757" />
      <path
         d="m -101.48405,54.812224 h 0.50455 q 1.529951,0.276693 1.529951,1.171875 0,0.260417 -0.537109,0.585937 h -0.602212 q -0.42318,-0.520833 -0.61849,-0.520833 -1.30208,0.455729 -1.30208,0.78125 -1.30209,2.473958 -1.30209,6.705729 v 1.106771 q 0,2.880859 0.78125,6.917317 0.45573,2.913412 1.22071,3.889974 0.86263,0.748698 1.44856,0.78125 0.716149,0 1.839196,-1.432292 h 0.423177 q 0.374349,0 0.602213,0.455729 v 0.195313 q 0,0.748698 -1.611328,1.774088 -0.732422,0.309245 -1.334638,0.309245 h -0.0977 q -1.12305,-0.130208 -2.27865,-1.139323 -1.25325,-0.992838 -2.13216,-7.600911 -0.32552,-1.416015 -0.32552,-4.671224 v -0.390625 q 0.11393,-6.738281 2.3112,-8.398437 1.09049,-0.520833 1.48112,-0.520833 z"
         style="font-style:normal;font-variant:normal;font-weight:normal;font-stretch:normal;font-size:33.33333206px;font-family:'Moon Flower Bold';-inkscape-font-specification:'Moon Flower Bold, ';text-align:center;text-anchor:middle;fill:#18394c;fill-opacity:1"
         id="path3759" />
      <path
         d="m -91.685877,54.551807 q 2.213542,0 3.336589,9.082031 0.0651,0.86263 0.0651,2.18099 v 0.260416 q 0,0.260417 -0.04883,0.520834 0.04883,0.0651 0.04883,0.520833 v 0.0651 q 0,0.455729 -0.04883,0.520833 0.04883,0.260417 0.04883,0.325521 0,6.998698 -2.050781,8.723958 -0.830079,0.325521 -1.155599,0.325521 h -0.520834 q -2.652994,-0.634766 -3.271484,-6.363932 l -0.195312,-2.669271 q 0,-9.244791 2.360026,-12.9069 0.781249,-0.585938 1.432291,-0.585938 z m -2.327474,13.28125 q 0,3.629557 0.960287,6.347656 0.797526,1.595052 1.236979,1.595052 h 0.0651 q 0.976562,0 1.302083,-1.578776 0.69987,-1.660156 0.69987,-7.145182 v -1.302083 q 0,-3.792318 -1.350911,-8.707682 -0.439453,-0.976563 -0.651042,-1.123047 -0.358073,0.130208 -0.455729,0.423177 -1.806641,3.824869 -1.806641,11.490885 z"
         style="font-style:normal;font-variant:normal;font-weight:normal;font-stretch:normal;font-size:33.33333206px;font-family:'Moon Flower Bold';-inkscape-font-specification:'Moon Flower Bold, ';text-align:center;text-anchor:middle;fill:#18394c;fill-opacity:1"
         id="path3761" />
      <path
         d="m -84.084965,54.405323 q 0.683593,0 3.352864,9.147135 0.374349,2.083333 3.059896,10.270182 h -0.537109 v -0.227865 q -0.374349,-7.910156 -0.374349,-8.886718 0,-0.292969 0.08138,-1.985677 -0.01628,-0.179037 -0.01628,-0.78125 0.130208,-1.285807 0.130208,-2.034505 v -4.638672 q 0.08138,-0.683594 0.878906,-0.683594 l 0.683594,0.358073 q -0.195312,3.857422 -0.195312,5.712891 v 1.839192 q 0,5.664063 0.358072,14.794922 l -0.651041,0.32552 q -0.813802,0 -5.126953,-14.680989 l -1.708984,-5.826822 0.602213,0.976562 0.04883,-0.94401 q 0.113932,1.350911 0.113932,2.148437 l 0.01628,0.553386 q -0.130209,3.613281 -0.130209,5.061848 0,7.275391 0.585938,12.33724 h -0.813802 q -0.764974,0 -0.764974,-0.683594 -0.374349,-5.680339 -0.374349,-10.172526 V 55.088917 q 0.113932,-0.683594 0.78125,-0.683594 z"
         style="font-style:normal;font-variant:normal;font-weight:normal;font-stretch:normal;font-size:33.33333206px;font-family:'Moon Flower Bold';-inkscape-font-specification:'Moon Flower Bold, ';text-align:center;text-anchor:middle;fill:#18394c;fill-opacity:1"
         id="path3763" />
      <path
         d="m -73.749679,53.575245 h 0.553386 q 2.815755,0.927734 4.280598,3.531901 2.115886,4.296875 2.115886,8.83789 v 0.325521 q 0,6.510416 -4.801432,10.693359 -0.748698,0.24414 -1.009115,0.24414 -0.553385,0 -0.683594,-1.416015 l 0.0651,-0.130208 q -0.179036,-1.432292 -0.260416,-4.508464 h -0.113932 l 0.130208,0.260417 v -0.130209 q 0,-2.571614 0.0651,-4.687499 z m 1.546224,1.790364 v -0.423177 q 0.0651,7.340495 0.260417,11.588541 -0.0651,1.741537 -0.0651,3.58073 v 0.781249 q 0,2.457683 0.179036,4.44336 0.830078,-0.716146 2.083333,-2.750651 1.48112,-3.255208 1.48112,-6.119792 v -0.651041 q 0,-4.020182 -1.985677,-8.203125 -1.367187,-2.050781 -1.953125,-2.246094 z"
         style="font-style:normal;font-variant:normal;font-weight:normal;font-stretch:normal;font-size:33.33333206px;font-family:'Moon Flower Bold';-inkscape-font-specification:'Moon Flower Bold, ';text-align:center;text-anchor:middle;fill:#18394c;fill-opacity:1"
         id="path3765" />
      <path
         d="m -59.524419,54.893604 0.374349,0.472005 v 0.211589 q 0,0.227864 -0.585937,0.634765 h -0.797526 q -1.448568,0 -1.953125,1.057943 -0.504557,1.367188 -0.504557,3.059896 0,1.02539 0.895182,3.385416 0.292969,0.585938 3.450521,3.450521 1.708984,2.441406 1.708984,4.801432 0,1.855469 -0.797526,3.629557 -0.423177,0.960287 -2.148437,1.595052 -0.651042,0.341797 -1.106771,0.341797 -0.61849,0 -0.86263,-0.520833 v -0.227865 q 0,-0.472005 1.009114,-0.569661 1.855469,-0.69987 1.855469,-1.448568 0.585937,-1.171875 0.585937,-2.978515 0,-2.360026 -2.115885,-4.60612 -1.757812,-1.334635 -2.636719,-2.58789 -0.634765,-0.683594 -1.236979,-3.499349 0,-0.341797 -0.0651,-0.86263 0,-2.164714 0.813802,-3.857422 1.025391,-1.48112 4.117838,-1.48112 z"
         style="font-style:normal;font-variant:normal;font-weight:normal;font-stretch:normal;font-size:33.33333206px;font-family:'Moon Flower Bold';-inkscape-font-specification:'Moon Flower Bold, ';text-align:center;text-anchor:middle;fill:#18394c;fill-opacity:1"
         id="path3767" />
      <path
         d="m -326.69563,103.88449 h 0.34179 q 0.39063,0 0.66732,0.68359 v 0.14649 q 0,0.27669 -0.53711,1.57877 -1.02539,3.90625 -1.02539,8.2194 0,4.52474 2.00195,13.13477 0.45573,1.39974 2.09961,4.29687 v 0.19532 q -0.17903,0.65104 -0.58593,0.79752 -0.84636,0 -2.42513,-3.5319 -1.22071,-3.17383 -2.36003,-11.26302 -0.19531,-3.20638 -0.19531,-3.72721 0,-5.71289 1.59505,-10.0586 z"
         style="font-style:normal;font-variant:normal;font-weight:normal;font-stretch:normal;font-size:33.33333206px;font-family:'Moon Flower Bold';-inkscape-font-specification:'Moon Flower Bold, ';text-align:center;text-anchor:middle;fill:#18394c;fill-opacity:1"
         id="path3769" />
      <path
         d="m -318.21582,104.55181 q 2.21355,0 3.33659,9.08203 0.0651,0.86263 0.0651,2.18099 v 0.26041 q 0,0.26042 -0.0488,0.52084 0.0488,0.0651 0.0488,0.52083 v 0.0651 q 0,0.45572 -0.0488,0.52083 0.0488,0.26042 0.0488,0.32552 0,6.9987 -2.05079,8.72396 -0.83007,0.32552 -1.15559,0.32552 h -0.52084 q -2.65299,-0.63477 -3.27148,-6.36393 l -0.19531,-2.66927 q 0,-9.2448 2.36002,-12.90691 0.78125,-0.58593 1.43229,-0.58593 z m -2.32747,13.28125 q 0,3.62955 0.96029,6.34765 0.79752,1.59505 1.23698,1.59505 h 0.0651 q 0.97656,0 1.30208,-1.57877 0.69987,-1.66016 0.69987,-7.14518 v -1.30209 q 0,-3.79231 -1.35091,-8.70768 -0.43945,-0.97656 -0.65104,-1.12305 -0.35807,0.13021 -0.45573,0.42318 -1.80664,3.82487 -1.80664,11.49089 z"
         style="font-style:normal;font-variant:normal;font-weight:normal;font-stretch:normal;font-size:33.33333206px;font-family:'Moon Flower Bold';-inkscape-font-specification:'Moon Flower Bold, ';text-align:center;text-anchor:middle;fill:#18394c;fill-opacity:1"
         id="path3771" />
      <path
         d="m -310.8916,102.8591 h 0.52084 q 0.19531,0.26042 1.07421,0.4069 1.41602,0.56966 2.26237,2.01823 1.13933,2.75065 1.13933,4.08529 v 0.65104 q 0,4.39453 -2.09961,6.03841 2.47396,0.58594 2.94596,6.90104 v 2.49023 q 0,0.55339 0.0814,1.77409 l -0.472,0.30925 h -0.50456 l -0.48828,-0.37435 q -0.0814,-1.44857 -0.0814,-2.09961 v -2.34375 q 0,-2.3763 -1.43229,-4.83399 -0.87891,-0.83007 -1.48112,-0.83007 h 0.35807 q 0.0488,1.07422 0.0488,1.75781 v 2.47396 q 0.13021,3.22265 0.13021,3.64583 v 0.19531 q -0.26042,0.52084 -0.79753,0.52084 -0.30924,0 -0.7487,-0.50456 l 0.0814,-0.55339 q -0.13021,-2.73437 -0.13021,-3.62955 v -3.58073 q -0.16276,0 -0.39062,-0.53711 v -0.30925 q 0.26042,-0.52083 0.30924,-0.52083 -0.30924,-8.59375 -0.84635,-12.76042 z m 1.12305,1.5625 q 0.35807,4.41081 0.65104,10.77474 1.75781,-1.18815 1.75781,-4.85026 v -0.91146 q 0,-1.64388 -1.36718,-4.18294 -0.91146,-0.83008 -1.28581,-0.83008 z"
         style="font-style:normal;font-variant:normal;font-weight:normal;font-stretch:normal;font-size:33.33333206px;font-family:'Moon Flower Bold';-inkscape-font-specification:'Moon Flower Bold, ';text-align:center;text-anchor:middle;fill:#18394c;fill-opacity:1"
         id="path3773" />
      <path
         d="m -289.53743,104.81222 h 0.50456 q 1.52994,0.2767 1.52994,1.17188 0,0.26042 -0.5371,0.58594 h -0.60222 q -0.42318,-0.52084 -0.61849,-0.52084 -1.30208,0.45573 -1.30208,0.78125 -1.30208,2.47396 -1.30208,6.70573 v 1.10677 q 0,2.88086 0.78125,6.91732 0.45572,2.91341 1.2207,3.88997 0.86263,0.7487 1.44857,0.78125 0.71614,0 1.83919,-1.43229 h 0.42318 q 0.37434,0 0.60221,0.45573 v 0.19531 q 0,0.7487 -1.61133,1.77409 -0.73242,0.30925 -1.33463,0.30925 h -0.0977 q -1.12305,-0.13021 -2.27865,-1.13933 -1.25325,-0.99283 -2.13216,-7.60091 -0.32552,-1.41601 -0.32552,-4.67122 v -0.39063 q 0.11393,-6.73828 2.3112,-8.39843 1.09049,-0.52084 1.48112,-0.52084 z"
         style="font-style:normal;font-variant:normal;font-weight:normal;font-stretch:normal;font-size:33.33333206px;font-family:'Moon Flower Bold';-inkscape-font-specification:'Moon Flower Bold, ';text-align:center;text-anchor:middle;fill:#18394c;fill-opacity:1"
         id="path3775" />
      <path
         d="m -282.00162,103.51014 h 0.0651 q 0.35807,0 0.66732,0.50456 0,0.73242 0.0651,0.73242 l -0.13021,-0.26042 q 0.45573,7.16146 0.45573,12.028 0.19532,1.57877 0.19532,4.37825 v 5.33854 h 3.10872 q 0.37435,0 0.60221,0.45573 v 0.26042 q 0,0.58594 -1.51367,0.58594 h -2.99479 q -0.3418,0 -0.66732,-0.50456 v -0.47201 q 0,-0.78125 0.0325,-0.78125 l -0.0325,-0.43945 v -4.76888 q -0.26041,-8.5612 -0.52083,-14.24153 l -0.19531,-2.19727 q 0.19531,-0.61849 0.86263,-0.61849 z"
         style="font-style:normal;font-variant:normal;font-weight:normal;font-stretch:normal;font-size:33.33333206px;font-family:'Moon Flower Bold';-inkscape-font-specification:'Moon Flower Bold, ';text-align:center;text-anchor:middle;fill:#18394c;fill-opacity:1"
         id="path3777" />
      <path
         d="m -271.97558,104.74712 h 0.26042 q 0.86263,0 0.86263,3.77604 v 0.84636 q 0,1.2858 -0.39063,6.59179 0,0.21159 0.0651,0.47201 -0.0651,3.43424 -0.0651,5.43619 v 4.23178 q 0,0.0976 0.13021,0.63476 -0.13021,0.79753 -0.66732,0.79753 h -0.26042 q -0.66731,0 -0.66731,-2.08334 0,-11.31184 0.39062,-15.57617 v -1.80664 q 0,-1.49739 -0.19531,-2.7181 0,-0.27669 0.53711,-0.60221 z"
         style="font-style:normal;font-variant:normal;font-weight:normal;font-stretch:normal;font-size:33.33333206px;font-family:'Moon Flower Bold';-inkscape-font-specification:'Moon Flower Bold, ';text-align:center;text-anchor:middle;fill:#18394c;fill-opacity:1"
         id="path3779" />
      <path
         d="m -262.90983,104.81222 h 0.50456 q 1.52995,0.2767 1.52995,1.17188 0,0.26042 -0.53711,0.58594 h -0.60222 q -0.42317,-0.52084 -0.61849,-0.52084 -1.30208,0.45573 -1.30208,0.78125 -1.30208,2.47396 -1.30208,6.70573 v 1.10677 q 0,2.88086 0.78125,6.91732 0.45573,2.91341 1.2207,3.88997 0.86263,0.7487 1.44857,0.78125 0.71614,0 1.83919,-1.43229 h 0.42318 q 0.37435,0 0.60221,0.45573 v 0.19531 q 0,0.7487 -1.61133,1.77409 -0.73242,0.30925 -1.33463,0.30925 h -0.0977 q -1.12305,-0.13021 -2.27864,-1.13933 -1.25326,-0.99283 -2.13217,-7.60091 -0.32552,-1.41601 -0.32552,-4.67122 v -0.39063 q 0.11394,-6.73828 2.3112,-8.39843 1.0905,-0.52084 1.48112,-0.52084 z"
         style="font-style:normal;font-variant:normal;font-weight:normal;font-stretch:normal;font-size:33.33333206px;font-family:'Moon Flower Bold';-inkscape-font-specification:'Moon Flower Bold, ';text-align:center;text-anchor:middle;fill:#18394c;fill-opacity:1"
         id="path3781" />
      <path
         d="m -251.77702,103.70545 q 0.83008,0 1.02539,0.53711 v 0.37435 q 0,2.89714 -1.30208,7.68229 -0.26042,1.25326 -1.00911,4.03646 0.76497,0 3.14127,6.42904 0.55339,1.64388 0.92774,4.03646 v 0.21158 q 0,0.2767 -0.48828,0.52084 h -0.42318 q -0.61849,-0.30925 -0.61849,-0.84636 v -0.0651 q 0,-0.39063 -0.0163,-0.39063 -0.7487,-3.51562 -1.72526,-5.5664 -1.33463,-3.15755 -1.39974,-3.15755 l 0.58594,9.71679 -0.472,0.30925 h -0.40691 q -0.30924,0 -0.73242,-0.56966 v -0.14649 q 0,-0.24414 0.13021,-0.45573 -0.60221,-10.51432 -1.10677,-15.13672 -0.91146,-5.19205 -0.91146,-6.60807 v -0.19531 q 0,-0.26042 0.53711,-0.58594 h 0.26042 q 0.34179,0 0.66732,0.50456 v 0.39062 q 0.19531,1.85547 1.17187,8.77279 0.19531,2.26237 0.19531,2.3112 h -0.66732 q 2.19727,-8.51237 2.19727,-10.41667 v -0.65104 q 0,-0.0488 -0.0814,-0.65104 z"
         style="font-style:normal;font-variant:normal;font-weight:normal;font-stretch:normal;font-size:33.33333206px;font-family:'Moon Flower Bold';-inkscape-font-specification:'Moon Flower Bold, ';text-align:center;text-anchor:middle;fill:#18394c;fill-opacity:1"
         id="path3783" />
      <path
         d="m -232.96191,102.81027 h 0.4069 q 0.55339,0.27669 0.55339,0.65104 0,3.07617 -0.13021,4.75261 l 0.13021,6.68945 q 0.1302,0.22786 0.1302,0.43945 -0.16276,0.48828 -0.11393,0.48828 0.11393,2.70183 0.17904,10.30274 -0.0651,0.35807 -0.0651,1.43229 l -0.45572,0.30924 h -0.50456 l -0.50456,-0.39062 q 0,-0.84636 0.0651,-1.25326 -0.0651,-8.88671 -0.17904,-10.31901 -2.58789,0.0488 -2.63672,0.0651 0.11393,0.99284 0.11393,2.19726 0,2.60417 -0.0651,4.5573 0.0651,1.10677 0.0651,4.45963 -0.48828,0.29297 -0.79752,0.29297 -0.35808,0 -0.66732,-0.52083 v -0.65105 q 0,-2.65299 -0.0651,-3.58072 0.0651,-1.59506 0.0651,-3.90625 v -0.97657 q -0.19531,-3.17383 -0.19531,-4.42708 0.19531,-7.25911 0.19531,-9.21224 -0.0651,-0.26042 -0.0651,-0.63477 l 0.50456,-0.37434 h 0.42318 q 0.60221,0.35807 0.60221,0.84635 0,1.2207 -0.19531,9.76562 v 1.10678 l -0.11393,-0.22787 q 0.11393,-0.0326 2.79948,-0.0814 -0.0488,-2.05078 -0.0488,-3.07617 v -2.99479 q 0,-0.0814 -0.0977,-0.24414 l 0.0977,-0.21159 q 0.0651,-3.0599 0.0651,-4.89909 z"
         style="font-style:normal;font-variant:normal;font-weight:normal;font-stretch:normal;font-size:33.33333206px;font-family:'Moon Flower Bold';-inkscape-font-specification:'Moon Flower Bold, ';text-align:center;text-anchor:middle;fill:#18394c;fill-opacity:1"
         id="path3785" />
      <path
         d="m -225.0192,104.4216 0.14648,0.0814 q -0.45573,0 -0.45573,-0.0977 2.89714,0.26042 2.89714,0.8138 v 0.11394 q -0.21159,0.60221 -0.76497,0.60221 l -1.88803,-0.19531 q -0.1302,0 -0.83007,0.0488 l 0.0325,0.45573 q 0,1.07421 0.30924,8.2845 h 0.0651 q 0.472,0 0.8138,-0.0651 1.52995,0.1302 2.40885,0.1302 l 0.37435,0.50456 v 0.27669 q 0,0.52084 -0.66732,0.52084 -0.58593,0 -1.88802,-0.13021 -0.86263,0.0651 -1.09049,0.0651 v -0.0651 q 0,4.58984 0.43945,10.28646 0.0814,0 0.0814,0.0488 2.03451,-0.11394 2.60417,-0.11394 0.50456,0.16276 0.71614,0.58594 v 0.13021 q 0,0.26042 -0.52083,0.58594 -2.58789,0.0651 -3.10872,0.1302 -1.22071,0 -1.22071,-1.15559 -0.45572,-6.21745 -0.45572,-10.36784 v -2.08334 q -0.32553,-5.72916 -0.32553,-7.71484 -0.19531,-0.97656 -0.19531,-1.2207 l 0.50456,-0.37435 h 0.87891 q 0.35807,0 1.13932,-0.0814 z"
         style="font-style:normal;font-variant:normal;font-weight:normal;font-stretch:normal;font-size:33.33333206px;font-family:'Moon Flower Bold';-inkscape-font-specification:'Moon Flower Bold, ';text-align:center;text-anchor:middle;fill:#18394c;fill-opacity:1"
         id="path3787" />
      <path
         d="m -218.31347,102.8591 h 0.52083 q 0.19531,0.26042 1.07422,0.4069 1.41602,0.56966 2.26237,2.01823 1.13932,2.75065 1.13932,4.08529 v 0.65104 q 0,4.39453 -2.09961,6.03841 2.47396,0.58594 2.94597,6.90104 v 2.49023 q 0,0.55339 0.0814,1.77409 l -0.47201,0.30925 h -0.50456 l -0.48828,-0.37435 q -0.0814,-1.44857 -0.0814,-2.09961 v -2.34375 q 0,-2.3763 -1.43229,-4.83399 -0.8789,-0.83007 -1.48112,-0.83007 h 0.35807 q 0.0488,1.07422 0.0488,1.75781 v 2.47396 q 0.13021,3.22265 0.13021,3.64583 v 0.19531 q -0.26042,0.52084 -0.79753,0.52084 -0.30924,0 -0.74869,-0.50456 l 0.0814,-0.55339 q -0.13021,-2.73437 -0.13021,-3.62955 v -3.58073 q -0.16276,0 -0.39063,-0.53711 v -0.30925 q 0.26042,-0.52083 0.30925,-0.52083 -0.30925,-8.59375 -0.84636,-12.76042 z m 1.12304,1.5625 q 0.35808,4.41081 0.65105,10.77474 1.75781,-1.18815 1.75781,-4.85026 v -0.91146 q 0,-1.64388 -1.36719,-4.18294 -0.91146,-0.83008 -1.28581,-0.83008 z"
         style="font-style:normal;font-variant:normal;font-weight:normal;font-stretch:normal;font-size:33.33333206px;font-family:'Moon Flower Bold';-inkscape-font-specification:'Moon Flower Bold, ';text-align:center;text-anchor:middle;fill:#18394c;fill-opacity:1"
         id="path3789" />
      <path
         d="m -205.94369,104.4216 0.14649,0.0814 q -0.45573,0 -0.45573,-0.0977 2.89713,0.26042 2.89713,0.8138 v 0.11394 q -0.21158,0.60221 -0.76497,0.60221 l -1.88802,-0.19531 q -0.13021,0 -0.83008,0.0488 l 0.0325,0.45573 q 0,1.07421 0.30925,8.2845 h 0.0651 q 0.47201,0 0.81381,-0.0651 1.52994,0.1302 2.40885,0.1302 l 0.37435,0.50456 v 0.27669 q 0,0.52084 -0.66732,0.52084 -0.58594,0 -1.88802,-0.13021 -0.86263,0.0651 -1.09049,0.0651 v -0.0651 q 0,4.58984 0.43945,10.28646 0.0814,0 0.0814,0.0488 2.0345,-0.11394 2.60416,-0.11394 0.50456,0.16276 0.71615,0.58594 v 0.13021 q 0,0.26042 -0.52083,0.58594 -2.58789,0.0651 -3.10873,0.1302 -1.2207,0 -1.2207,-1.15559 -0.45573,-6.21745 -0.45573,-10.36784 v -2.08334 q -0.32552,-5.72916 -0.32552,-7.71484 -0.19531,-0.97656 -0.19531,-1.2207 l 0.50456,-0.37435 h 0.8789 q 0.35807,0 1.13932,-0.0814 z"
         style="font-style:normal;font-variant:normal;font-weight:normal;font-stretch:normal;font-size:33.33333206px;font-family:'Moon Flower Bold';-inkscape-font-specification:'Moon Flower Bold, ';text-align:center;text-anchor:middle;fill:#18394c;fill-opacity:1"
         id="path3791" />
      <path
         d="m -184.67089,105.65858 0.42317,0.48828 v 0.26042 q 0,0.60221 -2.22981,0.60221 h -1.82292 q 0.19531,0 0.21159,-0.0488 l 0.13021,2.94596 q -0.0651,0.40691 -0.0651,0.43946 0.58594,9.847 0.58594,14.04622 0.0651,0.11393 0.0651,0.32552 -0.0651,0.0977 -0.0651,0.0651 l 0.0814,0.43945 q -0.22787,0.52083 -0.61849,0.52083 h -0.26042 q -0.27669,0 -0.66731,-0.45573 0,-0.22786 0.0651,-0.73242 0,-1.38346 -0.58594,-14.04622 0,-2.05078 -0.11393,-3.58073 l 0.14648,0.0814 h -0.0651 l -2.27865,0.19531 q -0.42317,-0.45573 -0.42317,-0.84635 0,-0.27669 0.61849,-0.58594 0.56966,0.14648 0.55338,0.14648 1.25326,-0.11393 1.77409,-0.11393 h 2.66927 q 0.79753,0 1.87175,-0.14648 z"
         style="font-style:normal;font-variant:normal;font-weight:normal;font-stretch:normal;font-size:33.33333206px;font-family:'Moon Flower Bold';-inkscape-font-specification:'Moon Flower Bold, ';text-align:center;text-anchor:middle;fill:#18394c;fill-opacity:1"
         id="path3793" />
      <path
         d="m -178.11166,104.55181 q 2.21354,0 3.33659,9.08203 0.0651,0.86263 0.0651,2.18099 v 0.26041 q 0,0.26042 -0.0488,0.52084 0.0488,0.0651 0.0488,0.52083 v 0.0651 q 0,0.45572 -0.0488,0.52083 0.0488,0.26042 0.0488,0.32552 0,6.9987 -2.05078,8.72396 -0.83008,0.32552 -1.1556,0.32552 h -0.52083 q -2.65299,-0.63477 -3.27148,-6.36393 l -0.19532,-2.66927 q 0,-9.2448 2.36003,-12.90691 0.78125,-0.58593 1.43229,-0.58593 z m -2.32747,13.28125 q 0,3.62955 0.96028,6.34765 0.79753,1.59505 1.23698,1.59505 h 0.0651 q 0.97656,0 1.30208,-1.57877 0.69987,-1.66016 0.69987,-7.14518 v -1.30209 q 0,-3.79231 -1.35091,-8.70768 -0.43946,-0.97656 -0.65104,-1.12305 -0.35808,0.13021 -0.45573,0.42318 -1.80664,3.82487 -1.80664,11.49089 z"
         style="font-style:normal;font-variant:normal;font-weight:normal;font-stretch:normal;font-size:33.33333206px;font-family:'Moon Flower Bold';-inkscape-font-specification:'Moon Flower Bold, ';text-align:center;text-anchor:middle;fill:#18394c;fill-opacity:1"
         id="path3795" />
      <path
         d="m -159.18262,105.52837 h 0.14649 q 1.46484,0 2.36002,1.13932 v 0.22787 q 0,0.26041 -0.53711,0.58593 -0.4069,0 -1.20442,-0.50455 -0.29297,-0.14649 -0.6836,-0.14649 h -0.19531 q -1.61133,0.39063 -1.61133,10.80729 0,4.98047 1.1556,7.56836 0.30925,0.66732 1.20443,1.02539 h 0.11393 q 0.8138,-0.16276 0.8138,-0.97656 0.26042,0 0.65104,-3.597 v -3.15756 -0.0163 q 0.6836,0 0.6836,0.0977 -3.41797,-0.26041 -3.41797,-0.73242 l -0.0651,-0.32552 v -0.0814 q 0,-0.27669 0.48829,-0.52083 h 0.472 q 0.22787,0.17903 2.84831,0.4069 0.45573,0.45573 0.45573,1.54622 v 1.62761 q 0,0.39062 -0.0651,0.99284 0.0651,0.11393 0.0651,0.26041 -0.47201,5.45248 -1.4974,5.45248 0,0.0651 -1.33463,0.32552 h -0.35808 q -1.26953,-0.29297 -2.19726,-1.41602 -1.48112,-2.79948 -1.48112,-8.54492 0,-10.92122 2.42513,-11.96289 z"
         style="font-style:normal;font-variant:normal;font-weight:normal;font-stretch:normal;font-size:33.33333206px;font-family:'Moon Flower Bold';-inkscape-font-specification:'Moon Flower Bold, ';text-align:center;text-anchor:middle;fill:#18394c;fill-opacity:1"
         id="path3797" />
      <path
         d="m -147.77311,104.55181 q 2.21354,0 3.33659,9.08203 0.0651,0.86263 0.0651,2.18099 v 0.26041 q 0,0.26042 -0.0488,0.52084 0.0488,0.0651 0.0488,0.52083 v 0.0651 q 0,0.45572 -0.0488,0.52083 0.0488,0.26042 0.0488,0.32552 0,6.9987 -2.05078,8.72396 -0.83008,0.32552 -1.1556,0.32552 h -0.52083 q -2.653,-0.63477 -3.27149,-6.36393 l -0.19531,-2.66927 q 0,-9.2448 2.36003,-12.90691 0.78125,-0.58593 1.43229,-0.58593 z m -2.32748,13.28125 q 0,3.62955 0.96029,6.34765 0.79753,1.59505 1.23698,1.59505 h 0.0651 q 0.97657,0 1.30209,-1.57877 0.69987,-1.66016 0.69987,-7.14518 v -1.30209 q 0,-3.79231 -1.35092,-8.70768 -0.43945,-0.97656 -0.65104,-1.12305 -0.35807,0.13021 -0.45573,0.42318 -1.80664,3.82487 -1.80664,11.49089 z"
         style="font-style:normal;font-variant:normal;font-weight:normal;font-stretch:normal;font-size:33.33333206px;font-family:'Moon Flower Bold';-inkscape-font-specification:'Moon Flower Bold, ';text-align:center;text-anchor:middle;fill:#18394c;fill-opacity:1"
         id="path3799" />
      <path
         d="m -131.90397,104.40532 q 0.6836,0 3.35287,9.14714 0.37435,2.08333 3.05989,10.27018 h -0.53711 v -0.22786 q -0.37435,-7.91016 -0.37435,-8.88672 0,-0.29297 0.0814,-1.98568 -0.0163,-0.17904 -0.0163,-0.78125 0.13021,-1.28581 0.13021,-2.03451 v -4.63867 q 0.0814,-0.68359 0.8789,-0.68359 l 0.6836,0.35807 q -0.19532,3.85742 -0.19532,5.71289 v 1.8392 q 0,5.66406 0.35808,14.79492 l -0.65104,0.32552 q -0.81381,0 -5.12696,-14.68099 l -1.70898,-5.82682 0.60221,0.97656 0.0488,-0.94401 q 0.11393,1.35091 0.11393,2.14844 l 0.0163,0.55338 q -0.13021,3.61328 -0.13021,5.06185 0,7.27539 0.58594,12.33724 h -0.8138 q -0.76498,0 -0.76498,-0.6836 -0.37435,-5.68033 -0.37435,-10.17252 v -11.29557 q 0.11394,-0.6836 0.78125,-0.6836 z"
         style="font-style:normal;font-variant:normal;font-weight:normal;font-stretch:normal;font-size:33.33333206px;font-family:'Moon Flower Bold';-inkscape-font-specification:'Moon Flower Bold, ';text-align:center;text-anchor:middle;fill:#18394c;fill-opacity:1"
         id="path3801" />
      <path
         d="m -118.21582,104.55181 q 2.21355,0 3.33659,9.08203 0.0651,0.86263 0.0651,2.18099 v 0.26041 q 0,0.26042 -0.0488,0.52084 0.0488,0.0651 0.0488,0.52083 v 0.0651 q 0,0.45572 -0.0488,0.52083 0.0488,0.26042 0.0488,0.32552 0,6.9987 -2.05078,8.72396 -0.83008,0.32552 -1.1556,0.32552 h -0.52084 q -2.65299,-0.63477 -3.27148,-6.36393 l -0.19531,-2.66927 q 0,-9.2448 2.36002,-12.90691 0.78125,-0.58593 1.43229,-0.58593 z m -2.32747,13.28125 q 0,3.62955 0.96029,6.34765 0.79752,1.59505 1.23698,1.59505 h 0.0651 q 0.97656,0 1.30208,-1.57877 0.69987,-1.66016 0.69987,-7.14518 v -1.30209 q 0,-3.79231 -1.35091,-8.70768 -0.43945,-0.97656 -0.65104,-1.12305 -0.35807,0.13021 -0.45573,0.42318 -1.80664,3.82487 -1.80664,11.49089 z"
         style="font-style:normal;font-variant:normal;font-weight:normal;font-stretch:normal;font-size:33.33333206px;font-family:'Moon Flower Bold';-inkscape-font-specification:'Moon Flower Bold, ';text-align:center;text-anchor:middle;fill:#18394c;fill-opacity:1"
         id="path3803" />
      <path
         d="m -102.03743,105.46327 h 0.3418 q 0.37435,0 0.60221,0.472 -0.71615,14.22526 -0.91146,19.61263 -0.26042,1.46484 -0.86263,1.46484 h -0.13021 q -0.66731,0 -1.6276,-3.51562 -1.70899,-5.51758 -1.70899,-5.79427 h 0.73243 q -0.50456,7.24284 -0.50456,9.52148 l -0.45573,0.30925 h -0.3418 q -0.63476,0 -0.92773,-2.50651 -1.43229,-6.72201 -2.81576,-17.15495 -0.0326,0 -0.30924,-1.20443 0,-0.29297 0.53711,-0.61849 h 0.39062 q 0.66732,0 1.12305,4.00391 1.17187,7.69857 1.5625,9.81445 l 0.60221,3.23893 h -0.68359 q 0.52083,-8.31705 0.78125,-9.00065 l 0.60221,-0.11393 q 0.7487,0 1.04167,2.83203 0.30924,1.54623 1.67643,6.02214 l 0.47201,1.6276 -0.55339,0.27669 q 0.39063,-11.50716 0.92774,-18.99414 z"
         style="font-style:normal;font-variant:normal;font-weight:normal;font-stretch:normal;font-size:33.33333206px;font-family:'Moon Flower Bold';-inkscape-font-specification:'Moon Flower Bold, ';text-align:center;text-anchor:middle;fill:#18394c;fill-opacity:1"
         id="path3805" />
      <path
         d="m -98.554363,104.22629 h 0.292969 q 0.423177,0 1.025391,1.44856 1.188151,1.80664 1.985677,5.30599 0.78125,3.71094 0.78125,6.62435 v 1.17188 q 0,7.86132 -2.034505,12.71159 l -0.634766,0.19531 q -0.61849,-0.30925 -0.61849,-0.60222 v -0.22786 q 1.822917,-5.07813 1.822917,-11.50716 v -1.74154 q 0,-4.08528 -1.48112,-8.9681 l -1.64388,-3.43424 v -0.32552 q 0,-0.27669 0.504557,-0.65104 z"
         style="font-style:normal;font-variant:normal;font-weight:normal;font-stretch:normal;font-size:33.33333206px;font-family:'Moon Flower Bold';-inkscape-font-specification:'Moon Flower Bold, ';text-align:center;text-anchor:middle;fill:#18394c;fill-opacity:1"
         id="path3807" />
    </g>
  </g>
</svg>
