<?xml version="1.0" encoding="UTF-8" standalone="no"?>
<!-- Created with Inkscape (http://www.inkscape.org/) -->

<svg
   xmlns:dc="http://purl.org/dc/elements/1.1/"
   xmlns:cc="http://creativecommons.org/ns#"
   xmlns:rdf="http://www.w3.org/1999/02/22-rdf-syntax-ns#"
   xmlns:svg="http://www.w3.org/2000/svg"
   xmlns="http://www.w3.org/2000/svg"
   xmlns:sodipodi="http://sodipodi.sourceforge.net/DTD/sodipodi-0.dtd"
   xmlns:inkscape="http://www.inkscape.org/namespaces/inkscape"
   width="320"
   height="200"
   viewBox="0 0 320 200"
   version="1.1"
   id="svg6533"
   sodipodi:docname="Text_AttendingYes.svg"
   inkscape:version="0.92.3 (2405546, 2018-03-11)">
  <defs
     id="defs6527" />
  <sodipodi:namedview
     id="base"
     pagecolor="#ffffff"
     bordercolor="#666666"
     borderopacity="1.0"
     inkscape:pageopacity="0.0"
     inkscape:pageshadow="2"
     inkscape:zoom="1.4"
     inkscape:cx="-3.016163"
     inkscape:cy="68.645856"
     inkscape:document-units="px"
     inkscape:current-layer="layer1"
     showgrid="false"
     units="px"
     inkscape:window-width="1812"
     inkscape:window-height="1051"
     inkscape:window-x="-9"
     inkscape:window-y="-9"
     inkscape:window-maximized="1"
     inkscape:snap-page="true" />
  <metadata
     id="metadata6530">
    <rdf:RDF>
      <cc:Work
         rdf:about="">
        <dc:format>image/svg+xml</dc:format>
        <dc:type
           rdf:resource="http://purl.org/dc/dcmitype/StillImage" />
        <dc:title />
      </cc:Work>
    </rdf:RDF>
  </metadata>
  <g
     inkscape:label="Layer 1"
     inkscape:groupmode="layer"
     id="layer1"
     transform="translate(0,-922.5197)">
    <rect
       style="opacity:1;fill:#ffffff;fill-opacity:1;stroke:none;stroke-width:0.18751344;stroke-linecap:round;stroke-linejoin:round;stroke-miterlimit:4;stroke-dasharray:none;stroke-opacity:1"
       id="rect7086"
       width="146.65475"
       height="20.599701"
       x="86.672623"
       y="1012.2198" />
    <flowRoot
       xml:space="preserve"
       id="flowRoot844"
       style="font-style:normal;font-weight:normal;font-size:16px;line-height:1.25;font-family:sans-serif;letter-spacing:0px;word-spacing:0px;fill:#000000;fill-opacity:1;stroke:none"
       transform="translate(0,972.5197)"><flowRegion
         id="flowRegion846"
         style="font-size:16px"><rect
           id="rect848"
           width="220.71428"
           height="139.64285"
           x="26.428572"
           y="10.357142"
           style="font-size:16px" /></flowRegion><flowPara
         id="flowPara850" /></flowRoot>    <g
       aria-label="AWESOMESAUCE!   wE'VE RECEIVED YOUR RSVP.  YOU'LL BE REDIRECTED IN 5 SECONDS  (OR CLICK HERE TO GO NOW)"
       transform="translate(1541.8063,983.1899)"
       style="font-style:normal;font-weight:normal;font-size:40px;line-height:1.25;font-family:sans-serif;letter-spacing:0px;word-spacing:0px;fill:#18394c;fill-opacity:1;stroke:none"
       id="flowRoot1413">
      <path
         d="m -1449.9785,-49.244417 h 0.1627 q 1.1719,0.53711 1.8718,2.539063 1.8229,5.63151 2.6855,14.355468 0.5697,2.832031 0.5697,5.045573 -0.1953,0.488281 -1.123,0.488281 -0.3907,-0.748698 -0.9115,-5.452474 -0.1465,-0.504557 -0.6185,-4.085286 l -0.1465,-0.01628 q -3.0924,0.292969 -3.0924,0.390625 v 2.539062 l -0.4395,5.957031 q 0.1465,0.211589 0.1465,0.488281 0,0.276693 -0.5697,0.61849 -1.1067,0 -1.1067,-1.057943 0.5045,-6.868489 0.5045,-8.235676 -0.065,-0.895183 -0.065,-1.822917 0.033,-4.703776 0.7813,-9.960937 0.3743,-1.790365 1.3509,-1.790365 z m 0.293,1.676433 q -0.8301,3.190104 -0.8301,9.261067 -0.065,0 -0.065,1.253255 v -0.244141 q 1.5787,-0.439453 3.1412,-0.439453 v 0.244141 q 0,-1.953125 -2.1484,-9.326172 -0.4069,-0.878906 -0.098,-0.748697 z"
         style="font-style:normal;font-variant:normal;font-weight:normal;font-stretch:normal;font-size:33.33333206px;line-height:1;font-family:'Moon Flower Bold';-inkscape-font-specification:'Moon Flower Bold, ';text-align:center;text-anchor:middle;fill:#18394c;fill-opacity:1"
         id="path2594" />
      <path
         d="m -1431.2448,-48.446891 h 0.3418 q 0.3744,0 0.6022,0.472006 -0.7161,14.225259 -0.9114,19.612629 -0.2605,1.464844 -0.8627,1.464844 h -0.1302 q -0.6673,0 -1.6276,-3.515625 -1.709,-5.517578 -1.709,-5.794271 h 0.7325 q -0.5046,7.242838 -0.5046,9.521484 l -0.4557,0.309245 h -0.3418 q -0.6348,0 -0.9278,-2.50651 -1.4323,-6.722005 -2.8157,-17.154948 -0.033,0 -0.3093,-1.204427 0,-0.292968 0.5371,-0.618489 h 0.3907 q 0.6673,0 1.123,4.003906 1.1719,7.698567 1.5625,9.814453 l 0.6022,3.238932 h -0.6836 q 0.5209,-8.317057 0.7813,-9.000651 l 0.6022,-0.113932 q 0.7487,0 1.0417,2.832031 0.3092,1.546224 1.6764,6.022135 l 0.472,1.627604 -0.5534,0.276693 q 0.3906,-11.507161 0.9278,-18.99414 z"
         style="font-style:normal;font-variant:normal;font-weight:normal;font-stretch:normal;font-size:33.33333206px;line-height:1;font-family:'Moon Flower Bold';-inkscape-font-specification:'Moon Flower Bold, ';text-align:center;text-anchor:middle;fill:#18394c;fill-opacity:1"
         id="path2596" />
      <path
         d="m -1423.6276,-49.488557 0.1465,0.08138 q -0.4557,0 -0.4557,-0.09766 2.8971,0.260416 2.8971,0.813802 v 0.113932 q -0.2116,0.602214 -0.765,0.602214 l -1.888,-0.195313 q -0.1302,0 -0.8301,0.04883 l 0.033,0.455729 q 0,1.074219 0.3092,8.284505 h 0.065 q 0.472,0 0.8138,-0.0651 1.53,0.130208 2.4089,0.130208 l 0.3743,0.504558 v 0.276692 q 0,0.520834 -0.6673,0.520834 -0.5859,0 -1.888,-0.130209 -0.8626,0.0651 -1.0905,0.0651 v -0.0651 q 0,4.589844 0.4394,10.286458 0.081,0 0.081,0.04883 2.0345,-0.113932 2.6042,-0.113932 0.5045,0.162761 0.7161,0.585938 v 0.130208 q 0,0.260417 -0.5208,0.585937 -2.5879,0.0651 -3.1087,0.130209 -1.2207,0 -1.2207,-1.155599 -0.4558,-6.217448 -0.4558,-10.367838 v -2.083334 q -0.3255,-5.729166 -0.3255,-7.714843 -0.1953,-0.976563 -0.1953,-1.220703 l 0.5046,-0.374349 h 0.8789 q 0.358,0 1.1393,-0.08138 z"
         style="font-style:normal;font-variant:normal;font-weight:normal;font-stretch:normal;font-size:33.33333206px;line-height:1;font-family:'Moon Flower Bold';-inkscape-font-specification:'Moon Flower Bold, ';text-align:center;text-anchor:middle;fill:#18394c;fill-opacity:1"
         id="path2598" />
      <path
         d="m -1413.1784,-49.016552 0.3744,0.472005 v 0.211589 q 0,0.227864 -0.586,0.634765 h -0.7975 q -1.4486,0 -1.9531,1.057943 -0.5046,1.367187 -0.5046,3.059896 0,1.02539 0.8952,3.385416 0.293,0.585938 3.4505,3.450521 1.709,2.441406 1.709,4.801432 0,1.855469 -0.7975,3.629557 -0.4232,0.960287 -2.1485,1.595052 -0.651,0.341797 -1.1067,0.341797 -0.6185,0 -0.8627,-0.520833 v -0.227865 q 0,-0.472005 1.0092,-0.569661 1.8554,-0.69987 1.8554,-1.448568 0.586,-1.171875 0.586,-2.978515 0,-2.360026 -2.1159,-4.60612 -1.7578,-1.334635 -2.6367,-2.587891 -0.6348,-0.683593 -1.237,-3.499348 0,-0.341797 -0.065,-0.862631 0,-2.164713 0.8138,-3.857421 1.0254,-1.48112 4.1178,-1.48112 z"
         style="font-style:normal;font-variant:normal;font-weight:normal;font-stretch:normal;font-size:33.33333206px;line-height:1;font-family:'Moon Flower Bold';-inkscape-font-specification:'Moon Flower Bold, ';text-align:center;text-anchor:middle;fill:#18394c;fill-opacity:1"
         id="path2600" />
      <path
         d="m -1404.7148,-49.358349 q 2.2135,0 3.3365,9.082031 0.065,0.86263 0.065,2.180989 v 0.260417 q 0,0.260417 -0.049,0.520833 0.049,0.06511 0.049,0.520834 v 0.0651 q 0,0.455729 -0.049,0.520833 0.049,0.260417 0.049,0.325521 0,6.998698 -2.0507,8.723958 -0.8301,0.325521 -1.1556,0.325521 h -0.5209 q -2.653,-0.634766 -3.2714,-6.363932 l -0.1954,-2.669271 q 0,-9.244791 2.3601,-12.9069 0.7812,-0.585938 1.4323,-0.585938 z m -2.3275,13.28125 q 0,3.629557 0.9603,6.347656 0.7975,1.595052 1.2369,1.595052 h 0.065 q 0.9765,0 1.302,-1.578776 0.6999,-1.660157 0.6999,-7.145182 v -1.302084 q 0,-3.792317 -1.3509,-8.707682 -0.4395,-0.976562 -0.651,-1.123047 -0.3581,0.130209 -0.4558,0.423178 -1.8066,3.824869 -1.8066,11.490885 z"
         style="font-style:normal;font-variant:normal;font-weight:normal;font-stretch:normal;font-size:33.33333206px;line-height:1;font-family:'Moon Flower Bold';-inkscape-font-specification:'Moon Flower Bold, ';text-align:center;text-anchor:middle;fill:#18394c;fill-opacity:1"
         id="path2602" />
      <path
         d="m -1397.4883,-49.618766 q 0.765,0.244141 4.5248,10.465495 h -0.5372 q 0,-0.423177 3.3204,-10.058594 h 0.7812 l 0.293,0.569662 0.016,0.716146 q -0.1791,5.826822 -0.1791,9.847004 0,1.546224 0.586,11.360677 l -0.6999,0.341797 q -0.8789,0 -1.2695,-10.9375 v -7.633463 h 0.5371 q -2.3112,7.177734 -2.8158,7.584635 -1.0417,-0.0651 -4.0527,-8.544921 h 0.5045 v -0.130209 l 0.9603,18.929036 -0.6673,0.358073 q -0.9115,0 -0.9115,-0.716146 -0.5696,-17.008463 -1.1556,-21.761067 z"
         style="font-style:normal;font-variant:normal;font-weight:normal;font-stretch:normal;font-size:33.33333206px;line-height:1;font-family:'Moon Flower Bold';-inkscape-font-specification:'Moon Flower Bold, ';text-align:center;text-anchor:middle;fill:#18394c;fill-opacity:1"
         id="path2604" />
      <path
         d="m -1382.9375,-49.488557 0.1465,0.08138 q -0.4557,0 -0.4557,-0.09766 2.8971,0.260416 2.8971,0.813802 v 0.113932 q -0.2116,0.602214 -0.765,0.602214 l -1.888,-0.195313 q -0.1302,0 -0.8301,0.04883 l 0.033,0.455729 q 0,1.074219 0.3092,8.284505 h 0.065 q 0.472,0 0.8138,-0.0651 1.53,0.130208 2.4089,0.130208 l 0.3743,0.504558 v 0.276692 q 0,0.520834 -0.6673,0.520834 -0.5859,0 -1.888,-0.130209 -0.8626,0.0651 -1.0905,0.0651 v -0.0651 q 0,4.589844 0.4394,10.286458 0.081,0 0.081,0.04883 2.0345,-0.113932 2.6042,-0.113932 0.5045,0.162761 0.7161,0.585938 v 0.130208 q 0,0.260417 -0.5208,0.585937 -2.5879,0.0651 -3.1087,0.130209 -1.2207,0 -1.2207,-1.155599 -0.4558,-6.217448 -0.4558,-10.367838 v -2.083334 q -0.3255,-5.729166 -0.3255,-7.714843 -0.1953,-0.976563 -0.1953,-1.220703 l 0.5046,-0.374349 h 0.8789 q 0.358,0 1.1393,-0.08138 z"
         style="font-style:normal;font-variant:normal;font-weight:normal;font-stretch:normal;font-size:33.33333206px;line-height:1;font-family:'Moon Flower Bold';-inkscape-font-specification:'Moon Flower Bold, ';text-align:center;text-anchor:middle;fill:#18394c;fill-opacity:1"
         id="path2606" />
      <path
         d="m -1372.4883,-49.016552 0.3744,0.472005 v 0.211589 q 0,0.227864 -0.586,0.634765 h -0.7975 q -1.4486,0 -1.9531,1.057943 -0.5046,1.367187 -0.5046,3.059896 0,1.02539 0.8952,3.385416 0.293,0.585938 3.4505,3.450521 1.709,2.441406 1.709,4.801432 0,1.855469 -0.7975,3.629557 -0.4232,0.960287 -2.1485,1.595052 -0.651,0.341797 -1.1067,0.341797 -0.6185,0 -0.8627,-0.520833 v -0.227865 q 0,-0.472005 1.0092,-0.569661 1.8554,-0.69987 1.8554,-1.448568 0.586,-1.171875 0.586,-2.978515 0,-2.360026 -2.1159,-4.60612 -1.7578,-1.334635 -2.6367,-2.587891 -0.6348,-0.683593 -1.237,-3.499348 0,-0.341797 -0.065,-0.862631 0,-2.164713 0.8138,-3.857421 1.0254,-1.48112 4.1178,-1.48112 z"
         style="font-style:normal;font-variant:normal;font-weight:normal;font-stretch:normal;font-size:33.33333206px;line-height:1;font-family:'Moon Flower Bold';-inkscape-font-specification:'Moon Flower Bold, ';text-align:center;text-anchor:middle;fill:#18394c;fill-opacity:1"
         id="path2608" />
      <path
         d="m -1364.6921,-49.244417 h 0.1628 q 1.1719,0.53711 1.8717,2.539063 1.823,5.63151 2.6856,14.355468 0.5697,2.832031 0.5697,5.045573 -0.1954,0.488281 -1.1231,0.488281 -0.3906,-0.748698 -0.9115,-5.452474 -0.1464,-0.504557 -0.6184,-4.085286 l -0.1465,-0.01628 q -3.0925,0.292969 -3.0925,0.390625 v 2.539062 l -0.4394,5.957031 q 0.1465,0.211589 0.1465,0.488281 0,0.276693 -0.5697,0.61849 -1.1068,0 -1.1068,-1.057943 0.5046,-6.868489 0.5046,-8.235676 -0.065,-0.895183 -0.065,-1.822917 0.033,-4.703776 0.7812,-9.960937 0.3744,-1.790365 1.3509,-1.790365 z m 0.293,1.676433 q -0.8301,3.190104 -0.8301,9.261067 -0.065,0 -0.065,1.253255 v -0.244141 q 1.5788,-0.439453 3.1413,-0.439453 v 0.244141 q 0,-1.953125 -2.1484,-9.326172 -0.4069,-0.878906 -0.098,-0.748697 z"
         style="font-style:normal;font-variant:normal;font-weight:normal;font-stretch:normal;font-size:33.33333206px;line-height:1;font-family:'Moon Flower Bold';-inkscape-font-specification:'Moon Flower Bold, ';text-align:center;text-anchor:middle;fill:#18394c;fill-opacity:1"
         id="path2610" />
      <path
         d="m -1353.8034,-49.944286 h 0.3906 q 0.6348,0.309244 0.6348,0.846354 v 0.325521 q 0.5697,10.579426 1.416,17.024738 0.5371,4.069011 1.2696,4.069011 0.5371,-0.227865 0.5371,-0.911459 0,-2.555338 -0.5371,-12.890624 0.081,-1.888021 0.081,-3.645833 v -1.546224 l -0.081,-0.439453 0.065,-0.146485 q -0.049,-0.797526 -0.2116,-1.904296 l 0.5371,-0.390625 h 0.358 q 0.6511,0 0.7976,2.148437 0,0.455729 -0.049,0.455729 0.049,0.651042 0.049,1.106771 v 2.099609 l -0.065,0.390625 q 0,-0.276693 0.081,-0.276693 -0.081,1.106771 -0.081,1.432292 v 0.260417 q 0.5208,11.328124 0.5208,13.362629 -0.2116,2.197266 -2.0996,2.197266 -2.1484,0 -2.7507,-6.542969 -0.7161,-5.582682 -1.3834,-16.634113 z"
         style="font-style:normal;font-variant:normal;font-weight:normal;font-stretch:normal;font-size:33.33333206px;line-height:1;font-family:'Moon Flower Bold';-inkscape-font-specification:'Moon Flower Bold, ';text-align:center;text-anchor:middle;fill:#18394c;fill-opacity:1"
         id="path2612" />
      <path
         d="m -1340.0339,-49.097932 h 0.5046 q 1.5299,0.276692 1.5299,1.171875 0,0.260416 -0.5371,0.585937 h -0.6022 q -0.4232,-0.520833 -0.6185,-0.520833 -1.302,0.455729 -1.302,0.78125 -1.3021,2.473958 -1.3021,6.705729 v 1.10677 q 0,2.88086 0.7812,6.917318 0.4557,2.913411 1.2207,3.889974 0.8627,0.748698 1.4486,0.78125 0.7161,0 1.8392,-1.432292 h 0.4232 q 0.3743,0 0.6022,0.455729 v 0.195313 q 0,0.748698 -1.6114,1.774088 -0.7324,0.309245 -1.3346,0.309245 h -0.098 q -1.1231,-0.130208 -2.2787,-1.139323 -1.2532,-0.992838 -2.1322,-7.600911 -0.3255,-1.416016 -0.3255,-4.671224 v -0.390625 q 0.114,-6.738281 2.3112,-8.398437 1.0905,-0.520833 1.4811,-0.520833 z"
         style="font-style:normal;font-variant:normal;font-weight:normal;font-stretch:normal;font-size:33.33333206px;line-height:1;font-family:'Moon Flower Bold';-inkscape-font-specification:'Moon Flower Bold, ';text-align:center;text-anchor:middle;fill:#18394c;fill-opacity:1"
         id="path2614" />
      <path
         d="m -1330.3984,-49.488557 0.1464,0.08138 q -0.4557,0 -0.4557,-0.09766 2.8972,0.260416 2.8972,0.813802 v 0.113932 q -0.2116,0.602214 -0.765,0.602214 l -1.888,-0.195313 q -0.1303,0 -0.8301,0.04883 l 0.033,0.455729 q 0,1.074219 0.3093,8.284505 h 0.065 q 0.472,0 0.8138,-0.0651 1.5299,0.130208 2.4088,0.130208 l 0.3744,0.504558 v 0.276692 q 0,0.520834 -0.6673,0.520834 -0.586,0 -1.8881,-0.130209 -0.8626,0.0651 -1.0904,0.0651 v -0.0651 q 0,4.589844 0.4394,10.286458 0.081,0 0.081,0.04883 2.0345,-0.113932 2.6042,-0.113932 0.5045,0.162761 0.7161,0.585938 v 0.130208 q 0,0.260417 -0.5208,0.585937 -2.5879,0.0651 -3.1088,0.130209 -1.2207,0 -1.2207,-1.155599 -0.4557,-6.217448 -0.4557,-10.367838 v -2.083334 q -0.3255,-5.729166 -0.3255,-7.714843 -0.1953,-0.976563 -0.1953,-1.220703 l 0.5045,-0.374349 h 0.8789 q 0.3581,0 1.1394,-0.08138 z"
         style="font-style:normal;font-variant:normal;font-weight:normal;font-stretch:normal;font-size:33.33333206px;line-height:1;font-family:'Moon Flower Bold';-inkscape-font-specification:'Moon Flower Bold, ';text-align:center;text-anchor:middle;fill:#18394c;fill-opacity:1"
         id="path2616" />
      <path
         d="m -1322.5697,-50.367464 q 0.3418,0 0.6836,0.53711 l -0.081,0.374349 q 1.237,7.19401 1.237,11.26302 0,1.334636 0.065,6.917318 l -0.4557,0.309244 h -0.4069 q -0.3743,-0.09766 -0.6022,-0.602213 -0.065,-4.752604 -0.065,-6.998698 l -0.065,-0.86263 q 0.065,-0.113932 0.065,-0.195312 0,-1.806641 -1.237,-10.009766 0,-0.732422 0.8626,-0.732422 z m 0.8627,21.875 q 0.9765,0 0.9765,0.797526 -0.1627,1.090494 -1.0905,1.090494 -0.7649,-0.32552 -0.7649,-0.911458 0,-0.553385 0.8789,-0.976562 z"
         style="font-style:normal;font-variant:normal;font-weight:normal;font-stretch:normal;font-size:33.33333206px;line-height:1;font-family:'Moon Flower Bold';-inkscape-font-specification:'Moon Flower Bold, ';text-align:center;text-anchor:middle;fill:#18394c;fill-opacity:1"
         id="path2618" />
      <path
         d="m -1488.9922,1.5531093 h 0.3418 q 0.3744,0 0.6022,0.4720052 -0.7161,14.2252595 -0.9114,19.6126295 -0.2604,1.464844 -0.8627,1.464844 h -0.1302 q -0.6673,0 -1.6276,-3.515625 -1.709,-5.517578 -1.709,-5.794271 h 0.7325 q -0.5046,7.242838 -0.5046,9.521484 l -0.4557,0.309245 h -0.3418 q -0.6348,0 -0.9278,-2.50651 -1.4322,-6.722005 -2.8157,-17.1549476 -0.033,0 -0.3093,-1.204427 0,-0.2929688 0.5372,-0.6184896 h 0.3906 q 0.6673,0 1.123,4.0039061 1.1719,7.6985671 1.5625,9.8144531 l 0.6022,3.238932 h -0.6836 q 0.5209,-8.317057 0.7813,-9.000651 l 0.6022,-0.113932 q 0.7487,0 1.0417,2.832031 0.3092,1.546224 1.6764,6.022135 l 0.472,1.627604 -0.5534,0.276693 q 0.3907,-11.507161 0.9278,-18.9941399 z"
         style="font-style:normal;font-variant:normal;font-weight:normal;font-stretch:normal;font-size:33.33333206px;line-height:1;font-family:'Moon Flower Bold';-inkscape-font-specification:'Moon Flower Bold, ';text-align:center;text-anchor:middle;fill:#18394c;fill-opacity:1"
         id="path2620" />
      <path
         d="m -1481.375,0.51144271 0.1465,0.0813802 q -0.4557,0 -0.4557,-0.0976563 2.8971,0.26041666 2.8971,0.81380204 V 1.422901 q -0.2116,0.6022135 -0.765,0.6022135 l -1.888,-0.1953125 q -0.1302,0 -0.8301,0.048828 l 0.033,0.4557291 q 0,1.0742187 0.3092,8.2845047 h 0.065 q 0.472,0 0.8138,-0.0651 1.53,0.130208 2.4089,0.130208 l 0.3743,0.504558 v 0.276692 q 0,0.520834 -0.6673,0.520834 -0.5859,0 -1.888,-0.130209 -0.8626,0.0651 -1.0905,0.0651 v -0.0651 q 0,4.589844 0.4394,10.286458 0.081,0 0.081,0.04883 2.0345,-0.113932 2.6042,-0.113932 0.5046,0.162761 0.7161,0.585938 v 0.130208 q 0,0.260417 -0.5208,0.585937 -2.5879,0.0651 -3.1087,0.130209 -1.2207,0 -1.2207,-1.155599 -0.4557,-6.217448 -0.4557,-10.367838 V 9.9027184 q -0.3256,-5.7291665 -0.3256,-7.7148435 -0.1953,-0.9765624 -0.1953,-1.22070305 l 0.5046,-0.37434894 h 0.8789 q 0.3581,0 1.1393,-0.0813802 z"
         style="font-style:normal;font-variant:normal;font-weight:normal;font-stretch:normal;font-size:33.33333206px;line-height:1;font-family:'Moon Flower Bold';-inkscape-font-specification:'Moon Flower Bold, ';text-align:center;text-anchor:middle;fill:#18394c;fill-opacity:1"
         id="path2622" />
      <path
         d="m -1473.8229,0.72303124 h 0.3255 q 0.3581,0 0.6836,0.53710936 -0.7324,3.3040363 -1.3184,4.4921873 l -0.358,0.1790365 h -0.2442 q -0.3418,0 -0.6836,-0.5533854 0.6185,-2.0507812 1.1556,-4.37825506 z"
         style="font-style:normal;font-variant:normal;font-weight:normal;font-stretch:normal;font-size:33.33333206px;line-height:1;font-family:'Moon Flower Bold';-inkscape-font-specification:'Moon Flower Bold, ';text-align:center;text-anchor:middle;fill:#18394c;fill-opacity:1"
         id="path2624" />
      <path
         d="m -1463.748,0.57654687 h 0.2604 q 0.4069,0 0.6022,0.55338543 l -1.9531,17.4967437 q -0.2605,4.931641 -0.6836,4.931641 l -0.1302,0.0651 h -0.3093 q -0.6836,0 -1.123,-4.003906 -1.6927,-10.7584632 -1.6927,-17.1874995 l -0.1954,-0.8463541 q 0,-0.2929687 0.5372,-0.61848955 h 0.2604 q 0.9928,0 0.9928,5.38736955 0.8301,9.2936196 1.5137,13.2975256 h -0.6999 q 0,-1.025391 1.8229,-16.5527338 0.1465,-2.52278633 0.7976,-2.52278633 z"
         style="font-style:normal;font-variant:normal;font-weight:normal;font-stretch:normal;font-size:33.33333206px;line-height:1;font-family:'Moon Flower Bold';-inkscape-font-specification:'Moon Flower Bold, ';text-align:center;text-anchor:middle;fill:#18394c;fill-opacity:1"
         id="path2626" />
      <path
         d="m -1456.0495,0.51144271 0.1465,0.0813802 q -0.4557,0 -0.4557,-0.0976563 2.8971,0.26041666 2.8971,0.81380204 V 1.422901 q -0.2116,0.6022135 -0.765,0.6022135 l -1.888,-0.1953125 q -0.1302,0 -0.8301,0.048828 l 0.033,0.4557291 q 0,1.0742187 0.3092,8.2845047 h 0.065 q 0.472,0 0.8138,-0.0651 1.53,0.130208 2.4089,0.130208 l 0.3743,0.504558 v 0.276692 q 0,0.520834 -0.6673,0.520834 -0.5859,0 -1.888,-0.130209 -0.8626,0.0651 -1.0905,0.0651 v -0.0651 q 0,4.589844 0.4395,10.286458 0.081,0 0.081,0.04883 2.0346,-0.113932 2.6042,-0.113932 0.5046,0.162761 0.7162,0.585938 v 0.130208 q 0,0.260417 -0.5209,0.585937 -2.5879,0.0651 -3.1087,0.130209 -1.2207,0 -1.2207,-1.155599 -0.4557,-6.217448 -0.4557,-10.367838 V 9.9027184 q -0.3256,-5.7291665 -0.3256,-7.7148435 -0.1953,-0.9765624 -0.1953,-1.22070305 l 0.5046,-0.37434894 h 0.8789 q 0.3581,0 1.1393,-0.0813802 z"
         style="font-style:normal;font-variant:normal;font-weight:normal;font-stretch:normal;font-size:33.33333206px;line-height:1;font-family:'Moon Flower Bold';-inkscape-font-specification:'Moon Flower Bold, ';text-align:center;text-anchor:middle;fill:#18394c;fill-opacity:1"
         id="path2628" />
      <path
         d="m -1441.0755,-1.0510572 h 0.5208 q 0.1953,0.26041662 1.0742,0.40690099 1.416,0.56966144 2.2624,2.01822911 1.1393,2.7506509 1.1393,4.0852863 v 0.6510416 q 0,4.3945312 -2.0996,6.0384112 2.474,0.585938 2.946,6.901041 v 2.490235 q 0,0.553385 0.081,1.774088 l -0.472,0.309245 h -0.5046 l -0.4883,-0.374349 q -0.081,-1.448568 -0.081,-2.099609 v -2.34375 q 0,-2.376302 -1.4323,-4.833984 -0.8789,-0.830078 -1.4811,-0.830078 h 0.3581 q 0.049,1.074218 0.049,1.757812 v 2.473958 q 0.1302,3.222656 0.1302,3.645833 v 0.195313 q -0.2604,0.520833 -0.7975,0.520833 -0.3092,0 -0.7487,-0.504557 l 0.081,-0.553385 q -0.1302,-2.734375 -0.1302,-3.629558 v -3.580729 q -0.1628,0 -0.3906,-0.537109 v -0.309245 q 0.2604,-0.520833 0.3092,-0.520833 -0.3092,-8.5937497 -0.8464,-12.76041625 z m 1.123,1.56249991 q 0.3581,4.41080709 0.6511,10.77473929 1.7578,-1.188151 1.7578,-4.8502604 V 5.5244633 q 0,-1.6438801 -1.3672,-4.1829425 -0.9115,-0.83007809 -1.2858,-0.83007809 z"
         style="font-style:normal;font-variant:normal;font-weight:normal;font-stretch:normal;font-size:33.33333206px;line-height:1;font-family:'Moon Flower Bold';-inkscape-font-specification:'Moon Flower Bold, ';text-align:center;text-anchor:middle;fill:#18394c;fill-opacity:1"
         id="path2630" />
      <path
         d="m -1428.7057,0.51144271 0.1465,0.0813802 q -0.4558,0 -0.4558,-0.0976563 2.8972,0.26041666 2.8972,0.81380204 V 1.422901 q -0.2116,0.6022135 -0.765,0.6022135 l -1.888,-0.1953125 q -0.1302,0 -0.8301,0.048828 l 0.032,0.4557291 q 0,1.0742187 0.3093,8.2845047 h 0.065 q 0.472,0 0.8138,-0.0651 1.5299,0.130208 2.4088,0.130208 l 0.3744,0.504558 v 0.276692 q 0,0.520834 -0.6673,0.520834 -0.586,0 -1.888,-0.130209 -0.8627,0.0651 -1.0905,0.0651 v -0.0651 q 0,4.589844 0.4394,10.286458 0.081,0 0.081,0.04883 2.0345,-0.113932 2.6042,-0.113932 0.5045,0.162761 0.7161,0.585938 v 0.130208 q 0,0.260417 -0.5208,0.585937 -2.5879,0.0651 -3.1087,0.130209 -1.2208,0 -1.2208,-1.155599 -0.4557,-6.217448 -0.4557,-10.367838 V 9.9027184 q -0.3255,-5.7291665 -0.3255,-7.7148435 -0.1953,-0.9765624 -0.1953,-1.22070305 l 0.5045,-0.37434894 h 0.8789 q 0.3581,0 1.1394,-0.0813802 z"
         style="font-style:normal;font-variant:normal;font-weight:normal;font-stretch:normal;font-size:33.33333206px;line-height:1;font-family:'Moon Flower Bold';-inkscape-font-specification:'Moon Flower Bold, ';text-align:center;text-anchor:middle;fill:#18394c;fill-opacity:1"
         id="path2632" />
      <path
         d="m -1418.6146,0.90206769 h 0.5046 q 1.5299,0.27669271 1.5299,1.17187491 0,0.2604167 -0.5371,0.5859375 h -0.6022 q -0.4232,-0.5208333 -0.6185,-0.5208333 -1.3021,0.4557292 -1.3021,0.78125 -1.3021,2.4739582 -1.3021,6.7057289 v 1.1067703 q 0,2.88086 0.7813,6.917318 0.4557,2.913411 1.2207,3.889974 0.8626,0.748698 1.4486,0.78125 0.7161,0 1.8392,-1.432292 h 0.4231 q 0.3744,0 0.6022,0.455729 v 0.195313 q 0,0.748698 -1.6113,1.774088 -0.7324,0.309245 -1.3346,0.309245 h -0.098 q -1.123,-0.130208 -2.2786,-1.139323 -1.2533,-0.992838 -2.1322,-7.600911 -0.3255,-1.416016 -0.3255,-4.671224 V 9.8213382 q 0.1139,-6.738281 2.3112,-8.3984372 1.0905,-0.52083331 1.4811,-0.52083331 z"
         style="font-style:normal;font-variant:normal;font-weight:normal;font-stretch:normal;font-size:33.33333206px;line-height:1;font-family:'Moon Flower Bold';-inkscape-font-specification:'Moon Flower Bold, ';text-align:center;text-anchor:middle;fill:#18394c;fill-opacity:1"
         id="path2634" />
      <path
         d="m -1408.9792,0.51144271 0.1465,0.0813802 q -0.4557,0 -0.4557,-0.0976563 2.8971,0.26041666 2.8971,0.81380204 V 1.422901 q -0.2116,0.6022135 -0.7649,0.6022135 l -1.8881,-0.1953125 q -0.1302,0 -0.83,0.048828 l 0.033,0.4557291 q 0,1.0742187 0.3092,8.2845047 h 0.065 q 0.472,0 0.8138,-0.0651 1.5299,0.130208 2.4088,0.130208 l 0.3744,0.504558 v 0.276692 q 0,0.520834 -0.6674,0.520834 -0.5859,0 -1.888,-0.130209 -0.8626,0.0651 -1.0905,0.0651 v -0.0651 q 0,4.589844 0.4395,10.286458 0.081,0 0.081,0.04883 2.0345,-0.113932 2.6041,-0.113932 0.5046,0.162761 0.7162,0.585938 v 0.130208 q 0,0.260417 -0.5209,0.585937 -2.5879,0.0651 -3.1087,0.130209 -1.2207,0 -1.2207,-1.155599 -0.4557,-6.217448 -0.4557,-10.367838 V 9.9027184 q -0.3255,-5.7291665 -0.3255,-7.7148435 -0.1954,-0.9765624 -0.1954,-1.22070305 l 0.5046,-0.37434894 h 0.8789 q 0.3581,0 1.1393,-0.0813802 z"
         style="font-style:normal;font-variant:normal;font-weight:normal;font-stretch:normal;font-size:33.33333206px;line-height:1;font-family:'Moon Flower Bold';-inkscape-font-specification:'Moon Flower Bold, ';text-align:center;text-anchor:middle;fill:#18394c;fill-opacity:1"
         id="path2636" />
      <path
         d="m -1401.0527,0.83696353 h 0.2604 q 0.8626,0 0.8626,3.77604147 v 0.8463542 q 0,1.2858072 -0.3906,6.5917968 0,0.211588 0.065,0.472005 -0.065,3.434245 -0.065,5.436198 v 4.23177 q 0,0.09766 0.1302,0.634766 -0.1302,0.797526 -0.6673,0.797526 h -0.2604 q -0.6674,0 -0.6674,-2.083333 0,-11.311849 0.3907,-15.5761715 V 4.1572759 q 0,-1.4973958 -0.1953,-2.7180989 0,-0.2766927 0.5371,-0.60221347 z"
         style="font-style:normal;font-variant:normal;font-weight:normal;font-stretch:normal;font-size:33.33333206px;line-height:1;font-family:'Moon Flower Bold';-inkscape-font-specification:'Moon Flower Bold, ';text-align:center;text-anchor:middle;fill:#18394c;fill-opacity:1"
         id="path2638" />
      <path
         d="m -1390.1152,0.57654687 h 0.2604 q 0.4069,0 0.6022,0.55338543 l -1.9531,17.4967437 q -0.2604,4.931641 -0.6836,4.931641 l -0.1302,0.0651 h -0.3093 q -0.6836,0 -1.123,-4.003906 -1.6927,-10.7584632 -1.6927,-17.1874995 l -0.1953,-0.8463541 q 0,-0.2929687 0.5371,-0.61848955 h 0.2604 q 0.9928,0 0.9928,5.38736955 0.8301,9.2936196 1.5137,13.2975256 h -0.6999 q 0,-1.025391 1.8229,-16.5527338 0.1465,-2.52278633 0.7976,-2.52278633 z"
         style="font-style:normal;font-variant:normal;font-weight:normal;font-stretch:normal;font-size:33.33333206px;line-height:1;font-family:'Moon Flower Bold';-inkscape-font-specification:'Moon Flower Bold, ';text-align:center;text-anchor:middle;fill:#18394c;fill-opacity:1"
         id="path2640" />
      <path
         d="m -1382.4167,0.51144271 0.1465,0.0813802 q -0.4557,0 -0.4557,-0.0976563 2.8971,0.26041666 2.8971,0.81380204 V 1.422901 q -0.2116,0.6022135 -0.7649,0.6022135 l -1.8881,-0.1953125 q -0.1302,0 -0.83,0.048828 l 0.033,0.4557291 q 0,1.0742187 0.3092,8.2845047 h 0.065 q 0.472,0 0.8138,-0.0651 1.5299,0.130208 2.4088,0.130208 l 0.3744,0.504558 v 0.276692 q 0,0.520834 -0.6674,0.520834 -0.5859,0 -1.888,-0.130209 -0.8626,0.0651 -1.0905,0.0651 v -0.0651 q 0,4.589844 0.4395,10.286458 0.081,0 0.081,0.04883 2.0345,-0.113932 2.6041,-0.113932 0.5046,0.162761 0.7162,0.585938 v 0.130208 q 0,0.260417 -0.5209,0.585937 -2.5879,0.0651 -3.1087,0.130209 -1.2207,0 -1.2207,-1.155599 -0.4557,-6.217448 -0.4557,-10.367838 V 9.9027184 q -0.3255,-5.7291665 -0.3255,-7.7148435 -0.1954,-0.9765624 -0.1954,-1.22070305 l 0.5046,-0.37434894 h 0.8789 q 0.3581,0 1.1393,-0.0813802 z"
         style="font-style:normal;font-variant:normal;font-weight:normal;font-stretch:normal;font-size:33.33333206px;line-height:1;font-family:'Moon Flower Bold';-inkscape-font-specification:'Moon Flower Bold, ';text-align:center;text-anchor:middle;fill:#18394c;fill-opacity:1"
         id="path2642" />
      <path
         d="m -1376.2318,-0.33491143 h 0.5534 q 2.8158,0.92773434 4.2806,3.53190093 2.1159,4.2968748 2.1159,8.8378905 v 0.325521 q 0,6.510416 -4.8014,10.693359 -0.7487,0.24414 -1.0091,0.24414 -0.5534,0 -0.6836,-1.416015 l 0.065,-0.130209 q -0.1791,-1.432291 -0.2605,-4.508463 h -0.1139 l 0.1302,0.260417 v -0.130209 q 0,-2.571614 0.065,-4.6875 z m 1.5463,1.79036453 V 1.032276 q 0.065,7.3404945 0.2604,11.588541 -0.065,1.741537 -0.065,3.580729 v 0.78125 q 0,2.457682 0.179,4.443359 0.8301,-0.716145 2.0833,-2.75065 1.4812,-3.255209 1.4812,-6.119792 v -0.651042 q 0,-4.0201817 -1.9857,-8.2031242 -1.3672,-2.0507812 -1.9531,-2.2460937 z"
         style="font-style:normal;font-variant:normal;font-weight:normal;font-stretch:normal;font-size:33.33333206px;line-height:1;font-family:'Moon Flower Bold';-inkscape-font-specification:'Moon Flower Bold, ';text-align:center;text-anchor:middle;fill:#18394c;fill-opacity:1"
         id="path2644" />
      <path
         d="m -1351.4596,1.6182135 h 0.2767 q 0.3418,0 0.6673,0.5045573 v 0.1627604 q -0.5209,4.6712238 -1.1068,9.0983068 l 0.065,0.374349 v 0.537109 q -0.2441,0 -0.7161,6.136068 -0.1954,3.238932 -0.4883,4.996744 l -0.3906,0.195313 h -0.3744 q -0.3743,-0.09766 -0.6022,-0.602214 0.7161,-8.658853 1.0417,-11.214192 -1.7253,-3.7272132 -4.5248,-7.5032547 -0.6185,-0.4394531 -0.6185,-0.9277344 V 3.2458176 q 0,-0.2604167 0.5371,-0.5859375 h 0.4883 q 0.4558,0.1790365 0.6673,0.8463542 2.5879,3.20638 4.1993,6.6406247 h -0.586 q 0.6836,-5.9082029 1.0254,-8.2356768 z"
         style="font-style:normal;font-variant:normal;font-weight:normal;font-stretch:normal;font-size:33.33333206px;line-height:1;font-family:'Moon Flower Bold';-inkscape-font-specification:'Moon Flower Bold, ';text-align:center;text-anchor:middle;fill:#18394c;fill-opacity:1"
         id="path2646" />
      <path
         d="m -1344.0378,0.64165103 q 2.2136,0 3.3366,9.08203087 0.065,0.8626301 0.065,2.1809891 v 0.260417 q 0,0.260417 -0.049,0.520833 0.049,0.0651 0.049,0.520834 v 0.0651 q 0,0.455729 -0.049,0.520833 0.049,0.260417 0.049,0.325521 0,6.998698 -2.0507,8.723958 -0.8301,0.325521 -1.1556,0.325521 h -0.5209 q -2.653,-0.634766 -3.2715,-6.363932 l -0.1953,-2.669271 q 0,-9.2447913 2.3601,-12.9069005 0.7812,-0.58593747 1.4322,-0.58593747 z m -2.3274,13.28124997 q 0,3.629557 0.9603,6.347656 0.7975,1.595052 1.2369,1.595052 h 0.065 q 0.9766,0 1.3021,-1.578776 0.6999,-1.660157 0.6999,-7.145182 v -1.302084 q 0,-3.7923173 -1.3509,-8.7076817 -0.4395,-0.9765624 -0.6511,-1.1230468 -0.358,0.1302083 -0.4557,0.423177 -1.8066,3.8248697 -1.8066,11.4908855 z"
         style="font-style:normal;font-variant:normal;font-weight:normal;font-stretch:normal;font-size:33.33333206px;line-height:1;font-family:'Moon Flower Bold';-inkscape-font-specification:'Moon Flower Bold, ';text-align:center;text-anchor:middle;fill:#18394c;fill-opacity:1"
         id="path2648" />
      <path
         d="m -1335.7044,0.05571356 h 0.3906 q 0.6348,0.30924478 0.6348,0.84635413 V 1.2275885 q 0.5696,10.5794265 1.416,17.0247385 0.5371,4.069011 1.2695,4.069011 0.5371,-0.227865 0.5371,-0.911459 0,-2.555338 -0.5371,-12.8906241 0.081,-1.8880208 0.081,-3.6458332 V 3.3271978 l -0.081,-0.4394531 0.065,-0.1464844 q -0.049,-0.797526 -0.2116,-1.90429677 l 0.5371,-0.39062499 h 0.3581 q 0.6511,0 0.7975,2.14843746 0,0.4557291 -0.049,0.4557291 0.049,0.6510417 0.049,1.1067708 v 2.0996093 l -0.065,0.390625 q 0,-0.2766927 0.081,-0.2766927 -0.081,1.1067708 -0.081,1.4322916 v 0.2604167 q 0.5209,11.3281242 0.5209,13.3626292 -0.2116,2.197266 -2.0996,2.197266 -2.1485,0 -2.7507,-6.542969 -0.7161,-5.582682 -1.3835,-16.63411346 z"
         style="font-style:normal;font-variant:normal;font-weight:normal;font-stretch:normal;font-size:33.33333206px;line-height:1;font-family:'Moon Flower Bold';-inkscape-font-specification:'Moon Flower Bold, ';text-align:center;text-anchor:middle;fill:#18394c;fill-opacity:1"
         id="path2650" />
      <path
         d="m -1325.3203,-1.0510572 h 0.5208 q 0.1953,0.26041662 1.0742,0.40690099 1.416,0.56966144 2.2624,2.01822911 1.1393,2.7506509 1.1393,4.0852863 v 0.6510416 q 0,4.3945312 -2.0996,6.0384112 2.474,0.585938 2.946,6.901041 v 2.490235 q 0,0.553385 0.081,1.774088 l -0.472,0.309245 h -0.5046 l -0.4883,-0.374349 q -0.081,-1.448568 -0.081,-2.099609 v -2.34375 q 0,-2.376302 -1.4323,-4.833984 -0.8789,-0.830078 -1.4811,-0.830078 h 0.3581 q 0.049,1.074218 0.049,1.757812 v 2.473958 q 0.1302,3.222656 0.1302,3.645833 v 0.195313 q -0.2604,0.520833 -0.7975,0.520833 -0.3092,0 -0.7487,-0.504557 l 0.081,-0.553385 q -0.1302,-2.734375 -0.1302,-3.629558 v -3.580729 q -0.1628,0 -0.3906,-0.537109 v -0.309245 q 0.2604,-0.520833 0.3092,-0.520833 -0.3092,-8.5937497 -0.8464,-12.76041625 z m 1.123,1.56249991 q 0.3581,4.41080709 0.6511,10.77473929 1.7578,-1.188151 1.7578,-4.8502604 V 5.5244633 q 0,-1.6438801 -1.3672,-4.1829425 -0.9115,-0.83007809 -1.2858,-0.83007809 z"
         style="font-style:normal;font-variant:normal;font-weight:normal;font-stretch:normal;font-size:33.33333206px;line-height:1;font-family:'Moon Flower Bold';-inkscape-font-specification:'Moon Flower Bold, ';text-align:center;text-anchor:middle;fill:#18394c;fill-opacity:1"
         id="path2652" />
      <path
         d="m -1307.3516,-1.0510572 h 0.5209 q 0.1953,0.26041662 1.0742,0.40690099 1.416,0.56966144 2.2624,2.01822911 1.1393,2.7506509 1.1393,4.0852863 v 0.6510416 q 0,4.3945312 -2.0996,6.0384112 2.4739,0.585938 2.9459,6.901041 v 2.490235 q 0,0.553385 0.081,1.774088 l -0.472,0.309245 h -0.5046 l -0.4882,-0.374349 q -0.081,-1.448568 -0.081,-2.099609 v -2.34375 q 0,-2.376302 -1.4323,-4.833984 -0.8789,-0.830078 -1.4811,-0.830078 h 0.358 q 0.049,1.074218 0.049,1.757812 v 2.473958 q 0.1302,3.222656 0.1302,3.645833 v 0.195313 q -0.2604,0.520833 -0.7975,0.520833 -0.3093,0 -0.7487,-0.504557 l 0.081,-0.553385 q -0.1302,-2.734375 -0.1302,-3.629558 v -3.580729 q -0.1627,0 -0.3906,-0.537109 v -0.309245 q 0.2604,-0.520833 0.3093,-0.520833 -0.3093,-8.5937497 -0.8464,-12.76041625 z m 1.1231,1.56249991 q 0.3581,4.41080709 0.651,10.77473929 1.7578,-1.188151 1.7578,-4.8502604 V 5.5244633 q 0,-1.6438801 -1.3672,-4.1829425 -0.9114,-0.83007809 -1.2858,-0.83007809 z"
         style="font-style:normal;font-variant:normal;font-weight:normal;font-stretch:normal;font-size:33.33333206px;line-height:1;font-family:'Moon Flower Bold';-inkscape-font-specification:'Moon Flower Bold, ';text-align:center;text-anchor:middle;fill:#18394c;fill-opacity:1"
         id="path2654" />
      <path
         d="m -1293.9075,0.9834479 0.3743,0.4720052 v 0.2115885 q 0,0.2278646 -0.5859,0.6347656 h -0.7976 q -1.4485,0 -1.9531,1.0579427 -0.5045,1.3671874 -0.5045,3.0598957 0,1.0253906 0.8951,3.3854165 0.293,0.5859379 3.4506,3.4505209 1.7089,2.441406 1.7089,4.801432 0,1.855469 -0.7975,3.629557 -0.4232,0.960287 -2.1484,1.595052 -0.6511,0.341797 -1.1068,0.341797 -0.6185,0 -0.8626,-0.520833 v -0.227865 q 0,-0.472005 1.0091,-0.569661 1.8555,-0.69987 1.8555,-1.448568 0.5859,-1.171875 0.5859,-2.978515 0,-2.360026 -2.1159,-4.60612 -1.7578,-1.334635 -2.6367,-2.587891 -0.6348,-0.683593 -1.237,-3.4993485 0,-0.3417968 -0.065,-0.8626301 0,-2.1647135 0.8138,-3.8574218 1.0254,-1.4811197 4.1179,-1.4811197 z"
         style="font-style:normal;font-variant:normal;font-weight:normal;font-stretch:normal;font-size:33.33333206px;line-height:1;font-family:'Moon Flower Bold';-inkscape-font-specification:'Moon Flower Bold, ';text-align:center;text-anchor:middle;fill:#18394c;fill-opacity:1"
         id="path2656" />
      <path
         d="m -1283.0189,0.57654687 h 0.2604 q 0.4069,0 0.6023,0.55338543 l -1.9532,17.4967437 q -0.2604,4.931641 -0.6836,4.931641 l -0.1302,0.0651 h -0.3092 q -0.6836,0 -1.1231,-4.003906 -1.6927,-10.7584632 -1.6927,-17.1874995 l -0.1953,-0.8463541 q 0,-0.2929687 0.5371,-0.61848955 h 0.2604 q 0.9929,0 0.9929,5.38736955 0.8301,9.2936196 1.5137,13.2975256 h -0.6999 q 0,-1.025391 1.8229,-16.5527338 0.1465,-2.52278633 0.7975,-2.52278633 z"
         style="font-style:normal;font-variant:normal;font-weight:normal;font-stretch:normal;font-size:33.33333206px;line-height:1;font-family:'Moon Flower Bold';-inkscape-font-specification:'Moon Flower Bold, ';text-align:center;text-anchor:middle;fill:#18394c;fill-opacity:1"
         id="path2658" />
      <path
         d="m -1277.1921,0.12081772 q 3.4668,0 4.6875,3.04361968 0.2116,0.6673177 0.2767,1.5624999 0,4.1178384 -1.4485,9.0332027 -0.7487,1.285807 -2.1485,1.985677 -0.5045,0.01628 -0.5045,-0.130208 v 0.0651 q 0,0.846354 0.065,1.432292 -0.065,0.585937 -0.065,0.651041 0.1953,3.678385 0.1953,3.971354 0.1953,0.03255 0.1953,0.78125 v 0.244141 q -0.2604,0.683594 -0.6999,0.86263 h -0.2278 q -0.3418,0 -0.6674,-0.504557 v -0.53711 q 0,-0.390625 0,-0.390625 -0.049,-0.276692 -0.1302,-1.350911 0,-0.406901 0.049,-0.406901 l -0.1791,-2.408854 q 0.065,-0.667318 0.065,-0.976563 -0.065,-1.188151 -0.065,-1.318359 -0.2604,-0.130208 -0.2604,-0.537109 0.1465,-0.553386 0.2279,-0.553386 -0.098,-1.383463 -0.098,-1.757812 l 0.3093,-11.5234372 q -0.114,0 -0.114,-0.45572911 V 0.7067552 q 0,-0.26041666 0.5371,-0.58593748 z m 1.0417,1.38346348 -0.3092,11.3769528 q 0.065,1.367187 0.065,1.708984 l -0.1628,-0.08138 q 0.4395,0 1.0905,-0.683594 1.0254,-0.651041 1.709,-7.7962234 0.065,-1.1718749 0.065,-1.5462239 0,-1.5462239 -1.7578,-2.783203 -0.472,-0.1627604 -0.6999,-0.1953125 z"
         style="font-style:normal;font-variant:normal;font-weight:normal;font-stretch:normal;font-size:33.33333206px;line-height:1;font-family:'Moon Flower Bold';-inkscape-font-specification:'Moon Flower Bold, ';text-align:center;text-anchor:middle;fill:#18394c;fill-opacity:1"
         id="path2660" />
      <path
         d="m -1268.1263,21.377327 h 0.3581 q 0.3418,0 0.6673,0.504558 v 0.439453 q -0.5859,0.748698 -1.1556,0.748698 -0.5534,-0.244141 -0.6348,-0.553386 v -0.292969 q 0.3744,-0.667317 0.765,-0.846354 z"
         style="font-style:normal;font-variant:normal;font-weight:normal;font-stretch:normal;font-size:33.33333206px;line-height:1;font-family:'Moon Flower Bold';-inkscape-font-specification:'Moon Flower Bold, ';text-align:center;text-anchor:middle;fill:#18394c;fill-opacity:1"
         id="path2662" />
      <path
         d="m -1529.1615,51.618213 h 0.2767 q 0.3418,0 0.6674,0.504558 v 0.16276 q -0.5209,4.671224 -1.1068,9.098307 l 0.065,0.374349 v 0.537109 q -0.2441,0 -0.7162,6.136068 -0.1953,3.238932 -0.4882,4.996744 l -0.3907,0.195313 h -0.3743 q -0.3744,-0.09766 -0.6022,-0.602214 0.7161,-8.658853 1.0416,-11.214192 -1.7252,-3.727213 -4.5247,-7.503255 -0.6185,-0.439453 -0.6185,-0.927734 v -0.130208 q 0,-0.260417 0.5371,-0.585938 h 0.4883 q 0.4557,0.179037 0.6673,0.846354 2.5879,3.20638 4.1992,6.640625 h -0.5859 q 0.6836,-5.908203 1.0254,-8.235677 z"
         style="font-style:normal;font-variant:normal;font-weight:normal;font-stretch:normal;font-size:33.33333206px;line-height:1;font-family:'Moon Flower Bold';-inkscape-font-specification:'Moon Flower Bold, ';text-align:center;text-anchor:middle;fill:#18394c;fill-opacity:1"
         id="path2664" />
      <path
         d="m -1521.7396,50.641651 q 2.2136,0 3.3366,9.082031 0.065,0.86263 0.065,2.180989 v 0.260417 q 0,0.260417 -0.049,0.520833 0.049,0.06511 0.049,0.520834 v 0.0651 q 0,0.455729 -0.049,0.520833 0.049,0.260417 0.049,0.325521 0,6.998698 -2.0508,8.723958 -0.83,0.325521 -1.1556,0.325521 h -0.5208 q -2.653,-0.634766 -3.2715,-6.363932 l -0.1953,-2.669271 q 0,-9.244791 2.36,-12.9069 0.7813,-0.585938 1.4323,-0.585938 z m -2.3275,13.28125 q 0,3.629557 0.9603,6.347656 0.7976,1.595052 1.237,1.595052 h 0.065 q 0.9766,0 1.3021,-1.578776 0.6999,-1.660157 0.6999,-7.145182 v -1.302084 q 0,-3.792317 -1.3509,-8.707682 -0.4395,-0.976562 -0.6511,-1.123047 -0.3581,0.130209 -0.4557,0.423178 -1.8067,3.824869 -1.8067,11.490885 z"
         style="font-style:normal;font-variant:normal;font-weight:normal;font-stretch:normal;font-size:33.33333206px;line-height:1;font-family:'Moon Flower Bold';-inkscape-font-specification:'Moon Flower Bold, ';text-align:center;text-anchor:middle;fill:#18394c;fill-opacity:1"
         id="path2666" />
      <path
         d="m -1513.4062,50.055714 h 0.3906 q 0.6347,0.309244 0.6347,0.846354 v 0.325521 q 0.5697,10.579426 1.4161,17.024738 0.5371,4.069011 1.2695,4.069011 0.5371,-0.227865 0.5371,-0.911459 0,-2.555338 -0.5371,-12.890624 0.081,-1.888021 0.081,-3.645833 v -1.546224 l -0.081,-0.439453 0.065,-0.146485 q -0.049,-0.797526 -0.2116,-1.904296 l 0.5371,-0.390625 h 0.3581 q 0.651,0 0.7975,2.148437 0,0.455729 -0.049,0.455729 0.049,0.651042 0.049,1.106771 v 2.099609 l -0.065,0.390625 q 0,-0.276693 0.081,-0.276693 -0.081,1.106771 -0.081,1.432292 v 0.260417 q 0.5208,11.328124 0.5208,13.362629 -0.2115,2.197266 -2.0996,2.197266 -2.1484,0 -2.7506,-6.542969 -0.7162,-5.582682 -1.3835,-16.634113 z"
         style="font-style:normal;font-variant:normal;font-weight:normal;font-stretch:normal;font-size:33.33333206px;line-height:1;font-family:'Moon Flower Bold';-inkscape-font-specification:'Moon Flower Bold, ';text-align:center;text-anchor:middle;fill:#18394c;fill-opacity:1"
         id="path2668" />
      <path
         d="m -1502.1758,50.723031 h 0.3255 q 0.3581,0 0.6836,0.53711 -0.7324,3.304036 -1.3183,4.492187 l -0.3581,0.179036 h -0.2441 q -0.3418,0 -0.6836,-0.553385 0.6185,-2.050781 1.1556,-4.378255 z"
         style="font-style:normal;font-variant:normal;font-weight:normal;font-stretch:normal;font-size:33.33333206px;line-height:1;font-family:'Moon Flower Bold';-inkscape-font-specification:'Moon Flower Bold, ';text-align:center;text-anchor:middle;fill:#18394c;fill-opacity:1"
         id="path2670" />
      <path
         d="m -1496.7884,49.599984 h 0.065 q 0.3581,0 0.6673,0.504558 0,0.732422 0.065,0.732422 l -0.1302,-0.260417 q 0.4557,7.161458 0.4557,12.027994 0.1954,1.578776 0.1954,4.378255 v 5.338542 h 3.1087 q 0.3743,0 0.6022,0.455729 v 0.260417 q 0,0.585937 -1.5137,0.585937 h -2.9948 q -0.3418,0 -0.6673,-0.504557 v -0.472005 q 0,-0.78125 0.033,-0.78125 l -0.033,-0.439454 v -4.76888 q -0.2604,-8.561197 -0.5208,-14.241535 l -0.1953,-2.197266 q 0.1953,-0.61849 0.8626,-0.61849 z"
         style="font-style:normal;font-variant:normal;font-weight:normal;font-stretch:normal;font-size:33.33333206px;line-height:1;font-family:'Moon Flower Bold';-inkscape-font-specification:'Moon Flower Bold, ';text-align:center;text-anchor:middle;fill:#18394c;fill-opacity:1"
         id="path2672" />
      <path
         d="m -1487.4134,49.599984 h 0.065 q 0.3581,0 0.6673,0.504558 0,0.732422 0.065,0.732422 l -0.1302,-0.260417 q 0.4557,7.161458 0.4557,12.027994 0.1954,1.578776 0.1954,4.378255 v 5.338542 h 3.1087 q 0.3743,0 0.6022,0.455729 v 0.260417 q 0,0.585937 -1.5137,0.585937 h -2.9948 q -0.3418,0 -0.6673,-0.504557 v -0.472005 q 0,-0.78125 0.033,-0.78125 l -0.033,-0.439454 v -4.76888 q -0.2604,-8.561197 -0.5208,-14.241535 l -0.1953,-2.197266 q 0.1953,-0.61849 0.8626,-0.61849 z"
         style="font-style:normal;font-variant:normal;font-weight:normal;font-stretch:normal;font-size:33.33333206px;line-height:1;font-family:'Moon Flower Bold';-inkscape-font-specification:'Moon Flower Bold, ';text-align:center;text-anchor:middle;fill:#18394c;fill-opacity:1"
         id="path2674" />
      <path
         d="m -1468.403,49.274464 q 2.3926,0 2.8809,4.541015 v 1.269531 q -0.3256,2.360026 -2.1973,5.126953 -0.065,0.01628 -0.2767,0.292969 v -0.244141 q 1.2207,0.455729 2.1159,1.953125 0.8952,1.334636 1.2044,4.101563 0,3.466796 -1.4811,5.908202 -1.0417,1.139323 -2.1159,1.39974 h -0.1953 q -1.3184,0 -1.3184,-2.522786 -0.7812,-11.214193 -0.7812,-17.252604 -0.1302,-1.741536 -0.4069,-3.450521 1.3509,-1.123046 2.5716,-1.123046 z m -1.0091,1.660156 q 0.5046,3.938802 0.5046,11.474609 0.2604,3.059895 0.651,9.863281 l -0.033,-0.03255 q 0.9115,-0.374349 1.3835,-1.627605 0.765,-2.148437 0.765,-4.264322 -0.472,-2.815755 -0.7487,-2.815755 -0.472,-1.39974 -1.7741,-2.148438 -0.6673,0 -1.0579,-0.651042 v -0.358072 q 2.1321,-2.392578 2.7343,-5.208334 v -0.992838 q -0.2929,-3.597005 -1.416,-3.597005 -0.6185,0 -1.0091,0.358073 z"
         style="font-style:normal;font-variant:normal;font-weight:normal;font-stretch:normal;font-size:33.33333206px;line-height:1;font-family:'Moon Flower Bold';-inkscape-font-specification:'Moon Flower Bold, ';text-align:center;text-anchor:middle;fill:#18394c;fill-opacity:1"
         id="path2676" />
      <path
         d="m -1457.9049,50.511443 0.1464,0.08138 q -0.4557,0 -0.4557,-0.09766 2.8971,0.260416 2.8971,0.813802 v 0.113932 q -0.2115,0.602214 -0.7649,0.602214 l -1.888,-0.195313 q -0.1303,0 -0.8301,0.04883 l 0.033,0.455729 q 0,1.074219 0.3093,8.284505 h 0.065 q 0.472,0 0.8138,-0.0651 1.5299,0.130208 2.4088,0.130208 l 0.3744,0.504558 v 0.276692 q 0,0.520834 -0.6673,0.520834 -0.586,0 -1.8881,-0.130209 -0.8626,0.0651 -1.0905,0.0651 v -0.0651 q 0,4.589844 0.4395,10.286458 0.081,0 0.081,0.04883 2.0345,-0.113932 2.6041,-0.113932 0.5046,0.162761 0.7162,0.585938 v 0.130208 q 0,0.260417 -0.5208,0.585937 -2.5879,0.06511 -3.1088,0.130209 -1.2207,0 -1.2207,-1.155599 -0.4557,-6.217448 -0.4557,-10.367838 v -2.083334 q -0.3255,-5.729166 -0.3255,-7.714843 -0.1953,-0.976563 -0.1953,-1.220703 l 0.5045,-0.374349 h 0.8789 q 0.3581,0 1.1394,-0.08138 z"
         style="font-style:normal;font-variant:normal;font-weight:normal;font-stretch:normal;font-size:33.33333206px;line-height:1;font-family:'Moon Flower Bold';-inkscape-font-specification:'Moon Flower Bold, ';text-align:center;text-anchor:middle;fill:#18394c;fill-opacity:1"
         id="path2678" />
      <path
         d="m -1442.931,48.948943 h 0.5208 q 0.1954,0.260416 1.0743,0.406901 1.416,0.569661 2.2623,2.018229 1.1394,2.750651 1.1394,4.085286 v 0.651042 q 0,4.394531 -2.0997,6.038411 2.474,0.585938 2.946,6.901041 v 2.490235 q 0,0.553385 0.081,1.774088 l -0.472,0.309245 h -0.5046 l -0.4883,-0.374349 q -0.081,-1.448568 -0.081,-2.099609 v -2.34375 q 0,-2.376302 -1.4323,-4.833984 -0.8789,-0.830078 -1.4811,-0.830078 h 0.358 q 0.049,1.074218 0.049,1.757812 v 2.473958 q 0.1302,3.222656 0.1302,3.645833 v 0.195313 q -0.2604,0.520833 -0.7976,0.520833 -0.3092,0 -0.7487,-0.504557 l 0.081,-0.553385 q -0.1302,-2.734375 -0.1302,-3.629558 v -3.580729 q -0.1627,0 -0.3906,-0.537109 v -0.309245 q 0.2604,-0.520833 0.3092,-0.520833 -0.3092,-8.59375 -0.8463,-12.760416 z m 1.1231,1.5625 q 0.358,4.410807 0.651,10.774739 1.7578,-1.188151 1.7578,-4.85026 v -0.911459 q 0,-1.64388 -1.3672,-4.182942 -0.9114,-0.830078 -1.2858,-0.830078 z"
         style="font-style:normal;font-variant:normal;font-weight:normal;font-stretch:normal;font-size:33.33333206px;line-height:1;font-family:'Moon Flower Bold';-inkscape-font-specification:'Moon Flower Bold, ';text-align:center;text-anchor:middle;fill:#18394c;fill-opacity:1"
         id="path2680" />
      <path
         d="m -1430.5612,50.511443 0.1465,0.08138 q -0.4557,0 -0.4557,-0.09766 2.8971,0.260416 2.8971,0.813802 v 0.113932 q -0.2116,0.602214 -0.765,0.602214 l -1.888,-0.195313 q -0.1302,0 -0.8301,0.04883 l 0.033,0.455729 q 0,1.074219 0.3092,8.284505 h 0.065 q 0.472,0 0.8138,-0.0651 1.53,0.130208 2.4089,0.130208 l 0.3743,0.504558 v 0.276692 q 0,0.520834 -0.6673,0.520834 -0.5859,0 -1.888,-0.130209 -0.8626,0.0651 -1.0905,0.0651 v -0.0651 q 0,4.589844 0.4395,10.286458 0.081,0 0.081,0.04883 2.0345,-0.113932 2.6042,-0.113932 0.5046,0.162761 0.7161,0.585938 v 0.130208 q 0,0.260417 -0.5208,0.585937 -2.5879,0.06511 -3.1087,0.130209 -1.2207,0 -1.2207,-1.155599 -0.4557,-6.217448 -0.4557,-10.367838 v -2.083334 q -0.3256,-5.729166 -0.3256,-7.714843 -0.1953,-0.976563 -0.1953,-1.220703 l 0.5046,-0.374349 h 0.8789 q 0.3581,0 1.1393,-0.08138 z"
         style="font-style:normal;font-variant:normal;font-weight:normal;font-stretch:normal;font-size:33.33333206px;line-height:1;font-family:'Moon Flower Bold';-inkscape-font-specification:'Moon Flower Bold, ';text-align:center;text-anchor:middle;fill:#18394c;fill-opacity:1"
         id="path2682" />
      <path
         d="m -1424.3763,49.665089 h 0.5534 q 2.8157,0.927734 4.2806,3.5319 2.1159,4.296875 2.1159,8.837891 v 0.325521 q 0,6.510416 -4.8015,10.693359 -0.7487,0.24414 -1.0091,0.24414 -0.5534,0 -0.6836,-1.416015 l 0.065,-0.130209 q -0.179,-1.432291 -0.2604,-4.508463 h -0.1139 l 0.1302,0.260417 v -0.130209 q 0,-2.571614 0.065,-4.6875 z m 1.5462,1.790364 v -0.423177 q 0.065,7.340495 0.2604,11.588541 -0.065,1.741537 -0.065,3.580729 v 0.78125 q 0,2.457682 0.1791,4.443359 0.8301,-0.716145 2.0833,-2.75065 1.4811,-3.255209 1.4811,-6.119792 v -0.651042 q 0,-4.020182 -1.9856,-8.203124 -1.3672,-2.050781 -1.9532,-2.246094 z"
         style="font-style:normal;font-variant:normal;font-weight:normal;font-stretch:normal;font-size:33.33333206px;line-height:1;font-family:'Moon Flower Bold';-inkscape-font-specification:'Moon Flower Bold, ';text-align:center;text-anchor:middle;fill:#18394c;fill-opacity:1"
         id="path2684" />
      <path
         d="m -1412.6738,50.836964 h 0.2604 q 0.8626,0 0.8626,3.776041 v 0.846354 q 0,1.285807 -0.3906,6.591797 0,0.211588 0.065,0.472005 -0.065,3.434245 -0.065,5.436198 v 4.23177 q 0,0.09766 0.1302,0.634766 -0.1302,0.797526 -0.6673,0.797526 h -0.2604 q -0.6673,0 -0.6673,-2.083333 0,-11.311849 0.3906,-15.576172 v -1.80664 q 0,-1.497396 -0.1953,-2.718099 0,-0.276693 0.5371,-0.602213 z"
         style="font-style:normal;font-variant:normal;font-weight:normal;font-stretch:normal;font-size:33.33333206px;line-height:1;font-family:'Moon Flower Bold';-inkscape-font-specification:'Moon Flower Bold, ';text-align:center;text-anchor:middle;fill:#18394c;fill-opacity:1"
         id="path2686" />
      <path
         d="m -1406.9935,48.948943 h 0.5208 q 0.1954,0.260416 1.0743,0.406901 1.416,0.569661 2.2623,2.018229 1.1394,2.750651 1.1394,4.085286 v 0.651042 q 0,4.394531 -2.0997,6.038411 2.474,0.585938 2.946,6.901041 v 2.490235 q 0,0.553385 0.081,1.774088 l -0.472,0.309245 h -0.5046 l -0.4883,-0.374349 q -0.081,-1.448568 -0.081,-2.099609 v -2.34375 q 0,-2.376302 -1.4323,-4.833984 -0.8789,-0.830078 -1.4812,-0.830078 h 0.3581 q 0.049,1.074218 0.049,1.757812 v 2.473958 q 0.1302,3.222656 0.1302,3.645833 v 0.195313 q -0.2605,0.520833 -0.7976,0.520833 -0.3092,0 -0.7487,-0.504557 l 0.081,-0.553385 q -0.1302,-2.734375 -0.1302,-3.629558 v -3.580729 q -0.1628,0 -0.3906,-0.537109 v -0.309245 q 0.2604,-0.520833 0.3092,-0.520833 -0.3092,-8.59375 -0.8463,-12.760416 z m 1.1231,1.5625 q 0.358,4.410807 0.651,10.774739 1.7578,-1.188151 1.7578,-4.85026 v -0.911459 q 0,-1.64388 -1.3672,-4.182942 -0.9114,-0.830078 -1.2858,-0.830078 z"
         style="font-style:normal;font-variant:normal;font-weight:normal;font-stretch:normal;font-size:33.33333206px;line-height:1;font-family:'Moon Flower Bold';-inkscape-font-specification:'Moon Flower Bold, ';text-align:center;text-anchor:middle;fill:#18394c;fill-opacity:1"
         id="path2688" />
      <path
         d="m -1394.6237,50.511443 0.1465,0.08138 q -0.4557,0 -0.4557,-0.09766 2.8971,0.260416 2.8971,0.813802 v 0.113932 q -0.2116,0.602214 -0.765,0.602214 l -1.888,-0.195313 q -0.1302,0 -0.8301,0.04883 l 0.033,0.455729 q 0,1.074219 0.3092,8.284505 h 0.065 q 0.472,0 0.8138,-0.0651 1.53,0.130208 2.4089,0.130208 l 0.3743,0.504558 v 0.276692 q 0,0.520834 -0.6673,0.520834 -0.5859,0 -1.888,-0.130209 -0.8626,0.0651 -1.0905,0.0651 v -0.0651 q 0,4.589844 0.4395,10.286458 0.081,0 0.081,0.04883 2.0345,-0.113932 2.6042,-0.113932 0.5046,0.162761 0.7161,0.585938 v 0.130208 q 0,0.260417 -0.5208,0.585937 -2.5879,0.06511 -3.1087,0.130209 -1.2207,0 -1.2207,-1.155599 -0.4557,-6.217448 -0.4557,-10.367838 v -2.083334 q -0.3256,-5.729166 -0.3256,-7.714843 -0.1953,-0.976563 -0.1953,-1.220703 l 0.5046,-0.374349 h 0.8789 q 0.3581,0 1.1393,-0.08138 z"
         style="font-style:normal;font-variant:normal;font-weight:normal;font-stretch:normal;font-size:33.33333206px;line-height:1;font-family:'Moon Flower Bold';-inkscape-font-specification:'Moon Flower Bold, ';text-align:center;text-anchor:middle;fill:#18394c;fill-opacity:1"
         id="path2690" />
      <path
         d="m -1384.5325,50.902068 h 0.5045 q 1.53,0.276692 1.53,1.171875 0,0.260416 -0.5372,0.585937 h -0.6022 q -0.4231,-0.520833 -0.6185,-0.520833 -1.302,0.455729 -1.302,0.78125 -1.3021,2.473958 -1.3021,6.705729 v 1.10677 q 0,2.88086 0.7812,6.917318 0.4558,2.913411 1.2207,3.889974 0.8627,0.748698 1.4486,0.78125 0.7161,0 1.8392,-1.432292 h 0.4232 q 0.3743,0 0.6022,0.455729 v 0.195313 q 0,0.748698 -1.6113,1.774088 -0.7325,0.309245 -1.3347,0.309245 h -0.098 q -1.1231,-0.130208 -2.2787,-1.139323 -1.2532,-0.992838 -2.1321,-7.600911 -0.3256,-1.416016 -0.3256,-4.671224 v -0.390625 q 0.114,-6.738281 2.3112,-8.398437 1.0905,-0.520833 1.4812,-0.520833 z"
         style="font-style:normal;font-variant:normal;font-weight:normal;font-stretch:normal;font-size:33.33333206px;line-height:1;font-family:'Moon Flower Bold';-inkscape-font-specification:'Moon Flower Bold, ';text-align:center;text-anchor:middle;fill:#18394c;fill-opacity:1"
         id="path2692" />
      <path
         d="m -1371.2676,51.748422 0.4232,0.488281 v 0.260417 q 0,0.602213 -2.2298,0.602213 h -1.8229 q 0.1953,0 0.2116,-0.04883 l 0.1302,2.945964 q -0.065,0.406901 -0.065,0.439453 0.5859,9.847004 0.5859,14.046223 0.065,0.113932 0.065,0.325521 -0.065,0.09766 -0.065,0.0651 l 0.081,0.439453 q -0.2279,0.520833 -0.6185,0.520833 h -0.2604 q -0.2767,0 -0.6673,-0.455729 0,-0.227864 0.065,-0.732422 0,-1.383463 -0.586,-14.046223 0,-2.050781 -0.1139,-3.580729 l 0.1465,0.08138 h -0.065 l -2.2787,0.195313 q -0.4232,-0.455729 -0.4232,-0.846354 0,-0.276693 0.6185,-0.585938 0.5697,0.146484 0.5534,0.146484 1.2533,-0.113932 1.7741,-0.113932 h 2.6693 q 0.7975,0 1.8717,-0.146484 z"
         style="font-style:normal;font-variant:normal;font-weight:normal;font-stretch:normal;font-size:33.33333206px;line-height:1;font-family:'Moon Flower Bold';-inkscape-font-specification:'Moon Flower Bold, ';text-align:center;text-anchor:middle;fill:#18394c;fill-opacity:1"
         id="path2694" />
      <path
         d="m -1364.8711,50.511443 0.1465,0.08138 q -0.4557,0 -0.4557,-0.09766 2.8971,0.260416 2.8971,0.813802 v 0.113932 q -0.2116,0.602214 -0.765,0.602214 l -1.888,-0.195313 q -0.1302,0 -0.8301,0.04883 l 0.033,0.455729 q 0,1.074219 0.3092,8.284505 h 0.065 q 0.472,0 0.8138,-0.0651 1.53,0.130208 2.4089,0.130208 l 0.3743,0.504558 v 0.276692 q 0,0.520834 -0.6673,0.520834 -0.5859,0 -1.888,-0.130209 -0.8626,0.0651 -1.0905,0.0651 v -0.0651 q 0,4.589844 0.4394,10.286458 0.081,0 0.081,0.04883 2.0345,-0.113932 2.6042,-0.113932 0.5045,0.162761 0.7161,0.585938 v 0.130208 q 0,0.260417 -0.5208,0.585937 -2.5879,0.06511 -3.1087,0.130209 -1.2207,0 -1.2207,-1.155599 -0.4558,-6.217448 -0.4558,-10.367838 v -2.083334 q -0.3255,-5.729166 -0.3255,-7.714843 -0.1953,-0.976563 -0.1953,-1.220703 l 0.5046,-0.374349 h 0.8789 q 0.3581,0 1.1393,-0.08138 z"
         style="font-style:normal;font-variant:normal;font-weight:normal;font-stretch:normal;font-size:33.33333206px;line-height:1;font-family:'Moon Flower Bold';-inkscape-font-specification:'Moon Flower Bold, ';text-align:center;text-anchor:middle;fill:#18394c;fill-opacity:1"
         id="path2696" />
      <path
         d="m -1358.6862,49.665089 h 0.5534 q 2.8157,0.927734 4.2806,3.5319 2.1159,4.296875 2.1159,8.837891 v 0.325521 q 0,6.510416 -4.8015,10.693359 -0.7487,0.24414 -1.0091,0.24414 -0.5534,0 -0.6836,-1.416015 l 0.065,-0.130209 q -0.179,-1.432291 -0.2604,-4.508463 h -0.1139 l 0.1302,0.260417 v -0.130209 q 0,-2.571614 0.065,-4.6875 z m 1.5462,1.790364 v -0.423177 q 0.065,7.340495 0.2604,11.588541 -0.065,1.741537 -0.065,3.580729 v 0.78125 q 0,2.457682 0.1791,4.443359 0.83,-0.716145 2.0833,-2.75065 1.4811,-3.255209 1.4811,-6.119792 v -0.651042 q 0,-4.020182 -1.9857,-8.203124 -1.3671,-2.050781 -1.9531,-2.246094 z"
         style="font-style:normal;font-variant:normal;font-weight:normal;font-stretch:normal;font-size:33.33333206px;line-height:1;font-family:'Moon Flower Bold';-inkscape-font-specification:'Moon Flower Bold, ';text-align:center;text-anchor:middle;fill:#18394c;fill-opacity:1"
         id="path2698" />
      <path
         d="m -1338.7155,50.836964 h 0.2604 q 0.8627,0 0.8627,3.776041 v 0.846354 q 0,1.285807 -0.3907,6.591797 0,0.211588 0.065,0.472005 -0.065,3.434245 -0.065,5.436198 v 4.23177 q 0,0.09766 0.1302,0.634766 -0.1302,0.797526 -0.6673,0.797526 h -0.2604 q -0.6673,0 -0.6673,-2.083333 0,-11.311849 0.3906,-15.576172 v -1.80664 q 0,-1.497396 -0.1953,-2.718099 0,-0.276693 0.5371,-0.602213 z"
         style="font-style:normal;font-variant:normal;font-weight:normal;font-stretch:normal;font-size:33.33333206px;line-height:1;font-family:'Moon Flower Bold';-inkscape-font-specification:'Moon Flower Bold, ';text-align:center;text-anchor:middle;fill:#18394c;fill-opacity:1"
         id="path2700" />
      <path
         d="m -1332.7585,50.495167 q 0.6836,0 3.3529,9.147135 0.3744,2.083333 3.0599,10.270182 h -0.5371 v -0.227865 q -0.3744,-7.910156 -0.3744,-8.886718 0,-0.292969 0.081,-1.985677 -0.016,-0.179037 -0.016,-0.78125 0.1303,-1.285808 0.1303,-2.034505 v -4.638672 q 0.081,-0.683594 0.8789,-0.683594 l 0.6836,0.358073 q -0.1954,3.857422 -0.1954,5.71289 v 1.839193 q 0,5.664062 0.3581,14.794921 l -0.651,0.325521 q -0.8138,0 -5.127,-14.680989 l -1.709,-5.826823 0.6023,0.976563 0.049,-0.94401 q 0.1139,1.350911 0.1139,2.148437 l 0.016,0.553385 q -0.1302,3.613281 -0.1302,5.061849 0,7.27539 0.5859,12.337239 h -0.8138 q -0.765,0 -0.765,-0.683593 -0.3743,-5.680339 -0.3743,-10.172526 V 51.17876 q 0.1139,-0.683593 0.7812,-0.683593 z"
         style="font-style:normal;font-variant:normal;font-weight:normal;font-stretch:normal;font-size:33.33333206px;line-height:1;font-family:'Moon Flower Bold';-inkscape-font-specification:'Moon Flower Bold, ';text-align:center;text-anchor:middle;fill:#18394c;fill-opacity:1"
         id="path2702" />
      <path
         d="m -1311.2253,50.804411 h 0.065 q 0.7813,0 1.058,0.602214 v 0.325521 l -0.293,0.439453 q -0.3581,0 -1.0254,-0.0651 -1.8229,0.195312 -2.0996,0.24414 l 0.6511,5.615235 h -0.2442 q 3.5482,0 5.3386,3.743489 0.7975,2.180989 0.7975,3.613281 0,5.354818 -3.8412,7.666015 -0.4394,0.406901 -1.0254,0.406901 -0.5045,-0.195312 -0.7649,-0.651041 v -0.195313 q 0,-0.260416 0.5371,-0.585937 0.4069,0 0.3906,-0.01628 2.1973,-1.31836 2.8646,-3.710938 0.3743,-1.10677 0.3743,-3.108723 0,-1.546224 -1.1881,-3.955078 -1.5137,-1.969401 -4.0039,-1.969401 -0.7162,0 -1.3184,-6.689453 -0.032,-0.292969 -0.1953,-0.520834 v -0.472005 q 0,-0.260416 0.5371,-0.585937 h 0.4232 l 0.2279,0.179036 q 2.0833,-0.309245 2.7343,-0.309245 z"
         style="font-style:normal;font-variant:normal;font-weight:normal;font-stretch:normal;font-size:33.33333206px;line-height:1;font-family:'Moon Flower Bold';-inkscape-font-specification:'Moon Flower Bold, ';text-align:center;text-anchor:middle;fill:#18394c;fill-opacity:1"
         id="path2704" />
      <path
         d="m -1291.1406,50.983448 0.3743,0.472005 v 0.211589 q 0,0.227864 -0.5859,0.634765 h -0.7975 q -1.4486,0 -1.9532,1.057943 -0.5045,1.367187 -0.5045,3.059896 0,1.02539 0.8952,3.385416 0.2929,0.585938 3.4505,3.450521 1.709,2.441406 1.709,4.801432 0,1.855469 -0.7976,3.629557 -0.4231,0.960287 -2.1484,1.595052 -0.651,0.341797 -1.1068,0.341797 -0.6185,0 -0.8626,-0.520833 v -0.227865 q 0,-0.472005 1.0091,-0.569661 1.8555,-0.69987 1.8555,-1.448568 0.5859,-1.171875 0.5859,-2.978515 0,-2.360026 -2.1159,-4.60612 -1.7578,-1.334635 -2.6367,-2.587891 -0.6348,-0.683593 -1.237,-3.499348 0,-0.341797 -0.065,-0.862631 0,-2.164713 0.8138,-3.857421 1.0254,-1.48112 4.1179,-1.48112 z"
         style="font-style:normal;font-variant:normal;font-weight:normal;font-stretch:normal;font-size:33.33333206px;line-height:1;font-family:'Moon Flower Bold';-inkscape-font-specification:'Moon Flower Bold, ';text-align:center;text-anchor:middle;fill:#18394c;fill-opacity:1"
         id="path2706" />
      <path
         d="m -1282.8398,50.511443 0.1464,0.08138 q -0.4557,0 -0.4557,-0.09766 2.8971,0.260416 2.8971,0.813802 v 0.113932 q -0.2115,0.602214 -0.7649,0.602214 l -1.8881,-0.195313 q -0.1302,0 -0.83,0.04883 l 0.032,0.455729 q 0,1.074219 0.3093,8.284505 h 0.065 q 0.472,0 0.8138,-0.0651 1.5299,0.130208 2.4088,0.130208 l 0.3744,0.504558 v 0.276692 q 0,0.520834 -0.6673,0.520834 -0.586,0 -1.8881,-0.130209 -0.8626,0.0651 -1.0905,0.0651 v -0.0651 q 0,4.589844 0.4395,10.286458 0.081,0 0.081,0.04883 2.0345,-0.113932 2.6041,-0.113932 0.5046,0.162761 0.7162,0.585938 v 0.130208 q 0,0.260417 -0.5208,0.585937 -2.5879,0.06511 -3.1088,0.130209 -1.2207,0 -1.2207,-1.155599 -0.4557,-6.217448 -0.4557,-10.367838 v -2.083334 q -0.3255,-5.729166 -0.3255,-7.714843 -0.1953,-0.976563 -0.1953,-1.220703 l 0.5045,-0.374349 h 0.8789 q 0.3581,0 1.1394,-0.08138 z"
         style="font-style:normal;font-variant:normal;font-weight:normal;font-stretch:normal;font-size:33.33333206px;line-height:1;font-family:'Moon Flower Bold';-inkscape-font-specification:'Moon Flower Bold, ';text-align:center;text-anchor:middle;fill:#18394c;fill-opacity:1"
         id="path2708" />
      <path
         d="m -1272.7487,50.902068 h 0.5046 q 1.5299,0.276692 1.5299,1.171875 0,0.260416 -0.5371,0.585937 h -0.6022 q -0.4232,-0.520833 -0.6185,-0.520833 -1.3021,0.455729 -1.3021,0.78125 -1.3021,2.473958 -1.3021,6.705729 v 1.10677 q 0,2.88086 0.7813,6.917318 0.4557,2.913411 1.2207,3.889974 0.8626,0.748698 1.4485,0.78125 0.7162,0 1.8392,-1.432292 h 0.4232 q 0.3744,0 0.6022,0.455729 v 0.195313 q 0,0.748698 -1.6113,1.774088 -0.7324,0.309245 -1.3346,0.309245 h -0.098 q -1.123,-0.130208 -2.2786,-1.139323 -1.2533,-0.992838 -2.1322,-7.600911 -0.3255,-1.416016 -0.3255,-4.671224 v -0.390625 q 0.1139,-6.738281 2.3112,-8.398437 1.0905,-0.520833 1.4811,-0.520833 z"
         style="font-style:normal;font-variant:normal;font-weight:normal;font-stretch:normal;font-size:33.33333206px;line-height:1;font-family:'Moon Flower Bold';-inkscape-font-specification:'Moon Flower Bold, ';text-align:center;text-anchor:middle;fill:#18394c;fill-opacity:1"
         id="path2710" />
      <path
         d="m -1262.9505,50.641651 q 2.2135,0 3.3366,9.082031 0.065,0.86263 0.065,2.180989 v 0.260417 q 0,0.260417 -0.049,0.520833 0.049,0.06511 0.049,0.520834 v 0.0651 q 0,0.455729 -0.049,0.520833 0.049,0.260417 0.049,0.325521 0,6.998698 -2.0508,8.723958 -0.8301,0.325521 -1.1556,0.325521 h -0.5208 q -2.653,-0.634766 -3.2715,-6.363932 l -0.1953,-2.669271 q 0,-9.244791 2.36,-12.9069 0.7812,-0.585938 1.4323,-0.585938 z m -2.3275,13.28125 q 0,3.629557 0.9603,6.347656 0.7975,1.595052 1.237,1.595052 h 0.065 q 0.9765,0 1.3021,-1.578776 0.6998,-1.660157 0.6998,-7.145182 v -1.302084 q 0,-3.792317 -1.3509,-8.707682 -0.4394,-0.976562 -0.651,-1.123047 -0.3581,0.130209 -0.4558,0.423178 -1.8066,3.824869 -1.8066,11.490885 z"
         style="font-style:normal;font-variant:normal;font-weight:normal;font-stretch:normal;font-size:33.33333206px;line-height:1;font-family:'Moon Flower Bold';-inkscape-font-specification:'Moon Flower Bold, ';text-align:center;text-anchor:middle;fill:#18394c;fill-opacity:1"
         id="path2712" />
      <path
         d="m -1255.3496,50.495167 q 0.6836,0 3.3529,9.147135 0.3743,2.083333 3.0598,10.270182 h -0.5371 v -0.227865 q -0.3743,-7.910156 -0.3743,-8.886718 0,-0.292969 0.081,-1.985677 -0.016,-0.179037 -0.016,-0.78125 0.1302,-1.285808 0.1302,-2.034505 v -4.638672 q 0.081,-0.683594 0.8789,-0.683594 l 0.6836,0.358073 q -0.1953,3.857422 -0.1953,5.71289 v 1.839193 q 0,5.664062 0.3581,14.794921 l -0.6511,0.325521 q -0.8138,0 -5.1269,-14.680989 l -1.709,-5.826823 0.6022,0.976563 0.049,-0.94401 q 0.114,1.350911 0.114,2.148437 l 0.016,0.553385 q -0.1302,3.613281 -0.1302,5.061849 0,7.27539 0.586,12.337239 h -0.8138 q -0.765,0 -0.765,-0.683593 -0.3744,-5.680339 -0.3744,-10.172526 V 51.17876 q 0.114,-0.683593 0.7813,-0.683593 z"
         style="font-style:normal;font-variant:normal;font-weight:normal;font-stretch:normal;font-size:33.33333206px;line-height:1;font-family:'Moon Flower Bold';-inkscape-font-specification:'Moon Flower Bold, ';text-align:center;text-anchor:middle;fill:#18394c;fill-opacity:1"
         id="path2714" />
      <path
         d="m -1245.0143,49.665089 h 0.5534 q 2.8157,0.927734 4.2806,3.5319 2.1158,4.296875 2.1158,8.837891 v 0.325521 q 0,6.510416 -4.8014,10.693359 -0.7487,0.24414 -1.0091,0.24414 -0.5534,0 -0.6836,-1.416015 l 0.065,-0.130209 q -0.179,-1.432291 -0.2604,-4.508463 h -0.1139 l 0.1302,0.260417 v -0.130209 q 0,-2.571614 0.065,-4.6875 z m 1.5462,1.790364 v -0.423177 q 0.065,7.340495 0.2604,11.588541 -0.065,1.741537 -0.065,3.580729 v 0.78125 q 0,2.457682 0.179,4.443359 0.8301,-0.716145 2.0834,-2.75065 1.4811,-3.255209 1.4811,-6.119792 v -0.651042 q 0,-4.020182 -1.9857,-8.203124 -1.3672,-2.050781 -1.9531,-2.246094 z"
         style="font-style:normal;font-variant:normal;font-weight:normal;font-stretch:normal;font-size:33.33333206px;line-height:1;font-family:'Moon Flower Bold';-inkscape-font-specification:'Moon Flower Bold, ';text-align:center;text-anchor:middle;fill:#18394c;fill-opacity:1"
         id="path2716" />
      <path
         d="m -1230.7891,50.983448 0.3744,0.472005 v 0.211589 q 0,0.227864 -0.586,0.634765 h -0.7975 q -1.4485,0 -1.9531,1.057943 -0.5046,1.367187 -0.5046,3.059896 0,1.02539 0.8952,3.385416 0.293,0.585938 3.4505,3.450521 1.709,2.441406 1.709,4.801432 0,1.855469 -0.7975,3.629557 -0.4232,0.960287 -2.1484,1.595052 -0.6511,0.341797 -1.1068,0.341797 -0.6185,0 -0.8626,-0.520833 v -0.227865 q 0,-0.472005 1.0091,-0.569661 1.8554,-0.69987 1.8554,-1.448568 0.586,-1.171875 0.586,-2.978515 0,-2.360026 -2.1159,-4.60612 -1.7578,-1.334635 -2.6367,-2.587891 -0.6348,-0.683593 -1.237,-3.499348 0,-0.341797 -0.065,-0.862631 0,-2.164713 0.8138,-3.857421 1.0254,-1.48112 4.1178,-1.48112 z"
         style="font-style:normal;font-variant:normal;font-weight:normal;font-stretch:normal;font-size:33.33333206px;line-height:1;font-family:'Moon Flower Bold';-inkscape-font-specification:'Moon Flower Bold, ';text-align:center;text-anchor:middle;fill:#18394c;fill-opacity:1"
         id="path2718" />
      <path
         d="m -1497.9603,99.974333 h 0.3418 q 0.3906,0 0.6673,0.683597 v 0.14648 q 0,0.27669 -0.5371,1.57878 -1.0254,3.90625 -1.0254,8.2194 0,4.52474 2.002,13.13476 0.4557,1.39974 2.0996,4.29688 v 0.19531 q -0.179,0.65104 -0.5859,0.79753 -0.8464,0 -2.4252,-3.5319 -1.2207,-3.17383 -2.36,-11.26302 -0.1953,-3.20638 -0.1953,-3.72722 0,-5.71289 1.595,-10.05859 z"
         style="font-style:normal;font-variant:normal;font-weight:normal;font-stretch:normal;font-size:33.33333206px;line-height:1;font-family:'Moon Flower Bold';-inkscape-font-specification:'Moon Flower Bold, ';text-align:center;text-anchor:middle;fill:#18394c;fill-opacity:1"
         id="path2720" />
      <path
         d="m -1489.4805,100.64165 q 2.2136,0 3.3366,9.08203 0.065,0.86263 0.065,2.18099 v 0.26042 q 0,0.26041 -0.049,0.52083 0.049,0.0651 0.049,0.52083 v 0.0651 q 0,0.45573 -0.049,0.52083 0.049,0.26042 0.049,0.32552 0,6.9987 -2.0508,8.72396 -0.83,0.32552 -1.1556,0.32552 h -0.5208 q -2.653,-0.63476 -3.2715,-6.36393 l -0.1953,-2.66927 q 0,-9.24479 2.36,-12.9069 0.7813,-0.58594 1.4323,-0.58594 z m -2.3274,13.28125 q 0,3.62956 0.9602,6.34766 0.7976,1.59505 1.237,1.59505 h 0.065 q 0.9766,0 1.3021,-1.57878 0.6999,-1.66015 0.6999,-7.14518 v -1.30208 q 0,-3.79232 -1.3509,-8.70768 -0.4395,-0.97657 -0.6511,-1.12305 -0.358,0.13021 -0.4557,0.42318 -1.8066,3.82487 -1.8066,11.49088 z"
         style="font-style:normal;font-variant:normal;font-weight:normal;font-stretch:normal;font-size:33.33333206px;line-height:1;font-family:'Moon Flower Bold';-inkscape-font-specification:'Moon Flower Bold, ';text-align:center;text-anchor:middle;fill:#18394c;fill-opacity:1"
         id="path2722" />
      <path
         d="m -1482.1562,98.948943 h 0.5208 q 0.1953,0.260416 1.0742,0.406901 1.416,0.569661 2.2624,2.018226 1.1393,2.75065 1.1393,4.08529 v 0.65104 q 0,4.39453 -2.0996,6.03841 2.4739,0.58594 2.946,6.90104 v 2.49024 q 0,0.55338 0.081,1.77409 l -0.472,0.30924 h -0.5045 l -0.4883,-0.37435 q -0.081,-1.44857 -0.081,-2.09961 v -2.34375 q 0,-2.3763 -1.4323,-4.83398 -0.8789,-0.83008 -1.4811,-0.83008 h 0.3581 q 0.049,1.07422 0.049,1.75781 v 2.47396 q 0.1302,3.22266 0.1302,3.64583 v 0.19532 q -0.2604,0.52083 -0.7975,0.52083 -0.3093,0 -0.7487,-0.50456 l 0.081,-0.55338 q -0.1302,-2.73438 -0.1302,-3.62956 v -3.58073 q -0.1628,0 -0.3907,-0.53711 v -0.30924 q 0.2604,-0.52084 0.3093,-0.52084 -0.3093,-8.59375 -0.8464,-12.760412 z m 1.123,1.562497 q 0.3581,4.41081 0.651,10.77474 1.7579,-1.18815 1.7579,-4.85026 v -0.91146 q 0,-1.64388 -1.3672,-4.18294 -0.9115,-0.83008 -1.2858,-0.83008 z"
         style="font-style:normal;font-variant:normal;font-weight:normal;font-stretch:normal;font-size:33.33333206px;line-height:1;font-family:'Moon Flower Bold';-inkscape-font-specification:'Moon Flower Bold, ';text-align:center;text-anchor:middle;fill:#18394c;fill-opacity:1"
         id="path2724" />
      <path
         d="m -1460.8021,100.90207 h 0.5046 q 1.5299,0.27669 1.5299,1.17187 0,0.26042 -0.5371,0.58594 h -0.6022 q -0.4232,-0.52083 -0.6185,-0.52083 -1.3021,0.45573 -1.3021,0.78125 -1.3021,2.47396 -1.3021,6.70573 v 1.10677 q 0,2.88086 0.7813,6.91731 0.4557,2.91342 1.2207,3.88998 0.8626,0.7487 1.4486,0.78125 0.7161,0 1.8392,-1.43229 h 0.4231 q 0.3744,0 0.6023,0.45573 v 0.19531 q 0,0.7487 -1.6114,1.77409 -0.7324,0.30924 -1.3346,0.30924 h -0.098 q -1.123,-0.13021 -2.2786,-1.13932 -1.2533,-0.99284 -2.1322,-7.60091 -0.3255,-1.41602 -0.3255,-4.67123 v -0.39062 q 0.1139,-6.73828 2.3112,-8.39844 1.0905,-0.52083 1.4811,-0.52083 z"
         style="font-style:normal;font-variant:normal;font-weight:normal;font-stretch:normal;font-size:33.33333206px;line-height:1;font-family:'Moon Flower Bold';-inkscape-font-specification:'Moon Flower Bold, ';text-align:center;text-anchor:middle;fill:#18394c;fill-opacity:1"
         id="path2726" />
      <path
         d="m -1453.2663,99.599984 h 0.065 q 0.3581,0 0.6674,0.504556 0,0.73242 0.065,0.73242 l -0.1303,-0.26041 q 0.4558,7.16145 0.4558,12.02799 0.1953,1.57878 0.1953,4.37826 v 5.33854 h 3.1087 q 0.3744,0 0.6022,0.45573 v 0.26041 q 0,0.58594 -1.5136,0.58594 h -2.9948 q -0.3418,0 -0.6674,-0.50456 v -0.472 q 0,-0.78125 0.033,-0.78125 l -0.033,-0.43945 v -4.76888 q -0.2604,-8.5612 -0.5208,-14.24154 l -0.1953,-2.19727 q 0.1953,-0.618486 0.8626,-0.618486 z"
         style="font-style:normal;font-variant:normal;font-weight:normal;font-stretch:normal;font-size:33.33333206px;line-height:1;font-family:'Moon Flower Bold';-inkscape-font-specification:'Moon Flower Bold, ';text-align:center;text-anchor:middle;fill:#18394c;fill-opacity:1"
         id="path2728" />
      <path
         d="m -1443.2402,100.83696 h 0.2604 q 0.8626,0 0.8626,3.77605 v 0.84635 q 0,1.28581 -0.3906,6.5918 0,0.21158 0.065,0.472 -0.065,3.43425 -0.065,5.4362 v 4.23177 q 0,0.0977 0.1302,0.63476 -0.1302,0.79753 -0.6673,0.79753 h -0.2604 q -0.6674,0 -0.6674,-2.08333 0,-11.31185 0.3907,-15.57617 v -1.80664 q 0,-1.4974 -0.1953,-2.7181 0,-0.2767 0.5371,-0.60222 z"
         style="font-style:normal;font-variant:normal;font-weight:normal;font-stretch:normal;font-size:33.33333206px;line-height:1;font-family:'Moon Flower Bold';-inkscape-font-specification:'Moon Flower Bold, ';text-align:center;text-anchor:middle;fill:#18394c;fill-opacity:1"
         id="path2730" />
      <path
         d="m -1434.1745,100.90207 h 0.5046 q 1.5299,0.27669 1.5299,1.17187 0,0.26042 -0.5371,0.58594 h -0.6022 q -0.4232,-0.52083 -0.6185,-0.52083 -1.3021,0.45573 -1.3021,0.78125 -1.3021,2.47396 -1.3021,6.70573 v 1.10677 q 0,2.88086 0.7813,6.91731 0.4557,2.91342 1.2207,3.88998 0.8626,0.7487 1.4486,0.78125 0.7161,0 1.8392,-1.43229 h 0.4231 q 0.3744,0 0.6023,0.45573 v 0.19531 q 0,0.7487 -1.6114,1.77409 -0.7324,0.30924 -1.3346,0.30924 h -0.098 q -1.123,-0.13021 -2.2786,-1.13932 -1.2533,-0.99284 -2.1322,-7.60091 -0.3255,-1.41602 -0.3255,-4.67123 v -0.39062 q 0.1139,-6.73828 2.3112,-8.39844 1.0905,-0.52083 1.4811,-0.52083 z"
         style="font-style:normal;font-variant:normal;font-weight:normal;font-stretch:normal;font-size:33.33333206px;line-height:1;font-family:'Moon Flower Bold';-inkscape-font-specification:'Moon Flower Bold, ';text-align:center;text-anchor:middle;fill:#18394c;fill-opacity:1"
         id="path2732" />
      <path
         d="m -1423.0417,99.795297 q 0.8301,0 1.0254,0.537113 v 0.37435 q 0,2.89713 -1.3021,7.68229 -0.2604,1.25325 -1.0091,4.03645 0.765,0 3.1413,6.42904 0.5534,1.64388 0.9277,4.03646 v 0.21159 q 0,0.27669 -0.4882,0.52083 h -0.4232 q -0.6185,-0.30924 -0.6185,-0.84635 v -0.0651 q 0,-0.39062 -0.016,-0.39062 -0.7487,-3.51563 -1.7252,-5.56641 -1.3347,-3.15755 -1.3998,-3.15755 l 0.586,9.7168 -0.4721,0.30924 h -0.4069 q -0.3092,0 -0.7324,-0.56966 v -0.14648 q 0,-0.24415 0.1302,-0.45573 -0.6022,-10.51433 -1.1067,-15.13672 -0.9115,-5.19206 -0.9115,-6.60807 v -0.19532 q 0,-0.26041 0.5371,-0.585935 h 0.2604 q 0.3418,0 0.6673,0.504555 v 0.39063 q 0.1954,1.85547 1.1719,8.77278 0.1953,2.26237 0.1953,2.3112 h -0.6673 q 2.1973,-8.51237 2.1973,-10.41666 v -0.65105 q 0,-0.0488 -0.081,-0.65104 z"
         style="font-style:normal;font-variant:normal;font-weight:normal;font-stretch:normal;font-size:33.33333206px;line-height:1;font-family:'Moon Flower Bold';-inkscape-font-specification:'Moon Flower Bold, ';text-align:center;text-anchor:middle;fill:#18394c;fill-opacity:1"
         id="path2734" />
      <path
         d="m -1404.2266,98.900115 h 0.4069 q 0.5534,0.276692 0.5534,0.651041 0,3.076174 -0.1302,4.752604 l 0.1302,6.68945 q 0.1302,0.22787 0.1302,0.43946 -0.1627,0.48828 -0.1139,0.48828 0.1139,2.70182 0.179,10.30273 -0.065,0.35807 -0.065,1.43229 l -0.4557,0.30925 h -0.5045 l -0.5046,-0.39063 q 0,-0.84635 0.065,-1.25325 -0.065,-8.88672 -0.179,-10.31901 -2.5879,0.0488 -2.6368,0.0651 0.114,0.99284 0.114,2.19727 0,2.60416 -0.065,4.55729 0.065,1.10677 0.065,4.45963 -0.4883,0.29297 -0.7976,0.29297 -0.358,0 -0.6673,-0.52083 v -0.65104 q 0,-2.653 -0.065,-3.58073 0.065,-1.59505 0.065,-3.90625 v -0.97656 q -0.1953,-3.17383 -0.1953,-4.42709 0.1953,-7.25911 0.1953,-9.21224 -0.065,-0.26041 -0.065,-0.634761 l 0.5046,-0.374349 h 0.4232 q 0.6022,0.358073 0.6022,0.84635 0,1.22071 -0.1953,9.76563 v 1.10677 l -0.114,-0.22787 q 0.114,-0.0326 2.7995,-0.0814 -0.049,-2.05078 -0.049,-3.07617 v -2.99479 q 0,-0.0814 -0.098,-0.24414 l 0.098,-0.21159 q 0.065,-3.05989 0.065,-4.899086 z"
         style="font-style:normal;font-variant:normal;font-weight:normal;font-stretch:normal;font-size:33.33333206px;line-height:1;font-family:'Moon Flower Bold';-inkscape-font-specification:'Moon Flower Bold, ';text-align:center;text-anchor:middle;fill:#18394c;fill-opacity:1"
         id="path2736" />
      <path
         d="m -1396.2838,100.51144 0.1464,0.0814 q -0.4557,0 -0.4557,-0.0977 2.8971,0.26041 2.8971,0.8138 v 0.11393 q -0.2115,0.60221 -0.7649,0.60221 l -1.8881,-0.19531 q -0.1302,0 -0.83,0.0488 l 0.033,0.45573 q 0,1.07422 0.3093,8.2845 h 0.065 q 0.472,0 0.8138,-0.0651 1.5299,0.13021 2.4088,0.13021 l 0.3744,0.50456 v 0.27669 q 0,0.52083 -0.6673,0.52083 -0.586,0 -1.8881,-0.13021 -0.8626,0.0651 -1.0905,0.0651 v -0.0651 q 0,4.58985 0.4395,10.28646 0.081,0 0.081,0.0488 2.0345,-0.11393 2.6041,-0.11393 0.5046,0.16276 0.7162,0.58593 v 0.13021 q 0,0.26042 -0.5208,0.58594 -2.5879,0.0651 -3.1088,0.13021 -1.2207,0 -1.2207,-1.1556 -0.4557,-6.21745 -0.4557,-10.36784 v -2.08333 q -0.3255,-5.72917 -0.3255,-7.71485 -0.1953,-0.97656 -0.1953,-1.2207 l 0.5045,-0.37435 h 0.8789 q 0.3581,0 1.1394,-0.0814 z"
         style="font-style:normal;font-variant:normal;font-weight:normal;font-stretch:normal;font-size:33.33333206px;line-height:1;font-family:'Moon Flower Bold';-inkscape-font-specification:'Moon Flower Bold, ';text-align:center;text-anchor:middle;fill:#18394c;fill-opacity:1"
         id="path2738" />
      <path
         d="m -1389.5781,98.948943 h 0.5208 q 0.1953,0.260416 1.0742,0.406901 1.416,0.569661 2.2624,2.018226 1.1393,2.75065 1.1393,4.08529 v 0.65104 q 0,4.39453 -2.0996,6.03841 2.474,0.58594 2.946,6.90104 v 2.49024 q 0,0.55338 0.081,1.77409 l -0.472,0.30924 h -0.5046 l -0.4883,-0.37435 q -0.081,-1.44857 -0.081,-2.09961 v -2.34375 q 0,-2.3763 -1.4323,-4.83398 -0.8789,-0.83008 -1.4811,-0.83008 h 0.3581 q 0.049,1.07422 0.049,1.75781 v 2.47396 q 0.1302,3.22266 0.1302,3.64583 v 0.19532 q -0.2604,0.52083 -0.7975,0.52083 -0.3092,0 -0.7487,-0.50456 l 0.081,-0.55338 q -0.1302,-2.73438 -0.1302,-3.62956 v -3.58073 q -0.1628,0 -0.3906,-0.53711 v -0.30924 q 0.2604,-0.52084 0.3092,-0.52084 -0.3092,-8.59375 -0.8464,-12.760412 z m 1.123,1.562497 q 0.3581,4.41081 0.6511,10.77474 1.7578,-1.18815 1.7578,-4.85026 v -0.91146 q 0,-1.64388 -1.3672,-4.18294 -0.9115,-0.83008 -1.2858,-0.83008 z"
         style="font-style:normal;font-variant:normal;font-weight:normal;font-stretch:normal;font-size:33.33333206px;line-height:1;font-family:'Moon Flower Bold';-inkscape-font-specification:'Moon Flower Bold, ';text-align:center;text-anchor:middle;fill:#18394c;fill-opacity:1"
         id="path2740" />
      <path
         d="m -1377.2083,100.51144 0.1465,0.0814 q -0.4558,0 -0.4558,-0.0977 2.8972,0.26041 2.8972,0.8138 v 0.11393 q -0.2116,0.60221 -0.765,0.60221 l -1.888,-0.19531 q -0.1302,0 -0.8301,0.0488 l 0.033,0.45573 q 0,1.07422 0.3093,8.2845 h 0.065 q 0.472,0 0.8138,-0.0651 1.5299,0.13021 2.4088,0.13021 l 0.3744,0.50456 v 0.27669 q 0,0.52083 -0.6673,0.52083 -0.586,0 -1.888,-0.13021 -0.8627,0.0651 -1.0905,0.0651 v -0.0651 q 0,4.58985 0.4394,10.28646 0.081,0 0.081,0.0488 2.0345,-0.11393 2.6042,-0.11393 0.5045,0.16276 0.7161,0.58593 v 0.13021 q 0,0.26042 -0.5208,0.58594 -2.5879,0.0651 -3.1088,0.13021 -1.2207,0 -1.2207,-1.1556 -0.4557,-6.21745 -0.4557,-10.36784 v -2.08333 q -0.3255,-5.72917 -0.3255,-7.71485 -0.1953,-0.97656 -0.1953,-1.2207 l 0.5045,-0.37435 h 0.8789 q 0.3581,0 1.1394,-0.0814 z"
         style="font-style:normal;font-variant:normal;font-weight:normal;font-stretch:normal;font-size:33.33333206px;line-height:1;font-family:'Moon Flower Bold';-inkscape-font-specification:'Moon Flower Bold, ';text-align:center;text-anchor:middle;fill:#18394c;fill-opacity:1"
         id="path2742" />
      <path
         d="m -1355.9355,101.74842 0.4231,0.48828 v 0.26042 q 0,0.60221 -2.2298,0.60221 h -1.8229 q 0.1953,0 0.2116,-0.0488 l 0.1302,2.94596 q -0.065,0.4069 -0.065,0.43945 0.5859,9.84701 0.5859,14.04623 0.065,0.11393 0.065,0.32552 -0.065,0.0977 -0.065,0.0651 l 0.081,0.43945 q -0.2279,0.52084 -0.6185,0.52084 h -0.2604 q -0.2767,0 -0.6673,-0.45573 0,-0.22787 0.065,-0.73242 0,-1.38347 -0.5859,-14.04623 0,-2.05078 -0.114,-3.58073 l 0.1465,0.0814 h -0.065 l -2.2786,0.19532 q -0.4232,-0.45573 -0.4232,-0.84636 0,-0.27669 0.6185,-0.58594 0.5696,0.14649 0.5534,0.14649 1.2532,-0.11393 1.774,-0.11393 h 2.6693 q 0.7975,0 1.8718,-0.14649 z"
         style="font-style:normal;font-variant:normal;font-weight:normal;font-stretch:normal;font-size:33.33333206px;line-height:1;font-family:'Moon Flower Bold';-inkscape-font-specification:'Moon Flower Bold, ';text-align:center;text-anchor:middle;fill:#18394c;fill-opacity:1"
         id="path2744" />
      <path
         d="m -1349.3763,100.64165 q 2.2135,0 3.3366,9.08203 0.065,0.86263 0.065,2.18099 v 0.26042 q 0,0.26041 -0.049,0.52083 0.049,0.0651 0.049,0.52083 v 0.0651 q 0,0.45573 -0.049,0.52083 0.049,0.26042 0.049,0.32552 0,6.9987 -2.0508,8.72396 -0.8301,0.32552 -1.1556,0.32552 h -0.5208 q -2.653,-0.63476 -3.2715,-6.36393 l -0.1953,-2.66927 q 0,-9.24479 2.36,-12.9069 0.7813,-0.58594 1.4323,-0.58594 z m -2.3275,13.28125 q 0,3.62956 0.9603,6.34766 0.7975,1.59505 1.237,1.59505 h 0.065 q 0.9766,0 1.3021,-1.57878 0.6998,-1.66015 0.6998,-7.14518 v -1.30208 q 0,-3.79232 -1.3509,-8.70768 -0.4394,-0.97657 -0.651,-1.12305 -0.3581,0.13021 -0.4557,0.42318 -1.8067,3.82487 -1.8067,11.49088 z"
         style="font-style:normal;font-variant:normal;font-weight:normal;font-stretch:normal;font-size:33.33333206px;line-height:1;font-family:'Moon Flower Bold';-inkscape-font-specification:'Moon Flower Bold, ';text-align:center;text-anchor:middle;fill:#18394c;fill-opacity:1"
         id="path2746" />
      <path
         d="m -1330.4473,101.61821 h 0.1465 q 1.4649,0 2.36,1.13933 v 0.22786 q 0,0.26042 -0.5371,0.58594 -0.4069,0 -1.2044,-0.50456 -0.293,-0.14648 -0.6836,-0.14648 h -0.1953 q -1.6113,0.39062 -1.6113,10.80729 0,4.98047 1.1556,7.56836 0.3092,0.66731 1.2044,1.02539 h 0.1139 q 0.8138,-0.16276 0.8138,-0.97656 0.2605,0 0.6511,-3.59701 v -3.15755 -0.0163 q 0.6836,0 0.6836,0.0977 -3.418,-0.26042 -3.418,-0.73242 l -0.065,-0.32552 v -0.0814 q 0,-0.2767 0.4883,-0.52084 h 0.472 q 0.2278,0.17904 2.8483,0.4069 0.4557,0.45573 0.4557,1.54623 v 1.6276 q 0,0.39063 -0.065,0.99284 0.065,0.11393 0.065,0.26042 -0.472,5.45247 -1.4974,5.45247 0,0.0651 -1.3346,0.32552 h -0.3581 q -1.2695,-0.29297 -2.1973,-1.41601 -1.4811,-2.79948 -1.4811,-8.54493 0,-10.92122 2.4252,-11.96289 z"
         style="font-style:normal;font-variant:normal;font-weight:normal;font-stretch:normal;font-size:33.33333206px;line-height:1;font-family:'Moon Flower Bold';-inkscape-font-specification:'Moon Flower Bold, ';text-align:center;text-anchor:middle;fill:#18394c;fill-opacity:1"
         id="path2748" />
      <path
         d="m -1319.0378,100.64165 q 2.2136,0 3.3366,9.08203 0.065,0.86263 0.065,2.18099 v 0.26042 q 0,0.26041 -0.049,0.52083 0.049,0.0651 0.049,0.52083 v 0.0651 q 0,0.45573 -0.049,0.52083 0.049,0.26042 0.049,0.32552 0,6.9987 -2.0507,8.72396 -0.8301,0.32552 -1.1556,0.32552 h -0.5209 q -2.653,-0.63476 -3.2715,-6.36393 l -0.1953,-2.66927 q 0,-9.24479 2.36,-12.9069 0.7813,-0.58594 1.4323,-0.58594 z m -2.3274,13.28125 q 0,3.62956 0.9603,6.34766 0.7975,1.59505 1.2369,1.59505 h 0.065 q 0.9766,0 1.3021,-1.57878 0.6999,-1.66015 0.6999,-7.14518 v -1.30208 q 0,-3.79232 -1.3509,-8.70768 -0.4395,-0.97657 -0.6511,-1.12305 -0.358,0.13021 -0.4557,0.42318 -1.8066,3.82487 -1.8066,11.49088 z"
         style="font-style:normal;font-variant:normal;font-weight:normal;font-stretch:normal;font-size:33.33333206px;line-height:1;font-family:'Moon Flower Bold';-inkscape-font-specification:'Moon Flower Bold, ';text-align:center;text-anchor:middle;fill:#18394c;fill-opacity:1"
         id="path2750" />
      <path
         d="m -1303.1686,100.49517 q 0.6836,0 3.3528,9.14713 0.3744,2.08333 3.0599,10.27018 h -0.5371 v -0.22786 q -0.3743,-7.91016 -0.3743,-8.88672 0,-0.29297 0.081,-1.98568 -0.016,-0.17903 -0.016,-0.78125 0.1302,-1.2858 0.1302,-2.0345 v -4.63867 q 0.081,-0.6836 0.8789,-0.6836 l 0.6836,0.35808 q -0.1953,3.85742 -0.1953,5.71289 v 1.83919 q 0,5.66406 0.3581,14.79492 l -0.6511,0.32552 q -0.8138,0 -5.1269,-14.68099 l -1.709,-5.82682 0.6022,0.97656 0.049,-0.94401 q 0.114,1.35091 0.114,2.14844 l 0.016,0.55338 q -0.1302,3.61329 -0.1302,5.06185 0,7.27539 0.586,12.33724 h -0.8138 q -0.765,0 -0.765,-0.68359 -0.3744,-5.68034 -0.3744,-10.17253 v -11.29557 q 0.114,-0.68359 0.7813,-0.68359 z"
         style="font-style:normal;font-variant:normal;font-weight:normal;font-stretch:normal;font-size:33.33333206px;line-height:1;font-family:'Moon Flower Bold';-inkscape-font-specification:'Moon Flower Bold, ';text-align:center;text-anchor:middle;fill:#18394c;fill-opacity:1"
         id="path2752" />
      <path
         d="m -1289.4805,100.64165 q 2.2136,0 3.3366,9.08203 0.065,0.86263 0.065,2.18099 v 0.26042 q 0,0.26041 -0.049,0.52083 0.049,0.0651 0.049,0.52083 v 0.0651 q 0,0.45573 -0.049,0.52083 0.049,0.26042 0.049,0.32552 0,6.9987 -2.0508,8.72396 -0.83,0.32552 -1.1556,0.32552 h -0.5208 q -2.653,-0.63476 -3.2715,-6.36393 l -0.1953,-2.66927 q 0,-9.24479 2.36,-12.9069 0.7813,-0.58594 1.4323,-0.58594 z m -2.3274,13.28125 q 0,3.62956 0.9602,6.34766 0.7976,1.59505 1.237,1.59505 h 0.065 q 0.9766,0 1.3021,-1.57878 0.6999,-1.66015 0.6999,-7.14518 v -1.30208 q 0,-3.79232 -1.3509,-8.70768 -0.4395,-0.97657 -0.6511,-1.12305 -0.358,0.13021 -0.4557,0.42318 -1.8066,3.82487 -1.8066,11.49088 z"
         style="font-style:normal;font-variant:normal;font-weight:normal;font-stretch:normal;font-size:33.33333206px;line-height:1;font-family:'Moon Flower Bold';-inkscape-font-specification:'Moon Flower Bold, ';text-align:center;text-anchor:middle;fill:#18394c;fill-opacity:1"
         id="path2754" />
      <path
         d="m -1273.3021,101.55311 h 0.3418 q 0.3744,0 0.6022,0.472 -0.7161,14.22526 -0.9114,19.61263 -0.2604,1.46485 -0.8627,1.46485 h -0.1302 q -0.6673,0 -1.6276,-3.51563 -1.709,-5.51758 -1.709,-5.79427 h 0.7325 q -0.5046,7.24284 -0.5046,9.52149 l -0.4557,0.30924 h -0.3418 q -0.6348,0 -0.9277,-2.50651 -1.4323,-6.722 -2.8158,-17.15495 -0.033,0 -0.3092,-1.20442 0,-0.29297 0.5371,-0.61849 h 0.3906 q 0.6673,0 1.123,4.0039 1.1719,7.69857 1.5625,9.81446 l 0.6022,3.23893 h -0.6835 q 0.5208,-8.31706 0.7812,-9.00065 l 0.6022,-0.11394 q 0.7487,0 1.0417,2.83204 0.3092,1.54622 1.6764,6.02213 l 0.472,1.62761 -0.5534,0.27669 q 0.3907,-11.50716 0.9278,-18.99414 z"
         style="font-style:normal;font-variant:normal;font-weight:normal;font-stretch:normal;font-size:33.33333206px;line-height:1;font-family:'Moon Flower Bold';-inkscape-font-specification:'Moon Flower Bold, ';text-align:center;text-anchor:middle;fill:#18394c;fill-opacity:1"
         id="path2756" />
      <path
         d="m -1269.819,100.31613 h 0.293 q 0.4231,0 1.0253,1.44857 1.1882,1.80664 1.9857,5.30599 0.7813,3.71093 0.7813,6.62435 v 1.17187 q 0,7.86133 -2.0345,12.71159 l -0.6348,0.19531 q -0.6185,-0.30924 -0.6185,-0.60221 v -0.22787 q 1.8229,-5.07812 1.8229,-11.50716 v -1.74153 q 0,-4.08529 -1.4811,-8.9681 l -1.6439,-3.43425 v -0.32552 q 0,-0.27669 0.5046,-0.65104 z"
         style="font-style:normal;font-variant:normal;font-weight:normal;font-stretch:normal;font-size:33.33333206px;line-height:1;font-family:'Moon Flower Bold';-inkscape-font-specification:'Moon Flower Bold, ';text-align:center;text-anchor:middle;fill:#18394c;fill-opacity:1"
         id="path2758" />
    </g>
    <path
       style="fill:none;stroke:#18394c;stroke-width:1.51181102;stroke-linecap:round;stroke-linejoin:miter;stroke-miterlimit:4;stroke-dasharray:none;stroke-opacity:1"
       d="m 130.2109,1112.2437 h 40.82477"
       id="path2761"
       inkscape:connector-curvature="0" />
  </g>
</svg>
