<?xml version="1.0" encoding="UTF-8" standalone="no"?>
<!-- Created with Inkscape (http://www.inkscape.org/) -->

<svg
   xmlns:dc="http://purl.org/dc/elements/1.1/"
   xmlns:cc="http://creativecommons.org/ns#"
   xmlns:rdf="http://www.w3.org/1999/02/22-rdf-syntax-ns#"
   xmlns:svg="http://www.w3.org/2000/svg"
   xmlns="http://www.w3.org/2000/svg"
   xmlns:sodipodi="http://sodipodi.sourceforge.net/DTD/sodipodi-0.dtd"
   xmlns:inkscape="http://www.inkscape.org/namespaces/inkscape"
   width="300"
   height="30"
   viewBox="0 0 300.00001 30"
   version="1.1"
   id="svg6533"
   sodipodi:docname="Text_AnyDietaryRequirements.svg"
   inkscape:version="0.92.3 (2405546, 2018-03-11)">
  <defs
     id="defs6527" />
  <sodipodi:namedview
     id="base"
     pagecolor="#ffffff"
     bordercolor="#666666"
     borderopacity="1.0"
     inkscape:pageopacity="0.0"
     inkscape:pageshadow="2"
     inkscape:zoom="2.8"
     inkscape:cx="48.95314"
     inkscape:cy="-110.76578"
     inkscape:document-units="px"
     inkscape:current-layer="layer1"
     showgrid="false"
     units="px"
     inkscape:window-width="1812"
     inkscape:window-height="1050"
     inkscape:window-x="-9"
     inkscape:window-y="-9"
     inkscape:window-maximized="1" />
  <metadata
     id="metadata6530">
    <rdf:RDF>
      <cc:Work
         rdf:about="">
        <dc:format>image/svg+xml</dc:format>
        <dc:type
           rdf:resource="http://purl.org/dc/dcmitype/StillImage" />
        <dc:title></dc:title>
      </cc:Work>
    </rdf:RDF>
  </metadata>
  <g
     inkscape:label="Layer 1"
     inkscape:groupmode="layer"
     id="layer1"
     transform="translate(0,-1092.5197)">
    <rect
       style="opacity:1;fill:#ffffff;fill-opacity:1;stroke:none;stroke-width:0.18751344;stroke-linecap:round;stroke-linejoin:round;stroke-miterlimit:4;stroke-dasharray:none;stroke-opacity:1"
       id="rect7086"
       width="146.65475"
       height="20.599701"
       x="6.8035712"
       y="61.70982" />
    <g
       aria-label="ANY DIETARY REQUIREMENTS?"
       transform="matrix(0.26458333,0,0,0.26458333,-15.137203,1029.4886)"
       style="font-style:normal;font-weight:normal;font-size:125.98425293px;line-height:1.25;font-family:sans-serif;letter-spacing:0px;word-spacing:0px;fill:#4c4018;fill-opacity:1;stroke:none"
       id="flowRoot7078">
      <path
         d="m 74.859114,252.25947 h 0.615157 q 4.429134,2.03002 7.074311,9.59646 6.889764,21.28445 10.150099,54.25689 2.153051,10.70374 2.153051,19.06988 -0.738189,1.84547 -4.244587,1.84547 -1.476378,-2.82972 -3.444882,-20.60777 -0.553641,-1.90699 -2.337598,-15.44045 l -0.553642,-0.0615 q -11.687992,1.10728 -11.687992,1.47638 v 9.59645 l -1.660925,22.51477 q 0.553642,0.7997 0.553642,1.84547 0,1.04577 -2.153052,2.3376 -4.183071,0 -4.183071,-3.99852 1.906989,-25.95965 1.906989,-31.12697 -0.246063,-3.38337 -0.246063,-6.88977 0.123031,-17.77805 2.952756,-37.64763 1.414862,-6.76674 5.105807,-6.76674 z m 1.107283,6.33613 q -3.137303,12.05708 -3.137303,35.00246 -0.246063,0 -0.246063,4.73671 v -0.92274 q 5.967028,-1.66092 11.872539,-1.66092 v 0.92273 q 0,-7.38189 -8.120078,-35.24852 -1.537894,-3.32185 -0.369095,-2.82972 z"
         style="font-style:normal;font-variant:normal;font-weight:normal;font-stretch:normal;font-size:125.98425293px;font-family:'Moon Flower Bold';-inkscape-font-specification:'Moon Flower Bold, ';fill:#4c4018;fill-opacity:1"
         id="path7246"
         inkscape:connector-curvature="0" />
      <path
         d="m 113.24494,251.27522 q 2.58366,0 12.67224,34.57185 1.41487,7.87402 11.56496,38.81644 h -2.03002 v -0.86122 q -1.41486,-29.89666 -1.41486,-33.5876 0,-1.10728 0.30758,-7.50492 -0.0615,-0.67667 -0.0615,-2.95276 0.49212,-4.85974 0.49212,-7.68947 v -17.53198 q 0.30758,-2.58367 3.32185,-2.58367 l 2.58366,1.35335 q -0.73819,14.57923 -0.73819,21.59203 v 6.95128 q 0,21.40748 1.35335,55.91781 l -2.46063,1.23032 q -3.07579,0 -19.37746,-55.48721 l -6.45915,-22.02263 2.27608,3.69094 0.18455,-3.56791 q 0.43061,5.1058 0.43061,8.12008 l 0.0615,2.09153 q -0.49212,13.6565 -0.49212,19.1314 0,27.49754 2.21456,46.62894 h -3.07578 q -2.89124,0 -2.89124,-2.58367 -1.41487,-21.46899 -1.41487,-38.44734 v -42.69193 q 0.43061,-2.58366 2.95276,-2.58366 z"
         style="font-style:normal;font-variant:normal;font-weight:normal;font-stretch:normal;font-size:125.98425293px;font-family:'Moon Flower Bold';-inkscape-font-specification:'Moon Flower Bold, ';fill:#4c4018;fill-opacity:1"
         id="path7248"
         inkscape:connector-curvature="0" />
      <path
         d="m 177.03677,255.51981 h 1.04576 q 1.29183,0 2.52215,1.90699 v 0.61515 q -1.96851,17.65502 -4.18307,34.38731 l 0.24606,1.41486 v 2.03002 q -0.92274,0 -2.70669,23.19144 -0.73819,12.24163 -1.84547,18.88533 l -1.47638,0.73819 h -1.41486 q -1.41487,-0.36909 -2.27609,-2.27608 2.7067,-32.72638 3.93701,-42.38435 -6.52067,-14.08711 -17.10138,-28.35876 -2.3376,-1.66093 -2.3376,-3.5064 v -0.49213 q 0,-0.98425 2.03002,-2.21456 h 1.84548 q 1.72244,0.67667 2.52214,3.19881 9.78101,12.11861 15.87106,25.09843 h -2.21456 q 2.58366,-22.33022 3.87549,-31.12697 z"
         style="font-style:normal;font-variant:normal;font-weight:normal;font-stretch:normal;font-size:125.98425293px;font-family:'Moon Flower Bold';-inkscape-font-specification:'Moon Flower Bold, ';fill:#4c4018;fill-opacity:1"
         id="path7250"
         inkscape:connector-curvature="0" />
      <path
         d="m 223.66571,248.13792 h 2.09154 q 10.64222,3.5064 16.17864,13.34892 7.99705,16.24015 7.99705,33.40305 v 1.23031 q 0,24.6063 -18.14715,40.41585 -2.82972,0.92273 -3.81398,0.92273 -2.09153,0 -2.58366,-5.35187 l 0.24606,-0.49212 q -0.67667,-5.41339 -0.98425,-17.03986 h -0.43061 l 0.49213,0.98425 v -0.49213 q 0,-9.71949 0.24606,-17.71653 z m 5.844,6.76673 v -1.59941 q 0.24606,27.7436 0.98425,43.79921 -0.24606,6.58219 -0.24606,13.53347 v 2.95275 q 0,9.28888 0.67667,16.7938 3.1373,-2.70669 7.87401,-10.39616 5.59794,-12.30315 5.59794,-23.12992 v -2.46063 q 0,-15.19439 -7.50492,-31.00394 -5.16733,-7.75098 -7.38189,-8.48917 z"
         style="font-style:normal;font-variant:normal;font-weight:normal;font-stretch:normal;font-size:125.98425293px;font-family:'Moon Flower Bold';-inkscape-font-specification:'Moon Flower Bold, ';fill:#4c4018;fill-opacity:1"
         id="path7252"
         inkscape:connector-curvature="0" />
      <path
         d="m 267.89552,252.56705 h 0.98426 q 3.26033,0 3.26033,14.27166 v 3.19881 q 0,4.85975 -1.47638,24.91388 0,0.79971 0.24607,1.78396 -0.24607,12.97982 -0.24607,20.54626 v 15.99409 q 0,0.3691 0.49213,2.39912 -0.49213,3.01427 -2.52215,3.01427 h -0.98425 q -2.52214,0 -2.52214,-7.87402 0,-42.75344 1.47637,-58.87057 v -6.82825 q 0,-5.65944 -0.73819,-10.27313 0,-1.04576 2.03002,-2.27608 z"
         style="font-style:normal;font-variant:normal;font-weight:normal;font-stretch:normal;font-size:125.98425293px;font-family:'Moon Flower Bold';-inkscape-font-specification:'Moon Flower Bold, ';fill:#4c4018;fill-opacity:1"
         id="path7254"
         inkscape:connector-curvature="0" />
      <path
         d="m 299.45311,251.33674 0.55365,0.30758 q -1.72245,0 -1.72245,-0.3691 10.94981,0.98425 10.94981,3.07579 v 0.43061 q -0.79971,2.27608 -2.89124,2.27608 l -7.13583,-0.73819 q -0.49213,0 -3.1373,0.18455 l 0.12303,1.72244 q 0,4.06004 1.1688,31.31152 h 0.24606 q 1.78396,0 3.07579,-0.24607 5.78248,0.49213 9.10433,0.49213 l 1.41486,1.90699 v 1.04577 q 0,1.9685 -2.52214,1.9685 -2.21457,0 -7.13583,-0.49213 -3.26034,0.24607 -4.12156,0.24607 v -0.24607 q 0,17.34744 1.66093,38.87796 0.30758,0 0.30758,0.18454 7.68947,-0.43061 9.84252,-0.43061 1.90699,0.61516 2.70669,2.21457 v 0.49213 q 0,0.98425 -1.9685,2.21456 -9.78101,0.24607 -11.74951,0.49213 -4.61368,0 -4.61368,-4.36762 -1.72244,-23.49901 -1.72244,-39.18553 v -7.87402 q -1.23032,-21.65354 -1.23032,-29.15846 -0.73819,-3.69095 -0.73819,-4.61368 l 1.90699,-1.41486 h 3.32185 q 1.35335,0 4.3061,-0.30758 z"
         style="font-style:normal;font-variant:normal;font-weight:normal;font-stretch:normal;font-size:125.98425293px;font-family:'Moon Flower Bold';-inkscape-font-specification:'Moon Flower Bold, ';fill:#4c4018;fill-opacity:1"
         id="path7256"
         inkscape:connector-curvature="0" />
      <path
         d="m 348.6042,256.01193 1.59941,1.84548 v 0.98425 q 0,2.27608 -8.42766,2.27608 h -6.88976 q 0.73819,0 0.7997,-0.18455 l 0.49213,11.13435 q -0.24606,1.5379 -0.24606,1.66093 2.21456,37.21703 2.21456,53.08809 0.24607,0.43061 0.24607,1.23032 -0.24607,0.36909 -0.24607,0.24606 l 0.30758,1.66092 q -0.86122,1.96851 -2.3376,1.96851 h -0.98425 q -1.04577,0 -2.52214,-1.72244 0,-0.86122 0.24606,-2.76821 0,-5.22884 -2.21457,-53.08809 0,-7.75099 -0.43061,-13.53347 l 0.55364,0.30758 h -0.24606 l -8.6122,0.73819 q -1.59941,-1.72244 -1.59941,-3.19882 0,-1.04577 2.33759,-2.21457 2.15306,0.55365 2.09154,0.55365 4.73671,-0.43061 6.70522,-0.43061 h 10.08858 q 3.01427,0 7.07431,-0.55365 z"
         style="font-style:normal;font-variant:normal;font-weight:normal;font-stretch:normal;font-size:125.98425293px;font-family:'Moon Flower Bold';-inkscape-font-specification:'Moon Flower Bold, ';fill:#4c4018;fill-opacity:1"
         id="path7258"
         inkscape:connector-curvature="0" />
      <path
         d="m 370.87288,252.25947 h 0.61515 q 4.42914,2.03002 7.07432,9.59646 6.88976,21.28445 10.15009,54.25689 2.15306,10.70374 2.15306,19.06988 -0.73819,1.84547 -4.24459,1.84547 -1.47638,-2.82972 -3.44488,-20.60777 -0.55364,-1.90699 -2.3376,-15.44045 l -0.55364,-0.0615 q -11.688,1.10728 -11.688,1.47638 v 9.59645 l -1.66092,22.51477 q 0.55364,0.7997 0.55364,1.84547 0,1.04577 -2.15305,2.3376 -4.18307,0 -4.18307,-3.99852 1.90699,-25.95965 1.90699,-31.12697 -0.24607,-3.38337 -0.24607,-6.88977 0.12304,-17.77805 2.95276,-37.64763 1.41486,-6.76674 5.10581,-6.76674 z m 1.10728,6.33613 q -3.1373,12.05708 -3.1373,35.00246 -0.24607,0 -0.24607,4.73671 v -0.92274 q 5.96703,-1.66092 11.87254,-1.66092 v 0.92273 q 0,-7.38189 -8.12007,-35.24852 -1.5379,-3.32185 -0.3691,-2.82972 z"
         style="font-style:normal;font-variant:normal;font-weight:normal;font-stretch:normal;font-size:125.98425293px;font-family:'Moon Flower Bold';-inkscape-font-specification:'Moon Flower Bold, ';fill:#4c4018;fill-opacity:1"
         id="path7260"
         inkscape:connector-curvature="0" />
      <path
         d="m 408.21295,245.43122 h 1.9685 q 0.73819,0.98426 4.06004,1.5379 5.35187,2.15305 8.55069,7.62795 4.3061,10.39616 4.3061,15.44045 v 2.46063 q 0,16.60926 -7.93553,22.82235 9.3504,2.21456 11.13435,26.08267 v 9.41191 q 0,2.09154 0.30758,6.70522 l -1.78395,1.1688 h -1.90699 l -1.84547,-1.41486 q -0.30758,-5.4749 -0.30758,-7.93553 v -8.85827 q 0,-8.9813 -5.41339,-18.27018 -3.32185,-3.1373 -5.59793,-3.1373 h 1.35334 q 0.18455,4.06004 0.18455,6.6437 v 9.35039 q 0.49213,12.18012 0.49213,13.77953 v 0.73819 q -0.98425,1.9685 -3.01427,1.9685 -1.1688,0 -2.82973,-1.90699 l 0.30758,-2.09153 q -0.49213,-10.33465 -0.49213,-13.71801 v -13.53347 q -0.61515,0 -1.47637,-2.03002 v -1.1688 q 0.98425,-1.9685 1.1688,-1.9685 -1.1688,-32.48032 -3.19882,-48.22835 z m 4.24459,5.90552 q 1.35334,16.67076 2.46063,40.72342 6.6437,-4.49065 6.6437,-18.33169 v -3.44488 q 0,-6.21309 -5.16733,-15.80955 -3.44488,-3.1373 -4.85974,-3.1373 z"
         style="font-style:normal;font-variant:normal;font-weight:normal;font-stretch:normal;font-size:125.98425293px;font-family:'Moon Flower Bold';-inkscape-font-specification:'Moon Flower Bold, ';fill:#4c4018;fill-opacity:1"
         id="path7262"
         inkscape:connector-curvature="0" />
      <path
         d="m 467.63717,255.51981 h 1.04577 q 1.29183,0 2.52214,1.90699 v 0.61515 q -1.9685,17.65502 -4.18307,34.38731 l 0.24606,1.41486 v 2.03002 q -0.92273,0 -2.70669,23.19144 -0.73819,12.24163 -1.84547,18.88533 l -1.47638,0.73819 h -1.41486 q -1.41486,-0.36909 -2.27608,-2.27608 2.70669,-32.72638 3.937,-42.38435 -6.52067,-14.08711 -17.10137,-28.35876 -2.3376,-1.66093 -2.3376,-3.5064 v -0.49213 q 0,-0.98425 2.03002,-2.21456 h 1.84547 q 1.72244,0.67667 2.52214,3.19881 9.78101,12.11861 15.87107,25.09843 h -2.21457 q 2.58366,-22.33022 3.87549,-31.12697 z"
         style="font-style:normal;font-variant:normal;font-weight:normal;font-stretch:normal;font-size:125.98425293px;font-family:'Moon Flower Bold';-inkscape-font-specification:'Moon Flower Bold, ';fill:#4c4018;fill-opacity:1"
         id="path7264"
         inkscape:connector-curvature="0" />
      <path
         d="m 516.23462,245.43122 h 1.9685 q 0.73819,0.98426 4.06004,1.5379 5.35187,2.15305 8.55069,7.62795 4.3061,10.39616 4.3061,15.44045 v 2.46063 q 0,16.60926 -7.93553,22.82235 9.35039,2.21456 11.13435,26.08267 v 9.41191 q 0,2.09154 0.30758,6.70522 l -1.78396,1.1688 h -1.90698 l -1.84548,-1.41486 q -0.30758,-5.4749 -0.30758,-7.93553 v -8.85827 q 0,-8.9813 -5.41338,-18.27018 -3.32185,-3.1373 -5.59794,-3.1373 h 1.35335 q 0.18455,4.06004 0.18455,6.6437 v 9.35039 q 0.49212,12.18012 0.49212,13.77953 v 0.73819 q -0.98425,1.9685 -3.01427,1.9685 -1.1688,0 -2.82972,-1.90699 l 0.30758,-2.09153 q -0.49213,-10.33465 -0.49213,-13.71801 v -13.53347 q -0.61516,0 -1.47638,-2.03002 v -1.1688 q 0.98426,-1.9685 1.1688,-1.9685 -1.1688,-32.48032 -3.19882,-48.22835 z m 4.24458,5.90552 q 1.35335,16.67076 2.46063,40.72342 6.6437,-4.49065 6.6437,-18.33169 v -3.44488 q 0,-6.21309 -5.16732,-15.80955 -3.44488,-3.1373 -4.85974,-3.1373 z"
         style="font-style:normal;font-variant:normal;font-weight:normal;font-stretch:normal;font-size:125.98425293px;font-family:'Moon Flower Bold';-inkscape-font-specification:'Moon Flower Bold, ';fill:#4c4018;fill-opacity:1"
         id="path7266"
         inkscape:connector-curvature="0" />
      <path
         d="m 562.98656,251.33674 0.55364,0.30758 q -1.72244,0 -1.72244,-0.3691 10.9498,0.98425 10.9498,3.07579 v 0.43061 q -0.7997,2.27608 -2.89124,2.27608 l -7.13582,-0.73819 q -0.49213,0 -3.13731,0.18455 l 0.12304,1.72244 q 0,4.06004 1.1688,31.31152 h 0.24606 q 1.78396,0 3.07579,-0.24607 5.78248,0.49213 9.10433,0.49213 l 1.41486,1.90699 v 1.04577 q 0,1.9685 -2.52215,1.9685 -2.21456,0 -7.13582,-0.49213 -3.26034,0.24607 -4.12156,0.24607 v -0.24607 q 0,17.34744 1.66093,38.87796 0.30758,0 0.30758,0.18454 7.68946,-0.43061 9.84251,-0.43061 1.90699,0.61516 2.7067,2.21457 v 0.49213 q 0,0.98425 -1.96851,2.21456 -9.781,0.24607 -11.7495,0.49213 -4.61369,0 -4.61369,-4.36762 -1.72244,-23.49901 -1.72244,-39.18553 v -7.87402 q -1.23031,-21.65354 -1.23031,-29.15846 -0.73819,-3.69095 -0.73819,-4.61368 l 1.90699,-1.41486 h 3.32185 q 1.35334,0 4.3061,-0.30758 z"
         style="font-style:normal;font-variant:normal;font-weight:normal;font-stretch:normal;font-size:125.98425293px;font-family:'Moon Flower Bold';-inkscape-font-specification:'Moon Flower Bold, ';fill:#4c4018;fill-opacity:1"
         id="path7268"
         inkscape:connector-curvature="0" />
      <path
         d="m 600.44969,250.10642 q 5.96702,0 8.67372,14.51772 4.18307,13.59498 4.18307,36.90945 v 12.54921 q 0,4.12156 -1.41486,10.88829 6.58218,10.1501 6.58218,11.50344 v 0.24607 q 0,1.04576 -1.84547,1.9685 h -1.72244 q -2.52215,-1.78396 -6.39764,-9.35039 h 1.59941 q -1.66093,3.44488 -5.72097,3.44488 -12.1186,0 -15.07135,-24.72933 -1.23032,-11.56496 -1.23032,-28.66634 0,-22.20719 5.72097,-26.82087 4.67519,-2.46063 6.6437,-2.46063 z m -6.82825,29.2815 q 0,40.10827 6.88976,46.07529 1.23032,2.39912 3.87549,2.39912 0.73819,0 1.5379,-2.3376 -7.0128,-10.51919 -7.0128,-11.44193 v -0.24606 q 0,-0.98425 2.03002,-2.21457 h 1.5379 q 1.84547,1.29183 6.52067,8.85827 h -1.78396 q 0.55364,-3.99853 0.55364,-5.41339 v -15.00984 q 0,-24.72933 -6.52067,-43.30709 0.3691,0 -1.23031,-1.47638 h 0.67667 q -3.44488,1.04577 -3.75246,1.72245 -3.32185,4.42913 -3.32185,22.39173 z"
         style="font-style:normal;font-variant:normal;font-weight:normal;font-stretch:normal;font-size:125.98425293px;font-family:'Moon Flower Bold';-inkscape-font-specification:'Moon Flower Bold, ';fill:#4c4018;fill-opacity:1"
         id="path7270"
         inkscape:connector-curvature="0" />
      <path
         d="m 634.71391,249.6143 h 1.47638 q 2.39911,1.16879 2.39911,3.19881 v 1.23032 q 2.15305,39.98524 5.35187,64.34547 2.03002,15.37894 4.79823,15.37894 2.03002,-0.86122 2.03002,-3.44488 0,-9.65797 -2.03002,-48.72048 0.30758,-7.13582 0.30758,-13.77952 v -5.844 l -0.30758,-1.66092 0.24606,-0.55365 q -0.18455,-3.01427 -0.7997,-7.19734 l 2.03002,-1.47638 h 1.35334 q 2.46063,0 3.01427,8.12008 0,1.72244 -0.18454,1.72244 0.18454,2.46063 0.18454,4.18307 v 7.93554 l -0.24606,1.47637 q 0,-1.04576 0.30758,-1.04576 -0.30758,4.18307 -0.30758,5.41338 v 0.98425 q 1.96851,42.81496 1.96851,50.50443 -0.79971,8.30463 -7.93554,8.30463 -8.12007,0 -10.39616,-24.72933 -2.70669,-21.0999 -5.22884,-62.8691 z"
         style="font-style:normal;font-variant:normal;font-weight:normal;font-stretch:normal;font-size:125.98425293px;font-family:'Moon Flower Bold';-inkscape-font-specification:'Moon Flower Bold, ';fill:#4c4018;fill-opacity:1"
         id="path7272"
         inkscape:connector-curvature="0" />
      <path
         d="m 678.57465,252.56705 h 0.98425 q 3.26033,0 3.26033,14.27166 v 3.19881 q 0,4.85975 -1.47637,24.91388 0,0.79971 0.24606,1.78396 -0.24606,12.97982 -0.24606,20.54626 v 15.99409 q 0,0.3691 0.49212,2.39912 -0.49212,3.01427 -2.52214,3.01427 h -0.98426 q -2.52214,0 -2.52214,-7.87402 0,-42.75344 1.47638,-58.87057 v -6.82825 q 0,-5.65944 -0.73819,-10.27313 0,-1.04576 2.03002,-2.27608 z"
         style="font-style:normal;font-variant:normal;font-weight:normal;font-stretch:normal;font-size:125.98425293px;font-family:'Moon Flower Bold';-inkscape-font-specification:'Moon Flower Bold, ';fill:#4c4018;fill-opacity:1"
         id="path7274"
         inkscape:connector-curvature="0" />
      <path
         d="m 700.04367,245.43122 h 1.9685 q 0.73819,0.98426 4.06004,1.5379 5.35187,2.15305 8.55069,7.62795 4.3061,10.39616 4.3061,15.44045 v 2.46063 q 0,16.60926 -7.93553,22.82235 9.3504,2.21456 11.13435,26.08267 v 9.41191 q 0,2.09154 0.30758,6.70522 l -1.78396,1.1688 h -1.90698 l -1.84548,-1.41486 q -0.30757,-5.4749 -0.30757,-7.93553 v -8.85827 q 0,-8.9813 -5.41339,-18.27018 -3.32185,-3.1373 -5.59793,-3.1373 h 1.35334 q 0.18455,4.06004 0.18455,6.6437 v 9.35039 q 0.49213,12.18012 0.49213,13.77953 v 0.73819 q -0.98426,1.9685 -3.01428,1.9685 -1.16879,0 -2.82972,-1.90699 l 0.30758,-2.09153 q -0.49213,-10.33465 -0.49213,-13.71801 v -13.53347 q -0.61515,0 -1.47638,-2.03002 v -1.1688 q 0.98426,-1.9685 1.1688,-1.9685 -1.1688,-32.48032 -3.19881,-48.22835 z m 4.24459,5.90552 q 1.35334,16.67076 2.46063,40.72342 6.6437,-4.49065 6.6437,-18.33169 v -3.44488 q 0,-6.21309 -5.16733,-15.80955 -3.44488,-3.1373 -4.85974,-3.1373 z"
         style="font-style:normal;font-variant:normal;font-weight:normal;font-stretch:normal;font-size:125.98425293px;font-family:'Moon Flower Bold';-inkscape-font-specification:'Moon Flower Bold, ';fill:#4c4018;fill-opacity:1"
         id="path7276"
         inkscape:connector-curvature="0" />
      <path
         d="m 746.79564,251.33674 0.55364,0.30758 q -1.72244,0 -1.72244,-0.3691 10.94981,0.98425 10.94981,3.07579 v 0.43061 q -0.79971,2.27608 -2.89124,2.27608 l -7.13583,-0.73819 q -0.49213,0 -3.1373,0.18455 l 0.12303,1.72244 q 0,4.06004 1.1688,31.31152 h 0.24606 q 1.78396,0 3.07579,-0.24607 5.78248,0.49213 9.10433,0.49213 l 1.41486,1.90699 v 1.04577 q 0,1.9685 -2.52214,1.9685 -2.21457,0 -7.13583,-0.49213 -3.26034,0.24607 -4.12156,0.24607 v -0.24607 q 0,17.34744 1.66093,38.87796 0.30758,0 0.30758,0.18454 7.68947,-0.43061 9.84252,-0.43061 1.90699,0.61516 2.70669,2.21457 v 0.49213 q 0,0.98425 -1.9685,2.21456 -9.78101,0.24607 -11.74951,0.49213 -4.61368,0 -4.61368,-4.36762 -1.72244,-23.49901 -1.72244,-39.18553 v -7.87402 q -1.23032,-21.65354 -1.23032,-29.15846 -0.73819,-3.69095 -0.73819,-4.61368 l 1.90699,-1.41486 h 3.32185 q 1.35335,0 4.3061,-0.30758 z"
         style="font-style:normal;font-variant:normal;font-weight:normal;font-stretch:normal;font-size:125.98425293px;font-family:'Moon Flower Bold';-inkscape-font-specification:'Moon Flower Bold, ';fill:#4c4018;fill-opacity:1"
         id="path7278"
         inkscape:connector-curvature="0" />
      <path
         d="m 771.77101,250.84461 q 2.89124,0.92274 17.10138,39.55463 h -2.03002 q 0,-1.59941 12.54921,-38.01674 h 2.95276 l 1.10728,2.15306 0.0615,2.70669 q -0.67668,22.02264 -0.67668,37.21703 0,5.84399 2.21457,42.93799 l -2.64518,1.29183 q -3.32185,0 -4.79823,-41.33858 v -28.85089 h 2.03002 q -8.73523,27.12845 -10.64222,28.66634 -3.93701,-0.24606 -15.31742,-32.29577 h 1.90699 v -0.49212 l 3.62943,71.54281 -2.52215,1.35335 q -3.44488,0 -3.44488,-2.7067 -2.15305,-64.28395 -4.36762,-82.24655 z"
         style="font-style:normal;font-variant:normal;font-weight:normal;font-stretch:normal;font-size:125.98425293px;font-family:'Moon Flower Bold';-inkscape-font-specification:'Moon Flower Bold, ';fill:#4c4018;fill-opacity:1"
         id="path7280"
         inkscape:connector-curvature="0" />
      <path
         d="m 826.7661,251.33674 0.55364,0.30758 q -1.72244,0 -1.72244,-0.3691 10.94981,0.98425 10.94981,3.07579 v 0.43061 q -0.79971,2.27608 -2.89124,2.27608 l -7.13583,-0.73819 q -0.49213,0 -3.1373,0.18455 l 0.12303,1.72244 q 0,4.06004 1.1688,31.31152 h 0.24606 q 1.78396,0 3.07579,-0.24607 5.78248,0.49213 9.10433,0.49213 l 1.41486,1.90699 v 1.04577 q 0,1.9685 -2.52215,1.9685 -2.21456,0 -7.13582,-0.49213 -3.26034,0.24607 -4.12156,0.24607 v -0.24607 q 0,17.34744 1.66093,38.87796 0.30758,0 0.30758,0.18454 7.68946,-0.43061 9.84252,-0.43061 1.90698,0.61516 2.70669,2.21457 v 0.49213 q 0,0.98425 -1.96851,2.21456 -9.781,0.24607 -11.7495,0.49213 -4.61368,0 -4.61368,-4.36762 -1.72245,-23.49901 -1.72245,-39.18553 v -7.87402 q -1.23031,-21.65354 -1.23031,-29.15846 -0.73819,-3.69095 -0.73819,-4.61368 l 1.90699,-1.41486 H 822.46 q 1.35335,0 4.3061,-0.30758 z"
         style="font-style:normal;font-variant:normal;font-weight:normal;font-stretch:normal;font-size:125.98425293px;font-family:'Moon Flower Bold';-inkscape-font-specification:'Moon Flower Bold, ';fill:#4c4018;fill-opacity:1"
         id="path7282"
         inkscape:connector-curvature="0" />
      <path
         d="m 853.15639,251.27522 q 2.58366,0 12.67225,34.57185 1.41486,7.87402 11.56496,38.81644 h -2.03002 v -0.86122 q -1.41486,-29.89666 -1.41486,-33.5876 0,-1.10728 0.30757,-7.50492 -0.0615,-0.67667 -0.0615,-2.95276 0.49212,-4.85974 0.49212,-7.68947 v -17.53198 q 0.30758,-2.58367 3.32185,-2.58367 l 2.58367,1.35335 q -0.73819,14.57923 -0.73819,21.59203 v 6.95128 q 0,21.40748 1.35334,55.91781 l -2.46063,1.23032 q -3.07578,0 -19.37746,-55.48721 l -6.45915,-22.02263 2.27608,3.69094 0.18455,-3.56791 q 0.43061,5.1058 0.43061,8.12008 l 0.0615,2.09153 q -0.49213,13.6565 -0.49213,19.1314 0,27.49754 2.21457,46.62894 h -3.07579 q -2.89124,0 -2.89124,-2.58367 -1.41486,-21.46899 -1.41486,-38.44734 v -42.69193 q 0.43061,-2.58366 2.95275,-2.58366 z"
         style="font-style:normal;font-variant:normal;font-weight:normal;font-stretch:normal;font-size:125.98425293px;font-family:'Moon Flower Bold';-inkscape-font-specification:'Moon Flower Bold, ';fill:#4c4018;fill-opacity:1"
         id="path7284"
         inkscape:connector-curvature="0" />
      <path
         d="m 917.99394,256.01193 1.59941,1.84548 v 0.98425 q 0,2.27608 -8.42766,2.27608 h -6.88976 q 0.73819,0 0.7997,-0.18455 l 0.49213,11.13435 q -0.24606,1.5379 -0.24606,1.66093 2.21456,37.21703 2.21456,53.08809 0.24607,0.43061 0.24607,1.23032 -0.24607,0.36909 -0.24607,0.24606 l 0.30758,1.66092 q -0.86122,1.96851 -2.3376,1.96851 h -0.98425 q -1.04577,0 -2.52214,-1.72244 0,-0.86122 0.24606,-2.76821 0,-5.22884 -2.21457,-53.08809 0,-7.75099 -0.43061,-13.53347 l 0.55364,0.30758 h -0.24606 l -8.6122,0.73819 q -1.59941,-1.72244 -1.59941,-3.19882 0,-1.04577 2.33759,-2.21457 2.15306,0.55365 2.09154,0.55365 4.73671,-0.43061 6.70522,-0.43061 h 10.08858 q 3.01427,0 7.07431,-0.55365 z"
         style="font-style:normal;font-variant:normal;font-weight:normal;font-stretch:normal;font-size:125.98425293px;font-family:'Moon Flower Bold';-inkscape-font-specification:'Moon Flower Bold, ';fill:#4c4018;fill-opacity:1"
         id="path7286"
         inkscape:connector-curvature="0" />
      <path
         d="m 946.22971,253.12069 1.41486,1.78396 v 0.7997 q 0,0.86123 -2.21457,2.39912 h -3.01427 q -5.4749,0 -7.38189,3.99852 -1.90699,5.16733 -1.90699,11.56496 0,3.8755 3.38337,12.79528 1.10728,2.21457 13.04134,13.04134 6.45915,9.22736 6.45915,18.14714 0,7.0128 -3.01427,13.71802 -1.59941,3.62942 -8.12008,6.02854 -2.46063,1.29183 -4.18307,1.29183 -2.3376,0 -3.26034,-1.9685 v -0.86122 q 0,-1.78396 3.81398,-2.15306 7.0128,-2.64517 7.0128,-5.4749 2.21456,-4.42913 2.21456,-11.25738 0,-8.91978 -7.99704,-17.40896 -6.64371,-5.04429 -9.96556,-9.781 -2.39911,-2.58366 -4.67519,-13.22589 0,-1.29183 -0.24607,-3.26033 0,-8.1816 3.07579,-14.57923 3.87549,-5.59794 15.56349,-5.59794 z"
         style="font-style:normal;font-variant:normal;font-weight:normal;font-stretch:normal;font-size:125.98425293px;font-family:'Moon Flower Bold';-inkscape-font-specification:'Moon Flower Bold, ';fill:#4c4018;fill-opacity:1"
         id="path7288"
         inkscape:connector-curvature="0" />
      <path
         d="m 978.3409,253.05918 q 5.53642,0 10.33465,4.67519 3.75246,4.73672 3.75246,8.85827 v 1.72244 q 0,12.61073 -7.0128,24.11418 -1.84547,3.81397 -1.84547,12.24163 0.49212,4.06004 0.49212,6.45915 v 2.7067 q 0,2.03002 -2.15305,2.95275 h -1.10728 q -2.03002,0 -2.27608,-2.15305 0,-1.47638 0.24606,-1.84547 0,0.0615 -0.73819,-7.99705 0,-12.73376 5.04429,-19.50049 4.06004,-8.6122 4.06004,-17.47047 0,-4.73672 -4.3061,-8.36614 -3.26034,-1.47638 -4.73671,-1.47638 -6.58219,1.78395 -6.58219,5.65945 v 1.90698 l 0.73819,0.98426 v 0.55364 q 0,2.03002 -2.15305,2.95275 h -1.78396 q -2.3376,-1.16879 -2.3376,-3.19881 v -3.44489 q 0,-7.13582 11.13435,-10.33464 z m 1.9685,77.50984 h 1.23032 q 1.1688,0 2.76821,2.15305 v 1.5379 q 0,3.19881 -3.5064,3.19881 -3.38337,0 -3.75246,-3.69094 0.24606,-1.47638 3.26033,-3.19882 z"
         style="font-style:normal;font-variant:normal;font-weight:normal;font-stretch:normal;font-size:125.98425293px;font-family:'Moon Flower Bold';-inkscape-font-specification:'Moon Flower Bold, ';fill:#4c4018;fill-opacity:1"
         id="path7290"
         inkscape:connector-curvature="0" />
    </g>
  </g>
</svg>
