<?xml version="1.0" encoding="UTF-8" standalone="no"?>
<svg
   xmlns:dc="http://purl.org/dc/elements/1.1/"
   xmlns:cc="http://creativecommons.org/ns#"
   xmlns:rdf="http://www.w3.org/1999/02/22-rdf-syntax-ns#"
   xmlns:svg="http://www.w3.org/2000/svg"
   xmlns="http://www.w3.org/2000/svg"
   viewBox="0 0 256 256"
   version="1.1"
   id="svg8">
  <defs
     id="defs2" />
  <metadata
     id="metadata5">
    <rdf:RDF>
      <cc:Work
         rdf:about="">
        <dc:format>image/svg+xml</dc:format>
        <dc:type
           rdf:resource="http://purl.org/dc/dcmitype/StillImage" />
        <dc:title></dc:title>
      </cc:Work>
    </rdf:RDF>
  </metadata>
  <g
     id="flowRoot27"
     style="font-style:normal font-weight:normal font-size:40px line-height:1.25 font-family:sans-serif letter-spacing:0px word-spacing:0px fill:#000000 fill-opacity:1 stroke:none"
     transform="translate(-265.60547,-28.040821)"
     aria-label="Save the date">
    <path
       id="path53"
       style="font-style:normal font-variant:normal font-weight:normal font-stretch:normal font-size:64px font-family:'Goudy Old Style' -inkscape-font-specification:'Goudy Old Style' text-align:center letter-spacing:0px text-anchor:middle"
       d="m 353.46484,53.868645 q 3.34375,0 5.65625,0.96875 l 2.15625,0.90625 q 0.28125,0.125 0.5625,0.125 0.375,0 0.75,-0.3125 l 0.4375,-0.375 q 0.0937,-0.125 0.34375,-0.125 0.78125,-0.03125 0.78125,1.53125 0,0.53125 0.40625,3.15625 l 0.5,3.21875 q 0.15625,1.03125 0.15625,1.28125 0,0.96875 -0.65625,0.96875 -0.5,0 -1,-1.5 -1.125,-3.375 -4.59375,-5.5625 -3.4375,-2.1875 -7.6875,-2.1875 -3.375,0 -5.65625,2 -2.25,1.96875 -2.25,4.9375 0,2.625 1.46875,4.53125 1.28125,1.625 2.78125,2.375 1.53125,0.75 7.46875,2.71875 11.5625,3.78125 11.5625,12.40625 0,5.84375 -4.25,9.5625 -4.25,3.71875 -10.90625,3.71875 -2.40625,0 -5.3125,-0.6875 -2.875,-0.6875 -4.21875,-1.59375 -0.5625,-0.375 -0.75,-0.78125 -0.1875,-0.4375 -0.5625,-2.1875 -0.0625,-0.25 -0.78125,-2.84375 -0.8125,-2.8125 -0.8125,-4 0,-0.9375 0.625,-0.90625 0.5625,0.03125 1,1.53125 1.125,3.875 4.75,6.5 3.625,2.625 7.875,2.625 4.3125,0 7.28125,-2.53125 3,-2.53125 3,-6.15625 0,-3.46875 -2.75,-5.84375 -1.40625,-1.21875 -8.125,-3.46875 -6.9375,-2.34375 -9.84375,-5.1875 -2.875,-2.84375 -2.875,-7.375 0,-5.0625 3.75,-8.25 3.78125,-3.1875 9.71875,-3.1875 z" />
    <path
       id="path55"
       style="font-style:normal font-variant:normal font-weight:normal font-stretch:normal font-size:64px font-family:'Goudy Old Style' -inkscape-font-specification:'Goudy Old Style' text-align:center letter-spacing:0px text-anchor:middle"
       d="m 386.30859,83.649895 v -3.875 q 0,-3.59375 -1.34375,-4.96875 -1.8125,-1.875 -4.875,-1.875 -4.125,0 -4.125,3.5 0,1.03125 0.40625,2.375 0.1875,0.5625 0.21875,1 0.0312,0.5625 -0.625,0.5625 -1.46875,0 -2.6875,-0.625 -1.1875,-0.625 -1.1875,-1.375 0,-1.9375 2.09375,-4.1875 2.8125,-3.03125 7.46875,-3.03125 4.25,0 6.59375,1.90625 2.34375,1.875 2.34375,5.3125 v 12.25 q 0,2.90625 0.6875,4.15625 0.71875,1.21875 2.375,1.21875 0.46875,0 0.75,-0.0625 0.5625,-0.15625 0.75,-0.15625 0.53125,-0.03125 0.5,0.4375 -0.0312,0.5625 -1.46875,1.15625 -1.4375,0.5625 -2.8125,0.5625 -2.5625,0 -4.625,-3.15625 -4.53125,3.4375 -8.40625,3.4375 -2.9375,0 -4.6875,-1.5625 -1.71875,-1.59375 -1.71875,-4.25 0,-3.59375 3.28125,-5.5625 3.28125,-2 11.09375,-3.1875 z m 0,1.21875 q -4.875,0.4375 -7.53125,2.21875 -2.65625,1.75 -2.65625,4.5 0,2.15625 1.25,3.4375 1.28125,1.25 3.4375,1.25 2.625,0 4.40625,-1.71875 1.09375,-1.09375 1.09375,-3.46875 z" />
    <path
       id="path57"
       style="font-style:normal font-variant:normal font-weight:normal font-stretch:normal font-size:64px font-family:'Goudy Old Style' -inkscape-font-specification:'Goudy Old Style' text-align:center letter-spacing:0px text-anchor:middle"
       d="m 410.21484,92.806145 5.25,-11.09375 q 1.59375,-3.4375 1.59375,-5.875 0,-2.15625 -3,-2.65625 -0.84375,-0.125 -0.84375,-0.625 0,-0.65625 0.8125,-0.65625 0.40625,0 1.15625,0.09375 0.65625,0.0625 2.28125,0.0625 3.21875,0 4.28125,-0.09375 0.875,-0.0625 1.15625,-0.0625 0.75,0 0.71875,0.53125 -0.0312,0.40625 -1.3125,0.90625 -1.28125,0.5 -2.40625,2.875 l -10.1875,21.25 q -0.375,0.78125 -1.03125,0.78125 -0.78125,0 -1.15625,-0.875 l -9.0625,-20.5625 q -1.25,-2.8125 -3.40625,-3.625 -0.65625,-0.25 -0.65625,-0.65625 0,-0.65625 0.9375,-0.65625 0.25,0 0.71875,0.0625 1.53125,0.1875 5.6875,0.1875 1.90625,0 2.65625,-0.0625 1.03125,-0.09375 1.40625,-0.09375 0.71875,-0.03125 0.71875,0.625 0,0.46875 -0.875,0.5625 -2.84375,0.375 -2.84375,1.8125 0,0.78125 0.5625,2.09375 z" />
    <path
       id="path59"
       style="font-style:normal font-variant:normal font-weight:normal font-stretch:normal font-size:64px font-family:'Goudy Old Style' -inkscape-font-specification:'Goudy Old Style' text-align:center letter-spacing:0px text-anchor:middle"
       d="m 427.90234,81.837395 -0.0312,0.6875 q 0,5.34375 2.9375,9 2.96875,3.625 7.28125,3.625 3.40625,0 7.40625,-3.0625 0.25,-0.1875 0.46875,-0.21875 0.4375,-0.03125 0.4375,0.5 0,0.9375 -2.1875,2.65625 -4.0625,3.1875 -8.59375,3.1875 -5.09375,0 -8.5625,-3.875 -3.4375,-3.875 -3.4375,-9.59375 0,-5.4375 3.5625,-9.5 3.5625,-4.09375 8.34375,-4.09375 5.21875,0 8.34375,4.34375 0.75,1.0625 1.53125,2.875 0.78125,1.8125 0.78125,2.53125 0,1.03125 -2.03125,1.03125 l -2.3125,-0.03125 -2.125,-0.0625 z m 0.125,-1.6875 h 10.59375 q 2.46875,0 2.46875,-1 0,-2.4375 -2.125,-4.53125 -2.09375,-2.09375 -4.5625,-2.09375 -2.5625,0 -4.28125,2.0625 -1.6875,2.03125 -2.09375,5.5625 z" />
    <path
       id="path61"
       style="font-style:normal font-variant:normal font-weight:normal font-stretch:normal font-size:64px font-family:'Goudy Old Style' -inkscape-font-specification:'Goudy Old Style' text-align:center letter-spacing:0px text-anchor:middle"
       d="m 361.87109,154.93115 v 15.71875 q 0,3.0625 0.875,3.96875 1.28125,1.34375 3.65625,1.34375 1.90625,0 3.21875,-0.6875 l 1.625,-0.78125 0.1875,-0.0625 q 0.375,0 0.375,0.34375 0,1.03125 -2.46875,2.25 -2.46875,1.1875 -4.59375,1.1875 -7.1875,0 -7.1875,-7.5 v -15.78125 h -2.78125 q -0.8125,0 -0.8125,-0.46875 0,-0.4375 0.8125,-1.125 3.65625,-3.09375 5.59375,-6.1875 0.84375,-1.375 1.1875,-1.375 0.4375,0 0.4375,0.8125 l -0.125,5.40625 h 6.65625 q 1.375,0 2.125,-0.5 0.46875,-0.34375 0.6875,-0.375 0.34375,-0.0625 0.3125,0.34375 0,0.15625 -0.28125,0.78125 l -0.71875,1.78125 q -0.34375,0.90625 -1.375,0.90625 z" />
    <path
       id="path63"
       style="font-style:normal font-variant:normal font-weight:normal font-stretch:normal font-size:64px font-family:'Goudy Old Style' -inkscape-font-specification:'Goudy Old Style' text-align:center letter-spacing:0px text-anchor:middle"
       d="m 381.83984,156.11865 q 4.03125,-4.96875 8.78125,-4.96875 4.40625,0 7.125,3.03125 2.75,3.03125 2.75,7.9375 v 9.90625 q 0,2.375 0.78125,3.25 0.78125,0.875 3.3125,1.28125 0.84375,0.125 0.84375,0.6875 0,0.5625 -0.84375,0.5625 -0.375,0 -1.53125,-0.0937 -2.3125,-0.15625 -3.96875,-0.15625 -2.75,0 -4.0625,0.1875 -0.75,0.0937 -0.96875,0.0937 -0.84375,0 -0.875,-0.5625 -0.0312,-0.375 0.625,-0.625 1.59375,-0.59375 1.96875,-1.0625 0.375,-0.5 0.375,-1.90625 l 0.0312,-0.96875 v -10.40625 q 0,-3.96875 -2.03125,-6.28125 -2.03125,-2.34375 -5.4375,-2.34375 -2.625,0 -4.75,1.65625 -2.125,1.65625 -2.125,3.71875 v 12.09375 q 0,3.1875 0.71875,4.125 0.71875,0.9375 3.5,1.3125 1.0625,0.15625 1.0625,0.78125 0,0.53125 -0.6875,0.53125 -0.34375,0 -1.71875,-0.15625 -1.125,-0.125 -4.75,-0.125 -1.25,0 -3.59375,0.1875 -1.03125,0.0937 -1.4375,0.0937 -0.75,0 -0.78125,-0.5 -0.0312,-0.5625 0.71875,-0.78125 1.84375,-0.5625 2.25,-1.28125 0.4375,-0.71875 0.4375,-3.40625 v -32.5625 q 0,-3.84375 -2.09375,-3.71875 l -1.59375,0.0937 q -0.25,0 -0.4375,-0.0937 -0.21875,-0.125 -0.21875,-0.40625 0,-0.4375 0.71875,-0.625 1.96875,-0.46875 4.375,-1.625 l 2.4375,-1.15625 q 0.375,-0.1875 0.65625,-0.1875 0.53125,0 0.53125,0.6875 0,0.1875 -0.0625,0.75 -0.0312,0.53125 -0.0312,1.59375 z" />
    <path
       id="path65"
       style="font-style:normal font-variant:normal font-weight:normal font-stretch:normal font-size:64px font-family:'Goudy Old Style' -inkscape-font-specification:'Goudy Old Style' text-align:center letter-spacing:0px text-anchor:middle"
       d="m 412.83984,161.8374 -0.0312,0.6875 q 0,5.34375 2.9375,9 2.96875,3.625 7.28125,3.625 3.40625,0 7.40625,-3.0625 0.25,-0.1875 0.46875,-0.21875 0.4375,-0.0312 0.4375,0.5 0,0.9375 -2.1875,2.65625 -4.0625,3.1875 -8.59375,3.1875 -5.09375,0 -8.5625,-3.875 -3.4375,-3.875 -3.4375,-9.59375 0,-5.4375 3.5625,-9.5 3.5625,-4.09375 8.34375,-4.09375 5.21875,0 8.34375,4.34375 0.75,1.0625 1.53125,2.875 0.78125,1.8125 0.78125,2.53125 0,1.03125 -2.03125,1.03125 l -2.3125,-0.0312 -2.125,-0.0625 z m 0.125,-1.6875 h 10.59375 q 2.46875,0 2.46875,-1 0,-2.4375 -2.125,-4.53125 -2.09375,-2.09375 -4.5625,-2.09375 -2.5625,0 -4.28125,2.0625 -1.6875,2.03125 -2.09375,5.5625 z" />
    <path
       id="path67"
       style="font-style:normal font-variant:normal font-weight:normal font-stretch:normal font-size:64px font-family:'Goudy Old Style' -inkscape-font-specification:'Goudy Old Style' text-align:center letter-spacing:0px text-anchor:middle"
       d="m 362.52734,253.55615 q -3.1875,2.75 -5.1875,3.71875 -1.96875,0.9375 -4.46875,0.9375 -4.71875,0 -7.9375,-3.6875 -3.1875,-3.6875 -3.1875,-9.125 0,-6 3.8125,-10.125 3.84375,-4.125 9.40625,-4.125 3.78125,0 7.5625,2.21875 V 221.0249 q 0,-5.9375 -3.1875,-5.75 l -1.09375,0.0625 q -0.21875,0 -0.40625,-0.0625 -0.3125,-0.125 -0.34375,-0.46875 -0.0625,-0.625 0.90625,-0.75 3.21875,-0.40625 7.3125,-2.875 0.34375,-0.21875 0.59375,-0.21875 0.46875,0 0.46875,0.6875 l 0.0312,0.5625 v 39.71875 q 0,3.53125 2.15625,3.53125 l 1.84375,-0.0625 0.28125,0.0312 q 0.34375,0.125 0.34375,0.5 0,0.6875 -1.125,0.8125 -1.28125,0.125 -1.625,0.1875 l -1.75,0.28125 q -2.0625,0.3125 -2.75,0.65625 -0.59375,0.34375 -0.9375,0.34375 -0.71875,0.0312 -0.71875,-1.5625 z m 0,-3.78125 v -10.3125 q 0,-2.8125 -1.375,-4.125 -3.09375,-2.96875 -7.34375,-2.96875 -3.78125,0 -6.125,2.875 -2.3125,2.875 -2.3125,7.5625 0,5.125 3.03125,8.90625 3.0625,3.75 7.21875,3.75 3.0625,0 4.96875,-1.5625 1.9375,-1.59375 1.9375,-4.125 z" />
    <path
       id="path69"
       style="font-style:normal font-variant:normal font-weight:normal font-stretch:normal font-size:64px font-family:'Goudy Old Style' -inkscape-font-specification:'Goudy Old Style' text-align:center letter-spacing:0px text-anchor:middle"
       d="m 389.80859,243.6499 v -3.875 q 0,-3.59375 -1.34375,-4.96875 -1.8125,-1.875 -4.875,-1.875 -4.125,0 -4.125,3.5 0,1.03125 0.40625,2.375 0.1875,0.5625 0.21875,1 0.0312,0.5625 -0.625,0.5625 -1.46875,0 -2.6875,-0.625 -1.1875,-0.625 -1.1875,-1.375 0,-1.9375 2.09375,-4.1875 2.8125,-3.03125 7.46875,-3.03125 4.25,0 6.59375,1.90625 2.34375,1.875 2.34375,5.3125 v 12.25 q 0,2.90625 0.6875,4.15625 0.71875,1.21875 2.375,1.21875 0.46875,0 0.75,-0.0625 0.5625,-0.15625 0.75,-0.15625 0.53125,-0.0312 0.5,0.4375 -0.0312,0.5625 -1.46875,1.15625 -1.4375,0.5625 -2.8125,0.5625 -2.5625,0 -4.625,-3.15625 -4.53125,3.4375 -8.40625,3.4375 -2.9375,0 -4.6875,-1.5625 -1.71875,-1.59375 -1.71875,-4.25 0,-3.59375 3.28125,-5.5625 3.28125,-2 11.09375,-3.1875 z m 0,1.21875 q -4.875,0.4375 -7.53125,2.21875 -2.65625,1.75 -2.65625,4.5 0,2.15625 1.25,3.4375 1.28125,1.25 3.4375,1.25 2.625,0 4.40625,-1.71875 1.09375,-1.09375 1.09375,-3.46875 z" />
    <path
       id="path71"
       style="font-style:normal font-variant:normal font-weight:normal font-stretch:normal font-size:64px font-family:'Goudy Old Style' -inkscape-font-specification:'Goudy Old Style' text-align:center letter-spacing:0px text-anchor:middle"
       d="m 409.55859,234.93115 v 15.71875 q 0,3.0625 0.875,3.96875 1.28125,1.34375 3.65625,1.34375 1.90625,0 3.21875,-0.6875 l 1.625,-0.78125 0.1875,-0.0625 q 0.375,0 0.375,0.34375 0,1.03125 -2.46875,2.25 -2.46875,1.1875 -4.59375,1.1875 -7.1875,0 -7.1875,-7.5 v -15.78125 h -2.78125 q -0.8125,0 -0.8125,-0.46875 0,-0.4375 0.8125,-1.125 3.65625,-3.09375 5.59375,-6.1875 0.84375,-1.375 1.1875,-1.375 0.4375,0 0.4375,0.8125 l -0.125,5.40625 h 6.65625 q 1.375,0 2.125,-0.5 0.46875,-0.34375 0.6875,-0.375 0.34375,-0.0625 0.3125,0.34375 0,0.15625 -0.28125,0.78125 l -0.71875,1.78125 q -0.34375,0.90625 -1.375,0.90625 z" />
    <path
       id="path73"
       style="font-style:normal font-variant:normal font-weight:normal font-stretch:normal font-size:64px font-family:'Goudy Old Style' -inkscape-font-specification:'Goudy Old Style' text-align:center letter-spacing:0px text-anchor:middle"
       d="m 425.65234,241.8374 -0.0312,0.6875 q 0,5.34375 2.9375,9 2.96875,3.625 7.28125,3.625 3.40625,0 7.40625,-3.0625 0.25,-0.1875 0.46875,-0.21875 0.4375,-0.0312 0.4375,0.5 0,0.9375 -2.1875,2.65625 -4.0625,3.1875 -8.59375,3.1875 -5.09375,0 -8.5625,-3.875 -3.4375,-3.875 -3.4375,-9.59375 0,-5.4375 3.5625,-9.5 3.5625,-4.09375 8.34375,-4.09375 5.21875,0 8.34375,4.34375 0.75,1.0625 1.53125,2.875 0.78125,1.8125 0.78125,2.53125 0,1.03125 -2.03125,1.03125 l -2.3125,-0.0312 -2.125,-0.0625 z m 0.125,-1.6875 h 10.59375 q 2.46875,0 2.46875,-1 0,-2.4375 -2.125,-4.53125 -2.09375,-2.09375 -4.5625,-2.09375 -2.5625,0 -4.28125,2.0625 -1.6875,2.03125 -2.09375,5.5625 z" />
  </g>
</svg>
